<?xml version="1.0" encoding="utf-8"?>
<!-- Generator: Adobe Illustrator 21.0.2, SVG Export Plug-In . SVG Version: 6.00 Build 0)  -->
<svg version="1.1" id="Layer_1" xmlns="http://www.w3.org/2000/svg" xmlns:xlink="http://www.w3.org/1999/xlink" x="0px" y="0px"
	 viewBox="0 0 1336 462" style="enable-background:new 0 0 1336 462;" xml:space="preserve">
<style type="text/css">
	.st0{fill:#EFF0EA;}
	.st1{fill:#5EA282;}
	.st2{fill:#41715A;}
	.st3{fill:#5FA281;}
	.st4{fill:#41715B;}
	.st5{fill:#959875;}
	.st6{fill:#F7F3C6;}
	.st7{fill:#FFFFFF;}
	.st8{fill:#BFC192;}
	.st9{fill:#979676;}
	.st10{fill:none;}
	.st11{fill:#B7DEA5;}
	.st12{fill:#87C070;}
	.st13{fill:#498643;}
	.st14{fill:#87C06F;}
	.st15{fill:#E2E2E2;}
	.st16{opacity:0.8;fill:#8DD86A;}
	.st17{opacity:0.8;fill:#429314;}
	.st18{opacity:0.9;fill:#429314;}
	.st19{opacity:0.9;fill:#8DD86A;}
	.st20{fill:#8DD86A;}
	.st21{fill:#429314;}
</style>
<rect class="st0" width="1336" height="299.7"/>
<g id="trees_x5F_2">
	<g>
		<rect x="464.2" y="260.6" class="st1" width="2.6" height="15.8"/>
		<g>
			<path class="st1" d="M466.9,237.2c0.3-2.3,3.8-1.5,2.9,0.7c0.9-2.2,4-0.5,2.6,1.4c1.4-1.9,4,0.5,2.2,2c1.8-1.5,3.7,1.5,1.6,2.5
				c2.1-1,3.2,2.4,0.9,2.8c2.3-0.5,2.5,3.1,0.2,3c2.3,0.1,1.7,3.6-0.6,2.9c2.2,0.7,0.7,4-1.3,2.7c2,1.3-0.3,4-1.9,2.3
				c1.6,1.7-1.3,3.8-2.4,1.8c1.1,2.1-2.2,3.4-2.8,1.1c0.6,2.3-3,2.7-3,0.4c0,2.3-3.5,1.9-3-0.4c-0.6,2.3-3.9,1-2.8-1.1
				c-1.1,2.1-4,0-2.4-1.8c-1.6,1.7-3.9-1-1.9-2.3c-2,1.3-3.5-2-1.3-2.7c-2.2,0.7-2.9-2.8-0.6-2.9c-2.3,0.1-2.1-3.4,0.2-3
				c-2.3-0.5-1.2-3.8,0.9-2.8c-2.1-1-0.2-4,1.6-2.5c-1.8-1.5,0.8-4,2.2-2c-1.4-1.9,1.7-3.6,2.6-1.4c-0.9-2.2,2.6-3.1,2.9-0.7
				C463.7,234.9,467.2,234.9,466.9,237.2z"/>
		</g>
		<g>
			<path class="st1" d="M467.6,277.4c0.1,1.1-0.7,2-1.8,2h-0.8c-1.1,0-1.9-0.9-1.8-2l0.2-2.2c0.1-1.1,1-2,2-2c1,0,1.9,0.9,2,2
				L467.6,277.4z"/>
		</g>
	</g>
	<g>
		<g>
			<g>
				<rect x="365.1" y="267.8" class="st2" width="1.6" height="10"/>
			</g>
			<g>
				<path class="st2" d="M366.9,252.9c0.2-1.5,2.4-0.9,1.8,0.5c0.5-1.4,2.5-0.3,1.7,0.9c0.9-1.2,2.5,0.3,1.4,1.3c1.1-1,2.4,1,1,1.6
					c1.3-0.6,2,1.5,0.6,1.8c1.5-0.3,1.6,2,0.1,1.9c1.5,0.1,1.1,2.3-0.4,1.9c1.4,0.5,0.5,2.5-0.8,1.7c1.3,0.8-0.2,2.5-1.2,1.5
					c1,1.1-0.8,2.4-1.5,1.1c0.7,1.3-1.4,2.1-1.8,0.7c0.4,1.4-1.9,1.7-1.9,0.2c0,1.5-2.2,1.2-1.9-0.2c-0.4,1.4-2.5,0.6-1.8-0.7
					c-0.7,1.3-2.5,0-1.5-1.1c-1,1.1-2.5-0.7-1.2-1.5c-1.3,0.8-2.2-1.3-0.8-1.7c-1.4,0.5-1.8-1.8-0.4-1.9c-1.5,0.1-1.3-2.2,0.1-1.9
					c-1.5-0.3-0.8-2.4,0.6-1.8c-1.3-0.6-0.1-2.6,1-1.6c-1.1-1,0.5-2.5,1.4-1.3c-0.9-1.2,1.1-2.3,1.7-0.9c-0.5-1.4,1.6-2,1.8-0.5
					C364.8,251.5,367.1,251.5,366.9,252.9z"/>
			</g>
			<g>
				<path class="st2" d="M367.3,277.7c0.1,1.1-0.5,2-1.3,2s-1.4-0.9-1.3-2l0-0.6c0.1-1.1,0.7-2,1.3-2c0.6,0,1.2,0.9,1.3,2
					L367.3,277.7z"/>
			</g>
		</g>
	</g>
	<g>
		<g>
			<g>
				<rect x="874.6" y="266.6" class="st3" width="1.7" height="10.8"/>
			</g>
			<g>
				<path class="st3" d="M876.5,250.5c0.2-1.6,2.6-1,2,0.5c0.6-1.5,2.7-0.3,1.8,1c0.9-1.3,2.7,0.4,1.5,1.4c1.2-1,2.6,1,1.1,1.7
					c1.5-0.7,2.2,1.6,0.6,1.9c1.6-0.3,1.7,2.1,0.1,2c1.6,0.1,1.1,2.5-0.4,2c1.5,0.5,0.5,2.7-0.9,1.8c1.4,0.9-0.2,2.7-1.3,1.6
					c1.1,1.2-0.9,2.6-1.7,1.2c0.8,1.4-1.5,2.3-1.9,0.8c0.4,1.6-2,1.9-2,0.3c0,1.6-2.4,1.3-2-0.3c-0.4,1.6-2.7,0.7-1.9-0.8
					c-0.8,1.4-2.8,0-1.7-1.2c-1.1,1.2-2.7-0.7-1.3-1.6c-1.4,0.9-2.4-1.4-0.9-1.8c-1.5,0.5-2-1.9-0.4-2c-1.6,0.1-1.5-2.3,0.1-2
					c-1.6-0.3-0.8-2.6,0.6-1.9c-1.5-0.7-0.1-2.8,1.1-1.7c-1.2-1,0.5-2.7,1.5-1.4c-0.9-1.3,1.2-2.5,1.8-1c-0.6-1.5,1.8-2.1,2-0.5
					C874.3,248.9,876.7,248.9,876.5,250.5z"/>
			</g>
			<g>
				<path class="st3" d="M877,277.4c0.1,1.1-0.6,2-1.5,2s-1.6-0.9-1.5-2l0.1-0.9c0.1-1.1,0.7-2,1.4-2c0.7,0,1.3,0.9,1.4,2L877,277.4
					z"/>
			</g>
		</g>
	</g>
</g>
<rect y="278.4" class="st3" width="1336" height="183.6"/>
<g id="mountains">
	<polygon class="st4" points="974.5,349.7 668,377.6 769.4,319.6 1038.9,328.4 880.9,344.8 	"/>
	<g>
		<polygon class="st5" points="787.1,190.2 779.4,184.9 777.9,208.5 767.9,185.3 762.4,195.2 756.1,187.6 771.3,145.4 		"/>
		<polygon class="st6" points="834.1,321.6 707.9,317.6 756.1,187.6 762.4,195.2 767.9,185.3 777.9,208.5 779.4,184.9 787.1,190.2 
			794.6,211.3 798.5,204.5 		"/>
	</g>
	<g>
		<polygon class="st7" points="551.8,123.2 532.9,174.6 564.3,201.8 571.8,180.5 		"/>
		<polygon class="st8" points="475.1,325.5 534.6,170.1 541.4,178.8 548.6,167.9 559.3,194.8 560.8,167.9 569.1,172.8 577.4,196.6 
			586.5,169.7 646,371.3 		"/>
	</g>
	<g>
		<polygon class="st9" points="678.5,173.6 680.4,138.5 691.9,145.5 668,80.8 668,149.6 		"/>
		<polygon class="st7" points="663.2,138.5 668,149.6 668,80.8 645.5,142.7 654.1,153.3 		"/>
		<polygon class="st8" points="714.6,141.3 703.2,176.2 691.9,145.5 680.4,138.5 678.5,173.6 668,149.6 668,377.6 777.1,344.5 		"/>
		<polygon class="st6" points="663.2,138.5 654.1,153.3 645.5,142.7 620.3,212.1 610,184.1 547.7,344.9 668,377.6 668,149.6 		"/>
	</g>
</g>
<g id="clouds">
	<path class="st7" d="M866.6,139.6H927c0,0,0-0.1,0-0.1c0-4.4-0.9-8-5.9-8c-0.8,0-1,0.1-1.7,0.2c-1.8-3.3-5.5-5.6-9.9-5.6
		c-4.6,0-8.6,2.6-10.2,6.2c-2.2-1.9-5.2-3-8.5-3c-5.4,0-9.9,3-11.7,7.3c-0.8-0.4-3-0.7-4.8-0.4C871.2,136.4,868,137.3,866.6,139.6z"
		/>
	<path class="st7" d="M557,218.6h59.1c0,0,0-0.1,0-0.1c0-4.5-0.9-8.2-5.8-8.2c-0.7,0-1,0.1-1.7,0.3c-1.7-3.4-5.4-5.7-9.7-5.7
		c-4.5,0-8.4,2.6-10,6.3c-2.2-1.9-5.1-3.1-8.4-3.1c-5.3,0-9.7,3.1-11.4,7.4c-0.8-0.4-2.9-0.7-4.7-0.5
		C561.5,215.3,558.4,216.2,557,218.6z"/>
	<path class="st7" d="M796.5,267.6h-87.3c0-0.1,0-0.1,0-0.2c0-6.8,5.5-12.3,12.3-12.3c1,0,2,0.1,3,0.4c2.4-5.1,7.6-8.6,13.6-8.6
		c6.3,0,11.7,3.9,13.9,9.5c3-2.9,7.1-4.6,11.7-4.6c7.3,0,13.6,4.6,16,11.1c1.8-1.4,4.1-2.2,6.6-2.2
		C790.9,260.6,794.9,263.5,796.5,267.6z"/>
</g>
<g id="houses">
	<g>
		<polyline class="st4" points="957.1,290.7 1000.2,290.7 981.7,278.5 955.7,278.5 957.1,290.7 		"/>
		<g>
			<polygon class="st10" points="932.7,238.3 932.7,238.3 932.7,238.3 			"/>
			<polygon class="st8" points="932.7,264.5 939.5,264.5 939.5,278.2 932.7,278.2 932.7,290.7 957.1,290.7 957.1,262.6 932.7,238.3 
							"/>
			<polygon class="st6" points="925.9,278.2 925.9,264.5 932.7,264.5 932.7,238.3 932.7,238.3 932.7,238.3 908.3,262.6 908.3,290.7 
				932.7,290.7 932.7,278.2 			"/>
			<rect x="932.7" y="264.5" class="st2" width="6.8" height="13.6"/>
			<rect x="925.9" y="264.5" class="st3" width="6.8" height="13.6"/>
			<polygon class="st2" points="951.2,239.1 943.4,239.1 943.4,243.2 951.2,251 			"/>
			<polygon class="st3" points="932.7,238.3 932.7,238.3 932.7,238.3 932.7,238.3 932.7,232.5 932.7,232.5 929.8,235.4 901.6,263.6 
				904.5,266.5 908.3,262.6 908.3,259 			"/>
			<polygon class="st3" points="908.3,259 908.3,262.6 932.7,238.3 			"/>
			<polygon class="st3" points="932.7,238.3 932.7,238.3 932.7,238.3 			"/>
			<polygon class="st2" points="951.2,251 943.4,243.2 935.6,235.4 932.7,232.5 932.7,238.3 932.7,238.3 957.1,262.6 960.9,266.5 
				963.8,263.6 			"/>
		</g>
	</g>
	<g>
		<polygon class="st10" points="291.4,210.6 291.4,210.6 291.4,210.6 		"/>
		<polygon class="st8" points="291.4,244.6 300.3,244.6 300.3,262.3 291.4,262.3 291.4,278.6 323,278.6 323,242.2 291.4,210.6 		"/>
		<polygon class="st6" points="282.6,262.3 282.6,244.6 291.4,244.6 291.4,210.6 291.4,210.6 291.4,210.6 259.9,242.2 259.9,278.6 
			291.4,278.6 291.4,262.3 		"/>
		<rect x="291.4" y="244.6" class="st2" width="8.8" height="17.7"/>
		<rect x="282.6" y="244.6" class="st3" width="8.8" height="17.7"/>
		<polygon class="st2" points="315.3,211.6 305.2,211.6 305.2,217 315.3,227.1 		"/>
		<polygon class="st3" points="291.4,210.6 291.4,210.6 291.4,210.6 291.4,210.6 291.4,203.2 291.4,203.2 287.7,206.9 251.2,243.4 
			254.9,247.1 259.9,242.2 259.9,237.5 		"/>
		<polygon class="st3" points="259.9,237.5 259.9,242.2 291.4,210.6 		"/>
		<polygon class="st3" points="291.4,210.6 291.4,210.6 291.4,210.6 		"/>
		<polygon class="st2" points="315.3,227.1 305.2,217 295.2,206.9 291.4,203.2 291.4,210.6 291.4,210.6 323,242.2 327.9,247.1 
			331.7,243.4 		"/>
	</g>
	<g>
		<polyline class="st4" points="577.9,378 621.1,378 602.5,365.8 576.6,365.8 577.9,378 		"/>
		<g>
			<polygon class="st10" points="553.6,325.6 553.6,325.6 553.6,325.6 			"/>
			<polygon class="st8" points="553.6,351.8 560.4,351.8 560.4,365.4 553.6,365.4 553.6,378 577.9,378 577.9,349.9 553.6,325.6 			
				"/>
			<polygon class="st6" points="546.7,365.4 546.7,351.8 553.6,351.8 553.6,325.6 553.6,325.6 553.6,325.6 529.2,349.9 529.2,378 
				553.6,378 553.6,365.4 			"/>
			<rect x="553.6" y="351.8" class="st2" width="6.8" height="13.6"/>
			<rect x="546.7" y="351.8" class="st3" width="6.8" height="13.6"/>
			<polygon class="st2" points="572,326.4 564.2,326.4 564.2,330.5 572,338.3 			"/>
			<polygon class="st3" points="553.6,325.6 553.6,325.6 553.6,325.6 553.6,325.6 553.6,319.8 553.6,319.8 550.7,322.7 522.5,350.9 
				525.4,353.7 529.2,349.9 529.2,346.3 			"/>
			<polygon class="st3" points="529.2,346.3 529.2,349.9 553.6,325.6 			"/>
			<polygon class="st3" points="553.6,325.6 553.6,325.6 553.6,325.6 			"/>
			<polygon class="st2" points="572,338.3 564.2,330.5 556.4,322.7 553.6,319.8 553.6,325.6 553.6,325.6 577.9,349.9 581.8,353.7 
				584.6,350.9 			"/>
		</g>
	</g>
</g>
<g id="trees">
	<g>
		<polygon class="st4" points="1150.5,312.8 1233.7,316.9 1119.4,329.8 		"/>
		<g>
			<polygon class="st11" points="1119.4,215.6 1119.4,329.8 1075.2,318 1095.7,306.7 1079.8,306.7 1099.4,295.3 1084.6,295.3 
				1103.4,284 1089.1,284 1107,272.7 1093.5,272.7 1110.2,261.1 1098.3,261.1 1112.9,249.7 1102.6,249.7 1116.1,238.3 1107.5,238.3 
				1118.3,227 1112,227 			"/>
			<polygon class="st12" points="1119.4,215.6 1119.4,329.8 1163.7,318 1143.1,306.7 1159.1,306.7 1139.4,295.3 1154.2,295.3 
				1135.4,284 1149.7,284 1131.8,272.7 1145.3,272.7 1128.6,261.1 1140.5,261.1 1125.9,249.7 1136.2,249.7 1122.7,238.3 
				1131.3,238.3 1120.5,227 1126.9,227 			"/>
		</g>
	</g>
	<g>
		<polygon class="st4" points="879.5,381 981.4,386.2 841.3,401.9 		"/>
		<g>
			<polygon class="st11" points="841.3,262 841.3,401.9 787.1,387.5 812.3,373.6 792.8,373.6 816.9,359.6 798.7,359.6 821.7,345.8 
				804.2,345.8 826.2,331.9 809.6,331.9 830.1,317.7 815.5,317.7 833.4,303.7 820.8,303.7 837.3,289.7 826.7,289.7 839.9,275.9 
				832.2,275.9 			"/>
			<polygon class="st12" points="841.3,262 841.3,401.9 895.6,387.5 870.4,373.6 889.9,373.6 865.8,359.6 884,359.6 860.9,345.8 
				878.4,345.8 856.5,331.9 873.1,331.9 852.6,317.7 867.2,317.7 849.3,303.7 861.9,303.7 845.3,289.7 856,289.7 842.7,275.9 
				850.5,275.9 			"/>
		</g>
	</g>
	<g>
		<polygon class="st4" points="716.8,408 780,411.2 693.1,421 		"/>
		<g>
			<polygon class="st11" points="693.1,334.2 693.1,421 659.5,412 675.1,403.4 663,403.4 677.9,394.7 666.7,394.7 681,386.2 
				670.1,386.2 683.7,377.6 673.4,377.6 686.1,368.7 677.1,368.7 688.2,360.1 680.4,360.1 690.6,351.4 684,351.4 692.3,342.8 
				687.4,342.8 			"/>
			<polygon class="st12" points="693.1,334.2 693.1,421 726.8,412 711.1,403.4 723.2,403.4 708.3,394.7 719.6,394.7 705.3,386.2 
				716.1,386.2 702.5,377.6 712.8,377.6 700.1,368.7 709.2,368.7 698,360.1 705.9,360.1 695.6,351.4 702.2,351.4 694,342.8 
				698.8,342.8 			"/>
		</g>
	</g>
	<g>
		<polygon class="st4" points="458.3,378.9 560.2,384 420.2,399.8 		"/>
		<g>
			<polygon class="st11" points="420.2,259.8 420.2,399.8 365.9,385.4 391.1,371.4 371.6,371.4 395.7,357.5 377.5,357.5 
				400.6,343.7 383.1,343.7 405,329.8 388.4,329.8 408.9,315.6 394.3,315.6 412.2,301.6 399.6,301.6 416.2,287.6 405.5,287.6 
				418.8,273.8 411,273.8 			"/>
			<polygon class="st12" points="420.2,259.8 420.2,399.8 474.4,385.4 449.2,371.4 468.7,371.4 444.6,357.5 462.8,357.5 
				439.7,343.7 457.2,343.7 435.3,329.8 451.9,329.8 431.4,315.6 446,315.6 428.1,301.6 440.7,301.6 424.2,287.6 434.8,287.6 
				421.6,273.8 429.3,273.8 			"/>
		</g>
	</g>
	<g>
		<polygon class="st4" points="288.7,306.6 173.6,318.7 192.3,301.7 		"/>
		<g>
			<polygon class="st11" points="173.6,204.5 173.6,318.7 129.3,307 149.9,295.6 133.9,295.6 153.6,284.2 138.8,284.2 157.6,272.9 
				143.3,272.9 161.2,261.6 147.7,261.6 164.4,250 152.5,250 167.1,238.6 156.8,238.6 170.3,227.2 161.7,227.2 172.5,215.9 
				166.1,215.9 			"/>
			<polygon class="st13" points="173.6,204.5 173.6,318.7 217.9,307 197.3,295.6 213.2,295.6 193.6,284.2 208.4,284.2 189.6,272.9 
				203.9,272.9 186,261.6 199.5,261.6 182.8,250 194.7,250 180.1,238.6 190.4,238.6 176.9,227.2 185.5,227.2 174.7,215.9 
				181.1,215.9 			"/>
		</g>
	</g>
	<g>
		<polyline class="st4" points="310.4,348.9 408.8,338.6 330.3,334.2 310.4,348.9 		"/>
		<g>
			<polygon class="st11" points="310.4,268 310.4,348.9 279,340.6 293.6,332.5 282.3,332.5 296.3,324.5 285.7,324.5 299.1,316.5 
				289,316.5 301.6,308.5 292,308.5 303.9,300.2 295.5,300.2 305.8,292.2 298.5,292.2 308.1,284.1 301.9,284.1 309.6,276.1 
				305.1,276.1 			"/>
			<polygon class="st14" points="310.4,268 310.4,348.9 341.7,340.6 327.2,332.5 338.5,332.5 324.5,324.5 335,324.5 321.7,316.5 
				331.8,316.5 319.1,308.5 328.8,308.5 316.9,300.2 325.3,300.2 315,292.2 322.3,292.2 312.7,284.1 318.8,284.1 311.2,276.1 
				315.7,276.1 			"/>
		</g>
	</g>
</g>
<g id="tower">
	<polygon class="st4" points="1010.8,332.7 1154.3,339.9 957,362.1 	"/>
	<g>
		<g>
			<polygon class="st10" points="1014.3,300.3 1014.3,280 987.5,300.3 			"/>
			<polygon class="st10" points="1014.3,324.1 1014.3,306.2 984.6,306.2 			"/>
			<polygon class="st10" points="1014.3,272.6 1028.5,261.8 1014.3,261.8 1014.3,272.6 			"/>
			<polygon class="st10" points="1041.1,300.3 1014.3,280 1014.3,280 1014.3,300.3 			"/>
			<polygon class="st10" points="1031.9,255.9 1014.3,201.3 1014.3,201.3 1014.3,255.9 			"/>
			<polygon class="st10" points="1014.3,272.6 1014.3,261.8 1000.1,261.8 			"/>
			<polygon class="st10" points="979.6,310.1 965.8,353.3 1008.6,327.5 			"/>
			<polygon class="st10" points="1014.3,255.9 1014.3,201.3 996.9,255.9 			"/>
			<polygon class="st10" points="994.1,264.6 994.1,264.7 984.3,295.4 1009.4,276.3 			"/>
			<path class="st7" d="M1014.3,187.9l-3.9,1.2l0.8,2.5l-53.1,166.3l-0.2,0.6l-1.1,3.3h6.2l51.2-30.8v-6.9l-29.7-17.9h29.7v-5.9
				h-26.8l26.8-20.3v-7.4l-14.2-10.8h14.2v-5.9h-17.4l17.4-54.6V187.9z M1008.6,327.5l-42.8,25.8l13.8-43.2L1008.6,327.5z
				 M1009.4,276.3l-25.2,19.1l9.8-30.8l0,0L1009.4,276.3z"/>
			<path class="st15" d="M1016,187.4l-1.7,0.6v13.4l0,0l17.5,54.6h-17.6v5.9h14.2l-14.2,10.8v7.4l26.8,20.3h-26.8v5.9h29.7
				l-28.6,17.2l-1.1,0.7v6.9l51.2,30.8h6.5L1016,187.4z M1019.2,276.3l15.5-11.7l0.1,0.2l9.9,30.9L1019.2,276.3z M1020,327.5
				l1.1-0.7l28.1-16.9l13.5,41.9l0.5,1.7L1020,327.5z"/>
		</g>
		<g>
			<g>
				<g>
					<path class="st10" d="M995.6,196c0,10.5,8.5,19,19,19v-7.8c-6.2,0-11.2-5-11.2-11.2c0-6.2,5-11.2,11.2-11.2V177
						C1004.2,177,995.6,185.5,995.6,196z"/>
					<path class="st10" d="M977.6,196c0,20.4,16.6,37,37,37V225c-16,0-29-13-29-29s13-29,29-29V159C994.2,159,977.6,175.6,977.6,196
						z"/>
					<path class="st10" d="M1014.6,167.1c8,0,15.2,3.2,20.5,8.5c5.2,5.2,8.5,12.5,8.5,20.5c0,8-3.2,15.2-8.5,20.5
						c-5.2,5.2-12.5,8.5-20.5,8.5c0,0,0,0,0,0l0,8.1c0,0,0,0,0,0c10.2,0,19.5-4.2,26.2-10.9c6.7-6.7,10.9-16,10.9-26.2
						c0-10.2-4.2-19.5-10.9-26.2c-6.7-6.7-16-10.9-26.2-10.9c0,0,0,0,0,0L1014.6,167.1C1014.6,167.1,1014.6,167.1,1014.6,167.1z"/>
					<path class="st10" d="M1022.6,188.1c2,2,3.3,4.8,3.3,7.9c0,3.1-1.3,5.9-3.3,7.9c-2,2-4.8,3.3-7.9,3.3v7.8c0,0,0,0,0,0
						c5.2,0,10-2.1,13.4-5.6c3.4-3.4,5.6-8.2,5.6-13.4c0-5.2-2.1-10-5.6-13.4c-3.4-3.4-8.2-5.6-13.4-5.6c0,0,0,0,0,0l0,7.8
						C1017.7,184.8,1020.5,186.1,1022.6,188.1z"/>
					<path class="st16" d="M977.6,196c0-20.4,16.6-37,37-37v-9.9c-25.9,0-47,21.1-47,47s21.1,47,47,47v-9.9
						C994.2,233.1,977.6,216.4,977.6,196z"/>
					<path class="st17" d="M1047.8,162.8c-8.5-8.5-20.3-13.8-33.2-13.8c0,0,0,0,0,0l0,9.9c0,0,0,0,0,0c10.2,0,19.5,4.2,26.2,10.9
						c6.7,6.7,10.9,16,10.9,26.2c0,10.2-4.2,19.5-10.9,26.2c-6.7,6.7-16,10.9-26.2,10.9c0,0,0,0,0,0l0,9.9c0,0,0,0,0,0
						c13,0,24.7-5.3,33.2-13.8c8.5-8.5,13.8-20.3,13.8-33.2C1061.6,183.1,1056.3,171.3,1047.8,162.8z"/>
					<path class="st18" d="M1035.1,216.5c5.2-5.2,8.5-12.5,8.5-20.5c0-8-3.2-15.2-8.5-20.5c-5.2-5.2-12.5-8.5-20.5-8.5c0,0,0,0,0,0
						l0,9.9c0,0,0,0,0,0c5.2,0,10,2.1,13.4,5.6c3.4,3.4,5.6,8.2,5.6,13.4c0,5.2-2.1,10-5.6,13.4c-3.4,3.4-8.2,5.6-13.4,5.6
						c0,0,0,0,0,0l0,9.9c0,0,0,0,0,0C1022.6,225,1029.9,221.7,1035.1,216.5z"/>
					<path class="st19" d="M995.6,196c0-10.5,8.5-19,19-19v-9.9c-16,0-29,13-29,29s13,29,29,29V215
						C1004.2,215,995.6,206.5,995.6,196z"/>
					<path class="st20" d="M1003.4,196c0,6.2,5,11.2,11.2,11.2v-22.4C1008.4,184.8,1003.4,189.8,1003.4,196z"/>
					<path class="st21" d="M1025.8,196c0-3.1-1.3-5.9-3.3-7.9c-2-2-4.8-3.3-7.9-3.3v22.4c3.1,0,5.9-1.3,7.9-3.3
						C1024.6,201.9,1025.8,199.1,1025.8,196z"/>
				</g>
			</g>
		</g>
	</g>
</g>
</svg>
