<?xml version="1.0" encoding="utf-8"?>
<!-- Generator: Adobe Illustrator 19.2.0, SVG Export Plug-In . SVG Version: 6.00 Build 0)  -->
<svg version="1.1" id="logo" xmlns="http://www.w3.org/2000/svg" xmlns:xlink="http://www.w3.org/1999/xlink" x="0px" y="0px"
	 viewBox="0 0 462.9 102.5" enable-background="new 0 0 462.9 102.5" xml:space="preserve">
<g>
	<path fill="#C0C0C0" d="M126,80.4V22.6h17.7c4,0,7.4,0.4,10.2,1.2s5.2,2,7,3.4c1.8,1.5,3.1,3.2,4,5.3c0.9,2,1.3,4.3,1.3,6.7
		c0,2-0.3,3.8-0.9,5.5c-0.6,1.7-1.4,3.3-2.5,4.7c-1.1,1.4-2.5,2.7-4.1,3.7c-1.6,1.1-3.5,1.9-5.5,2.5c1.4,0.8,2.6,1.9,3.6,3.3
		l14.5,21.4h-9.7c-1.8,0-3.2-0.7-4-2.1l-12.2-18.5c-0.4-0.7-0.9-1.2-1.5-1.5c-0.5-0.3-1.4-0.4-2.4-0.4h-4.6v22.6H126z M136.8,50.1
		h6.7c2,0,3.8-0.3,5.3-0.8c1.5-0.5,2.7-1.2,3.7-2.1s1.7-2,2.2-3.2c0.5-1.2,0.7-2.6,0.7-4c0-2.9-1-5.2-2.9-6.8
		c-1.9-1.6-4.9-2.4-8.9-2.4h-6.9V50.1z"/>
	<path fill="#C0C0C0" d="M172.3,69.9c0-1.5,0.4-3.1,1.2-4.6c0.8-1.5,2.2-2.9,4.1-4.1c1.9-1.2,4.4-2.2,7.6-3
		c3.2-0.8,7.1-1.2,11.8-1.3v-2.4c0-2.8-0.6-4.8-1.8-6.1c-1.2-1.3-2.9-2-5.1-2c-1.6,0-2.9,0.2-4,0.6c-1.1,0.4-2,0.8-2.8,1.3
		c-0.8,0.5-1.5,0.9-2.2,1.3c-0.7,0.4-1.4,0.6-2.2,0.6c-0.7,0-1.3-0.2-1.8-0.6s-0.9-0.8-1.2-1.3l-1.8-3.2c4.7-4.3,10.4-6.4,17.1-6.4
		c2.4,0,4.5,0.4,6.4,1.2c1.9,0.8,3.4,1.9,4.7,3.3c1.3,1.4,2.3,3.1,3,5c0.7,1.9,1,4.1,1,6.4v25.9h-4.5c-0.9,0-1.7-0.1-2.2-0.4
		c-0.5-0.3-0.9-0.8-1.2-1.7l-0.8-2.9c-1,0.9-2,1.8-3,2.5s-2,1.3-3,1.8c-1.1,0.5-2.2,0.8-3.4,1.1s-2.5,0.4-4,0.4
		c-1.8,0-3.4-0.2-4.8-0.7c-1.5-0.5-2.7-1.2-3.8-2.1s-1.9-2.1-2.5-3.5C172.6,73.4,172.3,71.8,172.3,69.9z M181.8,69.2
		c0,1.7,0.5,2.9,1.5,3.7c1,0.7,2.4,1.1,4,1.1c2,0,3.8-0.4,5.3-1.1c1.5-0.7,2.9-1.8,4.3-3.3v-6.8c-2.9,0.1-5.3,0.4-7.2,0.7
		c-1.9,0.4-3.5,0.8-4.6,1.4c-1.2,0.6-2,1.2-2.5,1.9S181.8,68.4,181.8,69.2z"/>
	<path fill="#C0C0C0" d="M213.7,60.1c0-3.1,0.4-5.9,1.2-8.5s2-4.9,3.6-6.8c1.5-1.9,3.4-3.4,5.6-4.5c2.2-1.1,4.6-1.6,7.3-1.6
		c2.3,0,4.3,0.4,5.9,1.1c1.6,0.7,3.1,1.7,4.4,2.9V21h9.9v59.5h-6c-1.3,0-2.1-0.6-2.5-1.8l-0.8-3.9c-0.9,0.9-1.8,1.8-2.7,2.6
		s-1.9,1.4-3,2c-1.1,0.6-2.2,1-3.5,1.3c-1.2,0.3-2.6,0.4-4,0.4c-2.2,0-4.3-0.5-6.2-1.4c-1.9-0.9-3.5-2.3-4.8-4.1
		c-1.3-1.8-2.4-4-3.1-6.6C214.1,66.4,213.7,63.4,213.7,60.1z M223.9,60.1c0,2.4,0.2,4.4,0.6,6.1c0.4,1.7,0.9,3,1.7,4.1
		c0.7,1.1,1.6,1.8,2.7,2.3c1,0.5,2.2,0.7,3.5,0.7c2.1,0,3.8-0.4,5.2-1.3c1.4-0.9,2.8-2.1,4.1-3.6V49.9c-1.1-1.4-2.3-2.3-3.7-2.9
		c-1.3-0.6-2.7-0.9-4.2-0.9c-1.5,0-2.8,0.3-4,0.8s-2.2,1.4-3.1,2.5c-0.8,1.1-1.5,2.6-2,4.4C224.1,55.6,223.9,57.7,223.9,60.1z"/>
	<path fill="#C0C0C0" d="M258.3,69.9c0-1.5,0.4-3.1,1.2-4.6c0.8-1.5,2.2-2.9,4.1-4.1c1.9-1.2,4.4-2.2,7.6-3
		c3.2-0.8,7.1-1.2,11.8-1.3v-2.4c0-2.8-0.6-4.8-1.8-6.1c-1.2-1.3-2.9-2-5.1-2c-1.6,0-2.9,0.2-4,0.6c-1.1,0.4-2,0.8-2.8,1.3
		c-0.8,0.5-1.5,0.9-2.2,1.3c-0.7,0.4-1.4,0.6-2.2,0.6c-0.7,0-1.3-0.2-1.8-0.6s-0.9-0.8-1.2-1.3l-1.8-3.2c4.7-4.3,10.4-6.4,17.1-6.4
		c2.4,0,4.5,0.4,6.4,1.2c1.9,0.8,3.4,1.9,4.7,3.3s2.3,3.1,3,5c0.7,1.9,1,4.1,1,6.4v25.9h-4.5c-0.9,0-1.7-0.1-2.2-0.4
		c-0.5-0.3-0.9-0.8-1.2-1.7l-0.8-2.9c-1,0.9-2,1.8-3,2.5s-2,1.3-3,1.8c-1.1,0.5-2.2,0.8-3.4,1.1s-2.5,0.4-4,0.4
		c-1.8,0-3.4-0.2-4.8-0.7c-1.5-0.5-2.7-1.2-3.8-2.1s-1.9-2.1-2.5-3.5C258.6,73.4,258.3,71.8,258.3,69.9z M267.8,69.2
		c0,1.7,0.5,2.9,1.5,3.7c1,0.7,2.4,1.1,4,1.1c2,0,3.8-0.4,5.3-1.1c1.5-0.7,2.9-1.8,4.3-3.3v-6.8c-2.9,0.1-5.3,0.4-7.2,0.7
		c-1.9,0.4-3.5,0.8-4.6,1.4c-1.2,0.6-2,1.2-2.5,1.9S267.8,68.4,267.8,69.2z"/>
	<path fill="#C0C0C0" d="M301.8,80.4V39.4h6.3c1.1,0,1.9,0.2,2.3,0.5s0.7,1,0.9,1.9l0.2,4.4c1-2.3,2.4-4.2,4.2-5.5
		c1.8-1.3,3.9-2,6.3-2c1.9,0,3.4,0.4,4.6,1.2l-0.7,7c-0.1,0.4-0.3,0.8-0.6,1c-0.2,0.2-0.6,0.3-1,0.3c-0.4,0-1-0.1-1.8-0.2
		c-0.8-0.1-1.5-0.2-2.3-0.2c-1.1,0-2.1,0.2-2.9,0.5c-0.9,0.3-1.6,0.8-2.3,1.4c-0.7,0.6-1.3,1.3-1.8,2.2c-0.5,0.9-1,1.9-1.4,3v25.6
		H301.8z"/>
	<path fill="#C0C0C0" d="M332.5,80.4V22.6h10.8v57.9H332.5z"/>
	<path fill="#C0C0C0" d="M352.8,51.5c0-4.3,0.7-8.3,2.1-11.9c1.4-3.6,3.3-6.7,5.9-9.3c2.5-2.6,5.5-4.6,9-6.1
		c3.5-1.5,7.4-2.2,11.6-2.2c4.2,0,8,0.7,11.2,2.1c3.3,1.4,6,3.2,8.3,5.4l-3.6,5c-0.2,0.3-0.5,0.6-0.8,0.8c-0.3,0.2-0.8,0.4-1.4,0.4
		c-0.4,0-0.8-0.1-1.2-0.3c-0.4-0.2-0.9-0.5-1.4-0.8c-0.5-0.3-1.1-0.7-1.8-1.1c-0.7-0.4-1.4-0.8-2.3-1.1c-0.9-0.3-1.9-0.6-3.1-0.8
		c-1.2-0.2-2.5-0.4-4-0.4c-2.6,0-4.9,0.5-7.1,1.4c-2.1,0.9-4,2.3-5.5,4c-1.5,1.7-2.8,3.9-3.6,6.4c-0.9,2.5-1.3,5.4-1.3,8.6
		c0,3.3,0.5,6.1,1.4,8.7c0.9,2.5,2.2,4.7,3.8,6.4c1.6,1.7,3.4,3.1,5.6,4c2.1,0.9,4.4,1.4,6.9,1.4c1.5,0,2.8-0.1,4-0.2
		c1.2-0.2,2.3-0.4,3.3-0.8c1-0.3,2-0.8,2.9-1.3c0.9-0.5,1.8-1.2,2.7-2c0.3-0.2,0.5-0.4,0.8-0.6c0.3-0.1,0.6-0.2,0.9-0.2
		c0.6,0,1.1,0.2,1.6,0.7l4.2,4.6c-2.3,2.9-5.2,5.2-8.7,6.7c-3.4,1.5-7.5,2.3-12.3,2.3c-4.3,0-8.2-0.7-11.6-2.2
		c-3.4-1.5-6.4-3.5-8.8-6.1c-2.4-2.6-4.3-5.7-5.6-9.4C353.5,59.7,352.8,55.8,352.8,51.5z"/>
	<path fill="#C0C0C0" d="M404.4,51.5c0-4.2,0.7-8.2,2.1-11.8s3.4-6.7,6-9.4s5.7-4.7,9.3-6.2c3.6-1.5,7.6-2.2,12-2.2
		c2.9,0,5.7,0.3,8.3,1c2.6,0.7,5,1.6,7.1,2.9c2.2,1.2,4.1,2.7,5.8,4.5c1.7,1.8,3.2,3.8,4.4,5.9s2.1,4.5,2.7,7.1s0.9,5.3,0.9,8.1
		c0,4.2-0.7,8.2-2.1,11.8c-1.4,3.6-3.4,6.7-5.9,9.4s-5.6,4.7-9.2,6.2c-3.6,1.5-7.6,2.2-12,2.2c-4.4,0-8.4-0.7-12-2.2
		c-3.6-1.5-6.7-3.5-9.3-6.2s-4.6-5.8-6-9.4C405.1,59.7,404.4,55.7,404.4,51.5z M415.3,51.5c0,3.2,0.4,6,1.3,8.5
		c0.9,2.5,2.1,4.6,3.7,6.4c1.6,1.7,3.5,3.1,5.8,4c2.3,0.9,4.8,1.4,7.6,1.4c2.8,0,5.4-0.5,7.6-1.4c2.3-0.9,4.2-2.3,5.7-4
		c1.6-1.7,2.8-3.9,3.6-6.4c0.8-2.5,1.3-5.4,1.3-8.5c0-3.2-0.4-6-1.3-8.6c-0.8-2.5-2.1-4.7-3.6-6.4c-1.6-1.8-3.5-3.1-5.7-4
		c-2.3-0.9-4.8-1.4-7.6-1.4c-2.8,0-5.4,0.5-7.6,1.4c-2.2,0.9-4.2,2.3-5.7,4c-1.6,1.8-2.8,3.9-3.7,6.4S415.3,48.3,415.3,51.5z"/>
</g>
<g>
	<path fill="#D4D4D4" d="M87.5,15l-7.7,7.7c7.3,7.3,11.8,17.4,11.8,28.6c0,11.1-4.5,21.2-11.9,28.6l7.7,7.7c9.3-9.3,15-22.1,15-36.2
		C102.5,37.1,96.8,24.3,87.5,15z"/>
	<path fill="#D4D4D4" d="M73.6,28.9l-7.7,7.7c3.8,3.8,6.1,8.9,6.1,14.7c0,5.7-2.3,10.9-6.1,14.7l7.7,7.7c5.7-5.7,9.3-13.6,9.3-22.3
		C82.9,42.6,79.3,34.7,73.6,28.9z"/>
	<path fill="#D4D4D4" d="M51.3,51.3l8.7,8.7c2.2-2.2,3.6-5.3,3.6-8.7c0-3.4-1.4-6.4-3.6-8.7L51.3,51.3z"/>
</g>
<g>
	<g>
		<path fill="#AFAFAF" d="M59.9,42.6c-2.2-2.2-5.3-3.6-8.7-3.6C44.5,39,39,44.5,39,51.3c0,6.8,5.5,12.2,12.2,12.2
			c3.4,0,6.4-1.4,8.7-3.6l-8.7-8.7L59.9,42.6z"/>
	</g>
	<g>
		<path fill="#AFAFAF" d="M51.3,91.7c-22.3,0-40.4-18.1-40.4-40.4S29,10.9,51.3,10.9c11.1,0,21.2,4.5,28.6,11.9l7.7-7.7
			C78.2,5.8,65.4,0,51.3,0C23,0,0,23,0,51.3s23,51.3,51.3,51.3c14.1,0,27-5.7,36.2-15l-7.7-7.7C72.5,87.2,62.4,91.7,51.3,91.7z"/>
	</g>
	<g>
		<path fill="#AFAFAF" d="M51.3,72c-11.4,0-20.8-9.3-20.8-20.8s9.3-20.8,20.8-20.8c5.7,0,10.9,2.3,14.7,6.1l7.7-7.7
			c-5.7-5.7-13.6-9.3-22.3-9.3c-17.4,0-31.6,14.2-31.6,31.6s14.2,31.6,31.6,31.6c8.7,0,16.6-3.5,22.3-9.3l-7.7-7.7
			C62.2,69.7,57,72,51.3,72z"/>
	</g>
</g>
</svg>
