<?xml version="1.0" encoding="utf-8"?>
<!-- Generator: Adobe Illustrator 19.2.0, SVG Export Plug-In . SVG Version: 6.00 Build 0)  -->
<svg version="1.1" id="Layer_1" xmlns="http://www.w3.org/2000/svg" xmlns:xlink="http://www.w3.org/1999/xlink" x="0px" y="0px"
	 viewBox="0 0 64 64" enable-background="new 0 0 64 64" xml:space="preserve">
<path fill="#FF707D" d="M32,64L32,64C14.3,64,0,49.7,0,32v0C0,14.3,14.3,0,32,0h0c17.7,0,32,14.3,32,32v0C64,49.7,49.7,64,32,64z"/>
<path fill="#FFFFFF" d="M49.9,27c0-5.6-4.5-10.1-10.1-10.1c-3.1,0-5.9,1.4-7.8,3.6c-1.9-2.2-4.6-3.6-7.8-3.6
	c-5.6,0-10.1,4.5-10.1,10.1c0,8.8,13.8,17.8,17.2,19.8c0.4,0.3,1,0.3,1.4,0C36,44.8,49.9,35.8,49.9,27z"/>
<path fill="#313639" d="M34.1,29.7c0-1.2-0.9-2.1-2.1-2.1c-1.2,0-2.1,0.9-2.1,2.1c0,0.8,0.4,1.5,1.1,1.8l-1.8,4.8h5.6L33,31.6
	C33.7,31.2,34.1,30.5,34.1,29.7z"/>
</svg>
