<?xml version="1.0" standalone="no"?>
<!DOCTYPE svg PUBLIC "-//W3C//DTD SVG 20010904//EN"
 "http://www.w3.org/TR/2001/REC-SVG-20010904/DTD/svg10.dtd">
<svg version="1.0" xmlns="http://www.w3.org/2000/svg"
 width="700.000000pt" height="700.000000pt" viewBox="0 0 700.000000 700.000000"
 preserveAspectRatio="xMidYMid meet">
<metadata>
Created by potrace 1.11, written by Peter Selinger 2001-2013
</metadata>
<g transform="translate(0.000000,700.000000) scale(0.100000,-0.100000)"
fill="#000000" stroke="none">
<path d="M3324 6990 c-741 -37 -1430 -299 -2014 -764 -160 -128 -408 -376
-536 -536 -410 -515 -662 -1113 -744 -1765 -28 -230 -28 -620 0 -850 82 -652
334 -1250 744 -1765 128 -160 376 -408 536 -536 515 -410 1113 -662 1765 -744
230 -28 620 -28 850 0 652 82 1250 334 1765 744 160 128 408 376 536 536 410
515 662 1113 744 1765 28 230 28 620 0 850 -82 652 -334 1250 -744 1765 -128
160 -376 408 -536 536 -136 108 -332 241 -477 323 -444 251 -990 412 -1478
436 -66 3 -151 7 -190 9 -38 2 -138 0 -221 -4z m-494 -1851 c214 -31 423 -137
597 -302 l73 -70 74 71 c217 206 482 313 781 313 478 1 893 -296 1048 -751 55
-161 71 -358 42 -521 -98 -560 -684 -1219 -1656 -1865 -210 -139 -266 -168
-309 -159 -37 8 -204 109 -385 233 -802 548 -1338 1129 -1500 1627 -125 385
-30 803 249 1094 262 272 600 385 986 330z"/>
<path d="M3416 3965 c-93 -33 -154 -137 -141 -240 6 -49 53 -145 72 -145 5 0
16 -7 26 -14 16 -12 10 -31 -78 -266 -52 -139 -95 -257 -95 -261 0 -5 135 -9
300 -9 165 0 300 4 300 9 0 5 -43 120 -95 256 l-96 248 36 30 c44 36 72 89 81
155 22 167 -145 296 -310 237z"/>
</g>
</svg>
