<?xml version="1.0" standalone="no"?>
<!DOCTYPE svg PUBLIC "-//W3C//DTD SVG 1.1//EN" "http://www.w3.org/Graphics/SVG/1.1/DTD/svg11.dtd" >
<svg>
<metadata>
Created by FontForge 20120731 at Mon Apr 29 14:22:24 2019
 By www-data
Copyright (c) 2015 by Fontfabric LLC. All rights reserved.
</metadata>
<defs>
<font id="MullerBlackItalic" horiz-adv-x="594" >
  <font-face 
    font-family="MullerBlackItalic"
    font-weight="400"
    font-style="italic"
    font-stretch="normal"
    units-per-em="1000"
    panose-1="0 0 0 0 0 0 0 0 0 0"
    ascent="758"
    descent="-242"
    x-height="480"
    cap-height="700"
    bbox="-215 -287.001 1385 992.001"
    underline-thickness="50"
    underline-position="-75"
    slope="-9"
    unicode-range="U+0020-25CA"
  />
<missing-glyph horiz-adv-x="184" 
 />
    <glyph glyph-name="f_f" unicode="ff" horiz-adv-x="769" 
d="M811 556c-16.667 6.66699 -34.333 9.99902 -53 9.99902c-40.667 0 -64 -16.333 -70 -49l-7 -37h105l-26 -168h-105l-50 -312h-210l49 312h-138l-50 -312h-210l49 312h-68l27 168h68l5 30c10 64.667 39.333 113.834 88 147.501s106.667 50.5 174 50.5
c58 0 109.333 -10.667 154 -32c40 40 97.667 60 173 60c44.667 0 84.667 -6.66699 120 -20zM332.001 479.999h138.999l6 40c0 1.33301 0.333008 3.33301 1 6s1.16699 5 1.5 7s0.5 3.66699 0.5 5c-16 7.33301 -37 11 -63 11c-24 0 -43.167 -5.66699 -57.5 -17
s-23.166 -26 -26.499 -44z" />
    <glyph glyph-name="f_f_i" unicode="ffi" horiz-adv-x="1031" 
d="M256 0h-209.999l49 312h-68l27 168h68l5 30c10 64.667 39.333 113.834 88 147.501s106.667 50.5 174 50.5c63.333 0 118.666 -13 165.999 -39c52 44.667 122 67 210 67c70 0 135 -11.667 195 -35l-26 -160c-47.333 16.667 -92.333 25 -135 25
c-33.333 0 -60 -6.33301 -80 -19s-31.667 -30.334 -35 -53.001l-3 -14h339l-76 -480h-211l50 312h-128l-50 -312h-210l49 312h-138zM333.001 488l-1.00195 -8h139l4 28l6 30c-17.333 7.33301 -38.666 11 -63.999 11c-24 0 -43.167 -5.66699 -57.5 -17
s-23.166 -26 -26.499 -44z" />
    <glyph glyph-name="f_f_l" unicode="ffl" horiz-adv-x="1045" 
d="M739 731c54 0 106.001 -8.66895 156.001 -26.002l177 19l-115 -724h-211l87 552c-20 6.66699 -38.333 9.33398 -55 8.00098c-24.667 0 -45.834 -6 -63.501 -18s-28.167 -28.667 -31.5 -50l-2 -12h90l-27 -168h-89l-50 -312h-210l49 312h-138l-50 -312h-210l49 312h-68
l27 168h68l5 30c10 64.667 39 113.834 87 147.501s105 50.5 171 50.5c64 0 121 -13 171 -39c47.333 41.333 108.333 62 183 62zM471.001 479.998l3.99902 28c0.666992 7.33301 2.66699 17.333 6 30c-16 7.33301 -37.333 11 -64 11c-24 0 -43.167 -5.66699 -57.5 -17
s-23.166 -26 -26.499 -44l-1 -8h139z" />
    <glyph glyph-name=".notdef" horiz-adv-x="184" 
 />
    <glyph glyph-name="space" unicode=" " horiz-adv-x="184" 
 />
    <glyph glyph-name="exclam" unicode="!" horiz-adv-x="310" 
d="M240 275h-177l44 425h225zM239 83c-5.33301 -33.333 -19.334 -58.166 -42.001 -74.499s-49.667 -24.5 -81 -24.5c-36 0 -64.333 11 -85 33s-27.667 53.333 -21 94c5.33301 33.333 19.333 58.166 42 74.499s49.334 24.5 80.001 24.5c36 0 64.333 -11.167 85 -33.5
s28 -53.5 22 -93.5z" />
    <glyph glyph-name="quotedbl" unicode="&#x22;" horiz-adv-x="486" 
d="M449 433h-149l43 267h183zM211 433h-149l43 267h183z" />
    <glyph glyph-name="numbersign" unicode="#" horiz-adv-x="731" 
d="M200 0h-187l50 126h-60l23 142h94l56 145h-77l23 142h111l49 126h187l-49 -126h79l49 126h187l-50 -126h59l-23 -142h-93l-56 -145h77l-23 -142h-111l-49 -126h-187l49 126h-78zM363 413l-56 -145h79l56 145h-79z" />
    <glyph glyph-name="dollar" unicode="$" horiz-adv-x="636" 
d="M329 -119h-157.999l17 109c-70 10 -132.333 31 -187 63l32 200c66.667 -52.667 144 -79 232 -79c60.667 0 92.667 11 96 33c1.33301 10 -3.5 19 -14.5 27s-25.833 15.333 -44.5 22s-39.5 13.834 -62.5 21.501s-45.5 17.667 -67.5 30s-41.667 26.5 -59 42.5
s-30.333 37.167 -39 63.5s-10.334 56.166 -5.00098 89.499c8 52 33.167 94.167 75.5 126.5s93.5 52.833 153.5 61.5l18 108h158l-17 -111c64 -9.33301 119 -27 165 -53l-30 -193c-61.333 44 -132 66 -212 66c-50 0 -76.333 -9.66699 -79 -29
c-1.33301 -10 5.66699 -19.5 21 -28.5s35 -17 59 -24s49.5 -16.833 76.5 -29.5s51.833 -26.834 74.5 -42.501s40 -38.167 52 -67.5s15.333 -62.666 10 -99.999c-18 -117.333 -100.667 -184 -248 -200z" />
    <glyph glyph-name="percent" unicode="%" horiz-adv-x="966" 
d="M288 -60h-130l539 820h130zM463 512c-9.33301 -57.333 -34.501 -101 -75.501 -131s-89.167 -45 -144.5 -45c-59.333 0 -106.833 17.833 -142.5 53.5s-48.167 85.834 -37.5 150.501c9.33301 58 34.333 101.833 75 131.5s89.334 44.5 146.001 44.5
c58 0 104.833 -17.833 140.5 -53.5s48.5 -85.834 38.5 -150.501zM212.999 521c-2.66699 -31.333 10.665 -46.999 39.998 -46.999c18.667 0 32.834 5.66699 42.501 17s15.167 24.666 16.5 39.999c2.66699 31.333 -10.666 47 -39.999 47c-18.667 0 -32.667 -5.5 -42 -16.5
s-15 -24.5 -17 -40.5zM921.998 160.001c-9.33301 -57.333 -34.501 -101.001 -75.501 -131.001s-89.5 -45 -145.5 -45c-59.333 0 -106.666 17.833 -141.999 53.5s-47.666 85.834 -36.999 150.501c9.33301 58 34.333 102 75 132s89 45 145 45
c59.333 0 106.666 -18 141.999 -54s48 -86.333 38 -151zM670.997 170c-3.33301 -32 9.99902 -48.001 39.999 -48.001c34.667 0 54.334 19 59.001 57c2.66699 32 -10.666 48 -39.999 48c-18.667 0 -32.834 -5.66699 -42.501 -17s-15.167 -24.666 -16.5 -39.999z" />
    <glyph glyph-name="ampersand" unicode="&#x26;" horiz-adv-x="743" 
d="M547 355h181.997c-9.33301 -82.667 -51.666 -159.667 -126.999 -231l104 -124h-201l-31 36c-73.333 -34.667 -148.666 -52 -225.999 -52c-80.667 0 -142.667 18.333 -186 55s-60 86 -50 148c6.66699 42.667 25 78.667 55 108s68 55.666 114 78.999
c-45.333 57.333 -63.666 110.333 -54.999 159c8.66699 54.667 38.167 98.834 88.5 132.501s109.833 50.5 178.5 50.5c74 0 132 -19 174 -57s57.667 -84.667 47 -140c-12.667 -68 -74 -131 -184 -189l71 -86c26.667 34.667 42 71.667 46 111zM382.997 575
c-21.333 0 -38.667 -5.66602 -52 -16.999s-21 -25.333 -23 -42c-2.66699 -18.667 7 -43.334 29 -74.001c60 25.333 92.667 52.333 98 81c2 13.333 -1.66699 25.333 -11 36s-23 16 -41 16zM213.996 190.001c-1.33301 -16 3.83105 -29 15.498 -39s30.834 -15 57.501 -15
s55.334 5.33301 86.001 16l-94 109c-40 -21.333 -61.667 -45 -65 -71z" />
    <glyph glyph-name="quotesingle" unicode="'" horiz-adv-x="248" 
d="M211 433h-149l43 267h183z" />
    <glyph glyph-name="parenleft" unicode="(" horiz-adv-x="347" 
d="M263 812h156.001c-98 -170 -158.333 -323.667 -181 -461c-11.333 -86 -14 -168.333 -8 -247s18.667 -151 38 -217h-146c-38 68.667 -65 144.667 -81 228s-17.333 166.333 -4 249c12.667 77.333 39.167 156 79.5 236s89.166 150.667 146.499 212z" />
    <glyph glyph-name="parenright" unicode=")" horiz-adv-x="349" 
d="M98 813h147c38 -68 64.833 -144.333 80.5 -229s17.167 -168.667 4.5 -252c-12.667 -77.333 -39 -155.166 -79 -233.499s-89 -148.5 -147 -210.5h-157c98 167.333 158.333 322.666 181 465.999c24.667 156.667 14.667 309.667 -30 459z" />
    <glyph glyph-name="asterisk" unicode="*" horiz-adv-x="534" 
d="M288 387l-76 -120l-140 103l94 75l-113 22l93 174l94 -61l1 120h187l-40 -120l108 61l40 -174l-119 -22l72 -75l-163 -103z" />
    <glyph glyph-name="plus" unicode="+" horiz-adv-x="553" 
d="M384 435h164l-27 -168h-164l-26 -164h-168l26 164h-164l27 168h164l26 163h168z" />
    <glyph glyph-name="comma" unicode="," horiz-adv-x="291" 
d="M82 -143h-160l119 307h205z" />
    <glyph glyph-name="hyphen" unicode="-" horiz-adv-x="478" 
d="M49 322h390l-26 -163h-390z" />
    <glyph glyph-name="period" unicode="." horiz-adv-x="282" 
d="M226 83c-5.33301 -33.333 -19.334 -58.166 -42.001 -74.499s-49.667 -24.5 -81 -24.5c-36 0 -64.333 11 -85 33s-27.667 53.333 -21 94c5.33301 33.333 19.333 58.166 42 74.499s49.334 24.5 80.001 24.5c36 0 64.333 -11.167 85 -33.5s28 -53.5 22 -93.5z" />
    <glyph glyph-name="slash" unicode="/" horiz-adv-x="506" 
d="M116 -61h-152l446 822h152z" />
    <glyph glyph-name="zero" unicode="0" horiz-adv-x="704" 
d="M41 354c7.33301 47.333 19.998 91 37.998 131s41.667 76 71 108s65.833 57.167 109.5 75.5s92.834 27.5 147.501 27.5c71.333 0 129.833 -17.333 175.5 -52s75.834 -79.334 90.501 -134.001s16.667 -116 6 -184c-7.33301 -47.333 -20 -91 -38 -131s-41.667 -76 -71 -108
s-65.833 -57.167 -109.5 -75.5s-92.834 -27.5 -147.501 -27.5c-72 0 -130.833 17.333 -176.5 52s-75.667 79.334 -90 134.001s-16.166 116 -5.49902 184zM451.998 340c17.333 104.667 -3.66602 157 -62.999 157c-32 0 -58 -12.333 -78 -37s-35 -64.667 -45 -120
c-8.66699 -54 -7.83398 -93.667 2.49902 -119s30.833 -38 61.5 -38c32 0 58 12.333 78 37s34.667 64.667 44 120z" />
    <glyph glyph-name="one" unicode="1" horiz-adv-x="502" 
d="M274 680h168l-78 -491h105l-30 -189h-444l30 189h117l43 273l-116 -43l31 196z" />
    <glyph glyph-name="two" unicode="2" horiz-adv-x="622" 
d="M110 626c82.667 46.667 168.007 69.998 256.007 69.998c35.333 0 68.333 -4.5 99 -13.5s58 -22.5 82 -40.5s41.5 -42.5 52.5 -73.5s13.5 -66.5 7.5 -106.5c-6.66699 -42 -21.334 -75.667 -44.001 -101s-56.334 -51.666 -101.001 -78.999
c-8.66699 -5.33301 -21.334 -12.833 -38.001 -22.5s-29.334 -17 -38.001 -22s-18.334 -11 -29.001 -18s-18.667 -12.833 -24 -17.5s-9 -9 -11 -13h243l-30 -188h-546l16 100c6 34.667 16 65.834 30 93.501s33 52.167 57 73.5s45.333 38.333 64 51s44 28 76 46
c10.667 6 24.834 13.5 42.501 22.5s30.5 15.833 38.5 20.5s17.167 10.5 27.5 17.5s17.666 13.5 21.999 19.5s7.16602 12.667 8.49902 20c1.33301 10.667 -2.33398 19.167 -11.001 25.5s-21.667 9.5 -39 9.5c-74 0 -155.333 -30 -244 -90z" />
    <glyph glyph-name="three" unicode="3" horiz-adv-x="604" 
d="M577 487c-10 -66.667 -52.9961 -112.001 -128.996 -136.001c36.667 -9.33301 65.667 -29.166 87 -59.499s28.333 -69.5 21 -117.5c-7.33301 -46 -26.833 -83.667 -58.5 -113s-68.334 -49.5 -110.001 -60.5s-88.834 -16.5 -141.501 -16.5
c-92.667 0 -175.334 16 -248.001 48l30 191c64 -33.333 133.667 -50 209 -50c68 1.33301 104.667 18.333 110 51c3.33301 24 -12.334 36 -47.001 36h-130l28 171h93c40 0 62.333 11 67 33c4 27.333 -18 41 -66 41c-72.667 0 -144.667 -21 -216 -63l31 198
c68.667 37.333 146 56 232 56c74 0 134.833 -17.833 182.5 -53.5s66.167 -87.5 55.5 -155.5z" />
    <glyph glyph-name="four" unicode="4" horiz-adv-x="678" 
d="M399 680h228l-65 -410h84l-28 -179h-85l-14 -91h-209l15 91h-338l29 185zM353 270l24 149l-142 -149h118z" />
    <glyph glyph-name="five" unicode="5" horiz-adv-x="602" 
d="M143 680l460.999 -0.00195312l-30 -188l-267 1l-14 -68c18.667 2.66699 37.334 4 56.001 4c30 0 58.333 -4.16699 85 -12.5s50.667 -21 72 -38s36.833 -40.667 46.5 -71s11.5 -65.166 5.5 -104.499c-6.66699 -40.667 -20.667 -75.667 -42 -105s-48 -52 -80 -68
s-65.833 -27.667 -101.5 -35s-73.834 -11 -114.501 -11c-86.667 0 -162 16 -226 48l28 179c48 -28 105 -42 171 -42c86.667 0 133.334 21 140.001 63c2.66699 18.667 -5.33301 33.334 -24 44.001s-46.667 16 -84 16c-59.333 0 -115 -7.33301 -167 -22z" />
    <glyph glyph-name="six" unicode="6" horiz-adv-x="669" 
d="M280 412c46.667 21.333 95.667 31.9971 147 31.9971c29.333 0 57.166 -5 83.499 -15s49.833 -24.167 70.5 -42.5s35.834 -42.666 45.501 -72.999s11.5 -64.166 5.5 -101.499c-12 -76 -46.167 -133 -102.5 -171s-124.166 -57 -203.499 -57
c-110.667 0 -190.167 32.833 -238.5 98.5s-63.5 156.834 -45.5 273.501c9.33301 58.667 27 110.5 53 155.5s57.5 80.667 94.5 107s76.167 45.833 117.5 58.5s84.666 19 129.999 19c76 0 144.333 -16 205 -48l-27 -170c-45.333 27.333 -94 41 -146 41
c-92.667 0 -155.667 -35.667 -189 -107zM325 152.997c23.333 0 43.5 5.5 60.5 16.5s27.5 28.167 31.5 51.5c2.66699 19.333 -2 34.5 -14 45.5s-28.667 16.5 -50 16.5c-32 0 -66 -10.333 -102 -31c0.666992 -38 7.5 -64 20.5 -78s30.833 -21 53.5 -21z" />
    <glyph glyph-name="seven" unicode="7" horiz-adv-x="592" 
d="M83 680h555l-23 -148l-337 -532h-253l312 492h-284z" />
    <glyph glyph-name="eight" unicode="8" horiz-adv-x="666" 
d="M619 178c-8.66699 -55.333 -40.333 -101.501 -95 -138.501s-132 -55.5 -232 -55.5c-100.667 0 -174.5 21 -221.5 63s-65.833 92.667 -56.5 152c5.33301 32.667 19.333 62.834 42 90.501s49.667 49.834 81 66.501c-42.667 40 -59 90.333 -49 151
c8.66699 51.333 38.5 95.666 89.5 132.999s121.5 56 211.5 56c86 0 152.167 -21.5 198.5 -64.5s64.833 -91.167 55.5 -144.5c-5.33301 -30 -16.333 -54.833 -33 -74.5s-40.667 -39.167 -72 -58.5c31.333 -19.333 54.333 -42.5 69 -69.5s18.667 -62.5 12 -106.5z
M236.001 214.999c-1.33301 -16.667 4.49902 -31.498 17.499 -44.498s32.5 -19.5 58.5 -19.5c23.333 0 42.333 4.5 57 13.5s23.334 19.5 26.001 31.5c2.66699 10.667 1.33398 20 -3.99902 28s-12 14.167 -20 18.5s-19.667 9.16602 -35 14.499
c-36 15.333 -55.667 23.666 -59 24.999c-24.667 -20.667 -38.334 -43 -41.001 -67zM345 429.001c5.33301 -2 13.5 -4.99902 24.5 -8.99902s19.167 -7 24.5 -9c24 20 37.667 41.667 41 65c1.33301 14 -3.83398 26.333 -15.501 37s-28.5 16 -50.5 16c-20 0 -36.667 -4 -50 -12
s-21.333 -18.667 -24 -32c-3.33301 -22.667 13.334 -41.334 50.001 -56.001z" />
    <glyph glyph-name="nine" unicode="9" horiz-adv-x="668" 
d="M52 468c12 76 46.5 133.002 103.5 171.002s124.833 57 203.5 57c108.667 0 187.667 -33 237 -99s64.666 -157 45.999 -273c-18 -115.333 -62.667 -200.833 -134 -256.5s-156.333 -83.5 -255 -83.5c-81.333 0 -152.333 15.667 -213 47l28 171c44 -27.333 94 -41 150 -41
c48 0 87.167 8 117.5 24s53.833 44 70.5 84c-44.667 -21.333 -92.667 -32 -144 -32c-31.333 0 -60.666 4.83301 -87.999 14.5s-51.333 23.667 -72 42s-35.667 42.666 -45 72.999s-11 64.166 -5 101.499zM355 526.002c-22.667 0 -42 -5.66699 -58 -17
s-25.333 -27.333 -28 -48c-3.33301 -20 1.5 -35.833 14.5 -47.5s30.5 -17.5 52.5 -17.5c34 0 67 9.66699 99 29c-2 67.333 -28.667 101 -80 101z" />
    <glyph glyph-name="colon" unicode=":" horiz-adv-x="294" 
d="M270 358c-4.66699 -32 -18 -55.999 -40 -71.999s-48 -24 -78 -24c-34 0 -61 10.667 -81 32s-27 51.666 -21 90.999c4.66699 31.333 17.834 55 39.501 71s47.5 24 77.5 24c34.667 0 62.167 -10.667 82.5 -32s27.166 -51.333 20.499 -90zM226 79.001
c-5.33301 -32 -19 -55.833 -41 -71.5s-48 -23.5 -78 -23.5c-34 0 -61 10.667 -81 32s-27 51.666 -21 90.999c5.33301 32 18.833 55.833 40.5 71.5s47.5 23.5 77.5 23.5c34.667 0 62 -10.667 82 -32s27 -51.666 21 -90.999z" />
    <glyph glyph-name="semicolon" unicode=";" horiz-adv-x="307" 
d="M87 -143h-160l119 307h205zM288 364c-5.33301 -33.333 -19.333 -58.332 -42 -74.999s-49.667 -25 -81 -25c-35.333 0 -63.5 11.167 -84.5 33.5s-28.5 53.5 -22.5 93.5c5.33301 33.333 19.333 58.166 42 74.499s49.667 24.5 81 24.5c35.333 0 63.5 -11 84.5 -33
s28.5 -53 22.5 -93z" />
    <glyph glyph-name="less" unicode="&#x3c;" horiz-adv-x="512" 
d="M457 292l-29 -182l-404 135l33 210l447 134l-29 -186l-262 -58z" />
    <glyph glyph-name="equal" unicode="=" horiz-adv-x="626" 
d="M579 382h-503l26 162h502zM543 156h-503l26 162h502z" />
    <glyph glyph-name="greater" unicode="&#x3e;" horiz-adv-x="511" 
d="M473 245l-447 -136l30 187l263 59l-245 55l29 180l403 -135z" />
    <glyph glyph-name="question" unicode="?" horiz-adv-x="508" 
d="M314 257l-193.998 -0.00195312c4.66699 29.333 15.5 56.833 32.5 82.5s34.667 46 53 61s35.5 30.333 51.5 46s25 28.834 27 39.501c2.66699 12 -0.333008 20.667 -9 26s-22 8 -40 8c-50.667 0 -108 -16.333 -172 -49l32 203c62.667 28 128.334 42 197.001 42
c32 0 62 -3.33301 90 -10s53.833 -17 77.5 -31s41.167 -34.333 52.5 -61s14 -58 8 -94c-4 -23.333 -13.333 -46.333 -28 -69s-31.334 -42.667 -50.001 -60s-37.334 -33.666 -56.001 -48.999s-34.834 -30.333 -48.501 -45s-21.5 -28 -23.5 -40zM308.002 82.998
c-5.33301 -33.333 -19.334 -58.166 -42.001 -74.499s-49.667 -24.5 -81 -24.5c-36 0 -64.333 11 -85 33s-27.667 53.333 -21 94c5.33301 33.333 19.333 58.166 42 74.499s49.334 24.5 80.001 24.5c36 0 64.333 -11.167 85 -33.5s28 -53.5 22 -93.5z" />
    <glyph glyph-name="at" unicode="@" horiz-adv-x="1043" 
d="M21 254c9.33301 60 29.1699 117.5 59.5029 172.5s69 104.167 116 147.5s104.167 77.833 171.5 103.5s139.666 38.5 216.999 38.5c62 0 118.5 -9.16699 169.5 -27.5s93.167 -42.666 126.5 -72.999s60.666 -65 81.999 -104s35.333 -79.333 42 -121s7 -82.834 1 -123.501
c-13.333 -85.333 -44.333 -150 -93 -194s-109 -66 -181 -66c-44 0 -79.833 8.5 -107.5 25.5s-46.834 38.5 -57.501 64.5c-32.667 -42.667 -77.334 -64 -134.001 -64c-41.333 0 -75.5 11.667 -102.5 35s-44.667 51.166 -53 83.499s-9.83301 65.833 -4.5 100.5
c7.33301 49.333 28.333 93.5 63 132.5s79.667 58.5 135 58.5c53.333 0 94.333 -22 123 -66l9 54h152l-37 -236c-5.33301 -34 5.33398 -51 32.001 -51c25.333 0 44.166 11.833 56.499 35.5s22.166 56.834 29.499 99.501c4.66699 30.667 3.5 61.667 -3.5 93
s-19.833 61 -38.5 89s-46.667 50.833 -84 68.5s-81 26.5 -131 26.5c-102 0 -188 -30.167 -258 -90.5s-112 -134.833 -126 -223.5c-8.66699 -54 -6.16699 -101.667 7.5 -143s35.834 -74.333 66.501 -99s66.334 -43.167 107.001 -55.5s85.667 -18.5 135 -18.5
c76.667 0 151.667 11 225 33l-22 -161c-61.333 -22 -133 -33 -215 -33c-56 0 -109.667 6.33301 -161 19s-98.5 32.5 -141.5 59.5s-79.333 59.5 -109 97.5s-50.667 83.833 -63 137.5s-13.5 112.167 -3.5 175.5zM573.004 282c-6.66699 20.667 -21.999 31.001 -45.999 31.001
c-23.333 0 -42 -7.83301 -56 -23.5s-22.333 -33.834 -25 -54.501c-2.66699 -18 -0.333984 -34.333 6.99902 -49s21 -22 41 -22c28 0 49.667 11.333 65 34z" />
    <glyph glyph-name="A" unicode="A" horiz-adv-x="765" 
d="M722 0h-225l-16 93h-247l-45 -93h-238l372 700h249zM388 413l-75 -153h141l-25 152c-4.66699 31.333 -7 61.333 -7 90c-10 -33.333 -21.333 -63 -34 -89z" />
    <glyph glyph-name="B" unicode="B" horiz-adv-x="698" 
d="M117 700h341c76.667 0 136 -16.333 178 -49s58.333 -80 49 -142c-5.33301 -34 -17.5 -62.5 -36.5 -85.5s-47.5 -41.5 -85.5 -55.5c36.667 -12 64.167 -33.5 82.5 -64.5s23.833 -69.833 16.5 -116.5c-11.333 -70 -44.333 -118.667 -99 -146s-125 -41 -211 -41h-346z
M440 228c3.33301 17.333 0.166016 31 -9.50098 41s-25.5 15 -47.5 15h-101l-18 -114h93c48.667 0 76.334 19.333 83.001 58zM460 479c2.66699 14.667 -0.167969 26.833 -8.50098 36.5s-22.166 14.5 -41.499 14.5h-89l-17 -103l82 -1c20 0 36.5 4.83301 49.5 14.5
s21.167 22.5 24.5 38.5z" />
    <glyph glyph-name="C" unicode="C" horiz-adv-x="645" 
d="M34 361c8 48.667 22.667 93.3291 44 133.996s46.5 74.334 75.5 101.001s61.333 49.334 97 68.001s71.334 32 107.001 40s71.5 12 107.5 12c78 0 146 -16 204 -48l-31 -195c-35.333 28.667 -83.666 43 -144.999 43c-54.667 0 -103.334 -13.667 -146.001 -41
s-69 -70 -79 -128c-8 -50.667 3.33301 -90 34 -118s69.667 -42 117 -42c69.333 0 131.666 16.667 186.999 50l-34 -214c-56.667 -26 -122.667 -39 -198 -39c-50 0 -96.833 7.5 -140.5 22.5s-82.5 37.333 -116.5 67s-58.833 69.334 -74.5 119.001s-18.5 105.834 -8.5 168.501
z" />
    <glyph glyph-name="D" unicode="D" horiz-adv-x="743" 
d="M117 700h296c118 0 203.833 -33.333 257.5 -100s71.834 -154.667 54.501 -264c-16.667 -104 -58.834 -186 -126.501 -246s-161.5 -90 -281.5 -90h-311zM492 358c16.667 98.667 -18 148 -104 148h-71l-49 -312h60c93.333 0 148 54.667 164 164z" />
    <glyph glyph-name="E" unicode="E" horiz-adv-x="621" 
d="M117 700h530l-29 -182h-300l-12 -81h264l-27 -170h-264l-13 -83h305l-29 -184h-536z" />
    <glyph glyph-name="F" unicode="F" horiz-adv-x="601" 
d="M117 700h519l-32 -202h-288l-14 -86h260l-32 -196h-259l-34 -216h-231z" />
    <glyph glyph-name="G" unicode="G" horiz-adv-x="692" 
d="M35 364c10 61.333 29.8311 115.332 59.498 161.999s65.167 83.334 106.5 110.001s84.5 46.667 129.5 60s90.833 20 137.5 20c87.333 0 162 -15 224 -45l-31 -197c-39.333 27.333 -93.666 41 -162.999 41c-56.667 0 -106.667 -14.167 -150 -42.5
s-69.666 -71.833 -78.999 -130.5c-8.66699 -55.333 -0.666992 -94.5 24 -117.5s55.334 -34.5 92.001 -34.5c13.333 0 25.666 1.66699 36.999 5l32 196h216l-58 -363c-66.667 -29.333 -143 -44 -229 -44c-52 0 -100.667 8 -146 24s-85 39 -119 69s-58.667 69.833 -74 119.5
s-18.333 105.5 -9 167.5z" />
    <glyph glyph-name="H" unicode="H" horiz-adv-x="756" 
d="M538 700h230l-111 -700h-230l39 249h-190l-39 -249h-231l111 700h231l-40 -249h191z" />
    <glyph glyph-name="I" unicode="I" horiz-adv-x="336" 
d="M117 700h231l-111 -700h-231z" />
    <glyph glyph-name="J" unicode="J" horiz-adv-x="517" 
d="M143 700h392.001l-73 -463c-26.667 -166 -128.334 -249 -305.001 -249c-78 0 -139.667 11 -185 33l31 196c34 -13.333 71 -20 111 -20c74 0 115 27 123 81l35 220h-160z" />
    <glyph glyph-name="K" unicode="K" horiz-adv-x="728" 
d="M546 700h258l-271 -354l158 -346h-243l-110 250h-62l-39 -250h-231l111 700h231l-40 -248h61z" />
    <glyph glyph-name="L" unicode="L" horiz-adv-x="593" 
d="M117 700h231l-79 -498h300l-33 -202h-530z" />
    <glyph glyph-name="M" unicode="M" horiz-adv-x="906" 
d="M698 700h220l-111 -700h-225l52 325l-136 -177h-131l-83 178l-53 -326h-225l111 700h198l145 -312z" />
    <glyph glyph-name="N" unicode="N" horiz-adv-x="762" 
d="M237 0h-231.001l111 700h174l207 -337c0.666992 40.667 4.33398 80 11.001 118l34 219h231l-111 -700h-174l-206 336c0 -29.333 -3.33301 -67.333 -10 -114z" />
    <glyph glyph-name="O" unicode="O" horiz-adv-x="805" 
d="M789 336c-16 -102 -61.332 -186.167 -135.999 -252.5s-171 -99.5 -289 -99.5c-119.333 0 -208.333 36.333 -267 109s-79.334 163 -62.001 271c16 102 61.333 186.167 136 252.5s171 99.5 289 99.5s206.667 -36.333 266 -109s80.333 -163 63 -271zM269.001 338
c-5.33301 -45.333 1.83496 -80.833 21.502 -106.5s50.5 -38.5 92.5 -38.5c47.333 0 86.5 15.167 117.5 45.5s49.5 71.5 55.5 123.5c6 45.333 -0.833008 80.833 -20.5 106.5s-50.834 38.5 -93.501 38.5c-46.667 0 -85.334 -15.167 -116.001 -45.5s-49.667 -71.5 -57 -123.5z
" />
    <glyph glyph-name="P" unicode="P" horiz-adv-x="688" 
d="M117 700l301 -0.000976562c44 0 83.667 -4.83301 119 -14.5s66.5 -24.667 93.5 -45s46.167 -48.666 57.5 -84.999s13 -78.833 5 -127.5c-14 -90 -49.833 -153.333 -107.5 -190s-136.5 -55 -236.5 -55h-83l-29 -183h-231zM468 443.999c4 22 -0.666992 38.5 -14 49.5
s-32.333 16.5 -57 16.5h-79l-22 -137h71c60 0 93.667 23.667 101 71z" />
    <glyph glyph-name="Q" unicode="Q" horiz-adv-x="805" 
d="M746 65l-147.998 -117l-58 67c-54 -20.667 -112.667 -31 -176 -31c-119.333 0 -208.333 36.333 -267 109s-79.334 163 -62.001 271c16 102 61.333 186.167 136 252.5s171 99.5 289 99.5s206.667 -36.333 266 -109s80.333 -163 63 -271
c-12.667 -82 -44.334 -152.333 -95.001 -211zM264.002 338c-5.33301 -46.667 2.66406 -83.334 23.9971 -110.001s53.333 -40 96 -40c9.33301 0 16.333 0.333008 21 1l-49 56l129 114l57 -68c10.667 22 17.334 45.667 20.001 71c5.33301 46.667 -2.66699 83.334 -24 110.001
s-53.666 40 -96.999 40c-47.333 0 -87.166 -15.5 -119.499 -46.5s-51.5 -73.5 -57.5 -127.5z" />
    <glyph glyph-name="R" unicode="R" horiz-adv-x="729" 
d="M237 0h-230.998l111 700h320c37.333 0 72.166 -4.5 104.499 -13.5s62.166 -23 89.499 -42s47.333 -46.167 60 -81.5s15.334 -76.333 8.00098 -123c-14.667 -94.667 -64.334 -161 -149.001 -199l137 -241h-244l-108 207h-66zM319.002 512l-20.998 -132.002h84
c22.667 0 42.167 6.33301 58.5 19s26.166 29.334 29.499 50.001c2.66699 18.667 -1.33301 33.834 -12 45.501s-26.334 17.5 -47.001 17.5h-92z" />
    <glyph glyph-name="S" unicode="S" horiz-adv-x="632" 
d="M69 518c10 63.333 43.332 112.171 99.999 146.504s122.334 51.5 197.001 51.5c99.333 0 184.666 -20.333 255.999 -61l-30 -193c-63.333 43.333 -133.666 64.333 -210.999 63c-50.667 0 -77 -10.667 -79 -32c-0.666992 -10 6.83301 -19.833 22.5 -29.5
s35.5 -18.167 59.5 -25.5s49.5 -17.833 76.5 -31.5s51.667 -28.834 74 -45.501s39.333 -39.667 51 -69s14.5 -63 8.5 -101c-23.333 -138 -129.333 -207 -318 -207c-108 0 -199.333 23 -274 69l32 200c68.667 -50.667 145.667 -76 231 -76c60 0 91.667 10.667 95 32
c2 12 -4.66699 23.167 -20 33.5s-34.833 19.166 -58.5 26.499s-49.167 17.666 -76.5 30.999s-52.333 28.166 -75 44.499s-40 39.5 -52 69.5s-15 64.667 -9 104z" />
    <glyph glyph-name="T" unicode="T" horiz-adv-x="630" 
d="M77 700h606l-32 -202h-188l-79 -498h-230l79 498h-188z" />
    <glyph glyph-name="U" unicode="U" horiz-adv-x="741" 
d="M530 700h230.003l-68 -435c-30.667 -187.333 -152 -281 -364 -281c-42 0 -81 5.5 -117 16.5s-68.5 27.5 -97.5 49.5s-50 52.667 -63 92s-15.5 85 -7.5 137l67 421h231l-68 -423c-4.66699 -31.333 -0.333984 -53.5 12.999 -66.5s34.666 -19.5 63.999 -19.5
c65.333 0 103.666 33 114.999 99z" />
    <glyph glyph-name="V" unicode="V" horiz-adv-x="744" 
d="M444 0h-236l-146 700h235l60 -429l199 429h255z" />
    <glyph glyph-name="W" unicode="W" horiz-adv-x="1111" 
d="M917 700h256l-322 -700h-252l-35 353l-151 -353h-246l-100 700h240l32 -422l177 422h191l40 -422z" />
    <glyph glyph-name="X" unicode="X" horiz-adv-x="730" 
d="M208 0h-275l304 358l-177 342h260l74 -177l136 177h275l-288 -340l185 -360h-260l-83 190z" />
    <glyph glyph-name="Y" unicode="Y" horiz-adv-x="752" 
d="M443 0h-229l39 239l-193 461h246l82 -267l164 267h270l-340 -461z" />
    <glyph glyph-name="Z" unicode="Z" horiz-adv-x="645" 
d="M570 0h-589l23 146l312 352h-239l31 202h561l-23 -147l-312 -351h268z" />
    <glyph glyph-name="bracketleft" unicode="[" horiz-adv-x="386" 
d="M296 -110h-308l145 920h308l-28 -181h-99l-89 -557h99z" />
    <glyph glyph-name="backslash" unicode="\" horiz-adv-x="494" 
d="M421 -61h-145l-185 822h145z" />
    <glyph glyph-name="bracketright" unicode="]" horiz-adv-x="385" 
d="M271 -110h-308l28 182h99l89 557h-99l28 181h308z" />
    <glyph glyph-name="asciicircum" unicode="^" horiz-adv-x="665" 
d="M254 322h-223l274 378h186l156 -378h-208l-63 179z" />
    <glyph glyph-name="underscore" unicode="_" horiz-adv-x="521" 
d="M443 -203h-521l27 169h521z" />
    <glyph glyph-name="grave" unicode="`" horiz-adv-x="356" 
d="M422 752h-183l-96 164h207z" />
    <glyph glyph-name="a" unicode="a" horiz-adv-x="624" 
d="M360 52c-36 -45.333 -88.665 -67.999 -157.998 -67.999c-71.333 0 -123.333 26.5 -156 79.5s-43 116.5 -31 190.5c10.667 68.667 37.5 126.167 80.5 172.5s99.5 69.5 169.5 69.5c35.333 0 66.166 -8.33301 92.499 -25s46.166 -37.334 59.499 -62.001l11 71h185l-76 -480
h-185zM228.002 236.001c-3.33301 -23.333 -0.000976562 -43 9.99902 -59s25.333 -24 46 -24c28.667 0 53 12.333 73 37l17 104c-3.33301 10 -9.66602 18 -18.999 24s-20.333 9 -33 9c-25.333 0 -46.333 -8.66699 -63 -26s-27 -39 -31 -65z" />
    <glyph glyph-name="b" unicode="b" horiz-adv-x="624" 
d="M105 700l210.999 -0.000976562l-41 -253c39.333 32.667 83.333 49 132 49c69.333 0 120.5 -26.667 153.5 -80s43.5 -116.666 31.5 -189.999c-10.667 -68 -37.167 -125.333 -79.5 -172s-97.833 -70 -166.5 -70c-36.667 0 -68.167 7.83301 -94.5 23.5
s-46.166 35.5 -59.499 59.5l-13 -67h-185zM378.999 240.999c3.33301 23.333 0.5 43.5 -8.5 60.5s-24.5 25.5 -46.5 25.5c-27.333 0 -52 -12.333 -74 -37l-16 -105c8.66699 -21.333 25.667 -32 51 -32c24.667 0 45.5 8.33301 62.5 25s27.5 37.667 31.5 63z" />
    <glyph glyph-name="c" unicode="c" horiz-adv-x="490" 
d="M13 243c11.333 84 47.832 147.333 109.499 190s130.5 64 206.5 64c57.333 0 108.666 -11.333 153.999 -34l-26 -163c-29.333 15.333 -62 23 -98 23c-32.667 0 -61.5 -7 -86.5 -21s-39.833 -35.667 -44.5 -65c-4 -26 2.83301 -45.5 20.5 -58.5s41.834 -19.5 72.501 -19.5
c44.667 0 85.334 8.66699 122.001 26l-27 -176c-49.333 -16.667 -99.666 -25 -150.999 -25c-82 0 -147.333 22.5 -196 67.5s-67.334 108.833 -56.001 191.5z" />
    <glyph glyph-name="d" unicode="d" horiz-adv-x="623" 
d="M438 700l209.997 0.000976562l-111 -700h-185l9 57c-38 -48.667 -90.667 -73 -158 -73c-69.333 0 -120.666 26.667 -153.999 80s-44.333 116.666 -33 189.999c10 67.333 36.833 124.5 80.5 171.5s99.834 70.5 168.501 70.5c58.667 0 102.334 -19.333 131.001 -58z
M373.997 295.001c-8 21.333 -25.333 32.001 -52 32.001c-25.333 0 -46.333 -8.5 -63 -25.5s-27 -38.833 -31 -65.5c-3.33301 -24 0 -43.833 10 -59.5s25.333 -23.5 46 -23.5c28 -0.666992 52.333 11.666 73 36.999z" />
    <glyph glyph-name="e" unicode="e" horiz-adv-x="546" 
d="M15 258c6 41.333 19.166 77.832 39.499 109.499s44.166 56.5 71.499 74.5s55.666 31.5 84.999 40.5s58.666 13.5 87.999 13.5c40.667 0 76.334 -6.16699 107.001 -18.5s54.334 -28.833 71.001 -49.5s28.834 -44.167 36.501 -70.5s10.5 -53.666 8.5 -81.999
s-8.33301 -56.166 -19 -83.499h-298c10 -40.667 52 -61 126 -61c56.667 0 106.334 8 149.001 24l-23 -147c-48 -16 -105.667 -24 -173 -24c-38 0 -73.833 5.33301 -107.5 16s-64.167 26.667 -91.5 48s-47.5 50.166 -60.5 86.499s-16.167 77.5 -9.5 123.5zM346.999 288.999
c4.66699 17.333 2.83301 33 -5.5 47s-23.166 21 -44.499 21c-22 0 -40.333 -6.83301 -55 -20.5s-23.334 -29.5 -26.001 -47.5h131z" />
    <glyph glyph-name="f" unicode="f" horiz-adv-x="420" 
d="M129 527c20.667 126 98.667 189 234 189c46 0 86 -6.66699 120 -20l-24 -154c-16 7.33301 -33.667 11 -53 11c-40.667 0 -64 -17 -70 -51l-4 -22h105l-26 -168h-105l-50 -312h-210l49 312h-68l27 168h68z" />
    <glyph glyph-name="g" unicode="g" horiz-adv-x="624" 
d="M542 24c-14.667 -90 -51.332 -155.834 -109.999 -197.501s-127.667 -62.5 -207 -62.5c-88.667 0 -165 14.667 -229 44l27 169c52 -28 107 -42 165 -42c38.667 0 70.834 7.33301 96.501 22s41.167 37.334 46.5 68.001l3 20c-29.333 -33.333 -72.333 -50 -129 -50
c-72 0 -124.333 25.667 -157 77s-43.334 113.666 -32.001 186.999c10.667 66.667 38.167 122.834 82.5 168.501s100.166 68.5 167.499 68.5c68 0 118.333 -26.667 151 -80l11 64h185zM229.002 238.999c-3.33301 -24 0 -43.832 10 -59.499s25.333 -23.834 46 -24.501
c28 0 52.333 12.667 73 38l17 105c-8 21.333 -25.333 32 -52 32c-25.333 0 -46.333 -8.66699 -63 -26s-27 -39 -31 -65z" />
    <glyph glyph-name="h" unicode="h" 
d="M105 700l210.999 -0.000976562l-39 -244c43.333 26.667 85 40 125 40c60 0 103.333 -19.167 130 -57.5s36 -83.166 28 -134.499l-48 -304h-211l44 278c4.66699 27.333 -6.33301 41 -33 41c-21.333 0 -41.666 -9 -60.999 -27l-46 -292h-211z" />
    <glyph glyph-name="i" unicode="i" horiz-adv-x="293" 
d="M206 0h-211l76 480h211zM309 622c-4.66699 -31.333 -17.832 -54.833 -39.499 -70.5s-47.167 -23.5 -76.5 -23.5c-33.333 0 -59.833 10.5 -79.5 31.5s-26.5 50.167 -20.5 87.5c5.33301 31.333 18.833 54.833 40.5 70.5s47.167 23.5 76.5 23.5
c33.333 0 59.666 -10.5 78.999 -31.5s26 -50.167 20 -87.5z" />
    <glyph glyph-name="j" unicode="j" horiz-adv-x="294" 
d="M196 -64c-9.33301 -60.667 -33.333 -104.5 -72 -131.5s-86 -40.5 -142 -40.5c-46 0 -84.667 6.66699 -116 20l26 166c12 -4 25.667 -6 41 -6c19.333 0 33.833 4.5 43.5 13.5s16.167 23.833 19.5 44.5l76 478h210zM310 622
c-4.66699 -31.333 -17.832 -54.833 -39.499 -70.5s-47.167 -23.5 -76.5 -23.5c-33.333 0 -59.833 10.5 -79.5 31.5s-26.5 50.167 -20.5 87.5c5.33301 31.333 18.833 54.833 40.5 70.5s47.167 23.5 76.5 23.5c33.333 0 59.666 -10.5 78.999 -31.5s26 -50.167 20 -87.5z" />
    <glyph glyph-name="k" unicode="k" horiz-adv-x="595" 
d="M397 480h234l-192 -250l111 -230h-217l-68 162h-35l-25 -162h-211l111 700h211l-60 -374h31z" />
    <glyph glyph-name="l" unicode="l" horiz-adv-x="294" 
d="M111 730h211l-116 -730h-211z" />
    <glyph glyph-name="m" unicode="m" horiz-adv-x="864" 
d="M522 433c44 42 97.6719 62.999 161.005 62.999c57.333 0 98.166 -19.667 122.499 -59s32.166 -86.666 23.499 -141.999l-47 -295h-208l46 290c1.33301 10 -0.833984 17.5 -6.50098 22.5s-13.167 7.5 -22.5 7.5c-17.333 0 -34 -7.33301 -50 -22
c0 -4 -0.666992 -9.33301 -2 -16l-45 -282h-208l46 290c1.33301 10 -0.833984 17.5 -6.50098 22.5s-12.834 7.5 -21.501 7.5c-21.333 0 -40 -9.33301 -56 -28l-46 -292h-208l76 480h186l-8 -48c16 18 37.833 33.167 65.5 45.5s56.167 18.5 85.5 18.5c58 0 99 -21 123 -63z
" />
    <glyph glyph-name="n" unicode="n" 
d="M248 435c48 40.667 100.667 61 158 61c58 0 100.167 -19.167 126.5 -57.5s35.5 -82.833 27.5 -133.5l-48 -305h-211l44 278c4.66699 27.333 -6.33301 41 -33 41c-18.667 0 -39 -8.66699 -61 -26l-46 -293h-211l76 480h185z" />
    <glyph glyph-name="o" unicode="o" 
d="M563 224c-12.667 -79.333 -47.333 -139.166 -104 -179.499s-124 -60.5 -202 -60.5c-38 0 -73 5.83301 -105 17.5s-59.5 28.5 -82.5 50.5s-39.667 50.667 -50 86s-11.833 74.666 -4.5 117.999c12.667 79.333 46.667 139.166 102 179.499s123 60.5 203 60.5
c49.333 0 93.833 -9.83301 133.5 -29.5s70.167 -50.667 91.5 -93s27.333 -92.166 18 -149.499zM217.001 235c-2.66699 -22 0.666016 -40 9.99902 -54s25 -21 47 -21c24 0 43.5 7.66699 58.5 23s24.167 36 27.5 62c2.66699 22 -0.666016 40 -9.99902 54s-25 21 -47 21
c-24 0 -43.5 -7.66699 -58.5 -23s-24.167 -36 -27.5 -62z" />
    <glyph glyph-name="p" unicode="p" horiz-adv-x="625" 
d="M247 424c42 48 95 71.999 159 71.999c70 0 121.5 -26.667 154.5 -80s43.833 -116.666 32.5 -189.999c-10.667 -68.667 -37 -126.167 -79 -172.5s-98 -69.5 -168 -69.5c-56.667 0 -101.667 18.667 -135 56l-41 -260h-211l112 700h185zM380 242.999
c3.33301 22 0.499023 41.501 -8.50098 58.501s-24.833 25.5 -47.5 25.5c-28.667 0 -53 -12.667 -73 -38l-17 -105c9.33301 -20.667 27 -31 53 -31c24 0 44.333 8.66699 61 26s27.334 38.666 32.001 63.999z" />
    <glyph glyph-name="q" unicode="q" horiz-adv-x="624" 
d="M15 254c10.667 68.667 37.5 126.167 80.5 172.5s99.5 69.5 169.5 69.5c36 0 67.167 -8.33301 93.5 -25s45.833 -37 58.5 -61l11 70h185l-111 -700h-210l39 247c-30.667 -28.667 -73.667 -43 -129 -43c-71.333 0 -123.333 26.5 -156 79.5s-43 116.5 -31 190.5zM374 295
c-3.33301 8.66699 -9.83301 16.168 -19.5 22.501s-20.5 9.5 -32.5 9.5c-24.667 0 -45.5 -8.66699 -62.5 -26s-27.5 -39 -31.5 -65c-3.33301 -24 0 -43.833 10 -59.5s25.333 -23.5 46 -23.5c28 -0.666992 52.333 11.666 73 36.999z" />
    <glyph glyph-name="r" unicode="r" horiz-adv-x="420" 
d="M248 428c42.667 50.667 106 71 190 61l-31 -194c-29.333 10 -59.5 11.667 -90.5 5s-54.5 -19.667 -70.5 -39l-41 -261h-211l76 480h186z" />
    <glyph glyph-name="s" unicode="s" horiz-adv-x="493" 
d="M35 355c13.333 94 92.334 140.998 237.001 140.998c70.667 0 134 -14 190 -42l-24 -152c-46 32.667 -94 49 -144 49c-27.333 0 -42 -6.33301 -44 -19c-1.33301 -8.66699 5.5 -16.5 20.5 -23.5s33.333 -14.167 55 -21.5s42.834 -16.5 63.501 -27.5
s37.167 -27.667 49.5 -50s15.833 -49.166 10.5 -80.499c-4.66699 -28.667 -14.834 -53 -30.501 -73s-35.834 -35 -60.501 -45s-50.167 -17 -76.5 -21s-56.166 -6 -89.499 -6c-76.667 0 -142.334 14.667 -197.001 44l26 163c20.667 -17.333 45.834 -30.666 75.501 -39.999
s56.834 -14.333 81.501 -15c36 -2 55 3.33301 57 16c1.33301 8.66699 -5.33398 16.5 -20.001 23.5s-32.667 14.333 -54 22s-42.333 17 -63 28s-37.334 27.667 -50.001 50s-17 48.833 -13 79.5z" />
    <glyph glyph-name="t" unicode="t" horiz-adv-x="433" 
d="M132 609l219.001 49l-28 -178h107l-27 -168h-107l-18 -113c-2.66699 -16 -0.166992 -27.333 7.5 -34s19.834 -10 36.501 -10c21.333 0 43 3.66699 65 11l-26 -164c-40 -12.667 -83 -19 -129 -19c-24.667 0 -47.334 3.16699 -68.001 9.5s-40.167 16.333 -58.5 30
s-31.333 33.5 -39 59.5s-8.83398 56.667 -3.50098 92l22 138h-67l27 168h67z" />
    <glyph glyph-name="u" unicode="u" 
d="M372 480h211.001l-76 -480h-186l8 45c-39.333 -40.667 -88.333 -61 -147 -61s-102.834 19 -132.501 57s-40.5 83.667 -32.5 137l48 302h211l-44 -275c-5.33301 -30 6 -45 34 -45c23.333 0 43.333 9 60 27z" />
    <glyph glyph-name="v" unicode="v" horiz-adv-x="601" 
d="M400 480h231l-266 -480h-223l-110 480h214l32 -279z" />
    <glyph glyph-name="w" unicode="w" horiz-adv-x="846" 
d="M648 480h223l-229 -480h-205l-25 237l-104 -237h-200l-72 480h206l16 -263l108 263h161l23 -263z" />
    <glyph glyph-name="x" unicode="x" horiz-adv-x="570" 
d="M174 0h-230l208 245l-121 235h211l52 -110l81 110h229l-201 -241l128 -239h-221l-49 111z" />
    <glyph glyph-name="y" unicode="y" horiz-adv-x="603" 
d="M298 220l103 260h229l-263 -514c-68.667 -134 -162 -201 -280 -201c-40.667 0 -79 6.66699 -115 20l27 168c19.333 -7.33301 40 -11 62 -11c45.333 0 81.333 23.333 108 70l-143 468h213z" />
    <glyph glyph-name="z" unicode="z" horiz-adv-x="505" 
d="M72 480h422l-20 -123l-192 -189h176l-26 -168h-451l19 123l192 189h-146z" />
    <glyph glyph-name="braceleft" unicode="{" horiz-adv-x="411" 
d="M345 56l-25.998 -167.003c-90 -18 -158.667 -9 -206 27s-66 87.333 -56 154l23 142c2 12 1.66699 21.667 -1 29s-8 12.333 -16 15s-15.167 4.33398 -21.5 5.00098s-15.833 1 -28.5 1l29 179c24 -2 42.833 0.666992 56.5 8s22.5 23 26.5 47l23 148
c12 75.333 46.667 127.5 104 156.5s128 31.5 212 7.5l-26 -166c-52.667 14.667 -84.334 -13.333 -95.001 -84l-16 -105c-10.667 -66 -46.334 -100.667 -107.001 -104c22.667 -1.33301 41.667 -12.166 57 -32.499s20.333 -48.166 15 -83.499l-17 -104
c-4.66699 -30 -2 -50.833 8 -62.5s30.667 -15.167 62 -10.5z" />
    <glyph glyph-name="bar" unicode="|" horiz-adv-x="309" 
d="M197 -100h-209l144 910h209z" />
    <glyph glyph-name="braceright" unicode="}" horiz-adv-x="411" 
d="M281 56c-12 -75.333 -45.6641 -126.997 -100.997 -154.997s-127.333 -31.333 -216 -10l26 164c30 -6 52.167 -2.16699 66.5 11.5s24.166 38.834 29.499 75.501l16 104c6 34 18.667 59.667 38 77s42.666 26.666 69.999 27.999c-22 1.33301 -41 12.666 -57 33.999
s-21.333 48.666 -16 81.999l17 104c4.66699 30 2 50.667 -8 62s-30.667 14.666 -62 9.99902l27 170c90.667 18 159.667 9 207 -27s65.333 -88 54 -156l-23 -144c-2 -12 -1.33301 -21.5 2 -28.5s8.16602 -11.667 14.499 -14s13.833 -3.83301 22.5 -4.5s17.667 -0.666992 27 0
l-28 -178c-48 4.66699 -75.333 -14.333 -82 -57z" />
    <glyph glyph-name="asciitilde" unicode="~" horiz-adv-x="606" 
d="M585 435c2 -69.333 -12.333 -121.333 -43 -156s-70.334 -52 -119.001 -52c-29.333 0 -66.5 8 -111.5 24s-71.5 24 -79.5 24c-20.667 0 -31.334 -14.333 -32.001 -43h-163c-1.33301 69.333 13.334 121.333 44.001 156s69.667 52 117 52c30.667 0 68.167 -8 112.5 -24
s70.833 -24 79.5 -24c20.667 0 31.334 14.333 32.001 43h163z" />
    <glyph glyph-name="exclamdown" unicode="&#xa1;" horiz-adv-x="299" 
d="M180 -220h-225l92 425h177zM279 369c-5.33301 -33.333 -19.334 -58.166 -42.001 -74.499s-49.667 -24.5 -81 -24.5c-35.333 0 -63.5 11.167 -84.5 33.5s-28.167 53.5 -21.5 93.5c5.33301 33.333 19.333 58.166 42 74.499s49.334 24.5 80.001 24.5c36 0 64.333 -11 85 -33
s28 -53.333 22 -94z" />
    <glyph glyph-name="cent" unicode="&#xa2;" horiz-adv-x="513" 
d="M488 463l-25.998 -162.999c-18.667 9.33301 -38.334 16 -59.001 20l-25 -157c22 3.33301 45.333 10.666 70 21.999l-27 -176c-22 -8 -45.333 -14 -70 -18l-18 -111h-89l16 104c-79.333 2 -142.333 25.5 -189 70.5s-64.334 107.833 -53.001 188.5
c11.333 84 47.833 147.333 109.5 190s130.5 64 206.5 64h8l16 103h89l-18 -115c23.333 -6.66699 43 -14 59 -22zM313.002 317.001c-47.333 -13.333 -74 -40 -80 -80s12.667 -64.667 56 -74z" />
    <glyph glyph-name="sterling" unicode="&#xa3;" horiz-adv-x="609" 
d="M532 0h-543.999l29 180h21c20.667 0 37.167 6 49.5 18s19.833 27.333 22.5 46l4 24h-68l24 150h68l6 39c12.667 81.333 45.167 141.5 97.5 180.5s116.5 58.5 192.5 58.5c62 0 121 -12.667 177 -38l-25 -165c-34 20.667 -73.667 31 -119 31
c-62.667 0 -98.334 -27 -107.001 -81l-4 -25h165l-24 -150h-164l-5 -26c-4 -31.333 -17.667 -52 -41 -62h274z" />
    <glyph glyph-name="currency" unicode="&#xa4;" horiz-adv-x="558" 
d="M166 168l-72 -63.001l-77 87l65 60c-13.333 35.333 -16.666 72.666 -9.99902 111.999c5.33301 36.667 19.333 69.334 42 98.001l-45 49l92 84l51 -59c29.333 12 62 18 98 18c37.333 0 70.666 -7.33301 99.999 -22l74 65l76 -87l-68 -62
c14 -35.333 17.667 -72.666 11 -111.999c-5.33301 -38 -19.333 -70.333 -42 -97l46 -49l-94 -84l-50 57c-28 -11.333 -60.667 -17 -98 -17c-36.667 0 -69.667 7.33301 -99 22zM237 344.999c-2 -12 0.5 -22.334 7.5 -31.001s18.5 -13 34.5 -13c18 0 32 5.33301 42 16
s15.667 23.334 17 38.001c2 12 -0.5 22.5 -7.5 31.5s-18.5 13.5 -34.5 13.5c-18 0 -32 -5.5 -42 -16.5s-15.667 -23.833 -17 -38.5z" />
    <glyph glyph-name="yen" unicode="&#xa5;" horiz-adv-x="765" 
d="M545 680h258l-237 -320h92l-17 -110h-152l-7 -39h152l-17 -110h-153l-16 -101h-229l16 101h-152l17 110h153l7 39h-153l17 110h93l-134 320h235l78 -257z" />
    <glyph glyph-name="brokenbar" unicode="&#xa6;" horiz-adv-x="318" 
d="M284 420h-209l62 390h209zM201 -100h-209l62 390h209z" />
    <glyph glyph-name="section" unicode="&#xa7;" horiz-adv-x="528" 
d="M461 108c-15.333 -96 -100.667 -144.003 -256 -144.003c-66 0 -130.333 15.667 -193 47l23 148c46.667 -30 98 -45 154 -45c36.667 0 56.334 6 59.001 18c0.666992 8.66699 -4.83301 15.834 -16.5 21.501s-34.167 14.167 -67.5 25.5
c-40.667 14.667 -72.334 33.834 -95.001 57.501s-31 56.834 -25 99.501c6 47.333 36 85.666 90 114.999c-40 30.667 -56 72.334 -48 125.001c8 50.667 34 86.667 78 108s97 32 159 32c68 0 130.667 -14.667 188 -44l-21 -138c-43.333 24.667 -91 37 -143 37
c-28.667 0 -44 -6.66699 -46 -20c-0.666992 -4 0.5 -7.66699 3.5 -11s7.83301 -6.5 14.5 -9.5s13.667 -5.83301 21 -8.5s16.833 -6.16699 28.5 -10.5s22.167 -8.5 31.5 -12.5c36 -15.333 63.667 -34.5 83 -57.5s26 -54.167 20 -93.5c-7.33301 -46 -35.333 -86 -84 -120
c36.667 -28.667 50.667 -68.667 42 -120zM253.999 309.997c6 -2 14.334 -4.83203 25.001 -8.49902s18.334 -6.16699 23.001 -7.5c15.333 8.66699 24 19.667 26 33c3.33301 17.333 -8.66699 31.666 -36 42.999c-4 2 -11.333 4.66699 -22 8s-18.334 6 -23.001 8
c-16.667 -8.66699 -26.334 -20 -29.001 -34c-3.33301 -18 8.66699 -32 36 -42z" />
    <glyph glyph-name="dieresis" unicode="&#xa8;" horiz-adv-x="437" 
d="M541 829c-2.66699 -27.333 -13.667 -49.333 -33 -66s-42.333 -25 -69 -25c-28.667 0 -51.5 9.33301 -68.5 28s-24.167 43 -21.5 73c2.66699 27.333 13.667 49.333 33 66s42.333 25 69 25c28.667 0 51.5 -9.33301 68.5 -28s24.167 -43 21.5 -73zM311 829
c-2.66699 -27.333 -13.667 -49.333 -33 -66s-42.333 -25 -69 -25c-28.667 0 -51.5 9.33301 -68.5 28s-24.167 43 -21.5 73c2.66699 27.333 13.667 49.333 33 66s42.333 25 69 25c28.667 0 51.5 -9.33301 68.5 -28s24.167 -43 21.5 -73z" />
    <glyph glyph-name="copyright" unicode="&#xa9;" horiz-adv-x="828" 
d="M806 336c-12.667 -76 -41.3359 -141.167 -86.0029 -195.5s-96.667 -94 -156 -119s-122.666 -37.5 -189.999 -37.5c-106 0 -192.667 34.167 -260 102.5s-91.666 160.833 -72.999 277.5c12 76 40.5 141.167 85.5 195.5s97 94 156 119s121.833 37.5 188.5 37.5
c50.667 0 98 -8.5 142 -25.5s82.167 -41 114.5 -72s55.833 -71 70.5 -120s17.334 -103.167 8.00098 -162.5zM557.998 176c-40.667 -21.333 -89.332 -32.002 -145.999 -32.002c-25.333 0 -50.166 4.33301 -74.499 13s-46.5 21.167 -66.5 37.5s-34.833 38.5 -44.5 66.5
s-11.5 59.667 -5.5 95c5.33301 34.667 16.666 65.334 33.999 92.001s38 47.5 62 62.5s49 26.333 75 34s52 11.5 78 11.5c55.333 0 102.666 -11.333 141.999 -34l-18 -118c-27.333 14.667 -57.666 22 -90.999 22c-28.667 0 -53.5 -6.16699 -74.5 -18.5
s-33.5 -32.166 -37.5 -59.499c-3.33301 -24 2.66699 -42.333 18 -55s34.666 -19 57.999 -19c42 0 78.667 8.33301 110 25zM111 344.998c-13.333 -91.333 6.33398 -163.333 59.001 -216s121.667 -79 207 -79c90 0 168.667 26.667 236 80s108 128.333 122 225
c13.333 91.333 -6.33398 163.333 -59.001 216s-121.667 79 -207 79c-90 0 -168.667 -26.667 -236 -80s-108 -128.333 -122 -225z" />
    <glyph glyph-name="guillemotleft" unicode="&#xab;" horiz-adv-x="672" 
d="M605 32h-207l-105 190l6 41l162 185h214l-181 -208zM327 32h-207l-105 190l6 41l162 185h214l-181 -208z" />
    <glyph glyph-name="logicalnot" unicode="&#xac;" horiz-adv-x="578" 
d="M514 197h-174l18 114h-321l27 169h495z" />
    <glyph glyph-name="registered" unicode="&#xae;" horiz-adv-x="828" 
d="M806 336c-12.667 -76 -41.3359 -141.167 -86.0029 -195.5s-96.667 -94 -156 -119s-122.666 -37.5 -189.999 -37.5c-106 0 -192.667 34.167 -260 102.5s-91.666 160.833 -72.999 277.5c12 76 40.5 141.167 85.5 195.5s97 94 156 119s121.833 37.5 188.5 37.5
c50.667 0 98 -8.5 142 -25.5s82.167 -41 114.5 -72s55.833 -71 70.5 -120s17.334 -103.167 8.00098 -162.5zM110.998 345c-13.333 -91.333 6.33398 -163.333 59.001 -216s121.667 -79 207 -79c90 0 168.667 26.667 236 80s108 128.333 122 225
c13.333 91.333 -6.33398 163.333 -59.001 216s-121.667 79 -207 79c-90 0 -168.667 -26.667 -236 -80s-108 -128.333 -122 -225zM361.998 158h-134l61 390h187c47.333 0 86.5 -13 117.5 -39s42.167 -64.667 33.5 -116c-8.66699 -52 -37 -88 -85 -108l74 -127h-142l-60 111
h-7h-28zM405.998 437l-10.998 -67h46c30.667 0 48 11.667 52 35c1.33301 8 -0.833984 15.333 -6.50098 22s-13.834 10 -24.501 10h-56z" />
    <glyph glyph-name="macron" unicode="&#xaf;" horiz-adv-x="360" 
d="M120 902h363l-23 -145h-363z" />
    <glyph glyph-name="degree" unicode="&#xb0;" horiz-adv-x="442" 
d="M458 515c-9.33301 -58 -34.168 -102.335 -74.501 -133.002s-89.5 -46 -147.5 -46c-58.667 0 -105.667 18.333 -141 55s-48 87.334 -38 152.001c8.66699 54.667 33.334 97.167 74.001 127.5s89.334 45.5 146.001 45.5c59.333 0 106.666 -18.167 141.999 -54.5
s48.333 -85.166 39 -146.499zM203.998 521.998c-1.33301 -14.667 1.83203 -26.166 9.49902 -34.499s18.834 -12.5 33.501 -12.5c17.333 0 31.333 5.16699 42 15.5s16.667 24.166 18 41.499c1.33301 14 -1.66699 25.167 -9 33.5s-18.333 12.5 -33 12.5
c-17.333 0 -31.5 -5.16699 -42.5 -15.5s-17.167 -23.833 -18.5 -40.5z" />
    <glyph glyph-name="plusminus" unicode="&#xb1;" horiz-adv-x="582" 
d="M439 687l-25 -152h164l-26 -168h-164l-24 -153h-168l24 153h-164l27 168h163l25 152h168zM494 0h-496l27 168h495z" />
    <glyph glyph-name="acute" unicode="&#xb4;" horiz-adv-x="347" 
d="M313 752h-194l124 164h217z" />
    <glyph glyph-name="paragraph" unicode="&#xb6;" horiz-adv-x="831" 
d="M397 -220l-216.002 0.000976562l75 471c-72 0 -126.667 21.167 -164 63.5s-50 100.166 -38 173.499c10.667 67.333 39.334 119.5 86.001 156.5s107.334 55.5 182.001 55.5h510l-146 -920h-216l114 718h-72z" />
    <glyph glyph-name="periodcentered" unicode="&#xb7;" horiz-adv-x="290" 
d="M250 225c-5.33301 -33.333 -19.167 -58.332 -41.5 -74.999s-49.5 -25 -81.5 -25c-35.333 0 -63.333 11.167 -84 33.5s-28 53.5 -22 93.5c5.33301 33.333 19.333 58.166 42 74.499s49.667 24.5 81 24.5c36 0 64.333 -11 85 -33s27.667 -53 21 -93z" />
    <glyph glyph-name="cedilla" unicode="&#xb8;" horiz-adv-x="230" 
d="M20 0l122.998 0.000976562l-22 -44c28.667 -2 50.834 -11.833 66.501 -29.5s21.167 -40.5 16.5 -68.5c-5.33301 -33.333 -23.666 -57.5 -54.999 -72.5s-67.333 -22.5 -108 -22.5c-50 0 -92.667 7 -128 21l18 111c22 -12.667 48.667 -19 80 -19
c36.667 0 56.334 8 59.001 24c1.33301 7.33301 -2.33398 13.166 -11.001 17.499s-19.5 6.5 -32.5 6.5s-26.5 -1 -40.5 -3z" />
    <glyph glyph-name="guillemotright" unicode="&#xbb;" horiz-adv-x="673" 
d="M475 32h-215l182 208l-112 208h207l106 -190l-7 -41zM196 32h-215l182 208l-112 208h207l105 -190l-6 -41z" />
    <glyph glyph-name="onequarter" unicode="&#xbc;" horiz-adv-x="934" 
d="M741 408h137l-39 -246h50l-17 -107h-50l-9 -55h-125l8 55h-202l17 110zM713 162l15 90l-85 -90h70zM222 -16h-63l578 732h63zM207 680h101l-47 -295h69l-18 -113h-280l18 113h77l26 164l-77 -25l19 118z" />
    <glyph glyph-name="onehalf" unicode="&#xbd;" horiz-adv-x="903" 
d="M219 -16h-63l578 732h63zM575 377c50.667 27.333 101.001 41 151.001 41c45.333 0 83 -12.5 113 -37.5s41 -61.5 33 -109.5c-4 -24 -12.833 -43.5 -26.5 -58.5s-34.167 -30.833 -61.5 -47.5c-6.66699 -4 -14.834 -9 -24.501 -15s-17.334 -10.667 -23.001 -14
s-11.5 -7.16602 -17.5 -11.499s-11 -8.5 -15 -12.5h142l-17 -112h-327l9 59c6 40 20.833 72.167 44.5 96.5s54.167 46.166 91.5 65.499c6 3.33301 15 8 27 14s20.333 10.333 25 13s10.167 6 16.5 10s10.833 7.66699 13.5 11s4.33398 7 5.00098 11
c1.33301 6 -0.666992 10.833 -6 14.5s-12.666 5.5 -21.999 5.5c-44.667 0 -95.334 -18.333 -152.001 -55zM204.001 680h101l-47 -295h69l-18 -113h-280l18 113h77l26 164l-77 -25l19 118z" />
    <glyph glyph-name="threequarters" unicode="&#xbe;" horiz-adv-x="984" 
d="M272 -16h-63l578 732h63zM791 408h137l-39 -246h50l-17 -107h-50l-9 -55h-125l8 55h-202l17 110zM763 162l15 90l-85 -90h70zM380 566c-6.66699 -38 -32.3291 -63.667 -76.9961 -77c21.333 -6 38.5 -18.667 51.5 -38s17.167 -43.666 12.5 -72.999
c-12 -72.667 -72.333 -109 -181 -109c-60 0 -110.667 10 -152 30l18 114c39.333 -20 80 -30 122 -30s64.333 9.33301 67 28c1.33301 7.33301 -0.333984 13.166 -5.00098 17.499s-12.334 6.5 -23.001 6.5h-77l17 103h54c26.667 0 40.667 7 42 21
c1.33301 7.33301 -1.16699 13 -7.5 17s-15.833 6 -28.5 6c-46.667 0 -91.334 -11 -134.001 -33l19 116c44.667 21.333 89.667 32 135 32c44 0 81.167 -11.333 111.5 -34s42.166 -55 35.499 -97z" />
    <glyph glyph-name="questiondown" unicode="&#xbf;" horiz-adv-x="502" 
d="M394 -196c-59.333 -26.667 -124.671 -40 -196.004 -40c-32 0 -62 3.33301 -90 10s-53.833 17 -77.5 31s-41.167 34.333 -52.5 61s-14 58 -8 94c4 23.333 13.333 46 28 68s31.334 41.333 50.001 58s37.334 32.5 56.001 47.5s34.834 30.167 48.501 45.5s21.5 30 23.5 44
h193c-4 -28 -14.667 -55 -32 -81s-35.166 -46.5 -53.499 -61.5s-35.5 -30.5 -51.5 -46.5s-25 -29.333 -27 -40c-2 -12 1.33301 -20.667 10 -26s22 -8 40 -8c56 0 113.333 15.333 172 46zM411.995 369c-5.33301 -33.333 -19.334 -58.166 -42.001 -74.499
s-49.667 -24.5 -81 -24.5c-35.333 0 -63.5 11.167 -84.5 33.5s-28.167 53.5 -21.5 93.5c5.33301 33.333 19.333 58.166 42 74.499s49.334 24.5 80.001 24.5c36 0 64.333 -11 85 -33s28 -53.333 22 -94z" />
    <glyph glyph-name="Agrave" unicode="&#xc0;" horiz-adv-x="765" 
d="M722 0h-225l-16 93h-247l-45 -93h-238l372 700h249zM388 413l-75 -153h141l-25 152c-4.66699 31.333 -7 61.333 -7 90c-10 -33.333 -21.333 -63 -34 -89zM566 752h-183l-96 164h207z" />
    <glyph glyph-name="Aacute" unicode="&#xc1;" horiz-adv-x="765" 
d="M722 0h-225l-16 93h-247l-45 -93h-238l372 700h249zM388 413l-75 -153h141l-25 152c-4.66699 31.333 -7 61.333 -7 90c-10 -33.333 -21.333 -63 -34 -89zM533 752h-194l124 164h217z" />
    <glyph glyph-name="Acircumflex" unicode="&#xc2;" horiz-adv-x="765" 
d="M722 0h-225l-16 93h-247l-45 -93h-238l372 700h249zM388 413l-75 -153h141l-25 152c-4.66699 31.333 -7 61.333 -7 90c-10 -33.333 -21.333 -63 -34 -89zM388 918h185l101 -171h-168l-35 60l-55 -60h-183z" />
    <glyph glyph-name="Atilde" unicode="&#xc3;" horiz-adv-x="765" 
d="M722 0h-225l-16 93h-247l-45 -93h-238l372 700h249zM388 413l-75 -153h141l-25 152c-4.66699 31.333 -7 61.333 -7 90c-10 -33.333 -21.333 -63 -34 -89zM679 918c6.66699 -52 -2.33203 -94.833 -26.999 -128.5s-58.334 -50.5 -101.001 -50.5
c-24 0 -51.5 6.66699 -82.5 20s-51.167 20 -60.5 20c-8.66699 0 -15.334 -3.66699 -20.001 -11s-6.33398 -15 -5.00098 -23h-134c-6.66699 51.333 2.33301 94 27 128s58 51 100 51c24.667 0 52.5 -6.66699 83.5 -20s50.833 -20 59.5 -20s15.334 3.66699 20.001 11
s6.33398 15 5.00098 23h135z" />
    <glyph glyph-name="Adieresis" unicode="&#xc4;" horiz-adv-x="765" 
d="M722 0h-225l-16 93h-247l-45 -93h-238l372 700h249zM388 413l-75 -153h141l-25 152c-4.66699 31.333 -7 61.333 -7 90c-10 -33.333 -21.333 -63 -34 -89zM680 829c-2.66699 -27.333 -13.667 -49.333 -33 -66s-42.333 -25 -69 -25c-28.667 0 -51.5 9.33301 -68.5 28
s-24.167 43 -21.5 73c2.66699 27.333 13.667 49.333 33 66s42.333 25 69 25c28.667 0 51.5 -9.33301 68.5 -28s24.167 -43 21.5 -73zM450 829c-2.66699 -27.333 -13.667 -49.333 -33 -66s-42.333 -25 -69 -25c-28.667 0 -51.5 9.33301 -68.5 28s-24.167 43 -21.5 73
c2.66699 27.333 13.667 49.333 33 66s42.333 25 69 25c28.667 0 51.5 -9.33301 68.5 -28s24.167 -43 21.5 -73z" />
    <glyph glyph-name="Aring" unicode="&#xc5;" horiz-adv-x="765" 
d="M722 0h-225l-16 93h-247l-45 -93h-238l372 700h249zM388 413l-75 -153h141l-25 152c-4.66699 31.333 -7 61.333 -7 90c-10 -33.333 -21.333 -63 -34 -89zM616 848c-6 -38 -23 -66.999 -51 -86.999s-61.333 -30 -100 -30c-39.333 0 -72.166 13.167 -98.499 39.5
s-36.166 61.5 -29.499 105.5c6 36 23.167 64.333 51.5 85s61.166 31 98.499 31c40 0 73.167 -13.333 99.5 -40s36.166 -61.334 29.499 -104.001zM442 863.001c-1.33301 -10.667 0.666016 -19.333 5.99902 -26s13.333 -10 24 -10c22 0 34.667 11 38 33
c2 10 0.333008 18.333 -5 25s-13.666 10 -24.999 10c-10 0 -18.5 -3 -25.5 -9s-11.167 -13.667 -12.5 -23z" />
    <glyph glyph-name="AE" unicode="&#xc6;" horiz-adv-x="1042" 
d="M1068 700l-29 -182h-274l-12 -81h238l-27 -170h-238l-14 -83h280l-29 -184h-505l15 95h-214l-71 -95h-248l540 700h588zM379 260h120l34 206z" />
    <glyph glyph-name="Ccedilla" unicode="&#xc7;" horiz-adv-x="645" 
d="M638 473c-35.333 28.667 -83.6689 43 -145.002 43c-54.667 0 -103.334 -13.667 -146.001 -41s-69 -70 -79 -128c-8 -50.667 3.33301 -90 34 -118s69.667 -42 117 -42c69.333 0 131.666 16.667 186.999 50l-34 -214c-46.667 -20.667 -100.667 -33.334 -162 -38.001
l-14 -29c28.667 -2 50.834 -11.833 66.501 -29.5s21.167 -40.5 16.5 -68.5c-5.33301 -33.333 -23.666 -57.5 -54.999 -72.5s-67.333 -22.5 -108 -22.5c-50 0 -92.667 7 -128 21l18 111c22 -12.667 48.667 -19 80 -19c36.667 0 56.334 8 59.001 24
c1.33301 7.33301 -2.33398 13.166 -11.001 17.499s-19.5 6.5 -32.5 6.5s-26.5 -1 -40.5 -3l30 70c-41.333 8 -79 21.333 -113 40s-63.5 42.667 -88.5 72s-42.667 66.166 -53 110.499s-11.166 93.5 -2.49902 147.5c8 48.667 22.667 93.334 44 134.001
s46.5 74.334 75.5 101.001s61.333 49.334 97 68.001s71.334 32 107.001 40s71.5 12 107.5 12c78 0 146 -16 204 -48z" />
    <glyph glyph-name="Egrave" unicode="&#xc8;" horiz-adv-x="621" 
d="M117 700h530l-29 -182h-300l-12 -81h264l-27 -170h-264l-13 -83h305l-29 -184h-536zM503 752h-183l-96 164h207z" />
    <glyph glyph-name="Eacute" unicode="&#xc9;" horiz-adv-x="621" 
d="M117 700h530l-29 -182h-300l-12 -81h264l-27 -170h-264l-13 -83h305l-29 -184h-536zM470 752h-194l124 164h217z" />
    <glyph glyph-name="Ecircumflex" unicode="&#xca;" horiz-adv-x="621" 
d="M117 700h530l-29 -182h-300l-12 -81h264l-27 -170h-264l-13 -83h305l-29 -184h-536zM325 918h185l101 -171h-168l-35 60l-55 -60h-183z" />
    <glyph glyph-name="Edieresis" unicode="&#xcb;" horiz-adv-x="621" 
d="M117 700h530l-29 -182h-300l-12 -81h264l-27 -170h-264l-13 -83h305l-29 -184h-536zM617 829c-2.66699 -27.333 -13.667 -49.333 -33 -66s-42.333 -25 -69 -25c-28.667 0 -51.5 9.33301 -68.5 28s-24.167 43 -21.5 73c2.66699 27.333 13.667 49.333 33 66
s42.333 25 69 25c28.667 0 51.5 -9.33301 68.5 -28s24.167 -43 21.5 -73zM387 829c-2.66699 -27.333 -13.667 -49.333 -33 -66s-42.333 -25 -69 -25c-28.667 0 -51.5 9.33301 -68.5 28s-24.167 43 -21.5 73c2.66699 27.333 13.667 49.333 33 66s42.333 25 69 25
c28.667 0 51.5 -9.33301 68.5 -28s24.167 -43 21.5 -73z" />
    <glyph glyph-name="Igrave" unicode="&#xcc;" horiz-adv-x="336" 
d="M117 700h231l-111 -700h-231zM350 752h-183l-96 164h207z" />
    <glyph glyph-name="Iacute" unicode="&#xcd;" horiz-adv-x="336" 
d="M117 700h231l-111 -700h-231zM317 752h-194l124 164h217z" />
    <glyph glyph-name="Icircumflex" unicode="&#xce;" horiz-adv-x="336" 
d="M117 700h231l-111 -700h-231zM172 918h185l101 -171h-168l-35 60l-55 -60h-183z" />
    <glyph glyph-name="Idieresis" unicode="&#xcf;" horiz-adv-x="336" 
d="M117 700h231l-111 -700h-231zM464 829c-2.66699 -27.333 -13.667 -49.333 -33 -66s-42.333 -25 -69 -25c-28.667 0 -51.5 9.33301 -68.5 28s-24.167 43 -21.5 73c2.66699 27.333 13.667 49.333 33 66s42.333 25 69 25c28.667 0 51.5 -9.33301 68.5 -28
s24.167 -43 21.5 -73zM234 829c-2.66699 -27.333 -13.667 -49.333 -33 -66s-42.333 -25 -69 -25c-28.667 0 -51.5 9.33301 -68.5 28s-24.167 43 -21.5 73c2.66699 27.333 13.667 49.333 33 66s42.333 25 69 25c28.667 0 51.5 -9.33301 68.5 -28s24.167 -43 21.5 -73z" />
    <glyph glyph-name="Eth" unicode="&#xd0;" horiz-adv-x="757" 
d="M131 700h296.001c117.333 0 203 -33.333 257 -100s72.333 -154.667 55 -264c-16.667 -104 -58.834 -186 -126.501 -246s-161.5 -90 -281.5 -90h-311l44 281h-58l22 136h58zM341.001 194c93.333 0 148 54.667 164 164c16.667 98.667 -18 148 -104 148h-71l-14 -89h102
l-22 -136h-101l-14 -87h60z" />
    <glyph glyph-name="Ntilde" unicode="&#xd1;" horiz-adv-x="762" 
d="M237 0h-231.001l111 700h174l207 -337c0.666992 40.667 4.33398 80 11.001 118l34 219h231l-111 -700h-174l-206 336c0 -29.333 -3.33301 -67.333 -10 -114zM656.999 918c6.66699 -52 -2.33203 -94.833 -26.999 -128.5s-58.334 -50.5 -101.001 -50.5
c-24 0 -51.5 6.66699 -82.5 20s-51.167 20 -60.5 20c-8.66699 0 -15.334 -3.66699 -20.001 -11s-6.33398 -15 -5.00098 -23h-134c-6.66699 51.333 2.33301 94 27 128s58 51 100 51c24.667 0 52.5 -6.66699 83.5 -20s50.833 -20 59.5 -20s15.334 3.66699 20.001 11
s6.33398 15 5.00098 23h135z" />
    <glyph glyph-name="Ograve" unicode="&#xd2;" horiz-adv-x="805" 
d="M789 336c-16 -102 -61.332 -186.167 -135.999 -252.5s-171 -99.5 -289 -99.5c-119.333 0 -208.333 36.333 -267 109s-79.334 163 -62.001 271c16 102 61.333 186.167 136 252.5s171 99.5 289 99.5s206.667 -36.333 266 -109s80.333 -163 63 -271zM269.001 338
c-5.33301 -45.333 1.83496 -80.833 21.502 -106.5s50.5 -38.5 92.5 -38.5c47.333 0 86.5 15.167 117.5 45.5s49.5 71.5 55.5 123.5c6 45.333 -0.833008 80.833 -20.5 106.5s-50.834 38.5 -93.501 38.5c-46.667 0 -85.334 -15.167 -116.001 -45.5s-49.667 -71.5 -57 -123.5z
M584.002 752h-183l-96 164h207z" />
    <glyph glyph-name="Oacute" unicode="&#xd3;" horiz-adv-x="805" 
d="M789 336c-16 -102 -61.332 -186.167 -135.999 -252.5s-171 -99.5 -289 -99.5c-119.333 0 -208.333 36.333 -267 109s-79.334 163 -62.001 271c16 102 61.333 186.167 136 252.5s171 99.5 289 99.5s206.667 -36.333 266 -109s80.333 -163 63 -271zM269.001 338
c-5.33301 -45.333 1.83496 -80.833 21.502 -106.5s50.5 -38.5 92.5 -38.5c47.333 0 86.5 15.167 117.5 45.5s49.5 71.5 55.5 123.5c6 45.333 -0.833008 80.833 -20.5 106.5s-50.834 38.5 -93.501 38.5c-46.667 0 -85.334 -15.167 -116.001 -45.5s-49.667 -71.5 -57 -123.5z
M551.002 752h-194l124 164h217z" />
    <glyph glyph-name="Ocircumflex" unicode="&#xd4;" horiz-adv-x="805" 
d="M789 336c-16 -102 -61.332 -186.167 -135.999 -252.5s-171 -99.5 -289 -99.5c-119.333 0 -208.333 36.333 -267 109s-79.334 163 -62.001 271c16 102 61.333 186.167 136 252.5s171 99.5 289 99.5s206.667 -36.333 266 -109s80.333 -163 63 -271zM269.001 338
c-5.33301 -45.333 1.83496 -80.833 21.502 -106.5s50.5 -38.5 92.5 -38.5c47.333 0 86.5 15.167 117.5 45.5s49.5 71.5 55.5 123.5c6 45.333 -0.833008 80.833 -20.5 106.5s-50.834 38.5 -93.501 38.5c-46.667 0 -85.334 -15.167 -116.001 -45.5s-49.667 -71.5 -57 -123.5z
M406.002 918h185l101 -171h-168l-35 60l-55 -60h-183z" />
    <glyph glyph-name="Otilde" unicode="&#xd5;" horiz-adv-x="805" 
d="M789 336c-16 -102 -61.332 -186.167 -135.999 -252.5s-171 -99.5 -289 -99.5c-119.333 0 -208.333 36.333 -267 109s-79.334 163 -62.001 271c16 102 61.333 186.167 136 252.5s171 99.5 289 99.5s206.667 -36.333 266 -109s80.333 -163 63 -271zM269.001 338
c-5.33301 -45.333 1.83496 -80.833 21.502 -106.5s50.5 -38.5 92.5 -38.5c47.333 0 86.5 15.167 117.5 45.5s49.5 71.5 55.5 123.5c6 45.333 -0.833008 80.833 -20.5 106.5s-50.834 38.5 -93.501 38.5c-46.667 0 -85.334 -15.167 -116.001 -45.5s-49.667 -71.5 -57 -123.5z
M697.002 918c6.66699 -52 -2.33203 -94.833 -26.999 -128.5s-58.334 -50.5 -101.001 -50.5c-24 0 -51.5 6.66699 -82.5 20s-51.167 20 -60.5 20c-8.66699 0 -15.334 -3.66699 -20.001 -11s-6.33398 -15 -5.00098 -23h-134c-6.66699 51.333 2.33301 94 27 128s58 51 100 51
c24.667 0 52.5 -6.66699 83.5 -20s50.833 -20 59.5 -20s15.334 3.66699 20.001 11s6.33398 15 5.00098 23h135z" />
    <glyph glyph-name="Odieresis" unicode="&#xd6;" horiz-adv-x="805" 
d="M789 336c-16 -102 -61.332 -186.167 -135.999 -252.5s-171 -99.5 -289 -99.5c-119.333 0 -208.333 36.333 -267 109s-79.334 163 -62.001 271c16 102 61.333 186.167 136 252.5s171 99.5 289 99.5s206.667 -36.333 266 -109s80.333 -163 63 -271zM269.001 338
c-5.33301 -45.333 1.83496 -80.833 21.502 -106.5s50.5 -38.5 92.5 -38.5c47.333 0 86.5 15.167 117.5 45.5s49.5 71.5 55.5 123.5c6 45.333 -0.833008 80.833 -20.5 106.5s-50.834 38.5 -93.501 38.5c-46.667 0 -85.334 -15.167 -116.001 -45.5s-49.667 -71.5 -57 -123.5z
M698.002 829c-2.66699 -27.333 -13.667 -49.333 -33 -66s-42.333 -25 -69 -25c-28.667 0 -51.5 9.33301 -68.5 28s-24.167 43 -21.5 73c2.66699 27.333 13.667 49.333 33 66s42.333 25 69 25c28.667 0 51.5 -9.33301 68.5 -28s24.167 -43 21.5 -73zM468.002 829
c-2.66699 -27.333 -13.667 -49.333 -33 -66s-42.333 -25 -69 -25c-28.667 0 -51.5 9.33301 -68.5 28s-24.167 43 -21.5 73c2.66699 27.333 13.667 49.333 33 66s42.333 25 69 25c28.667 0 51.5 -9.33301 68.5 -28s24.167 -43 21.5 -73z" />
    <glyph glyph-name="multiply" unicode="&#xd7;" horiz-adv-x="526" 
d="M259 239l-143 -122l-96 110l142 122l-103 123l124 110l103 -122l142 122l97 -110l-143 -123l104 -122l-125 -110z" />
    <glyph glyph-name="Oslash" unicode="&#xd8;" horiz-adv-x="805" 
d="M122 -48l-114.003 -0.000976562l106 122c-71.333 71.333 -97.666 168 -78.999 290c16 102 61.333 186.167 136 252.5s171 99.5 289 99.5c70 0 130 -13.333 180 -40l63 72h114l-107 -123c34.667 -34.667 58.834 -77.167 72.501 -127.5s15.834 -104.166 6.50098 -161.499
c-16 -102 -61.333 -186.167 -136 -252.5s-171 -99.5 -289 -99.5c-69.333 0 -129.333 13 -180 39zM268.997 337.999c-4.66699 -29.333 -1.99902 -55.333 8.00098 -78l210 240c-15.333 4.66699 -30.666 7 -45.999 7c-46.667 0 -85.334 -15.167 -116.001 -45.5
s-49.334 -71.5 -56.001 -123.5zM337.998 199.999c15.333 -4.66699 30.001 -7 44.001 -7c47.333 0 86.5 15.167 117.5 45.5s49.5 71.5 55.5 123.5c5.33301 29.333 2.66602 55.333 -8.00098 78z" />
    <glyph glyph-name="Ugrave" unicode="&#xd9;" horiz-adv-x="741" 
d="M530 700h230.003l-68 -435c-30.667 -187.333 -152 -281 -364 -281c-42 0 -81 5.5 -117 16.5s-68.5 27.5 -97.5 49.5s-50 52.667 -63 92s-15.5 85 -7.5 137l67 421h231l-68 -423c-4.66699 -31.333 -0.333984 -53.5 12.999 -66.5s34.666 -19.5 63.999 -19.5
c65.333 0 103.666 33 114.999 99zM542.003 752h-183l-96 164h207z" />
    <glyph glyph-name="Uacute" unicode="&#xda;" horiz-adv-x="741" 
d="M530 700h230.003l-68 -435c-30.667 -187.333 -152 -281 -364 -281c-42 0 -81 5.5 -117 16.5s-68.5 27.5 -97.5 49.5s-50 52.667 -63 92s-15.5 85 -7.5 137l67 421h231l-68 -423c-4.66699 -31.333 -0.333984 -53.5 12.999 -66.5s34.666 -19.5 63.999 -19.5
c65.333 0 103.666 33 114.999 99zM509.003 752h-194l124 164h217z" />
    <glyph glyph-name="Ucircumflex" unicode="&#xdb;" horiz-adv-x="741" 
d="M530 700h230.003l-68 -435c-30.667 -187.333 -152 -281 -364 -281c-42 0 -81 5.5 -117 16.5s-68.5 27.5 -97.5 49.5s-50 52.667 -63 92s-15.5 85 -7.5 137l67 421h231l-68 -423c-4.66699 -31.333 -0.333984 -53.5 12.999 -66.5s34.666 -19.5 63.999 -19.5
c65.333 0 103.666 33 114.999 99zM364.003 918h185l101 -171h-168l-35 60l-55 -60h-183z" />
    <glyph glyph-name="Udieresis" unicode="&#xdc;" horiz-adv-x="741" 
d="M530 700h230.003l-68 -435c-30.667 -187.333 -152 -281 -364 -281c-42 0 -81 5.5 -117 16.5s-68.5 27.5 -97.5 49.5s-50 52.667 -63 92s-15.5 85 -7.5 137l67 421h231l-68 -423c-4.66699 -31.333 -0.333984 -53.5 12.999 -66.5s34.666 -19.5 63.999 -19.5
c65.333 0 103.666 33 114.999 99zM656.003 829c-2.66699 -27.333 -13.667 -49.333 -33 -66s-42.333 -25 -69 -25c-28.667 0 -51.5 9.33301 -68.5 28s-24.167 43 -21.5 73c2.66699 27.333 13.667 49.333 33 66s42.333 25 69 25c28.667 0 51.5 -9.33301 68.5 -28
s24.167 -43 21.5 -73zM426.003 829c-2.66699 -27.333 -13.667 -49.333 -33 -66s-42.333 -25 -69 -25c-28.667 0 -51.5 9.33301 -68.5 28s-24.167 43 -21.5 73c2.66699 27.333 13.667 49.333 33 66s42.333 25 69 25c28.667 0 51.5 -9.33301 68.5 -28s24.167 -43 21.5 -73z
" />
    <glyph glyph-name="Yacute" unicode="&#xdd;" horiz-adv-x="752" 
d="M443 0h-229l39 239l-193 461h246l82 -267l164 267h270l-340 -461zM516 752h-194l124 164h217z" />
    <glyph glyph-name="Thorn" unicode="&#xde;" horiz-adv-x="687" 
d="M333 609l70 -0.00292969c43.333 0 82.5 -4.83301 117.5 -14.5s66.167 -24.667 93.5 -45s47 -48.666 59 -84.999s14 -79.166 6 -128.499c-7.33301 -46 -20.666 -85.167 -39.999 -117.5s-44.333 -57.666 -75 -75.999s-64.834 -31.5 -102.501 -39.5s-81.167 -12 -130.5 -12
h-80l-14 -91h-231l111 700h231zM282 281.997l68 -0.000976562c62 0 97 24.333 105 73c2.66699 20.667 -2.5 36.334 -15.5 47.001s-31.5 16 -55.5 16h-80z" />
    <glyph glyph-name="germandbls" unicode="&#xdf;" horiz-adv-x="619" 
d="M584 126c-5.33301 -46 -26.4971 -81.1729 -63.4971 -105.506s-80.5 -36.5 -130.5 -36.5c-46 0 -91 9 -135 27l24 156c14.667 -7.33301 32 -11 52 -11c15.333 0 27.666 3.5 36.999 10.5s14.666 15.5 15.999 25.5c2 13.333 -4.5 30.333 -19.5 51s-29.833 43 -44.5 67
s-20 46.667 -16 68c3.33301 18 15.5 40.5 36.5 67.5s33.167 47.833 36.5 62.5c2.66699 12.667 0.833984 22.334 -5.49902 29.001s-15.5 10 -27.5 10c-34 0 -54.333 -18 -61 -54l-77 -493h-211l76 482c24.667 155.333 118.667 233.333 282 234c40 0 75.667 -5.66699 107 -17
s55.666 -26.166 72.999 -44.499s29.833 -38 37.5 -59s10.167 -41.5 7.5 -61.5c-3.33301 -25.333 -19.333 -54.5 -48 -87.5s-44.334 -58.5 -47.001 -76.5c-2 -11.333 2.66699 -25.666 14 -42.999s24.333 -34.166 39 -50.499s27.167 -38.166 37.5 -65.499
s13.833 -55.666 10.5 -84.999z" />
    <glyph glyph-name="agrave" unicode="&#xe0;" horiz-adv-x="624" 
d="M360 52c-36 -45.333 -88.665 -67.999 -157.998 -67.999c-71.333 0 -123.333 26.5 -156 79.5s-43 116.5 -31 190.5c10.667 68.667 37.5 126.167 80.5 172.5s99.5 69.5 169.5 69.5c35.333 0 66.166 -8.33301 92.499 -25s46.166 -37.334 59.499 -62.001l11 71h185l-76 -480
h-185zM228.002 236.001c-3.33301 -23.333 -0.000976562 -43 9.99902 -59s25.333 -24 46 -24c28.667 0 53 12.333 73 37l17 104c-3.33301 10 -9.66602 18 -18.999 24s-20.333 9 -33 9c-25.333 0 -46.333 -8.66699 -63 -26s-27 -39 -31 -65zM448.001 542.001h-183l-96 164h207
z" />
    <glyph glyph-name="aacute" unicode="&#xe1;" horiz-adv-x="624" 
d="M360 52c-36 -45.333 -88.665 -67.999 -157.998 -67.999c-71.333 0 -123.333 26.5 -156 79.5s-43 116.5 -31 190.5c10.667 68.667 37.5 126.167 80.5 172.5s99.5 69.5 169.5 69.5c35.333 0 66.166 -8.33301 92.499 -25s46.166 -37.334 59.499 -62.001l11 71h185l-76 -480
h-185zM228.002 236.001c-3.33301 -23.333 -0.000976562 -43 9.99902 -59s25.333 -24 46 -24c28.667 0 53 12.333 73 37l17 104c-3.33301 10 -9.66602 18 -18.999 24s-20.333 9 -33 9c-25.333 0 -46.333 -8.66699 -63 -26s-27 -39 -31 -65zM415.001 542.001h-194l124 164h217
z" />
    <glyph glyph-name="acircumflex" unicode="&#xe2;" horiz-adv-x="624" 
d="M360 52c-36 -45.333 -88.665 -67.999 -157.998 -67.999c-71.333 0 -123.333 26.5 -156 79.5s-43 116.5 -31 190.5c10.667 68.667 37.5 126.167 80.5 172.5s99.5 69.5 169.5 69.5c35.333 0 66.166 -8.33301 92.499 -25s46.166 -37.334 59.499 -62.001l11 71h185l-76 -480
h-185zM228.002 236.001c-3.33301 -23.333 -0.000976562 -43 9.99902 -59s25.333 -24 46 -24c28.667 0 53 12.333 73 37l17 104c-3.33301 10 -9.66602 18 -18.999 24s-20.333 9 -33 9c-25.333 0 -46.333 -8.66699 -63 -26s-27 -39 -31 -65zM270.001 708.001h185l101 -171
h-168l-35 60l-55 -60h-183z" />
    <glyph glyph-name="atilde" unicode="&#xe3;" horiz-adv-x="624" 
d="M360 52c-36 -45.333 -88.665 -67.999 -157.998 -67.999c-71.333 0 -123.333 26.5 -156 79.5s-43 116.5 -31 190.5c10.667 68.667 37.5 126.167 80.5 172.5s99.5 69.5 169.5 69.5c35.333 0 66.166 -8.33301 92.499 -25s46.166 -37.334 59.499 -62.001l11 71h185l-76 -480
h-185zM228.002 236.001c-3.33301 -23.333 -0.000976562 -43 9.99902 -59s25.333 -24 46 -24c28.667 0 53 12.333 73 37l17 104c-3.33301 10 -9.66602 18 -18.999 24s-20.333 9 -33 9c-25.333 0 -46.333 -8.66699 -63 -26s-27 -39 -31 -65zM561.001 708.001
c6.66699 -52 -2.33203 -94.833 -26.999 -128.5s-58.334 -50.5 -101.001 -50.5c-24 0 -51.5 6.66699 -82.5 20s-51.167 20 -60.5 20c-8.66699 0 -15.334 -3.66699 -20.001 -11s-6.33398 -15 -5.00098 -23h-134c-6.66699 51.333 2.33301 94 27 128s58 51 100 51
c24.667 0 52.5 -6.66699 83.5 -20s50.833 -20 59.5 -20s15.334 3.66699 20.001 11s6.33398 15 5.00098 23h135z" />
    <glyph glyph-name="adieresis" unicode="&#xe4;" horiz-adv-x="624" 
d="M360 52c-36 -45.333 -88.665 -67.999 -157.998 -67.999c-71.333 0 -123.333 26.5 -156 79.5s-43 116.5 -31 190.5c10.667 68.667 37.5 126.167 80.5 172.5s99.5 69.5 169.5 69.5c35.333 0 66.166 -8.33301 92.499 -25s46.166 -37.334 59.499 -62.001l11 71h185l-76 -480
h-185zM228.002 236.001c-3.33301 -23.333 -0.000976562 -43 9.99902 -59s25.333 -24 46 -24c28.667 0 53 12.333 73 37l17 104c-3.33301 10 -9.66602 18 -18.999 24s-20.333 9 -33 9c-25.333 0 -46.333 -8.66699 -63 -26s-27 -39 -31 -65zM562.001 619.001
c-2.66699 -27.333 -13.667 -49.333 -33 -66s-42.333 -25 -69 -25c-28.667 0 -51.5 9.33301 -68.5 28s-24.167 43 -21.5 73c2.66699 27.333 13.667 49.333 33 66s42.333 25 69 25c28.667 0 51.5 -9.33301 68.5 -28s24.167 -43 21.5 -73zM332.001 619.001
c-2.66699 -27.333 -13.667 -49.333 -33 -66s-42.333 -25 -69 -25c-28.667 0 -51.5 9.33301 -68.5 28s-24.167 43 -21.5 73c2.66699 27.333 13.667 49.333 33 66s42.333 25 69 25c28.667 0 51.5 -9.33301 68.5 -28s24.167 -43 21.5 -73z" />
    <glyph glyph-name="aring" unicode="&#xe5;" horiz-adv-x="624" 
d="M360 52c-36 -45.333 -88.665 -67.999 -157.998 -67.999c-71.333 0 -123.333 26.5 -156 79.5s-43 116.5 -31 190.5c10.667 68.667 37.5 126.167 80.5 172.5s99.5 69.5 169.5 69.5c35.333 0 66.166 -8.33301 92.499 -25s46.166 -37.334 59.499 -62.001l11 71h185l-76 -480
h-185zM228.002 236.001c-3.33301 -23.333 -0.000976562 -43 9.99902 -59s25.333 -24 46 -24c28.667 0 53 12.333 73 37l17 104c-3.33301 10 -9.66602 18 -18.999 24s-20.333 9 -33 9c-25.333 0 -46.333 -8.66699 -63 -26s-27 -39 -31 -65zM498.001 638.001
c-6 -38 -23 -66.999 -51 -86.999s-61.333 -30 -100 -30c-39.333 0 -72.166 13.167 -98.499 39.5s-36.166 61.5 -29.499 105.5c6 36 23.167 64.333 51.5 85s61.166 31 98.499 31c40 0 73.167 -13.333 99.5 -40s36.166 -61.334 29.499 -104.001zM324.001 653.002
c-1.33301 -10.667 0.666016 -19.333 5.99902 -26s13.333 -10 24 -10c22 0 34.667 11 38 33c2 10 0.333008 18.333 -5 25s-13.666 10 -24.999 10c-10 0 -18.5 -3 -25.5 -9s-11.167 -13.667 -12.5 -23z" />
    <glyph glyph-name="ae" unicode="&#xe6;" horiz-adv-x="924" 
d="M360 53c-36 -46 -88.667 -69.001 -158 -69.001c-71.333 0 -123.333 26.5 -156 79.5s-43 116.5 -31 190.5c10.667 68.667 37.5 126.167 80.5 172.5s99.5 69.5 169.5 69.5c35.333 0 66.333 -8.16699 93 -24.5s46.334 -36.833 59.001 -61.5l11 70h169l-10 -64
c34.667 53.333 85.667 80 153 80c50.667 0 90.5 -14.333 119.5 -43s44.167 -65.667 45.5 -111s-7.33398 -95.666 -26.001 -150.999h-302c10 -39.333 51.333 -59 124 -59c48.667 0 94 6.66699 136 20l-22 -146c-42 -14.667 -83.333 -22 -124 -22
c-75.333 0 -129 24.667 -161 74l-9 -58h-169zM226 235.999c-3.33301 -24 -0.000976562 -43.832 9.99902 -59.499s25.333 -23.834 46 -24.501c28 0 52.333 12.333 73 37l17 104c-3.33301 10 -9.66602 18 -18.999 24s-20.333 9 -33 9c-24.667 0 -45.5 -8.5 -62.5 -25.5
s-27.5 -38.5 -31.5 -64.5zM672.999 357c-23.333 0 -42.002 -6.83301 -56.002 -20.5s-22.333 -29.5 -25 -47.5h131c4.66699 17.333 2.83398 33 -5.49902 47s-23.166 21 -44.499 21z" />
    <glyph glyph-name="ccedilla" unicode="&#xe7;" horiz-adv-x="490" 
d="M456 300c-28.667 15.333 -61.334 23.002 -98.001 23.002c-32.667 0 -61.5 -7 -86.5 -21s-39.5 -35.667 -43.5 -65c-4 -26 2.66699 -45.5 20 -58.5s41.333 -19.5 72 -19.5c44 0 85 8.66699 123 26l-28 -176c-38.667 -12.667 -76 -20.334 -112 -23.001l-14 -30
c28.667 -2 50.834 -12 66.501 -30s21.167 -40.667 16.5 -68c-5.33301 -33.333 -23.833 -57.5 -55.5 -72.5s-67.834 -22.5 -108.501 -22.5c-49.333 0 -91.666 7 -126.999 21l17 111c23.333 -12.667 50.333 -19 81 -19c36.667 0 56.334 8 59.001 24
c1.33301 7.33301 -2.5 13.166 -11.5 17.499s-20 6.5 -33 6.5s-26.5 -1 -40.5 -3l31 72c-60 13.333 -105.833 41.333 -137.5 84s-42.834 98 -33.501 166c11.333 84 47.833 147.333 109.5 190s130.5 64 206.5 64c58 0 109 -11.333 153 -34z" />
    <glyph glyph-name="egrave" unicode="&#xe8;" horiz-adv-x="546" 
d="M15 258c6 41.333 19.166 77.832 39.499 109.499s44.166 56.5 71.499 74.5s55.666 31.5 84.999 40.5s58.666 13.5 87.999 13.5c40.667 0 76.334 -6.16699 107.001 -18.5s54.334 -28.833 71.001 -49.5s28.834 -44.167 36.501 -70.5s10.5 -53.666 8.5 -81.999
s-8.33301 -56.166 -19 -83.499h-298c10 -40.667 52 -61 126 -61c56.667 0 106.334 8 149.001 24l-23 -147c-48 -16 -105.667 -24 -173 -24c-38 0 -73.833 5.33301 -107.5 16s-64.167 26.667 -91.5 48s-47.5 50.166 -60.5 86.499s-16.167 77.5 -9.5 123.5zM346.999 288.999
c4.66699 17.333 2.83301 33 -5.5 47s-23.166 21 -44.499 21c-22 0 -40.333 -6.83301 -55 -20.5s-23.334 -29.5 -26.001 -47.5h131zM416.998 531.999h-183l-96 164h207z" />
    <glyph glyph-name="eacute" unicode="&#xe9;" horiz-adv-x="546" 
d="M15 258c6 41.333 19.166 77.832 39.499 109.499s44.166 56.5 71.499 74.5s55.666 31.5 84.999 40.5s58.666 13.5 87.999 13.5c40.667 0 76.334 -6.16699 107.001 -18.5s54.334 -28.833 71.001 -49.5s28.834 -44.167 36.501 -70.5s10.5 -53.666 8.5 -81.999
s-8.33301 -56.166 -19 -83.499h-298c10 -40.667 52 -61 126 -61c56.667 0 106.334 8 149.001 24l-23 -147c-48 -16 -105.667 -24 -173 -24c-38 0 -73.833 5.33301 -107.5 16s-64.167 26.667 -91.5 48s-47.5 50.166 -60.5 86.499s-16.167 77.5 -9.5 123.5zM346.999 288.999
c4.66699 17.333 2.83301 33 -5.5 47s-23.166 21 -44.499 21c-22 0 -40.333 -6.83301 -55 -20.5s-23.334 -29.5 -26.001 -47.5h131zM383.998 531.999h-194l124 164h217z" />
    <glyph glyph-name="ecircumflex" unicode="&#xea;" horiz-adv-x="546" 
d="M15 258c6 41.333 19.166 77.832 39.499 109.499s44.166 56.5 71.499 74.5s55.666 31.5 84.999 40.5s58.666 13.5 87.999 13.5c40.667 0 76.334 -6.16699 107.001 -18.5s54.334 -28.833 71.001 -49.5s28.834 -44.167 36.501 -70.5s10.5 -53.666 8.5 -81.999
s-8.33301 -56.166 -19 -83.499h-298c10 -40.667 52 -61 126 -61c56.667 0 106.334 8 149.001 24l-23 -147c-48 -16 -105.667 -24 -173 -24c-38 0 -73.833 5.33301 -107.5 16s-64.167 26.667 -91.5 48s-47.5 50.166 -60.5 86.499s-16.167 77.5 -9.5 123.5zM346.999 288.999
c4.66699 17.333 2.83301 33 -5.5 47s-23.166 21 -44.499 21c-22 0 -40.333 -6.83301 -55 -20.5s-23.334 -29.5 -26.001 -47.5h131zM238.998 697.999h185l101 -171h-168l-35 60l-55 -60h-183z" />
    <glyph glyph-name="edieresis" unicode="&#xeb;" horiz-adv-x="546" 
d="M15 258c6 41.333 19.166 77.832 39.499 109.499s44.166 56.5 71.499 74.5s55.666 31.5 84.999 40.5s58.666 13.5 87.999 13.5c40.667 0 76.334 -6.16699 107.001 -18.5s54.334 -28.833 71.001 -49.5s28.834 -44.167 36.501 -70.5s10.5 -53.666 8.5 -81.999
s-8.33301 -56.166 -19 -83.499h-298c10 -40.667 52 -61 126 -61c56.667 0 106.334 8 149.001 24l-23 -147c-48 -16 -105.667 -24 -173 -24c-38 0 -73.833 5.33301 -107.5 16s-64.167 26.667 -91.5 48s-47.5 50.166 -60.5 86.499s-16.167 77.5 -9.5 123.5zM346.999 288.999
c4.66699 17.333 2.83301 33 -5.5 47s-23.166 21 -44.499 21c-22 0 -40.333 -6.83301 -55 -20.5s-23.334 -29.5 -26.001 -47.5h131zM530.998 608.999c-2.66699 -27.333 -13.667 -49.333 -33 -66s-42.333 -25 -69 -25c-28.667 0 -51.5 9.33301 -68.5 28s-24.167 43 -21.5 73
c2.66699 27.333 13.667 49.333 33 66s42.333 25 69 25c28.667 0 51.5 -9.33301 68.5 -28s24.167 -43 21.5 -73zM300.998 608.999c-2.66699 -27.333 -13.667 -49.333 -33 -66s-42.333 -25 -69 -25c-28.667 0 -51.5 9.33301 -68.5 28s-24.167 43 -21.5 73
c2.66699 27.333 13.667 49.333 33 66s42.333 25 69 25c28.667 0 51.5 -9.33301 68.5 -28s24.167 -43 21.5 -73z" />
    <glyph glyph-name="igrave" unicode="&#xec;" horiz-adv-x="293" 
d="M285 532h-189l-60 164h212zM206 0h-211l76 480h211z" />
    <glyph glyph-name="iacute" unicode="&#xed;" horiz-adv-x="293" 
d="M206 0h-211l76 480h211zM261 532h-194l124 164h217z" />
    <glyph glyph-name="icircumflex" unicode="&#xee;" horiz-adv-x="293" 
d="M206 0h-211l76 480h211zM159 527h-176l135 171h185l81 -171h-171l-17 60z" />
    <glyph glyph-name="idieresis" unicode="&#xef;" horiz-adv-x="293" 
d="M206 0h-211l76 480h211zM182 609c-2.66699 -26 -13.167 -46.832 -31.5 -62.499s-40.166 -23.5 -65.499 -23.5c-27.333 0 -49 8.66699 -65 26s-22.667 40.333 -20 69c2.66699 26 13.167 47 31.5 63s40.166 24 65.499 24c27.333 0 49 -8.83301 65 -26.5
s22.667 -40.834 20 -69.501zM392 609.001c-2.66699 -26 -13.167 -46.832 -31.5 -62.499s-40.166 -23.5 -65.499 -23.5c-27.333 0 -49 8.66699 -65 26s-22.667 40.333 -20 69c2.66699 26 13.167 47 31.5 63s40.166 24 65.499 24c27.333 0 49 -8.83301 65 -26.5
s22.667 -40.834 20 -69.501z" />
    <glyph glyph-name="eth" unicode="&#xf0;" horiz-adv-x="572" 
d="M545 276c-8.66699 -53.333 -22.835 -99.502 -42.502 -138.502s-43.167 -69.333 -70.5 -91s-56.5 -37.5 -87.5 -47.5s-64.5 -15 -100.5 -15c-72.667 0 -132.667 21.833 -180 65.5s-65.666 103.5 -54.999 179.5c8.66699 64 34.167 113 76.5 147s90.5 51 144.5 51
c61.333 0 107.333 -20.333 138 -61c2.66699 14.667 3 30.667 1 48c-3.33301 44.667 -22.666 79.667 -57.999 105l-80 -71l-60 69l50 40c-23.333 6.66699 -52.666 9.33398 -87.999 8.00098l15 162c79.333 0 149.666 -15 210.999 -45l79 68l60 -68l-59 -51
c94.667 -87.333 130 -205.666 106 -354.999zM202.999 210.998c-2.66699 -22 1.00098 -39 11.001 -51s24.667 -18 44 -18c20 0 36.5 6 49.5 18s20.833 29 23.5 51c4 46 -14.667 69 -56 69c-20 0 -36.333 -6 -49 -18s-20.334 -29 -23.001 -51z" />
    <glyph glyph-name="ntilde" unicode="&#xf1;" 
d="M248 435c48 40.667 100.667 61 158 61c58 0 100.167 -19.167 126.5 -57.5s35.5 -82.833 27.5 -133.5l-48 -305h-211l44 278c4.66699 27.333 -6.33301 41 -33 41c-18.667 0 -39 -8.66699 -61 -26l-46 -293h-211l76 480h185zM550 698
c6.66699 -52 -2.33203 -94.833 -26.999 -128.5s-58.334 -50.5 -101.001 -50.5c-24 0 -51.5 6.66699 -82.5 20s-51.167 20 -60.5 20c-8.66699 0 -15.334 -3.66699 -20.001 -11s-6.33398 -15 -5.00098 -23h-134c-6.66699 51.333 2.33301 94 27 128s58 51 100 51
c24.667 0 52.5 -6.66699 83.5 -20s50.833 -20 59.5 -20s15.334 3.66699 20.001 11s6.33398 15 5.00098 23h135z" />
    <glyph glyph-name="ograve" unicode="&#xf2;" 
d="M563 224c-12.667 -79.333 -47.333 -139.166 -104 -179.499s-124 -60.5 -202 -60.5c-38 0 -73 5.83301 -105 17.5s-59.5 28.5 -82.5 50.5s-39.667 50.667 -50 86s-11.833 74.666 -4.5 117.999c12.667 79.333 46.667 139.166 102 179.499s123 60.5 203 60.5
c49.333 0 93.833 -9.83301 133.5 -29.5s70.167 -50.667 91.5 -93s27.333 -92.166 18 -149.499zM217.001 235c-2.66699 -22 0.666016 -40 9.99902 -54s25 -21 47 -21c24 0 43.5 7.66699 58.5 23s24.167 36 27.5 62c2.66699 22 -0.666016 40 -9.99902 54s-25 21 -47 21
c-24 0 -43.5 -7.66699 -58.5 -23s-24.167 -36 -27.5 -62zM434.001 528h-183l-96 164h207z" />
    <glyph glyph-name="oacute" unicode="&#xf3;" 
d="M563 224c-12.667 -79.333 -47.333 -139.166 -104 -179.499s-124 -60.5 -202 -60.5c-38 0 -73 5.83301 -105 17.5s-59.5 28.5 -82.5 50.5s-39.667 50.667 -50 86s-11.833 74.666 -4.5 117.999c12.667 79.333 46.667 139.166 102 179.499s123 60.5 203 60.5
c49.333 0 93.833 -9.83301 133.5 -29.5s70.167 -50.667 91.5 -93s27.333 -92.166 18 -149.499zM217.001 235c-2.66699 -22 0.666016 -40 9.99902 -54s25 -21 47 -21c24 0 43.5 7.66699 58.5 23s24.167 36 27.5 62c2.66699 22 -0.666016 40 -9.99902 54s-25 21 -47 21
c-24 0 -43.5 -7.66699 -58.5 -23s-24.167 -36 -27.5 -62zM401.001 528h-194l124 164h217z" />
    <glyph glyph-name="ocircumflex" unicode="&#xf4;" 
d="M563 224c-12.667 -79.333 -47.333 -139.166 -104 -179.499s-124 -60.5 -202 -60.5c-38 0 -73 5.83301 -105 17.5s-59.5 28.5 -82.5 50.5s-39.667 50.667 -50 86s-11.833 74.666 -4.5 117.999c12.667 79.333 46.667 139.166 102 179.499s123 60.5 203 60.5
c49.333 0 93.833 -9.83301 133.5 -29.5s70.167 -50.667 91.5 -93s27.333 -92.166 18 -149.499zM217.001 235c-2.66699 -22 0.666016 -40 9.99902 -54s25 -21 47 -21c24 0 43.5 7.66699 58.5 23s24.167 36 27.5 62c2.66699 22 -0.666016 40 -9.99902 54s-25 21 -47 21
c-24 0 -43.5 -7.66699 -58.5 -23s-24.167 -36 -27.5 -62zM256.001 694h185l101 -171h-168l-35 60l-55 -60h-183z" />
    <glyph glyph-name="otilde" unicode="&#xf5;" 
d="M563 224c-12.667 -79.333 -47.333 -139.166 -104 -179.499s-124 -60.5 -202 -60.5c-38 0 -73 5.83301 -105 17.5s-59.5 28.5 -82.5 50.5s-39.667 50.667 -50 86s-11.833 74.666 -4.5 117.999c12.667 79.333 46.667 139.166 102 179.499s123 60.5 203 60.5
c49.333 0 93.833 -9.83301 133.5 -29.5s70.167 -50.667 91.5 -93s27.333 -92.166 18 -149.499zM217.001 235c-2.66699 -22 0.666016 -40 9.99902 -54s25 -21 47 -21c24 0 43.5 7.66699 58.5 23s24.167 36 27.5 62c2.66699 22 -0.666016 40 -9.99902 54s-25 21 -47 21
c-24 0 -43.5 -7.66699 -58.5 -23s-24.167 -36 -27.5 -62zM547.001 694c6.66699 -52 -2.33203 -94.833 -26.999 -128.5s-58.334 -50.5 -101.001 -50.5c-24 0 -51.5 6.66699 -82.5 20s-51.167 20 -60.5 20c-8.66699 0 -15.334 -3.66699 -20.001 -11s-6.33398 -15 -5.00098 -23
h-134c-6.66699 51.333 2.33301 94 27 128s58 51 100 51c24.667 0 52.5 -6.66699 83.5 -20s50.833 -20 59.5 -20s15.334 3.66699 20.001 11s6.33398 15 5.00098 23h135z" />
    <glyph glyph-name="odieresis" unicode="&#xf6;" 
d="M563 224c-12.667 -79.333 -47.333 -139.166 -104 -179.499s-124 -60.5 -202 -60.5c-38 0 -73 5.83301 -105 17.5s-59.5 28.5 -82.5 50.5s-39.667 50.667 -50 86s-11.833 74.666 -4.5 117.999c12.667 79.333 46.667 139.166 102 179.499s123 60.5 203 60.5
c49.333 0 93.833 -9.83301 133.5 -29.5s70.167 -50.667 91.5 -93s27.333 -92.166 18 -149.499zM217.001 235c-2.66699 -22 0.666016 -40 9.99902 -54s25 -21 47 -21c24 0 43.5 7.66699 58.5 23s24.167 36 27.5 62c2.66699 22 -0.666016 40 -9.99902 54s-25 21 -47 21
c-24 0 -43.5 -7.66699 -58.5 -23s-24.167 -36 -27.5 -62zM548.001 605c-2.66699 -27.333 -13.667 -49.333 -33 -66s-42.333 -25 -69 -25c-28.667 0 -51.5 9.33301 -68.5 28s-24.167 43 -21.5 73c2.66699 27.333 13.667 49.333 33 66s42.333 25 69 25
c28.667 0 51.5 -9.33301 68.5 -28s24.167 -43 21.5 -73zM318.001 605c-2.66699 -27.333 -13.667 -49.333 -33 -66s-42.333 -25 -69 -25c-28.667 0 -51.5 9.33301 -68.5 28s-24.167 43 -21.5 73c2.66699 27.333 13.667 49.333 33 66s42.333 25 69 25
c28.667 0 51.5 -9.33301 68.5 -28s24.167 -43 21.5 -73z" />
    <glyph glyph-name="divide" unicode="&#xf7;" horiz-adv-x="558" 
d="M527 269h-503l26 163h503zM366 102c-5.33301 -33.333 -19.334 -58.167 -42.001 -74.5s-49.667 -24.5 -81 -24.5c-36 0 -64.333 11 -85 33s-27.667 53.333 -21 94c5.33301 32.667 19.333 57.167 42 73.5s49.334 24.5 80.001 24.5c36 0 64.333 -11 85 -33s28 -53 22 -93z
M440.999 571.999c-5.33301 -33.333 -19.334 -58.167 -42.001 -74.5s-49.667 -24.5 -81 -24.5c-36 0 -64.333 11 -85 33s-27.667 53.333 -21 94c5.33301 32.667 19.333 57.167 42 73.5s49.334 24.5 80.001 24.5c36 0 64.333 -11 85 -33s28 -53 22 -93z" />
    <glyph glyph-name="oslash" unicode="&#xf8;" 
d="M556 543l-74.999 -93.999c70.667 -51.333 98 -126.333 82 -225c-12.667 -79.333 -47.334 -139.166 -104.001 -179.499s-124 -60.5 -202 -60.5c-47.333 0 -89 8.33301 -125 25l-58 -73h-52l75 94c-70.667 49.333 -98 124.666 -82 225.999
c12.667 79.333 46.667 139.166 102 179.499s123 60.5 203 60.5c46.667 0 88.667 -9 126 -27l59 74h51zM302.001 320.001c-23.333 0 -42.667 -7.66699 -58 -23s-24.666 -36 -27.999 -62c-2.66699 -20 -0.333984 -35.667 6.99902 -47l102 129c-14 2 -21.667 3 -23 3z
M274 160.001c24 0 43.334 7.66699 58.001 23s23.667 36 27 62c3.33301 16 1.66602 30.667 -5.00098 44l-100 -126c6 -2 12.667 -3 20 -3z" />
    <glyph glyph-name="ugrave" unicode="&#xf9;" 
d="M372 480h211.001l-76 -480h-186l8 45c-39.333 -40.667 -88.333 -61 -147 -61s-102.834 19 -132.501 57s-40.5 83.667 -32.5 137l48 302h211l-44 -275c-5.33301 -30 6 -45 34 -45c23.333 0 43.333 9 60 27zM438.001 532h-183l-96 164h207z" />
    <glyph glyph-name="uacute" unicode="&#xfa;" 
d="M372 480h211.001l-76 -480h-186l8 45c-39.333 -40.667 -88.333 -61 -147 -61s-102.834 19 -132.501 57s-40.5 83.667 -32.5 137l48 302h211l-44 -275c-5.33301 -30 6 -45 34 -45c23.333 0 43.333 9 60 27zM405.001 532h-194l124 164h217z" />
    <glyph glyph-name="ucircumflex" unicode="&#xfb;" 
d="M372 480h211.001l-76 -480h-186l8 45c-39.333 -40.667 -88.333 -61 -147 -61s-102.834 19 -132.501 57s-40.5 83.667 -32.5 137l48 302h211l-44 -275c-5.33301 -30 6 -45 34 -45c23.333 0 43.333 9 60 27zM260.001 698h185l101 -171h-168l-35 60l-55 -60h-183z" />
    <glyph glyph-name="udieresis" unicode="&#xfc;" 
d="M372 480h211.001l-76 -480h-186l8 45c-39.333 -40.667 -88.333 -61 -147 -61s-102.834 19 -132.501 57s-40.5 83.667 -32.5 137l48 302h211l-44 -275c-5.33301 -30 6 -45 34 -45c23.333 0 43.333 9 60 27zM552.001 609c-2.66699 -27.333 -13.667 -49.333 -33 -66
s-42.333 -25 -69 -25c-28.667 0 -51.5 9.33301 -68.5 28s-24.167 43 -21.5 73c2.66699 27.333 13.667 49.333 33 66s42.333 25 69 25c28.667 0 51.5 -9.33301 68.5 -28s24.167 -43 21.5 -73zM322.001 609c-2.66699 -27.333 -13.667 -49.333 -33 -66s-42.333 -25 -69 -25
c-28.667 0 -51.5 9.33301 -68.5 28s-24.167 43 -21.5 73c2.66699 27.333 13.667 49.333 33 66s42.333 25 69 25c28.667 0 51.5 -9.33301 68.5 -28s24.167 -43 21.5 -73z" />
    <glyph glyph-name="yacute" unicode="&#xfd;" horiz-adv-x="603" 
d="M298 220l103 260h229l-263 -514c-68.667 -134 -162 -201 -280 -201c-40.667 0 -79 6.66699 -115 20l27 168c19.333 -7.33301 40 -11 62 -11c45.333 0 81.333 23.333 108 70l-143 468h213zM405 532h-194l124 164h217z" />
    <glyph glyph-name="thorn" unicode="&#xfe;" horiz-adv-x="625" 
d="M170 -220l-211 -0.000976562l147 920h210l-40 -250c38.667 30.667 82 46 130 46c70 0 121.5 -26.667 154.5 -80s43.833 -116.666 32.5 -189.999c-10.667 -68.667 -37 -126.167 -79 -172.5s-98 -69.5 -168 -69.5c-56.667 0 -101.667 18.667 -135 56zM234 183.999
c9.33301 -20.667 26.999 -30.999 52.999 -30.999c24 0 44.333 8.66699 61 26s27.334 38.666 32.001 63.999c3.33301 22 0.5 41.5 -8.5 58.5s-24.833 25.5 -47.5 25.5c-28.667 0 -53 -12.667 -73 -38z" />
    <glyph glyph-name="ydieresis" unicode="&#xff;" horiz-adv-x="603" 
d="M298 220l103 260h229l-263 -514c-68.667 -134 -162 -201 -280 -201c-40.667 0 -79 6.66699 -115 20l27 168c19.333 -7.33301 40 -11 62 -11c45.333 0 81.333 23.333 108 70l-143 468h213zM552 609c-2.66699 -27.333 -13.667 -49.333 -33 -66s-42.333 -25 -69 -25
c-28.667 0 -51.5 9.33301 -68.5 28s-24.167 43 -21.5 73c2.66699 27.333 13.667 49.333 33 66s42.333 25 69 25c28.667 0 51.5 -9.33301 68.5 -28s24.167 -43 21.5 -73zM322 609c-2.66699 -27.333 -13.667 -49.333 -33 -66s-42.333 -25 -69 -25
c-28.667 0 -51.5 9.33301 -68.5 28s-24.167 43 -21.5 73c2.66699 27.333 13.667 49.333 33 66s42.333 25 69 25c28.667 0 51.5 -9.33301 68.5 -28s24.167 -43 21.5 -73z" />
    <glyph glyph-name="Amacron" unicode="&#x100;" horiz-adv-x="765" 
d="M722 0h-225l-16 93h-247l-45 -93h-238l372 700h249zM388 413l-75 -153h141l-25 152c-4.66699 31.333 -7 61.333 -7 90c-10 -33.333 -21.333 -63 -34 -89zM300 902h363l-23 -145h-363z" />
    <glyph glyph-name="amacron" unicode="&#x101;" horiz-adv-x="624" 
d="M360 52c-36 -45.333 -88.665 -67.999 -157.998 -67.999c-71.333 0 -123.333 26.5 -156 79.5s-43 116.5 -31 190.5c10.667 68.667 37.5 126.167 80.5 172.5s99.5 69.5 169.5 69.5c35.333 0 66.166 -8.33301 92.499 -25s46.166 -37.334 59.499 -62.001l11 71h185l-76 -480
h-185zM228.002 236.001c-3.33301 -23.333 -0.000976562 -43 9.99902 -59s25.333 -24 46 -24c28.667 0 53 12.333 73 37l17 104c-3.33301 10 -9.66602 18 -18.999 24s-20.333 9 -33 9c-25.333 0 -46.333 -8.66699 -63 -26s-27 -39 -31 -65zM182.001 692.001h363l-23 -145
h-363z" />
    <glyph glyph-name="Abreve" unicode="&#x102;" horiz-adv-x="765" 
d="M722 0h-225l-16 93h-247l-45 -93h-238l372 700h249zM388 413l-75 -153h141l-25 152c-4.66699 31.333 -7 61.333 -7 90c-10 -33.333 -21.333 -63 -34 -89zM645 790c-54.667 -34 -115 -51 -181 -51c-74 0 -134.333 17 -181 51l23 143c45.333 -30.667 101.333 -46 168 -46
c74 0 138.333 15.333 193 46z" />
    <glyph glyph-name="abreve" unicode="&#x103;" horiz-adv-x="624" 
d="M360 52c-36 -45.333 -88.665 -67.999 -157.998 -67.999c-71.333 0 -123.333 26.5 -156 79.5s-43 116.5 -31 190.5c10.667 68.667 37.5 126.167 80.5 172.5s99.5 69.5 169.5 69.5c35.333 0 66.166 -8.33301 92.499 -25s46.166 -37.334 59.499 -62.001l11 71h185l-76 -480
h-185zM228.002 236.001c-3.33301 -23.333 -0.000976562 -43 9.99902 -59s25.333 -24 46 -24c28.667 0 53 12.333 73 37l17 104c-3.33301 10 -9.66602 18 -18.999 24s-20.333 9 -33 9c-25.333 0 -46.333 -8.66699 -63 -26s-27 -39 -31 -65zM527.001 580.001
c-54.667 -34 -115 -51 -181 -51c-74 0 -134.333 17 -181 51l23 143c45.333 -30.667 101.333 -46 168 -46c74 0 138.333 15.333 193 46z" />
    <glyph glyph-name="Aogonek" unicode="&#x104;" horiz-adv-x="765" 
d="M722 0c-17.333 -12.667 -32.167 -26.8311 -44.5 -42.498s-18.5 -28.834 -18.5 -39.501c0 -12 7.33301 -18 22 -18c8.66699 0 17 1.66699 25 5l-20 -127c-24 -9.33301 -51.667 -14 -83 -14c-38.667 0 -69.5 9.16699 -92.5 27.5s-33.167 43.5 -30.5 75.5
c3.33301 49.333 35.333 93.666 96 132.999h-79l-16 93h-247l-45 -93h-238l372 700h249zM387.999 413.003l-75 -153h141l-25 152c-4.66699 31.333 -7 61.333 -7 90c-10 -33.333 -21.333 -63 -34 -89z" />
    <glyph glyph-name="aogonek" unicode="&#x105;" horiz-adv-x="624" 
d="M613 480l-75.999 -479.996c-17.333 -12.667 -32.166 -26.834 -44.499 -42.501s-18.5 -28.834 -18.5 -39.501c0 -12 7.33301 -18 22 -18c8.66699 0 17 1.66699 25 5l-20 -127c-24 -9.33301 -51.667 -14 -83 -14c-38.667 0 -69.5 9.16699 -92.5 27.5
s-33.167 43.5 -30.5 75.5c3.33301 49.333 35.333 93.666 96 132.999h-39l8 52c-36 -45.333 -88.667 -68 -158 -68c-71.333 0 -123.333 26.5 -156 79.5s-43 116.5 -31 190.5c10.667 68.667 37.5 126.167 80.5 172.5s99.5 69.5 169.5 69.5
c35.333 0 66.166 -8.33301 92.499 -25s46.166 -37.334 59.499 -62.001l11 71h185zM284.001 153.004c28.667 0 52.999 12.333 72.999 37l17 104c-3.33301 10 -9.66602 18 -18.999 24s-20.333 9 -33 9c-25.333 0 -46.333 -8.66699 -63 -26s-27 -39 -31 -65
c-3.33301 -23.333 0 -43 10 -59s25.333 -24 46 -24z" />
    <glyph glyph-name="Cacute" unicode="&#x106;" horiz-adv-x="645" 
d="M34 361c8 48.667 22.667 93.3291 44 133.996s46.5 74.334 75.5 101.001s61.333 49.334 97 68.001s71.334 32 107.001 40s71.5 12 107.5 12c78 0 146 -16 204 -48l-31 -195c-35.333 28.667 -83.666 43 -144.999 43c-54.667 0 -103.334 -13.667 -146.001 -41
s-69 -70 -79 -128c-8 -50.667 3.33301 -90 34 -118s69.667 -42 117 -42c69.333 0 131.666 16.667 186.999 50l-34 -214c-56.667 -26 -122.667 -39 -198 -39c-50 0 -96.833 7.5 -140.5 22.5s-82.5 37.333 -116.5 67s-58.833 69.334 -74.5 119.001s-18.5 105.834 -8.5 168.501
zM538 751.995h-194l124 164h217z" />
    <glyph glyph-name="cacute" unicode="&#x107;" horiz-adv-x="490" 
d="M13 243c11.333 84 47.832 147.333 109.499 190s130.5 64 206.5 64c57.333 0 108.666 -11.333 153.999 -34l-26 -163c-29.333 15.333 -62 23 -98 23c-32.667 0 -61.5 -7 -86.5 -21s-39.833 -35.667 -44.5 -65c-4 -26 2.83301 -45.5 20.5 -58.5s41.834 -19.5 72.501 -19.5
c44.667 0 85.334 8.66699 122.001 26l-27 -176c-49.333 -16.667 -99.666 -25 -150.999 -25c-82 0 -147.333 22.5 -196 67.5s-67.334 108.833 -56.001 191.5zM375.999 532h-194l124 164h217z" />
    <glyph glyph-name="Cdotaccent" unicode="&#x10a;" horiz-adv-x="645" 
d="M34 361c8 48.667 22.667 93.3291 44 133.996s46.5 74.334 75.5 101.001s61.333 49.334 97 68.001s71.334 32 107.001 40s71.5 12 107.5 12c78 0 146 -16 204 -48l-31 -195c-35.333 28.667 -83.666 43 -144.999 43c-54.667 0 -103.334 -13.667 -146.001 -41
s-69 -70 -79 -128c-8 -50.667 3.33301 -90 34 -118s69.667 -42 117 -42c69.333 0 131.666 16.667 186.999 50l-34 -214c-56.667 -26 -122.667 -39 -198 -39c-50 0 -96.833 7.5 -140.5 22.5s-82.5 37.333 -116.5 67s-58.833 69.334 -74.5 119.001s-18.5 105.834 -8.5 168.501
zM578 836.995c-9.33301 -58.667 -45.668 -88 -109.001 -88c-32.667 0 -58.5 9.83301 -77.5 29.5s-25.5 48.167 -19.5 85.5c4.66699 30 17 52.167 37 66.5s44.333 21.5 73 21.5c32.667 0 58.334 -10 77.001 -30s25 -48.333 19 -85z" />
    <glyph glyph-name="cdotaccent" unicode="&#x10b;" horiz-adv-x="490" 
d="M13 243c11.333 84 47.832 147.333 109.499 190s130.5 64 206.5 64c57.333 0 108.666 -11.333 153.999 -34l-26 -163c-29.333 15.333 -62 23 -98 23c-32.667 0 -61.5 -7 -86.5 -21s-39.833 -35.667 -44.5 -65c-4 -26 2.83301 -45.5 20.5 -58.5s41.834 -19.5 72.501 -19.5
c44.667 0 85.334 8.66699 122.001 26l-27 -176c-49.333 -16.667 -99.666 -25 -150.999 -25c-82 0 -147.333 22.5 -196 67.5s-67.334 108.833 -56.001 191.5zM415.999 617c-9.33301 -58.667 -45.668 -88 -109.001 -88c-32.667 0 -58.5 9.83301 -77.5 29.5
s-25.5 48.167 -19.5 85.5c4.66699 30 17 52.167 37 66.5s44.333 21.5 73 21.5c32.667 0 58.334 -10 77.001 -30s25 -48.333 19 -85z" />
    <glyph glyph-name="Ccaron" unicode="&#x10c;" horiz-adv-x="645" 
d="M34 361c8 48.667 22.667 93.3291 44 133.996s46.5 74.334 75.5 101.001s61.333 49.334 97 68.001s71.334 32 107.001 40s71.5 12 107.5 12c78 0 146 -16 204 -48l-31 -195c-35.333 28.667 -83.666 43 -144.999 43c-54.667 0 -103.334 -13.667 -146.001 -41
s-69 -70 -79 -128c-8 -50.667 3.33301 -90 34 -118s69.667 -42 117 -42c69.333 0 131.666 16.667 186.999 50l-34 -214c-56.667 -26 -122.667 -39 -198 -39c-50 0 -96.833 7.5 -140.5 22.5s-82.5 37.333 -116.5 67s-58.833 69.334 -74.5 119.001s-18.5 105.834 -8.5 168.501
zM716 922.995l-159 -171h-185l-105 171h174l38 -65l61 65h176z" />
    <glyph glyph-name="ccaron" unicode="&#x10d;" horiz-adv-x="490" 
d="M13 243c11.333 84 47.832 147.333 109.499 190s130.5 64 206.5 64c57.333 0 108.666 -11.333 153.999 -34l-26 -163c-29.333 15.333 -62 23 -98 23c-32.667 0 -61.5 -7 -86.5 -21s-39.833 -35.667 -44.5 -65c-4 -26 2.83301 -45.5 20.5 -58.5s41.834 -19.5 72.501 -19.5
c44.667 0 85.334 8.66699 122.001 26l-27 -176c-49.333 -16.667 -99.666 -25 -150.999 -25c-82 0 -147.333 22.5 -196 67.5s-67.334 108.833 -56.001 191.5zM553.999 703l-159 -171h-185l-105 171h174l38 -65l61 65h176z" />
    <glyph glyph-name="Dcaron" unicode="&#x10e;" horiz-adv-x="743" 
d="M117 700h296c118 0 203.833 -33.333 257.5 -100s71.834 -154.667 54.501 -264c-16.667 -104 -58.834 -186 -126.501 -246s-161.5 -90 -281.5 -90h-311zM492 358c16.667 98.667 -18 148 -104 148h-71l-49 -312h60c93.333 0 148 54.667 164 164zM650 923l-159 -171h-185
l-105 171h174l38 -65l61 65h176z" />
    <glyph glyph-name="dcaron" unicode="&#x10f;" horiz-adv-x="623" 
d="M698 700h172l-73 -215h-149zM438 700l209.997 0.000976562l-111 -700h-185l9 57c-38 -48.667 -90.667 -73 -158 -73c-69.333 0 -120.666 26.667 -153.999 80s-44.333 116.666 -33 189.999c10 67.333 36.833 124.5 80.5 171.5s99.834 70.5 168.501 70.5
c58.667 0 102.334 -19.333 131.001 -58zM373.997 295.001c-8 21.333 -25.333 32.001 -52 32.001c-25.333 0 -46.333 -8.5 -63 -25.5s-27 -38.833 -31 -65.5c-3.33301 -24 0 -43.833 10 -59.5s25.333 -23.5 46 -23.5c28 -0.666992 52.333 11.666 73 36.999z" />
    <glyph glyph-name="Dcroat" unicode="&#x110;" horiz-adv-x="757" 
d="M131 700h296.001c117.333 0 203 -33.333 257 -100s72.333 -154.667 55 -264c-16.667 -104 -58.834 -186 -126.501 -246s-161.5 -90 -281.5 -90h-311l44 281h-58l22 136h58zM341.001 194c93.333 0 148 54.667 164 164c16.667 98.667 -18 148 -104 148h-71l-14 -89h102
l-22 -136h-101l-14 -87h60z" />
    <glyph glyph-name="dcroat" unicode="&#x111;" horiz-adv-x="623" 
d="M638 638l58.9971 0.000976562l-16 -103h-59l-85 -535h-185l9 57c-38 -48.667 -90.667 -73 -158 -73c-69.333 0 -120.666 26.667 -153.999 80s-44.333 116.666 -33 189.999c10 67.333 36.833 124.5 80.5 171.5s99.834 70.5 168.501 70.5
c58.667 0 102.334 -19.333 131.001 -58l16 97h-122l16 103h122l10 62h210zM283.997 153.001c28.667 0 53 12.333 73 37l17 105c-8 21.333 -25.333 32 -52 32c-25.333 0 -46.333 -8.5 -63 -25.5s-27 -38.833 -31 -65.5c-3.33301 -24 0 -43.833 10 -59.5
s25.333 -23.5 46 -23.5z" />
    <glyph glyph-name="Emacron" unicode="&#x112;" horiz-adv-x="621" 
d="M117 700h530l-29 -182h-300l-12 -81h264l-27 -170h-264l-13 -83h305l-29 -184h-536zM237 902h363l-23 -145h-363z" />
    <glyph glyph-name="emacron" unicode="&#x113;" horiz-adv-x="546" 
d="M15 258c6 41.333 19.166 77.832 39.499 109.499s44.166 56.5 71.499 74.5s55.666 31.5 84.999 40.5s58.666 13.5 87.999 13.5c40.667 0 76.334 -6.16699 107.001 -18.5s54.334 -28.833 71.001 -49.5s28.834 -44.167 36.501 -70.5s10.5 -53.666 8.5 -81.999
s-8.33301 -56.166 -19 -83.499h-298c10 -40.667 52 -61 126 -61c56.667 0 106.334 8 149.001 24l-23 -147c-48 -16 -105.667 -24 -173 -24c-38 0 -73.833 5.33301 -107.5 16s-64.167 26.667 -91.5 48s-47.5 50.166 -60.5 86.499s-16.167 77.5 -9.5 123.5zM346.999 288.999
c4.66699 17.333 2.83301 33 -5.5 47s-23.166 21 -44.499 21c-22 0 -40.333 -6.83301 -55 -20.5s-23.334 -29.5 -26.001 -47.5h131zM150.998 681.999h363l-23 -145h-363z" />
    <glyph glyph-name="Edotaccent" unicode="&#x116;" horiz-adv-x="621" 
d="M117 700h530l-29 -182h-300l-12 -81h264l-27 -170h-264l-13 -83h305l-29 -184h-536zM510 837c-9.33301 -58.667 -45.668 -88 -109.001 -88c-32.667 0 -58.5 9.83301 -77.5 29.5s-25.5 48.167 -19.5 85.5c4.66699 30 17 52.167 37 66.5s44.333 21.5 73 21.5
c32.667 0 58.334 -10 77.001 -30s25 -48.333 19 -85z" />
    <glyph glyph-name="edotaccent" unicode="&#x117;" horiz-adv-x="546" 
d="M15 258c6 41.333 19.166 77.832 39.499 109.499s44.166 56.5 71.499 74.5s55.666 31.5 84.999 40.5s58.666 13.5 87.999 13.5c40.667 0 76.334 -6.16699 107.001 -18.5s54.334 -28.833 71.001 -49.5s28.834 -44.167 36.501 -70.5s10.5 -53.666 8.5 -81.999
s-8.33301 -56.166 -19 -83.499h-298c10 -40.667 52 -61 126 -61c56.667 0 106.334 8 149.001 24l-23 -147c-48 -16 -105.667 -24 -173 -24c-38 0 -73.833 5.33301 -107.5 16s-64.167 26.667 -91.5 48s-47.5 50.166 -60.5 86.499s-16.167 77.5 -9.5 123.5zM346.999 288.999
c4.66699 17.333 2.83301 33 -5.5 47s-23.166 21 -44.499 21c-22 0 -40.333 -6.83301 -55 -20.5s-23.334 -29.5 -26.001 -47.5h131zM423.998 616.999c-9.33301 -58.667 -45.668 -88 -109.001 -88c-32.667 0 -58.5 9.83301 -77.5 29.5s-25.5 48.167 -19.5 85.5
c4.66699 30 17 52.167 37 66.5s44.333 21.5 73 21.5c32.667 0 58.334 -10 77.001 -30s25 -48.333 19 -85z" />
    <glyph glyph-name="Eogonek" unicode="&#x118;" horiz-adv-x="621" 
d="M647 700l-29.001 -181.997h-300l-12 -81h264l-27 -170h-264l-13 -83h305l-29 -184c-17.333 -12.667 -32.166 -26.834 -44.499 -42.501s-18.5 -28.834 -18.5 -39.501c0 -12 7.33301 -18 22 -18c8.66699 0 17 1.66699 25 5l-20 -127c-24 -9.33301 -51.667 -14 -83 -14
c-38.667 0 -69.5 9.16699 -92.5 27.5s-33.167 43.5 -30.5 75.5c3.33301 49.333 35.333 93.666 96 132.999h-390l111 700h530z" />
    <glyph glyph-name="eogonek" unicode="&#x119;" horiz-adv-x="546" 
d="M400 -223c-24 -9.33301 -51.667 -14.0029 -83 -14.0029c-38.667 0 -69.5 9.16699 -92.5 27.5s-33.167 43.5 -30.5 75.5c3.33301 42.667 31 83.334 83 122.001c-20.667 0 -39 1.33301 -55 4c-69.333 10 -124 37.667 -164 83s-54.333 106.333 -43 183
c6 41.333 19 78 39 110s43.833 56.833 71.5 74.5s56.167 31 85.5 40s58.666 13.5 87.999 13.5c40.667 0 76.167 -6.16699 106.5 -18.5s53.833 -28.833 70.5 -49.5s29 -44.167 37 -70.5s10.833 -53.666 8.5 -81.999s-8.5 -56.166 -18.5 -83.499h-298
c9.33301 -40.667 51 -61 125 -61c56.667 0 106.334 8 149.001 24l-23 -147c-26 -16 -46.333 -32.333 -61 -49s-22 -30.667 -22 -42c0 -12 7.33301 -18 22 -18c10 0 18.333 2 25 6zM296 356.997c-22 0 -40.334 -6.83301 -55.001 -20.5s-23.334 -29.5 -26.001 -47.5h131
c4.66699 17.333 2.83398 33 -5.49902 47s-23.166 21 -44.499 21z" />
    <glyph glyph-name="Ecaron" unicode="&#x11a;" horiz-adv-x="621" 
d="M117 700h530l-29 -182h-300l-12 -81h264l-27 -170h-264l-13 -83h305l-29 -184h-536zM648 923l-159 -171h-185l-105 171h174l38 -65l61 65h176z" />
    <glyph glyph-name="ecaron" unicode="&#x11b;" horiz-adv-x="546" 
d="M15 258c6 41.333 19.166 77.832 39.499 109.499s44.166 56.5 71.499 74.5s55.666 31.5 84.999 40.5s58.666 13.5 87.999 13.5c40.667 0 76.334 -6.16699 107.001 -18.5s54.334 -28.833 71.001 -49.5s28.834 -44.167 36.501 -70.5s10.5 -53.666 8.5 -81.999
s-8.33301 -56.166 -19 -83.499h-298c10 -40.667 52 -61 126 -61c56.667 0 106.334 8 149.001 24l-23 -147c-48 -16 -105.667 -24 -173 -24c-38 0 -73.833 5.33301 -107.5 16s-64.167 26.667 -91.5 48s-47.5 50.166 -60.5 86.499s-16.167 77.5 -9.5 123.5zM346.999 288.999
c4.66699 17.333 2.83301 33 -5.5 47s-23.166 21 -44.499 21c-22 0 -40.333 -6.83301 -55 -20.5s-23.334 -29.5 -26.001 -47.5h131zM561.998 702.999l-159 -171h-185l-105 171h174l38 -65l61 65h176z" />
    <glyph glyph-name="Gbreve" unicode="&#x11e;" horiz-adv-x="692" 
d="M35 364c10 61.333 29.8311 115.332 59.498 161.999s65.167 83.334 106.5 110.001s84.5 46.667 129.5 60s90.833 20 137.5 20c87.333 0 162 -15 224 -45l-31 -197c-39.333 27.333 -93.666 41 -162.999 41c-56.667 0 -106.667 -14.167 -150 -42.5
s-69.666 -71.833 -78.999 -130.5c-8.66699 -55.333 -0.666992 -94.5 24 -117.5s55.334 -34.5 92.001 -34.5c13.333 0 25.666 1.66699 36.999 5l32 196h216l-58 -363c-66.667 -29.333 -143 -44 -229 -44c-52 0 -100.667 8 -146 24s-85 39 -119 69s-58.667 69.833 -74 119.5
s-18.333 105.5 -9 167.5zM650.998 789.999c-54.667 -34 -115 -51 -181 -51c-74 0 -134.333 17 -181 51l23 143c45.333 -30.667 101.333 -46 168 -46c74 0 138.333 15.333 193 46z" />
    <glyph glyph-name="gbreve" unicode="&#x11f;" horiz-adv-x="624" 
d="M542 24c-14.667 -90 -51.332 -155.834 -109.999 -197.501s-127.667 -62.5 -207 -62.5c-88.667 0 -165 14.667 -229 44l27 169c52 -28 107 -42 165 -42c38.667 0 70.834 7.33301 96.501 22s41.167 37.334 46.5 68.001l3 20c-29.333 -33.333 -72.333 -50 -129 -50
c-72 0 -124.333 25.667 -157 77s-43.334 113.666 -32.001 186.999c10.667 66.667 38.167 122.834 82.5 168.501s100.166 68.5 167.499 68.5c68 0 118.333 -26.667 151 -80l11 64h185zM229.002 238.999c-3.33301 -24 0 -43.832 10 -59.499s25.333 -23.834 46 -24.501
c28 0 52.333 12.667 73 38l17 105c-8 21.333 -25.333 32 -52 32c-25.333 0 -46.333 -8.66699 -63 -26s-27 -39 -31 -65zM510.002 570c-54.667 -34 -115 -51 -181 -51c-74 0 -134.333 17 -181 51l23 143c45.333 -30.667 101.333 -46 168 -46c74 0 138.333 15.333 193 46z" />
    <glyph glyph-name="Gdotaccent" unicode="&#x120;" horiz-adv-x="692" 
d="M35 364c10 61.333 29.8311 115.332 59.498 161.999s65.167 83.334 106.5 110.001s84.5 46.667 129.5 60s90.833 20 137.5 20c87.333 0 162 -15 224 -45l-31 -197c-39.333 27.333 -93.666 41 -162.999 41c-56.667 0 -106.667 -14.167 -150 -42.5
s-69.666 -71.833 -78.999 -130.5c-8.66699 -55.333 -0.666992 -94.5 24 -117.5s55.334 -34.5 92.001 -34.5c13.333 0 25.666 1.66699 36.999 5l32 196h216l-58 -363c-66.667 -29.333 -143 -44 -229 -44c-52 0 -100.667 8 -146 24s-85 39 -119 69s-58.667 69.833 -74 119.5
s-18.333 105.5 -9 167.5zM578.998 836.999c-9.33301 -58.667 -45.668 -88 -109.001 -88c-32.667 0 -58.5 9.83301 -77.5 29.5s-25.5 48.167 -19.5 85.5c4.66699 30 17 52.167 37 66.5s44.333 21.5 73 21.5c32.667 0 58.334 -10 77.001 -30s25 -48.333 19 -85z" />
    <glyph glyph-name="gdotaccent" unicode="&#x121;" horiz-adv-x="624" 
d="M542 24c-14.667 -90 -51.332 -155.834 -109.999 -197.501s-127.667 -62.5 -207 -62.5c-88.667 0 -165 14.667 -229 44l27 169c52 -28 107 -42 165 -42c38.667 0 70.834 7.33301 96.501 22s41.167 37.334 46.5 68.001l3 20c-29.333 -33.333 -72.333 -50 -129 -50
c-72 0 -124.333 25.667 -157 77s-43.334 113.666 -32.001 186.999c10.667 66.667 38.167 122.834 82.5 168.501s100.166 68.5 167.499 68.5c68 0 118.333 -26.667 151 -80l11 64h185zM229.002 238.999c-3.33301 -24 0 -43.832 10 -59.499s25.333 -23.834 46 -24.501
c28 0 52.333 12.667 73 38l17 105c-8 21.333 -25.333 32 -52 32c-25.333 0 -46.333 -8.66699 -63 -26s-27 -39 -31 -65zM438.002 617c-9.33301 -58.667 -45.668 -88 -109.001 -88c-32.667 0 -58.5 9.83301 -77.5 29.5s-25.5 48.167 -19.5 85.5c4.66699 30 17 52.167 37 66.5
s44.333 21.5 73 21.5c32.667 0 58.334 -10 77.001 -30s25 -48.333 19 -85z" />
    <glyph glyph-name="Gcommaaccent" unicode="&#x122;" horiz-adv-x="692" 
d="M35 364c10 61.333 29.8311 115.332 59.498 161.999s65.167 83.334 106.5 110.001s84.5 46.667 129.5 60s90.833 20 137.5 20c87.333 0 162 -15 224 -45l-31 -197c-39.333 27.333 -93.666 41 -162.999 41c-56.667 0 -106.667 -14.167 -150 -42.5
s-69.666 -71.833 -78.999 -130.5c-8.66699 -55.333 -0.666992 -94.5 24 -117.5s55.334 -34.5 92.001 -34.5c13.333 0 25.666 1.66699 36.999 5l32 196h216l-58 -363c-66.667 -29.333 -143 -44 -229 -44c-52 0 -100.667 8 -146 24s-85 39 -119 69s-58.667 69.833 -74 119.5
s-18.333 105.5 -9 167.5zM396.998 -287.001h-159l64 223h188z" />
    <glyph glyph-name="gcommaaccent" unicode="&#x123;" horiz-adv-x="624" 
d="M408 532h-175l87 216h152zM542 24c-14.667 -90 -51.332 -155.834 -109.999 -197.501s-127.667 -62.5 -207 -62.5c-88.667 0 -165 14.667 -229 44l27 169c52 -28 107 -42 165 -42c38.667 0 70.834 7.33301 96.501 22s41.167 37.334 46.5 68.001l3 20
c-29.333 -33.333 -72.333 -50 -129 -50c-72 0 -124.333 25.667 -157 77s-43.334 113.666 -32.001 186.999c10.667 66.667 38.167 122.834 82.5 168.501s100.166 68.5 167.499 68.5c68 0 118.333 -26.667 151 -80l11 64h185zM229.002 238.999
c-3.33301 -24 0 -43.832 10 -59.499s25.333 -23.834 46 -24.501c28 0 52.333 12.667 73 38l17 105c-8 21.333 -25.333 32 -52 32c-25.333 0 -46.333 -8.66699 -63 -26s-27 -39 -31 -65z" />
    <glyph glyph-name="Hbar" unicode="&#x126;" horiz-adv-x="789" 
d="M253 0h-231l82 517h-65l16 105h66l12 78h230l-12 -78h191l12 78h230l-12 -78h66l-17 -105h-65l-83 -517h-230l40 253h-190zM334 517l-11 -71h191l11 71h-191z" />
    <glyph glyph-name="hbar" unicode="&#x127;" 
d="M277 456c43.333 26.667 84.999 39.999 124.999 39.999c60 0 103.333 -19.167 130 -57.5s36 -83.166 28 -134.499l-48 -304h-211l44 278c4.66699 27.333 -6.33301 41 -33 41c-21.333 0 -41.666 -9 -60.999 -27l-46 -292h-211l85 535h-61l16 103h61l10 62h211l-10 -62h118
l-16 -103h-118z" />
    <glyph glyph-name="Imacron" unicode="&#x12a;" horiz-adv-x="336" 
d="M117 700h231l-111 -700h-231zM84 902h363l-23 -145h-363z" />
    <glyph glyph-name="imacron" unicode="&#x12b;" horiz-adv-x="293" 
d="M338 551h-294l21 132h294zM206 0h-211l76 480h211z" />
    <glyph glyph-name="Iogonek" unicode="&#x12e;" horiz-adv-x="336" 
d="M348 700l-111.001 -699.997c-17.333 -12.667 -32.166 -26.834 -44.499 -42.501s-18.5 -28.834 -18.5 -39.501c0 -12 7.33301 -18 22 -18c8.66699 0 17 1.66699 25 5l-20 -127c-24 -9.33301 -51.667 -14 -83 -14c-38.667 0 -69.5 9.16699 -92.5 27.5
s-33.167 43.5 -30.5 75.5c3.33301 49.333 35.333 93.666 96 132.999h-85l111 700h231z" />
    <glyph glyph-name="iogonek" unicode="&#x12f;" horiz-adv-x="293" 
d="M89 647c5.33301 31.333 18.835 54.833 40.502 70.5s47.167 23.5 76.5 23.5c33.333 0 59.666 -10.5 78.999 -31.5s26 -50.167 20 -87.5c-4.66699 -31.333 -17.834 -54.833 -39.501 -70.5s-47.167 -23.5 -76.5 -23.5c-33.333 0 -59.833 10.5 -79.5 31.5
s-26.5 50.167 -20.5 87.5zM59.002 0h-63.998l76 480h211l-76 -480c-38 -32.667 -57 -60 -57 -82c0 -12 7.33301 -18 22 -18c8.66699 0 17 1.66699 25 5l-20 -127c-24 -9.33301 -51.667 -14 -83 -14c-38.667 0 -69.5 9.16699 -92.5 27.5s-33.167 43.5 -30.5 75.5
c1.33301 22 9.66602 44.833 24.999 68.5s36.666 45.167 63.999 64.5z" />
    <glyph glyph-name="Idotaccent" unicode="&#x130;" horiz-adv-x="336" 
d="M117 700h231l-111 -700h-231zM357 837c-9.33301 -58.667 -45.668 -88 -109.001 -88c-32.667 0 -58.5 9.83301 -77.5 29.5s-25.5 48.167 -19.5 85.5c4.66699 30 17 52.167 37 66.5s44.333 21.5 73 21.5c32.667 0 58.334 -10 77.001 -30s25 -48.333 19 -85z" />
    <glyph glyph-name="dotlessi" unicode="&#x131;" horiz-adv-x="293" 
d="M206 0h-211l76 480h211z" />
    <glyph glyph-name="IJ" unicode="&#x132;" horiz-adv-x="853" 
d="M117 700h231l-111 -700h-231zM479 700h392.001l-73 -463c-26.667 -166 -128.334 -249 -305.001 -249c-78 0 -139.667 11 -185 33l31 196c34 -13.333 71 -20 111 -20c74 0 115 27 123 81l35 220h-160z" />
    <glyph glyph-name="ij" unicode="&#x133;" horiz-adv-x="587" 
d="M206 0h-211l76 480h211zM309 622c-4.66699 -31.333 -17.832 -54.833 -39.499 -70.5s-47.167 -23.5 -76.5 -23.5c-33.333 0 -59.833 10.5 -79.5 31.5s-26.5 50.167 -20.5 87.5c5.33301 31.333 18.833 54.833 40.5 70.5s47.167 23.5 76.5 23.5
c33.333 0 59.666 -10.5 78.999 -31.5s26 -50.167 20 -87.5zM489.002 -64c-9.33301 -60.667 -33.333 -104.5 -72 -131.5s-86 -40.5 -142 -40.5c-46 0 -84.667 6.66699 -116 20l26 166c12 -4 25.667 -6 41 -6c19.333 0 33.833 4.5 43.5 13.5s16.167 23.833 19.5 44.5l76 478
h210zM603.002 622c-4.66699 -31.333 -17.832 -54.833 -39.499 -70.5s-47.167 -23.5 -76.5 -23.5c-33.333 0 -59.833 10.5 -79.5 31.5s-26.5 50.167 -20.5 87.5c5.33301 31.333 18.833 54.833 40.5 70.5s47.167 23.5 76.5 23.5c33.333 0 59.666 -10.5 78.999 -31.5
s26 -50.167 20 -87.5z" />
    <glyph glyph-name="Kcommaaccent" unicode="&#x136;" horiz-adv-x="728" 
d="M546 700h258l-271 -354l158 -346h-243l-110 250h-62l-39 -250h-231l111 700h231l-40 -248h61zM348 -277h-159l64 223h188z" />
    <glyph glyph-name="kcommaaccent" unicode="&#x137;" horiz-adv-x="595" 
d="M397 480h234l-192 -250l111 -230h-217l-68 162h-35l-25 -162h-211l111 700h211l-60 -374h31zM270 -277h-159l64 223h188z" />
    <glyph glyph-name="Lacute" unicode="&#x139;" horiz-adv-x="593" 
d="M117 700h231l-79 -498h300l-33 -202h-530zM334 752h-194l124 164h217z" />
    <glyph glyph-name="lacute" unicode="&#x13a;" horiz-adv-x="294" 
d="M111 730h211l-116 -730h-211zM317 780h-194l124 164h217z" />
    <glyph glyph-name="Lcommaaccent" unicode="&#x13b;" horiz-adv-x="593" 
d="M117 700h231l-79 -498h300l-33 -202h-530zM280 -277h-159l64 223h188z" />
    <glyph glyph-name="lcommaaccent" unicode="&#x13c;" horiz-adv-x="294" 
d="M111 730h211l-116 -730h-211zM96 -277h-159l64 223h188z" />
    <glyph glyph-name="Lcaron" unicode="&#x13d;" horiz-adv-x="597" 
d="M453 700h172l-79 -232h-145zM117 700h231l-79 -498h300l-33 -202h-530z" />
    <glyph glyph-name="lcaron" unicode="&#x13e;" horiz-adv-x="294" 
d="M374 730h172l-76 -232h-149zM111 730h211l-116 -730h-211z" />
    <glyph glyph-name="Ldot" unicode="&#x13f;" horiz-adv-x="605" 
d="M567 403c-4.66699 -30 -17.166 -52.167 -37.499 -66.5s-44.5 -21.5 -72.5 -21.5c-31.333 0 -56.5 10 -75.5 30s-25.5 48.333 -19.5 85c4 29.333 16.167 51.333 36.5 66s44.166 22 71.499 22c32.667 0 58.5 -10.167 77.5 -30.5s25.5 -48.5 19.5 -84.5zM117.001 700h231
l-79 -498h300l-33 -202h-530z" />
    <glyph glyph-name="ldot" unicode="&#x140;" horiz-adv-x="514" 
d="M111 730h211l-116 -730h-211zM526 337c-5.33301 -33.333 -19.167 -58.332 -41.5 -74.999s-49.5 -25 -81.5 -25c-35.333 0 -63.333 11.167 -84 33.5s-28 53.5 -22 93.5c5.33301 33.333 19.333 58.166 42 74.499s49.667 24.5 81 24.5c36 0 64.333 -11 85 -33
s27.667 -53 21 -93z" />
    <glyph glyph-name="Lslash" unicode="&#x141;" horiz-adv-x="644" 
d="M588 0h-530l34 219l-83 -28l28 186l85 28l47 295h230l-34 -214l137 47l-28 -186l-138 -47l-16 -98h300z" />
    <glyph glyph-name="lslash" unicode="&#x142;" horiz-adv-x="399" 
d="M165 730h210l-44 -277l75 27l-24 -157l-76 -26l-47 -297h-210l34 214l-75 -27l25 158l74 26z" />
    <glyph glyph-name="Nacute" unicode="&#x143;" horiz-adv-x="762" 
d="M237 0h-231.001l111 700h174l207 -337c0.666992 40.667 4.33398 80 11.001 118l34 219h231l-111 -700h-174l-206 336c0 -29.333 -3.33301 -67.333 -10 -114zM510.999 752h-194l124 164h217z" />
    <glyph glyph-name="nacute" unicode="&#x144;" 
d="M248 435c48 40.667 100.667 61 158 61c58 0 100.167 -19.167 126.5 -57.5s35.5 -82.833 27.5 -133.5l-48 -305h-211l44 278c4.66699 27.333 -6.33301 41 -33 41c-18.667 0 -39 -8.66699 -61 -26l-46 -293h-211l76 480h185zM404 532h-194l124 164h217z" />
    <glyph glyph-name="Ncommaaccent" unicode="&#x145;" horiz-adv-x="762" 
d="M237 0h-231.001l111 700h174l207 -337c0.666992 40.667 4.33398 80 11.001 118l34 219h231l-111 -700h-174l-206 336c0 -29.333 -3.33301 -67.333 -10 -114zM361.999 -277h-159l64 223h188z" />
    <glyph glyph-name="ncommaaccent" unicode="&#x146;" 
d="M248 435c48 40.667 100.667 61 158 61c58 0 100.167 -19.167 126.5 -57.5s35.5 -82.833 27.5 -133.5l-48 -305h-211l44 278c4.66699 27.333 -6.33301 41 -33 41c-18.667 0 -39 -8.66699 -61 -26l-46 -293h-211l76 480h185zM253 -277h-159l64 223h188z" />
    <glyph glyph-name="Ncaron" unicode="&#x147;" horiz-adv-x="762" 
d="M237 0h-231.001l111 700h174l207 -337c0.666992 40.667 4.33398 80 11.001 118l34 219h231l-111 -700h-174l-206 336c0 -29.333 -3.33301 -67.333 -10 -114zM688.999 923l-159 -171h-185l-105 171h174l38 -65l61 65h176z" />
    <glyph glyph-name="ncaron" unicode="&#x148;" 
d="M248 435c48 40.667 100.667 61 158 61c58 0 100.167 -19.167 126.5 -57.5s35.5 -82.833 27.5 -133.5l-48 -305h-211l44 278c4.66699 27.333 -6.33301 41 -33 41c-18.667 0 -39 -8.66699 -61 -26l-46 -293h-211l76 480h185zM582 703l-159 -171h-185l-105 171h174l38 -65
l61 65h176z" />
    <glyph glyph-name="Eng" unicode="&#x14a;" horiz-adv-x="762" 
d="M660 -18c-22.667 -142.667 -99.668 -214 -231.001 -214c-31.333 0 -64 4 -98 12l27 174c9.33301 -4 20 -6 32 -6c30 0 48 18.667 54 56l9 54l-170 279c0 -29.333 -3.33301 -67.333 -10 -114l-36 -223h-231l111 700h173l208 -336c0.666992 40.667 4.33398 80 11.001 118
l34 218h231z" />
    <glyph glyph-name="eng" unicode="&#x14b;" 
d="M503 -58c-18.667 -118.667 -88.667 -178 -210 -178c-38.667 0 -70 6.66699 -94 20l25 158c8.66699 -3.33301 18.334 -5 29.001 -5c25.333 0 40.666 17.667 45.999 53l46 288c4.66699 27.333 -6.33301 41 -33 41c-18.667 0 -39 -8.66699 -61 -26l-46 -293h-211l76 480h185
l-7 -45c48 40.667 100.667 61 158 61c58 0 100.167 -19.167 126.5 -57.5s35.5 -82.833 27.5 -133.5z" />
    <glyph glyph-name="Omacron" unicode="&#x14c;" horiz-adv-x="805" 
d="M789 336c-16 -102 -61.332 -186.167 -135.999 -252.5s-171 -99.5 -289 -99.5c-119.333 0 -208.333 36.333 -267 109s-79.334 163 -62.001 271c16 102 61.333 186.167 136 252.5s171 99.5 289 99.5s206.667 -36.333 266 -109s80.333 -163 63 -271zM269.001 338
c-5.33301 -45.333 1.83496 -80.833 21.502 -106.5s50.5 -38.5 92.5 -38.5c47.333 0 86.5 15.167 117.5 45.5s49.5 71.5 55.5 123.5c6 45.333 -0.833008 80.833 -20.5 106.5s-50.834 38.5 -93.501 38.5c-46.667 0 -85.334 -15.167 -116.001 -45.5s-49.667 -71.5 -57 -123.5z
M318.002 902h363l-23 -145h-363z" />
    <glyph glyph-name="omacron" unicode="&#x14d;" 
d="M563 224c-12.667 -79.333 -47.333 -139.166 -104 -179.499s-124 -60.5 -202 -60.5c-38 0 -73 5.83301 -105 17.5s-59.5 28.5 -82.5 50.5s-39.667 50.667 -50 86s-11.833 74.666 -4.5 117.999c12.667 79.333 46.667 139.166 102 179.499s123 60.5 203 60.5
c49.333 0 93.833 -9.83301 133.5 -29.5s70.167 -50.667 91.5 -93s27.333 -92.166 18 -149.499zM217.001 235c-2.66699 -22 0.666016 -40 9.99902 -54s25 -21 47 -21c24 0 43.5 7.66699 58.5 23s24.167 36 27.5 62c2.66699 22 -0.666016 40 -9.99902 54s-25 21 -47 21
c-24 0 -43.5 -7.66699 -58.5 -23s-24.167 -36 -27.5 -62zM168.001 678h363l-23 -145h-363z" />
    <glyph glyph-name="Ohungarumlaut" unicode="&#x150;" horiz-adv-x="805" 
d="M789 336c-16 -102 -61.332 -186.167 -135.999 -252.5s-171 -99.5 -289 -99.5c-119.333 0 -208.333 36.333 -267 109s-79.334 163 -62.001 271c16 102 61.333 186.167 136 252.5s171 99.5 289 99.5s206.667 -36.333 266 -109s80.333 -163 63 -271zM269.001 338
c-5.33301 -45.333 1.83496 -80.833 21.502 -106.5s50.5 -38.5 92.5 -38.5c47.333 0 86.5 15.167 117.5 45.5s49.5 71.5 55.5 123.5c6 45.333 -0.833008 80.833 -20.5 106.5s-50.834 38.5 -93.501 38.5c-46.667 0 -85.334 -15.167 -116.001 -45.5s-49.667 -71.5 -57 -123.5z
M669.002 753h-173l112 168h186zM452.002 753h-173l104 168h185z" />
    <glyph glyph-name="ohungarumlaut" unicode="&#x151;" 
d="M563 224c-12.667 -79.333 -47.333 -139.166 -104 -179.499s-124 -60.5 -202 -60.5c-38 0 -73 5.83301 -105 17.5s-59.5 28.5 -82.5 50.5s-39.667 50.667 -50 86s-11.833 74.666 -4.5 117.999c12.667 79.333 46.667 139.166 102 179.499s123 60.5 203 60.5
c49.333 0 93.833 -9.83301 133.5 -29.5s70.167 -50.667 91.5 -93s27.333 -92.166 18 -149.499zM217.001 235c-2.66699 -22 0.666016 -40 9.99902 -54s25 -21 47 -21c24 0 43.5 7.66699 58.5 23s24.167 36 27.5 62c2.66699 22 -0.666016 40 -9.99902 54s-25 21 -47 21
c-24 0 -43.5 -7.66699 -58.5 -23s-24.167 -36 -27.5 -62zM519.001 529h-173l112 168h186zM302.001 529h-173l104 168h185z" />
    <glyph glyph-name="OE" unicode="&#x152;" horiz-adv-x="1025" 
d="M454 0c-34 -10.667 -71.667 -16 -113 -16c-111.333 0 -194.5 36.333 -249.5 109s-73.833 163 -56.5 271c16 101.333 59.833 185.333 131.5 252s162.167 100 271.5 100c42.667 0 82 -5.33301 118 -16h495l-29 -182h-263l-12 -81h227l-27 -170h-227l-13 -83h268l-29 -184
h-492zM268 344c-7.33301 -47.333 0.499023 -84.666 23.499 -111.999s52.167 -41 87.5 -41c38.667 0 73 8.66699 103 26l44 274c-21.333 12 -47.666 18 -78.999 18c-42 0 -80.333 -13.833 -115 -41.5s-56 -68.834 -64 -123.501z" />
    <glyph glyph-name="oe" unicode="&#x153;" horiz-adv-x="902" 
d="M442 57c-49.333 -48.667 -115.999 -72.9971 -199.999 -72.9971c-74.667 0 -134.667 24.167 -180 72.5s-61 115.166 -47 200.499c12.667 79.333 46.167 139.166 100.5 179.499s119.166 60.5 194.499 60.5c72 0 127.667 -22.667 167 -68c49.333 44.667 111 67 185 67
c45.333 0 84.666 -8.5 117.999 -25.5s57.5 -39.667 72.5 -68s23.667 -60.833 26 -97.5s-4.5 -74.334 -20.5 -113.001h-298c10 -40.667 52 -61 126 -61c56.667 0 106.334 8 149.001 24l-23 -147c-48 -16 -105.333 -24 -172 -24c-86 0 -152 24.333 -198 73zM218.001 235.003
c-2.66699 -20 0.332031 -37.501 8.99902 -52.501s23.667 -22.5 45 -22.5c26.667 0 47.5 7.83301 62.5 23.5s23.833 36.834 26.5 63.501c2 20 -1.16699 37.167 -9.5 51.5s-23.166 21.5 -44.499 21.5c-26.667 0 -47.5 -7.66699 -62.5 -23s-23.833 -36 -26.5 -62zM653 358.002
c-22 0 -40.334 -6.83301 -55.001 -20.5s-23.334 -29.5 -26.001 -47.5h131c4.66699 17.333 2.83398 33 -5.49902 47s-23.166 21 -44.499 21z" />
    <glyph glyph-name="Racute" unicode="&#x154;" horiz-adv-x="729" 
d="M237 0h-230.998l111 700h320c37.333 0 72.166 -4.5 104.499 -13.5s62.166 -23 89.499 -42s47.333 -46.167 60 -81.5s15.334 -76.333 8.00098 -123c-14.667 -94.667 -64.334 -161 -149.001 -199l137 -241h-244l-108 207h-66zM319.002 512l-20.998 -132.002h84
c22.667 0 42.167 6.33301 58.5 19s26.166 29.334 29.499 50.001c2.66699 18.667 -1.33301 33.834 -12 45.501s-26.334 17.5 -47.001 17.5h-92zM465.004 751.998h-194l124 164h217z" />
    <glyph glyph-name="racute" unicode="&#x155;" horiz-adv-x="420" 
d="M248 428c42.667 50.667 106 71 190 61l-31 -194c-29.333 10 -59.5 11.667 -90.5 5s-54.5 -19.667 -70.5 -39l-41 -261h-211l76 480h186zM330 532h-194l124 164h217z" />
    <glyph glyph-name="Rcommaaccent" unicode="&#x156;" horiz-adv-x="729" 
d="M237 0h-230.998l111 700h320c37.333 0 72.166 -4.5 104.499 -13.5s62.166 -23 89.499 -42s47.333 -46.167 60 -81.5s15.334 -76.333 8.00098 -123c-14.667 -94.667 -64.334 -161 -149.001 -199l137 -241h-244l-108 207h-66zM319.002 512l-20.998 -132.002h84
c22.667 0 42.167 6.33301 58.5 19s26.166 29.334 29.499 50.001c2.66699 18.667 -1.33301 33.834 -12 45.501s-26.334 17.5 -47.001 17.5h-92zM343.004 -277.002h-159l64 223h188z" />
    <glyph glyph-name="rcommaaccent" unicode="&#x157;" horiz-adv-x="420" 
d="M248 428c42.667 50.667 106 71 190 61l-31 -194c-29.333 10 -59.5 11.667 -90.5 5s-54.5 -19.667 -70.5 -39l-41 -261h-211l76 480h186zM96 -277h-159l64 223h188z" />
    <glyph glyph-name="Rcaron" unicode="&#x158;" horiz-adv-x="729" 
d="M237 0h-230.998l111 700h320c37.333 0 72.166 -4.5 104.499 -13.5s62.166 -23 89.499 -42s47.333 -46.167 60 -81.5s15.334 -76.333 8.00098 -123c-14.667 -94.667 -64.334 -161 -149.001 -199l137 -241h-244l-108 207h-66zM319.002 512l-20.998 -132.002h84
c22.667 0 42.167 6.33301 58.5 19s26.166 29.334 29.499 50.001c2.66699 18.667 -1.33301 33.834 -12 45.501s-26.334 17.5 -47.001 17.5h-92zM643.004 922.998l-159 -171h-185l-105 171h174l38 -65l61 65h176z" />
    <glyph glyph-name="rcaron" unicode="&#x159;" horiz-adv-x="420" 
d="M248 428c42.667 50.667 106 71 190 61l-31 -194c-29.333 10 -59.5 11.667 -90.5 5s-54.5 -19.667 -70.5 -39l-41 -261h-211l76 480h186zM508 703l-159 -171h-185l-105 171h174l38 -65l61 65h176z" />
    <glyph glyph-name="Sacute" unicode="&#x15a;" horiz-adv-x="632" 
d="M69 518c10 63.333 43.332 112.171 99.999 146.504s122.334 51.5 197.001 51.5c99.333 0 184.666 -20.333 255.999 -61l-30 -193c-63.333 43.333 -133.666 64.333 -210.999 63c-50.667 0 -77 -10.667 -79 -32c-0.666992 -10 6.83301 -19.833 22.5 -29.5
s35.5 -18.167 59.5 -25.5s49.5 -17.833 76.5 -31.5s51.667 -28.834 74 -45.501s39.333 -39.667 51 -69s14.5 -63 8.5 -101c-23.333 -138 -129.333 -207 -318 -207c-108 0 -199.333 23 -274 69l32 200c68.667 -50.667 145.667 -76 231 -76c60 0 91.667 10.667 95 32
c2 12 -4.66699 23.167 -20 33.5s-34.833 19.166 -58.5 26.499s-49.167 17.666 -76.5 30.999s-52.333 28.166 -75 44.499s-40 39.5 -52 69.5s-15 64.667 -9 104zM439.999 752.005h-194l124 164h217z" />
    <glyph glyph-name="sacute" unicode="&#x15b;" horiz-adv-x="493" 
d="M35 355c13.333 94 92.334 140.998 237.001 140.998c70.667 0 134 -14 190 -42l-24 -152c-46 32.667 -94 49 -144 49c-27.333 0 -42 -6.33301 -44 -19c-1.33301 -8.66699 5.5 -16.5 20.5 -23.5s33.333 -14.167 55 -21.5s42.834 -16.5 63.501 -27.5
s37.167 -27.667 49.5 -50s15.833 -49.166 10.5 -80.499c-4.66699 -28.667 -14.834 -53 -30.501 -73s-35.834 -35 -60.501 -45s-50.167 -17 -76.5 -21s-56.166 -6 -89.499 -6c-76.667 0 -142.334 14.667 -197.001 44l26 163c20.667 -17.333 45.834 -30.666 75.501 -39.999
s56.834 -14.333 81.501 -15c36 -2 55 3.33301 57 16c1.33301 8.66699 -5.33398 16.5 -20.001 23.5s-32.667 14.333 -54 22s-42.333 17 -63 28s-37.334 27.667 -50.001 50s-17 48.833 -13 79.5zM341.001 531.998h-194l124 164h217z" />
    <glyph glyph-name="Scedilla" unicode="&#x15e;" horiz-adv-x="632" 
d="M398 -142c-5.33301 -33.333 -23.8359 -57.4941 -55.5029 -72.4941s-67.834 -22.5 -108.501 -22.5c-49.333 0 -91.666 7 -126.999 21l17 111c23.333 -12.667 50.333 -19 81 -19c36.667 0 56.334 8 59.001 24c1.33301 7.33301 -2.5 13.166 -11.5 17.499s-20 6.5 -33 6.5
s-26.5 -1 -40.5 -3l29 66c-78.667 8.66699 -147.334 30.667 -206.001 66l32 200c68.667 -50.667 145.667 -76 231 -76c60 0 91.667 10.667 95 32c2 12 -4.66699 23.167 -20 33.5s-34.833 19.166 -58.5 26.499s-49.167 17.666 -76.5 30.999s-52.333 28.166 -75 44.499
s-40 39.5 -52 69.5s-15 64.667 -9 104c10 63.333 43.333 112.166 100 146.499s122.334 51.5 197.001 51.5c99.333 0 184.666 -20.333 255.999 -61l-30 -193c-63.333 43.333 -133.666 64.333 -210.999 63c-50.667 0 -77 -10.667 -79 -32
c-0.666992 -10 6.83301 -19.833 22.5 -29.5s35.5 -18.167 59.5 -25.5s49.5 -17.833 76.5 -31.5s51.667 -28.834 74 -45.501s39.333 -39.667 51 -69s14.5 -63 8.5 -101c-21.333 -126 -109.666 -194.333 -264.999 -205l-14 -30c28.667 -2 50.834 -12 66.501 -30
s21.167 -40.667 16.5 -68z" />
    <glyph glyph-name="scedilla" unicode="&#x15f;" horiz-adv-x="493" 
d="M338 -142c-5.33301 -33.333 -23.834 -57.501 -55.501 -72.501s-67.5 -22.5 -107.5 -22.5c-50 0 -92.667 7 -128 21l17 111c23.333 -12.667 50.333 -19 81 -19c36.667 0 56.334 8 59.001 24c1.33301 7.33301 -2.33398 13.166 -11.001 17.499s-19.667 6.5 -33 6.5
s-27 -1 -41 -3l28 65c-58.667 5.33301 -109.334 19.333 -152.001 42l26 163c20.667 -17.333 45.834 -30.666 75.501 -39.999s56.834 -14.333 81.501 -15c36 -2 55 3.33301 57 16c1.33301 8.66699 -5.33398 16.5 -20.001 23.5s-32.667 14.333 -54 22s-42.333 17 -63 28
s-37.334 27.667 -50.001 50s-17 48.833 -13 79.5c13.333 94 92.333 141 237 141c70.667 0 134 -14 190 -42l-24 -152c-46 32.667 -94 49 -144 49c-27.333 0 -42 -6.33301 -44 -19c-1.33301 -8.66699 5.5 -16.5 20.5 -23.5s33.333 -14.167 55 -21.5
s42.834 -16.5 63.501 -27.5s37.167 -27.667 49.5 -50s15.833 -49.166 10.5 -80.499c-12.667 -80.667 -72 -127.667 -178 -141l-16 -32c28.667 -2 50.834 -12 66.501 -30s21.167 -40.667 16.5 -68z" />
    <glyph glyph-name="Scaron" unicode="&#x160;" horiz-adv-x="632" 
d="M69 518c10 63.333 43.332 112.171 99.999 146.504s122.334 51.5 197.001 51.5c99.333 0 184.666 -20.333 255.999 -61l-30 -193c-63.333 43.333 -133.666 64.333 -210.999 63c-50.667 0 -77 -10.667 -79 -32c-0.666992 -10 6.83301 -19.833 22.5 -29.5
s35.5 -18.167 59.5 -25.5s49.5 -17.833 76.5 -31.5s51.667 -28.834 74 -45.501s39.333 -39.667 51 -69s14.5 -63 8.5 -101c-23.333 -138 -129.333 -207 -318 -207c-108 0 -199.333 23 -274 69l32 200c68.667 -50.667 145.667 -76 231 -76c60 0 91.667 10.667 95 32
c2 12 -4.66699 23.167 -20 33.5s-34.833 19.166 -58.5 26.499s-49.167 17.666 -76.5 30.999s-52.333 28.166 -75 44.499s-40 39.5 -52 69.5s-15 64.667 -9 104zM617.999 923.005l-159 -171h-185l-105 171h174l38 -65l61 65h176z" />
    <glyph glyph-name="scaron" unicode="&#x161;" horiz-adv-x="493" 
d="M35 355c13.333 94 92.334 140.998 237.001 140.998c70.667 0 134 -14 190 -42l-24 -152c-46 32.667 -94 49 -144 49c-27.333 0 -42 -6.33301 -44 -19c-1.33301 -8.66699 5.5 -16.5 20.5 -23.5s33.333 -14.167 55 -21.5s42.834 -16.5 63.501 -27.5
s37.167 -27.667 49.5 -50s15.833 -49.166 10.5 -80.499c-4.66699 -28.667 -14.834 -53 -30.501 -73s-35.834 -35 -60.501 -45s-50.167 -17 -76.5 -21s-56.166 -6 -89.499 -6c-76.667 0 -142.334 14.667 -197.001 44l26 163c20.667 -17.333 45.834 -30.666 75.501 -39.999
s56.834 -14.333 81.501 -15c36 -2 55 3.33301 57 16c1.33301 8.66699 -5.33398 16.5 -20.001 23.5s-32.667 14.333 -54 22s-42.333 17 -63 28s-37.334 27.667 -50.001 50s-17 48.833 -13 79.5zM519.001 702.998l-159 -171h-185l-105 171h174l38 -65l61 65h176z" />
    <glyph glyph-name="Tcommaaccent" unicode="&#x162;" horiz-adv-x="630" 
d="M77 700h606l-32 -202h-188l-79 -498h-230l79 498h-188zM268 -277h-159l64 223h188z" />
    <glyph glyph-name="tcommaaccent" unicode="&#x163;" horiz-adv-x="433" 
d="M132 609l219.001 49l-28 -178h107l-27 -168h-107l-18 -113c-2.66699 -16 -0.166992 -27.333 7.5 -34s19.834 -10 36.501 -10c21.333 0 43 3.66699 65 11l-26 -164c-40 -12.667 -83 -19 -129 -19c-24.667 0 -47.334 3.16699 -68.001 9.5s-40.167 16.333 -58.5 30
s-31.333 33.5 -39 59.5s-8.83398 56.667 -3.50098 92l22 138h-67l27 168h67zM231.001 -277h-159l64 223h188z" />
    <glyph glyph-name="Tcaron" unicode="&#x164;" horiz-adv-x="630" 
d="M77 700h606l-32 -202h-188l-79 -498h-230l79 498h-188zM638 923l-159 -171h-185l-105 171h174l38 -65l61 65h176z" />
    <glyph glyph-name="tcaron" unicode="&#x165;" horiz-adv-x="432" 
d="M438 762h172l-76 -232h-149zM132 609l219.001 49l-28 -178h107l-27 -168h-107l-18 -113c-2.66699 -16 -0.166992 -27.333 7.5 -34s19.834 -10 36.501 -10c21.333 0 43 3.66699 65 11l-26 -164c-40 -12.667 -83 -19 -129 -19c-24.667 0 -47.334 3.16699 -68.001 9.5
s-40.167 16.333 -58.5 30s-31.333 33.5 -39 59.5s-8.83398 56.667 -3.50098 92l22 138h-67l27 168h67z" />
    <glyph glyph-name="Tbar" unicode="&#x166;" horiz-adv-x="641" 
d="M389 0h-230l38 238h-112l22 137h111l20 123h-188l32 202h606l-32 -202h-188l-20 -123h112l-21 -137h-112z" />
    <glyph glyph-name="tbar" unicode="&#x167;" horiz-adv-x="433" 
d="M430 480l-24.998 -158h-107l-7 -42h93l-12 -73h-92l-3 -14c-2 -13.333 1 -23 9 -29s20.333 -9 37 -9c22 0 43.333 3.66699 64 11l-25 -164c-40 -12.667 -83 -19 -129 -19c-24.667 0 -47.334 3.16699 -68.001 9.5s-40.167 16.333 -58.5 30s-31.333 33.5 -39 59.5
s-8.83398 56.667 -3.50098 92l5 33h-38l11 73h38l7 42h-67l25 158h67l21 129l219 49l-29 -178h107z" />
    <glyph glyph-name="Umacron" unicode="&#x16a;" horiz-adv-x="741" 
d="M530 700h230.003l-68 -435c-30.667 -187.333 -152 -281 -364 -281c-42 0 -81 5.5 -117 16.5s-68.5 27.5 -97.5 49.5s-50 52.667 -63 92s-15.5 85 -7.5 137l67 421h231l-68 -423c-4.66699 -31.333 -0.333984 -53.5 12.999 -66.5s34.666 -19.5 63.999 -19.5
c65.333 0 103.666 33 114.999 99zM276.003 902h363l-23 -145h-363z" />
    <glyph glyph-name="umacron" unicode="&#x16b;" 
d="M372 480h211.001l-76 -480h-186l8 45c-39.333 -40.667 -88.333 -61 -147 -61s-102.834 19 -132.501 57s-40.5 83.667 -32.5 137l48 302h211l-44 -275c-5.33301 -30 6 -45 34 -45c23.333 0 43.333 9 60 27zM172.001 682h363l-23 -145h-363z" />
    <glyph glyph-name="Uring" unicode="&#x16e;" horiz-adv-x="741" 
d="M530 700h230.003l-68 -435c-30.667 -187.333 -152 -281 -364 -281c-42 0 -81 5.5 -117 16.5s-68.5 27.5 -97.5 49.5s-50 52.667 -63 92s-15.5 85 -7.5 137l67 421h231l-68 -423c-4.66699 -31.333 -0.333984 -53.5 12.999 -66.5s34.666 -19.5 63.999 -19.5
c65.333 0 103.666 33 114.999 99zM592.003 848c-6 -38 -23 -66.999 -51 -86.999s-61.333 -30 -100 -30c-39.333 0 -72.166 13.167 -98.499 39.5s-36.166 61.5 -29.499 105.5c6 36 23.167 64.333 51.5 85s61.166 31 98.499 31c40 0 73.167 -13.333 99.5 -40
s36.166 -61.334 29.499 -104.001zM418.003 863.001c-1.33301 -10.667 0.666016 -19.333 5.99902 -26s13.333 -10 24 -10c22 0 34.667 11 38 33c2 10 0.333008 18.333 -5 25s-13.666 10 -24.999 10c-10 0 -18.5 -3 -25.5 -9s-11.167 -13.667 -12.5 -23z" />
    <glyph glyph-name="uring" unicode="&#x16f;" 
d="M372 480h211.001l-76 -480h-186l8 45c-39.333 -40.667 -88.333 -61 -147 -61s-102.834 19 -132.501 57s-40.5 83.667 -32.5 137l48 302h211l-44 -275c-5.33301 -30 6 -45 34 -45c23.333 0 43.333 9 60 27zM488.001 628c-6 -38 -23 -66.999 -51 -86.999
s-61.333 -30 -100 -30c-39.333 0 -72.166 13.167 -98.499 39.5s-36.166 61.5 -29.499 105.5c6 36 23.167 64.333 51.5 85s61.166 31 98.499 31c40 0 73.167 -13.333 99.5 -40s36.166 -61.334 29.499 -104.001zM314.001 643.001
c-1.33301 -10.667 0.666016 -19.333 5.99902 -26s13.333 -10 24 -10c22 0 34.667 11 38 33c2 10 0.333008 18.333 -5 25s-13.666 10 -24.999 10c-10 0 -18.5 -3 -25.5 -9s-11.167 -13.667 -12.5 -23z" />
    <glyph glyph-name="Uhungarumlaut" unicode="&#x170;" horiz-adv-x="741" 
d="M530 700h230.003l-68 -435c-30.667 -187.333 -152 -281 -364 -281c-42 0 -81 5.5 -117 16.5s-68.5 27.5 -97.5 49.5s-50 52.667 -63 92s-15.5 85 -7.5 137l67 421h231l-68 -423c-4.66699 -31.333 -0.333984 -53.5 12.999 -66.5s34.666 -19.5 63.999 -19.5
c65.333 0 103.666 33 114.999 99zM627.003 753h-173l112 168h186zM410.003 753h-173l104 168h185z" />
    <glyph glyph-name="uhungarumlaut" unicode="&#x171;" horiz-adv-x="593" 
d="M372 480h211.001l-76 -480h-186l8 45c-39.333 -40.667 -88.333 -61 -147 -61s-102.834 19 -132.501 57s-40.5 83.667 -32.5 137l48 302h211l-44 -275c-5.33301 -30 6 -45 34 -45c23.333 0 43.333 9 60 27zM523.001 533h-173l112 168h186zM306.001 533h-173l104 168h185z
" />
    <glyph glyph-name="Uogonek" unicode="&#x172;" horiz-adv-x="741" 
d="M465 290l65.002 410.001h230l-68 -435c-15.333 -92.667 -53.666 -162.667 -114.999 -210c-72 -56.667 -108 -102.334 -108 -137.001c0 -12 7.66699 -18 23 -18c8 0 16.333 1.66699 25 5l-20 -127c-25.333 -9.33301 -53 -14 -83 -14c-38.667 0 -69.5 9.16699 -92.5 27.5
s-33.5 43.5 -31.5 75.5c3.33301 44 31 83.333 83 118c-10 -0.666992 -25 -1 -45 -1c-42 0 -81 5.5 -117 16.5s-68.5 27.5 -97.5 49.5s-50 52.667 -63 92s-15.5 85 -7.5 137l67 421h231l-68 -423c-4.66699 -31.333 -0.333984 -53.5 12.999 -66.5s34.666 -19.5 63.999 -19.5
c65.333 0 103.666 33 114.999 99z" />
    <glyph glyph-name="uogonek" unicode="&#x173;" 
d="M326 187l46 293.003h211l-76 -480h-1c-17.333 -12.667 -32.166 -26.834 -44.499 -42.501s-18.5 -28.834 -18.5 -39.501c0 -12 7.33301 -18 22 -18c8.66699 0 17 1.66699 25 5l-20 -127c-24 -9.33301 -51.667 -14 -83 -14c-38.667 0 -69.5 9.16699 -92.5 27.5
s-33.167 43.5 -30.5 75.5c3.33301 49.333 35.333 93.666 96 132.999h-39l8 45c-39.333 -40.667 -88.333 -61 -147 -61s-102.834 19 -132.501 57s-40.5 83.667 -32.5 137l48 302h211l-44 -275c-5.33301 -30 6 -45 34 -45c23.333 0 43.333 9 60 27z" />
    <glyph glyph-name="Wcircumflex" unicode="&#x174;" horiz-adv-x="1111" 
d="M917 700h256l-322 -700h-252l-35 353l-151 -353h-246l-100 700h240l32 -422l177 422h191l40 -422zM546 918h185l101 -171h-168l-35 60l-55 -60h-183z" />
    <glyph glyph-name="wcircumflex" unicode="&#x175;" horiz-adv-x="846" 
d="M648 480h223l-229 -480h-205l-25 237l-104 -237h-200l-72 480h206l16 -263l108 263h161l23 -263zM384 698h185l101 -171h-168l-35 60l-55 -60h-183z" />
    <glyph glyph-name="Ycircumflex" unicode="&#x176;" horiz-adv-x="752" 
d="M443 0h-229l39 239l-193 461h246l82 -267l164 267h270l-340 -461zM371 918h185l101 -171h-168l-35 60l-55 -60h-183z" />
    <glyph glyph-name="ycircumflex" unicode="&#x177;" horiz-adv-x="603" 
d="M298 220l103 260h229l-263 -514c-68.667 -134 -162 -201 -280 -201c-40.667 0 -79 6.66699 -115 20l27 168c19.333 -7.33301 40 -11 62 -11c45.333 0 81.333 23.333 108 70l-143 468h213zM260 698h185l101 -171h-168l-35 60l-55 -60h-183z" />
    <glyph glyph-name="Ydieresis" unicode="&#x178;" horiz-adv-x="752" 
d="M443 0h-229l39 239l-193 461h246l82 -267l164 267h270l-340 -461zM663 829c-2.66699 -27.333 -13.667 -49.333 -33 -66s-42.333 -25 -69 -25c-28.667 0 -51.5 9.33301 -68.5 28s-24.167 43 -21.5 73c2.66699 27.333 13.667 49.333 33 66s42.333 25 69 25
c28.667 0 51.5 -9.33301 68.5 -28s24.167 -43 21.5 -73zM433 829c-2.66699 -27.333 -13.667 -49.333 -33 -66s-42.333 -25 -69 -25c-28.667 0 -51.5 9.33301 -68.5 28s-24.167 43 -21.5 73c2.66699 27.333 13.667 49.333 33 66s42.333 25 69 25
c28.667 0 51.5 -9.33301 68.5 -28s24.167 -43 21.5 -73z" />
    <glyph glyph-name="Zacute" unicode="&#x179;" horiz-adv-x="645" 
d="M570 0h-589l23 146l312 352h-239l31 202h561l-23 -147l-312 -351h268zM462 752h-194l124 164h217z" />
    <glyph glyph-name="zacute" unicode="&#x17a;" horiz-adv-x="505" 
d="M72 480h422l-20 -123l-192 -189h176l-26 -168h-451l19 123l192 189h-146zM372 532h-194l124 164h217z" />
    <glyph glyph-name="Zdotaccent" unicode="&#x17b;" horiz-adv-x="645" 
d="M570 0h-589l23 146l312 352h-239l31 202h561l-23 -147l-312 -351h268zM502 837c-9.33301 -58.667 -45.668 -88 -109.001 -88c-32.667 0 -58.5 9.83301 -77.5 29.5s-25.5 48.167 -19.5 85.5c4.66699 30 17 52.167 37 66.5s44.333 21.5 73 21.5
c32.667 0 58.334 -10 77.001 -30s25 -48.333 19 -85z" />
    <glyph glyph-name="zdotaccent" unicode="&#x17c;" horiz-adv-x="505" 
d="M72 480h422l-20 -123l-192 -189h176l-26 -168h-451l19 123l192 189h-146zM412 617c-9.33301 -58.667 -45.668 -88 -109.001 -88c-32.667 0 -58.5 9.83301 -77.5 29.5s-25.5 48.167 -19.5 85.5c4.66699 30 17 52.167 37 66.5s44.333 21.5 73 21.5
c32.667 0 58.334 -10 77.001 -30s25 -48.333 19 -85z" />
    <glyph glyph-name="Zcaron" unicode="&#x17d;" horiz-adv-x="645" 
d="M570 0h-589l23 146l312 352h-239l31 202h561l-23 -147l-312 -351h268zM640 923l-159 -171h-185l-105 171h174l38 -65l61 65h176z" />
    <glyph glyph-name="zcaron" unicode="&#x17e;" horiz-adv-x="505" 
d="M72 480h422l-20 -123l-192 -189h176l-26 -168h-451l19 123l192 189h-146zM550 703l-159 -171h-185l-105 171h174l38 -65l61 65h176z" />
    <glyph glyph-name="Scommaaccent" unicode="&#x218;" horiz-adv-x="632" 
d="M69 518c10 63.333 43.332 112.171 99.999 146.504s122.334 51.5 197.001 51.5c99.333 0 184.666 -20.333 255.999 -61l-30 -193c-63.333 43.333 -133.666 64.333 -210.999 63c-50.667 0 -77 -10.667 -79 -32c-0.666992 -10 6.83301 -19.833 22.5 -29.5
s35.5 -18.167 59.5 -25.5s49.5 -17.833 76.5 -31.5s51.667 -28.834 74 -45.501s39.333 -39.667 51 -69s14.5 -63 8.5 -101c-23.333 -138 -129.333 -207 -318 -207c-108 0 -199.333 23 -274 69l32 200c68.667 -50.667 145.667 -76 231 -76c60 0 91.667 10.667 95 32
c2 12 -4.66699 23.167 -20 33.5s-34.833 19.166 -58.5 26.499s-49.167 17.666 -76.5 30.999s-52.333 28.166 -75 44.499s-40 39.5 -52 69.5s-15 64.667 -9 104zM292.999 -276.995h-159l64 223h188z" />
    <glyph glyph-name="scommaaccent" unicode="&#x219;" horiz-adv-x="493" 
d="M35 355c13.333 94 92.334 140.998 237.001 140.998c70.667 0 134 -14 190 -42l-24 -152c-46 32.667 -94 49 -144 49c-27.333 0 -42 -6.33301 -44 -19c-1.33301 -8.66699 5.5 -16.5 20.5 -23.5s33.333 -14.167 55 -21.5s42.834 -16.5 63.501 -27.5
s37.167 -27.667 49.5 -50s15.833 -49.166 10.5 -80.499c-4.66699 -28.667 -14.834 -53 -30.501 -73s-35.834 -35 -60.501 -45s-50.167 -17 -76.5 -21s-56.166 -6 -89.499 -6c-76.667 0 -142.334 14.667 -197.001 44l26 163c20.667 -17.333 45.834 -30.666 75.501 -39.999
s56.834 -14.333 81.501 -15c36 -2 55 3.33301 57 16c1.33301 8.66699 -5.33398 16.5 -20.001 23.5s-32.667 14.333 -54 22s-42.333 17 -63 28s-37.334 27.667 -50.001 50s-17 48.833 -13 79.5zM219.001 -277.002h-159l64 223h188z" />
    <glyph glyph-name="uni021A" unicode="&#x21a;" horiz-adv-x="630" 
d="M77 700h606l-32 -202h-188l-79 -498h-230l79 498h-188zM268 -277h-159l64 223h188z" />
    <glyph glyph-name="uni021B" unicode="&#x21b;" horiz-adv-x="433" 
d="M132 609l219.001 49l-28 -178h107l-27 -168h-107l-18 -113c-2.66699 -16 -0.166992 -27.333 7.5 -34s19.834 -10 36.501 -10c21.333 0 43 3.66699 65 11l-26 -164c-40 -12.667 -83 -19 -129 -19c-24.667 0 -47.334 3.16699 -68.001 9.5s-40.167 16.333 -58.5 30
s-31.333 33.5 -39 59.5s-8.83398 56.667 -3.50098 92l22 138h-67l27 168h67zM231.001 -277h-159l64 223h188z" />
    <glyph glyph-name="circumflex" unicode="&#x2c6;" horiz-adv-x="418" 
d="M239 918h185l101 -171h-168l-35 60l-55 -60h-183z" />
    <glyph glyph-name="caron" unicode="&#x2c7;" horiz-adv-x="418" 
d="M560 923l-159 -171h-185l-105 171h174l38 -65l61 65h176z" />
    <glyph glyph-name="breve" unicode="&#x2d8;" horiz-adv-x="427" 
d="M495 790c-54.667 -34 -115 -51 -181 -51c-74 0 -134.333 17 -181 51l23 143c45.333 -30.667 101.333 -46 168 -46c74 0 138.333 15.333 193 46z" />
    <glyph glyph-name="dotaccent" unicode="&#x2d9;" horiz-adv-x="211" 
d="M322 837c-9.33301 -58.667 -45.668 -88 -109.001 -88c-32.667 0 -58.5 9.83301 -77.5 29.5s-25.5 48.167 -19.5 85.5c4.66699 30 17 52.167 37 66.5s44.333 21.5 73 21.5c32.667 0 58.334 -10 77.001 -30s25 -48.333 19 -85z" />
    <glyph glyph-name="ring" unicode="&#x2da;" horiz-adv-x="277" 
d="M393 848c-6 -38 -23 -66.999 -51 -86.999s-61.333 -30 -100 -30c-39.333 0 -72.166 13.167 -98.499 39.5s-36.166 61.5 -29.499 105.5c6 36 23.167 64.333 51.5 85s61.166 31 98.499 31c40 0 73.167 -13.333 99.5 -40s36.166 -61.334 29.499 -104.001zM219 863.001
c-1.33301 -10.667 0.666016 -19.333 5.99902 -26s13.333 -10 24 -10c22 0 34.667 11 38 33c2 10 0.333008 18.333 -5 25s-13.666 10 -24.999 10c-10 0 -18.5 -3 -25.5 -9s-11.167 -13.667 -12.5 -23z" />
    <glyph glyph-name="ogonek" unicode="&#x2db;" horiz-adv-x="237" 
d="M58 0l145.999 0.00292969c-17.333 -12.667 -32.166 -26.834 -44.499 -42.501s-18.5 -28.834 -18.5 -39.501c0 -12 7.33301 -18 22 -18c8.66699 0 17 1.66699 25 5l-20 -127c-24 -9.33301 -51.667 -14 -83 -14c-38.667 0 -69.5 9.16699 -92.5 27.5
s-33.167 43.5 -30.5 75.5c3.33301 49.333 35.333 93.666 96 132.999z" />
    <glyph glyph-name="tilde" unicode="&#x2dc;" horiz-adv-x="420" 
d="M535 918c6.66699 -52 -2.33203 -94.833 -26.999 -128.5s-58.334 -50.5 -101.001 -50.5c-24 0 -51.5 6.66699 -82.5 20s-51.167 20 -60.5 20c-8.66699 0 -15.334 -3.66699 -20.001 -11s-6.33398 -15 -5.00098 -23h-134c-6.66699 51.333 2.33301 94 27 128s58 51 100 51
c24.667 0 52.5 -6.66699 83.5 -20s50.833 -20 59.5 -20s15.334 3.66699 20.001 11s6.33398 15 5.00098 23h135z" />
    <glyph glyph-name="hungarumlaut" unicode="&#x2dd;" horiz-adv-x="504" 
d="M510 753h-173l112 168h186zM293 753h-173l104 168h185z" />
    <glyph glyph-name="uni0326" unicode="&#x326;" horiz-adv-x="250" 
d="M136 -277h-159l64 223h188z" />
    <glyph glyph-name="uni0401" unicode="&#x401;" horiz-adv-x="621" 
d="M617 829c-2.66699 -27.333 -13.667 -49.333 -33 -66s-42.333 -25 -69 -25c-28.667 0 -51.5 9.33301 -68.5 28s-24.167 43 -21.5 73c2.66699 27.333 13.667 49.333 33 66s42.333 25 69 25c28.667 0 51.5 -9.33301 68.5 -28s24.167 -43 21.5 -73zM387 829
c-2.66699 -27.333 -13.667 -49.333 -33 -66s-42.333 -25 -69 -25c-28.667 0 -51.5 9.33301 -68.5 28s-24.167 43 -21.5 73c2.66699 27.333 13.667 49.333 33 66s42.333 25 69 25c28.667 0 51.5 -9.33301 68.5 -28s24.167 -43 21.5 -73zM117 700h530l-29 -182h-300l-12 -81
h264l-27 -170h-264l-13 -83h305l-29 -184h-536z" />
    <glyph glyph-name="uni0410" unicode="&#x410;" horiz-adv-x="765" 
d="M722 0h-225l-16 93h-247l-45 -93h-238l372 700h249zM388 413l-75 -153h141l-25 152c-4.66699 31.333 -7 61.333 -7 90c-10 -33.333 -21.333 -63 -34 -89z" />
    <glyph glyph-name="uni0411" unicode="&#x411;" horiz-adv-x="681" 
d="M308 449l107.001 -0.00292969c26.667 0 52 -2.16699 76 -6.5s47.333 -12.166 70 -23.499s41.5 -25.666 56.5 -42.999s25.833 -40.166 32.5 -68.499s7 -60.5 1 -96.5c-6.66699 -42 -19.334 -77.5 -38.001 -106.5s-42.167 -50.667 -70.5 -65s-57.5 -24.5 -87.5 -30.5
s-63.667 -9 -101 -9h-348l111 700h553l-29 -185h-323zM264.001 167.997h78c50.667 0 78.667 19.333 84 58c3.33301 19.333 -0.666992 33.333 -12 42s-27.333 13 -48 13h-84z" />
    <glyph glyph-name="uni0412" unicode="&#x412;" horiz-adv-x="697" 
d="M117 700h341c76.667 0 136 -16.333 178 -49s58.333 -80 49 -142c-5.33301 -34 -17.5 -62.5 -36.5 -85.5s-47.5 -41.5 -85.5 -55.5c36.667 -12 64.167 -33.5 82.5 -64.5s23.833 -69.833 16.5 -116.5c-11.333 -70 -44.333 -118.667 -99 -146s-125 -41 -211 -41h-346z
M440 228c3.33301 17.333 0.166016 31 -9.50098 41s-25.5 15 -47.5 15h-101l-18 -114h93c48.667 0 76.334 19.333 83.001 58zM460 479c2.66699 14.667 -0.167969 26.833 -8.50098 36.5s-22.166 14.5 -41.499 14.5h-89l-17 -103l82 -1c20 0 36.5 4.83301 49.5 14.5
s21.167 22.5 24.5 38.5z" />
    <glyph glyph-name="uni0413" unicode="&#x413;" horiz-adv-x="588" 
d="M237 0h-231l111 700h525l-32 -202h-294z" />
    <glyph glyph-name="uni0414" unicode="&#x414;" horiz-adv-x="850" 
d="M156 -136h-205l52 330h76c52 70 91.833 146.333 119.5 229s49.5 175 65.5 277h537l-81 -506h91l-52 -330h-205l22 136h-399zM448 504c-30.667 -136.667 -71.333 -240 -122 -310h166l50 310h-94z" />
    <glyph glyph-name="uni0415" unicode="&#x415;" horiz-adv-x="621" 
d="M117 700h530l-29 -182h-300l-12 -81h264l-27 -170h-264l-13 -83h305l-29 -184h-536z" />
    <glyph glyph-name="uni0416" unicode="&#x416;" horiz-adv-x="1046" 
d="M857 700h255l-239 -371l121 -329h-234l-82 250h-47l-39 -250h-231l40 250h-41l-157 -250h-250l239 356l-126 344h236l87 -248h44l39 248h231l-39 -248h43z" />
    <glyph glyph-name="uni0417" unicode="&#x417;" horiz-adv-x="629" 
d="M588 178c-20.667 -129.333 -128.667 -194.001 -324 -194.001c-92.667 0 -183.667 16.333 -273 49l31 195c72 -32 147 -48 225 -48c75.333 1.33301 115.666 19.333 120.999 54c2 12.667 -1.5 22 -10.5 28s-21.833 9 -38.5 9h-174l28 168h138c41.333 0 64.333 12 69 36
c2 14 -3.66699 24.833 -17 32.5s-33.666 11.5 -60.999 11.5c-70.667 0 -148 -18.667 -232 -56l33 210c78 28.667 157 43 237 43c90.667 0 161.334 -18.333 212.001 -55s70.667 -89 60 -157c-10 -67.333 -53.333 -113.666 -130 -138.999
c85.333 -30.667 120.666 -93 105.999 -187z" />
    <glyph glyph-name="uni0418" unicode="&#x418;" horiz-adv-x="756" 
d="M768 700l-111 -700h-230l33 205c6 43.333 14.333 81 25 113l-288 -318h-191l111 700h231l-33 -205c-8.66699 -50.667 -17 -88 -25 -112l287 317h191z" />
    <glyph glyph-name="uni0419" unicode="&#x419;" horiz-adv-x="756" 
d="M768 700l-111 -700h-230l33 205c6 43.333 14.333 81 25 113l-288 -318h-191l111 700h231l-33 -205c-8.66699 -50.667 -17 -88 -25 -112l287 317h191zM641 790c-54.667 -34 -115 -51 -181 -51c-74 0 -134.333 17 -181 51l23 143c45.333 -30.667 101.333 -46 168 -46
c74 0 138.333 15.333 193 46z" />
    <glyph glyph-name="uni041A" unicode="&#x41a;" horiz-adv-x="728" 
d="M546 700h258l-271 -354l158 -346h-243l-110 250h-62l-39 -250h-231l111 700h231l-40 -248h61z" />
    <glyph glyph-name="uni041B" unicode="&#x41b;" horiz-adv-x="756" 
d="M220 700l548 0.00195312l-111 -700h-230l79 498h-100c-8 -37.333 -14.5 -67.333 -19.5 -90s-11.667 -50.667 -20 -84s-16 -60.333 -23 -81s-16 -44.167 -27 -70.5s-22 -47.5 -33 -63.5s-24 -32.667 -39 -50s-31 -30.666 -48 -39.999s-36.167 -17 -57.5 -23
s-44.333 -9 -69 -9c-45.333 0 -83 7 -113 21l31 196c16.667 -8.66699 35.667 -10.334 57 -5.00098c11.333 2 22.333 7.33301 33 16s20.334 20.667 29.001 36s16.667 31.166 24 47.499s14.333 36.666 21 60.999s12.5 46.333 17.5 66s10.167 43.834 15.5 72.501
s9.66602 52.167 12.999 70.5s7.33301 41.666 12 69.999s8 48.833 10 61.5z" />
    <glyph glyph-name="uni041C" unicode="&#x41c;" horiz-adv-x="906" 
d="M698 700h220l-111 -700h-225l52 325l-136 -177h-131l-83 178l-53 -326h-225l111 700h198l145 -312z" />
    <glyph glyph-name="uni041D" unicode="&#x41d;" horiz-adv-x="756" 
d="M538 700h230l-111 -700h-230l39 249h-190l-39 -249h-231l111 700h231l-40 -249h191z" />
    <glyph glyph-name="uni041E" unicode="&#x41e;" horiz-adv-x="805" 
d="M789 336c-16 -102 -61.332 -186.167 -135.999 -252.5s-171 -99.5 -289 -99.5c-119.333 0 -208.333 36.333 -267 109s-79.334 163 -62.001 271c16 102 61.333 186.167 136 252.5s171 99.5 289 99.5s206.667 -36.333 266 -109s80.333 -163 63 -271zM269.001 338
c-5.33301 -45.333 1.83496 -80.833 21.502 -106.5s50.5 -38.5 92.5 -38.5c47.333 0 86.5 15.167 117.5 45.5s49.5 71.5 55.5 123.5c6 45.333 -0.833008 80.833 -20.5 106.5s-50.834 38.5 -93.501 38.5c-46.667 0 -85.334 -15.167 -116.001 -45.5s-49.667 -71.5 -57 -123.5z
" />
    <glyph glyph-name="uni041F" unicode="&#x41f;" horiz-adv-x="761" 
d="M236 0h-230l111 700h656l-111 -700h-230l79 498h-196z" />
    <glyph glyph-name="uni0420" unicode="&#x420;" horiz-adv-x="689" 
d="M117 700l301 -0.000976562c44 0 83.667 -4.83301 119 -14.5s66.5 -24.667 93.5 -45s46.167 -48.666 57.5 -84.999s13 -78.833 5 -127.5c-14 -90 -49.833 -153.333 -107.5 -190s-136.5 -55 -236.5 -55h-83l-29 -183h-231zM468 443.999c4 22 -0.666992 38.5 -14 49.5
s-32.333 16.5 -57 16.5h-79l-22 -137h71c60 0 93.667 23.667 101 71z" />
    <glyph glyph-name="uni0421" unicode="&#x421;" horiz-adv-x="645" 
d="M34 361c8 48.667 22.667 93.3291 44 133.996s46.5 74.334 75.5 101.001s61.333 49.334 97 68.001s71.334 32 107.001 40s71.5 12 107.5 12c78 0 146 -16 204 -48l-31 -195c-35.333 28.667 -83.666 43 -144.999 43c-54.667 0 -103.334 -13.667 -146.001 -41
s-69 -70 -79 -128c-8 -50.667 3.33301 -90 34 -118s69.667 -42 117 -42c69.333 0 131.666 16.667 186.999 50l-34 -214c-56.667 -26 -122.667 -39 -198 -39c-50 0 -96.833 7.5 -140.5 22.5s-82.5 37.333 -116.5 67s-58.833 69.334 -74.5 119.001s-18.5 105.834 -8.5 168.501
z" />
    <glyph glyph-name="uni0422" unicode="&#x422;" horiz-adv-x="630" 
d="M77 700h606l-32 -202h-188l-79 -498h-230l79 498h-188z" />
    <glyph glyph-name="uni0423" unicode="&#x423;" horiz-adv-x="706" 
d="M439 154c-71.333 -113.333 -159 -170 -263 -170c-52.667 0 -98 7.66699 -136 23l29 183c20.667 -9.33301 45.667 -14 75 -14c36 0 64.667 12.333 86 37l17 21l-190 466h233l92 -282l149 282h245z" />
    <glyph glyph-name="uni0424" unicode="&#x424;" horiz-adv-x="888" 
d="M496 -47l-206.999 0.000976562l16 91c-94 8.66699 -169 41.5 -225 98.5s-76.667 130.833 -62 221.5c14 87.333 54.333 156.5 121 207.5s154 79.5 262 85.5l14 90h207l-14 -90c93.333 -9.33301 167.333 -42.5 222 -99.5s75 -130.833 61 -221.5
c-14 -86.667 -54.333 -155.334 -121 -206.001s-153.334 -79.667 -260.001 -87zM242.001 347.001c-4.66699 -29.333 -0.166992 -56 13.5 -80s40.5 -38.333 80.5 -43l39 249c-76.667 -10 -121 -52 -133 -126zM577.001 476.001l-40 -250.002
c75.333 10.667 119 53.334 131 128.001c4.66699 29.333 0.5 55.833 -12.5 79.5s-39.167 37.834 -78.5 42.501z" />
    <glyph glyph-name="uni0425" unicode="&#x425;" horiz-adv-x="730" 
d="M208 0h-275l304 358l-177 342h260l74 -177l136 177h275l-288 -340l185 -360h-260l-83 190z" />
    <glyph glyph-name="uni0426" unicode="&#x426;" horiz-adv-x="815" 
d="M723 -136h-200l22 136h-539l111 700h231l-79 -498h191l79 498h231l-79 -498h85z" />
    <glyph glyph-name="uni0427" unicode="&#x427;" horiz-adv-x="706" 
d="M607 0h-230.001l35 221c-42 -14 -87.333 -21 -136 -21c-75.333 0 -134.666 21.5 -177.999 64.5s-59 103.167 -47 180.5l41 255h230l-38 -241c-6 -39.333 16.667 -59 68 -59c32 0 62.333 6.66699 91 20l45 280h230z" />
    <glyph glyph-name="uni0428" unicode="&#x428;" horiz-adv-x="1037" 
d="M938 0h-932l111 700h231l-79 -498h120l79 498h231l-79 -498h120l79 498h230z" />
    <glyph glyph-name="uni0429" unicode="&#x429;" horiz-adv-x="1095" 
d="M1003 -136h-200l22 136h-819l111 700h231l-79 -498h120l79 498h231l-79 -498h120l79 498h230l-78 -498h85z" />
    <glyph glyph-name="uni042A" unicode="&#x42a;" horiz-adv-x="787" 
d="M429 0l-311 0.000976562l79 498h-152l32 202h382l-31 -200h70c40.667 0 77.5 -4.33301 110.5 -13s63.167 -22.667 90.5 -42s46.833 -46.833 58.5 -82.5s13.5 -77.834 5.5 -126.501c-7.33301 -46 -20.833 -84.833 -40.5 -116.5s-45 -56 -76 -73s-64 -29 -99 -36
s-74.5 -10.5 -118.5 -10.5zM398 310.001l-19 -120h68c55.333 0 86.333 20.667 93 62c2.66699 18 -1.83301 32.167 -13.5 42.5s-28.167 15.5 -49.5 15.5h-79z" />
    <glyph glyph-name="uni042B" unicode="&#x42b;" horiz-adv-x="987" 
d="M317 0l-311.001 0.000976562l111 700h231l-32 -200h70c40.667 0 77.5 -4.33301 110.5 -13s63.167 -22.667 90.5 -42s46.833 -46.833 58.5 -82.5s13.834 -77.834 6.50098 -126.501c-7.33301 -46 -21 -84.833 -41 -116.5s-45.5 -56 -76.5 -73s-64 -29 -99 -36
s-74.5 -10.5 -118.5 -10.5zM285.999 310.001l-19 -120h68c55.333 0 86.333 20.667 93 62c2.66699 18 -1.83301 32.167 -13.5 42.5s-28.167 15.5 -49.5 15.5h-79zM887.999 0.000976562h-231l111 700h231z" />
    <glyph glyph-name="uni042C" unicode="&#x42c;" horiz-adv-x="676" 
d="M317 0l-311.001 0.000976562l111 700h231l-32 -200h70c40.667 0 77.5 -4.33301 110.5 -13s63.167 -22.667 90.5 -42s46.833 -46.833 58.5 -82.5s13.834 -77.834 6.50098 -126.501c-7.33301 -46 -21 -84.833 -41 -116.5s-45.5 -56 -76.5 -73s-64 -29 -99 -36
s-74.5 -10.5 -118.5 -10.5zM285.999 310.001l-19 -120h68c55.333 0 86.333 20.667 93 62c2.66699 18 -1.83301 32.167 -13.5 42.5s-28.167 15.5 -49.5 15.5h-79z" />
    <glyph glyph-name="uni042D" unicode="&#x42d;" horiz-adv-x="647" 
d="M96 675c57.333 27.333 124.336 41.001 201.003 41.001c38 0 74.667 -4.66699 110 -14s68.666 -23.833 99.999 -43.5s57.333 -44.834 78 -75.501s35.5 -67 44.5 -109s8.83301 -90.333 -0.5 -145c-7.33301 -48 -20.833 -91.5 -40.5 -130.5s-43.167 -71.667 -70.5 -98
s-58.666 -48.333 -93.999 -66s-72 -30.5 -110 -38.5s-78 -12 -120 -12c-74.667 0 -141.334 15 -200.001 45l30 189c43.333 -28 96.666 -42 159.999 -42c100.667 0 167.667 29.667 201 89h-255l28 174h257c-14.667 56.667 -67.334 85.667 -158.001 87
c-72 0 -136 -16.667 -192 -50z" />
    <glyph glyph-name="uni042E" unicode="&#x42e;" horiz-adv-x="1118" 
d="M1102 336c-16 -102 -61.501 -186.168 -136.501 -252.501s-171.5 -99.5 -289.5 -99.5c-96 0 -171.5 24.333 -226.5 73s-86.833 112.667 -95.5 192h-78l-39 -249h-231l111 700h231l-40 -249h72c29.333 82 78 146.667 146 194s150.333 71 247 71
c78.667 0 145.167 -17.167 199.5 -51.5s92.333 -80.166 114 -137.499s26.834 -121 15.501 -191zM580.999 337.999c-5.33301 -45.333 1.83496 -80.833 21.502 -106.5s50.5 -38.5 92.5 -38.5c47.333 0 86.5 15.167 117.5 45.5s49.5 71.5 55.5 123.5
c6 45.333 -0.833008 80.833 -20.5 106.5s-50.834 38.5 -93.501 38.5c-46.667 0 -85.334 -15.167 -116.001 -45.5s-49.667 -71.5 -57 -123.5z" />
    <glyph glyph-name="uni042F" unicode="&#x42f;" horiz-adv-x="726" 
d="M216 0l-265 0.00195312l220 256c-77.333 46 -108.333 115.667 -93 209c6.66699 43.333 20.5 80.666 41.5 111.999s47 55.666 78 72.999s63.833 30 98.5 38s72 12 112 12h330l-111 -700h-230l32 207h-39zM307 449.002c-3.33301 -20 0.499023 -36.5 11.499 -49.5
s28.167 -19.5 51.5 -19.5h87l21 132h-80c-25.333 0 -46.166 -5.5 -62.499 -16.5s-25.833 -26.5 -28.5 -46.5z" />
    <glyph glyph-name="uni0430" unicode="&#x430;" horiz-adv-x="624" 
d="M360 52c-36 -45.333 -88.665 -67.999 -157.998 -67.999c-71.333 0 -123.333 26.5 -156 79.5s-43 116.5 -31 190.5c10.667 68.667 37.5 126.167 80.5 172.5s99.5 69.5 169.5 69.5c35.333 0 66.166 -8.33301 92.499 -25s46.166 -37.334 59.499 -62.001l11 71h185l-76 -480
h-185zM228.002 236.001c-3.33301 -23.333 -0.000976562 -43 9.99902 -59s25.333 -24 46 -24c28.667 0 53 12.333 73 37l17 104c-3.33301 10 -9.66602 18 -18.999 24s-20.333 9 -33 9c-25.333 0 -46.333 -8.66699 -63 -26s-27 -39 -31 -65z" />
    <glyph glyph-name="uni0431" unicode="&#x431;" horiz-adv-x="581" 
d="M548 194c-10.667 -70.667 -42.3301 -123.333 -94.9971 -158s-116 -52 -190 -52c-36 0 -68.833 5.16699 -98.5 15.5s-56.667 27 -81 50s-41.666 55.667 -51.999 98s-11.5 92.833 -3.5 151.5c20 148.667 83 254.334 189 317.001c44 24.667 91.667 41.667 143 51
s96.166 16.666 134.499 21.999s67.166 16 86.499 32l-23 -194c-20.667 -17.333 -57.334 -30 -110.001 -38s-87.667 -15.667 -105 -23c-22.667 -7.33301 -43.834 -21 -63.501 -41s-32.167 -40.667 -37.5 -62c38 42.667 85.333 64 142 64s101.167 -20.333 133.5 -61
s42.5 -98 30.5 -172zM222.004 207.001c-2.66699 -42 13.999 -63 49.999 -63c22.667 0 40.334 7.83301 53.001 23.5s20 34.5 22 56.5c3.33301 42 -13.667 63 -51 63c-22.667 0 -40.167 -7.83301 -52.5 -23.5s-19.5 -34.5 -21.5 -56.5z" />
    <glyph glyph-name="uni0432" unicode="&#x432;" horiz-adv-x="557" 
d="M324 0l-330.001 -0.000976562l76 480h309c32.667 0 60.167 -4.5 82.5 -13.5s38.5 -21 48.5 -36s16.667 -30 20 -45s3.66602 -30.5 0.999023 -46.5c-7.33301 -46.667 -39 -81 -95 -103c60.667 -19.333 86 -60.666 76 -123.999c-5.33301 -30 -22.166 -56.167 -50.499 -78.5
s-74.166 -33.5 -137.499 -33.5zM221.999 187.999l-10 -68h54c32 0 49.333 12 52 36c1.33301 9.33301 -0.666992 17 -6 23s-14.333 9 -27 9h-63zM248.999 358.999l-10.999 -68h47c32.667 0 50.667 11.667 54 35c1.33301 10 -0.833984 18 -6.50098 24s-15.167 9 -28.5 9h-55z
" />
    <glyph glyph-name="uni0433" unicode="&#x433;" horiz-adv-x="438" 
d="M205 0h-211l76 480h384l-26 -168h-174z" />
    <glyph glyph-name="uni0434" unicode="&#x434;" horiz-adv-x="675" 
d="M139 -123l-188.999 -0.000976562l42 271h65c61.333 88.667 99.666 199.334 114.999 332.001h440l-53 -332h74l-42 -271h-189l20 123h-264zM330.001 330.999c-16 -80.667 -39 -141.667 -69 -183h108l31 183h-70z" />
    <glyph glyph-name="uni0435" unicode="&#x435;" horiz-adv-x="545" 
d="M15 258c6 41.333 19.166 77.832 39.499 109.499s44.166 56.5 71.499 74.5s55.666 31.5 84.999 40.5s58.666 13.5 87.999 13.5c40.667 0 76.334 -6.16699 107.001 -18.5s54.334 -28.833 71.001 -49.5s28.834 -44.167 36.501 -70.5s10.5 -53.666 8.5 -81.999
s-8.33301 -56.166 -19 -83.499h-298c10 -40.667 52 -61 126 -61c56.667 0 106.334 8 149.001 24l-23 -147c-48 -16 -105.667 -24 -173 -24c-38 0 -73.833 5.33301 -107.5 16s-64.167 26.667 -91.5 48s-47.5 50.166 -60.5 86.499s-16.167 77.5 -9.5 123.5zM346.999 288.999
c4.66699 17.333 2.83301 33 -5.5 47s-23.166 21 -44.499 21c-22 0 -40.333 -6.83301 -55 -20.5s-23.334 -29.5 -26.001 -47.5h131z" />
    <glyph glyph-name="uni0436" unicode="&#x436;" horiz-adv-x="861" 
d="M173 0h-223l173 254l-78 226h204l53 -163h32l26 163h203l-25 -163h33l95 163h220l-163 -257l81 -223h-206l-53 153h-34l-24 -153h-203l23 153h-36z" />
    <glyph glyph-name="uni0437" unicode="&#x437;" horiz-adv-x="506" 
d="M457 120c-14 -90.667 -104.667 -136 -272 -136c-82.667 0 -150 14 -202 42l21 137c44.667 -24.667 96 -37 154 -37c56 0 85.667 11.667 89 35c3.33301 18 -13 27 -49 27h-102l17 109h81c42.667 0 65.667 10 69 30c1.33301 8.66699 -2.5 15.334 -11.5 20.001
s-22.833 7 -41.5 7c-61.333 0 -118 -12.333 -170 -37l22 146c54 22 123 33 207 33c42.667 0 79.334 -4.83301 110.001 -14.5s53.5 -22.5 68.5 -38.5s25.167 -32.5 30.5 -49.5s6.66602 -34.5 3.99902 -52.5c-8 -49.333 -39 -82.333 -93 -99
c26 -8.66699 45 -23.834 57 -45.501s15.667 -47.167 11 -76.5z" />
    <glyph glyph-name="uni0438" unicode="&#x438;" horiz-adv-x="604" 
d="M161 0h-167l76 480h198l-29 -185l187 185h167l-76 -480h-198l28 184z" />
    <glyph glyph-name="uni0439" unicode="&#x439;" horiz-adv-x="604" 
d="M517 572c-46.667 -30.667 -103 -46 -169 -46c-64 0 -120.667 15.333 -170 46l21 135c48 -27.333 100.667 -41 158 -41c66 0 126.333 13.667 181 41zM161 0h-167l76 480h198l-29 -185l187 185h167l-76 -480h-198l28 184z" />
    <glyph glyph-name="uni043A" unicode="&#x43a;" horiz-adv-x="595" 
d="M205 0h-211l76 480h211l-25 -154h32l110 154h233l-192 -250l111 -230h-217l-68 162h-35z" />
    <glyph glyph-name="uni043B" unicode="&#x43b;" horiz-adv-x="617" 
d="M314 316c-23.333 -110.667 -54 -193.165 -92 -247.498s-89 -81.5 -153 -81.5c-40.667 0 -76 6.33301 -106 19l27 167c9.33301 -4.66699 22.333 -7 39 -7c28 1.33301 50 26.666 66 75.999s33 128.666 51 237.999h460l-76 -480h-210l50 316h-56z" />
    <glyph glyph-name="uni043C" unicode="&#x43c;" horiz-adv-x="684" 
d="M185 0h-191l76 480h168l95 -206l164 206h176l-76 -480h-191l34 202l-94 -118h-72l-56 121z" />
    <glyph glyph-name="uni043D" unicode="&#x43d;" horiz-adv-x="600" 
d="M205 0h-211l76 480h211l-26 -159h98l25 159h211l-76 -480h-211l26 159h-98z" />
    <glyph glyph-name="uni043E" unicode="&#x43e;" 
d="M563 224c-12.667 -79.333 -47.333 -139.166 -104 -179.499s-124 -60.5 -202 -60.5c-38 0 -73 5.83301 -105 17.5s-59.5 28.5 -82.5 50.5s-39.667 50.667 -50 86s-11.833 74.666 -4.5 117.999c12.667 79.333 46.667 139.166 102 179.499s123 60.5 203 60.5
c49.333 0 93.833 -9.83301 133.5 -29.5s70.167 -50.667 91.5 -93s27.333 -92.166 18 -149.499zM217.001 235c-2.66699 -22 0.666016 -40 9.99902 -54s25 -21 47 -21c24 0 43.5 7.66699 58.5 23s24.167 36 27.5 62c2.66699 22 -0.666016 40 -9.99902 54s-25 21 -47 21
c-24 0 -43.5 -7.66699 -58.5 -23s-24.167 -36 -27.5 -62z" />
    <glyph glyph-name="uni043F" unicode="&#x43f;" horiz-adv-x="596" 
d="M205 0h-211l76 480h515l-76 -480h-210l49 312h-94z" />
    <glyph glyph-name="uni0440" unicode="&#x440;" horiz-adv-x="625" 
d="M247 424c42 48 95 71.999 159 71.999c70 0 121.5 -26.667 154.5 -80s43.833 -116.666 32.5 -189.999c-10.667 -68.667 -37 -126.167 -79 -172.5s-98 -69.5 -168 -69.5c-56.667 0 -101.667 18.667 -135 56l-41 -260h-211l112 700h185zM380 242.999
c3.33301 22 0.499023 41.501 -8.50098 58.501s-24.833 25.5 -47.5 25.5c-28.667 0 -53 -12.667 -73 -38l-17 -105c9.33301 -20.667 27 -31 53 -31c24 0 44.333 8.66699 61 26s27.334 38.666 32.001 63.999z" />
    <glyph glyph-name="uni0441" unicode="&#x441;" horiz-adv-x="491" 
d="M13 243c11.333 84 47.832 147.333 109.499 190s130.5 64 206.5 64c57.333 0 108.666 -11.333 153.999 -34l-26 -163c-29.333 15.333 -62 23 -98 23c-32.667 0 -61.5 -7 -86.5 -21s-39.833 -35.667 -44.5 -65c-4 -26 2.83301 -45.5 20.5 -58.5s41.834 -19.5 72.501 -19.5
c44.667 0 85.334 8.66699 122.001 26l-27 -176c-49.333 -16.667 -99.666 -25 -150.999 -25c-82 0 -147.333 22.5 -196 67.5s-67.334 108.833 -56.001 191.5z" />
    <glyph glyph-name="uni0442" unicode="&#x442;" horiz-adv-x="487" 
d="M303 0h-211l50 312h-124l27 168h457l-26 -168h-124z" />
    <glyph glyph-name="uni0443" unicode="&#x443;" horiz-adv-x="603" 
d="M298 220l103 260h229l-263 -514c-68.667 -134 -162 -201 -280 -201c-40.667 0 -79 6.66699 -115 20l27 168c19.333 -7.33301 40 -11 62 -11c45.333 0 81.333 23.333 108 70l-143 468h213z" />
    <glyph glyph-name="uni0444" unicode="&#x444;" horiz-adv-x="798" 
d="M414 -220h-194.999l33 204c-76.667 4 -138.834 30.667 -186.501 80s-65.167 112.666 -52.5 189.999c11.333 72 45.5 129.167 102.5 171.5s129.167 65.5 216.5 69.5l33 205h195l-33 -204c78 -4 140.667 -30.667 188 -80s65 -112.666 53 -189.999
c-12 -72.667 -46.333 -130.167 -103 -172.5s-129.667 -65.5 -219 -69.5zM212.001 238c-3.33301 -22 0.5 -41.832 11.5 -59.499s29.833 -27.834 56.5 -30.501l29 181c-56 -6 -88.333 -36.333 -97 -91zM498.001 331.001l-27.999 -180.001c56.667 6 89.334 36.333 98.001 91
c3.33301 21.333 -0.833984 40.833 -12.501 58.5s-30.834 27.834 -57.501 30.501z" />
    <glyph glyph-name="uni0445" unicode="&#x445;" horiz-adv-x="570" 
d="M174 0h-230l208 245l-121 235h211l52 -110l81 110h229l-201 -241l128 -239h-221l-49 111z" />
    <glyph glyph-name="uni0446" unicode="&#x446;" horiz-adv-x="649" 
d="M559 -123h-184l20 123h-401l76 480h211l-50 -312h94l50 312h210l-49 -314h68z" />
    <glyph glyph-name="uni0447" unicode="&#x447;" horiz-adv-x="570" 
d="M483 0h-211.002l21 129c-30 -9.33301 -64 -14 -102 -14c-23.333 0 -45.666 3.5 -66.999 10.5s-40.666 17.5 -57.999 31.5s-30 33 -38 57s-9.66699 51.333 -5 82l29 184h211l-26 -165c-4 -22.667 6.33301 -34 31 -34c18.667 0 35.667 4 51 12l29 187h211z" />
    <glyph glyph-name="uni0448" unicode="&#x448;" horiz-adv-x="856" 
d="M769 0h-775l76 480h211l-50 -312h72l49 312h211l-50 -312h72l50 312h210z" />
    <glyph glyph-name="uni0449" unicode="&#x449;" horiz-adv-x="908" 
d="M818 -123h-183l20 123h-661l76 480h211l-50 -312h72l49 312h211l-50 -312h72l50 312h210l-49 -314h68z" />
    <glyph glyph-name="uni044A" unicode="&#x44a;" horiz-adv-x="648" 
d="M390 0l-309.001 0.00195312l52 323h-115l25 157h325l-19 -123h88c62 0 109.333 -18.333 142 -55s44.667 -82.334 36 -137.001c-8 -48.667 -31.167 -88.334 -69.5 -119.001s-90.166 -46 -155.499 -46zM328.999 229.002l-14.998 -94.999h35c37.333 0 59 16.667 65 50
c1.33301 11.333 -1.33398 21.666 -8.00098 30.999s-17.334 14 -32.001 14h-45z" />
    <glyph glyph-name="uni044B" unicode="&#x44b;" horiz-adv-x="851" 
d="M303 0l-309.004 0.00195312l76 480h211l-20 -123h88c62.667 0 110.334 -18.333 143.001 -55s44.334 -82.334 35.001 -137.001c-7.33301 -48.667 -30.166 -88.334 -68.499 -119.001s-90.166 -46 -155.499 -46zM240.996 229.002l-14.998 -94.999h35
c37.333 0 59 16.667 65 50c1.33301 11.333 -1.33398 21.666 -8.00098 30.999s-17.334 14 -32.001 14h-45zM763.998 0.00292969h-211l76 480h211z" />
    <glyph glyph-name="uni044C" unicode="&#x44c;" horiz-adv-x="562" 
d="M303 0l-309.004 0.00195312l76 480h211l-20 -123h88c62.667 0 110.334 -18.333 143.001 -55s44.334 -82.334 35.001 -137.001c-7.33301 -48.667 -30.166 -88.334 -68.499 -119.001s-90.166 -46 -155.499 -46zM240.996 229.002l-14.998 -94.999h35
c37.333 0 59 16.667 65 50c1.33301 11.333 -1.33398 21.666 -8.00098 30.999s-17.334 14 -32.001 14h-45z" />
    <glyph glyph-name="uni044D" unicode="&#x44d;" horiz-adv-x="504" 
d="M471 215c-12 -76.667 -46.5029 -134.333 -103.503 -173s-120.833 -58 -191.5 -58c-70 0 -133 15 -189 45l22 137c38.667 -24 83.334 -36 134.001 -36c61.333 0 105.333 17.333 132 52h-176l19 119h177c-4.66699 15.333 -16.667 27.5 -36 36.5s-41.666 13.5 -66.999 13.5
c-59.333 0 -111.666 -13.667 -156.999 -41l23 148c53.333 25.333 108.333 38 165 38c36 0 70 -5.5 102 -16.5s60.5 -27.5 85.5 -49.5s43.167 -51.5 54.5 -88.5s13.333 -79.167 6 -126.5z" />
    <glyph glyph-name="uni044E" unicode="&#x44e;" horiz-adv-x="853" 
d="M822 224c-12.667 -79.333 -47.3311 -139.168 -103.998 -179.501s-124 -60.5 -202 -60.5c-58.667 0 -109.834 15.5 -153.501 46.5s-70.167 74.5 -79.5 130.5h-54l-26 -161h-209l76 480h209l-25 -161h46c21.333 58.667 57 102.834 107 132.501s107 44.5 171 44.5
c81.333 0 145.666 -24.833 192.999 -74.5s64.333 -115.5 51 -197.5zM475.003 234.998c-2.66699 -22 0.666016 -40 9.99902 -54s25 -21 47 -21c24 0 43.5 7.66699 58.5 23s24.167 36 27.5 62c2.66699 22 -0.666016 40 -9.99902 54s-25 21 -47 21
c-24 0 -43.5 -7.66699 -58.5 -23s-24.167 -36 -27.5 -62z" />
    <glyph glyph-name="uni044F" unicode="&#x44f;" horiz-adv-x="579" 
d="M184 0h-224.001l138 165c-49.333 32.667 -68.666 83.667 -57.999 153c6.66699 44 28.5 82 65.5 114s87.833 48 152.5 48h310l-76 -480h-199l20 123h-25zM239.999 296c-2 -12 0.5 -22.5 7.5 -31.5s18.167 -13.5 33.5 -13.5h52l14 87h-44c-36.667 0 -57.667 -14 -63 -42z
" />
    <glyph glyph-name="uni0451" unicode="&#x451;" horiz-adv-x="545" 
d="M531 609c-2.66699 -27.333 -13.667 -49.333 -33 -66s-42.333 -25 -69 -25c-28.667 0 -51.5 9.33301 -68.5 28s-24.167 43 -21.5 73c2.66699 27.333 13.667 49.333 33 66s42.333 25 69 25c28.667 0 51.5 -9.33301 68.5 -28s24.167 -43 21.5 -73zM301 609
c-2.66699 -27.333 -13.667 -49.333 -33 -66s-42.333 -25 -69 -25c-28.667 0 -51.5 9.33301 -68.5 28s-24.167 43 -21.5 73c2.66699 27.333 13.667 49.333 33 66s42.333 25 69 25c28.667 0 51.5 -9.33301 68.5 -28s24.167 -43 21.5 -73zM15 258
c6 41.333 19.166 77.832 39.499 109.499s44.166 56.5 71.499 74.5s55.666 31.5 84.999 40.5s58.666 13.5 87.999 13.5c40.667 0 76.334 -6.16699 107.001 -18.5s54.334 -28.833 71.001 -49.5s28.834 -44.167 36.501 -70.5s10.5 -53.666 8.5 -81.999
s-8.33301 -56.166 -19 -83.499h-298c10 -40.667 52 -61 126 -61c56.667 0 106.334 8 149.001 24l-23 -147c-48 -16 -105.667 -24 -173 -24c-38 0 -73.833 5.33301 -107.5 16s-64.167 26.667 -91.5 48s-47.5 50.166 -60.5 86.499s-16.167 77.5 -9.5 123.5zM346.999 288.999
c4.66699 17.333 2.83301 33 -5.5 47s-23.166 21 -44.499 21c-22 0 -40.333 -6.83301 -55 -20.5s-23.334 -29.5 -26.001 -47.5h131z" />
    <glyph glyph-name="Wgrave" unicode="&#x1e80;" horiz-adv-x="1111" 
d="M917 700h256l-322 -700h-252l-35 353l-151 -353h-246l-100 700h240l32 -422l177 422h191l40 -422zM724 752h-183l-96 164h207z" />
    <glyph glyph-name="wgrave" unicode="&#x1e81;" horiz-adv-x="846" 
d="M648 480h223l-229 -480h-205l-25 237l-104 -237h-200l-72 480h206l16 -263l108 263h161l23 -263zM562 532h-183l-96 164h207z" />
    <glyph glyph-name="Wacute" unicode="&#x1e82;" horiz-adv-x="1111" 
d="M917 700h256l-322 -700h-252l-35 353l-151 -353h-246l-100 700h240l32 -422l177 422h191l40 -422zM691 752h-194l124 164h217z" />
    <glyph glyph-name="wacute" unicode="&#x1e83;" horiz-adv-x="846" 
d="M648 480h223l-229 -480h-205l-25 237l-104 -237h-200l-72 480h206l16 -263l108 263h161l23 -263zM529 532h-194l124 164h217z" />
    <glyph glyph-name="Wdieresis" unicode="&#x1e84;" horiz-adv-x="1111" 
d="M917 700h256l-322 -700h-252l-35 353l-151 -353h-246l-100 700h240l32 -422l177 422h191l40 -422zM838 829c-2.66699 -27.333 -13.667 -49.333 -33 -66s-42.333 -25 -69 -25c-28.667 0 -51.5 9.33301 -68.5 28s-24.167 43 -21.5 73c2.66699 27.333 13.667 49.333 33 66
s42.333 25 69 25c28.667 0 51.5 -9.33301 68.5 -28s24.167 -43 21.5 -73zM608 829c-2.66699 -27.333 -13.667 -49.333 -33 -66s-42.333 -25 -69 -25c-28.667 0 -51.5 9.33301 -68.5 28s-24.167 43 -21.5 73c2.66699 27.333 13.667 49.333 33 66s42.333 25 69 25
c28.667 0 51.5 -9.33301 68.5 -28s24.167 -43 21.5 -73z" />
    <glyph glyph-name="wdieresis" unicode="&#x1e85;" horiz-adv-x="846" 
d="M648 480h223l-229 -480h-205l-25 237l-104 -237h-200l-72 480h206l16 -263l108 263h161l23 -263zM676 609c-2.66699 -27.333 -13.667 -49.333 -33 -66s-42.333 -25 -69 -25c-28.667 0 -51.5 9.33301 -68.5 28s-24.167 43 -21.5 73c2.66699 27.333 13.667 49.333 33 66
s42.333 25 69 25c28.667 0 51.5 -9.33301 68.5 -28s24.167 -43 21.5 -73zM446 609c-2.66699 -27.333 -13.667 -49.333 -33 -66s-42.333 -25 -69 -25c-28.667 0 -51.5 9.33301 -68.5 28s-24.167 43 -21.5 73c2.66699 27.333 13.667 49.333 33 66s42.333 25 69 25
c28.667 0 51.5 -9.33301 68.5 -28s24.167 -43 21.5 -73z" />
    <glyph glyph-name="Ygrave" unicode="&#x1ef2;" horiz-adv-x="752" 
d="M443 0h-229l39 239l-193 461h246l82 -267l164 267h270l-340 -461zM549 752h-183l-96 164h207z" />
    <glyph glyph-name="ygrave" unicode="&#x1ef3;" horiz-adv-x="603" 
d="M298 220l103 260h229l-263 -514c-68.667 -134 -162 -201 -280 -201c-40.667 0 -79 6.66699 -115 20l27 168c19.333 -7.33301 40 -11 62 -11c45.333 0 81.333 23.333 108 70l-143 468h213zM438 532h-183l-96 164h207z" />
    <glyph glyph-name="endash" unicode="&#x2013;" horiz-adv-x="583" 
d="M518 159h-495l26 163h495z" />
    <glyph glyph-name="emdash" unicode="&#x2014;" horiz-adv-x="789" 
d="M724 159h-701l26 163h701z" />
    <glyph glyph-name="quoteleft" unicode="&#x2018;" horiz-adv-x="302" 
d="M233 393h-205l164 307h161z" />
    <glyph glyph-name="quoteright" unicode="&#x2019;" horiz-adv-x="298" 
d="M197 393h-160l120 307h205z" />
    <glyph glyph-name="quotesinglbase" unicode="&#x201a;" horiz-adv-x="291" 
d="M82 -143h-160l119 307h205z" />
    <glyph glyph-name="quotedblleft" unicode="&#x201c;" horiz-adv-x="539" 
d="M470 393h-205l164 307h161zM233 393h-205l164 307h161z" />
    <glyph glyph-name="quotedblright" unicode="&#x201d;" horiz-adv-x="534" 
d="M433 393h-160l120 307h205zM197 393h-160l120 307h205z" />
    <glyph glyph-name="quotedblbase" unicode="&#x201e;" horiz-adv-x="526" 
d="M318 -143h-160l120 307h205zM82 -143h-160l119 307h205z" />
    <glyph glyph-name="dagger" unicode="&#x2020;" horiz-adv-x="573" 
d="M322 -220h-231l79 497h-147l32 203h147l35 220h231l-35 -220h145l-32 -203h-146z" />
    <glyph glyph-name="daggerdbl" unicode="&#x2021;" horiz-adv-x="624" 
d="M347 -220h-231l30 187h-157l31 196h157l20 121h-158l31 196h157l35 220h231l-35 -220h157l-31 -196h-157l-20 -121h157l-30 -196h-157z" />
    <glyph glyph-name="bullet" unicode="&#x2022;" horiz-adv-x="437" 
d="M59 364c8.66699 50.667 30.001 88.166 64.001 112.499s74.333 36.5 121 36.5c51.333 0 91.666 -15.167 120.999 -45.5s39.333 -74.166 30 -131.499c-8 -51.333 -28.833 -89.333 -62.5 -114s-74.167 -37 -121.5 -37c-50.667 0 -91 15.333 -121 46s-40.333 75 -31 133z" />
    <glyph glyph-name="ellipsis" unicode="&#x2026;" horiz-adv-x="884" 
d="M828 83c-5.33301 -33.333 -19.334 -58.166 -42.001 -74.499s-49.667 -24.5 -81 -24.5c-36 0 -64.333 11 -85 33s-27.667 53.333 -21 94c5.33301 33.333 19.333 58.166 42 74.499s49.334 24.5 80.001 24.5c36 0 64.333 -11.167 85 -33.5s28 -53.5 22 -93.5zM225.999 83
c-5.33301 -33.333 -19.334 -58.166 -42.001 -74.499s-49.667 -24.5 -81 -24.5c-36 0 -64.333 11 -85 33s-27.667 53.333 -21 94c5.33301 33.333 19.333 58.166 42 74.499s49.334 24.5 80.001 24.5c36 0 64.333 -11.167 85 -33.5s28 -53.5 22 -93.5zM526.998 83
c-5.33301 -33.333 -19.334 -58.166 -42.001 -74.499s-49.667 -24.5 -81 -24.5c-36 0 -64.333 11 -85 33s-27.667 53.333 -21 94c5.33301 33.333 19.333 58.166 42 74.499s49.334 24.5 80.001 24.5c36 0 64.333 -11.167 85 -33.5s28 -53.5 22 -93.5z" />
    <glyph glyph-name="perthousand" unicode="&#x2030;" horiz-adv-x="1402" 
d="M288 -60h-130l539 820h130zM463 512c-9.33301 -57.333 -34.501 -101 -75.501 -131s-89.167 -45 -144.5 -45c-59.333 0 -106.833 17.833 -142.5 53.5s-48.167 85.834 -37.5 150.501c9.33301 58 34.333 101.833 75 131.5s89.334 44.5 146.001 44.5
c58 0 104.833 -17.833 140.5 -53.5s48.5 -85.834 38.5 -150.501zM212.999 521c-2.66699 -31.333 10.665 -46.999 39.998 -46.999c18.667 0 32.834 5.66699 42.501 17s15.167 24.666 16.5 39.999c2.66699 31.333 -10.666 47 -39.999 47c-18.667 0 -32.667 -5.5 -42 -16.5
s-15 -24.5 -17 -40.5zM921.998 160.001c-9.33301 -57.333 -34.501 -101.001 -75.501 -131.001s-89.5 -45 -145.5 -45c-59.333 0 -106.666 17.833 -141.999 53.5s-47.666 85.834 -36.999 150.501c9.33301 58 34.333 102 75 132s89 45 145 45
c59.333 0 106.666 -18 141.999 -54s48 -86.333 38 -151zM670.997 170c-3.33301 -32 9.99902 -48.001 39.999 -48.001c34.667 0 54.334 19 59.001 57c2.66699 32 -10.666 48 -39.999 48c-18.667 0 -32.834 -5.66699 -42.501 -17s-15.167 -24.666 -16.5 -39.999zM1358 159.999
c-9.33301 -57.333 -34.501 -101.001 -75.501 -131.001s-89.5 -45 -145.5 -45c-59.333 0 -106.666 17.833 -141.999 53.5s-47.666 85.834 -36.999 150.501c9.33301 58 34.333 102 75 132s89 45 145 45c59.333 0 106.666 -18 141.999 -54s48 -86.333 38 -151zM1108 169.998
c-3.33301 -32 9.99902 -48.001 39.999 -48.001c34.667 0 54.334 19 59.001 57c2.66699 32 -10.666 48 -39.999 48c-18.667 0 -32.834 -5.66699 -42.501 -17s-15.167 -24.666 -16.5 -39.999z" />
    <glyph glyph-name="guilsinglleft" unicode="&#x2039;" horiz-adv-x="394" 
d="M327 32h-207l-105 190l6 41l162 185h214l-181 -208z" />
    <glyph glyph-name="guilsinglright" unicode="&#x203a;" horiz-adv-x="394" 
d="M196 32h-215l182 208l-112 208h207l105 -190l-6 -41z" />
    <glyph glyph-name="fraction" unicode="&#x2044;" horiz-adv-x="194" 
d="M-152 -16h-63l578 732h63z" />
    <glyph glyph-name="Euro" unicode="&#x20ac;" horiz-adv-x="722" 
d="M731 651l-31 -189.999c-40.667 27.333 -91.667 41 -153 41c-67.333 0 -120 -18.667 -158 -56h190l-14 -89h-224c-3.33301 -10 -5 -21.333 -5 -34h224l-14 -89h-188c25.333 -35.333 66.666 -53 123.999 -53c68 0 128.333 16 181 48l-32 -206
c-57.333 -26 -122.666 -39 -195.999 -39c-86 0 -160.333 21.333 -223 64s-99.667 104.667 -111 186h-82l14 89h67c0 11.333 1.33301 22.666 4 33.999h-66l14 89h77c32.667 83.333 85.167 145.833 157.5 187.5s150.833 62.5 235.5 62.5c76 0 145.667 -15 209 -45z" />
    <glyph glyph-name="trademark" unicode="&#x2122;" horiz-adv-x="712" 
d="M435 437h-113l42 263h110l49 -112l81 112h122l-42 -263h-113l18 110l-43 -60h-66l-27 63zM233 437h-115l26 161h-66l16 102h247l-16 -102h-66z" />
    <glyph glyph-name="oneeighth" unicode="&#x215b;" horiz-adv-x="939" 
d="M567 309c4.66699 29.333 21.667 54.8281 51 76.4951s70 32.5 122 32.5c52.667 0 93.5 -13.5 122.5 -40.5s40.833 -57.167 35.5 -90.5c-3.33301 -17.333 -9.83301 -31.666 -19.5 -42.999s-24.167 -22.666 -43.5 -33.999c40.667 -23.333 57 -59.666 49 -108.999
c-4.66699 -31.333 -22.667 -57.666 -54 -78.999s-76.333 -32 -135 -32c-60.667 0 -105.834 13.333 -135.501 40s-41.5 58.334 -35.5 95.001c5.33301 38 29 68.667 71 92c-25.333 22 -34.666 52.667 -27.999 92zM718 150.995c-22.667 7.33301 -35.334 11.667 -38.001 13
c-14 -9.33301 -21.667 -21.333 -23 -36c-1.33301 -9.33301 2 -17.833 10 -25.5s20 -11.5 36 -11.5c28.667 0 45 9 49 27c2.66699 14.667 -8.66602 25.667 -33.999 33zM773 286.996c0.666992 8 -2.33203 15 -8.99902 21s-17 9 -31 9c-26 0 -40.667 -8.66699 -44 -26
c-2.66699 -15.333 7.66602 -27 30.999 -35c3.33301 -1.33301 8.83301 -3 16.5 -5s12.5 -3.33301 14.5 -4c14 14 21.333 27.333 22 40zM218.001 -16.0039h-63l578 732h63zM209.001 679.996h101l-47 -295h69l-18 -113h-280l18 113h77l26 164l-77 -25l19 118z" />
    <glyph glyph-name="threeeighths" unicode="&#x215c;" horiz-adv-x="948" 
d="M576 309c4.66699 29.333 21.667 54.8281 51 76.4951s70 32.5 122 32.5c52.667 0 93.5 -13.5 122.5 -40.5s40.833 -57.167 35.5 -90.5c-3.33301 -17.333 -9.83301 -31.666 -19.5 -42.999s-24.167 -22.666 -43.5 -33.999c40.667 -23.333 57 -59.666 49 -108.999
c-4.66699 -31.333 -22.667 -57.666 -54 -78.999s-76.333 -32 -135 -32c-60.667 0 -105.834 13.333 -135.501 40s-41.5 58.334 -35.5 95.001c5.33301 38 29 68.667 71 92c-25.333 22 -34.666 52.667 -27.999 92zM727 150.995c-22.667 7.33301 -35.334 11.667 -38.001 13
c-14 -9.33301 -21.667 -21.333 -23 -36c-1.33301 -9.33301 2 -17.833 10 -25.5s20 -11.5 36 -11.5c28.667 0 45 9 49 27c2.66699 14.667 -8.66602 25.667 -33.999 33zM782 286.996c0.666992 8 -2.33203 15 -8.99902 21s-17 9 -31 9c-26 0 -40.667 -8.66699 -44 -26
c-2.66699 -15.333 7.66602 -27 30.999 -35c3.33301 -1.33301 8.83301 -3 16.5 -5s12.5 -3.33301 14.5 -4c14 14 21.333 27.333 22 40zM231.001 -16.0039h-63l578 732h63zM382.001 565.996c-6.66699 -38 -32.3301 -63.667 -76.9971 -77c21.333 -6 38.5 -18.667 51.5 -38
s17.167 -43.666 12.5 -72.999c-12 -72.667 -72.333 -109 -181 -109c-60 0 -110.667 10 -152 30l18 114c38.667 -20 79.334 -30 122.001 -30c42 0 64.333 9.33301 67 28c1.33301 7.33301 -0.333984 13.166 -5.00098 17.499s-12.334 6.5 -23.001 6.5h-77l17 103h54
c26.667 0 40.667 7 42 21c1.33301 7.33301 -1.16699 13 -7.5 17s-15.833 6 -28.5 6c-46.667 0 -91.334 -11 -134.001 -33l19 116c44.667 21.333 89.667 32 135 32c44 0 81.167 -11.333 111.5 -34s42.166 -55 35.499 -97z" />
    <glyph glyph-name="fiveeighths" unicode="&#x215d;" horiz-adv-x="946" 
d="M574 309c4.66699 29.333 21.667 54.8281 51 76.4951s70 32.5 122 32.5c52.667 0 93.5 -13.5 122.5 -40.5s40.833 -57.167 35.5 -90.5c-3.33301 -17.333 -9.83301 -31.666 -19.5 -42.999s-24.167 -22.666 -43.5 -33.999c40.667 -23.333 57 -59.666 49 -108.999
c-4.66699 -31.333 -22.667 -57.666 -54 -78.999s-76.333 -32 -135 -32c-60.667 0 -105.834 13.333 -135.501 40s-41.5 58.334 -35.5 95.001c5.33301 38 29 68.667 71 92c-25.333 22 -34.666 52.667 -27.999 92zM725 150.995c-22.667 7.33301 -35.334 11.667 -38.001 13
c-14 -9.33301 -21.667 -21.333 -23 -36c-1.33301 -9.33301 2 -17.833 10 -25.5s20 -11.5 36 -11.5c28.667 0 45 9 49 27c2.66699 14.667 -8.66602 25.667 -33.999 33zM780 286.996c0.666992 8 -2.33203 15 -8.99902 21s-17 9 -31 9c-26 0 -40.667 -8.66699 -44 -26
c-2.66699 -15.333 7.66602 -27 30.999 -35c3.33301 -1.33301 8.83301 -3 16.5 -5s12.5 -3.33301 14.5 -4c14 14 21.333 27.333 22 40zM229.001 -16.0039h-63l578 732h63zM121.001 679.996l277.001 -0.000976562l-18 -114h-161l-8 -40c7.33301 1.33301 17.333 2 30 2
c40.667 0 74.167 -11.667 100.5 -35s35.5 -58.666 27.5 -105.999c-6.66699 -45.333 -28.5 -77.833 -65.5 -97.5s-80.833 -29.5 -131.5 -29.5c-52.667 0 -99.667 10.333 -141 31l17 105c30 -16 65 -24 105 -24c52.667 0 80.667 13 84 39c1.33301 10.667 -4 19.167 -16 25.5
s-29.333 9.5 -52 9.5c-32.667 0 -65.334 -4.66699 -98.001 -14z" />
    <glyph glyph-name="seveneighths" unicode="&#x215e;" horiz-adv-x="887" 
d="M160 -16h-63l578 732h63zM515 309c4.66699 29.333 21.667 54.8281 51 76.4951s70 32.5 122 32.5c52.667 0 93.5 -13.5 122.5 -40.5s40.833 -57.167 35.5 -90.5c-3.33301 -17.333 -9.83301 -31.666 -19.5 -42.999s-24.167 -22.666 -43.5 -33.999
c40.667 -23.333 57 -59.666 49 -108.999c-4.66699 -31.333 -22.667 -57.666 -54 -78.999s-76.333 -32 -135 -32c-60.667 0 -105.834 13.333 -135.501 40s-41.5 58.334 -35.5 95.001c5.33301 38 29 68.667 71 92c-25.333 22 -34.666 52.667 -27.999 92zM666 150.995
c-22.667 7.33301 -35.334 11.667 -38.001 13c-14 -9.33301 -21.667 -21.333 -23 -36c-1.33301 -9.33301 2 -17.833 10 -25.5s20 -11.5 36 -11.5c28.667 0 45 9 49 27c2.66699 14.667 -8.66602 25.667 -33.999 33zM721 286.996c0.666992 8 -2.33203 15 -8.99902 21
s-17 9 -31 9c-26 0 -40.667 -8.66699 -44 -26c-2.66699 -15.333 7.66602 -27 30.999 -35c3.33301 -1.33301 8.83301 -3 16.5 -5s12.5 -3.33301 14.5 -4c14 14 21.333 27.333 22 40zM208.001 269.996h-153l182 296h-165l18 114h329l-14 -89z" />
    <glyph glyph-name="partialdiff" unicode="&#x2202;" horiz-adv-x="576" 
d="M551 288c-16 -99.333 -50.834 -174.834 -104.501 -226.501s-124.5 -77.5 -212.5 -77.5c-73.333 0 -131.166 23.333 -173.499 70s-58.166 106.334 -47.499 179.001c10.667 68 36.667 120 78 156s88.666 54 141.999 54c56 0 100.333 -17 133 -51
c2.66699 16.667 1 32.334 -5 47.001c-10 34 -34.5 59.167 -73.5 75.5s-87.167 22.166 -144.5 17.499l19 184c142 2.66699 247.667 -34.5 317 -111.5s93.333 -182.5 72 -316.5zM212.999 211.999c-2.66699 -17.333 -0.165039 -32.501 7.50195 -45.501s22.167 -19.5 43.5 -19.5
c23.333 0 41 7.33301 53 22s19.333 32.334 22 53.001c2 18 -0.833008 33.5 -8.5 46.5s-21.834 19.5 -42.501 19.5c-24 0 -41.833 -7.5 -53.5 -22.5s-18.834 -32.833 -21.501 -53.5z" />
    <glyph glyph-name="emptyset" unicode="&#x2205;" horiz-adv-x="797" 
d="M772 336c-15.333 -98.667 -62.501 -182 -141.501 -250s-169.167 -102 -270.5 -102c-75.333 0 -141.666 21.667 -198.999 65l-50 -49h-116l109 107c-55.333 71.333 -75.333 157 -60 257c15.333 98.667 62.5 182 141.5 250s169.5 102 271.5 102c76 0 142.333 -22 199 -66
l50 50h116l-109 -107c55.333 -73.333 75 -159 59 -257zM145.999 345c-8 -60 4 -114 36 -162l396 391c-38 25.333 -81.667 38 -131 38c-73.333 0 -139.5 -26 -198.5 -78s-93.167 -115 -102.5 -189zM239.999 126c38 -25.333 81.667 -38 131 -38c73.333 0 139.333 26 198 78
s93 115 103 189c8 60 -4 114 -36 162z" />
    <glyph glyph-name="product" unicode="&#x220f;" horiz-adv-x="825" 
d="M258 -220h-230l116 727h-81l31 193h767l-31 -193h-80l-116 -727h-231l116 727h-145z" />
    <glyph glyph-name="summation" unicode="&#x2211;" horiz-adv-x="596" 
d="M511 0h-525l20 126l242 233l-170 226l19 115h516l-32 -202h-211l96 -128l-7 -45l-129 -123h213z" />
    <glyph glyph-name="minus" unicode="&#x2212;" horiz-adv-x="518" 
d="M466 267h-423l27 168h423z" />
    <glyph glyph-name="radical" unicode="&#x221a;" horiz-adv-x="810" 
d="M401 0h-185l-88 277h-114l32 203h240l56 -227l324 527h238z" />
    <glyph glyph-name="infinity" unicode="&#x221e;" horiz-adv-x="893" 
d="M470 479c69.333 67.333 140 101 212 101c59.333 0 107.833 -21.667 145.5 -65s50.834 -100.333 39.501 -171c-10 -64.667 -37.167 -115.5 -81.5 -152.5s-95.833 -55.5 -154.5 -55.5c-72 0 -133.667 33.667 -185 101c-68.667 -67.333 -139.334 -101 -212.001 -101
c-59.333 0 -107.833 21.667 -145.5 65s-51.167 100.333 -40.5 171c10 64.667 37.333 115.5 82 152.5s96.667 55.5 156 55.5c72.667 0 134 -33.667 184 -101zM368 366c-20 31.333 -43.332 46.332 -69.999 44.999c-14.667 -0.666992 -28.167 -5.83398 -40.5 -15.501
s-19.833 -23.167 -22.5 -40.5c-2.66699 -16 0.333008 -28.667 9 -38s19.667 -13.666 33 -12.999c27.333 0.666992 57.666 21.334 90.999 62.001zM681.001 360.999c2.66699 16 -0.332031 28.499 -8.99902 37.499s-19.334 13.167 -32.001 12.5
c-28 -0.666992 -58.667 -21 -92 -61c20 -32 43.667 -47.333 71 -46c14 0.666992 27 5.83398 39 15.501s19.667 23.5 23 41.5z" />
    <glyph glyph-name="integral" unicode="&#x222b;" horiz-adv-x="503" 
d="M194 591c6 38.667 17.3359 71.832 34.0029 99.499s36.667 48.834 60 63.501s47.333 25.334 72 32.001s50.667 10 78 10c48.667 0 94 -8 136 -24l-27 -172c-20.667 8.66699 -41.667 13 -63 13c-22.667 0 -42 -6.16699 -58 -18.5s-26 -30.833 -30 -55.5l-90 -569
c-4.66699 -31.333 -13.167 -59.333 -25.5 -84s-26.5 -44.5 -42.5 -59.5s-34.333 -27.333 -55 -37s-40.834 -16.334 -60.501 -20.001s-40.5 -5.5 -62.5 -5.5c-50.667 0 -95.334 7 -134.001 21l28 176c18 -8 37 -12 57 -12c23.333 0 43.666 6 60.999 18s28 30 32 54z" />
    <glyph glyph-name="approxequal" unicode="&#x2248;" horiz-adv-x="622" 
d="M613 579c2 -69.333 -12.333 -121.333 -43 -156s-70.334 -52 -119.001 -52c-29.333 0 -66.5 8 -111.5 24s-71.5 24 -79.5 24c-20.667 0 -31.334 -14.333 -32.001 -43h-163c-1.33301 69.333 13.334 121.333 44.001 156s69.667 52 117 52c30.667 0 68.167 -8 112.5 -24
s70.833 -24 79.5 -24c20.667 0 31.334 14.333 32.001 43h163zM579 344c2 -69.333 -12.1689 -121.167 -42.502 -155.5s-70.166 -51.5 -119.499 -51.5c-29.333 0 -66.5 8 -111.5 24s-71.5 24 -79.5 24c-20.667 0 -31.334 -14.333 -32.001 -43h-163
c-1.33301 69.333 13.334 121.333 44.001 156s69.667 52 117 52c30.667 0 68.167 -8 112.5 -24s70.833 -24 79.5 -24c20.667 0 31.334 14 32.001 42h163z" />
    <glyph glyph-name="notequal" unicode="&#x2260;" horiz-adv-x="626" 
d="M181 56h-123l68 100h-86l26 162h172l44 64h-206l26 162h292l70 100h123l-69 -100h86l-26 -162h-172l-44 -64h206l-25 -162h-293z" />
    <glyph glyph-name="lessequal" unicode="&#x2264;" horiz-adv-x="524" 
d="M482 361l-29 -180l-405 128l34 211l445 126l-29 -183l-268 -52zM424 0h-425l26 163h425z" />
    <glyph glyph-name="greaterequal" unicode="&#x2265;" horiz-adv-x="522" 
d="M482 315l-445 -127l29 184l263 53l-246 52l28 178l405 -130zM432 0h-425l26 163h425z" />
    <glyph glyph-name="lozenge" unicode="&#x25ca;" horiz-adv-x="627" 
d="M387 0h-237l-115 350l223 350h236l117 -350zM237 332l51 -155l121 190l-51 155z" />
    <glyph glyph-name=".null" horiz-adv-x="0" 
 />
    <glyph glyph-name="nonmarkingreturn" horiz-adv-x="333" 
 />
    <glyph glyph-name="i.loclTRK" horiz-adv-x="293" 
d="M206 0h-211l76 480h211zM301 617c-9.33301 -58.667 -45.668 -88 -109.001 -88c-32.667 0 -58.5 9.83301 -77.5 29.5s-25.5 48.167 -19.5 85.5c4.66699 30 17 52.167 37 66.5s44.333 21.5 73 21.5c32.667 0 58.334 -10 77.001 -30s25 -48.333 19 -85z" />
    <glyph glyph-name="a.ss01" horiz-adv-x="574" 
d="M502 148c-2.66699 -14.667 4 -21.999 20 -21.999c8 0 15.667 1 23 3l-19 -127c-28 -10 -60.667 -15 -98 -15c-58 0 -97.333 18.333 -118 55c-42.667 -38.667 -97.334 -58 -164.001 -58c-47.333 0 -86 13.667 -116 41s-42.333 63.666 -37 108.999
c6.66699 52.667 31.334 90.667 74.001 114s92.667 35 150 35c42 0 77.333 -3 106 -9l3 17c4.66699 32.667 -26.666 49 -93.999 49c-52.667 0 -110 -12.333 -172 -37l26 165c62.667 18.667 123 28 181 28c93.333 0 162.166 -18 206.499 -54s59.5 -98 45.5 -186zM267 188.001
c-43.333 0 -66.999 -14 -70.999 -42c-2 -10.667 0.666992 -20 8 -28s17.666 -12 30.999 -12c24.667 0 46.667 9 66 27l8 50c-12 3.33301 -26 5 -42 5z" />
    <glyph glyph-name="aacute.ss01" horiz-adv-x="574" 
d="M502 148c-2.66699 -14.667 4 -21.999 20 -21.999c8 0 15.667 1 23 3l-19 -127c-28 -10 -60.667 -15 -98 -15c-58 0 -97.333 18.333 -118 55c-42.667 -38.667 -97.334 -58 -164.001 -58c-47.333 0 -86 13.667 -116 41s-42.333 63.666 -37 108.999
c6.66699 52.667 31.334 90.667 74.001 114s92.667 35 150 35c42 0 77.333 -3 106 -9l3 17c4.66699 32.667 -26.666 49 -93.999 49c-52.667 0 -110 -12.333 -172 -37l26 165c62.667 18.667 123 28 181 28c93.333 0 162.166 -18 206.499 -54s59.5 -98 45.5 -186zM267 188.001
c-43.333 0 -66.999 -14 -70.999 -42c-2 -10.667 0.666992 -20 8 -28s17.666 -12 30.999 -12c24.667 0 46.667 9 66 27l8 50c-12 3.33301 -26 5 -42 5zM376.001 532.001h-194l124 164h217z" />
    <glyph glyph-name="abreve.ss01" horiz-adv-x="574" 
d="M502 148c-2.66699 -14.667 4 -21.999 20 -21.999c8 0 15.667 1 23 3l-19 -127c-28 -10 -60.667 -15 -98 -15c-58 0 -97.333 18.333 -118 55c-42.667 -38.667 -97.334 -58 -164.001 -58c-47.333 0 -86 13.667 -116 41s-42.333 63.666 -37 108.999
c6.66699 52.667 31.334 90.667 74.001 114s92.667 35 150 35c42 0 77.333 -3 106 -9l3 17c4.66699 32.667 -26.666 49 -93.999 49c-52.667 0 -110 -12.333 -172 -37l26 165c62.667 18.667 123 28 181 28c93.333 0 162.166 -18 206.499 -54s59.5 -98 45.5 -186zM267 188.001
c-43.333 0 -66.999 -14 -70.999 -42c-2 -10.667 0.666992 -20 8 -28s17.666 -12 30.999 -12c24.667 0 46.667 9 66 27l8 50c-12 3.33301 -26 5 -42 5zM488.001 570.001c-54.667 -34 -115 -51 -181 -51c-74 0 -134.333 17 -181 51l23 143c45.333 -30.667 101.333 -46 168 -46
c74 0 138.333 15.333 193 46z" />
    <glyph glyph-name="acircumflex.ss01" horiz-adv-x="574" 
d="M502 148c-2.66699 -14.667 4 -21.999 20 -21.999c8 0 15.667 1 23 3l-19 -127c-28 -10 -60.667 -15 -98 -15c-58 0 -97.333 18.333 -118 55c-42.667 -38.667 -97.334 -58 -164.001 -58c-47.333 0 -86 13.667 -116 41s-42.333 63.666 -37 108.999
c6.66699 52.667 31.334 90.667 74.001 114s92.667 35 150 35c42 0 77.333 -3 106 -9l3 17c4.66699 32.667 -26.666 49 -93.999 49c-52.667 0 -110 -12.333 -172 -37l26 165c62.667 18.667 123 28 181 28c93.333 0 162.166 -18 206.499 -54s59.5 -98 45.5 -186zM267 188.001
c-43.333 0 -66.999 -14 -70.999 -42c-2 -10.667 0.666992 -20 8 -28s17.666 -12 30.999 -12c24.667 0 46.667 9 66 27l8 50c-12 3.33301 -26 5 -42 5zM231.001 698.001h185l101 -171h-168l-35 60l-55 -60h-183z" />
    <glyph glyph-name="adieresis.ss01" horiz-adv-x="574" 
d="M502 148c-2.66699 -14.667 4 -21.999 20 -21.999c8 0 15.667 1 23 3l-19 -127c-28 -10 -60.667 -15 -98 -15c-58 0 -97.333 18.333 -118 55c-42.667 -38.667 -97.334 -58 -164.001 -58c-47.333 0 -86 13.667 -116 41s-42.333 63.666 -37 108.999
c6.66699 52.667 31.334 90.667 74.001 114s92.667 35 150 35c42 0 77.333 -3 106 -9l3 17c4.66699 32.667 -26.666 49 -93.999 49c-52.667 0 -110 -12.333 -172 -37l26 165c62.667 18.667 123 28 181 28c93.333 0 162.166 -18 206.499 -54s59.5 -98 45.5 -186zM267 188.001
c-43.333 0 -66.999 -14 -70.999 -42c-2 -10.667 0.666992 -20 8 -28s17.666 -12 30.999 -12c24.667 0 46.667 9 66 27l8 50c-12 3.33301 -26 5 -42 5zM523.001 609.001c-2.66699 -27.333 -13.667 -49.333 -33 -66s-42.333 -25 -69 -25c-28.667 0 -51.5 9.33301 -68.5 28
s-24.167 43 -21.5 73c2.66699 27.333 13.667 49.333 33 66s42.333 25 69 25c28.667 0 51.5 -9.33301 68.5 -28s24.167 -43 21.5 -73zM293.001 609.001c-2.66699 -27.333 -13.667 -49.333 -33 -66s-42.333 -25 -69 -25c-28.667 0 -51.5 9.33301 -68.5 28s-24.167 43 -21.5 73
c2.66699 27.333 13.667 49.333 33 66s42.333 25 69 25c28.667 0 51.5 -9.33301 68.5 -28s24.167 -43 21.5 -73z" />
    <glyph glyph-name="agrave.ss01" horiz-adv-x="574" 
d="M502 148c-2.66699 -14.667 4 -21.999 20 -21.999c8 0 15.667 1 23 3l-19 -127c-28 -10 -60.667 -15 -98 -15c-58 0 -97.333 18.333 -118 55c-42.667 -38.667 -97.334 -58 -164.001 -58c-47.333 0 -86 13.667 -116 41s-42.333 63.666 -37 108.999
c6.66699 52.667 31.334 90.667 74.001 114s92.667 35 150 35c42 0 77.333 -3 106 -9l3 17c4.66699 32.667 -26.666 49 -93.999 49c-52.667 0 -110 -12.333 -172 -37l26 165c62.667 18.667 123 28 181 28c93.333 0 162.166 -18 206.499 -54s59.5 -98 45.5 -186zM267 188.001
c-43.333 0 -66.999 -14 -70.999 -42c-2 -10.667 0.666992 -20 8 -28s17.666 -12 30.999 -12c24.667 0 46.667 9 66 27l8 50c-12 3.33301 -26 5 -42 5zM409.001 532.001h-183l-96 164h207z" />
    <glyph glyph-name="amacron.ss01" horiz-adv-x="574" 
d="M502 148c-2.66699 -14.667 4 -21.999 20 -21.999c8 0 15.667 1 23 3l-19 -127c-28 -10 -60.667 -15 -98 -15c-58 0 -97.333 18.333 -118 55c-42.667 -38.667 -97.334 -58 -164.001 -58c-47.333 0 -86 13.667 -116 41s-42.333 63.666 -37 108.999
c6.66699 52.667 31.334 90.667 74.001 114s92.667 35 150 35c42 0 77.333 -3 106 -9l3 17c4.66699 32.667 -26.666 49 -93.999 49c-52.667 0 -110 -12.333 -172 -37l26 165c62.667 18.667 123 28 181 28c93.333 0 162.166 -18 206.499 -54s59.5 -98 45.5 -186zM267 188.001
c-43.333 0 -66.999 -14 -70.999 -42c-2 -10.667 0.666992 -20 8 -28s17.666 -12 30.999 -12c24.667 0 46.667 9 66 27l8 50c-12 3.33301 -26 5 -42 5zM143.001 682.001h363l-23 -145h-363z" />
    <glyph glyph-name="aogonek.ss01" horiz-adv-x="575" 
d="M545 129l-18.998 -126.999c-16.667 -12 -31.334 -26 -44.001 -42s-19 -29 -19 -39c0 -12.667 7.33301 -19 22 -19c9.33301 0 17.666 2 24.999 6l-20 -128c-24 -9.33301 -51.667 -14 -83 -14c-38.667 0 -69.5 9.16699 -92.5 27.5s-33.167 43.5 -30.5 75.5
c3.33301 46.667 32 88.667 86 126c-28 9.33301 -48 25 -60 47c-42.667 -38.667 -97.334 -58 -164.001 -58c-47.333 0 -86 13.667 -116 41s-42.333 63.666 -37 108.999c6.66699 52.667 31.334 90.667 74.001 114s92.667 35 150 35c42 0 77.333 -3 106 -9l3 17
c4.66699 32.667 -26.666 49 -93.999 49c-52.667 0 -110 -12.333 -172 -37l26 165c62.667 18.667 123 28 181 28c93.333 0 162.166 -18 206.499 -54s59.5 -98 45.5 -186l-17 -108c-2.66699 -14.667 4 -22 20 -22c8 0 15.667 1 23 3zM235.002 106.001
c24.667 0 46.668 9 66.001 27l8 50c-12 3.33301 -26 5 -42 5c-43.333 0 -67 -14 -71 -42c-2 -10.667 0.666992 -20 8 -28s17.666 -12 30.999 -12z" />
    <glyph glyph-name="aring.ss01" horiz-adv-x="574" 
d="M502 148c-2.66699 -14.667 4 -21.999 20 -21.999c8 0 15.667 1 23 3l-19 -127c-28 -10 -60.667 -15 -98 -15c-58 0 -97.333 18.333 -118 55c-42.667 -38.667 -97.334 -58 -164.001 -58c-47.333 0 -86 13.667 -116 41s-42.333 63.666 -37 108.999
c6.66699 52.667 31.334 90.667 74.001 114s92.667 35 150 35c42 0 77.333 -3 106 -9l3 17c4.66699 32.667 -26.666 49 -93.999 49c-52.667 0 -110 -12.333 -172 -37l26 165c62.667 18.667 123 28 181 28c93.333 0 162.166 -18 206.499 -54s59.5 -98 45.5 -186zM267 188.001
c-43.333 0 -66.999 -14 -70.999 -42c-2 -10.667 0.666992 -20 8 -28s17.666 -12 30.999 -12c24.667 0 46.667 9 66 27l8 50c-12 3.33301 -26 5 -42 5zM459.001 628.001c-6 -38 -23 -66.999 -51 -86.999s-61.333 -30 -100 -30c-39.333 0 -72.166 13.167 -98.499 39.5
s-36.166 61.5 -29.499 105.5c6 36 23.167 64.333 51.5 85s61.166 31 98.499 31c40 0 73.167 -13.333 99.5 -40s36.166 -61.334 29.499 -104.001zM285.001 643.002c-1.33301 -10.667 0.666016 -19.333 5.99902 -26s13.333 -10 24 -10c22 0 34.667 11 38 33
c2 10 0.333008 18.333 -5 25s-13.666 10 -24.999 10c-10 0 -18.5 -3 -25.5 -9s-11.167 -13.667 -12.5 -23z" />
    <glyph glyph-name="atilde.ss01" horiz-adv-x="574" 
d="M502 148c-2.66699 -14.667 4 -21.999 20 -21.999c8 0 15.667 1 23 3l-19 -127c-28 -10 -60.667 -15 -98 -15c-58 0 -97.333 18.333 -118 55c-42.667 -38.667 -97.334 -58 -164.001 -58c-47.333 0 -86 13.667 -116 41s-42.333 63.666 -37 108.999
c6.66699 52.667 31.334 90.667 74.001 114s92.667 35 150 35c42 0 77.333 -3 106 -9l3 17c4.66699 32.667 -26.666 49 -93.999 49c-52.667 0 -110 -12.333 -172 -37l26 165c62.667 18.667 123 28 181 28c93.333 0 162.166 -18 206.499 -54s59.5 -98 45.5 -186zM267 188.001
c-43.333 0 -66.999 -14 -70.999 -42c-2 -10.667 0.666992 -20 8 -28s17.666 -12 30.999 -12c24.667 0 46.667 9 66 27l8 50c-12 3.33301 -26 5 -42 5zM522.001 698.001c6.66699 -52 -2.33203 -94.833 -26.999 -128.5s-58.334 -50.5 -101.001 -50.5
c-24 0 -51.5 6.66699 -82.5 20s-51.167 20 -60.5 20c-8.66699 0 -15.334 -3.66699 -20.001 -11s-6.33398 -15 -5.00098 -23h-134c-6.66699 51.333 2.33301 94 27 128s58 51 100 51c24.667 0 52.5 -6.66699 83.5 -20s50.833 -20 59.5 -20s15.334 3.66699 20.001 11
s6.33398 15 5.00098 23h135z" />
    <glyph glyph-name="ae.ss01" horiz-adv-x="832" 
d="M367 56c-60 -48 -130.333 -72.001 -211 -72.001c-51.333 0 -92.5 13.5 -123.5 40.5s-43.833 63.833 -38.5 110.5c6.66699 52 31.167 89.667 73.5 113s90.833 35 145.5 35c42 0 77.667 -3 107 -9l2 17c5.33301 32.667 -24 49 -88 49c-52.667 0 -112 -12.333 -178 -37
l26 165c64 18.667 126.333 28 187 28c78.667 0 132.667 -17.333 162 -52c46 34.667 98 52 156 52c38.667 0 73 -5.83301 103 -17.5s53.667 -27.5 71 -47.5s30.166 -43 38.499 -69s11.5 -53.667 9.5 -83s-8.33301 -58.666 -19 -87.999h-298c9.33301 -40 51 -60 125 -60
c55.333 0 105 7.66699 149 23l-23 -146c-47.333 -16.667 -104.666 -25 -171.999 -25c-91.333 0 -159.333 24.333 -204 73zM198 146.999c-2 -12 1 -21.833 9 -29.5s18.667 -11.5 32 -11.5c30 0 58.333 11.667 85 35c-4 12 -6 25.667 -6 41c-17.333 4 -34.333 6 -51 6
c-42 0 -65 -13.667 -69 -41zM584 356.999c-22 0 -40.334 -6.83301 -55.001 -20.5s-23.334 -29.5 -26.001 -47.5h131c4.66699 17.333 2.83398 33 -5.49902 47s-23.166 21 -44.499 21z" />
    <glyph glyph-name="y.ss01" 
d="M511 24c-7.33301 -47.333 -21.3359 -88.333 -42.0029 -123s-45.667 -61.667 -75 -81s-60.666 -33.5 -93.999 -42.5s-68.666 -13.5 -105.999 -13.5c-79.333 0 -148.333 12 -207 36l21 171c36.667 -24 86.334 -36 149.001 -36c37.333 0 69.333 7 96 21s42 34.333 46 61
l2 15c-35.333 -24.667 -74.666 -37 -117.999 -37c-58.667 0 -102.834 18.833 -132.501 56.5s-40.167 83.5 -31.5 137.5l46 291h211l-44 -275c-5.33301 -30 6 -45 34 -45c23.333 0 43.333 9 60 27l46 293h211z" />
    <glyph glyph-name="yacute.ss01" 
d="M511 24c-7.33301 -47.333 -21.3359 -88.333 -42.0029 -123s-45.667 -61.667 -75 -81s-60.666 -33.5 -93.999 -42.5s-68.666 -13.5 -105.999 -13.5c-79.333 0 -148.333 12 -207 36l21 171c36.667 -24 86.334 -36 149.001 -36c37.333 0 69.333 7 96 21s42 34.333 46 61
l2 15c-35.333 -24.667 -74.666 -37 -117.999 -37c-58.667 0 -102.834 18.833 -132.501 56.5s-40.167 83.5 -31.5 137.5l46 291h211l-44 -275c-5.33301 -30 6 -45 34 -45c23.333 0 43.333 9 60 27l46 293h211zM400.997 532h-194l124 164h217z" />
    <glyph glyph-name="ycircumflex.ss01" 
d="M511 24c-7.33301 -47.333 -21.3359 -88.333 -42.0029 -123s-45.667 -61.667 -75 -81s-60.666 -33.5 -93.999 -42.5s-68.666 -13.5 -105.999 -13.5c-79.333 0 -148.333 12 -207 36l21 171c36.667 -24 86.334 -36 149.001 -36c37.333 0 69.333 7 96 21s42 34.333 46 61
l2 15c-35.333 -24.667 -74.666 -37 -117.999 -37c-58.667 0 -102.834 18.833 -132.501 56.5s-40.167 83.5 -31.5 137.5l46 291h211l-44 -275c-5.33301 -30 6 -45 34 -45c23.333 0 43.333 9 60 27l46 293h211zM255.997 698h185l101 -171h-168l-35 60l-55 -60h-183z" />
    <glyph glyph-name="ydieresis.ss01" 
d="M511 24c-7.33301 -47.333 -21.3359 -88.333 -42.0029 -123s-45.667 -61.667 -75 -81s-60.666 -33.5 -93.999 -42.5s-68.666 -13.5 -105.999 -13.5c-79.333 0 -148.333 12 -207 36l21 171c36.667 -24 86.334 -36 149.001 -36c37.333 0 69.333 7 96 21s42 34.333 46 61
l2 15c-35.333 -24.667 -74.666 -37 -117.999 -37c-58.667 0 -102.834 18.833 -132.501 56.5s-40.167 83.5 -31.5 137.5l46 291h211l-44 -275c-5.33301 -30 6 -45 34 -45c23.333 0 43.333 9 60 27l46 293h211zM547.997 609c-2.66699 -27.333 -13.667 -49.333 -33 -66
s-42.333 -25 -69 -25c-28.667 0 -51.5 9.33301 -68.5 28s-24.167 43 -21.5 73c2.66699 27.333 13.667 49.333 33 66s42.333 25 69 25c28.667 0 51.5 -9.33301 68.5 -28s24.167 -43 21.5 -73zM317.997 609c-2.66699 -27.333 -13.667 -49.333 -33 -66s-42.333 -25 -69 -25
c-28.667 0 -51.5 9.33301 -68.5 28s-24.167 43 -21.5 73c2.66699 27.333 13.667 49.333 33 66s42.333 25 69 25c28.667 0 51.5 -9.33301 68.5 -28s24.167 -43 21.5 -73z" />
    <glyph glyph-name="ygrave.ss01" 
d="M511 24c-7.33301 -47.333 -21.3359 -88.333 -42.0029 -123s-45.667 -61.667 -75 -81s-60.666 -33.5 -93.999 -42.5s-68.666 -13.5 -105.999 -13.5c-79.333 0 -148.333 12 -207 36l21 171c36.667 -24 86.334 -36 149.001 -36c37.333 0 69.333 7 96 21s42 34.333 46 61
l2 15c-35.333 -24.667 -74.666 -37 -117.999 -37c-58.667 0 -102.834 18.833 -132.501 56.5s-40.167 83.5 -31.5 137.5l46 291h211l-44 -275c-5.33301 -30 6 -45 34 -45c23.333 0 43.333 9 60 27l46 293h211zM433.997 532h-183l-96 164h207z" />
    <glyph glyph-name="f_b" horiz-adv-x="1027" 
d="M678 447c39.333 32.667 83.3311 48.999 131.998 48.999c69.333 0 120.5 -26.667 153.5 -80s43.5 -116.666 31.5 -189.999c-10.667 -68 -37.167 -125.333 -79.5 -172s-97.833 -70 -166.5 -70c-36.667 0 -68.167 7.83301 -94.5 23.5s-46.166 35.5 -59.499 59.5l-13 -67
h-185l87 547c-21.333 6 -40.666 8.66699 -57.999 8c-24 0 -44.333 -5.66699 -61 -17s-27 -28 -31 -50l-2 -8h90l-27 -168h-89l-50 -312h-210l49 312h-68l27 168h68l6 38c10.667 68.667 40.5 120.667 89.5 156s106.167 53 171.5 53c53.333 0 105 -8.66699 155 -26l178 19z
M687.998 152.999c24.667 0 45.5 8.33301 62.5 25s27.5 37.667 31.5 63c3.33301 23.333 0.5 43.5 -8.5 60.5s-24.5 25.5 -46.5 25.5c-27.333 0 -52 -12.333 -74 -37l-16 -105c8.66699 -21.333 25.667 -32 51 -32z" />
    <glyph glyph-name="f_f_b" horiz-adv-x="1376" 
d="M1027 447c39.333 32.667 83.333 48.9971 132 48.9971c69.333 0 120.5 -26.667 153.5 -80s43.5 -116.666 31.5 -189.999c-10.667 -68 -37.167 -125.333 -79.5 -172s-97.833 -70 -166.5 -70c-36.667 0 -68.167 7.83301 -94.5 23.5s-46.166 35.5 -59.499 59.5l-13 -67h-185
l88 552c-20 6.66699 -38.667 9.33398 -56 8.00098c-24.667 0 -45.834 -6 -63.501 -18s-28.167 -28.667 -31.5 -50l-2 -12h90l-27 -168h-89l-50 -312h-210l49 312h-138l-50 -312h-210l49 312h-68l27 168h68l5 30c10 64.667 39 113.834 87 147.501s105 50.5 171 50.5
c64 0 121 -13 171 -39c47.333 41.333 108.333 62 183 62c54 0 106 -8.66699 156 -26l177 19zM471 479.997l3.99902 28c0.666992 6.66699 2.66699 16.667 6 30c-16 7.33301 -37.333 11 -64 11c-24 0 -43.167 -5.66699 -57.5 -17s-23.166 -26 -26.499 -44l-1 -8h139z
M1037 152.997c24.667 0 45.5 8.33301 62.5 25s27.5 37.667 31.5 63c3.33301 23.333 0.5 43.5 -8.5 60.5s-24.5 25.5 -46.5 25.5c-27.333 0 -52 -12.333 -74 -37l-16 -105c8.66699 -21.333 25.667 -32 51 -32z" />
    <glyph glyph-name="f_f_h" horiz-adv-x="1346" 
d="M1029 456c43.333 26.667 85 39.9971 125 39.9971c60 0 103.333 -19.167 130 -57.5s36 -83.166 28 -134.499l-48 -304h-211l44 278c4.66699 27.333 -6.33301 41 -33 41c-21.333 0 -41.666 -9 -60.999 -27l-46 -292h-211l87 552c-20 6.66699 -38.333 9.33398 -55 8.00098
c-24.667 0 -45.834 -6 -63.501 -18s-28.167 -28.667 -31.5 -50l-2 -12h90l-27 -168h-89l-50 -312h-210l49 312h-138l-50 -312h-210l49 312h-68l27 168h68l5 30c10 64.667 39 113.834 87 147.501s105 50.5 171 50.5c64 0 121 -13 171 -39c47.333 41.333 108.333 62 183 62
c54 0 106 -8.66699 156 -26l177 19zM471 479.997l3.99902 32l6 26c-16 7.33301 -37.333 11 -64 11c-24 0 -43.167 -5.66699 -57.5 -17s-23.166 -26 -26.499 -44l-1 -8h139z" />
    <glyph glyph-name="f_f_j" horiz-adv-x="1032" 
d="M934 -64c-10 -60.667 -33.998 -104.5 -71.998 -131.5s-84.333 -40.5 -139 -40.5c-40.667 0 -75 7.33301 -103 22l27 170c8 -4 18.667 -6 32 -6c31.333 0 49.666 19 54.999 57l49 305h-128l-50 -312h-210l49 312h-138l-50 -312h-210l49 312h-68l27 168h68l5 30
c10 64.667 39.333 113.834 88 147.501s106.667 50.5 174 50.5c63.333 0 118.666 -13 165.999 -39c52 44.667 122 67 210 67c70 0 135 -11.667 195 -35l-26 -160c-47.333 16.667 -92.333 25 -135 25c-33.333 0 -60 -6.33301 -80 -19s-31.667 -30.334 -35 -53.001l-3 -14h339z
M333.002 488l-1.00195 -8h139l4 28c0.666992 7.33301 2.66699 17.333 6 30c-17.333 7.33301 -38.666 11 -63.999 11c-24 0 -43.167 -5.66699 -57.5 -17s-23.166 -26 -26.499 -44z" />
    <glyph glyph-name="f_f_k" horiz-adv-x="1348" 
d="M1152 480l233.001 -0.00195312l-193 -251l110 -229h-217l-68 162h-35l-25 -162h-211l87 552c-20 6.66699 -38.333 9.33398 -55 8.00098c-24.667 0 -45.834 -6 -63.501 -18s-28.167 -28.667 -31.5 -50l-2 -12h90l-27 -168h-89l-50 -312h-210l49 312h-138l-50 -312h-210
l49 312h-68l27 168h68l5 30c10 64.667 39 113.834 87 147.501s105 50.5 171 50.5c64 0 121 -13 171 -39c47.333 41.333 108.333 62 183 62c54 0 106 -8.66699 156 -26l177 19l-63 -398h33zM471.001 479.998l3.99902 28c0.666992 7.33301 2.66699 17.333 6 30
c-16 7.33301 -37.333 11 -64 11c-24 0 -43.167 -5.66699 -57.5 -17s-23.166 -26 -26.499 -44l-1 -8h139z" />
    <glyph glyph-name="f_h" horiz-adv-x="997" 
d="M680 456c43.333 26.667 84.998 39.999 124.998 39.999c60 0 103.333 -19.167 130 -57.5s36 -83.166 28 -134.499l-48 -304h-211l44 278c4.66699 27.333 -6.33301 41 -33 41c-21.333 0 -41.666 -9 -60.999 -27l-46 -292h-211l87 547c-21.333 6 -40.666 8.66699 -57.999 8
c-24 0 -44.333 -5.66699 -61 -17s-27 -28 -31 -50l-2 -8h90l-27 -168h-89l-50 -312h-210l49 312h-68l27 168h68l6 38c10.667 68.667 40.5 120.667 89.5 156s106.167 53 171.5 53c53.333 0 105 -8.66699 155 -26l178 19z" />
    <glyph glyph-name="f_i" horiz-adv-x="673" 
d="M256 0l-210.002 -0.000976562l49 312h-68l27 168h68l5 34c12 72.667 44.333 126.334 97 161.001s116.334 52 191.001 52c68.667 0 133.667 -11.667 195 -35l-26 -160c-47.333 16.667 -92.666 25 -135.999 25c-33.333 0 -59.833 -6.33301 -79.5 -19s-31.167 -30 -34.5 -52
l-2 -6h330l-76 -480h-211l50 312h-119z" />
    <glyph glyph-name="f_j" horiz-adv-x="674" 
d="M576 -64c-9.33301 -60 -33.168 -103.668 -71.501 -131.001s-84.5 -41 -138.5 -41c-41.333 0 -76 7.33301 -104 22l27 170c8 -4 18.667 -6 32 -6c31.333 0 49.666 19 54.999 57l49 305h-119l-50 -312h-210l49 312h-68l27 168h68l5 34c12 72.667 44.333 126.334 97 161.001
s116.334 52 191.001 52c68.667 0 133.667 -11.667 195 -35l-26 -160c-47.333 16.667 -92.666 25 -135.999 25c-33.333 0 -59.833 -6.33301 -79.5 -19s-31.167 -30 -34.5 -52l-2 -6h330z" />
    <glyph glyph-name="f_k" horiz-adv-x="999" 
d="M803 480h232.999l-193 -251l110 -229h-217l-68 162h-35l-25 -162h-211l87 547c-21.333 6 -40.666 8.66699 -57.999 8c-24 0 -44.333 -5.66699 -61 -17s-27 -28 -31 -50l-2 -8h90l-27 -168h-89l-50 -312h-210l49 312h-68l27 168h68l6 38
c10.667 68.667 40.5 120.667 89.5 156s106.167 53 171.5 53c53.333 0 105 -8.66699 155 -26l178 19l-63 -394h34z" />
    <glyph glyph-name="f_l" horiz-adv-x="695" 
d="M389 727c53.333 0 104.999 -8.66699 154.999 -26l178 19l-114 -720h-211l87 547c-21.333 6 -40.666 8.66699 -57.999 8c-24 0 -44.333 -5.66699 -61 -17s-27 -28 -31 -50l-2 -8h90l-27 -168h-89l-50 -312h-210l49 312h-68l27 168h68l6 38
c10.667 68.667 40.5 120.667 89.5 156s106.167 53 171.5 53z" />
    <glyph glyph-name="uni0414.loclBGR" horiz-adv-x="880" 
d="M162 -136h-205l52 330h86l283 506h251l125 -506h87l-52 -330h-205l21 136h-422zM477 465l-142 -271h197z" />
    <glyph glyph-name="uni041B.loclBGR" horiz-adv-x="743" 
d="M-49 0l367 700h237l145 -700h-240l-59 427l-198 -427h-252z" />
    <glyph glyph-name="uni0424.loclBGR" horiz-adv-x="897" 
d="M494 -90l-209.999 -0.000976562l15 96c-97.333 10.667 -172 50.334 -224 119.001s-70.667 149.667 -56 243c14 88.667 55.167 163.334 123.5 224.001s157.166 95 266.499 103l16 95h210l-17 -96c98.667 -11.333 173.667 -51.333 225 -120s69.333 -149.334 54 -242.001
c-13.333 -88.667 -53.5 -163.167 -120.5 -223.5s-155.833 -94.833 -266.5 -103.5zM244.001 352.999c-1.33301 -18.667 -1.83105 -39 -1.49805 -61s8.16602 -42.667 23.499 -62s37.333 -31 66 -35l49 308c-76.667 -10 -122.334 -60 -137.001 -150zM585.003 504.999
l-47.999 -307.001c75.333 10.667 120 61.667 134 153c3.33301 12.667 4.16602 27.334 2.49902 44.001s-4.66699 32.5 -9 47.5s-13.5 28.333 -27.5 40s-31.333 19.167 -52 22.5z" />
    <glyph glyph-name="uni0432.loclBGR" horiz-adv-x="610" 
d="M374 716c70.667 0 125 -19.166 163 -57.499s52.667 -84.5 44 -138.5c-8.66699 -58.667 -41.667 -102.667 -99 -132c34 -14.667 59.833 -38.167 77.5 -70.5s23.5 -69.5 17.5 -111.5c-11.333 -70.667 -44 -125.334 -98 -164.001s-121 -58 -201 -58
c-90.667 0 -158.834 25 -204.501 75s-59.5 132.333 -41.5 247l10 68c34.667 228 145.334 342 332.001 342zM386 501.001c2.66699 14 1 25.501 -5 34.501s-16.333 13.5 -31 13.5c-46.667 0 -78.667 -43 -96 -129l59 12c20.667 4 37.5 12.667 50.5 26s20.5 27.666 22.5 42.999
zM291 156.002c22 0 40.501 6.5 55.501 19.5s24.167 30.5 27.5 52.5c3.33301 20 -2.33398 36.167 -17.001 48.5s-34.667 15.5 -60 9.5l-66 -14c-5.33301 -42.667 -3.33301 -72.667 6 -90s27.333 -26 54 -26z" />
    <glyph glyph-name="uni0433.loclBGR" horiz-adv-x="497" 
d="M419 21c-55.333 -24.667 -121.668 -37 -199.001 -37c-70.667 0 -127.5 13.667 -170.5 41s-60.5 71 -52.5 131c4.66699 36.667 21 66.167 49 88.5s57.333 36.666 88 42.999s59 13 85 20s39.667 14.833 41 23.5c2 13.333 -10.667 20 -38 20
c-53.333 0 -108 -14.667 -164 -44l24 150c58 26 121.333 39 190 39c29.333 0 56.666 -2.83301 81.999 -8.5s48.333 -14.667 69 -27s36 -29.666 46 -51.999s12.667 -48.833 8 -79.5c-6 -36.667 -23 -66.167 -51 -88.5s-57 -36.5 -87 -42.5s-57.667 -12.5 -83 -19.5
s-38.666 -15.5 -39.999 -25.5c-1.33301 -6.66699 1.83398 -11.5 9.50098 -14.5s20.5 -4.5 38.5 -4.5c68.667 0 129 17.333 181 52z" />
    <glyph glyph-name="uni0434.loclBGR" horiz-adv-x="624" 
d="M542 24c-14.667 -90 -51.332 -155.834 -109.999 -197.501s-127.667 -62.5 -207 -62.5c-88.667 0 -165 14.667 -229 44l27 169c52 -28 107 -42 165 -42c38.667 0 70.834 7.33301 96.501 22s41.167 37.334 46.5 68.001l3 20c-29.333 -33.333 -72.333 -50 -129 -50
c-72 0 -124.333 25.667 -157 77s-43.334 113.666 -32.001 186.999c10.667 66.667 38.167 122.834 82.5 168.501s100.166 68.5 167.499 68.5c68 0 118.333 -26.667 151 -80l11 64h185zM229.002 238.999c-3.33301 -24 0 -43.832 10 -59.499s25.333 -23.834 46 -24.501
c28 0 52.333 12.667 73 38l17 105c-8 21.333 -25.333 32 -52 32c-25.333 0 -46.333 -8.66699 -63 -26s-27 -39 -31 -65z" />
    <glyph glyph-name="uni0436.loclBGR" horiz-adv-x="861" 
d="M173 0h-223l173 254l-78 226h204l53 -163h32l61 383h203l-60 -383h33l95 163h220l-163 -257l81 -223h-206l-53 153h-33l-25 -153h-203l24 153h-37z" />
    <glyph glyph-name="uni0438.loclBGR" 
d="M372 480h211.001l-76 -480h-186l8 45c-39.333 -40.667 -88.333 -61 -147 -61s-102.834 19 -132.501 57s-40.5 83.667 -32.5 137l48 302h211l-44 -275c-5.33301 -30 6 -45 34 -45c23.333 0 43.333 9 60 27z" />
    <glyph glyph-name="uni0439.loclBGR" 
d="M508 572c-46.667 -30.667 -103 -46 -169 -46c-64 0 -120.667 15.333 -170 46l21 135c48 -27.333 100.667 -41 158 -41c66 0 126.333 13.667 181 41zM372 480h211.001l-76 -480h-186l8 45c-39.333 -40.667 -88.333 -61 -147 -61s-102.834 19 -132.501 57
s-40.5 83.667 -32.5 137l48 302h211l-44 -275c-5.33301 -30 6 -45 34 -45c23.333 0 43.333 9 60 27z" />
    <glyph glyph-name="uni043A.loclBGR" horiz-adv-x="595" 
d="M397 480h234l-192 -250l111 -230h-217l-68 162h-35l-25 -162h-211l111 700h211l-60 -374h31z" />
    <glyph glyph-name="uni043B.loclBGR" horiz-adv-x="599" 
d="M443 480l108 -480h-213l-31 279l-122 -279h-229l262 480h225z" />
    <glyph glyph-name="uni043F.loclBGR" 
d="M248 435c48 40.667 100.667 61 158 61c58 0 100.167 -19.167 126.5 -57.5s35.5 -82.833 27.5 -133.5l-48 -305h-211l44 278c4.66699 27.333 -6.33301 41 -33 41c-18.667 0 -39 -8.66699 -61 -26l-46 -293h-211l76 480h185z" />
    <glyph glyph-name="uni0442.loclBGR" horiz-adv-x="864" 
d="M522 433c44 42 97.6719 62.999 161.005 62.999c57.333 0 98.166 -19.667 122.499 -59s32.166 -86.666 23.499 -141.999l-47 -295h-208l46 290c1.33301 10 -0.833984 17.5 -6.50098 22.5s-13.167 7.5 -22.5 7.5c-17.333 0 -34 -7.33301 -50 -22
c0 -4 -0.666992 -9.33301 -2 -16l-45 -282h-208l46 290c1.33301 10 -0.833984 17.5 -6.50098 22.5s-12.834 7.5 -21.501 7.5c-21.333 0 -40 -9.33301 -56 -28l-46 -292h-208l76 480h186l-8 -48c16 18 37.833 33.167 65.5 45.5s56.167 18.5 85.5 18.5c58 0 99 -21 123 -63z
" />
    <glyph glyph-name="uni0446.loclBGR" horiz-adv-x="639" 
d="M530 148c-2.66699 -14 4.33398 -21 21.001 -21h44l-39 -250h-178l18 118c-28 9.33301 -48.667 26 -62 50c-43.333 -40.667 -94 -61 -152 -61c-58.667 0 -102.834 19 -132.501 57s-40.5 83.667 -32.5 137l48 302h211l-44 -275c-5.33301 -30 6 -45 34 -45
c23.333 0 43.333 9 60 27l46 293h211z" />
    <glyph glyph-name="uni0448.loclBGR" horiz-adv-x="867" 
d="M599 182l46.998 298.001h210l-76 -480h-186l7 42c-38.667 -38.667 -87 -58 -145 -58c-56.667 0 -98.334 20.333 -125.001 61c-48 -40.667 -102.333 -61 -163 -61c-57.333 0 -98.666 19.667 -123.999 59s-33.666 86.666 -24.999 141.999l47 295h210l-45 -291
c-3.33301 -20.667 5.33398 -31 26.001 -31c17.333 0 33.333 6.66699 48 20l4 23l45 279h210l-46 -291c-2.66699 -20.667 6.33301 -31 27 -31c21.333 0 39.333 8 54 24z" />
    <glyph glyph-name="uni0449.loclBGR" horiz-adv-x="912" 
d="M803 148c-0.666992 -6.66699 0.829102 -11.8311 4.49609 -15.498s9.5 -5.5 17.5 -5.5h44l-39 -250h-178l18 118c-28.667 9.33301 -49 25.666 -61 48.999c-40 -40 -91.333 -60 -154 -60c-55.333 0 -97 19.667 -125 59c-46.667 -39.333 -99.667 -59 -159 -59
s-101.666 19.667 -126.999 59s-33.666 86.666 -24.999 141.999l47 295h210l-45 -291c-3.33301 -20.667 5.33398 -31 26.001 -31c16.667 0 32.667 6.66699 48 20l48 302h210l-45 -291c-3.33301 -20.667 5.33398 -31 26.001 -31c21.333 0 39.333 8 54 24l47 298h211z" />
    <glyph glyph-name="uni044E.loclBGR" horiz-adv-x="853" 
d="M822 224c-12.667 -79.333 -47.3311 -139.168 -103.998 -179.501s-124 -60.5 -202 -60.5c-58.667 0 -109.834 15.5 -153.501 46.5s-70.167 74.5 -79.5 130.5h-54l-26 -161h-209l111 700h209l-60 -381h46c21.333 58.667 57 102.834 107 132.501s107 44.5 171 44.5
c81.333 0 145.666 -24.833 192.999 -74.5s64.333 -115.5 51 -197.5zM475.003 234.998c-2.66699 -22 0.666016 -40 9.99902 -54s25 -21 47 -21c24 0 43.5 7.66699 58.5 23s24.167 36 27.5 62c2.66699 22 -0.666016 40 -9.99902 54s-25 21 -47 21
c-24 0 -43.5 -7.66699 -58.5 -23s-24.167 -36 -27.5 -62z" />
    </font>
</defs>
</svg>
