<?xml version="1.0" encoding="utf-8"?>
<!-- Generator: Adobe Illustrator 19.2.0, SVG Export Plug-In . SVG Version: 6.00 Build 0)  -->
<svg version="1.1" id="Layer_1" xmlns="http://www.w3.org/2000/svg" xmlns:xlink="http://www.w3.org/1999/xlink" x="0px" y="0px"
	 viewBox="0 0 64 64" enable-background="new 0 0 64 64" xml:space="preserve">
<g id="Group_1424" transform="translate(-547.441 18.151)">
	<g id="logo" transform="translate(635.44 283.849)">
		<g id="Path_369">
			<path fill="#FF6776" d="M-40.3-274.3c0,7.7-12.1,15.6-15,17.4c-0.4,0.2-0.9,0.2-1.3,0c-2.9-1.8-15.1-9.7-15.1-17.4
				c0-2.6,1.2-5.1,3.2-6.8c3.8-3.1,9.4-2.6,12.5,1.1c1.7-2,4.2-3.2,6.8-3.2C-44.3-283.2-40.3-279.2-40.3-274.3z"/>
		</g>
		<g id="Path_370">
			<path fill="#FF6776" d="M-42.1-296.9c-5.4,0-10.5,2.4-13.9,6.5c-6.4-7.7-17.8-8.7-25.5-2.3c-4.1,3.4-6.5,8.6-6.5,13.9
				c0,15.6,24.8,31.8,30.7,35.4c0.8,0.5,1.7,0.5,2.5,0c6-3.6,30.7-19.8,30.7-35.4C-24-288.8-32.1-296.9-42.1-296.9
				C-42.1-296.9-42.1-296.9-42.1-296.9z M-55.1-250.8c-0.6,0.3-1.3,0.3-1.9,0c-4.3-2.6-22.2-14.3-22.2-25.6
				c0-7.2,5.8-13.1,13.1-13.1c3.9,0,7.6,1.7,10.1,4.7c4.6-5.5,12.9-6.3,18.4-1.7c3,2.5,4.7,6.2,4.7,10.1
				C-32.9-265.1-50.8-253.4-55.1-250.8L-55.1-250.8z"/>
		</g>
	</g>
	<g id="logo-2" transform="translate(647.578 294.067)">
		<g id="Path_371">
			<path fill="#FF6776" d="M-52.4-284.6c0,7.7-12.1,15.6-15,17.4c-0.4,0.2-0.9,0.2-1.3,0c-2.9-1.8-15.1-9.7-15.1-17.4
				c0-2.6,1.2-5.1,3.2-6.8c3.8-3.1,9.4-2.6,12.5,1.1c1.7-2,4.2-3.2,6.8-3.2C-56.4-293.4-52.4-289.5-52.4-284.6z"/>
		</g>
	</g>
</g>
</svg>
