<?xml version="1.0" standalone="no"?>
<!DOCTYPE svg PUBLIC "-//W3C//DTD SVG 20010904//EN"
 "http://www.w3.org/TR/2001/REC-SVG-20010904/DTD/svg10.dtd">
<svg version="1.0" xmlns="http://www.w3.org/2000/svg"
 width="700.000000pt" height="700.000000pt" viewBox="0 0 700.000000 700.000000"
 preserveAspectRatio="xMidYMid meet">
<metadata>
Created by potrace 1.11, written by Peter Selinger 2001-2013
</metadata>
<g transform="translate(0.000000,700.000000) scale(0.100000,-0.100000)"
fill="#000000" stroke="none">
<path d="M1968 6445 c-1 -1 -57 -6 -122 -9 -66 -4 -122 -8 -125 -10 -3 -2 -31
-7 -61 -11 -30 -3 -73 -11 -95 -17 -44 -13 -42 -12 -107 -27 -125 -29 -377
-137 -513 -221 -163 -100 -360 -270 -482 -415 -159 -190 -293 -434 -364 -665
-44 -143 -46 -152 -55 -195 -4 -22 -8 -42 -9 -45 -1 -3 -5 -30 -9 -60 -5 -30
-10 -64 -13 -75 -9 -39 -10 -351 -2 -415 14 -105 19 -134 25 -160 3 -14 10
-44 15 -68 4 -23 21 -82 36 -130 15 -48 28 -89 28 -92 1 -3 5 -14 10 -25 4
-11 21 -52 36 -91 36 -94 150 -322 201 -405 33 -53 163 -255 171 -264 4 -5 46
-62 94 -125 176 -237 312 -390 593 -670 182 -182 283 -277 440 -415 25 -22 47
-42 50 -45 3 -3 70 -59 150 -125 80 -66 147 -122 150 -125 12 -13 280 -217
430 -328 91 -67 176 -131 190 -142 14 -11 29 -20 33 -20 5 0 14 -6 22 -13 32
-33 569 -387 586 -387 5 0 9 -4 9 -10 0 -5 4 -10 9 -10 5 0 34 -16 66 -35 32
-19 78 -37 103 -41 53 -8 131 8 170 35 15 10 101 65 192 121 238 149 492 323
790 542 89 66 425 329 471 370 15 13 57 48 94 78 37 30 73 60 79 65 6 6 74 66
151 134 179 160 471 444 586 572 13 15 40 44 59 65 162 177 341 409 472 609
43 66 83 125 88 132 6 7 10 15 10 18 0 3 11 23 25 45 38 60 150 286 186 376
58 145 120 364 134 473 4 30 9 63 12 75 2 12 6 93 8 181 4 208 -7 315 -55 505
-161 639 -614 1143 -1232 1371 -89 32 -239 75 -304 85 -21 3 -41 7 -45 9 -3 2
-39 7 -80 10 -40 4 -85 9 -99 11 -32 5 -288 6 -315 0 -11 -2 -49 -7 -85 -11
-36 -4 -72 -9 -80 -10 -170 -35 -272 -62 -325 -84 -11 -5 -47 -19 -80 -32
-156 -59 -357 -175 -500 -290 -93 -74 -275 -254 -275 -272 0 -5 -53 44 -117
109 -270 273 -583 450 -958 543 -44 11 -107 23 -140 27 -33 3 -63 8 -67 10 -4
3 -58 7 -120 10 -62 3 -118 7 -125 9 -6 2 -13 2 -15 0z m667 -835 c308 -55
547 -176 763 -387 l102 -98 87 85 c120 116 223 191 356 259 103 53 259 111
332 125 176 32 209 35 355 31 164 -3 196 -7 300 -31 354 -85 653 -294 857
-599 154 -231 238 -515 237 -805 -1 -550 -396 -1179 -1180 -1876 -90 -81 -242
-207 -324 -269 -36 -28 -67 -53 -70 -56 -4 -5 -221 -167 -282 -211 -156 -112
-511 -345 -574 -376 -56 -28 -134 -31 -185 -8 -70 30 -441 277 -664 440 -168
123 -448 344 -521 411 -6 6 -39 35 -74 65 -491 425 -879 905 -1049 1297 -38
87 -86 224 -97 273 -29 140 -36 191 -37 290 -2 176 8 262 49 410 150 545 601
948 1159 1035 121 19 342 16 460 -5z"/>
<path d="M2650 4938 c-291 -37 -533 -183 -692 -417 -162 -238 -214 -523 -142
-781 80 -287 270 -569 609 -900 96 -94 140 -134 295 -262 191 -158 647 -481
729 -515 84 -36 176 16 610 338 311 232 572 469 752 686 41 48 77 90 80 93 22
19 161 240 203 323 122 240 153 456 102 696 -35 161 -141 346 -273 472 -385
369 -967 371 -1350 2 -36 -35 -68 -63 -70 -63 -3 0 -32 27 -65 61 -69 68 -143
121 -238 169 -63 32 -200 83 -200 75 0 -3 -10 -1 -23 4 -57 22 -228 32 -327
19z"/>
</g>
</svg>
