<?xml version="1.0" encoding="utf-8"?>
<!-- Generator: Adobe Illustrator 19.2.0, SVG Export Plug-In . SVG Version: 6.00 Build 0)  -->
<svg version="1.1" id="Layer_1" xmlns="http://www.w3.org/2000/svg" xmlns:xlink="http://www.w3.org/1999/xlink" x="0px" y="0px"
	 viewBox="0 0 100 100" enable-background="new 0 0 100 100" xml:space="preserve">
<g>
	<g>
		<g>
			<g>
				<path fill="#FFE400" d="M85.9,41.5l-4.6-5.6c-0.5-0.6-1.3-1-2.1-0.9L9.8,40.1c-1.4,0.1-2.4,1.3-2.3,2.7l0.9,11.7
					c0.1,1.4,1.3,2.4,2.7,2.3l69.4-5.1c0.8-0.1,1.5-0.5,1.9-1.2l3.7-6.2C86.7,43.5,86.6,42.3,85.9,41.5z M76.8,43.6
					c-0.1-0.7,0.5-1.3,1.2-1.3c0.7-0.1,1.3,0.5,1.3,1.2c0.1,0.7-0.5,1.3-1.2,1.3C77.4,44.8,76.8,44.3,76.8,43.6z"/>
			</g>
		</g>
		<g>
			<g>
				<path fill="#FFE400" d="M85.5,44.3c-0.5,0-1-0.1-1.3-0.5l0.7-0.7c0.4,0.4,2.1,0.1,3.7-1.2c1.2-1,4.9-4.5,1.2-10.2
					c-7.6-9.2-32.9,6.8-33.2,7l-0.5-0.8c1.1-0.7,26.3-16.6,34.5-6.7c3.3,5.1,1.4,9.3-1.4,11.6C88,43.8,86.6,44.3,85.5,44.3z"/>
			</g>
		</g>
	</g>
	<g>
		<path fill="#161616" d="M29,43l4.1-0.3c0.9-0.1,1.8,0,2.5,0.2c0.7,0.2,1.3,0.6,1.8,1.1c0.5,0.6,0.7,1.3,0.8,2.1l0.1,1.3
			c0.1,1.4-0.3,2.4-1.2,3.1c-0.8,0.6-1.9,1-3.3,1.1l-4.1,0.3c-0.1,0-0.2,0-0.2-0.1c-0.1-0.1-0.1-0.1-0.1-0.2l-0.6-8.2
			c0-0.1,0-0.2,0.1-0.2C28.9,43,28.9,43,29,43z M32.2,45.2l0.3,3.9l1.2-0.1c0.4,0,0.7-0.1,0.9-0.4c0.2-0.2,0.3-0.5,0.3-0.8l-0.1-1.8
			c0-0.3-0.2-0.6-0.4-0.8c-0.2-0.2-0.6-0.2-1-0.2L32.2,45.2z"/>
		<path fill="#161616" d="M43.4,48.4l5.1-0.4c0.1,0,0.2,0,0.2,0.1c0.1,0.1,0.1,0.1,0.1,0.2l0.1,1.8c0,0.1,0,0.2-0.1,0.2
			c-0.1,0.1-0.1,0.1-0.2,0.1l-8,0.6c-0.1,0-0.2,0-0.2-0.1c-0.1-0.1-0.1-0.1-0.1-0.2l-0.6-8.2c0-0.1,0-0.2,0.1-0.2
			c0.1-0.1,0.1-0.1,0.2-0.1l7.9-0.6c0.1,0,0.2,0,0.2,0.1c0.1,0.1,0.1,0.1,0.1,0.2l0.1,1.8c0,0.1,0,0.2-0.1,0.2
			c-0.1,0.1-0.1,0.1-0.2,0.1l-4.9,0.4l0.1,0.8l4.2-0.3c0.1,0,0.2,0,0.3,0.1c0.1,0.1,0.1,0.1,0.1,0.2l0.1,1.7c0,0.1,0,0.2-0.1,0.2
			c-0.1,0.1-0.1,0.1-0.2,0.1l-4.2,0.3L43.4,48.4z"/>
		<path fill="#161616" d="M53,50.2l-2.4,0.2c-0.1,0-0.1,0-0.2-0.1c-0.1-0.1-0.1-0.1-0.1-0.2c0-0.1,0-0.1,0-0.1l2.2-8.3
			c0.1-0.3,0.2-0.4,0.5-0.5l3.5-0.3c0.3,0,0.5,0.1,0.6,0.4l3.4,7.9c0,0,0,0.1,0,0.1c0,0.1,0,0.1-0.1,0.2c-0.1,0.1-0.1,0.1-0.2,0.1
			l-2.4,0.2c-0.3,0-0.5-0.1-0.6-0.4l-0.4-0.9l-3.1,0.2l-0.3,0.9C53.4,50,53.3,50.1,53,50.2z M56.1,46.1L55,43.5l-0.7,2.7L56.1,46.1z
			"/>
		<path fill="#161616" d="M65.8,46.6l4.3-0.3c0.1,0,0.2,0,0.2,0.1c0.1,0.1,0.1,0.1,0.1,0.2l0.1,1.9c0,0.1,0,0.2-0.1,0.2
			c-0.1,0.1-0.1,0.1-0.2,0.1l-7.4,0.5c-0.1,0-0.2,0-0.3-0.1c-0.1-0.1-0.1-0.1-0.1-0.2l-0.6-8.2c0-0.1,0-0.2,0.1-0.2
			c0.1-0.1,0.1-0.1,0.2-0.1l2.7-0.2c0.1,0,0.2,0,0.2,0.1c0.1,0.1,0.1,0.1,0.1,0.2L65.8,46.6z"/>
	</g>
	<g>
		<path fill="#161616" d="M17.5,45.5l0.1,1.1c0,0.6-0.1,1-0.5,1.3c-0.4,0.3-0.9,0.5-1.6,0.5c-0.7,0-1.2-0.1-1.7-0.3
			c-0.4-0.3-0.7-0.7-0.7-1.2L13,45.9c0-0.6,0.1-1,0.5-1.3c0.4-0.3,0.9-0.5,1.6-0.5c0.7,0,1.2,0.1,1.6,0.3
			C17.2,44.6,17.5,45,17.5,45.5z M20.7,43.6l1.1-0.1c0.2,0,0.3,0.1,0.3,0.3c0,0.1,0,0.1,0,0.1l-5.6,8.7c-0.1,0.2-0.3,0.3-0.4,0.3
			L15,53c-0.2,0-0.3-0.1-0.3-0.3c0-0.1,0-0.1,0-0.1l5.6-8.7C20.4,43.7,20.5,43.7,20.7,43.6z M14.8,45.8l0.1,1.1
			c0,0.1,0.1,0.2,0.1,0.3c0.1,0.1,0.2,0.1,0.3,0.1c0.1,0,0.2-0.1,0.3-0.1s0.1-0.2,0.1-0.3l-0.1-1.1c0-0.1-0.1-0.2-0.1-0.3
			c-0.1-0.1-0.2-0.1-0.3-0.1c-0.1,0-0.2,0.1-0.3,0.1C14.9,45.6,14.8,45.7,14.8,45.8z M23.7,49.4l0.1,1.2c0,0.6-0.1,1-0.5,1.4
			c-0.4,0.3-0.9,0.5-1.6,0.6c-0.7,0-1.2-0.1-1.7-0.3c-0.4-0.3-0.7-0.7-0.7-1.3l-0.1-1.2c0-0.6,0.1-1,0.5-1.4
			c0.4-0.3,0.9-0.5,1.6-0.6c0.7,0,1.2,0.1,1.6,0.3C23.4,48.4,23.6,48.9,23.7,49.4z M21,49.6l0.1,1.2c0,0.1,0.1,0.2,0.1,0.3
			c0.1,0.1,0.2,0.1,0.3,0.1c0.1,0,0.2-0.1,0.3-0.1c0.1-0.1,0.1-0.2,0.1-0.3l-0.1-1.2c0-0.1-0.1-0.2-0.1-0.3
			c-0.1-0.1-0.2-0.1-0.3-0.1c-0.1,0-0.2,0.1-0.3,0.1C21,49.4,21,49.5,21,49.6z"/>
	</g>
	<g>
		<path fill="#161616" d="M19,62.3h2.9c0.1,0,0.2,0,0.3,0.1c0.1,0.1,0.1,0.2,0.1,0.3v9c0,0.1,0,0.2-0.1,0.3
			c-0.1,0.1-0.2,0.1-0.3,0.1H19c-0.1,0-0.2,0-0.3-0.1c-0.1-0.1-0.1-0.2-0.1-0.3v-3h-2.8v3c0,0.1,0,0.2-0.1,0.3
			c-0.1,0.1-0.2,0.1-0.3,0.1h-2.9c-0.1,0-0.2,0-0.3-0.1c-0.1-0.1-0.1-0.2-0.1-0.3v-9c0-0.1,0-0.2,0.1-0.3c0.1-0.1,0.2-0.1,0.3-0.1
			h2.9c0.1,0,0.2,0,0.3,0.1c0.1,0.1,0.1,0.2,0.1,0.3v2.9h2.8v-2.9c0-0.1,0-0.2,0.1-0.3C18.8,62.3,18.9,62.3,19,62.3z"/>
		<path fill="#161616" d="M32.9,71.1c-0.9,0.7-2.2,1-3.7,1c-1.6,0-2.8-0.3-3.7-1C24.5,70.4,24,69.4,24,68v-5.3c0-0.1,0-0.2,0.1-0.3
			c0.1-0.1,0.2-0.1,0.3-0.1h2.9c0.1,0,0.2,0,0.3,0.1c0.1,0.1,0.1,0.2,0.1,0.3v5.5c0,0.4,0.1,0.7,0.4,0.9s0.6,0.3,1,0.3
			c0.4,0,0.8-0.1,1-0.3s0.4-0.5,0.4-0.9v-5.5c0-0.1,0-0.2,0.1-0.3c0.1-0.1,0.2-0.1,0.3-0.1h2.9c0.1,0,0.2,0,0.3,0.1
			c0.1,0.1,0.1,0.2,0.1,0.3V68C34.3,69.4,33.8,70.4,32.9,71.1z"/>
		<path fill="#161616" d="M42.8,62.3h2.6c0.1,0,0.2,0,0.3,0.1c0.1,0.1,0.1,0.2,0.1,0.3v9c0,0.1,0,0.2-0.1,0.3
			c-0.1,0.1-0.2,0.1-0.3,0.1h-2.3c-0.2,0-0.4-0.1-0.6-0.3l-3.1-3.9v3.8c0,0.1,0,0.2-0.1,0.3c-0.1,0.1-0.2,0.1-0.3,0.1h-2.6
			c-0.1,0-0.2,0-0.3-0.1c-0.1-0.1-0.1-0.2-0.1-0.3v-9c0-0.1,0-0.2,0.1-0.3c0.1-0.1,0.2-0.1,0.3-0.1h2.3c0.2,0,0.4,0.1,0.5,0.3
			l3.1,4.2v-4.1c0-0.1,0-0.2,0.1-0.3C42.6,62.3,42.7,62.3,42.8,62.3z"/>
		<path fill="#161616" d="M48.1,62.3h9.7c0.1,0,0.2,0,0.3,0.1c0.1,0.1,0.1,0.2,0.1,0.3v2.3c0,0.1,0,0.2-0.1,0.3
			c-0.1,0.1-0.2,0.1-0.3,0.1h-3v6.4c0,0.1,0,0.2-0.1,0.3c-0.1,0.1-0.2,0.1-0.3,0.1h-2.9c-0.1,0-0.2,0-0.3-0.1
			c-0.1-0.1-0.1-0.2-0.1-0.3v-6.4h-3c-0.1,0-0.2,0-0.3-0.1c-0.1-0.1-0.1-0.2-0.1-0.3v-2.3c0-0.1,0-0.2,0.1-0.3
			C47.9,62.3,48,62.3,48.1,62.3z"/>
		<path fill="#161616" d="M63.8,69.4h5.6c0.1,0,0.2,0,0.3,0.1c0.1,0.1,0.1,0.2,0.1,0.3v2c0,0.1,0,0.2-0.1,0.3
			c-0.1,0.1-0.2,0.1-0.3,0.1h-8.8c-0.1,0-0.2,0-0.3-0.1c-0.1-0.1-0.1-0.2-0.1-0.3v-9c0-0.1,0-0.2,0.1-0.3c0.1-0.1,0.2-0.1,0.3-0.1
			h8.7c0.1,0,0.2,0,0.3,0.1c0.1,0.1,0.1,0.2,0.1,0.3v2c0,0.1,0,0.2-0.1,0.3C69.4,65,69.3,65,69.2,65h-5.4v0.9h4.7
			c0.1,0,0.2,0,0.3,0.1c0.1,0.1,0.1,0.2,0.1,0.3v1.8c0,0.1,0,0.2-0.1,0.3c-0.1,0.1-0.2,0.1-0.3,0.1h-4.7V69.4z"/>
		<path fill="#161616" d="M82.3,71.7c0,0,0,0.1,0,0.2s0,0.1-0.1,0.2c-0.1,0.1-0.1,0.1-0.2,0.1h-3.2c-0.3,0-0.5-0.1-0.6-0.4L77,69
			h-1.2v2.7c0,0.1,0,0.2-0.1,0.3c-0.1,0.1-0.2,0.1-0.3,0.1h-3c-0.1,0-0.2,0-0.3-0.1c-0.1-0.1-0.1-0.2-0.1-0.3v-9
			c0-0.1,0-0.2,0.1-0.3c0.1-0.1,0.2-0.1,0.3-0.1h5.4c1.3,0,2.3,0.3,3,0.9c0.7,0.6,1.1,1.4,1.1,2.5c0,1.3-0.5,2.2-1.5,2.8L82.3,71.7z
			 M75.9,64.9v1.5h1.8c0.2,0,0.4-0.1,0.5-0.2c0.1-0.1,0.2-0.3,0.2-0.5c0-0.2-0.1-0.4-0.2-0.5c-0.1-0.2-0.3-0.2-0.5-0.2H75.9z"/>
	</g>
</g>
</svg>
