<?xml version="1.0" standalone="no"?>
<!DOCTYPE svg PUBLIC "-//W3C//DTD SVG 20010904//EN"
 "http://www.w3.org/TR/2001/REC-SVG-20010904/DTD/svg10.dtd">
<svg version="1.0" xmlns="http://www.w3.org/2000/svg"
 width="700.000000pt" height="700.000000pt" viewBox="0 0 700.000000 700.000000"
 preserveAspectRatio="xMidYMid meet">
<metadata>
Created by potrace 1.11, written by Peter Selinger 2001-2013
</metadata>
<g transform="translate(0.000000,700.000000) scale(0.100000,-0.100000)"
fill="#000000" stroke="none">
<path d="M5768 5046 c-1 -2 -46 -6 -98 -10 -119 -7 -280 -38 -430 -81 -30 -9
-62 -18 -70 -20 -30 -8 -217 -74 -295 -105 -196 -77 -521 -234 -714 -345 -73
-41 -81 -44 -181 -50 -58 -3 -121 -8 -140 -10 -19 -2 -78 -7 -130 -10 -91 -5
-133 -9 -265 -20 -33 -2 -100 -7 -150 -10 -49 -3 -110 -7 -135 -9 -25 -3 -88
-7 -140 -11 -52 -4 -113 -8 -135 -10 -95 -8 -215 -16 -274 -20 -36 -2 -97 -7
-135 -10 -80 -7 -140 -11 -271 -20 -49 -4 -110 -8 -135 -10 -25 -2 -85 -7
-135 -10 -49 -3 -110 -8 -135 -10 -25 -2 -83 -7 -130 -10 -47 -3 -112 -7 -145
-10 -59 -5 -99 -8 -280 -20 -49 -3 -106 -8 -125 -10 -19 -2 -75 -7 -125 -10
-90 -6 -138 -9 -269 -20 -38 -3 -83 -12 -100 -19 -64 -27 -104 -99 -100 -176
2 -38 12 -170 19 -255 3 -37 14 -183 20 -265 2 -19 6 -69 9 -110 4 -41 9 -104
11 -139 6 -87 20 -125 61 -160 53 -47 82 -51 269 -37 55 4 129 9 165 12 36 2
88 6 115 9 28 2 93 7 145 10 52 4 113 8 135 10 52 5 180 14 275 20 41 3 100 7
130 10 30 3 91 7 135 10 44 3 109 8 145 10 36 3 90 7 120 10 30 2 93 7 140 10
85 7 108 8 275 19 50 4 110 9 135 11 39 4 101 8 280 20 86 6 225 16 270 20 25
2 86 7 135 10 50 3 106 8 125 10 19 2 87 7 150 10 63 4 126 8 140 10 14 2 72
7 130 10 58 4 121 8 140 10 19 2 78 6 130 10 52 3 115 8 140 10 42 4 94 8 275
20 39 3 95 7 125 10 30 2 93 7 140 10 47 3 110 7 140 10 30 3 93 7 140 10 47
3 108 7 135 10 28 3 86 7 129 10 105 7 147 19 181 52 21 22 174 269 256 414
23 41 52 69 69 69 30 0 153 68 202 111 26 22 63 62 82 88 39 53 95 160 102
194 2 12 6 33 9 47 7 33 7 157 0 195 -18 96 -84 239 -138 296 -106 113 -262
182 -442 195 -44 3 -85 7 -92 9 -6 2 -13 2 -15 1z m224 -90 c111 -27 216 -88
278 -160 95 -111 146 -302 118 -441 -25 -122 -140 -271 -259 -334 -68 -37 -79
-38 -79 -7 0 31 -27 69 -187 265 -228 279 -226 278 -377 267 -50 -4 -120 -9
-156 -11 -61 -4 -140 -10 -255 -20 -27 -2 -90 -6 -140 -10 -49 -3 -110 -8
-135 -10 -25 -2 -90 -7 -145 -10 -55 -4 -116 -8 -135 -10 -19 -2 -80 -7 -135
-10 -55 -4 -103 -9 -107 -11 -4 -2 -9 -1 -12 4 -11 18 527 275 709 339 38 14
77 29 86 34 59 31 424 124 533 135 34 4 63 9 66 11 10 10 276 -7 332 -21z
m-481 -931 c9 -3 21 -17 28 -31 29 -64 -7 -126 -73 -126 -51 0 -86 33 -86 82
0 71 58 105 131 75z"/>
<path d="M854 2628 c-9 -14 -10 -651 -1 -665 9 -14 236 -13 245 1 4 6 8 54 8
106 1 52 2 101 3 108 1 9 27 12 96 12 l95 0 1 -107 c1 -60 1 -111 0 -115 0 -4
7 -9 17 -12 26 -7 219 -4 232 4 11 7 17 651 5 670 -4 6 -55 10 -118 10 -103 0
-140 -7 -138 -24 1 -3 1 -51 1 -106 l0 -100 -94 0 c-66 0 -95 4 -98 13 -3 6
-4 53 -3 102 1 50 -2 96 -8 103 -13 16 -233 17 -243 0z"/>
<path d="M1692 2633 c-16 -6 -16 -404 -1 -474 29 -126 176 -208 365 -204 96 2
135 10 194 40 79 39 121 90 136 165 7 35 10 338 5 458 -1 22 -4 22 -120 22
-85 0 -122 -4 -128 -12 -4 -7 -8 -105 -8 -218 -1 -226 -5 -242 -61 -260 -60
-20 -121 6 -129 55 -3 16 -6 120 -8 230 l-2 200 -115 2 c-63 1 -121 -1 -128
-4z"/>
<path d="M2527 2633 c-9 -9 -9 -655 1 -669 4 -8 44 -12 114 -11 88 1 109 4
112 16 3 9 5 72 5 140 0 68 2 125 4 127 2 2 45 -51 97 -117 139 -178 124 -167
235 -167 58 0 98 5 103 12 11 14 10 647 -1 664 -6 9 -38 12 -110 11 -55 -1
-107 -3 -114 -6 -10 -4 -13 -41 -13 -156 l0 -152 -110 150 c-61 82 -116 153
-123 157 -15 9 -191 11 -200 1z"/>
<path d="M3344 2627 c-3 -8 -3 -56 -2 -108 l3 -94 50 -2 c28 -1 80 -2 116 -2
l67 -1 -2 -227 c-1 -150 3 -230 10 -237 15 -15 233 -13 243 2 4 7 7 113 7 237
l-1 225 40 1 c22 0 69 0 105 0 36 -1 71 3 79 8 17 11 23 163 9 194 -8 16 -36
17 -364 17 -285 0 -356 -3 -360 -13z"/>
<path d="M5053 2634 c-10 -4 -13 -82 -13 -339 0 -257 3 -334 13 -338 6 -2 63
-4 125 -5 94 0 114 3 121 17 5 9 8 53 7 99 -1 45 1 87 4 93 4 6 24 9 45 7 38
-3 38 -3 80 -102 23 -55 49 -104 57 -110 10 -7 61 -11 134 -11 94 1 120 4 127
16 7 12 -7 44 -57 128 l-66 113 38 37 c48 46 67 108 59 191 -7 82 -44 135
-122 175 l-59 30 -240 2 c-133 1 -247 0 -253 -3z m419 -201 c23 -21 23 -38 -2
-63 -16 -16 -33 -20 -88 -20 l-69 0 0 50 -1 50 71 0 c51 0 75 -4 89 -17z"/>
<path d="M4219 2628 c-6 -12 -4 -656 2 -668 6 -13 52 -15 329 -15 255 1 323 4
329 14 9 14 8 167 0 176 -3 3 -97 6 -207 7 -140 0 -202 4 -203 12 0 6 -2 19
-4 29 -4 21 -21 19 175 21 91 1 170 4 175 8 10 6 12 149 1 166 -3 5 -79 9
-172 9 -171 1 -185 4 -179 42 2 14 27 16 209 19 l207 2 -3 88 -3 87 -327 3
c-181 1 -329 1 -329 0z"/>
</g>
</svg>
