<?xml version="1.0" standalone="no"?>
<!DOCTYPE svg PUBLIC "-//W3C//DTD SVG 20010904//EN"
 "http://www.w3.org/TR/2001/REC-SVG-20010904/DTD/svg10.dtd">
<svg version="1.0" xmlns="http://www.w3.org/2000/svg"
 width="700.000000pt" height="700.000000pt" viewBox="0 0 700.000000 700.000000"
 preserveAspectRatio="xMidYMid meet">
<metadata>
Created by potrace 1.11, written by Peter Selinger 2001-2013
</metadata>
<g transform="translate(0.000000,700.000000) scale(0.100000,-0.100000)"
fill="#000000" stroke="none">
<path d="M1130 5463 c0 -4 -17 -26 -38 -48 -20 -22 -60 -67 -87 -100 -28 -33
-63 -75 -80 -93 -46 -51 -50 -63 -30 -78 9 -7 31 -26 49 -41 17 -16 40 -35 52
-43 11 -8 47 -38 80 -66 32 -29 149 -127 259 -220 110 -92 202 -171 205 -174
3 -3 17 -15 31 -25 14 -11 50 -41 80 -67 56 -48 107 -91 199 -168 30 -25 101
-86 159 -135 59 -50 141 -119 184 -154 42 -35 77 -66 76 -70 0 -3 -70 -62
-156 -131 -85 -69 -161 -129 -167 -135 -23 -20 -114 -94 -241 -196 -71 -57
-132 -106 -135 -110 -3 -3 -63 -52 -135 -110 -71 -58 -195 -158 -275 -223 -80
-65 -160 -130 -179 -144 -18 -15 -50 -41 -69 -58 l-35 -31 130 -132 130 -131
109 92 c60 51 114 97 120 103 6 5 33 28 60 51 137 115 602 509 624 528 14 12
171 145 350 296 179 150 327 276 330 280 3 3 29 25 58 49 l54 45 -39 35 c-22
20 -61 55 -89 77 -154 130 -394 332 -464 392 -103 88 -343 291 -395 334 -33
28 -73 62 -90 77 -16 14 -59 51 -96 81 -36 30 -167 141 -290 245 -235 200
-249 211 -249 198z"/>
<path d="M3239 1915 c-4 -41 -1 -324 4 -331 3 -5 612 -9 1444 -9 l1438 0 0
175 0 175 -1442 0 c-962 0 -1443 -3 -1444 -10z"/>
</g>
</svg>
