<?xml version="1.0" standalone="no"?>
<!DOCTYPE svg PUBLIC "-//W3C//DTD SVG 20010904//EN"
 "http://www.w3.org/TR/2001/REC-SVG-20010904/DTD/svg10.dtd">
<svg version="1.0" xmlns="http://www.w3.org/2000/svg"
 width="700.000000pt" height="700.000000pt" viewBox="0 0 700.000000 700.000000"
 preserveAspectRatio="xMidYMid meet">
<metadata>
Created by potrace 1.11, written by Peter Selinger 2001-2013
</metadata>
<g transform="translate(0.000000,700.000000) scale(0.100000,-0.100000)"
fill="#000000" stroke="none">
<path d="M0 3500 l0 -3500 3500 0 3500 0 0 3500 0 3500 -3500 0 -3500 0 0
-3500z m1999 1241 c813 -688 842 -714 824 -732 -10 -9 -394 -335 -853 -723
l-834 -706 -128 127 c-70 70 -128 131 -128 135 0 3 313 260 695 570 382 310
694 565 695 568 0 3 -312 269 -694 590 -393 331 -693 590 -691 598 9 27 251
299 261 293 6 -3 390 -327 853 -720z m4121 -2901 l0 -260 -1440 0 -1440 0 0
260 0 260 1440 0 1440 0 0 -260z"/>
</g>
</svg>
