<?xml version="1.0" standalone="no"?>
<!DOCTYPE svg PUBLIC "-//W3C//DTD SVG 20010904//EN"
 "http://www.w3.org/TR/2001/REC-SVG-20010904/DTD/svg10.dtd">
<svg version="1.0" xmlns="http://www.w3.org/2000/svg"
 width="700.000000pt" height="700.000000pt" viewBox="0 0 700.000000 700.000000"
 preserveAspectRatio="xMidYMid meet">
<metadata>
Created by potrace 1.11, written by Peter Selinger 2001-2013
</metadata>
<g transform="translate(0.000000,700.000000) scale(0.100000,-0.100000)"
fill="#000000" stroke="none">
<path d="M1085 6980 c-292 -52 -507 -162 -705 -360 -184 -184 -292 -383 -352
-651 l-23 -104 0 -2345 c0 -1290 3 -2365 7 -2390 50 -299 184 -560 394 -762
50 -48 74 -69 149 -125 138 -105 369 -199 570 -230 63 -10 4670 -11 4745 -1
68 9 197 42 270 69 112 41 281 136 347 193 110 95 147 131 194 186 31 36 64
79 75 95 10 17 22 32 25 35 14 10 109 198 133 261 23 62 57 183 73 261 11 53
13 4684 2 4757 -82 558 -451 965 -994 1097 -133 32 -151 33 -2495 32 -2179 0
-2321 -1 -2415 -18z m265 -1690 c100 -85 230 -195 289 -244 58 -49 108 -91
111 -95 3 -3 30 -26 60 -51 30 -25 68 -57 85 -71 16 -15 212 -180 435 -369
223 -188 429 -362 459 -388 l53 -46 -29 -26 c-65 -56 -100 -86 -413 -350 -179
-151 -336 -284 -350 -296 -14 -12 -149 -127 -300 -254 -151 -128 -291 -247
-311 -264 -37 -31 -59 -50 -218 -184 l-84 -71 -129 129 c-70 71 -128 131 -128
134 0 2 33 30 73 62 39 33 74 61 77 64 3 3 86 71 185 150 99 80 185 150 191
155 16 14 182 149 597 485 146 118 266 218 266 221 1 3 -63 59 -141 124 -79
66 -145 122 -148 125 -3 3 -32 28 -65 55 -33 28 -62 52 -65 55 -3 3 -45 39
-95 80 -49 41 -107 91 -128 110 -21 19 -46 39 -55 44 -10 5 -19 12 -22 16 -5
7 -286 246 -394 335 -27 22 -69 58 -94 80 -25 22 -54 47 -66 55 -12 8 -31 25
-44 37 -13 13 -34 31 -48 39 -13 9 -24 20 -24 25 0 4 17 27 38 51 20 24 57 68
82 97 25 30 64 75 87 100 23 25 43 50 43 55 0 12 16 0 220 -174z m4775 -3455
l0 -260 -1443 0 -1442 0 -1 25 c-1 32 -1 471 0 488 1 10 293 12 1444 10 l1442
-3 0 -260z"/>
</g>
</svg>
