<?xml version="1.0" encoding="utf-8"?>
<!-- Generator: Adobe Illustrator 17.0.0, SVG Export Plug-In . SVG Version: 6.00 Build 0)  -->
<!DOCTYPE svg PUBLIC "-//W3C//DTD SVG 1.1//EN" "http://www.w3.org/Graphics/SVG/1.1/DTD/svg11.dtd">
<svg version="1.1" id="Layer_1" xmlns="http://www.w3.org/2000/svg" xmlns:xlink="http://www.w3.org/1999/xlink" x="0px" y="0px"
	 width="26.928px" height="26.924px" viewBox="0 0 26.928 26.924" enable-background="new 0 0 26.928 26.924" xml:space="preserve">
<g id="c194_arrow">
	<path d="M26.925,13.462c0-7.437-6.025-13.464-13.462-13.464c-7.435,0-13.462,6.027-13.462,13.464
		c0,7.432,6.027,13.463,13.462,13.463C20.9,26.926,26.925,20.894,26.925,13.462z M11.625,22.814l-6.354-6.355
		c-0.828-0.826-0.867-2.121-0.094-2.895c0.773-0.772,2.068-0.732,2.893,0.094l3.042,3.04V5.445c0-1.097,0.888-1.982,1.981-1.984
		c1.094,0,1.98,0.887,1.98,1.984v11.311l3.053-3.056c0.814-0.812,2.103-0.847,2.875-0.07c0.772,0.773,0.741,2.058-0.073,2.871
		l-6.268,6.271c-0.027,0.027-0.062,0.047-0.088,0.07c-0.02,0.023-0.033,0.047-0.054,0.066
		C13.749,23.682,12.452,23.641,11.625,22.814z"/>
</g>
<g id="Capa_1">
</g>
</svg>
