<?xml version="1.0" encoding="utf-8"?>
<!-- Generator: Adobe Illustrator 17.0.0, SVG Export Plug-In . SVG Version: 6.00 Build 0)  -->
<!DOCTYPE svg PUBLIC "-//W3C//DTD SVG 1.1//EN" "http://www.w3.org/Graphics/SVG/1.1/DTD/svg11.dtd">
<svg version="1.1" id="Layer_1" xmlns="http://www.w3.org/2000/svg" xmlns:xlink="http://www.w3.org/1999/xlink" x="0px" y="0px"
	 width="26.928px" height="26.924px" viewBox="0 0 26.928 26.924" enable-background="new 0 0 26.928 26.924" xml:space="preserve">
<g id="c194_arrow">
	<path d="M0.001,13.462c0,7.437,6.025,13.464,13.462,13.464c7.435,0,13.462-6.027,13.462-13.464c0-7.432-6.027-13.463-13.462-13.463
		C6.026-0.002,0.001,6.03,0.001,13.462z M15.301,4.109l6.354,6.355c0.828,0.826,0.867,2.121,0.094,2.895
		c-0.773,0.772-2.068,0.732-2.893-0.094l-3.042-3.04v11.253c0,1.097-0.888,1.982-1.981,1.984c-1.094,0-1.98-0.887-1.98-1.984V10.168
		L8.8,13.224c-0.814,0.812-2.103,0.847-2.875,0.07c-0.772-0.773-0.741-2.058,0.073-2.871l6.268-6.271
		c0.027-0.027,0.062-0.047,0.088-0.07c0.02-0.023,0.033-0.047,0.054-0.066C13.177,3.241,14.474,3.283,15.301,4.109z"/>
</g>
<g id="Capa_1">
</g>
</svg>
