<?xml version="1.0" encoding="utf-8"?>
<!-- Generator: Adobe Illustrator 17.0.0, SVG Export Plug-In . SVG Version: 6.00 Build 0)  -->
<!DOCTYPE svg PUBLIC "-//W3C//DTD SVG 1.1//EN" "http://www.w3.org/Graphics/SVG/1.1/DTD/svg11.dtd">
<svg version="1.1" id="Layer_1" xmlns="http://www.w3.org/2000/svg" xmlns:xlink="http://www.w3.org/1999/xlink" x="0px" y="0px"
	 width="26.928px" height="26.924px" viewBox="0 0 26.928 26.924" enable-background="new 0 0 26.928 26.924" xml:space="preserve">
<g id="c194_arrow">
	<path d="M13.463,26.924c7.437,0,13.464-6.025,13.464-13.462C26.927,6.027,20.9,0,13.463,0C6.031,0,0,6.027,0,13.462
		C-0.001,20.899,6.031,26.924,13.463,26.924z M4.111,11.624l6.355-6.354c0.826-0.828,2.121-0.867,2.895-0.094
		c0.772,0.773,0.732,2.068-0.094,2.893l-3.04,3.042H21.48c1.097,0,1.982,0.888,1.984,1.981c0,1.094-0.887,1.98-1.984,1.98H10.169
		l3.056,3.053c0.812,0.814,0.847,2.103,0.07,2.875c-0.773,0.772-2.058,0.741-2.871-0.073l-6.271-6.268
		c-0.027-0.027-0.047-0.062-0.07-0.088c-0.023-0.02-0.047-0.033-0.066-0.054C3.243,13.748,3.284,12.451,4.111,11.624z"/>
</g>
<g id="Capa_1">
</g>
</svg>
