<?xml version="1.0" encoding="iso-8859-1"?>
<!-- Generator: Adobe Illustrator 18.0.0, SVG Export Plug-In . SVG Version: 6.00 Build 0)  -->
<!DOCTYPE svg PUBLIC "-//W3C//DTD SVG 1.1//EN" "http://www.w3.org/Graphics/SVG/1.1/DTD/svg11.dtd">
<svg version="1.1" id="Capa_1" xmlns="http://www.w3.org/2000/svg" xmlns:xlink="http://www.w3.org/1999/xlink" x="0px" y="0px"
	 viewBox="0 0 32.23 32.687" style="enable-background:new 0 0 32.23 32.687;" xml:space="preserve">
<g id="Search">
	<g>
		<path style="fill-rule:evenodd;clip-rule:evenodd;" d="M31.645,29.273l-6.639-6.639C26.875,20.254,28,17.261,28,14
			c0-7.732-6.268-14-14-14S0,6.268,0,14c0,7.732,6.268,14,14,14c3.027,0,5.821-0.97,8.111-2.603l6.705,6.705
			c0.781,0.781,2.047,0.781,2.828,0C32.426,31.321,32.426,30.054,31.645,29.273z M21.773,21.042
			c-0.267,0.097-0.521,0.239-0.735,0.454c-0.197,0.197-0.343,0.425-0.441,0.668C18.794,23.623,16.5,24.5,14,24.5
			C8.201,24.5,3.5,19.799,3.5,14C3.5,8.201,8.201,3.5,14,3.5S24.5,8.201,24.5,14C24.5,16.713,23.462,19.178,21.773,21.042z"/>
	</g>
</g>
<g>
</g>
<g>
</g>
<g>
</g>
<g>
</g>
<g>
</g>
<g>
</g>
<g>
</g>
<g>
</g>
<g>
</g>
<g>
</g>
<g>
</g>
<g>
</g>
<g>
</g>
<g>
</g>
<g>
</g>
</svg>
