<?xml version="1.0" encoding="utf-8"?>
<!-- Generator: Adobe Illustrator 19.2.1, SVG Export Plug-In . SVG Version: 6.00 Build 0)  -->
<svg version="1.1" id="Layer_1" xmlns="http://www.w3.org/2000/svg" xmlns:xlink="http://www.w3.org/1999/xlink" x="0px" y="0px"
	 viewBox="0 0 108 17" style="enable-background:new 0 0 108 17;" xml:space="preserve">
<style type="text/css">
	.st0{fill:#FFFFFF;}
</style>
<path class="st0" d="M54.3,5.8c0.1-1.3,0.5-2.3,1.2-3.1V1.6h-0.9c-1.9,0-3.5,0.7-4.5,2.4H50V1.8h-4.9v13.4H50V9.8
	c0-2.3,0.7-4.1,3.4-4.1C53.7,5.7,54,5.7,54.3,5.8z"/>
<path class="st0" d="M91.4,5.7c0.4-1.2,1.1-2.2,1.9-3.1v-1h-0.9c-1.9,0-3.5,0.7-4.5,2.4h-0.1V1.8h-4.9v13.4h4.9V9.8
	c0-2.3,0.7-4.1,3.4-4.1L91.4,5.7z"/>
<path class="st0" d="M64.2,5.2c-0.8-0.4-1.8-0.7-2.6-0.7c-0.6,0-1.5,0.2-1.5,0.9c0,0.9,1.5,1,2.2,1.2c2.3,0.4,4,1.5,4,4
	c0,3.5-3.3,5-6.5,5c-2,0-3.9-0.6-5.6-1.5l1.8-3.3c1,0.7,2.7,1.4,3.9,1.4c0.6,0,1.5-0.3,1.5-1c0-1-1.5-1.1-3.1-1.5
	c-1.5-0.4-3.1-1.1-3.1-3.5c0-3.3,3.1-4.8,6.1-4.8c1.6,0,3.1,0.2,4.5,0.9L64.2,5.2z"/>
<path class="st0" d="M108,15.2h-4.9v-1.5H103c-0.9,1.3-2.6,1.9-4.2,1.9c-4.1,0-7-3.3-7-7.2c0-3.8,2.8-7.2,6.9-7.2
	c1.6,0,3.3,0.6,4.3,1.8V1.8h4.9L108,15.2L108,15.2z M97,8.5c0,1.7,1.2,3,3.2,3c2,0,3.1-1.3,3.1-3c0-1.7-1.2-3-3.1-3
	C98.1,5.5,97,6.8,97,8.5z"/>
<path class="st0" d="M82.2,9.3H71.8c0,1.9,1.1,3,3.1,3c1.1,0,1.8-0.3,2.3-1.2H82c-0.8,3.2-3.9,4.6-7,4.6c-4.6,0-8-2.5-8-7.2
	c0-4.5,3.1-7.2,7.6-7.2c4.8,0,7.6,2.9,7.6,7.5L82.2,9.3L82.2,9.3z M77.6,6.5c-0.2-1.3-1.5-2.1-2.8-2.1c-1.4,0-2.6,0.7-2.9,2.1
	L77.6,6.5z"/>
<g>
	<g>
		<path class="st0" d="M29.6,8.3c0-0.1,0-0.2,0-0.3c0,0,0,0,0,0c0,0,0,0,0,0c-0.1-1.2-0.5-2.4-1.2-3.5C28,4,27.6,3.5,27.3,3.2
			c-0.6-0.6-1.3-1-2-1.4C24.1,1.2,22.8,1,21.5,1c-0.1,0-0.3,0-0.4,0c-0.9,0-1.9,0.2-2.7,0.5c-0.9,0.3-1.6,0.7-2.2,1.2
			c-0.1,0.1-0.3,0.2-0.4,0.4l-0.1,0.1l-0.1,0.2h0h0l-0.1,0.1l0,0l-0.2,0.2c-0.1,0.1-0.3,0.3-0.4,0.4l0,0l0,0
			c-0.2,0.3-0.5,0.6-0.6,0.9c-0.1,0.2-0.2,0.3-0.3,0.5l-1.4,2.9l0,0l-0.1,0.1l-0.2,0.3c-0.3,0.6-0.6,1.3-1,1.8
			c-0.8,0.9-1.8,1.4-3,1.4c-0.1,0-0.2,0-0.3,0c-0.7,0-1.3-0.2-1.9-0.5c-0.1,0-0.1-0.1-0.2-0.1c-0.4-0.3-0.8-0.7-1.1-1.2
			C4.6,9.5,4.4,9,4.5,8.4c0,0,0,0,0,0c0-0.9,0.4-1.7,1.1-2.3c0.2-0.2,0.4-0.3,0.5-0.4c0,0,0.1,0,0.1,0C6.7,5.3,7.3,5.2,8,5.2l0.2,0
			c1.1,0,2,0.4,2.6,1.1L13,2.4c-0.5-0.3-1.1-0.6-1.7-0.9c0,0,0,0-0.1,0c-0.1,0-0.2-0.1-0.2-0.1C10.3,1.2,9.6,1.1,8.9,1l0,0
			c0,0,0,0-0.1,0C8.7,1,8.6,1,8.5,1c-0.1,0-0.2,0-0.4,0H8.1C6.7,1,5.5,1.2,4.3,1.8C3.1,2.4,2,3.3,1.3,4.4C0.5,5.6,0.1,6.9,0,8.3
			c0,0.1,0,0.2,0,0.4c0,1.9,0.7,3.6,2.1,5c1.5,1.5,3.4,2.3,5.6,2.4c0.1,0,0.3,0,0.4,0c1.3,0,2.5-0.2,3.5-0.7
			c0.3-0.1,0.5-0.2,0.8-0.4c0.1-0.1,0.3-0.2,0.4-0.3l0.1-0.1l0.2-0.1c0.2-0.1,0.4-0.3,0.6-0.5l0.1-0.1c0.1-0.1,0.2-0.2,0.3-0.3
			l0.4-0.4l0.1-0.2l0.1-0.1l0.1-0.1c0.6-1,2.4-4.4,2.4-4.4v0l0.1-0.2L17.4,8c0.3-0.5,0.5-0.8,0.7-1.2l0,0c0.6-0.9,1.7-1.5,2.9-1.6
			c2.1-0.2,3.9,1.2,4.1,3c0.2,1.9-1.4,3.5-3.4,3.7c-0.4,0-0.9,0-1.2-0.1l0,0c-1.5-0.3-2.5-1.4-3-1.9l-2,3.7c0,0,0.6,0.6,1,0.9
			c0.4,0.3,1,0.6,1.4,0.8c1.1,0.5,2.2,0.7,3.5,0.7c0.1,0,0.1,0,0.3,0c2.3-0.1,4.3-1,5.8-2.5c1.4-1.4,2.1-3,2.1-4.9V8.6
			C29.6,8.5,29.6,8.4,29.6,8.3z"/>
	</g>
</g>
<g>
	<path class="st0" d="M37.2,15.7c-1,0-2-0.1-2.8-0.4s-1.6-0.6-2.2-1.1c-0.6-0.5-1.1-1.2-1.4-2s-0.5-1.8-0.5-2.9V1.8h4.7v7.5
		c0,0.8,0.2,1.5,0.6,1.8c0.4,0.4,0.9,0.6,1.5,0.6c0.6,0,1.2-0.2,1.5-0.5c0.4-0.4,0.6-0.9,0.6-1.8V1.8h4.7v7.4c0,1.2-0.2,2.2-0.5,3
		c-0.3,0.8-0.8,1.5-1.4,2c-0.6,0.5-1.3,0.9-2.2,1.1C39.2,15.5,38.2,15.7,37.2,15.7z"/>
</g>
</svg>
