<?xml version="1.0" encoding="utf-8"?>
<!-- Generator: Adobe Illustrator 19.2.1, SVG Export Plug-In . SVG Version: 6.00 Build 0)  -->
<svg version="1.1" id="Layer_1" xmlns="http://www.w3.org/2000/svg" xmlns:xlink="http://www.w3.org/1999/xlink" x="0px" y="0px"
	 viewBox="0 0 514.5 143.7" style="enable-background:new 0 0 514.5 143.7;" xml:space="preserve">
<style type="text/css">
	.st0{fill:#FFFFFF;}
</style>
<g>
	<path class="st0" d="M112.8,120.6H85l9.2-42.4c2.3-11,5.1-21.8,8.1-32.4l-2.1,5.1C96,61.3,90.1,74.3,86.7,81.3l-19,39.3H45.3
		l-2.5-39.2c-0.7-11.8-1-23.4-1-35.2c-1.4,11-3,22.2-5.2,33l-8.5,41.3H0l20.7-97.5h41.8l0.8,30.1c0.1,5.2,0.1,10.5,0.1,15.7
		c0,7.1-0.1,10.4-0.5,18.8c4.2-16,11.2-31.5,18.6-46.1l9.3-18.5h42.7L112.8,120.6z"/>
	<path class="st0" d="M159,120.6h-29.8l20.7-97.5h29.8L159,120.6z"/>
	<path class="st0" d="M237.8,23.1c20.3,0,35.9,6.6,35.9,29.7c0,13-6.2,24.9-16,31.2c-8.9,5.8-19.3,6.4-29.6,6.4h-17.3l-6.3,30.1H175
		l20.7-97.5H237.8z M215.8,67.6h13.6c8.5,0,15.5-1.6,15.5-11.6c0-7.5-5.3-8.9-12-8.9H220L215.8,67.6z"/>
	<path class="st0" d="M364.5,47.9h-26.8l-15.5,72.7h-29.8l15.5-72.7h-27.7l5.2-24.8h84.5L364.5,47.9z"/>
</g>
<g>
	<polygon class="st0" points="460.1,71.9 413.8,71.9 380.4,0.2 426.7,0.2 	"/>
	<polygon class="st0" points="355,143.6 401.4,143.6 460.1,71.9 413.7,71.9 	"/>
	<polygon class="st0" points="485.6,35.2 514.5,0 469,0 485.4,35.2 	"/>
	<polygon class="st0" points="473.1,107.9 472.9,107.9 444,143.3 444.1,143.7 489.7,143.7 	"/>
</g>
</svg>
