<?xml version="1.0" encoding="utf-8"?>
<!-- Generator: Adobe Illustrator 19.2.1, SVG Export Plug-In . SVG Version: 6.00 Build 0)  -->
<svg version="1.1" id="Layer_1" xmlns="http://www.w3.org/2000/svg" xmlns:xlink="http://www.w3.org/1999/xlink" x="0px" y="0px"
	 viewBox="0 0 320 97.1" style="enable-background:new 0 0 320 97.1;" xml:space="preserve">
<style type="text/css">
	.st0{fill:#FFFFFF;}
</style>
<g>
	<path class="st0" d="M196,23.9c0-8.2,6.7-14.9,14.9-14.9c8.2,0,14.9,6.7,14.9,14.9c0,8.2-6.7,14.9-14.9,14.9
		C202.6,38.7,196,32.1,196,23.9 M210.8,33.4c5.3,0,9.5-4.3,9.6-9.6c0-5.3-4.3-9.5-9.6-9.6c-5.3,0-9.5,4.3-9.6,9.6
		C201.3,29.1,205.6,33.4,210.8,33.4z"/>
	<path class="st0" d="M144.6,72.4c0-8.2,6.7-14.9,14.9-14.9c8.2,0,14.9,6.7,14.9,14.9c0,8.2-6.7,14.9-14.9,14.9
		C151.3,87.3,144.6,80.6,144.6,72.4 M159.5,82c5.3,0,9.5-4.3,9.6-9.6c0-5.3-4.3-9.6-9.6-9.6c-5.3,0-9.5,4.3-9.6,9.6
		C150,77.7,154.2,82,159.5,82z"/>
	<path class="st0" d="M0,72.4c0-8.2,6.6-14.9,14.9-14.9c8.2,0,14.9,6.6,14.9,14.9c0,8.2-6.6,14.9-14.9,14.9C6.6,87.3,0,80.6,0,72.4
		 M14.9,82c5.3,0,9.5-4.3,9.6-9.6c0-5.3-4.3-9.6-9.6-9.6c-5.3,0-9.5,4.3-9.6,9.6C5.3,77.7,9.6,82,14.9,82z"/>
	<path class="st0" d="M67.2,37.6c-0.2,0.1-0.4,0.2-0.8,0.2h-2.9c-0.4,0-0.7-0.1-0.8-0.2c-0.2-0.1-0.3-0.4-0.3-0.9V14.5h-7.9
		c-0.5,0-0.7-0.1-0.9-0.3c-0.1-0.2-0.2-0.4-0.2-0.7v-2.4c0-0.4,0.1-0.6,0.2-0.8c0.1-0.2,0.4-0.3,0.9-0.3h21.3c0.5,0,0.7,0.1,0.9,0.3
		c0.1,0.2,0.2,0.5,0.2,0.8v2.4c0,0.3-0.1,0.6-0.2,0.7c-0.1,0.2-0.4,0.3-0.9,0.3h-8.3v22.2C67.4,37.2,67.4,37.5,67.2,37.6"/>
	<path class="st0" d="M85.7,37.7c-0.1,0.1-0.4,0.1-0.7,0.1h-3.3c-0.3,0-0.6,0-0.7-0.1c-0.2-0.1-0.2-0.3-0.2-0.7V10.9
		c0-0.4,0.1-0.6,0.2-0.7c0.2-0.1,0.4-0.1,0.7-0.1h3.3c0.4,0,0.6,0,0.7,0.1c0.1,0.1,0.2,0.3,0.2,0.7v10h3.8c1,0,2-0.2,2.9-0.7
		c0.9-0.4,1.6-1.5,2.1-3l2-6.4c0.1-0.3,0.2-0.5,0.4-0.6c0.2-0.1,0.4-0.1,0.5-0.1h3.3c0.4,0,0.6,0.1,0.6,0.3c0.1,0.2,0.1,0.4,0,0.6
		l-2,6.9c-0.3,1.1-0.7,2.1-1.2,2.9c-0.5,0.9-1.3,1.5-2.2,1.9l-0.1,0.1c1.4,0.4,2.4,1.1,2.9,1.9c0.5,0.8,1,1.8,1.3,3l2.7,9.1
		c0,0.2,0,0.4,0,0.6c0,0.2-0.3,0.3-0.7,0.3h-3.5c-0.1,0-0.3,0-0.5-0.1c-0.2-0.1-0.3-0.2-0.4-0.5l-2.6-8.7c-0.4-1.2-1.1-2.1-2-2.7
		c-1-0.5-2-0.8-3.1-0.8h-4.3v11.9C85.9,37.3,85.8,37.6,85.7,37.7"/>
	<path class="st0" d="M131.9,23.9c0,2-0.3,3.8-0.8,5.6c-0.5,1.7-1.3,3.3-2.3,4.6c-1,1.3-2.3,2.4-3.9,3.1c-1.6,0.8-3.4,1.2-5.4,1.2
		c-0.9,0-1.9-0.1-3-0.2c-1.1-0.1-2.2-0.3-3.5-0.6v10c0,0.4-0.1,0.6-0.2,0.7c-0.1,0.1-0.4,0.1-0.7,0.1h-3.3c-0.3,0-0.6,0-0.7-0.1
		c-0.2-0.1-0.2-0.3-0.2-0.7V12.4c0-0.5,0.2-0.8,0.7-1c1.8-0.8,3.6-1.3,5.5-1.6c1.9-0.3,3.7-0.4,5.4-0.4c2.1,0,4,0.4,5.6,1.1
		c1.6,0.7,2.9,1.8,3.9,3.1c1,1.3,1.8,2.8,2.2,4.6C131.7,20,131.9,21.9,131.9,23.9 M126.5,23.9c0-3.6-0.7-6.2-2.1-7.7
		c-1.4-1.5-3.4-2.3-5.8-2.3c-0.8,0-1.8,0.1-2.9,0.2c-1.1,0.2-2,0.4-2.6,0.7v18.2c1.2,0.3,2.3,0.5,3.2,0.6c0.9,0.1,1.7,0.2,2.5,0.2
		c1.1,0,2.2-0.2,3.1-0.5c1-0.3,1.8-0.9,2.5-1.7c0.7-0.8,1.2-1.8,1.6-3.1C126.3,27.4,126.5,25.8,126.5,23.9z"/>
	<path class="st0" d="M142.9,19.5h8.3c2.1,0,3.8,0.3,5.2,1c1.3,0.7,2.4,1.5,3.1,2.5c0.7,1,1.2,1.9,1.5,3c0.2,1,0.4,1.9,0.4,2.7
		c0,1.3-0.2,2.5-0.7,3.6c-0.5,1.1-1.2,2.1-2,2.9c-0.8,0.8-1.8,1.5-3,1.9c-1.1,0.5-2.3,0.7-3.6,0.7h-11.5c-1.1,0-1.8-0.3-2.1-1
		c-0.4-0.7-0.6-1.3-0.6-2.1V11c0-0.4,0.1-0.7,0.3-0.8c0.2-0.1,0.4-0.2,0.8-0.2h3c0.4,0,0.7,0.1,0.8,0.2c0.2,0.1,0.3,0.4,0.3,0.8
		V19.5 M156.1,28.6c0-1.3-0.4-2.4-1.3-3.4c-0.9-1-2.2-1.5-3.9-1.5h-8v9.8h8c1.1,0,2-0.2,2.7-0.5c0.7-0.3,1.2-0.8,1.6-1.3
		c0.4-0.5,0.6-1,0.8-1.6C156.1,29.6,156.1,29.1,156.1,28.6z M169.5,36.7c0,0.5-0.1,0.7-0.3,0.9c-0.2,0.1-0.5,0.2-0.9,0.2h-3
		c-0.4,0-0.7-0.1-0.8-0.2c-0.2-0.1-0.2-0.4-0.2-0.9V11c0-0.4,0.1-0.7,0.2-0.8c0.2-0.1,0.4-0.2,0.8-0.2h3c0.4,0,0.7,0.1,0.9,0.2
		c0.2,0.1,0.3,0.4,0.3,0.8V36.7z"/>
	<path class="st0" d="M187.3,37.6c-0.2,0.1-0.4,0.2-0.8,0.2h-2.9c-0.4,0-0.7-0.1-0.8-0.2c-0.2-0.1-0.3-0.4-0.3-0.9V14.5h-7.9
		c-0.5,0-0.7-0.1-0.9-0.3c-0.1-0.2-0.2-0.4-0.2-0.7v-2.4c0-0.4,0.1-0.6,0.2-0.8c0.1-0.2,0.4-0.3,0.9-0.3h21.3c0.5,0,0.7,0.1,0.9,0.3
		c0.1,0.2,0.2,0.5,0.2,0.8v2.4c0,0.3-0.1,0.6-0.2,0.7c-0.1,0.2-0.4,0.3-0.9,0.3h-8.3v22.2C187.5,37.2,187.4,37.5,187.3,37.6"/>
	<path class="st0" d="M240.3,9.5c2,0,3.7,0.3,5.2,0.8c1.5,0.5,2.7,1.3,3.6,2.3c1,1,1.7,2.2,2.1,3.6c0.5,1.4,0.7,3,0.7,4.7
		c0,0.9-0.1,1.7-0.4,2.2c-0.2,0.6-0.6,1-1,1.4c-0.4,0.3-0.9,0.6-1.4,0.7c-0.5,0.1-1.1,0.2-1.7,0.2h-14.4c0,1.6,0.3,2.9,0.7,3.9
		c0.4,1.1,1,1.9,1.7,2.6c0.7,0.7,1.6,1.1,2.5,1.4c1,0.3,2,0.4,3.1,0.4c1.2,0,2.3-0.2,3.5-0.5c1.1-0.3,2.1-0.7,2.8-1.1
		c0.5-0.2,0.9-0.1,1.1,0.3l1.3,2.5c0.2,0.6,0.1,1-0.3,1.2c-1.3,0.8-2.8,1.3-4.3,1.6c-1.5,0.3-3,0.4-4.4,0.4c-4.1,0-7.2-1.1-9.5-3.4
		c-2.3-2.3-3.4-5.9-3.4-10.9c0-2.3,0.3-4.4,1-6.2c0.6-1.8,1.5-3.3,2.6-4.6c1.1-1.2,2.4-2.2,3.9-2.9C236.9,9.8,238.5,9.5,240.3,9.5
		 M247,21.4c0-1.1-0.1-2-0.3-3c-0.2-0.9-0.5-1.7-1-2.4c-0.5-0.7-1.2-1.2-2-1.6c-0.9-0.4-2-0.6-3.3-0.6c-1.1,0-2.1,0.2-2.9,0.7
		c-0.9,0.4-1.6,1-2.2,1.7c-0.6,0.7-1,1.5-1.4,2.4c-0.3,0.9-0.5,1.8-0.6,2.8H247z"/>
	<path class="st0" d="M47.4,60.6c2.1,0,3.8,0.4,5.2,1.1c1.4,0.7,2.5,1.6,3.4,2.8c0.8,1.2,1.5,2.6,1.8,4.1c0.4,1.6,0.6,3.3,0.6,5
		c0,1.5-0.2,3-0.6,4.6c-0.4,1.6-1.1,3-2.1,4.3c-1,1.3-2.3,2.4-4,3.2c-1.7,0.8-3.8,1.3-6.3,1.3c-2.6,0-4.7-0.4-6.3-1.2
		c-1.6-0.8-2.8-1.9-3.6-3.1c-0.9-1.3-1.4-2.7-1.7-4.3c-0.3-1.6-0.4-3.2-0.4-4.8c0-3.5,0.1-6.5,0.4-9.1c0.3-2.6,0.8-4.9,1.6-6.8
		c0.8-1.9,1.9-3.5,3.4-4.8c1.4-1.3,3.3-2.3,5.7-3c0.7-0.2,1.5-0.4,2.3-0.6c0.8-0.2,1.7-0.4,2.5-0.6c0.8-0.2,1.7-0.3,2.5-0.5
		c0.8-0.2,1.5-0.3,2.2-0.4c0.4-0.1,0.7-0.1,0.8,0c0.2,0.1,0.3,0.3,0.4,0.6l0.7,2.4c0.2,0.5,0.2,0.8-0.1,1c-0.2,0.1-0.4,0.2-0.6,0.3
		l-6.6,1.5c-1.8,0.4-3.3,0.8-4.4,1.3c-1.1,0.5-2,1.1-2.7,1.8c-0.7,0.7-1.2,1.6-1.5,2.6c-0.3,1-0.6,2.2-0.8,3.6l0.1,0.1
		c1.3-0.9,2.7-1.5,4.2-1.8C44.9,60.7,46.3,60.6,47.4,60.6 M45.5,82.7c1.5,0,2.7-0.3,3.7-0.8c1-0.6,1.8-1.3,2.4-2.1
		c0.6-0.9,1-1.8,1.2-2.9c0.2-1,0.3-2.1,0.3-3c0-1.2-0.1-2.4-0.3-3.5c-0.2-1.1-0.6-2.1-1.1-2.9c-0.5-0.8-1.2-1.5-2-2
		c-0.8-0.5-1.9-0.7-3.1-0.7c-1.2,0-2.5,0.2-3.9,0.6c-1.4,0.4-2.8,1.1-4,2c-0.1,0.8-0.1,1.5-0.2,2.1c-0.1,0.6-0.1,1.2-0.1,1.7
		c0,0.5-0.1,1-0.1,1.5c0,0.5,0,0.9,0,1.4c0,1.3,0.1,2.5,0.4,3.6c0.2,1.1,0.7,2,1.2,2.7c0.6,0.8,1.3,1.3,2.2,1.8
		C43,82.5,44.2,82.7,45.5,82.7z"/>
	<path class="st0" d="M88.3,72.6c0,2-0.3,3.8-0.8,5.6c-0.5,1.7-1.3,3.3-2.3,4.6c-1,1.3-2.3,2.4-3.9,3.1C79.8,86.6,78,87,75.9,87
		c-0.9,0-1.9-0.1-3-0.2c-1.1-0.1-2.2-0.3-3.5-0.6v10c0,0.4-0.1,0.6-0.2,0.7c-0.1,0.1-0.4,0.1-0.7,0.1h-3.3c-0.3,0-0.6,0-0.7-0.1
		c-0.2-0.1-0.2-0.3-0.2-0.7V61.1c0-0.5,0.2-0.8,0.7-1c1.8-0.8,3.6-1.3,5.5-1.6c1.9-0.3,3.7-0.4,5.4-0.4c2.1,0,4,0.4,5.6,1.1
		c1.6,0.7,2.9,1.8,3.9,3.1c1,1.3,1.8,2.8,2.2,4.6C88,68.7,88.3,70.5,88.3,72.6 M82.9,72.6c0-3.6-0.7-6.2-2.1-7.7
		c-1.4-1.5-3.4-2.3-5.8-2.3c-0.9,0-1.8,0.1-2.9,0.2c-1.1,0.2-2,0.4-2.6,0.7v18.2c1.2,0.3,2.3,0.5,3.2,0.6c0.9,0.1,1.7,0.2,2.5,0.2
		c1.1,0,2.2-0.2,3.1-0.5c1-0.3,1.8-0.9,2.5-1.7c0.7-0.8,1.2-1.8,1.6-3.1C82.7,76.1,82.9,74.5,82.9,72.6z"/>
	<path class="st0" d="M116,83.7c0,0.7-0.3,1.2-0.9,1.5c-1.6,0.7-3.3,1.2-5.2,1.4c-1.9,0.2-3.7,0.4-5.4,0.4c-2.3,0-4.2-0.2-5.7-0.7
		c-1.5-0.5-2.7-1.1-3.5-1.9c-0.9-0.8-1.5-1.8-1.8-2.8c-0.3-1.1-0.5-2.2-0.5-3.4c0-1.2,0.2-2.3,0.6-3.4c0.4-1.1,1-2.1,1.9-3
		c0.9-0.9,2.1-1.6,3.6-2.2c1.5-0.5,3.4-0.8,5.6-0.8h6v-0.9c0-0.8-0.1-1.5-0.2-2.1c-0.2-0.6-0.5-1.2-0.9-1.6c-0.4-0.5-1-0.8-1.8-1
		c-0.8-0.2-1.8-0.4-3-0.4c-0.6,0-1.3,0-2,0.1c-0.7,0.1-1.4,0.2-2,0.3c-0.7,0.1-1.3,0.2-1.8,0.3c-0.6,0.1-1.1,0.2-1.5,0.3
		c-0.4,0.1-0.6,0.1-0.8,0.1c-0.2,0-0.3-0.2-0.4-0.5l-0.7-2.6c-0.1-0.5,0-0.8,0.5-1c1.4-0.6,3-1,4.8-1.2c1.8-0.2,3.4-0.3,4.8-0.3
		c3.6,0,6.2,0.8,7.8,2.5c1.6,1.6,2.5,4,2.5,7V83.7 M110.7,73.2H105c-0.6,0-1.4,0-2.2,0.1c-0.8,0.1-1.5,0.3-2.2,0.6
		c-0.7,0.3-1.3,0.8-1.8,1.5c-0.5,0.7-0.7,1.6-0.7,2.7c0,1.7,0.6,2.9,1.7,3.6c1.1,0.7,2.7,1,4.6,1c0.3,0,0.7,0,1.2,0
		c0.5,0,1-0.1,1.6-0.1c0.6-0.1,1.2-0.2,1.8-0.3c0.6-0.1,1.2-0.3,1.7-0.4V73.2z"/>
	<path class="st0" d="M137.8,71.8c1.4,0.4,2.6,1.2,3.5,2.3c0.9,1.1,1.4,2.4,1.4,4c0,1.2-0.2,2.4-0.7,3.5c-0.5,1.1-1.2,2-2.2,2.8
		c-1,0.8-2.2,1.4-3.6,1.9c-1.4,0.5-3.1,0.7-4.9,0.7c-1.8,0-3.6-0.2-5.5-0.4c-1.9-0.3-3.5-0.8-4.8-1.5c-0.5-0.3-0.7-0.7-0.4-1.2
		l1.2-2.3c0.1-0.2,0.2-0.4,0.4-0.4c0.1-0.1,0.4,0,0.8,0.1c0.4,0.2,0.9,0.4,1.5,0.5c0.6,0.2,1.2,0.3,1.9,0.5c0.7,0.2,1.4,0.3,2.1,0.4
		c0.7,0.1,1.5,0.2,2.2,0.2c2.6,0,4.4-0.5,5.5-1.4c1.1-0.9,1.7-2.1,1.7-3.4c0-1.2-0.6-2.2-1.7-3c-1.1-0.8-3.1-1.2-6-1.2
		c-0.6,0-1.1-0.1-1.4-0.3c-0.3-0.2-0.5-0.6-0.5-1.2v-1c0-1,0.6-1.5,1.9-1.6c2.1-0.1,3.8-0.4,5-0.9c1.2-0.5,1.7-1.4,1.7-2.7
		c0-1-0.5-1.8-1.3-2.5c-0.9-0.6-2.4-0.9-4.4-0.9c-1.2,0-2.4,0.2-3.6,0.5c-1.3,0.3-2.3,0.6-3.2,1c-0.4,0.2-0.7,0.2-0.8,0.1
		c-0.1-0.1-0.3-0.2-0.4-0.5l-0.9-2.3c-0.3-0.6-0.2-1,0.3-1.2c1.3-0.7,2.7-1.2,4.2-1.6c1.5-0.4,3.3-0.5,5.2-0.5c3,0,5.4,0.6,7.3,1.9
		c1.9,1.3,2.8,3.1,2.8,5.4c0,1.4-0.4,2.6-1.1,3.6c-0.7,1-1.7,1.9-2.9,2.5V71.8"/>
	<path class="st0" d="M197.4,71.6c1.5,0.6,2.6,1.5,3.3,2.7c0.7,1.2,1,2.6,1,4c0,1.2-0.2,2.4-0.7,3.4c-0.5,1-1.1,1.9-2,2.6
		c-0.8,0.7-1.8,1.3-2.9,1.7c-1.1,0.4-2.3,0.6-3.6,0.6h-12.3c-0.8,0-1.4-0.2-1.7-0.6c-0.4-0.4-0.6-1-0.6-1.6V61
		c0-0.7,0.2-1.3,0.6-1.7c0.4-0.4,1-0.6,1.7-0.6H192c1.3,0,2.4,0.1,3.5,0.4c1,0.3,1.9,0.7,2.7,1.3c0.8,0.6,1.4,1.3,1.8,2.2
		c0.4,0.9,0.6,1.9,0.6,3.1c0,1.2-0.3,2.3-0.9,3.3c-0.6,1-1.4,1.7-2.3,2.2V71.6 M183.2,69.6h8.6c0.3,0,0.7-0.1,1.1-0.2
		c0.4-0.1,0.8-0.3,1.1-0.6c0.3-0.3,0.6-0.6,0.9-1c0.2-0.4,0.4-1,0.4-1.6c0-0.9-0.3-1.6-0.9-2.2c-0.6-0.6-1.4-0.9-2.4-0.9h-8.8V69.6z
		 M196.4,78c0-1.3-0.4-2.4-1.2-3.1c-0.8-0.8-2.1-1.2-3.7-1.2h-8.3v8.8h8.2c1,0,1.8-0.1,2.5-0.4c0.7-0.3,1.2-0.6,1.5-1.1
		c0.4-0.4,0.6-0.9,0.8-1.5C196.4,78.9,196.4,78.5,196.4,78z"/>
	<path class="st0" d="M229.5,83.7c0,0.7-0.3,1.2-0.9,1.5c-1.6,0.7-3.3,1.2-5.2,1.4c-1.9,0.2-3.7,0.4-5.4,0.4c-2.3,0-4.2-0.2-5.7-0.7
		c-1.5-0.5-2.7-1.1-3.5-1.9c-0.9-0.8-1.5-1.8-1.8-2.8c-0.3-1.1-0.5-2.2-0.5-3.4c0-1.2,0.2-2.3,0.6-3.4c0.4-1.1,1-2.1,1.9-3
		c0.9-0.9,2.1-1.6,3.6-2.2c1.5-0.5,3.4-0.8,5.6-0.8h6v-0.9c0-0.8-0.1-1.5-0.2-2.1c-0.2-0.6-0.5-1.2-0.9-1.6c-0.4-0.5-1-0.8-1.8-1
		c-0.8-0.2-1.8-0.4-3-0.4c-0.6,0-1.3,0-2,0.1c-0.7,0.1-1.4,0.2-2,0.3c-0.7,0.1-1.3,0.2-1.8,0.3c-0.6,0.1-1.1,0.2-1.5,0.3
		c-0.4,0.1-0.6,0.1-0.8,0.1c-0.2,0-0.3-0.2-0.4-0.5l-0.7-2.6c-0.1-0.5,0-0.8,0.5-1c1.4-0.6,3-1,4.8-1.2c1.8-0.2,3.4-0.3,4.8-0.3
		c3.6,0,6.2,0.8,7.8,2.5c1.6,1.6,2.5,4,2.5,7V83.7 M224.2,73.2h-5.7c-0.6,0-1.4,0-2.2,0.1c-0.8,0.1-1.5,0.3-2.2,0.6
		c-0.7,0.3-1.3,0.8-1.8,1.5c-0.5,0.7-0.7,1.6-0.7,2.7c0,1.7,0.6,2.9,1.7,3.6c1.1,0.7,2.7,1,4.6,1c0.3,0,0.7,0,1.2,0
		c0.5,0,1-0.1,1.6-0.1c0.6-0.1,1.2-0.2,1.8-0.3c0.6-0.1,1.2-0.3,1.7-0.4V73.2z"/>
	<path class="st0" d="M241.3,86.3c-0.2,0.1-0.5,0.2-0.8,0.2h-2.9c-0.4,0-0.7-0.1-0.9-0.2c-0.2-0.1-0.3-0.4-0.3-0.9V59.7
		c0-0.4,0.1-0.7,0.3-0.8c0.2-0.1,0.5-0.2,0.9-0.2h2.9c0.4,0,0.7,0.1,0.8,0.2c0.2,0.1,0.3,0.4,0.3,0.8v9.6h12.8v-9.6
		c0-0.4,0.1-0.7,0.3-0.8c0.2-0.1,0.5-0.2,0.9-0.2h3c0.4,0,0.7,0.1,0.9,0.2c0.1,0.1,0.2,0.4,0.2,0.8v25.7c0,0.5-0.1,0.8-0.2,0.9
		c-0.1,0.1-0.4,0.2-0.9,0.2h-3c-0.4,0-0.7-0.1-0.9-0.2c-0.2-0.1-0.3-0.4-0.3-0.9V73.7h-12.8v11.7C241.6,85.9,241.5,86.1,241.3,86.3"
		/>
	<path class="st0" d="M266.4,59.5c0-0.4,0.1-0.6,0.2-0.7c0.2-0.1,0.4-0.1,0.7-0.1h3.3c0.4,0,0.6,0,0.7,0.1c0.1,0.1,0.2,0.3,0.2,0.7
		v19.4h0.2l3.9-6.3l7.8-12.2c0.4-0.6,0.8-1.1,1.1-1.3c0.4-0.3,0.9-0.4,1.7-0.4h1.5c0.7,0,1.3,0.2,1.7,0.5c0.4,0.4,0.7,0.9,0.7,1.7
		v24.6c0,0.4-0.1,0.6-0.2,0.7c-0.1,0.1-0.4,0.1-0.7,0.1H286c-0.3,0-0.6,0-0.7-0.1c-0.2-0.1-0.2-0.3-0.2-0.7V66.5h-0.3l-3.8,6
		L273,84.7c-0.4,0.7-0.8,1.1-1.2,1.4c-0.4,0.2-0.9,0.4-1.6,0.4h-1.4c-0.7,0-1.3-0.2-1.7-0.5c-0.4-0.4-0.7-0.9-0.7-1.7V59.5"/>
	<path class="st0" d="M308.4,58.1c2,0,3.7,0.3,5.2,0.8c1.5,0.5,2.7,1.3,3.6,2.3c1,1,1.7,2.2,2.1,3.6c0.5,1.4,0.7,3,0.7,4.7
		c0,0.9-0.1,1.7-0.4,2.2c-0.2,0.6-0.6,1-1,1.4c-0.4,0.3-0.9,0.6-1.4,0.7c-0.5,0.1-1.1,0.2-1.7,0.2h-14.4c0,1.6,0.3,2.9,0.7,3.9
		c0.4,1.1,1,1.9,1.7,2.6c0.7,0.7,1.6,1.1,2.5,1.4c1,0.3,2,0.4,3.1,0.4c1.2,0,2.3-0.2,3.5-0.5c1.1-0.3,2.1-0.7,2.8-1.1
		c0.5-0.2,0.9-0.1,1.1,0.3l1.3,2.5c0.2,0.6,0.1,1-0.3,1.2c-1.3,0.8-2.8,1.3-4.3,1.6c-1.5,0.3-3,0.4-4.4,0.4c-4.1,0-7.2-1.1-9.5-3.4
		c-2.3-2.3-3.4-5.9-3.4-10.9c0-2.3,0.3-4.4,1-6.2c0.6-1.8,1.5-3.3,2.6-4.6c1.1-1.2,2.4-2.2,3.9-2.9C305,58.5,306.6,58.1,308.4,58.1
		 M315.1,70.1c0-1.1-0.1-2-0.3-3c-0.2-0.9-0.5-1.7-1-2.4c-0.5-0.7-1.2-1.2-2-1.6c-0.9-0.4-2-0.6-3.3-0.6c-1.1,0-2.1,0.2-2.9,0.7
		c-0.9,0.4-1.6,1-2.1,1.7c-0.6,0.7-1,1.5-1.4,2.4c-0.3,0.9-0.5,1.8-0.6,2.8H315.1z"/>
	<path class="st0" d="M41.3,0.5c-0.3-0.3-0.6-0.5-1-0.5c-0.4,0-0.8,0.1-1,0.4c0,0-3.3,3.4-3.4,3.7c-0.3,0.3-0.3,0.8,0,1.2
		c2.8,3.1,4.2,7,4.2,11c0,4.2-1.6,8.4-4.8,11.6c-0.2,0.2-0.4,0.3-0.6,0.5c-0.2,0.2-0.4,0.4-0.6,0.5c-2.9,2.4-6.6,3.7-10.5,3.7
		c-3.8,0-7.5-1.3-10.4-3.7c-0.4-0.3-0.8-0.7-1.2-1.1c-3.2-3.2-4.8-7.4-4.8-11.6c0-3.9,1.4-7.9,4.2-11c0.2-0.2,0.6-0.6,0.3-1
		l-1.3-1.5L8.2,0.4C7.9,0.1,7.5,0,7.1,0c-0.4,0-0.8,0.2-1,0.5c-3.9,4.3-6,9.9-6,15.7c0,6.3,2.5,12.2,6.9,16.7
		c4.4,4.5,10.4,6.9,16.7,6.9c0,0,0,0,0,0c6.3,0,12.2-2.5,16.7-6.9c4.5-4.5,6.9-10.4,6.9-16.7C47.3,10.4,45.2,4.8,41.3,0.5z"/>
</g>
</svg>
