<?xml version="1.0" encoding="utf-8"?>
<!-- Generator: Adobe Illustrator 19.2.1, SVG Export Plug-In . SVG Version: 6.00 Build 0)  -->
<svg version="1.1" id="Слой_1" xmlns="http://www.w3.org/2000/svg" xmlns:xlink="http://www.w3.org/1999/xlink" x="0px" y="0px"
	 viewBox="0 0 181 50" style="enable-background:new 0 0 181 50;" xml:space="preserve">
<style type="text/css">
	.st0{fill:#FFFFFF;}
</style>
<path class="st0" d="M66.5,40.7c-1.4,0-2.6-0.5-3.4-1.6h-0.2c0.1,1,0.2,1.6,0.2,1.8v5h-3.3V28.2h2.7l0.5,1.6h0.2
	c0.8-1.2,1.9-1.8,3.4-1.8c1.5,0,2.7,0.6,3.5,1.7c0.8,1.1,1.2,2.7,1.2,4.7c0,1.3-0.2,2.4-0.6,3.4c-0.4,1-0.9,1.7-1.6,2.2
	C68.3,40.5,67.5,40.7,66.5,40.7z M80.4,18.7c-1.4,0-2.6-0.5-3.4-1.6h-0.2c0.1,1,0.2,1.6,0.2,1.8v5h-3.3V6.2h2.7l0.5,1.6H77
	C77.8,6.6,78.9,6,80.4,6c1.5,0,2.7,0.6,3.5,1.7c0.8,1.1,1.2,2.7,1.2,4.7c0,1.3-0.2,2.4-0.6,3.4c-0.4,1-0.9,1.7-1.6,2.2
	C82.2,18.5,81.4,18.7,80.4,18.7z M104.8,26.3c-0.7-0.2-1.3-0.3-1.9-0.3c-0.9,0-1.3,0.5-1.3,1.5v0.8h2.9v2.7h-2.9v9.6h-3.3v-9.6h-1.8
	v-1.7l1.8-1v-0.9c0-1.4,0.3-2.4,1-3.1c0.7-0.6,1.7-1,3-1c1.3,0,2.5,0.2,3.4,0.5C105.7,23.8,104.8,26.3,104.8,26.3z M151,40
	c-0.9-0.5-1.6-1.3-2.1-2.2c-0.5-1-0.7-2.1-0.7-3.4c0-2,0.5-3.6,1.6-4.7c1.1-1.1,2.5-1.7,4.4-1.7c1.2,0,2.2,0.3,3.1,0.8
	c0.9,0.5,1.6,1.3,2.1,2.2c0.5,0.9,0.7,2.1,0.7,3.4c0,2-0.5,3.6-1.6,4.7c-1.1,1.1-2.5,1.7-4.4,1.7C152.9,40.7,151.9,40.5,151,40
	L151,40z M61.8,18c-0.9-0.5-1.6-1.3-2.1-2.2c-0.5-1-0.7-2.1-0.7-3.4c0-2,0.5-3.6,1.6-4.7C61.6,6.6,63.1,6,65,6
	c1.2,0,2.2,0.3,3.1,0.8C69,7.3,69.7,8,70.2,9c0.5,1,0.7,2.1,0.7,3.4c0,2-0.5,3.6-1.6,4.7c-1.1,1.1-2.5,1.7-4.4,1.7
	C63.7,18.7,62.7,18.5,61.8,18z M94.2,31c0.5,0.9,0.7,2.1,0.7,3.4c0,2-0.5,3.6-1.6,4.7c-1.1,1.1-2.5,1.7-4.4,1.7
	c-1.2,0-2.2-0.3-3.1-0.8c-0.9-0.5-1.6-1.3-2.1-2.2c-0.5-1-0.7-2.1-0.7-3.4c0-2,0.5-3.6,1.6-4.7c1.1-1.1,2.5-1.7,4.4-1.7
	c1.2,0,2.2,0.3,3.1,0.8C93,29.3,93.7,30,94.2,31z M93.6,16c1.4,0,2.7-0.3,4.1-0.9v2.7c-1.1,0.6-2.6,0.9-4.4,0.9
	c-1.8,0-3.3-0.6-4.4-1.7c-1.1-1.1-1.7-2.7-1.7-4.7s0.5-3.5,1.6-4.7c1-1.1,2.4-1.7,4.2-1.7S96,6.5,97,7.5c0.9,1,1.4,2.4,1.4,4.1v1.6
	h-7.8c0,0.9,0.3,1.6,0.8,2.1C91.9,15.8,92.7,16,93.6,16L93.6,16z M112.1,38c1.4,0,2.7-0.3,4.1-0.9v2.7c-1.1,0.6-2.6,0.9-4.4,0.9
	c-1.8,0-3.3-0.6-4.4-1.7c-1.1-1.1-1.7-2.7-1.7-4.7s0.5-3.5,1.6-4.6c1-1.1,2.4-1.7,4.2-1.7s3.1,0.5,4.1,1.5c0.9,1,1.4,2.4,1.4,4.1
	v1.6h-7.8c0,0.9,0.3,1.6,0.9,2.1C110.4,37.8,111.2,38,112.1,38z M109.2,11.4c0-0.9-0.2-1.5-0.5-2c-0.3-0.4-0.8-0.7-1.5-0.7
	c-0.9,0-1.6,0.3-2,0.9c-0.4,0.6-0.6,1.7-0.6,3.1v5.8h-3.4V6.2h2.6l0.5,1.6h0.2c0.8-1.2,2-1.8,3.8-1.8c1.4,0,2.5,0.4,3.3,1.2
	c0.7,0.8,1.1,1.9,1.1,3.3v8h-3.3L109.2,11.4L109.2,11.4z M170.8,33.4c0-0.9-0.2-1.5-0.5-2c-0.3-0.5-0.8-0.7-1.5-0.7
	c-0.9,0-1.6,0.3-2,0.9c-0.4,0.6-0.6,1.7-0.6,3.1v5.8h-3.4V28.2h2.6l0.4,1.6h0.2c0.8-1.2,2-1.8,3.8-1.8c1.4,0,2.5,0.4,3.3,1.2
	s1.1,1.9,1.1,3.3v8h-3.4L170.8,33.4L170.8,33.4z M138.2,34.1c0.9,0.6,1.3,1.5,1.3,2.7c0,1.2-0.4,2.1-1.3,2.8
	c-0.9,0.7-2.2,1.1-3.8,1.1s-3.1-0.3-4.2-0.8v-2.9c0.6,0.3,1.3,0.5,2.1,0.7c0.8,0.2,1.5,0.3,2.1,0.3c1.2,0,1.8-0.3,1.8-1
	c0-0.3-0.1-0.5-0.2-0.6c-0.3-0.3-1-0.6-2.1-1.1c-1.1-0.4-1.9-0.8-2.4-1.2c-0.9-0.6-1.3-1.5-1.3-2.6s0.4-2,1.3-2.6c0.9-0.6,2-1,3.6-1
	s3,0.4,4.4,1l-1,2.5c-0.6-0.3-1.2-0.5-1.7-0.6c-0.5-0.2-1.1-0.2-1.6-0.2c-1,0-1.5,0.3-1.5,0.8c0,0.3,0.2,0.5,0.5,0.7
	c0.3,0.2,1,0.5,2,0.9C137,33.5,137.7,33.8,138.2,34.1L138.2,34.1z M127,34.1c0.9,0.6,1.3,1.5,1.3,2.7c0,1.2-0.4,2.1-1.3,2.8
	c-0.9,0.7-2.2,1.1-3.8,1.1s-3.1-0.3-4.2-0.8v-2.9c0.6,0.3,1.3,0.5,2.1,0.7c0.8,0.2,1.5,0.3,2.1,0.3c1.2,0,1.8-0.3,1.8-1
	c0-0.3-0.1-0.5-0.2-0.6c-0.3-0.3-1-0.6-2.1-1.1c-1.1-0.4-1.9-0.8-2.4-1.2c-0.9-0.6-1.3-1.5-1.3-2.6s0.4-2,1.3-2.6s2-1,3.5-1
	c1.5,0,3,0.4,4.4,1l-1,2.5c-0.6-0.3-1.2-0.5-1.7-0.6c-0.5-0.2-1.1-0.2-1.7-0.2c-1,0-1.5,0.3-1.5,0.8c0,0.3,0.2,0.5,0.5,0.7
	c0.3,0.2,1,0.5,2,0.9C125.8,33.5,126.5,33.8,127,34.1z M77,30.1h0.2c0.4-0.6,0.9-1.1,1.6-1.5c0.6-0.4,1.3-0.6,1.9-0.6s1.1,0,1.4,0.1
	l-0.3,2.8c-0.3-0.1-0.6-0.1-1-0.1c-1.1,0-1.9,0.3-2.5,0.9c-0.6,0.6-0.9,1.4-0.9,2.4v6.4H74V28.2h2.5C76.5,28.2,77,30.1,77,30.1z
	 M142.1,28.2h3.4v12.3h-3.4V28.2z M64.9,8.7C64,8.7,63.4,9,63,9.6c-0.4,0.6-0.6,1.5-0.6,2.7s0.2,2.1,0.6,2.8c0.4,0.6,1,0.9,2,0.9
	s1.6-0.3,1.9-0.9c0.4-0.6,0.6-1.5,0.6-2.8s-0.2-2.1-0.6-2.7C66.5,9,65.8,8.7,64.9,8.7z M86.4,34.3c0,1.2,0.2,2.1,0.6,2.8
	c0.4,0.6,1.1,0.9,1.9,0.9s1.5-0.3,1.9-0.9c0.4-0.6,0.6-1.5,0.6-2.8c0-1.2-0.2-2.1-0.6-2.7c-0.4-0.6-1-0.9-1.9-0.9S87.4,31,87,31.6
	C86.6,32.2,86.4,33.1,86.4,34.3z M154.1,30.7c-0.9,0-1.6,0.3-1.9,0.9c-0.4,0.6-0.6,1.5-0.6,2.7c0,1.2,0.2,2.1,0.6,2.8
	c0.4,0.6,1.1,0.9,1.9,0.9s1.5-0.3,1.9-0.9c0.4-0.6,0.6-1.5,0.6-2.8c0-1.2-0.2-2.1-0.6-2.7C155.7,31,155,30.7,154.1,30.7z M79.4,8.7
	c-0.8,0-1.4,0.3-1.8,0.8C77.2,10,77,10.8,77,12v0.4c0,1.3,0.2,2.3,0.6,2.8c0.4,0.6,1,0.9,1.9,0.9c1.5,0,2.3-1.2,2.3-3.7
	c0-1.2-0.2-2.1-0.6-2.7C80.8,9,80.2,8.7,79.4,8.7z M65.5,30.7c-0.8,0-1.4,0.3-1.8,0.8c-0.4,0.5-0.6,1.4-0.6,2.5v0.4
	c0,1.3,0.2,2.3,0.6,2.8c0.4,0.6,1,0.9,1.9,0.9c1.5,0,2.3-1.2,2.3-3.7c0-1.2-0.2-2.1-0.6-2.7C66.9,31,66.3,30.7,65.5,30.7z M95.3,11
	c0-0.8-0.2-1.5-0.6-1.9c-0.4-0.4-1-0.7-1.7-0.7c-0.7,0-1.3,0.2-1.7,0.7c-0.4,0.4-0.6,1.1-0.7,1.9H95.3z M113.8,33
	c0-0.8-0.2-1.5-0.6-1.9c-0.4-0.5-1-0.7-1.7-0.7c-0.7,0-1.3,0.2-1.7,0.7c-0.4,0.4-0.6,1.1-0.7,1.9H113.8z M141.9,25.1
	c0-1.1,0.6-1.6,1.8-1.6c1.2,0,1.8,0.5,1.8,1.6c0,0.5-0.1,0.9-0.5,1.2c-0.3,0.3-0.8,0.4-1.4,0.4C142.5,26.7,141.9,26.2,141.9,25.1
	L141.9,25.1z M180.5,40.3c0.3-0.3,0.5-0.8,0.5-1.4c0-0.6-0.2-1-0.5-1.4c-0.3-0.3-0.8-0.5-1.4-0.5c-1.3,0-1.9,0.6-1.9,1.9
	c0,0.6,0.2,1.1,0.5,1.4c0.3,0.3,0.8,0.5,1.4,0.5C179.7,40.8,180.2,40.6,180.5,40.3z"/>
<path class="st0" d="M43.5,8.2c0.5,0.5,0.9,1,1.3,1.5l-7.9,6.1c-0.3-0.3-0.5-0.6-0.8-0.9C36.1,14.9,43.5,8.2,43.5,8.2z M9.7,44.8
	c-0.5-0.4-1-0.8-1.5-1.3l6.7-7.4c0.3,0.3,0.6,0.5,0.9,0.8L9.7,44.8z M8.2,6.5c0.5-0.4,1-0.9,1.5-1.3l6.1,7.9
	c-0.3,0.3-0.6,0.5-0.9,0.8L8.2,6.5z M44.8,40.3c-0.4,0.5-0.8,1-1.3,1.5l-7.4-6.7c0.3-0.3,0.5-0.6,0.8-0.9
	C36.9,34.2,44.8,40.3,44.8,40.3z M5.2,9.7c0.4-0.5,0.8-1,1.3-1.5l7.4,6.7c-0.3,0.3-0.5,0.6-0.8,0.9C13.1,15.8,5.2,9.7,5.2,9.7z
	 M41.8,43.5c-0.5,0.4-1,0.9-1.5,1.3l-6.1-7.9c0.3-0.3,0.6-0.5,0.9-0.8C35.1,36.1,41.8,43.5,41.8,43.5z M6.5,41.8
	c-0.4-0.5-0.9-1-1.3-1.5l7.9-6.1c0.3,0.3,0.5,0.6,0.8,0.9C13.9,35.1,6.5,41.8,6.5,41.8z M40.3,5.2c0.5,0.4,1,0.8,1.5,1.3l-6.7,7.4
	c-0.3-0.3-0.6-0.5-0.9-0.8C34.2,13.1,40.3,5.2,40.3,5.2z M13.4,47.1c-0.6-0.3-1.2-0.6-1.7-1l5.3-8.5c0.3,0.2,0.7,0.4,1,0.6
	C18,38.3,13.4,47.1,13.4,47.1z M11.6,3.9c0.6-0.4,1.1-0.7,1.7-1l4.6,8.9c-0.4,0.2-0.7,0.4-1,0.6C17,12.3,11.6,3.9,11.6,3.9z
	 M47.1,36.6c-0.3,0.6-0.6,1.2-1,1.7L37.7,33c0.2-0.3,0.4-0.7,0.6-1L47.1,36.6z M38.3,46.1c-0.6,0.4-1.1,0.7-1.7,1L32,38.3
	c0.4-0.2,0.7-0.4,1-0.6L38.3,46.1z M3.9,38.3c-0.4-0.6-0.7-1.1-1-1.7l8.9-4.6c0.2,0.4,0.4,0.7,0.6,1C12.3,33,3.9,38.3,3.9,38.3z
	 M46.1,11.6c0.4,0.6,0.7,1.1,1,1.7L38.3,18c-0.2-0.4-0.4-0.7-0.6-1C37.7,17,46.1,11.6,46.1,11.6z M36.6,2.9c0.6,0.3,1.2,0.6,1.7,1
	L33,12.3c-0.3-0.2-0.7-0.4-1-0.6C32,11.7,36.6,2.9,36.6,2.9z M2.9,13.4c0.3-0.6,0.6-1.2,1-1.7l8.4,5.3c-0.2,0.3-0.4,0.7-0.6,1
	C11.7,18,2.9,13.4,2.9,13.4z M15.5,1.9c0.2-0.1,0.4-0.2,0.7-0.3l0.5-0.2l0.7-0.2l3,9.5c-0.4,0.1-0.8,0.3-1.1,0.4
	C19.3,11.1,15.5,1.9,15.5,1.9z M1.2,17.4c0.1-0.2,0.2-0.5,0.2-0.7l0.2-0.5c0.1-0.2,0.2-0.4,0.3-0.6l9.3,3.8
	c-0.1,0.4-0.3,0.7-0.4,1.1C10.7,20.4,1.2,17.4,1.2,17.4z M17.4,48.8l-0.7-0.2l-0.5-0.2c-0.2-0.1-0.4-0.2-0.6-0.3l3.8-9.3
	c0.4,0.2,0.7,0.3,1.1,0.4C20.4,39.3,17.4,48.8,17.4,48.8z M48.1,15.5c0.1,0.2,0.2,0.4,0.3,0.6l0.2,0.5c0.1,0.2,0.2,0.5,0.2,0.7
	l-9.5,3c-0.1-0.4-0.3-0.8-0.4-1.1C38.9,19.3,48.1,15.5,48.1,15.5z M32.6,1.2c0.2,0.1,0.5,0.2,0.7,0.2l0.5,0.2
	c0.2,0.1,0.4,0.2,0.7,0.3l-3.8,9.3c-0.4-0.1-0.7-0.3-1.1-0.4C29.6,10.7,32.6,1.2,32.6,1.2z M1.9,34.5c-0.1-0.2-0.2-0.4-0.3-0.7
	l-0.2-0.5c-0.1-0.2-0.2-0.5-0.2-0.7l9.5-3c0.1,0.4,0.3,0.8,0.4,1.1L1.9,34.5z M34.5,48.1c-0.2,0.1-0.4,0.2-0.7,0.3l-0.5,0.2
	c-0.2,0.1-0.5,0.2-0.7,0.2l-3-9.5c0.4-0.1,0.8-0.3,1.1-0.4C30.7,38.9,34.5,48.1,34.5,48.1z M48.8,32.6c-0.1,0.2-0.2,0.5-0.2,0.7
	l-0.2,0.5c-0.1,0.2-0.2,0.4-0.3,0.7l-9.3-3.8c0.2-0.4,0.3-0.7,0.4-1.1L48.8,32.6z M49.4,19.7c0.1,0.6,0.3,1.3,0.3,2L39.9,23
	c0-0.4-0.1-0.8-0.2-1.2L49.4,19.7z M28.4,49.8L27,39.9c0.4,0,0.8-0.1,1.2-0.2l2.1,9.8C29.7,49.6,29,49.7,28.4,49.8z M21.8,39.7
	c0.4,0.1,0.8,0.2,1.2,0.2l-1.3,9.9c-0.7-0.1-1.3-0.2-2-0.3L21.8,39.7z M0.2,21.6c0.1-0.7,0.2-1.3,0.3-2l9.8,2.1
	c-0.1,0.4-0.1,0.8-0.2,1.2L0.2,21.6z M28.4,0.2c0.7,0.1,1.3,0.2,2,0.3l-2.1,9.8c-0.4-0.1-0.8-0.1-1.2-0.2L28.4,0.2z M21.7,0.2
	l1.3,9.9c-0.4,0.1-0.8,0.1-1.2,0.2l-2.1-9.8C20.3,0.4,21,0.3,21.7,0.2z M0.6,30.3c-0.1-0.6-0.3-1.3-0.3-2l9.9-1.3
	c0.1,0.4,0.1,0.8,0.2,1.2L0.6,30.3z M24.4,10L24,0c0.3,0,0.7,0,1,0c0.3,0,0.7,0,1,0l-0.4,10c-0.2,0-0.4,0-0.6,0S24.6,10,24.4,10z
	 M10,25.6L0,26c0-0.3,0-0.7,0-1c0-0.3,0-0.7,0-1l10,0.4c0,0.2,0,0.4,0,0.6S10,25.4,10,25.6z M40,25c0-0.2,0-0.4,0-0.6L50,24
	c0,0.3,0,0.7,0,1c0,0.3,0,0.7,0,1l-10-0.4C40,25.4,40,25.2,40,25z M24.4,40c0.2,0,0.4,0,0.6,0s0.4,0,0.6,0L26,50c-0.3,0-0.7,0-1,0
	c-0.3,0-0.7,0-1,0C24,50,24.4,40,24.4,40z M39.9,27c0,0.4-0.1,0.8-0.2,1.2l9.8,2.1c0.1-0.6,0.3-1.3,0.3-2L39.9,27z"/>
<g>
	<path class="st0" d="M156.1,6.6c0.8,0,1.4,0.3,1.9,0.8c0.4,0.5,0.6,1.3,0.6,2.3c0,1-0.2,1.7-0.7,2.3c-0.4,0.5-1.1,0.8-1.9,0.8
		c-0.4,0-0.8-0.1-1.1-0.3c-0.3-0.2-0.6-0.4-0.8-0.7h0l-0.2,0.9h-0.3V4.2h0.5v2.1c0,0.3,0,0.6,0,0.9l0,0.5h0c0.2-0.4,0.5-0.6,0.8-0.8
		S155.7,6.6,156.1,6.6z M156.1,7.1c-0.7,0-1.2,0.2-1.5,0.6s-0.4,1.1-0.4,2v0.1c0,0.9,0.2,1.5,0.5,1.9c0.3,0.4,0.8,0.6,1.5,0.6
		c0.6,0,1.1-0.2,1.5-0.7s0.5-1.1,0.5-1.9C158.1,8,157.4,7.1,156.1,7.1z M162.6,12.7c-0.9,0-1.5-0.3-2-0.8s-0.7-1.3-0.7-2.2
		c0-0.9,0.2-1.7,0.7-2.3c0.5-0.6,1.1-0.8,1.9-0.8c0.7,0,1.2,0.2,1.6,0.7c0.4,0.5,0.6,1.1,0.6,2v0.4h-4.2c0,0.8,0.2,1.4,0.6,1.9
		c0.4,0.4,0.9,0.6,1.6,0.6c0.3,0,0.6,0,0.9-0.1s0.6-0.1,1-0.3v0.5c-0.3,0.1-0.6,0.2-0.9,0.3C163.3,12.7,163,12.7,162.6,12.7
		L162.6,12.7z M162.5,7.1c-0.6,0-1,0.2-1.4,0.6c-0.3,0.4-0.5,0.9-0.6,1.6h3.6c0-0.7-0.1-1.2-0.4-1.6S163,7.1,162.5,7.1z M167.9,12.3
		c0.3,0,0.6,0,0.9-0.1v0.4c-0.3,0.1-0.6,0.1-0.9,0.1c-0.5,0-0.9-0.1-1.2-0.4c-0.2-0.3-0.4-0.7-0.4-1.3V7.2h-0.9V6.9l0.9-0.2l0.3-1.3
		h0.3v1.4h1.7v0.5h-1.7v3.7c0,0.5,0.1,0.8,0.2,1S167.6,12.3,167.9,12.3z M173.6,12.6l-0.1-0.9h0c-0.3,0.4-0.6,0.6-0.9,0.8
		s-0.7,0.2-1.1,0.2c-0.6,0-1-0.1-1.4-0.4s-0.5-0.7-0.5-1.2c0-0.6,0.2-1,0.7-1.3s1.2-0.5,2.1-0.5l1.1,0V8.8c0-0.6-0.1-1-0.3-1.3
		s-0.6-0.4-1.1-0.4c-0.5,0-1.1,0.2-1.7,0.5l-0.2-0.5c0.6-0.3,1.3-0.5,1.9-0.5c0.6,0,1.1,0.2,1.4,0.5S174,8,174,8.7v3.9
		C174,12.6,173.6,12.6,173.6,12.6z M171.5,12.3c0.6,0,1.1-0.2,1.5-0.5c0.4-0.4,0.5-0.9,0.5-1.5V9.6l-1,0c-0.8,0-1.4,0.2-1.8,0.4
		c-0.4,0.2-0.5,0.6-0.5,1c0,0.4,0.1,0.7,0.3,0.9S171.1,12.3,171.5,12.3z"/>
</g>
</svg>
