<?xml version="1.0" encoding="utf-8"?>
<!-- Generator: Adobe Illustrator 19.2.1, SVG Export Plug-In . SVG Version: 6.00 Build 0)  -->
<svg version="1.1" id="Слой_1" xmlns="http://www.w3.org/2000/svg" xmlns:xlink="http://www.w3.org/1999/xlink" width="150px" height="150px" x="0px" y="0px"
	 viewBox="0 0 300 300" style="enable-background:new 0 0 300 300;" xml:space="preserve">
<style type="text/css">
	.st0{opacity:0.2;fill:#4795D2;}
	.st1{opacity:0.2;fill:none;stroke:#4795D2;stroke-width:2;stroke-miterlimit:10;}
</style>
<path class="st0" d="M60.1,243.9c-9.9,0-18,8.1-18,18c0,9.9,8.1,18,18,18s18-8.1,18-18C78.1,252,70,243.9,60.1,243.9z M60.1,278.3
	c-9,0-16.4-7.4-16.4-16.4c0-9,7.4-16.4,16.4-16.4s16.4,7.4,16.4,16.4C76.5,271,69.2,278.3,60.1,278.3z"/>
<path class="st0" d="M195.4,28.2c0.4,0,0.8-0.4,0.8-0.8V3.1h-1.6v24.3C194.6,27.8,195,28.2,195.4,28.2z"/>
<path class="st0" d="M159.9,21.3c0.4,0,0.8-0.4,0.8-0.8V0h-1.6v20.5C159.1,21,159.5,21.3,159.9,21.3z"/>
<path class="st0" d="M158.8,67.5c0,0.4,0.4,0.8,0.8,0.8h24.7c0.4,0,0.8-0.4,0.8-0.8c0-0.4-0.4-0.8-0.8-0.8h-24.7
	C159.1,66.7,158.8,67,158.8,67.5z"/>
<path class="st0" d="M95.5,69.1h24.7c0.4,0,0.8-0.4,0.8-0.8c0-0.4-0.4-0.8-0.8-0.8H95.5c-0.4,0-0.8,0.4-0.8,0.8
	C94.7,68.8,95,69.1,95.5,69.1z"/>
<path class="st0" d="M95.5,61.1h24.7c0.4,0,0.8-0.4,0.8-0.8c0-0.4-0.4-0.8-0.8-0.8H95.5c-0.4,0-0.8,0.4-0.8,0.8
	C94.7,60.8,95,61.1,95.5,61.1z"/>
<path class="st0" d="M95.5,53.1h24.7c0.4,0,0.8-0.4,0.8-0.8c0-0.4-0.4-0.8-0.8-0.8H95.5c-0.4,0-0.8,0.4-0.8,0.8
	C94.7,52.8,95,53.1,95.5,53.1z"/>
<path class="st0" d="M95.5,45.1h24.7c0.4,0,0.8-0.4,0.8-0.8c0-0.4-0.4-0.8-0.8-0.8H95.5c-0.4,0-0.8,0.4-0.8,0.8
	C94.7,44.8,95,45.1,95.5,45.1z"/>
<path class="st0" d="M271.5,269.7l-7.9,7.9l-7.9-7.9c-0.3-0.3-0.8-0.3-1.1,0c0,0,0,0,0,0l-7.9,7.9l-7.9-7.9c-0.3-0.3-0.8-0.3-1.1,0
	c0,0,0,0,0,0l-8.5,8.5c-0.3,0.3-0.3,0.8,0,1.1c0.2,0.2,0.4,0.2,0.6,0.2c0.2,0,0.4-0.1,0.6-0.2l7.9-7.9l7.9,7.9
	c0.2,0.2,0.4,0.2,0.6,0.2c0.2,0,0.4-0.1,0.6-0.2l7.9-7.9l7.9,7.9c0.2,0.2,0.4,0.2,0.6,0.2s0.4-0.1,0.6-0.2l8.5-8.5
	c0.3-0.3,0.3-0.8,0-1.1C272.3,269.4,271.8,269.4,271.5,269.7z"/>
<circle class="st1" cx="24.6" cy="18.8" r="3.4"/>
<path class="st0" d="M235.1,19.4h30.9c0.4,0,0.8-0.4,0.8-0.8s-0.4-0.8-0.8-0.8h-30.9c-0.4,0-0.8,0.4-0.8,0.8S234.7,19.4,235.1,19.4z
	"/>
<path class="st0" d="M230.1,26.9h23.2c0.4,0,0.8-0.4,0.8-0.8c0-0.4-0.4-0.8-0.8-0.8h-23.2c-0.4,0-0.8,0.4-0.8,0.8
	C229.3,26.5,229.6,26.9,230.1,26.9z"/>
<path class="st0" d="M280.2,50.3c0.4,0,0.8-0.4,0.8-0.8V35c0-0.4-0.4-0.8-0.8-0.8c-0.4,0-0.8,0.4-0.8,0.8v14.5
	C279.4,49.9,279.7,50.3,280.2,50.3z"/>
<path class="st0" d="M272.1,115c0.4,0,0.8-0.4,0.8-0.8V91c0-0.4-0.4-0.8-0.8-0.8c-0.4,0-0.8,0.4-0.8,0.8v23.2
	C271.3,114.7,271.6,115,272.1,115z"/>
<path class="st0" d="M31.7,129c-0.4,0-0.8,0.4-0.8,0.8l0,23.2c0,0.4,0.4,0.8,0.8,0.8c0.4,0,0.8-0.4,0.8-0.8l0-23.2
	C32.5,129.4,32.1,129,31.7,129z"/>
<path class="st0" d="M37,129c-0.4,0-0.8,0.4-0.8,0.8l0,23.2c0,0.4,0.4,0.8,0.8,0.8c0.4,0,0.8-0.4,0.8-0.8l0-23.2
	C37.8,129.4,37.5,129,37,129z"/>
<path class="st1" d="M269.9,8.2c4.5,0,8.2-3.7,8.2-8.2v0h-16.4v0C261.8,4.5,265.4,8.2,269.9,8.2z"/>
<path class="st0" d="M112.1,4.6c1.5,0,2.7-1.2,2.7-2.7c0-0.7-0.3-1.4-0.7-1.9h-4c-0.5,0.5-0.7,1.1-0.7,1.9
	C109.4,3.4,110.6,4.6,112.1,4.6z"/>
<path class="st0" d="M12.3,187c0.1,0.1,0.1,0.1,0.2,0.2c0.1,0,0.2,0.1,0.3,0.1c0.1,0,0.2,0,0.3-0.1c0.1,0,0.2-0.1,0.2-0.2
	c0,0,0,0,0,0c0,0,0,0,0,0c0.1-0.1,0.1-0.2,0.2-0.3c0-0.1,0.1-0.2,0.1-0.3v-32.4c0-0.1,0-0.2-0.1-0.3c-0.1-0.2-0.2-0.4-0.4-0.4
	c-0.2-0.1-0.4-0.1-0.6,0c-0.1,0-0.2,0.1-0.3,0.2L0,165.8v2.3L12.1,156v28.5L0,172.4v2.3L12.3,187C12.3,187,12.3,187,12.3,187z"/>
<path class="st0" d="M3.5,192.1c0.3-0.3,0.3-0.8,0-1.1c-0.3-0.3-0.8-0.3-1.1,0L0,193.3v2.3L3.5,192.1z"/>
<path class="st0" d="M2.9,211c0.2,0,0.4-0.1,0.6-0.2c0.3-0.3,0.3-0.8,0-1.1L0,206.1v2.3l2.4,2.4C2.5,210.9,2.7,211,2.9,211z"/>
<path class="st0" d="M159.9,295.1c-0.4,0-0.8,0.4-0.8,0.8v4.1h1.6v-4.1C160.7,295.4,160.3,295.1,159.9,295.1z"/>
<path class="st1" d="M269.9,291.8c-4.5,0-8.2,3.7-8.2,8.2h16.4C278.1,295.5,274.5,291.8,269.9,291.8z"/>
<circle class="st1" cx="112.1" cy="212.8" r="5.4"/>
<path class="st0" d="M112.1,299.1c-0.8,0-1.5,0.3-2,0.9h4C113.6,299.5,112.9,299.1,112.1,299.1z"/>
<path class="st0" d="M296.1,170.8l3.9,3.9v-2.3l-2.2-2.2l2.2-2.2v-2.3l-3.9,3.9C295.8,170,295.8,170.5,296.1,170.8z"/>
<path class="st0" d="M287.9,192.5c-0.3-0.3-0.8-0.3-1.1,0c-0.3,0.3-0.3,0.8,0,1.1l7.2,7.2l-7.2,7.2c-0.3,0.3-0.3,0.8,0,1.1
	c0.2,0.2,0.4,0.2,0.6,0.2c0.2,0,0.4-0.1,0.6-0.2l7.2-7.2l4.8,4.8v-2.3l-3.7-3.7l3.7-3.7v-2.3l-4.8,4.8L287.9,192.5z"/>
<circle class="st0" cx="247.1" cy="259.9" r="2.5"/>
<circle class="st0" cx="180" cy="52.3" r="2.5"/>
<circle class="st0" cx="266.8" cy="259.9" r="1.5"/>
<circle class="st0" cx="256.2" cy="91.1" r="1.5"/>
<circle class="st0" cx="266.8" cy="154.5" r="1.5"/>
<circle class="st0" cx="210" cy="183" r="1.5"/>
<path class="st0" d="M150.6,245.5c-0.3-0.3-0.8-0.3-1.1,0L140,255l-9.5-9.5c-0.3-0.3-0.8-0.3-1.1,0c-0.3,0.3-0.3,0.8,0,1.1l9.5,9.5
	l-9.5,9.5c-0.3,0.3-0.3,0.8,0,1.1c0.2,0.2,0.4,0.2,0.6,0.2c0.2,0,0.4-0.1,0.6-0.2l9.5-9.5l9.5,9.5c0.2,0.2,0.4,0.2,0.6,0.2
	c0.2,0,0.4-0.1,0.6-0.2c0.3-0.3,0.3-0.8,0-1.1l-9.5-9.5l9.5-9.5C150.9,246.3,150.9,245.8,150.6,245.5z"/>
<path class="st0" d="M245.2,171.2c0.2,0.2,0.4,0.2,0.6,0.2c0.2,0,0.4-0.1,0.6-0.2c0.3-0.3,0.3-0.8,0-1.1l-20.2-20.2l20.2-20.2
	c0.3-0.3,0.3-0.8,0-1.1c-0.3-0.3-0.8-0.3-1.1,0L225,148.8l-20.2-20.2c-0.3-0.3-0.8-0.3-1.1,0c-0.3,0.3-0.3,0.8,0,1.1l20.2,20.2
	l-20.2,20.2c-0.3,0.3-0.3,0.8,0,1.1c0.2,0.2,0.4,0.2,0.6,0.2c0.2,0,0.4-0.1,0.6-0.2L225,151L245.2,171.2z"/>
<path class="st0" d="M45.2,100.8l8.1,8.1l-8.2,8.1c-0.3,0.3-0.3,0.8,0,1.1c0.2,0.2,0.4,0.2,0.6,0.2c0.2,0,0.4-0.1,0.6-0.2l8.2-8.1
	l8.2,8.1c0.2,0.2,0.4,0.2,0.6,0.2c0.2,0,0.4-0.1,0.6-0.2c0.3-0.3,0.3-0.8,0-1.1l-8.2-8.1l8.2-8.1c0.3-0.3,0.3-0.8,0-1.1
	c-0.3-0.3-0.8-0.3-1.1,0l-8.2,8.1l-8.1-8.1c-0.3-0.3-0.8-0.3-1.1,0C44.8,100,44.8,100.5,45.2,100.8z"/>
<path class="st0" d="M85.2,102.9c-0.3-0.3-0.8-0.3-1.1,0l-5,5l-5-5c-0.3-0.3-0.8-0.3-1.1,0c-0.3,0.3-0.3,0.8,0,1.1l5,5l-5,5
	c-0.3,0.3-0.3,0.8,0,1.1c0.2,0.2,0.4,0.2,0.6,0.2c0.2,0,0.4-0.1,0.6-0.2l5-5l5,5c0.2,0.2,0.4,0.2,0.6,0.2c0.2,0,0.4-0.1,0.6-0.2
	c0.3-0.3,0.3-0.8,0-1.1l-5-5l5-5C85.5,103.7,85.5,103.2,85.2,102.9z"/>
<path class="st0" d="M122.9,32.2c0.2,0.2,0.4,0.2,0.6,0.2c0.2,0,0.4-0.1,0.6-0.2l5-5l5,5c0.2,0.2,0.4,0.2,0.6,0.2s0.4-0.1,0.6-0.2
	c0.3-0.3,0.3-0.8,0-1.1l-5-5l5-5c0.3-0.3,0.3-0.8,0-1.1c-0.3-0.3-0.8-0.3-1.1,0l-5,5l-5-5c-0.3-0.3-0.8-0.3-1.1,0
	c-0.3,0.3-0.3,0.8,0,1.1l5,5l-5,5C122.6,31.4,122.6,31.9,122.9,32.2z"/>
<path class="st0" d="M158.7,126.5c-0.3-0.3-0.8-0.3-1.1,0l-5,5l-5-5c-0.3-0.3-0.8-0.3-1.1,0c-0.3,0.3-0.3,0.8,0,1.1l5,5l-5,5
	c-0.3,0.3-0.3,0.8,0,1.1c0.2,0.2,0.4,0.2,0.6,0.2c0.2,0,0.4-0.1,0.6-0.2l5-5l5,5c0.2,0.2,0.4,0.2,0.6,0.2s0.4-0.1,0.6-0.2
	c0.3-0.3,0.3-0.8,0-1.1l-5-5l5-5C159,127.3,159,126.8,158.7,126.5z"/>
<path class="st0" d="M16.9,146.9c0.2,0.2,0.4,0.2,0.6,0.2c0.2,0,0.4-0.1,0.6-0.2c0.3-0.3,0.3-0.8,0-1.1L4.9,132.6L18,119.4
	c0.3-0.3,0.3-0.8,0-1.1c-0.3-0.3-0.8-0.3-1.1,0L3.7,131.5L0,127.7v2.3l2.6,2.6L0,135.2v2.3l3.7-3.7L16.9,146.9z"/>
<g>
	<path class="st0" d="M53.9,6.9C53.9,6.9,53.9,6.9,53.9,6.9C54,7,54.2,7.1,54.4,7.1c0.2,0,0.4-0.1,0.6-0.2L61.9,0h-2.3l-5.2,5.2
		L49.2,0H47L53.9,6.9z"/>
	<path class="st0" d="M85.5,6.9C85.5,6.9,85.5,6.9,85.5,6.9C85.6,7,85.8,7.1,86,7.1c0.2,0,0.4-0.1,0.6-0.2L93.5,0h-2.3L86,5.2
		L80.9,0h-2.3L85.5,6.9z"/>
	<path class="st0" d="M23.1,6.9c0.2,0.2,0.4,0.2,0.6,0.2s0.4-0.1,0.6-0.2L31.1,0h-2.3l-5.8,5.8C22.8,6.1,22.8,6.6,23.1,6.9z"/>
</g>
<circle class="st1" cx="29.2" cy="97.9" r="5.1"/>
<path class="st0" d="M4.8,98.9c0-1.6-1.3-3-3-3c-0.7,0-1.3,0.2-1.8,0.6v4.7c0.5,0.4,1.1,0.6,1.8,0.6C3.5,101.9,4.8,100.6,4.8,98.9z"
	/>
<circle class="st0" cx="137.4" cy="203.4" r="2.1"/>
<circle class="st0" cx="137.4" cy="209.4" r="2.1"/>
<circle class="st0" cx="176.3" cy="209.4" r="2.1"/>
<circle class="st0" cx="222.4" cy="180.4" r="2.1"/>
<path class="st0" d="M225.5,0h-4.2c0.5,0.5,1.3,0.9,2.1,0.9C224.3,0.9,225,0.5,225.5,0z"/>
<path class="st0" d="M142.9,5.7c0.2,0.2,0.4,0.2,0.6,0.2c0.2,0,0.4-0.1,0.6-0.2c0.3-0.3,0.3-0.8,0-1.1L139.4,0h-2.3L142.9,5.7z"/>
<path class="st0" d="M116.9,5.7c0.2,0.2,0.4,0.2,0.6,0.2c0.2,0,0.4-0.1,0.6-0.2l5.7-5.7h-2.3l-4.6,4.6
	C116.6,4.9,116.6,5.4,116.9,5.7z"/>
<path class="st0" d="M80.4,167.2H44.3c-0.1,0-0.2,0-0.3,0.1c-0.1,0-0.2,0.1-0.2,0.2c0,0,0,0,0,0c0,0,0,0,0,0
	c-0.1,0.1-0.1,0.2-0.2,0.3c-0.1,0.2-0.1,0.4,0,0.6c0,0.1,0.1,0.2,0.2,0.3l36.1,36.1c0.1,0.1,0.2,0.1,0.3,0.2c0.1,0,0.2,0.1,0.3,0.1
	c0.1,0,0.2,0,0.3-0.1c0.2-0.1,0.4-0.2,0.4-0.4c0-0.1,0.1-0.2,0.1-0.3V168C81.2,167.6,80.8,167.2,80.4,167.2z M79.6,202.2l-33.4-33.4
	h33.4V202.2z"/>
<path class="st0" d="M15.8,255.1c0-5.3-4.3-9.7-9.7-9.7c-2.3,0-4.4,0.8-6.1,2.2v2.3c1.5-1.7,3.6-2.8,6.1-2.8c4.5,0,8.1,3.6,8.1,8.1
	s-3.6,8.1-8.1,8.1c-2.4,0-4.6-1.1-6.1-2.8v2.3c1.7,1.4,3.8,2.2,6.1,2.2C11.4,264.8,15.8,260.5,15.8,255.1z"/>
<circle class="st0" cx="50.9" cy="200.8" r="3.6"/>
<circle class="st0" cx="120.3" cy="97.9" r="3.6"/>
<circle class="st0" cx="120.3" cy="124" r="3.6"/>
<path class="st0" d="M289.5,147.9c-0.3,0.3-0.3,0.8,0,1.1c0.2,0.2,0.4,0.2,0.6,0.2c0.2,0,0.4-0.1,0.6-0.2l9.4-9.4v-2.3L289.5,147.9z
	"/>
<path class="st0" d="M289.5,116.2c-0.3,0.3-0.3,0.8,0,1.1l10.5,10.5v-2.3l-9.4-9.4C290.3,115.8,289.8,115.8,289.5,116.2z"/>
<g>
	<path class="st0" d="M39.2,293.1c-0.3-0.3-0.8-0.3-1.1,0c0,0,0,0,0,0l-6.9,6.9h2.3l5.2-5.2l5.2,5.2h2.3L39.2,293.1z"/>
	<path class="st0" d="M70.8,293.1c-0.3-0.3-0.8-0.3-1.1,0c0,0,0,0,0,0l-6.9,6.9H65l5.2-5.2l5.2,5.2h2.3L70.8,293.1z"/>
	<path class="st0" d="M101.6,293.1c-0.3-0.3-0.8-0.3-1.1,0l-6.9,6.9h2.3l5.8-5.8C101.9,293.9,101.9,293.4,101.6,293.1z"/>
</g>
<path class="st0" d="M193.6,162.8C193.6,162.8,193.6,162.8,193.6,162.8c0.2,0.2,0.4,0.2,0.6,0.2c0.2,0,0.4-0.1,0.6-0.2l12.6-12.6
	c0.3-0.3,0.3-0.8,0-1.1c-0.3-0.3-0.8-0.3-1.1,0l-12.1,12.1l-12.1-12.1c-0.3-0.3-0.8-0.3-1.1,0c0,0,0,0,0,0l-12.1,12.1l-12.1-12.1
	c-0.3-0.3-0.8-0.3-1.1,0c0,0,0,0,0,0l-12.6,12.6c-0.3,0.3-0.3,0.8,0,1.1c0.2,0.2,0.4,0.2,0.6,0.2c0.2,0,0.4-0.1,0.6-0.2l12.1-12.1
	l12.1,12.1c0,0,0,0,0,0c0.2,0.2,0.4,0.2,0.6,0.2c0.2,0,0.4-0.1,0.6-0.2l12.1-12.1L193.6,162.8z"/>
<path class="st0" d="M226.4,297.9c0-1.6-1.3-3-3-3s-3,1.3-3,3c0,0.8,0.3,1.6,0.9,2.1h4.2C226.1,299.5,226.4,298.7,226.4,297.9z"/>
<path class="st0" d="M141.9,283.9c0.3-0.3,0.3-0.8,0-1.1c-0.3-0.3-0.8-0.3-1.1,0l-10.4,10.4l-10.4-10.4c-0.3-0.3-0.8-0.3-1.1,0
	c-0.3,0.3-0.3,0.8,0,1.1l10.4,10.4l-5.8,5.8h2.3l4.6-4.6l4.6,4.6h2.3l-5.8-5.8L141.9,283.9z"/>
<path class="st0" d="M298.8,98.9c0,1,0.5,1.8,1.2,2.3v-4.7C299.3,97.1,298.8,98,298.8,98.9z"/>
<circle class="st0" cx="293.6" cy="98.9" r="3"/>
<circle class="st0" cx="241.7" cy="38.5" r="3"/>
<path class="st0" d="M296.4,255.1c0,3,1.4,5.7,3.6,7.5v-2.3c-1.2-1.4-2-3.2-2-5.2c0-2,0.8-3.8,2-5.2v-2.3
	C297.8,249.4,296.4,252.1,296.4,255.1z"/>
<path class="st0" d="M145.4,186.1c0,6.7,5.5,12.2,12.2,12.2c6.7,0,12.2-5.5,12.2-12.2c0-6.7-5.5-12.2-12.2-12.2
	C150.9,173.9,145.4,179.4,145.4,186.1z M168.3,186.1c0,5.9-4.8,10.6-10.6,10.6c-5.9,0-10.6-4.8-10.6-10.6c0-5.9,4.8-10.6,10.6-10.6
	C163.5,175.5,168.3,180.2,168.3,186.1z"/>
<circle class="st1" cx="213.4" cy="256.1" r="4.7"/>
<path class="st0" d="M157.2,97.9c0,9.9,8.1,18,18,18c9.9,0,18-8.1,18-18c0-9.9-8.1-18-18-18C165.3,79.9,157.2,88,157.2,97.9z
	 M191.6,97.9c0,9-7.4,16.4-16.4,16.4c-9,0-16.4-7.4-16.4-16.4c0-9,7.4-16.4,16.4-16.4C184.3,81.5,191.6,88.9,191.6,97.9z"/>
<path class="st0" d="M286.5,136.6h-24.7c-0.4,0-0.8,0.4-0.8,0.8c0,0.4,0.4,0.8,0.8,0.8h24.7c0.4,0,0.8-0.4,0.8-0.8
	C287.3,136.9,286.9,136.6,286.5,136.6z"/>
<path class="st0" d="M286.5,132h-24.7c-0.4,0-0.8,0.4-0.8,0.8c0,0.4,0.4,0.8,0.8,0.8h24.7c0.4,0,0.8-0.4,0.8-0.8
	C287.3,132.3,286.9,132,286.5,132z"/>
<path class="st0" d="M176.4,223.5c0-0.4-0.4-0.8-0.8-0.8h-24.7c-0.4,0-0.8,0.4-0.8,0.8c0,0.4,0.4,0.8,0.8,0.8h24.7
	C176,224.3,176.4,224,176.4,223.5z"/>
<path class="st0" d="M261,128.2c0,0.4,0.4,0.8,0.8,0.8h24.7c0.4,0,0.8-0.4,0.8-0.8c0-0.4-0.4-0.8-0.8-0.8h-24.7
	C261.4,127.4,261,127.7,261,128.2z"/>
<path class="st0" d="M208.5,190.1c0-0.4-0.4-0.8-0.8-0.8h-24.7c-0.4,0-0.8,0.4-0.8,0.8c0,0.4,0.4,0.8,0.8,0.8h24.7
	C208.2,190.9,208.5,190.6,208.5,190.1z"/>
<path class="st0" d="M14.1,54.2c0.2,0.2,0.4,0.2,0.6,0.2c0.2,0,0.4-0.1,0.6-0.2c0.3-0.3,0.3-0.8,0-1.1L4.9,42.7l10.4-10.4
	c0.3-0.3,0.3-0.8,0-1.1c-0.3-0.3-0.8-0.3-1.1,0L3.7,41.5L0,37.8V40l2.6,2.6L0,45.3v2.3l3.7-3.7L14.1,54.2z"/>
<path class="st0" d="M223.1,60.3c0.2,0.2,0.4,0.2,0.6,0.2c0.2,0,0.4-0.1,0.6-0.2l3.8-3.8l3.8,3.8c0.2,0.2,0.4,0.2,0.6,0.2
	c0.2,0,0.4-0.1,0.6-0.2c0.3-0.3,0.3-0.8,0-1.1l-3.8-3.8l3.8-3.8c0.3-0.3,0.3-0.8,0-1.1c-0.3-0.3-0.8-0.3-1.1,0l-3.8,3.8l-3.8-3.8
	c-0.3-0.3-0.8-0.3-1.1,0c-0.3,0.3-0.3,0.8,0,1.1l3.8,3.8l-3.8,3.8C222.8,59.4,222.8,59.9,223.1,60.3z"/>
<path class="st0" d="M273.6,172.7c-0.3-0.3-0.8-0.3-1.1,0l-3.8,3.8l-3.8-3.8c-0.3-0.3-0.8-0.3-1.1,0c-0.3,0.3-0.3,0.8,0,1.1l3.8,3.8
	l-3.8,3.8c-0.3,0.3-0.3,0.8,0,1.1c0.2,0.2,0.4,0.2,0.6,0.2c0.2,0,0.4-0.1,0.6-0.2l3.8-3.8l3.8,3.8c0.2,0.2,0.4,0.2,0.6,0.2
	c0.2,0,0.4-0.1,0.6-0.2c0.3-0.3,0.3-0.8,0-1.1l-3.8-3.8l3.8-3.8C274,173.5,274,173,273.6,172.7z"/>
<path class="st0" d="M250.4,60.3c0.2,0.2,0.4,0.2,0.6,0.2c0.2,0,0.4-0.1,0.6-0.2l3.8-3.8l3.8,3.8c0.2,0.2,0.4,0.2,0.6,0.2
	c0.2,0,0.4-0.1,0.6-0.2c0.3-0.3,0.3-0.8,0-1.1l-3.8-3.8l3.8-3.8c0.3-0.3,0.3-0.8,0-1.1c-0.3-0.3-0.8-0.3-1.1,0l-3.8,3.8l-3.8-3.8
	c-0.3-0.3-0.8-0.3-1.1,0c-0.3,0.3-0.3,0.8,0,1.1l3.8,3.8l-3.8,3.8C250.1,59.4,250.1,59.9,250.4,60.3z"/>
<path class="st0" d="M223.1,74.3c0.2,0.2,0.4,0.2,0.6,0.2c0.2,0,0.4-0.1,0.6-0.2l3.8-3.8l3.8,3.8c0.2,0.2,0.4,0.2,0.6,0.2
	c0.2,0,0.4-0.1,0.6-0.2c0.3-0.3,0.3-0.8,0-1.1l-3.8-3.8l3.8-3.8c0.3-0.3,0.3-0.8,0-1.1c-0.3-0.3-0.8-0.3-1.1,0l-3.8,3.8l-3.8-3.8
	c-0.3-0.3-0.8-0.3-1.1,0c-0.3,0.3-0.3,0.8,0,1.1l3.8,3.8l-3.8,3.8C222.8,73.4,222.8,73.9,223.1,74.3z"/>
<path class="st0" d="M236.7,74.3c0.2,0.2,0.4,0.2,0.6,0.2s0.4-0.1,0.6-0.2l3.8-3.8l3.8,3.8c0.2,0.2,0.4,0.2,0.6,0.2
	c0.2,0,0.4-0.1,0.6-0.2c0.3-0.3,0.3-0.8,0-1.1l-3.8-3.8l3.8-3.8c0.3-0.3,0.3-0.8,0-1.1c-0.3-0.3-0.8-0.3-1.1,0l-3.8,3.8l-3.8-3.8
	c-0.3-0.3-0.8-0.3-1.1,0c-0.3,0.3-0.3,0.8,0,1.1l3.8,3.8l-3.8,3.8C236.4,73.4,236.4,73.9,236.7,74.3z"/>
<path class="st0" d="M250.4,74.3c0.2,0.2,0.4,0.2,0.6,0.2c0.2,0,0.4-0.1,0.6-0.2l3.8-3.8l3.8,3.8c0.2,0.2,0.4,0.2,0.6,0.2
	c0.2,0,0.4-0.1,0.6-0.2c0.3-0.3,0.3-0.8,0-1.1l-3.8-3.8l3.8-3.8c0.3-0.3,0.3-0.8,0-1.1c-0.3-0.3-0.8-0.3-1.1,0l-3.8,3.8l-3.8-3.8
	c-0.3-0.3-0.8-0.3-1.1,0c-0.3,0.3-0.3,0.8,0,1.1l3.8,3.8l-3.8,3.8C250.1,73.4,250.1,73.9,250.4,74.3z"/>
<path class="st0" d="M68.1,231c0.2,0.2,0.4,0.2,0.6,0.2s0.4-0.1,0.6-0.2l3.8-3.8l3.8,3.8c0.2,0.2,0.4,0.2,0.6,0.2
	c0.2,0,0.4-0.1,0.6-0.2c0.3-0.3,0.3-0.8,0-1.1l-3.8-3.8l3.8-3.8c0.3-0.3,0.3-0.8,0-1.1c-0.3-0.3-0.8-0.3-1.1,0L73,225l-3.8-3.8
	c-0.3-0.3-0.8-0.3-1.1,0c-0.3,0.3-0.3,0.8,0,1.1l3.8,3.8l-3.8,3.8C67.8,230.2,67.8,230.7,68.1,231z"/>
<path class="st0" d="M171.9,23.5c0.2,0.2,0.4,0.2,0.6,0.2c0.2,0,0.4-0.1,0.6-0.2l3.8-3.8l3.8,3.8c0.2,0.2,0.4,0.2,0.6,0.2
	c0.2,0,0.4-0.1,0.6-0.2c0.3-0.3,0.3-0.8,0-1.1l-3.8-3.8l3.8-3.8c0.3-0.3,0.3-0.8,0-1.1c-0.3-0.3-0.8-0.3-1.1,0l-3.8,3.8l-3.8-3.8
	c-0.3-0.3-0.8-0.3-1.1,0c-0.3,0.3-0.3,0.8,0,1.1l3.8,3.8l-3.8,3.8C171.6,22.7,171.6,23.2,171.9,23.5z"/>
<path class="st0" d="M6.5,109.3C6.5,109.3,6.5,109.3,6.5,109.3c0,0.5,0.4,0.8,0.8,0.8h17.9c0.4,0,0.8-0.4,0.8-0.8
	c0-0.4-0.4-0.8-0.8-0.8H8.1V91.5c0-0.4-0.4-0.8-0.8-0.8c0,0,0,0,0,0H0v1.6h6.5V109.3z"/>
<path class="st0" d="M201.4,5.2c0,0.4,0.4,0.8,0.8,0.8h17.9c0.4,0,0.8-0.4,0.8-0.8c0-0.4-0.4-0.8-0.8-0.8H203V0h-1.6L201.4,5.2
	C201.4,5.2,201.4,5.2,201.4,5.2z"/>
<path class="st0" d="M175.2,126.4c-0.4,0-0.8,0.4-0.8,0.8v4.6h-4.6c-0.4,0-0.8,0.4-0.8,0.8c0,0.4,0.4,0.8,0.8,0.8h4.6v4.6
	c0,0.4,0.4,0.8,0.8,0.8c0.4,0,0.8-0.4,0.8-0.8v-4.6h4.6c0.4,0,0.8-0.4,0.8-0.8c0-0.4-0.4-0.8-0.8-0.8H176v-4.6
	C176,126.7,175.7,126.4,175.2,126.4z"/>
<path class="st0" d="M227.5,11.9c-0.1,0.2-0.1,0.4,0,0.6c0.1,0.2,0.2,0.4,0.4,0.4c0.1,0,0.2,0.1,0.3,0.1h32.4c0.1,0,0.2,0,0.3-0.1
	c0.2-0.1,0.4-0.2,0.4-0.4c0.1-0.2,0.1-0.4,0-0.6c0-0.1-0.1-0.2-0.2-0.3L249.6,0h-2.3l11.4,11.4h-28.5L241.6,0h-2.3l-11.6,11.6
	C227.6,11.7,227.6,11.8,227.5,11.9z"/>
<path class="st0" d="M254.5,229.5c0.1-0.1,0.1-0.2,0.2-0.3c0.1-0.2,0.1-0.4,0-0.6c-0.1-0.2-0.2-0.4-0.4-0.4c-0.1,0-0.2-0.1-0.3-0.1
	l-22.9,0c-0.4,0-0.8,0.4-0.8,0.8v22.9c0,0.1,0,0.2,0.1,0.3c0.1,0.2,0.2,0.4,0.4,0.4c0.1,0,0.2,0.1,0.3,0.1c0.1,0,0.2,0,0.3-0.1
	c0.1,0,0.2-0.1,0.3-0.2L254.5,229.5C254.5,229.5,254.5,229.5,254.5,229.5z M231.8,249.9v-20.2l20.2,0L231.8,249.9z"/>
<circle class="st1" cx="65.2" cy="51.4" r="8.9"/>
<path class="st0" d="M11.1,224.1c0.4,0,0.8-0.4,0.8-0.8v-11.9h11.9c0.4,0,0.8-0.4,0.8-0.8v-11.9h11.9c0.4,0,0.8-0.4,0.8-0.8
	c0-0.4-0.4-0.8-0.8-0.8H23.8c-0.4,0-0.8,0.4-0.8,0.8v0c0,0,0,0,0,0v11.9H11.1c-0.4,0-0.8,0.4-0.8,0.8v11.9H0v1.6L11.1,224.1
	C11.1,224.1,11.1,224.1,11.1,224.1z"/>
<path class="st0" d="M226.3,122.1c0,0.4,0.4,0.8,0.8,0.8h7.2c0,0,0,0,0,0c0.4,0,0.8-0.4,0.8-0.8v-6.4h6.4c0.4,0,0.8-0.4,0.8-0.8
	v-6.4h6.4c0.4,0,0.8-0.4,0.8-0.8c0-0.4-0.4-0.8-0.8-0.8h-7.2c-0.4,0-0.8,0.4-0.8,0.8v0c0,0,0,0,0,0v6.4h-6.4c-0.4,0-0.8,0.4-0.8,0.8
	v6.4h-6.4C226.7,121.3,226.3,121.7,226.3,122.1z"/>
<path class="st0" d="M3.2,274.5c0-2.3-1.3-4.2-3.2-5.2v10.4C1.9,278.7,3.2,276.7,3.2,274.5z"/>
<circle class="st0" cx="132.4" cy="74.7" r="2.7"/>
<circle class="st0" cx="132.4" cy="67.5" r="2.7"/>
<circle class="st0" cx="132.4" cy="60.3" r="2.7"/>
<path class="st0" d="M292.2,54.8c-0.3,0.3-0.3,0.8,0,1.1c0.2,0.2,0.4,0.2,0.6,0.2c0.2,0,0.4-0.1,0.6-0.2l6.6-6.6v-2.3L292.2,54.8z"
	/>
<path class="st0" d="M292.2,29.4c-0.3,0.3-0.3,0.8,0,1.1l7.8,7.8V36l-6.6-6.6C293.1,29.1,292.6,29.1,292.2,29.4z"/>
<path class="st0" d="M195.5,286.5C195.5,286.5,195.5,286.5,195.5,286.5l-17.1,0v-17.1c0-0.4-0.4-0.8-0.8-0.8c0,0,0,0,0,0h-17.9
	c-0.4,0-0.8,0.4-0.8,0.8c0,0.4,0.4,0.8,0.8,0.8h17.1v17.1c0,0,0,0,0,0c0,0,0,0,0,0c0,0.4,0.4,0.8,0.8,0.8h17.1V300h1.6v-12.7
	C196.3,286.8,196,286.5,195.5,286.5z"/>
<path class="st0" d="M243.9,295.4l-4.6,4.6h2.3l2.9-2.9l2.9,2.9h2.3l-4.6-4.6C244.7,295.1,244.2,295.1,243.9,295.4z"/>
<path class="st0" d="M286.6,69.1c0-0.4-0.4-0.8-0.8-0.8c0,0,0,0,0,0h-17.9c-0.4,0-0.8,0.4-0.8,0.8c0,0.4,0.4,0.8,0.8,0.8H285V87
	c0,0,0,0,0,0v0c0,0.4,0.4,0.8,0.8,0.8h10.6v-1.6h-9.8V69.1z"/>
<path class="st0" d="M298.4,225.7c-0.4,0-0.8,0.4-0.8,0.8c0,0.4,0.4,0.8,0.8,0.8h1.6v-1.6H298.4z"/>
<path class="st1" d="M291.4,274.5c0,3.2,2.6,5.9,5.9,5.9c1,0,1.9-0.3,2.7-0.7v-10.4c-0.8-0.4-1.7-0.7-2.7-0.7
	C294,268.6,291.4,271.2,291.4,274.5z"/>
<path class="st0" d="M124.4,187l-9.5-9.5l9.5-9.5c0.3-0.3,0.3-0.8,0-1.1c-0.3-0.3-0.8-0.3-1.1,0l-9.5,9.5l-9.5-9.5
	c-0.3-0.3-0.8-0.3-1.1,0c-0.3,0.3-0.3,0.8,0,1.1l9.5,9.5l-9.5,9.5c-0.3,0.3-0.3,0.8,0,1.1c0.2,0.2,0.4,0.2,0.6,0.2
	c0.2,0,0.4-0.1,0.6-0.2l9.5-9.5l9.5,9.5c0.2,0.2,0.4,0.2,0.6,0.2c0.2,0,0.4-0.1,0.6-0.2C124.7,187.9,124.7,187.4,124.4,187z"/>
<path class="st0" d="M117.7,259.1H96.3c-0.4,0-0.8,0.4-0.8,0.8c0,0.4,0.4,0.8,0.8,0.8h21.4c0.4,0,0.8-0.4,0.8-0.8
	C118.5,259.5,118.1,259.1,117.7,259.1z"/>
<path class="st0" d="M98,236.3c0,0.4,0.4,0.8,0.8,0.8h16.4c0.4,0,0.8-0.4,0.8-0.8c0-0.4-0.4-0.8-0.8-0.8H98.8
	C98.3,235.5,98,235.9,98,236.3z"/>
<path class="st0" d="M204.9,260.8h-12.7v-12.7c0-0.4-0.4-0.8-0.8-0.8h0h0h-12.7v-12.7c0-0.4-0.4-0.8-0.8-0.8c0,0,0,0,0,0h-13.5
	c-0.4,0-0.8,0.4-0.8,0.8c0,0.4,0.4,0.8,0.8,0.8h12.7v12.7c0,0.4,0.4,0.8,0.8,0.8h12.7v12.7c0,0,0,0,0,0c0,0.4,0.4,0.8,0.8,0.8h13.5
	c0.4,0,0.8-0.4,0.8-0.8S205.4,260.8,204.9,260.8z"/>
<path class="st0" d="M106.6,113.2C106.6,113.2,106.6,113.2,106.6,113.2l-9-9l8.9-8.9c0,0,0,0,0,0c0.2-0.2,0.2-0.4,0.2-0.6
	c0-0.2-0.1-0.4-0.2-0.6c0,0,0,0,0,0l-9.5-9.5c-0.3-0.3-0.8-0.3-1.1,0c-0.3,0.3-0.3,0.8,0,1.1l9,9l-9,9c-0.3,0.3-0.3,0.8,0,1.1l9,9
	l-8.9,8.9c0,0,0,0,0,0c-0.3,0.3-0.3,0.8,0,1.1l9.5,9.5c0.2,0.2,0.4,0.2,0.6,0.2c0.2,0,0.4-0.1,0.6-0.2c0.3-0.3,0.3-0.8,0-1.1l-9-9
	l9-9C106.9,114,106.9,113.5,106.6,113.2z"/>
<circle class="st1" cx="228.1" cy="204.8" r="11.4"/>
<path class="st0" d="M13.3,1.8c0-0.6-0.1-1.2-0.2-1.8h-1.6c0.1,0.6,0.2,1.2,0.2,1.8c0,5.4-4.4,9.9-9.9,9.9c-0.6,0-1.2-0.1-1.8-0.2
	v1.6c0.6,0.1,1.2,0.2,1.8,0.2C8.1,13.3,13.3,8.1,13.3,1.8z"/>
<path class="st0" d="M194.8,46.2h9.6v9.6c0,0.4,0.4,0.8,0.8,0.8c0.4,0,0.8-0.4,0.8-0.8v-9.6h9.6c0.4,0,0.8-0.4,0.8-0.8
	c0-0.4-0.4-0.8-0.8-0.8H206V35c0-0.4-0.4-0.8-0.8-0.8c-0.4,0-0.8,0.4-0.8,0.8v9.6h-9.6c-0.4,0-0.8,0.4-0.8,0.8
	C194,45.9,194.3,46.2,194.8,46.2z"/>
<path class="st0" d="M65.2,152.7c0.4,0,0.8-0.4,0.8-0.8v-9.6h9.6c0.4,0,0.8-0.4,0.8-0.8c0-0.4-0.4-0.8-0.8-0.8H66V131
	c0-0.4-0.4-0.8-0.8-0.8s-0.8,0.4-0.8,0.8v9.6h-9.6c-0.4,0-0.8,0.4-0.8,0.8c0,0.4,0.4,0.8,0.8,0.8h9.6v9.6
	C64.4,152.3,64.7,152.7,65.2,152.7z"/>
<path class="st0" d="M205.2,66.8c-0.4,0-0.8,0.4-0.8,0.8v7.5h-7.5c-0.4,0-0.8,0.4-0.8,0.8c0,0.4,0.4,0.8,0.8,0.8h7.5v7.5
	c0,0.4,0.4,0.8,0.8,0.8c0.4,0,0.8-0.4,0.8-0.8v-7.5h7.5c0.4,0,0.8-0.4,0.8-0.8c0-0.4-0.4-0.8-0.8-0.8H206v-7.5
	C206,67.1,205.7,66.8,205.2,66.8z"/>
<path class="st0" d="M128.3,107.5c0,0.4,0.4,0.8,0.8,0.8h7.5v7.5c0,0.4,0.4,0.8,0.8,0.8c0.4,0,0.8-0.4,0.8-0.8v-7.5h7.5
	c0.4,0,0.8-0.4,0.8-0.8c0-0.4-0.4-0.8-0.8-0.8h-7.5v-7.5c0-0.4-0.4-0.8-0.8-0.8c-0.4,0-0.8,0.4-0.8,0.8v7.5h-7.5
	C128.7,106.7,128.3,107,128.3,107.5z"/>
<path class="st0" d="M235.4,88.6h-7.5c-0.4,0-0.8,0.4-0.8,0.8c0,0.4,0.4,0.8,0.8,0.8h7.5v7.5c0,0.4,0.4,0.8,0.8,0.8
	c0.4,0,0.8-0.4,0.8-0.8v-7.5h7.5c0.4,0,0.8-0.4,0.8-0.8c0-0.4-0.4-0.8-0.8-0.8H237v-7.5c0-0.4-0.4-0.8-0.8-0.8
	c-0.4,0-0.8,0.4-0.8,0.8V88.6z"/>
<path class="st0" d="M199.8,109.8h4.6v4.6c0,0.4,0.4,0.8,0.8,0.8c0.4,0,0.8-0.4,0.8-0.8v-4.6h4.6c0.4,0,0.8-0.4,0.8-0.8
	c0-0.4-0.4-0.8-0.8-0.8H206v-4.6c0-0.4-0.4-0.8-0.8-0.8c-0.4,0-0.8,0.4-0.8,0.8v4.6h-4.6c-0.4,0-0.8,0.4-0.8,0.8
	C199,109.4,199.4,109.8,199.8,109.8z"/>
<path class="st0" d="M151.4,58.7c7.3,0,13.3-6,13.3-13.3c0-7.3-6-13.3-13.3-13.3c-7.3,0-13.3,6-13.3,13.3
	C138.1,52.7,144,58.7,151.4,58.7z M151.4,33.7c6.4,0,11.7,5.2,11.7,11.7s-5.2,11.7-11.7,11.7s-11.7-5.2-11.7-11.7
	S144.9,33.7,151.4,33.7z"/>
<path class="st0" d="M275.6,223.1c-7.3,0-13.3,6-13.3,13.3c0,7.3,6,13.3,13.3,13.3c7.3,0,13.3-6,13.3-13.3
	C288.9,229,282.9,223.1,275.6,223.1z M275.6,248c-6.4,0-11.7-5.2-11.7-11.7c0-6.4,5.2-11.7,11.7-11.7c6.4,0,11.7,5.2,11.7,11.7
	C287.3,242.8,282,248,275.6,248z"/>
<path class="st0" d="M102.7,27.3c0.1,0,0.2,0.1,0.3,0.1c0.1,0,0.2,0,0.3-0.1c0.1,0,0.2-0.1,0.3-0.2l9.5-9.5c0.3-0.3,0.3-0.8,0-1.1
	L103.6,7c-0.1-0.1-0.2-0.1-0.3-0.2c-0.2-0.1-0.4-0.1-0.6,0c-0.2,0.1-0.4,0.2-0.4,0.4c0,0.1-0.1,0.2-0.1,0.3v19.1
	c0,0.1,0,0.2,0.1,0.3C102.4,27.1,102.5,27.3,102.7,27.3z M103.8,9.4l7.6,7.6l-7.6,7.6V9.4z"/>
<path class="st0" d="M75.7,75.4L61.3,89.8c0,0,0,0,0,0c-0.1,0.1-0.1,0.2-0.2,0.3c-0.1,0.2-0.1,0.4,0,0.6c0.1,0.2,0.2,0.4,0.4,0.4
	c0.1,0,0.2,0.1,0.3,0.1h28.9c0.1,0,0.2,0,0.3-0.1c0.2-0.1,0.4-0.2,0.4-0.4c0.1-0.2,0.1-0.4,0-0.6c0-0.1-0.1-0.2-0.2-0.3c0,0,0,0,0,0
	L76.8,75.4C76.5,75.1,76,75.1,75.7,75.4z M63.8,89.6l12.5-12.5l12.5,12.5H63.8z"/>
<path class="st0" d="M33.1,52.9c0.1,0,0.2,0.1,0.3,0.1c0.1,0,0.2,0,0.3-0.1c0.1,0,0.2-0.1,0.3-0.2l6.1-6.1c0.3-0.3,0.3-0.8,0-1.1
	L34,39.5c-0.1-0.1-0.2-0.1-0.3-0.2c-0.2-0.1-0.4-0.1-0.6,0c-0.2,0.1-0.4,0.2-0.4,0.4c0,0.1-0.1,0.2-0.1,0.3v12.1
	c0,0.1,0,0.2,0.1,0.3C32.8,52.7,32.9,52.9,33.1,52.9z M34.2,42l4.1,4.1l-4.1,4.1V42z"/>
<path class="st0" d="M69.2,23.8h3.1v3c0,0.4,0.4,0.8,0.8,0.8c0.4,0,0.8-0.4,0.8-0.8v-3h3.1c0.4,0,0.8-0.4,0.8-0.8
	c0-0.4-0.4-0.8-0.8-0.8h-3.1v-3.1c0-0.4-0.4-0.8-0.8-0.8c-0.4,0-0.8,0.4-0.8,0.8v3.1h-3.1c-0.4,0-0.8,0.4-0.8,0.8
	C68.4,23.5,68.7,23.8,69.2,23.8z"/>
<path class="st0" d="M45.7,228.9l-9.5-9.5c0,0,0,0,0,0c-0.1-0.1-0.1-0.1-0.2-0.2c-0.2-0.1-0.4-0.1-0.6,0c-0.1,0-0.2,0.1-0.2,0.2
	c0,0,0,0,0,0c0,0,0,0,0,0c-0.1,0.1-0.1,0.2-0.2,0.3c0,0.1-0.1,0.2-0.1,0.3v19.1c0,0.1,0,0.2,0.1,0.3c0.1,0.2,0.2,0.4,0.4,0.4
	c0.1,0,0.2,0.1,0.3,0.1c0.1,0,0.2,0,0.3-0.1c0.1,0,0.2-0.1,0.3-0.2l9.5-9.5C46,229.8,46,229.3,45.7,228.9z M36.3,237.1v-15.2
	l7.6,7.6L36.3,237.1z"/>
<path class="st0" d="M300,13.1v-1.6c-4.6-0.8-8.1-4.9-8.1-9.7c0-0.6,0.1-1.2,0.2-1.8h-1.6c-0.1,0.6-0.2,1.2-0.2,1.8
	C290.3,7.5,294.5,12.2,300,13.1z"/>
<path class="st0" d="M40.3,74.8c0-6.3-5.1-11.5-11.5-11.5c-6.3,0-11.5,5.1-11.5,11.5c0,6.3,5.1,11.5,11.5,11.5
	C35.1,86.3,40.3,81.1,40.3,74.8z M18.9,74.8c0-5.4,4.4-9.9,9.9-9.9c5.4,0,9.9,4.4,9.9,9.9c0,5.4-4.4,9.9-9.9,9.9
	C23.4,84.7,18.9,80.2,18.9,74.8z"/>
<path class="st0" d="M1.8,290.3c-0.6,0-1.2,0.1-1.8,0.2v1.6c0.6-0.1,1.2-0.2,1.8-0.2c4.8,0,8.8,3.5,9.7,8.1h1.6
	C12.2,294.5,7.5,290.3,1.8,290.3z"/>
<path class="st0" d="M290.5,300h1.6c0.7-4,3.9-7.2,7.9-7.9v-1.6C295.1,291.3,291.3,295.1,290.5,300z"/>
<path class="st0" d="M194.2,206.3C194.2,206.3,194.2,206.3,194.2,206.3c-0.1-0.1-0.2-0.1-0.3-0.2c-0.2-0.1-0.4-0.1-0.6,0
	c-0.1,0-0.2,0.1-0.2,0.2c0,0,0,0,0,0c0,0,0,0,0,0c-0.1,0.1-0.1,0.2-0.2,0.3c0,0.1-0.1,0.2-0.1,0.3v24.6c0,0.1,0,0.2,0,0.2
	c0,0,0,0,0,0.1c0.1,0.2,0.2,0.4,0.4,0.4c0.1,0,0.2,0,0.3,0.1c0,0,0,0,0,0h0h0c0.1,0,0.2,0,0.3-0.1c0.1,0,0.2-0.1,0.2-0.2
	c0,0,0,0,0,0l12.3-12.3c0.3-0.3,0.3-0.8,0-1.1c0,0,0,0,0,0L194.2,206.3z M194.4,229.5v-20.7l10.4,10.4L194.4,229.5z"/>
<path class="st0" d="M257.7,207.4h4.2c0.4,0,0.8-0.4,0.8-0.8c0-0.4-0.4-0.8-0.8-0.8h-4.2v-4.2c0-0.4-0.4-0.8-0.8-0.8
	c-0.4,0-0.8,0.4-0.8,0.8v4.2h-4.2c-0.4,0-0.8,0.4-0.8,0.8c0,0.4,0.4,0.8,0.8,0.8h4.2v4.2c0,0.4,0.4,0.8,0.8,0.8
	c0.4,0,0.8-0.4,0.8-0.8V207.4z"/>
</svg>
