<?xml version="1.0" encoding="utf-8"?>
<!-- Generator: Adobe Illustrator 19.2.1, SVG Export Plug-In . SVG Version: 6.00 Build 0)  -->
<svg version="1.1" id="Layer_1" xmlns="http://www.w3.org/2000/svg" xmlns:xlink="http://www.w3.org/1999/xlink" x="0px" y="0px"
	 viewBox="0 0 558.8 100" style="enable-background:new 0 0 558.8 100;" xml:space="preserve">
<style type="text/css">
	.st0{fill:#FFFFFF;}
	.st1{fill-rule:evenodd;clip-rule:evenodd;fill:#FFFFFF;}
</style>
<g>
	<path class="st0" d="M90.1,26.3L73.7,9.8C67.4,3.5,58.9,0,50,0c-9,0-17.4,3.5-23.7,9.8L9.8,26.3C3.5,32.6,0,41,0,50
		c0,9,3.5,17.4,9.8,23.7l16.4,16.4C32.6,96.5,41,100,50,100c8.7,0,17-3.3,23.3-9.4l0,0l0,0l16.8-16.8C96.5,67.4,100,59,100,50
		C100,41,96.5,32.6,90.1,26.3z M79.2,61.9L62.5,78.5c-3.1,3-7.4,4.9-12,4.9c-4.8,0-9.1-1.9-12.3-5.1l8.1-8.1
		c1.1,1.1,2.5,1.7,4.2,1.7c1.6,0,3.1-0.7,4.2-1.7l16.5-16.4c1-1.1,1.7-2.5,1.7-4.2c0-1.6-0.7-3.1-1.7-4.2c-1.1-1.1-2.5-1.7-4.2-1.7
		c-1.6,0-3.1,0.7-4.2,1.7L46.3,61.9C43.2,65,38.9,67,34.1,67c-4.8,0-9.1-2-12.3-5.1c-3.1-3.1-5.1-7.5-5.1-12.3
		c0-4.8,1.9-9.1,5.1-12.3l16.4-16.4c3.1-3.1,7.5-5.1,12.3-5.1c4.8,0,9.1,2,12.3,5.1L54.7,29c-1.1-1.1-2.5-1.7-4.2-1.7
		c-1.6,0-3.1,0.7-4.2,1.7L29.9,45.5c-1.1,1.1-1.7,2.5-1.7,4.2c0,1.6,0.7,3.1,1.7,4.2c1.1,1.1,2.5,1.7,4.2,1.7c1.6,0,3.1-0.7,4.2-1.7
		l16.4-16.4c3.2-3.1,7.5-5.1,12.3-5.1c4.8,0,9.1,1.9,12.3,5.1c3.1,3.2,5.1,7.5,5.1,12.3C84.3,54.4,82.4,58.7,79.2,61.9z"/>
	<g>
		<path class="st0" d="M335.7,74.6c-2,0-3.7-1.7-3.7-3.7V25.4c0-2,1.6-3.7,3.7-3.7c2,0,3.7,1.6,3.7,3.7v45.5
			C339.3,72.9,337.7,74.6,335.7,74.6z"/>
		<path class="st0" d="M209.7,64.1c-1.5-1.2-3.7-1-4.9,0.5c-3.3,4.1-11.5,3.1-13.6,2.2c-3.1-1.2-4.6-3.8-4.6-7.6V34.3h16.3
			c2,0,3.7-1.6,3.7-3.7c0-2-1.6-3.7-3.7-3.7h-16.3V8.3c0-1.9-1.5-3.5-3.5-3.5c-1.9,0-3.4,1.5-3.4,3.5v50.9c0,6.6,3.2,11.7,8.9,14
			c1.8,0.7,4.6,1.3,7.7,1.3c4.9,0,10.5-1.4,13.9-5.6C211.4,67.4,211.2,65.3,209.7,64.1z"/>
		<path class="st0" d="M153.2,74.8c-1.1,0-2.3-0.1-3.4-0.2c-12-1.5-19.2-7.1-19.2-14.8c0-2,1.6-3.7,3.7-3.7c2,0,3.7,1.7,3.7,3.7
			c0,3.6,5,6.5,12.8,7.5c7.8,1,13.3-2.9,14.1-5.9c0.5-1.8,0.3-3.4-0.5-4.7c-0.9-1.4-2.4-2.3-4.7-2.8c-15.7-2.8-26.1-5.4-27.6-15.3
			c-0.5-3.6,0.5-7.2,2.9-10c3.4-4,9.3-6.3,16.2-6.3c12.6,0,20.8,5.6,20.8,14.4c0,2-1.7,3.7-3.7,3.7c-2,0-3.7-1.7-3.7-3.7
			c0-5.2-7.2-7-13.4-7c-4.6,0-8.6,1.4-10.6,3.7c-1,1.2-1.5,2.6-1.2,4.1c0.6,3.7,3.9,6,21.7,9.1l0.1,0c5.4,1.1,8.2,4,9.5,6.1
			c1.9,3,2.4,6.7,1.4,10.5C170.3,69.3,163,74.8,153.2,74.8z"/>
		<path class="st0" d="M238,74.8c-14.5,0-26.3-11.8-26.3-26.2c0-14.5,11.8-26.2,26.3-26.2c13.2,0,24.5,9.9,26.1,23
			c0.2,1.7-0.7,3.1-1.3,3.8c-0.9,1-2.1,1.6-3.3,1.6h-40.3c1,9.4,9.1,16.8,18.8,16.8c6.5,0,13.1-3.4,15.9-8.1c1-1.8,3.3-2.3,5-1.3
			c1.8,1,2.4,3.3,1.3,5C256.1,70,247.2,74.8,238,74.8z M219.8,43.3h36.4c-2.3-7.9-9.7-13.6-18.2-13.6
			C229.4,29.7,222.1,35.4,219.8,43.3z"/>
		<path class="st0" d="M297.2,22.3c-7.4,0-14.1,3.1-18.9,8v-4.4c0-2-1.7-3.7-3.7-3.7c-2,0-3.7,1.6-3.7,3.7V89c0,2,1.6,3.7,3.7,3.7
			c2,0,3.7-1.7,3.7-3.7V66.7c4.8,5,11.5,8,18.9,8c14.5,0,26.2-11.8,26.2-26.2C323.5,34.1,311.7,22.3,297.2,22.3z M297.2,67.4
			c-10.4,0-18.9-8.5-18.9-18.9c0-10.4,8.5-18.9,18.9-18.9c10.4,0,18.9,8.5,18.9,18.9C316.1,58.9,307.6,67.4,297.2,67.4z"/>
		<path class="st0" d="M388.2,74.4c-3.6,0-7.2-1.6-10.5-4.7c-2.5-2.4-18.5-18.5-19.1-19.2c-0.7-0.7-1.1-1.6-1.1-2.6
			c0-1,0.4-1.9,1.1-2.6l22-21.5c1.5-1.4,3.8-1.4,5.2,0.1c1.4,1.4,1.4,3.8-0.1,5.2l-19.4,18.9c4.7,4.8,14.5,14.6,16.3,16.4
			c2,1.9,3.9,2.8,5.7,2.7c0.5,0,1.7,0,2.7,0c2,0,3.7,1.7,3.7,3.7c0,2-1.7,3.6-3.7,3.7c-1,0-2,0-2.5,0
			C388.4,74.4,388.3,74.4,388.2,74.4z"/>
		<path class="st0" d="M352.5,74.5c-2,0-3.7-1.6-3.7-3.7V8.2c0-2,1.7-3.7,3.7-3.7c2,0,3.7,1.6,3.7,3.7v62.6
			C356.2,72.9,354.6,74.5,352.5,74.5z"/>
		<path class="st1" d="M335.8,14.2c2.6,0,4.7-2.1,4.7-4.7c0-2.6-2.1-4.7-4.7-4.7c-2.6,0-4.7,2.1-4.7,4.7
			C331,12.1,333.1,14.2,335.8,14.2z"/>
		<path class="st1" d="M406.5,74.5c2.6,0,4.7-2.1,4.7-4.7c0-2.6-2.1-4.7-4.7-4.7c-2.6,0-4.7,2.1-4.7,4.7
			C401.8,72.3,403.9,74.5,406.5,74.5z"/>
		<path class="st1" d="M506.4,26.1c0-2-1.5-3.5-3.4-3.7v0c-0.9-0.1-1.8-0.1-2.7-0.1c-7.4,0-14.1,3.1-18.9,8v-4.4
			c0-2-1.7-3.7-3.7-3.7c-2,0-3.7,1.7-3.7,3.7v22.4c0,0.1,0,0.2,0,0.2v0l0,0v22.4c0,2,1.7,3.7,3.7,3.7c2,0,3.7-1.7,3.7-3.7V48.4
			c0.1-10.4,8.5-18.8,18.9-18.8c0.5,0,1,0,1.6,0.1c0.3,0.1,0.5,0.1,0.8,0.1h0c0.1,0,0.2,0,0.3,0v-0.1
			C504.9,29.6,506.4,28.1,506.4,26.1z"/>
		<path class="st0" d="M439.8,74.8c-14.5,0-26.3-11.8-26.3-26.2c0-14.5,11.8-26.2,26.3-26.2c14.5,0,26.2,11.8,26.2,26.2
			C466.1,63,454.3,74.8,439.8,74.8z M439.8,29.7c-10.4,0-18.9,8.5-18.9,18.9c0,10.4,8.5,18.9,18.9,18.9c10.4,0,18.9-8.5,18.9-18.9
			C458.7,38.1,450.2,29.7,439.8,29.7z"/>
		<path class="st0" d="M558.8,48.5c0-0.5,0-0.9-0.1-1.4c0-10.8,0-21.2,0-21.2c0-2-1.6-3.7-3.7-3.7c-2,0-3.7,1.6-3.7,3.7
			c0,0,0,1.7,0,4.4c-4.8-4.9-11.5-8-18.8-8c-14.5,0-26.3,11.8-26.3,26.2c0,14.5,11.8,26.2,26.3,26.2c7.4,0,14.1-3.1,18.8-8
			c0,2.1,0,3.5,0,3.7c0,7.7-4.6,14.3-11.2,17.2l0,0c-2.3,1-4.9,1.6-7.7,1.6c-6.5,0-13.1-3.3-15.9-8.2c-1-1.8-3.3-2.3-5-1.3
			c-1.8,1-2.4,3.3-1.3,5c4.1,7,13.1,11.8,22.2,11.8v0c14.5,0,26.2-11.8,26.2-26.2c0-0.8,0-10.5,0-20.6
			C558.8,49.5,558.8,49,558.8,48.5z M532.6,67.4c-10.4,0-18.9-8.5-18.9-18.9c0-10.4,8.5-18.9,18.9-18.9c10.1,0,18.4,8,18.8,18.1
			c0,0.5,0,1.1,0,1.6C551,59.4,542.7,67.4,532.6,67.4z"/>
	</g>
</g>
</svg>
