<?xml version="1.0" encoding="utf-8"?>
<!-- Generator: Adobe Illustrator 21.0.2, SVG Export Plug-In . SVG Version: 6.00 Build 0)  -->
<svg version="1.1" id="Layer_1" xmlns="http://www.w3.org/2000/svg" xmlns:xlink="http://www.w3.org/1999/xlink" x="0px" y="0px"
	 viewBox="0 0 512 512" style="enable-background:new 0 0 512 512;" xml:space="preserve">
<style type="text/css">
	.st0{fill:#00BC87;}
	.st1{display:none;fill:#6B6B6B;}
</style>
<path class="st0" d="M256,0C157.9,0,64.1,181.3,64.1,320c0,106.2,85.7,192,191.9,192s191.9-85.8,191.9-192
	C447.9,181.3,354.1,0,256,0z M256,416c-52.9,0-95.9-43.1-95.9-96c0-71.3,48.6-160,95.9-160s95.9,88.7,95.9,160
	C351.9,372.9,308.9,416,256,416z"/>
<path class="st1" d="M-181.5,429.2h-44.3l-3.8-25.7c-17.1,20.9-41.9,30.9-73.8,30.9c-29.5,0-52.3-7.6-69.5-23.3
	c-17.1-15.7-25.2-35.7-25.2-60.9s8.6-45.7,26.2-61.4c17.6-16.2,40.9-24.3,69.9-24.3c28.1,0,49.5,8.1,65.2,23.8v-22.8
	c0-22.4-5.7-39-16.7-50.4c-10.9-11.4-26.6-17.1-46.6-17.1c-12.4,0-24.3,1.4-35.7,4.3s-19.5,5.7-24.3,8.6l-8.1,4.3l-14.3-43.3
	c2.4-1.9,6.2-3.8,10.5-6.7c4.3-2.4,14.8-5.7,30.5-10c15.7-4.3,32.8-6.2,50.4-6.2c34.3,0,60.9,9.5,80.4,29s29,47.1,29,83.3
	L-181.5,429.2z M-249.1,380.7c10-8.6,15.2-19.5,15.2-32.8c0-13.3-5.2-24.3-15.2-32.8c-10-8.6-23.8-12.8-40.4-12.8
	c-16.2,0-29,4.3-39,12.8c-10,8.6-15.2,19.5-15.2,32.8c0,13.3,5.2,24.3,15.2,32.8c10,8.6,22.8,12.8,39,12.8
	C-272.9,393.5-259.6,389.2-249.1,380.7z M-143,154.2h59l60.4,196l60.4-196h55.7L-0.2,428.7h-50.9L-143,154.2z M128.7,257.9
	c0-33.3,10.5-60,30.9-79.5c20.5-20,47.1-29.5,79.5-29.5c32.8,0,59.5,9.5,79.5,29c20,19.5,30,45.7,30,78.5V325
	c0,33.8-10.5,60-30.9,79.9c-20.5,19.5-47.1,29.5-79.9,29.5s-59-9.5-79-28.6s-29.5-45.2-29.5-79v-69L128.7,257.9z M183.4,325
	c0,19,5.2,33.8,15.2,44.3c10,10.9,23.3,16.2,40,16.2c16.7,0,29.5-5.2,39.5-16.2c10-10.9,15.2-25.7,15.2-44.3v-67.1
	c0-18.6-5.2-33.3-15.2-44.3c-10-10.9-23.3-16.2-39.5-16.2c-16.7,0-30,5.2-40,16.2c-10,10.9-15.2,25.7-15.2,44.3L183.4,325z
	 M577.9,323.6h52.8v5.7c0,31.9-10,57.1-29.5,76.1c-20,19-45.7,28.6-77.1,28.6c-31.9,0-57.1-9.5-76.6-28.1
	c-19.5-18.6-29-44.3-29-77.1v-73.3c0-32.4,10-58.5,30-77.6c20-19,45.7-29,77.1-29s56.6,9.5,76.1,28.1c19.5,18.6,29,43.8,29,76.1v4.8
	h-52.8v-3.3c0-17.1-4.8-30.9-14.3-41.4c-9.5-10.5-21.9-15.7-37.6-15.7c-16.2,0-29,5.2-38.1,15.7c-9.5,10.5-14.3,24.3-14.3,42.3v72.3
	c0,18.1,4.8,31.9,14.3,42.3s22.4,15.7,38.1,15.7c15.7,0,28.1-5.2,37.6-15.2s14.3-23.8,14.3-40.9L577.9,323.6z M701.6,257.9
	c0-33.3,10.5-60,30.9-79.5c20.5-20,47.1-29.5,79.5-29.5c32.8,0,59.5,9.5,79.5,29s30,45.7,30,78.5V325c0,33.8-10.5,60-30.9,79.9
	c-20.5,19.5-47.1,29.5-79.9,29.5s-59-9.5-79-28.6s-29.5-45.2-29.5-79v-69L701.6,257.9z M756.3,325c0,19,5.2,33.8,15.2,44.3
	c10,10.9,23.3,16.2,40,16.2s29.5-5.2,39.5-16.2c10-10.9,15.2-25.7,15.2-44.3v-67.1c0-18.6-5.2-33.3-15.2-44.3
	c-10-10.9-23.3-16.2-39.5-16.2c-16.7,0-30,5.2-40,16.2s-15.2,25.7-15.2,44.3V325z M1211.7,429.2h-48.1l-2.9-32.4
	c-16.2,25.2-40.9,37.6-73.8,37.6c-29.5,0-52.8-9-69.5-26.6c-16.7-17.6-25.2-42.3-25.2-74.2v-81.8c0-32.4,8.6-57.1,26.2-75.7
	c17.1-18.1,40.9-27.1,70.4-27.1c29.5,0,52.3,10.5,68,30.9V53.8h55.2v375.4H1211.7z M1156.5,257.9c0-18.6-5.2-33.3-15.2-44.3
	c-10-10.9-23.3-16.2-39.5-16.2c-16.7,0-30,5.2-40,16.2c-10,10.9-15.2,25.7-15.2,44.3V325c0,19,5.2,33.8,15.2,44.3
	c10,10.9,23.3,16.2,40,16.2s29.5-5.2,39.5-16.2c10-10.9,15.2-25.7,15.2-44.3V257.9z M1503.9,342.1c-0.5,2.4-1,5.7-1.4,10
	s-3.3,11.4-7.6,21.9c-4.3,10.5-10,20-16.7,28.1c-7.1,8.1-17.6,15.7-31.9,22.4c-14.3,6.7-30.9,10-50,10c-32.8,0-59-9.5-79-28.6
	c-20-19-29.5-45.2-29.5-79v-69c0-33.3,10.5-60,30.9-79.5c20.5-20,47.1-29.5,79.5-29.5c32.4,0,58.1,9.5,77.6,29
	c19.5,19.5,29.5,45.7,29.5,78.5V296h-162.7v29c0,19,5.2,33.8,15.2,44.3c10,10.9,23.3,16.2,40,16.2c9.5,0,18.1-1.9,25.2-5.7
	c7.1-3.8,12.8-8.1,16.2-13.8c3.3-5.2,6.2-10.5,8.6-15.7s3.8-9.5,3.8-13.8l0.5-5.2L1503.9,342.1z M1342.1,259.8H1452v-7.1
	c0-18.6-5.2-33.3-15.2-44.3c-10-10.9-23.3-16.2-39.5-16.2c-16.7,0-30,5.2-40,16.2c-10,10.9-15.2,25.7-15.2,44.3L1342.1,259.8z"/>
</svg>
