<svg xmlns="http://www.w3.org/2000/svg" viewBox="0 0 362.73 512"><path fill="#264de4" d="M362.73 100.62l-33.04 370.2L181.15 512 33 470.88 0 100.62z"/><path fill="#2965f1" d="M301.4 447.25l28.24-316.36H181.37v349.63z"/><path fill="#ebebeb" d="M75.68 268.22l4.07 45.4h101.62v-45.4zM181.37 176.3H67.5l4.13 45.42h109.74zM181.37 433.4v-47.25l-.2.06-50.58-13.66-3.23-36.22H81.78l6.36 71.3 93.02 25.83z"/><path d="M85.37 0h55v23h-32v23h32v23h-55zM151.37 0h55v20h-32v4h32v46h-55V49h32v-4h-32zM217.37 0h55v20h-32v4h32v46h-55V49h32v-4h-32z"/><path fill="#fff" d="M237.13 313.63l-5.27 58.9-50.65 13.66v47.25l93.1-25.8.68-7.68 10.67-119.55 1.1-12.2 8.2-91.9H181.21v45.4h63.99l-4.13 46.5H181.2v45.42z"/></svg>