<?xml version="1.0" encoding="utf-8"?>
<!-- Generator: Adobe Illustrator 21.0.2, SVG Export Plug-In . SVG Version: 6.00 Build 0)  -->
<svg version="1.1"
	 id="svg2" inkscape:version="0.48.3.1 r9886" sodipodi:docname="htmlcss.svg" xmlns:cc="http://creativecommons.org/ns#" xmlns:dc="http://purl.org/dc/elements/1.1/" xmlns:inkscape="http://www.inkscape.org/namespaces/inkscape" xmlns:rdf="http://www.w3.org/1999/02/22-rdf-syntax-ns#" xmlns:sodipodi="http://sodipodi.sourceforge.net/DTD/sodipodi-0.dtd" xmlns:svg="http://www.w3.org/2000/svg"
	 xmlns="http://www.w3.org/2000/svg" xmlns:xlink="http://www.w3.org/1999/xlink" x="0px" y="0px" viewBox="0 0 512 512"
	 style="enable-background:new 0 0 512 512;" xml:space="preserve">
<style type="text/css">
	.st0{fill:#264DE4;}
	.st1{fill:#2965F1;}
	.st2{fill:#EBEBEB;}
	.st3{fill:#FFFFFF;}
</style>
<sodipodi:namedview  bordercolor="#666666" borderopacity="1.0" fit-margin-bottom="0" fit-margin-left="0" fit-margin-right="0" fit-margin-top="0" id="base" inkscape:current-layer="layer1" inkscape:cx="-276.49014" inkscape:cy="244.10462" inkscape:document-units="px" inkscape:pageopacity="0.0" inkscape:pageshadow="2" inkscape:window-height="938" inkscape:window-maximized="1" inkscape:window-width="1280" inkscape:window-x="0" inkscape:window-y="31" inkscape:zoom="0.35" pagecolor="#ffffff" showgrid="false">
	</sodipodi:namedview>
<g id="layer1" transform="translate(-170.06157,-270.18109)" inkscape:groupmode="layer" inkscape:label="Calque 1">
	<g id="g3013" transform="translate(95.428571,270.18109)">
		<polygon id="polygon2989" class="st0" points="330.4,512 182.2,470.9 149.2,100.6 512,100.6 478.9,470.8 		"/>
		<polygon id="polygon2991" class="st1" points="450.6,447.2 478.9,130.9 330.6,130.9 330.6,480.5 		"/>
		<polygon id="polygon2993" class="st2" points="224.9,268.2 229,313.6 330.6,313.6 330.6,268.2 		"/>
		<polygon id="polygon2995" class="st2" points="216.8,176.3 220.9,221.7 330.6,221.7 330.6,176.3 330.4,176.3 		"/>
		<polygon id="polygon2997" class="st2" points="330.6,386.2 330.4,386.2 279.8,372.5 276.6,336.3 252,336.3 231,336.3 237.4,407.6 
			330.4,433.5 330.6,433.4 		"/>
		<path id="path2999" inkscape:connector-curvature="0" d="M234.6,0h55v23h-32v23h32v23h-55V0z"/>
		<path id="path3001" inkscape:connector-curvature="0" d="M300.6,0h55v20h-32v4h32v46h-55V49h32v-4h-32V0z"/>
		<path id="path3003" inkscape:connector-curvature="0" d="M366.6,0h55v20h-32v4h32v46h-55V49h32v-4h-32V0z"/>
		<polygon id="polygon3005" class="st3" points="436,268.2 444.3,176.3 330.4,176.3 330.4,221.7 394.4,221.7 390.4,268.2 
			330.4,268.2 330.4,313.6 386.4,313.6 381.1,372.5 330.4,386.2 330.4,433.4 423.5,407.6 424.3,400 434.9,280.4 		"/>
	</g>
</g>
</svg>
