<?xml version="1.0" encoding="utf-8"?>
<!-- Generator: Adobe Illustrator 21.0.2, SVG Export Plug-In . SVG Version: 6.00 Build 0)  -->
<svg version="1.1" id="svg3062" xmlns:svg="http://www.w3.org/2000/svg"
	 xmlns="http://www.w3.org/2000/svg" xmlns:xlink="http://www.w3.org/1999/xlink" x="0px" y="0px" viewBox="0 0 512 512"
	 style="enable-background:new 0 0 512 512;" xml:space="preserve">
<style type="text/css">
	.st0{clip-path:url(#SVGID_2_);fill:#BF0000;}
	.st1{clip-path:url(#SVGID_2_);fill:#BE0000;}
	.st2{clip-path:url(#SVGID_2_);fill:#BD0000;}
	.st3{clip-path:url(#SVGID_2_);fill:#BC0000;}
	.st4{clip-path:url(#SVGID_2_);fill:#BB0000;}
	.st5{clip-path:url(#SVGID_2_);fill:#BA0000;}
	.st6{clip-path:url(#SVGID_2_);fill:#B90000;}
	.st7{clip-path:url(#SVGID_2_);fill:#B80000;}
	.st8{clip-path:url(#SVGID_2_);fill:#B70000;}
	.st9{clip-path:url(#SVGID_2_);fill:#B60000;}
	.st10{clip-path:url(#SVGID_2_);fill:#B50000;}
	.st11{clip-path:url(#SVGID_2_);fill:#B40000;}
	.st12{clip-path:url(#SVGID_2_);fill:#B30000;}
	.st13{clip-path:url(#SVGID_2_);fill:#B20000;}
	.st14{clip-path:url(#SVGID_2_);fill:#B10000;}
	.st15{clip-path:url(#SVGID_2_);fill:#B00000;}
	.st16{clip-path:url(#SVGID_2_);fill:#AF0000;}
	.st17{clip-path:url(#SVGID_2_);fill:#AE0000;}
	.st18{clip-path:url(#SVGID_2_);fill:#AD0000;}
	.st19{clip-path:url(#SVGID_2_);fill:#AC0000;}
	.st20{clip-path:url(#SVGID_2_);fill:#AB0000;}
	.st21{clip-path:url(#SVGID_2_);fill:#AA0000;}
	.st22{clip-path:url(#SVGID_2_);fill:#A90000;}
	.st23{clip-path:url(#SVGID_2_);fill:#A80000;}
	.st24{clip-path:url(#SVGID_2_);fill:#A60000;}
	.st25{clip-path:url(#SVGID_2_);fill:#A50000;}
	.st26{clip-path:url(#SVGID_2_);fill:#A40000;}
	.st27{clip-path:url(#SVGID_2_);fill:#A30000;}
	.st28{clip-path:url(#SVGID_2_);fill:#A20000;}
	.st29{clip-path:url(#SVGID_2_);fill:#A10000;}
	.st30{clip-path:url(#SVGID_2_);fill:#A00000;}
	.st31{clip-path:url(#SVGID_2_);fill:#9F0000;}
	.st32{clip-path:url(#SVGID_2_);fill:#9E0000;}
	.st33{clip-path:url(#SVGID_2_);fill:#9D0000;}
	.st34{clip-path:url(#SVGID_2_);fill:#9C0000;}
	.st35{clip-path:url(#SVGID_2_);fill:#9B0000;}
	.st36{clip-path:url(#SVGID_2_);fill:#9A0000;}
	.st37{clip-path:url(#SVGID_2_);fill:#990000;}
	.st38{clip-path:url(#SVGID_2_);fill:#980000;}
	.st39{clip-path:url(#SVGID_2_);fill:#970000;}
	.st40{clip-path:url(#SVGID_2_);fill:#960000;}
	.st41{clip-path:url(#SVGID_2_);fill:#950000;}
	.st42{clip-path:url(#SVGID_2_);fill:#940000;}
	.st43{clip-path:url(#SVGID_2_);fill:#930000;}
	.st44{clip-path:url(#SVGID_2_);fill:#920000;}
	.st45{clip-path:url(#SVGID_2_);fill:#910000;}
	.st46{clip-path:url(#SVGID_2_);fill:#900000;}
	.st47{clip-path:url(#SVGID_2_);fill:#8F0000;}
	.st48{fill:#FFFFFF;}
</style>
<g id="path2312">
	<g>
		<defs>
			<path id="SVGID_1_" d="M0,17.1v22.6c9.5,0,17.1,7.7,17.1,17.1C17.1,66.3,9.5,74,0,74v22.6c9.5,0,17.1,7.7,17.1,17.1
				c0,9.5-7.7,17.1-17.1,17.1v22.6c9.5,0,17.1,7.7,17.1,17.2S9.5,187.8,0,187.8v22.6c9.5,0,17.1,7.7,17.1,17.1
				c0,9.5-7.7,17.1-17.1,17.1v22.6c9.5,0,17.1,7.7,17.1,17.1S9.5,301.6,0,301.6v22.6c9.5,0,17.1,7.7,17.1,17.1S9.5,358.5,0,358.5
				v22.6c9.5,0,17.1,7.7,17.1,17.1c0,9.5-7.7,17.1-17.1,17.1V438c9.5,0,17.1,7.7,17.1,17.1c0,9.5-7.7,17.1-17.1,17.1v22.6
				c4.5,0,8.9,1.8,12.1,5c3.2,3.2,5,7.6,5,12.1h22.6c0-9.5,7.7-17.1,17.1-17.1S74,502.5,74,512h22.6c0-9.5,7.7-17.1,17.1-17.1
				c9.5,0,17.1,7.7,17.1,17.1h22.6c0-9.5,7.7-17.1,17.1-17.1s17.1,7.7,17.1,17.1h22.6c0-9.5,7.7-17.1,17.1-17.1
				c9.5,0,17.1,7.7,17.1,17.1h22.6c0-9.5,7.7-17.1,17.1-17.1c9.5,0,17.1,7.7,17.1,17.1h22.6c0-9.5,7.7-17.1,17.1-17.1
				c9.5,0,17.1,7.7,17.1,17.1h22.6c0-9.5,7.7-17.1,17.1-17.1c9.5,0,17.1,7.7,17.1,17.1H438c0-9.5,7.7-17.1,17.1-17.1
				c9.5,0,17.1,7.7,17.1,17.1h22.6c0-4.5,1.8-8.9,5-12.1c3.2-3.2,7.6-5,12.1-5v-22.6c-9.5,0-17.1-7.7-17.1-17.1
				c0-9.5,7.7-17.1,17.1-17.1v-22.6c-9.5,0-17.1-7.7-17.1-17.1c0-9.5,7.7-17.1,17.1-17.1v-22.6c-9.5,0-17.1-7.7-17.1-17.1
				s7.7-17.1,17.1-17.1v-22.6c-9.5,0-17.1-7.7-17.1-17.1c0-9.5,7.7-17.1,17.1-17.1v-22.6c-9.5,0-17.1-7.7-17.1-17.1
				s7.7-17.1,17.1-17.1v-22.6c-9.5,0-17.1-7.7-17.1-17.2s7.7-17.2,17.1-17.2v-22.6c-9.5,0-17.1-7.7-17.1-17.1
				c0-9.4,7.7-17.1,17.1-17.1V74c-9.5,0-17.1-7.7-17.1-17.1c0-9.4,7.7-17.1,17.1-17.1V17.1c-4.5,0-8.9-1.8-12.1-5
				c-3.2-3.2-5-7.6-5-12.1h-22.6c0,9.5-7.7,17.1-17.1,17.1C445.7,17.1,438,9.5,438,0h-22.6c0,9.5-7.7,17.1-17.1,17.1
				c-9.5,0-17.1-7.7-17.1-17.1h-22.6c0,9.5-7.7,17.1-17.1,17.1c-9.5,0-17.1-7.7-17.1-17.1h-22.6c0,9.5-7.7,17.1-17.1,17.1
				c-9.5,0-17.1-7.7-17.1-17.1h-22.6c0,9.5-7.7,17.1-17.1,17.1c-9.5,0-17.1-7.7-17.1-17.1h-22.6c0,9.5-7.7,17.1-17.1,17.1
				c-9.5,0-17.1-7.7-17.1-17.1h-22.6c0,9.5-7.7,17.1-17.1,17.1c-9.5,0-17.1-7.7-17.1-17.1H74c0,9.5-7.7,17.1-17.1,17.1
				S39.8,9.5,39.8,0H17.1c0,4.5-1.8,8.9-5,12.1C8.9,15.3,4.5,17.1,0,17.1z"/>
		</defs>
		<clipPath id="SVGID_2_">
			<use xlink:href="#SVGID_1_"  style="overflow:visible;"/>
		</clipPath>
		<rect x="0" y="0" class="st0" width="512" height="62.2"/>
		<rect x="0" y="62.2" class="st0" width="512" height="8.2"/>
		<rect x="0" y="70.4" class="st1" width="512" height="8.2"/>
		<rect x="0" y="78.7" class="st2" width="512" height="8.2"/>
		<rect x="0" y="86.9" class="st3" width="512" height="8.2"/>
		<rect x="0" y="95.1" class="st4" width="512" height="8.2"/>
		<rect x="0" y="103.4" class="st5" width="512" height="8.2"/>
		<rect x="0" y="111.6" class="st6" width="512" height="8.2"/>
		<rect x="0" y="119.9" class="st7" width="512" height="8.2"/>
		<rect x="0" y="128.1" class="st8" width="512" height="8.2"/>
		<rect x="0" y="136.3" class="st9" width="512" height="8.2"/>
		<rect x="0" y="144.6" class="st10" width="512" height="8.2"/>
		<rect x="0" y="152.8" class="st11" width="512" height="8.2"/>
		<rect x="0" y="161.1" class="st12" width="512" height="8.2"/>
		<rect x="0" y="169.3" class="st13" width="512" height="8.2"/>
		<rect x="0" y="177.5" class="st14" width="512" height="8.2"/>
		<rect x="0" y="185.8" class="st15" width="512" height="8.2"/>
		<rect x="0" y="194" class="st16" width="512" height="8.2"/>
		<rect x="0" y="202.3" class="st17" width="512" height="8.2"/>
		<rect x="0" y="210.5" class="st18" width="512" height="8.2"/>
		<rect x="0" y="218.7" class="st19" width="512" height="8.2"/>
		<rect x="0" y="227" class="st20" width="512" height="8.2"/>
		<rect x="0" y="235.2" class="st21" width="512" height="8.2"/>
		<rect x="0" y="243.5" class="st22" width="512" height="8.2"/>
		<rect x="0" y="251.7" class="st23" width="512" height="8.2"/>
		<rect x="0" y="259.9" class="st24" width="512" height="8.2"/>
		<rect x="0" y="268.2" class="st25" width="512" height="8.2"/>
		<rect x="0" y="276.4" class="st26" width="512" height="8.2"/>
		<rect x="0" y="284.7" class="st27" width="512" height="8.2"/>
		<rect x="0" y="292.9" class="st28" width="512" height="8.2"/>
		<rect x="0" y="301.1" class="st29" width="512" height="8.2"/>
		<rect x="0" y="309.4" class="st30" width="512" height="8.2"/>
		<rect x="0" y="317.6" class="st31" width="512" height="8.2"/>
		<rect x="0" y="325.9" class="st32" width="512" height="8.2"/>
		<rect x="0" y="334.1" class="st33" width="512" height="8.2"/>
		<rect x="0" y="342.3" class="st34" width="512" height="8.2"/>
		<rect x="0" y="350.6" class="st35" width="512" height="8.2"/>
		<rect x="0" y="358.8" class="st36" width="512" height="8.2"/>
		<rect x="0" y="367.1" class="st37" width="512" height="8.2"/>
		<rect x="0" y="375.3" class="st38" width="512" height="8.2"/>
		<rect x="0" y="383.5" class="st39" width="512" height="8.2"/>
		<rect x="0" y="391.8" class="st40" width="512" height="8.2"/>
		<rect x="0" y="400" class="st41" width="512" height="8.2"/>
		<rect x="0" y="408.3" class="st42" width="512" height="8.2"/>
		<rect x="0" y="416.5" class="st43" width="512" height="8.2"/>
		<rect x="0" y="424.7" class="st44" width="512" height="8.2"/>
		<rect x="0" y="433" class="st45" width="512" height="8.2"/>
		<rect x="0" y="441.2" class="st46" width="512" height="8.2"/>
		<rect x="0" y="449.5" class="st47" width="512" height="8.2"/>
		<rect x="0" y="457.7" class="st47" width="512" height="54.3"/>
	</g>
</g>
<g id="path2314">
	<path class="st48" d="M436.2,204.9H180.7l13.3-62.4h155.7L364,75.3H140.2L69.7,407.7h67.6l30.9-145.2h162.2L189.5,402l24.8,43.8
		c11.4-7.6,30-8.6,42.9-8.6c22.9,0,45.2,7.6,68.6,7.6c21.4,0,43.3-1.4,79-18.6l12.5-58.6c-24.3,10-60.2,19.5-91.5,19.5
		c-12.8,0-24.8-2.9-37.1-4.8l136.6-132.9L436.2,204.9L436.2,204.9z"/>
</g>
</svg>
