<?xml version="1.0" encoding="utf-8"?>
<!-- Generator: Adobe Illustrator 21.0.2, SVG Export Plug-In . SVG Version: 6.00 Build 0)  -->
<svg version="1.1" id="Layer_1" xmlns="http://www.w3.org/2000/svg" xmlns:xlink="http://www.w3.org/1999/xlink" x="0px" y="0px"
	 viewBox="0 0 512 512" style="enable-background:new 0 0 512 512;" xml:space="preserve">
<style type="text/css">
	.st0{display:none;}
	.st1{fill:#362701;}
	.st2{fill:#F03C2E;}
</style>
<g id="XMLID_25_" class="st0">
	<path id="XMLID_33_" class="st1" d="M292.2,231.7c-8,0-14,3.9-14,13.4c0,7.1,3.9,12.1,13.5,12.1c8.1,0,13.7-4.8,13.7-12.4
		C305.5,236.2,300.5,231.7,292.2,231.7L292.2,231.7z M276.2,298.4c-1.9,2.3-3.8,4.8-3.8,7.7c0,5.8,7.4,7.6,17.6,7.6
		c8.4,0,19.9-0.6,19.9-8.4c0-4.7-5.5-5-12.5-5.4L276.2,298.4L276.2,298.4z M319.3,232.1c2.6,3.3,5.4,8,5.4,14.7
		c0,16.1-12.7,25.6-31,25.6c-4.7,0-8.9-0.6-11.5-1.3l-4.8,7.7l14.3,0.9c25.2,1.6,40,2.3,40,21.7c0,16.7-14.7,26.2-40,26.2
		c-26.3,0-36.4-6.7-36.4-18.2c0-6.5,2.9-10,8-14.8c-4.8-2-6.4-5.7-6.4-9.6c0-3.2,1.6-6.1,4.2-8.9c2.6-2.8,5.5-5.5,9-8.7
		c-7.1-3.5-12.5-11.1-12.5-21.8c0-16.7,11.1-28.2,33.3-28.2c6.3,0,10,0.6,13.4,1.5h28.4v12.4L319.3,232.1"/>
	<path id="XMLID_36_" class="st1" d="M358.3,205.7c-8.3,0-13.1-4.8-13.1-13.1s4.8-12.8,13.1-12.8c8.4,0,13.2,4.5,13.2,12.8
		S366.7,205.7,358.3,205.7z M339.5,293.1v-11.5l7.4-1c2-0.3,2.3-0.7,2.3-2.9v-42.8c0-1.6-0.4-2.6-1.9-3.1l-7.9-2.8l1.6-11.8h30.1
		v60.4c0,2.3,0.1,2.6,2.3,2.9l7.4,1V293L339.5,293.1"/>
	<path id="XMLID_37_" class="st1" d="M438.5,287.4c-6.3,3.1-15.4,5.8-23.7,5.8c-17.3,0-23.9-7-23.9-23.4v-38.1c0-0.9,0-1.5-1.2-1.5
		h-10.2v-12.9c12.8-1.5,17.9-7.9,19.5-23.7h13.8v20.7c0,1,0,1.5,1.2,1.5h20.5v14.5h-21.7V265c0,8.6,2,11.9,9.9,11.9
		c4.1,0,8.3-1,11.8-2.3L438.5,287.4"/>
</g>
<path id="XMLID_38_" class="st2" d="M495.3,233.8L278.2,16.7c-12.4-12.4-32.6-12.4-45.4,0l-45.1,45.1l57.1,57.1
	c13.4-4.6,28.4-1.6,39.2,9.1c10.8,10.8,13.7,26.1,9.1,39.5l55.2,55.2c13.4-4.6,28.7-1.6,39.5,9.1c15,15,15,38.9,0,53.9
	c-15,15-38.9,15-53.9,0c-11.1-11.1-14-27.8-8.2-41.5L274.6,193v135.2c3.6,2,7.2,4.2,10.1,7.2c15,15,15,38.9,0,53.9
	c-15,15-39.2,15-53.9,0c-15-15-15-39.2,0-53.9c3.6-3.6,7.8-6.5,12.4-8.2V190.7c-4.6-2-8.8-4.6-12.4-8.2c-11.4-11.4-14-27.8-8.2-41.8
	l-57.1-56.8L16.7,232.8c-12.4,12.4-12.4,32.6,0,45.4l217.1,217.1c12.4,12.4,32.6,12.4,45.4,0l216.1-216.1
	C507.7,266.4,507.7,246.2,495.3,233.8"/>
</svg>
