<?xml version="1.0" encoding="utf-8"?>
<!-- Generator: Adobe Illustrator 21.0.2, SVG Export Plug-In . SVG Version: 6.00 Build 0)  -->
<svg version="1.1" id="Layer_1" xmlns="http://www.w3.org/2000/svg" xmlns:xlink="http://www.w3.org/1999/xlink" x="0px" y="0px"
	 viewBox="0 0 512 512" style="enable-background:new 0 0 512 512;" xml:space="preserve">
<style type="text/css">
	.st0{fill:#131B28;}
	.st1{fill:#0868AC;}
</style>
<g>
	<path class="st0" d="M149.5,395.3L149.5,395.3l-4,14.1L149.5,395.3L149.5,395.3z"/>
	<path class="st0" d="M169.9,425.8l-4.4,0L169.9,425.8z"/>
	<path class="st0" d="M174.3,425.8l-4.4,0L174.3,425.8z"/>
	<path class="st0" d="M171.1,445l4.6-17.4L171.1,445L171.1,445L171.1,445z"/>
	<path class="st0" d="M267.6,364.8l-8.5,40L267.6,364.8z"/>
	<path class="st0" d="M245.7,364.8l-6.5,29.9L245.7,364.8L245.7,364.8z"/>
	<path class="st1" d="M266.2,363H248c-1,0-2,0.8-2.2,1.8l-6.5,29.9l-6.5,29.9c-0.2,1-1.2,1.8-2.2,1.8h-11h-1.8
		c-12.7,0-11.3-8.8-8.7-20.9c0-0.1,0.1-0.2,0.1-0.4l0.3-1.5c0-0.1,0-0.2,0.1-0.3l0.6-3.1l0.6-3.3c0.2-1,0.5-2.5,0.7-3.4l2.9-14.3
		l2.9-14.3c0.2-1-0.5-1.8-1.5-1.8h-18.7c-1,0-2,0.8-2.2,1.8l-4,19l-4,19c0,0,0,0,0,0l-0.4,1.8c-4.6,21.1-3.4,41.2,21.7,41.9
		c0.4,0,0.7,0,0.7,0h39.4c1,0,2-0.8,2.2-1.8l8.5-40l8.5-40C267.8,363.9,267.2,363,266.2,363L266.2,363z"/>
	<path class="st0" d="M338.7,426.6c1,0,1.7,0.8,1.5,1.8l-1.8,8.6"/>
	<path class="st0" d="M290.1,415.5c0-0.9,1.1-2.6,2.1-2.6l-2.3,0C288.8,423.2,290.1,415.5,290.1,415.5L290.1,415.5z"/>
	<path class="st0" d="M338.7,426.6c1,0,1.7,0.8,1.5,1.8l-1.8,8.6l-0.3,1.4"/>
	<path class="st0" d="M37.5,415.7l2.8-12.5l-3.2,14.3L34,432.1l2.7-12.8C36.9,418.3,37.3,416.7,37.5,415.7L37.5,415.7z"/>
	<path class="st1" d="M71.3,362.8h-20c-1,0-2,0.8-2.2,1.8l-1.9,8.4l-1.9,8.4c-0.2,1,0.4,1.8,1.4,1.8h20.1c1,0,2-0.8,2.2-1.8L71,373
		l1.8-8.4v0C73,363.6,72.4,362.8,71.3,362.8L71.3,362.8z"/>
	<path class="st0" d="M67,390.6L67,390.6l-5.9,27.1L67,390.6z"/>
	<path class="st0" d="M43.2,390.6l-2.8,12.5L43.2,390.6z"/>
	<path class="st1" d="M65.5,388.9H45.4c-1,0-2,0.8-2.2,1.8l-2.8,12.5l-2.8,12.5c-0.2,1-0.6,2.6-0.8,3.6L34,432.1l-2.7,12.8
		c-0.2,1-0.6,2.6-1,3.5c0,0-3.8,11.2-10.1,11.1c-0.3,0-0.5,0-0.8,0c-3.1-0.1-5.5-0.1-5.5-0.1h0c-1,0-2,0.8-2.3,1.8l-2.1,8.8
		l-2.1,8.8c-0.2,1,0.4,1.8,1.4,1.8c3.6,0,11.6,0.1,16.5,0.1c15.8,0,24.1-8.8,29.5-33.9l6.2-28.9l5.9-27.1
		C67.2,389.7,66.6,388.9,65.5,388.9L65.5,388.9z"/>
	<path class="st0" d="M351.5,446.6c-1,0-1.7-0.8-1.4-1.8l15.1-70.9"/>
	<path class="st0" d="M372.6,444.8l6.1-30.3L372.6,444.8z"/>
	<path class="st0" d="M350.3,445.7c-0.1-0.5-0.1-1.7,0.2-2.7l7.2-33.7l-7.6,35.5c-0.2,1,0.4,1.8,1.5,1.8h1.8
		C352.4,446.6,350.4,446.2,350.3,445.7L350.3,445.7z"/>
	<path class="st0" d="M375.7,429.7l2.7-13.4c0,0,0,0,0,0L375.7,429.7L375.7,429.7z"/>
	<path class="st0" d="M435.4,378.6l0.8,3.4c0.2,1-0.4,1.8-1.4,1.8"/>
	<path class="st0" d="M373,443l2.7-13.3L373,443z"/>
	<path class="st0" d="M434.6,375.1l0.8,3.5L434.6,375.1z"/>
	<path class="st0" d="M378.4,416.3c0.2-1,0.5-2.6,0.7-3.6l2.9-13.5l-3.3,15.3L378.4,416.3L378.4,416.3z"/>
	<path class="st0" d="M365.5,372.7c-0.2,1-0.5,2.2-0.6,3l-7.2,33.7l7.6-35.5L365.5,372.7L365.5,372.7z"/>
	<path class="st1" d="M436.3,382.1l-0.8-3.4l-0.8-3.5l-0.4-1.8c-1.6-6.4-6.4-10-16.9-10l-16.2,0l-14.9,0h-1.3h-15.5
		c-1,0-2,0.8-2.2,1.8l0,0l-0.7,3.5l-0.9,4.1l-0.2,1.2l-7.6,35.5l-7.2,33.7c-0.2,1-0.3,2.2-0.2,2.7c0.1,0.5,2.1,0.9,3.1,0.9h15.2
		c1,0,2.3-0.2,2.8-0.4c0.6-0.2,1.4-2.2,1.6-3.2l2.7-13.3l2.7-13.3c0,0,0,0,0,0l0.4-1.8l3.3-15.3l2.9-13.5c0.2-1,1.2-1.8,2.2-1.8
		l47.7,0C435.8,383.9,436.5,383.1,436.3,382.1L436.3,382.1z"/>
	<path class="st1" d="M497.7,350.9c-1,0-2.7,0-3.7,0h-15.3c-1,0-2.3,0.7-2.9,1.5l-33.8,49.5c-0.6,0.8-1.2,0.7-1.4-0.3l-2.5-10.9
		c-0.2-1-1.2-1.8-2.2-1.8h-21.7c-1,0-1.6,0.8-1.3,1.8l9.7,34.1c0.3,1,0.3,2.6,0,3.5l-4.2,16.5c-0.3,1,0.4,1.8,1.4,1.8h21.5
		c1,0,2-0.8,2.3-1.8l4.2-16.5c0.3-1,1-2.4,1.6-3.2l54.9-72.8c0.6-0.8,0.3-1.5-0.7-1.5L497.7,350.9L497.7,350.9z"/>
	<path class="st1" d="M325.1,393.6L325.1,393.6c-0.1,1.1-1.1,1.9-2.1,1.9h-27.5c-0.9,0-1.4-0.6-1.3-1.4c0,0,0,0,0-0.1c0,0,0,0,0,0
		c0,0,0-0.1,0-0.1c0,0,0.1-0.2,0.1-0.5c2.6-7,8-11.6,18.1-11.6C323.7,381.8,325.9,387.4,325.1,393.6L325.1,393.6z M317.1,361.8
		c-35.4,0-43.7,21.5-48.4,43.1c-4.7,22.1-4.3,42.7,32.3,42.7h1.3c0.1,0,0.2,0,0.4,0h1h0.4h1c0.1,0,0.3,0,0.4,0c0.4,0,0.7,0,1.1,0
		h0.3c1.4,0,2.9,0,4.4,0h0.1c9.7,0,19.3-0.1,23.3-0.1c1,0,2-0.8,2.2-1.8l1.5-7.2l0.3-1.4l1.8-8.6c0.2-1-0.5-1.8-1.5-1.8h-32.9
		c-13.1,0-17-3.5-15.5-13.7h52.6l0,0c0,0,0,0,0,0c0.8,0,1.6-0.6,1.9-1.4c0.1-0.1,0.1-0.3,0.1-0.5l0,0
		C352.7,381.7,350.5,361.8,317.1,361.8L317.1,361.8z"/>
	<path class="st1" d="M150,393.5l-0.5,1.8c0,0,0,0,0,0l-4,14.1l-4,14.1c-0.3,1-1.3,1.8-2.3,1.8h-21c-15.9,0-19.8-12.5-15.9-30.8
		c3.9-18.8,11.5-30.5,27.2-31.7C150.9,361,155.2,376.1,150,393.5L150,393.5z M164.4,424.1c0,0,9.9-24.1,12.2-37.9
		c3.1-18.6-6.2-45.6-42.2-45.6c-35.8,0-51.3,25.7-57.2,53.7c-5.9,28.2,1.8,52.9,37.4,52.7l28-0.1l26.2-0.1c1,0,2-0.8,2.3-1.8
		l4.6-17.4c0.3-1-0.4-1.8-1.4-1.8l-4.4,0l-4.4,0c-0.9,0-1.4-0.6-1.2-1.3C164.3,424.4,164.3,424.2,164.4,424.1L164.4,424.1z"/>
	<path class="st0" d="M341.4,408c0,0.7-0.5,1.2-1.2,1.2c-0.7,0-1.2-0.5-1.2-1.2c0-0.7,0.5-1.2,1.2-1.2
		C340.9,406.8,341.4,407.3,341.4,408z"/>
	<path class="st1" d="M103.9,104c-28.4,40.8-24.9,94-3.2,137.4c0.5,1,1.1,2.1,1.6,3.1c0.3,0.6,0.7,1.3,1,2c0.2,0.4,0.4,0.8,0.6,1.1
		c0.4,0.7,0.7,1.3,1.1,2c0.7,1.2,1.4,2.4,2.1,3.6c0.4,0.6,0.8,1.3,1.2,1.9c0.8,1.3,1.6,2.5,2.4,3.8c0.3,0.5,0.7,1.1,1,1.6
		c1.1,1.7,2.3,3.4,3.5,5c0,0,0.1,0.1,0.1,0.1c0.2,0.3,0.4,0.5,0.6,0.8c1,1.4,2.1,2.8,3.2,4.2c0.4,0.5,0.8,1,1.2,1.5
		c1,1.2,1.9,2.4,2.9,3.6c0.4,0.4,0.7,0.9,1.1,1.3c1.3,1.6,2.7,3.1,4.1,4.7c0,0,0.1,0.1,0.1,0.1c0.1,0.1,0.1,0.1,0.2,0.2
		c1.4,1.5,2.7,2.9,4.2,4.4c0.4,0.5,0.9,0.9,1.3,1.3c1.1,1.1,2.2,2.2,3.3,3.3c0.5,0.4,0.9,0.9,1.4,1.3c1.5,1.4,3,2.8,4.5,4.1
		c0,0,0,0,0.1,0.1c0.3,0.2,0.5,0.5,0.8,0.7c1.4,1.2,2.7,2.3,4.1,3.5c0.6,0.5,1.1,0.9,1.7,1.4c1.1,0.9,2.3,1.8,3.4,2.7
		c0.6,0.5,1.2,0.9,1.8,1.4c1.3,0.9,2.6,1.9,3.9,2.8c0.5,0.3,0.9,0.7,1.4,1c0.1,0.1,0.3,0.2,0.4,0.3c1.2,0.8,2.5,1.7,3.8,2.5
		c0.5,0.4,1.1,0.7,1.6,1.1c1.9,1.2,3.9,2.4,5.9,3.6c0.5,0.3,1.1,0.6,1.6,0.9c1.5,0.8,2.9,1.7,4.4,2.5c0.8,0.4,1.6,0.8,2.4,1.3
		c1,0.6,2.1,1.1,3.2,1.6c0.2,0.1,0.5,0.2,0.7,0.4c0.4,0.2,0.9,0.4,1.3,0.6c1.7,0.8,3.3,1.6,5,2.3c0.4,0.2,0.7,0.3,1.1,0.5
		c1.9,0.8,3.9,1.7,5.8,2.4c0.5,0.2,0.9,0.4,1.4,0.6c1.8,0.7,3.7,1.4,5.5,2c0.2,0.1,0.5,0.2,0.7,0.2c2,0.7,4.1,1.4,6.1,2
		c0.5,0.1,1,0.3,1.5,0.4c2.1,0.6,4.2,1.4,6.3,1.8c137.4,25.1,177.3-82.6,177.3-82.6c-33.5,43.7-93,55.2-149.4,42.4
		c-2.1-0.5-4.2-1.1-6.3-1.8c-0.5-0.2-1-0.3-1.6-0.5c-2-0.6-4.1-1.3-6.1-2c-0.3-0.1-0.6-0.2-0.8-0.3c-1.8-0.6-3.6-1.3-5.3-2
		c-0.5-0.2-1-0.4-1.5-0.6c-1.9-0.8-3.9-1.6-5.8-2.4c-0.4-0.2-0.8-0.3-1.2-0.5c-1.6-0.7-3.3-1.5-4.9-2.3c-0.5-0.2-0.9-0.4-1.4-0.7
		c-1.3-0.6-2.5-1.3-3.8-1.9c-0.8-0.4-1.7-0.9-2.5-1.3c-1.5-0.8-3-1.7-4.5-2.5c-0.5-0.3-1-0.6-1.5-0.9c-2-1.2-3.9-2.4-5.9-3.6
		c-0.5-0.3-1.1-0.7-1.6-1c-1.4-0.9-2.8-1.8-4.2-2.8c-0.5-0.3-0.9-0.6-1.3-0.9c-1.3-0.9-2.6-1.9-4-2.9c-0.6-0.4-1.2-0.9-1.8-1.3
		c-1.2-0.9-2.4-1.8-3.6-2.8c-0.5-0.4-1.1-0.9-1.6-1.3c-1.5-1.2-3-2.5-4.4-3.7c-0.2-0.1-0.3-0.3-0.5-0.4c-1.6-1.4-3.1-2.8-4.7-4.2
		c-0.4-0.4-0.9-0.8-1.3-1.3c-1.1-1.1-2.3-2.2-3.4-3.3c-0.4-0.4-0.9-0.9-1.3-1.3c-1.4-1.4-2.8-2.9-4.1-4.4c-0.1-0.1-0.1-0.1-0.2-0.2
		c-1.4-1.6-2.8-3.1-4.2-4.8c-0.4-0.4-0.7-0.9-1.1-1.3c-1-1.2-2-2.5-3-3.7c-0.4-0.4-0.7-0.9-1.1-1.4c-1.2-1.5-2.3-3.1-3.5-4.6
		c-31.3-42.7-42.5-101.6-17.5-149.9"/>
	<path class="st1" d="M192.1,69.6c-20.5,29.6-19.4,69.2-3.4,100.4c2.7,5.2,5.7,10.3,9.1,15.2c3.1,4.4,6.5,9.7,10.6,13.2
		c1.5,1.6,3,3.2,4.6,4.8c0.4,0.4,0.8,0.8,1.2,1.2c1.5,1.5,3.1,3,4.7,4.4c0.1,0,0.1,0.1,0.2,0.2c0,0,0,0,0,0c1.8,1.6,3.6,3.1,5.5,4.6
		c0.4,0.3,0.8,0.6,1.2,1c1.9,1.4,3.8,2.9,5.8,4.2c0.1,0,0.1,0.1,0.2,0.1c0.9,0.6,1.7,1.2,2.6,1.7c0.4,0.3,0.8,0.6,1.2,0.8
		c1.4,0.9,2.8,1.8,4.3,2.6c0.2,0.1,0.4,0.2,0.6,0.4c1.2,0.7,2.5,1.4,3.8,2.1c0.4,0.2,0.9,0.5,1.3,0.7c0.9,0.5,1.7,0.9,2.6,1.4
		c0.1,0.1,0.3,0.1,0.4,0.2c1.8,0.9,3.6,1.8,5.5,2.6c0.4,0.2,0.8,0.3,1.2,0.5c1.5,0.6,3,1.3,4.5,1.8c0.6,0.2,1.3,0.5,1.9,0.7
		c1.4,0.5,2.8,1,4.1,1.4c0.6,0.2,1.2,0.4,1.9,0.6c2,0.6,3.9,1.4,6,1.7C380,255.7,404.5,174,404.5,174c-22.1,31.8-64.8,47-110.5,35.1
		c-2-0.5-4-1.1-6-1.7c-0.6-0.2-1.2-0.4-1.8-0.6c-1.4-0.5-2.8-0.9-4.2-1.4c-0.6-0.2-1.3-0.5-1.9-0.7c-1.5-0.6-3-1.2-4.5-1.8
		c-0.4-0.2-0.8-0.3-1.2-0.5c-1.9-0.8-3.7-1.7-5.5-2.6c-0.9-0.5-1.9-0.9-2.8-1.4c-0.5-0.3-1.1-0.5-1.6-0.8c-1.2-0.6-2.4-1.3-3.5-2
		c-0.3-0.2-0.6-0.3-0.8-0.5c-1.4-0.8-2.8-1.7-4.3-2.6c-0.4-0.3-0.8-0.6-1.3-0.9c-0.9-0.6-1.8-1.2-2.8-1.8c-2-1.3-3.9-2.8-5.7-4.2
		c-0.4-0.3-0.9-0.7-1.3-1c-20-15.8-35.8-37.3-43.3-61.8c-7.9-25.3-6.2-53.8,7.5-76.9"/>
	<path class="st1" d="M266.3,43.9c-12.1,17.8-13.3,40-4.9,59.7c8.9,20.9,27,37.3,48.2,45.1c0.9,0.3,1.7,0.6,2.6,0.9
		c0.4,0.1,0.8,0.3,1.2,0.4c1.2,0.4,2.5,0.8,3.8,1.1c58.6,11.3,74.5-30.1,78.7-36.2c-13.9,20-37.3,24.8-66,17.9
		c-2.3-0.5-4.8-1.4-6.9-2.1c-2.8-1-5.6-2.1-8.2-3.4c-5.1-2.4-10-5.4-14.5-8.8c-25.7-19.5-41.6-56.7-24.9-86.9"/>
</g>
</svg>
