<?xml version="1.0" encoding="utf-8"?>
<!-- Generator: Adobe Illustrator 15.0.0, SVG Export Plug-In . SVG Version: 6.00 Build 0)  -->
<!DOCTYPE svg PUBLIC "-//W3C//DTD SVG 1.1//EN" "http://www.w3.org/Graphics/SVG/1.1/DTD/svg11.dtd">
<svg version="1.1" id="Layer_1" xmlns="http://www.w3.org/2000/svg" xmlns:xlink="http://www.w3.org/1999/xlink" x="0px" y="0px"
	 viewBox="0 0 512 512" enable-background="new 0 0 512 512" xml:space="preserve">
<path fill="#131B28" d="M165.976,357.471l0.001-0.006l-3.293,11.674L165.976,357.471L165.976,357.471z"/>
<path fill="#131B28" d="M182.916,382.813l-3.63-0.021L182.916,382.813z"/>
<path fill="#131B28" d="M186.542,382.834l-3.632-0.021L186.542,382.834z"/>
<path fill="#131B28" d="M183.888,398.762l3.787-14.445l-3.787,14.449V398.762L183.888,398.762z"/>
<path fill="#131B28" d="M263.95,332.236l-7.057,33.172L263.95,332.236z"/>
<path fill="#131B28" d="M245.81,332.236l-5.354,24.781l5.354-24.783V332.236z"/>
<path fill="#131B28" d="M262.74,330.743h-15.086c-0.837,0-1.671,0.671-1.848,1.491l-5.358,24.783l-5.354,24.783
	c-0.18,0.815-1.008,1.486-1.846,1.486h-9.156h-1.523c-10.566,0-9.345-7.308-7.182-17.32c0.023-0.102,0.044-0.2,0.065-0.302
	l0.238-1.262c0.013-0.082,0.03-0.162,0.044-0.239l0.482-2.569l0.518-2.754c0.158-0.829,0.396-2.043,0.551-2.805l2.435-11.898
	l2.438-11.899c0.167-0.82-0.382-1.495-1.219-1.495h-15.488c-0.836,0-1.666,0.675-1.837,1.493l-3.33,15.798l-3.33,15.799
	c-0.003,0.006-0.004,0.016-0.005,0.023l-0.31,1.467c-3.835,17.513-2.817,34.212,18.028,34.735c0.341,0.01,0.604,0.012,0.604,0.012
	h32.724c0.835,0,1.665-0.673,1.839-1.49l7.057-33.172l7.057-33.172c0.173-0.818-0.37-1.491-1.208-1.491V330.743z"/>
<path fill="#131B28" d="M322.934,383.46c0.839,0,1.389,0.673,1.22,1.492l-1.468,7.161"/>
<path fill="#131B28" d="M282.579,374.235c-0.012-0.784,0.881-2.136,1.72-2.136l-1.885-0.029
	C281.564,380.61,282.579,374.235,282.579,374.235L282.579,374.235z"/>
<path fill="#131B28" d="M322.934,383.46c0.839,0,1.389,0.673,1.22,1.492l-1.468,7.161l-0.236,1.167"/>
<path fill="#131B28" d="M73.081,374.416l2.344-10.389l-2.68,11.875L70.173,388l2.254-10.604
	C72.601,376.573,72.897,375.234,73.081,374.416L73.081,374.416z"/>
<path fill="#131B28" d="M101.135,330.568H84.564c-0.839,0-1.674,0.669-1.861,1.485l-1.572,6.935l-1.571,6.938
	c-0.185,0.816,0.35,1.485,1.188,1.485h16.699c0.838,0,1.67-0.669,1.851-1.487l1.518-6.936l1.519-6.931v-0.002
	C102.512,331.237,101.974,330.568,101.135,330.568L101.135,330.568z"/>
<path fill="#131B28" d="M97.529,353.638v-0.002l-4.861,22.484L97.529,353.638z"/>
<path fill="#131B28" d="M77.769,353.636l-2.347,10.392L77.769,353.636z"/>
<path fill="#131B28" d="M96.329,352.149H79.628c-0.836,0-1.675,0.671-1.858,1.486l-2.347,10.392l-2.344,10.389
	c-0.184,0.818-0.48,2.159-0.654,2.979L70.171,388l-2.252,10.605c-0.175,0.819-0.535,2.14-0.804,2.934c0,0-3.119,9.285-8.364,9.18
	c-0.224-0.004-0.44-0.007-0.655-0.013c-2.541-0.049-4.54-0.084-4.54-0.084h-0.003c-0.836-0.012-1.677,0.64-1.873,1.453l-1.732,7.282
	l-1.729,7.277c-0.194,0.813,0.331,1.484,1.164,1.5c2.975,0.035,9.636,0.11,13.67,0.11c13.102,0,20.009-7.26,24.437-28.147
	l5.181-23.978l4.86-22.484C97.707,352.82,97.166,352.149,96.329,352.149L96.329,352.149z"/>
<path fill="#131B28" d="M333.575,400.07c-0.835,0-1.379-0.673-1.202-1.492l12.563-58.848"/>
<path fill="#131B28" d="M351.035,398.576l5.084-25.119L351.035,398.576z"/>
<path fill="#131B28" d="M332.556,399.323c-0.103-0.41-0.043-1.414,0.133-2.236l5.963-27.933l-6.28,29.424
	c-0.177,0.819,0.365,1.492,1.204,1.492h1.526C334.262,400.07,332.653,399.734,332.556,399.323L332.556,399.323z"/>
<path fill="#131B28" d="M353.581,386.016l2.243-11.084c0,0.006-0.002,0.016-0.004,0.02L353.581,386.016L353.581,386.016z"/>
<path fill="#131B28" d="M403.153,343.673l0.692,2.859c0.19,0.817-0.34,1.48-1.173,1.482"/>
<path fill="#131B28" d="M351.341,397.083l2.238-11.065L351.341,397.083z"/>
<path fill="#131B28" d="M402.465,340.742l0.685,2.931L402.465,340.742z"/>
<path fill="#131B28" d="M355.822,374.932c0.167-0.819,0.441-2.149,0.616-2.963l2.395-11.221l-2.714,12.711L355.822,374.932
	L355.822,374.932z"/>
<path fill="#131B28" d="M345.14,338.766c-0.165,0.792-0.379,1.792-0.522,2.455l-5.958,27.934l6.28-29.424L345.14,338.766
	L345.14,338.766z"/>
<path fill="#131B28" d="M403.842,346.532l-0.692-2.859l-0.685-2.931l-0.348-1.48c-1.356-5.272-5.338-8.314-13.983-8.314
	l-13.465-0.014l-12.396-0.014h-1.063h-12.886c-0.835,0-1.667,0.669-1.84,1.488l0,0l-0.615,2.915l-0.729,3.442l-0.202,0.965
	l-6.282,29.424l-5.963,27.933c-0.178,0.822-0.237,1.826-0.135,2.236c0.1,0.411,1.708,0.747,2.546,0.747h12.586
	c0.839,0,1.898-0.151,2.354-0.336c0.459-0.184,1.133-1.831,1.3-2.651l2.236-11.065l2.239-11.066c0.002-0.004,0.002-0.012,0.004-0.02
	l0.301-1.473l2.71-12.711l2.396-11.227c0.181-0.816,1.005-1.485,1.84-1.487l39.6-0.02c0.835-0.002,1.363-0.667,1.175-1.484
	L403.842,346.532z"/>
<path fill="#131B28" d="M454.818,320.676c-0.838,0.006-2.208,0.012-3.048,0.012h-12.676c-0.836,0-1.91,0.565-2.383,1.258
	l-28.027,41.058c-0.473,0.694-1.013,0.593-1.199-0.224l-2.061-9.047c-0.187-0.818-1.028-1.485-1.863-1.485h-18.017
	c-0.84,0-1.336,0.659-1.108,1.466l8.074,28.28c0.229,0.806,0.247,2.132,0.04,2.943l-3.52,13.688
	c-0.209,0.812,0.307,1.477,1.146,1.477h17.808c0.837,0,1.692-0.665,1.902-1.477l3.519-13.688c0.208-0.812,0.792-2.026,1.296-2.694
	l45.501-60.39c0.504-0.671,0.229-1.214-0.606-1.208L454.818,320.676L454.818,320.676z"/>
<path fill="#131B28" d="M311.675,356.098l-0.002-0.018c-0.105,0.91-0.943,1.576-1.78,1.576h-22.844
	c-0.788,0-1.192-0.537-1.075-1.198c0.008-0.02,0.01-0.037,0.02-0.055c0,0-0.006,0.002-0.012,0.008
	c0.004-0.025,0.004-0.049,0.012-0.076c0,0,0.044-0.161,0.106-0.389c2.179-5.8,6.625-9.608,14.977-9.608
	C310.479,346.338,312.314,350.934,311.675,356.098L311.675,356.098z M304.974,329.729c-29.324,0-36.271,17.799-40.166,35.761
	c-3.901,18.309-3.565,35.428,26.775,35.428h1.077c0.096-0.002,0.196-0.002,0.292-0.002h0.848h0.313h0.797
	c0.117-0.002,0.233-0.002,0.354-0.002c0.3,0,0.608-0.002,0.912-0.002h0.216c1.2-0.002,2.42-0.008,3.641-0.01h0.063
	c8.012-0.034,16.049-0.093,19.303-0.12c0.834-0.012,1.648-0.683,1.818-1.496l1.228-6.004l0.241-1.169l1.466-7.161
	c0.167-0.819-0.383-1.492-1.218-1.492h-27.278c-10.851,0-14.072-2.884-12.884-11.358h43.604l-0.004,0.004
	c0.01,0,0.02-0.004,0.029-0.004c0.692-0.012,1.334-0.49,1.589-1.126c0.047-0.121,0.089-0.249,0.106-0.38l-0.006,0.004
	c6.474-24.421,4.616-40.868-23.118-40.868L304.974,329.729z"/>
<path fill="#131B28" d="M166.388,356.005l-0.413,1.46c0,0.006-0.001,0.006-0.001,0.006l-3.292,11.668l-3.291,11.665
	c-0.228,0.807-1.099,1.466-1.938,1.466h-17.428c-13.218,0-16.438-10.338-13.218-25.588c3.218-15.599,9.528-25.293,22.539-26.275
	C167.124,329.064,170.681,341.572,166.388,356.005L166.388,356.005z M178.339,381.373c0,0,8.216-19.951,10.083-31.474
	c2.544-15.426-5.179-37.797-35.011-37.797c-29.661,0-42.542,21.359-47.456,44.577c-4.914,23.387,1.524,43.898,31.017,43.729
	l23.266-0.086l21.747-0.078c0.837-0.008,1.693-0.673,1.907-1.481l3.787-14.449c0.212-0.81-0.3-1.477-1.137-1.482l-3.632-0.021
	l-3.628-0.021c-0.713-0.004-1.121-0.465-1.033-1.077c0.015-0.109,0.04-0.224,0.088-0.341L178.339,381.373z"/>
<path fill="#131B28" d="M325.177,368.021c0,0.551-0.451,1-1.004,1c-0.549,0-0.998-0.449-0.998-1c0-0.552,0.449-0.999,0.998-0.999
	C324.726,367.021,325.177,367.469,325.177,368.021z"/>
<path fill="#0868AC" d="M128.174,115.876c-23.569,33.876-20.636,77.951-2.631,113.947c0.428,0.861,0.878,1.712,1.32,2.56
	c0.281,0.538,0.546,1.091,0.842,1.62c0.166,0.322,0.35,0.632,0.524,0.934c0.306,0.577,0.621,1.118,0.938,1.679
	c0.558,0.987,1.133,1.968,1.718,2.948c0.326,0.539,0.646,1.077,0.98,1.614c0.649,1.051,1.315,2.087,1.997,3.122
	c0.281,0.441,0.558,0.883,0.848,1.311c0.938,1.4,1.899,2.797,2.888,4.168c0.024,0.037,0.053,0.076,0.083,0.111
	c0.157,0.22,0.329,0.436,0.489,0.655c0.856,1.183,1.739,2.348,2.632,3.503c0.329,0.42,0.66,0.84,0.992,1.263
	c0.797,1.001,1.609,1.995,2.432,2.989c0.31,0.369,0.619,0.745,0.931,1.11c1.108,1.302,2.237,2.601,3.389,3.871
	c0.022,0.022,0.049,0.052,0.069,0.071c0.05,0.055,0.091,0.09,0.132,0.145c1.124,1.229,2.278,2.429,3.444,3.631
	c0.361,0.375,0.731,0.747,1.104,1.112c0.906,0.914,1.822,1.808,2.751,2.698c0.377,0.359,0.751,0.726,1.126,1.069
	c1.24,1.167,2.49,2.314,3.769,3.432c0.023,0.021,0.04,0.038,0.058,0.048c0.219,0.194,0.442,0.374,0.658,0.561
	c1.124,0.975,2.269,1.939,3.423,2.891c0.47,0.383,0.944,0.756,1.417,1.132c0.944,0.754,1.896,1.501,2.855,2.232
	c0.508,0.387,1.016,0.772,1.527,1.161c1.057,0.776,2.126,1.545,3.203,2.297c0.392,0.284,0.774,0.559,1.166,0.827
	c0.11,0.077,0.21,0.155,0.32,0.229c1.021,0.704,2.068,1.381,3.112,2.058c0.447,0.298,0.892,0.606,1.345,0.896
	c1.602,1.016,3.228,2.016,4.872,2.983c0.444,0.257,0.897,0.506,1.344,0.759c1.209,0.696,2.424,1.381,3.656,2.05
	c0.666,0.358,1.351,0.7,2.021,1.045c0.87,0.457,1.734,0.914,2.618,1.357c0.199,0.098,0.406,0.192,0.605,0.292
	c0.353,0.171,0.712,0.338,1.068,0.516c1.37,0.655,2.751,1.299,4.148,1.921c0.295,0.131,0.583,0.263,0.875,0.392
	c1.599,0.698,3.209,1.371,4.835,2.011c0.392,0.161,0.784,0.31,1.18,0.463c1.504,0.58,3.029,1.153,4.562,1.69
	c0.193,0.07,0.38,0.134,0.574,0.2c1.679,0.588,3.377,1.132,5.086,1.663c0.409,0.12,0.818,0.251,1.229,0.369
	c1.74,0.525,3.46,1.151,5.255,1.482c113.985,20.786,147.097-68.497,147.097-68.497c-27.809,36.226-77.171,45.785-123.938,35.143
	c-1.771-0.399-3.491-0.953-5.219-1.463c-0.439-0.13-0.871-0.263-1.302-0.395c-1.687-0.516-3.361-1.061-5.025-1.634
	c-0.229-0.084-0.459-0.166-0.69-0.251c-1.49-0.523-2.965-1.074-4.433-1.642c-0.414-0.167-0.828-0.323-1.243-0.488
	c-1.608-0.636-3.205-1.298-4.785-1.988c-0.323-0.138-0.635-0.285-0.955-0.424c-1.356-0.616-2.698-1.234-4.035-1.877
	c-0.386-0.185-0.773-0.367-1.168-0.56c-1.049-0.512-2.085-1.055-3.121-1.588c-0.693-0.365-1.397-0.71-2.084-1.091
	c-1.265-0.679-2.505-1.381-3.743-2.099c-0.417-0.235-0.842-0.463-1.262-0.706c-1.643-0.969-3.267-1.97-4.874-2.985
	c-0.441-0.28-0.875-0.584-1.314-0.871c-1.165-0.755-2.325-1.52-3.466-2.311c-0.378-0.253-0.745-0.529-1.119-0.784
	c-1.101-0.776-2.191-1.567-3.277-2.369c-0.491-0.363-0.975-0.733-1.452-1.099c-0.992-0.759-1.98-1.523-2.958-2.311
	c-0.442-0.351-0.884-0.706-1.317-1.059c-1.243-1.021-2.472-2.048-3.684-3.103c-0.126-0.11-0.268-0.22-0.403-0.34
	c-1.312-1.151-2.602-2.334-3.875-3.521c-0.37-0.353-0.729-0.696-1.09-1.051c-0.941-0.896-1.869-1.801-2.781-2.727
	c-0.367-0.365-0.731-0.726-1.09-1.089c-1.16-1.187-2.301-2.391-3.416-3.612c-0.056-0.061-0.114-0.116-0.169-0.179
	c-1.179-1.291-2.334-2.61-3.463-3.942c-0.307-0.367-0.602-0.718-0.906-1.075c-0.843-1.018-1.679-2.043-2.494-3.083
	c-0.306-0.369-0.61-0.753-0.914-1.138c-0.979-1.273-1.938-2.542-2.877-3.833c-25.966-35.417-35.294-84.266-14.542-124.383"/>
<path fill="#0868AC" d="M201.337,87.335c-17.044,24.53-16.119,57.365-2.822,83.307c2.228,4.348,4.736,8.567,7.539,12.586
	c2.554,3.658,5.386,8.014,8.774,10.956c1.229,1.354,2.512,2.671,3.824,3.97c0.332,0.337,0.671,0.663,1.008,0.993
	c1.273,1.235,2.567,2.452,3.907,3.632c0.055,0.041,0.104,0.098,0.16,0.137c0.014,0.016,0.028,0.021,0.036,0.035
	c1.48,1.299,3.011,2.55,4.564,3.778c0.345,0.263,0.688,0.537,1.036,0.808c1.557,1.194,3.146,2.369,4.774,3.487
	c0.047,0.033,0.09,0.066,0.139,0.102c0.718,0.499,1.45,0.961,2.175,1.438c0.349,0.226,0.683,0.469,1.034,0.683
	c1.163,0.745,2.342,1.473,3.538,2.167c0.17,0.106,0.335,0.192,0.502,0.291c1.03,0.592,2.077,1.179,3.126,1.75
	c0.367,0.204,0.739,0.384,1.112,0.579c0.724,0.378,1.451,0.765,2.188,1.131c0.11,0.055,0.224,0.1,0.33,0.149
	c1.502,0.741,3.017,1.453,4.566,2.126c0.33,0.147,0.671,0.276,1.008,0.416c1.233,0.524,2.485,1.038,3.738,1.518
	c0.533,0.2,1.07,0.396,1.601,0.588c1.142,0.424,2.285,0.808,3.436,1.197c0.522,0.165,1.034,0.337,1.556,0.496
	c1.638,0.508,3.258,1.151,4.964,1.436c88.009,14.581,108.328-53.181,108.328-53.181c-18.316,26.38-53.785,38.965-91.633,29.141
	c-1.683-0.443-3.338-0.926-4.986-1.443c-0.502-0.151-0.996-0.318-1.496-0.482c-1.171-0.38-2.332-0.781-3.487-1.2
	c-0.527-0.194-1.055-0.389-1.575-0.588c-1.261-0.483-2.512-0.987-3.752-1.51c-0.337-0.146-0.681-0.279-1.01-0.43
	c-1.554-0.677-3.083-1.387-4.59-2.132c-0.78-0.381-1.541-0.781-2.304-1.175c-0.441-0.228-0.885-0.455-1.328-0.685
	c-0.98-0.53-1.956-1.083-2.915-1.642c-0.228-0.131-0.467-0.257-0.698-0.395c-1.188-0.696-2.363-1.416-3.526-2.153
	c-0.357-0.228-0.702-0.477-1.063-0.71c-0.767-0.498-1.532-1.002-2.287-1.514c-1.62-1.118-3.201-2.291-4.754-3.479
	c-0.359-0.282-0.718-0.557-1.071-0.841c-16.565-13.08-29.7-30.956-35.944-51.224c-6.542-21.023-5.131-44.62,6.206-63.771"/>
<path fill="#0868AC" d="M262.869,66.012c-10.045,14.789-11.034,33.154-4.06,49.486c7.354,17.336,22.42,30.936,40.005,37.385
	c0.724,0.267,1.45,0.51,2.184,0.757c0.321,0.098,0.639,0.208,0.965,0.306c1.035,0.322,2.063,0.702,3.134,0.902
	c48.594,9.389,61.774-24.937,65.285-29.989c-11.547,16.624-30.952,20.613-54.759,14.835c-1.881-0.455-3.946-1.136-5.76-1.777
	c-2.326-0.83-4.613-1.773-6.842-2.842c-4.227-2.03-8.257-4.497-11.991-7.317c-21.304-16.166-34.539-47.001-20.637-72.114"/>
</svg>
