<?xml version="1.0" encoding="utf-8"?>
<!-- Generator: Adobe Illustrator 21.0.2, SVG Export Plug-In . SVG Version: 6.00 Build 0)  -->
<svg version="1.1" id="Layer_1" xmlns="http://www.w3.org/2000/svg" xmlns:xlink="http://www.w3.org/1999/xlink" x="0px" y="0px"
	 viewBox="0 0 512 512" style="enable-background:new 0 0 512 512;" xml:space="preserve">
<style type="text/css">
	.st0{display:none;fill:#FFFFFF;}
	.st1{fill:#00678C;}
	.st2{fill:#CE8B2C;}
</style>
<g>
	<path class="st0" d="M0,0h512v512H0V0z"/>
	<g>
		<path class="st1" d="M1.7,364.6h16.8v-66.5l26.2,58c3,7,7.2,9.6,15.5,9.6c8.3,0,12.3-2.6,15.4-9.6l26.1-58v66.5h16.9v-66.5
			c0-6.5-2.6-9.6-8-11.2c-12.8-3.9-21.3-0.5-25.2,8.1l-25.7,57.3L34.9,295c-3.7-8.6-12.4-12-25.3-8.1c-5.3,1.7-7.9,4.8-7.9,11.2
			L1.7,364.6L1.7,364.6L1.7,364.6z M132.5,310.4h16.9V347c-0.1,2.1,0.6,6.7,9.8,6.8c4.8,0.1,36.4,0,36.7,0v-43.6h16.9V370
			c0,14.7-18.2,17.9-26.7,18.1h-53.2v-11.2h53.3c10.8-1.2,9.6-6.6,9.6-8.4V364H160c-16.7-0.1-27.4-7.5-27.5-15.9
			C132.5,347.4,132.9,310.7,132.5,310.4L132.5,310.4z M495.4,268.1c-10.3-0.3-18.3,0.8-25.1,3.6c-1.9,0.8-5,0.8-5.3,3.2
			c1,1,1.2,2.7,2.1,4.1c1.5,2.6,4.3,6.1,6.7,7.9c2.7,2.1,5.4,4.1,8.3,5.9c5,3.1,10.7,4.9,15.6,8c2.8,1.8,5.7,4.1,8.5,6.1
			c1.4,1,2.3,2.7,4.1,3.4v-0.4c-0.9-1.2-1.2-2.8-2.1-4.1c-1.3-1.3-2.6-2.5-3.9-3.7c-3.7-5-8.4-9.4-13.4-13
			c-4.1-2.8-13.2-6.7-14.9-11.5l-0.3-0.3c2.8-0.3,6.2-1.3,8.9-2.1c4.4-1.2,8.4-0.9,12.9-2.1c2.1-0.5,4.1-1.2,6.2-1.8v-1.2
			c-2.3-2.3-4-5.4-6.5-7.6c-6.6-5.7-13.8-11.2-21.3-15.9c-4-2.6-9.2-4.3-13.4-6.5c-1.6-0.8-4.1-1.2-5-2.5c-2.3-2.8-3.6-6.6-5.3-9.9
			c-3.7-7.1-7.4-15-10.6-22.5c-2.3-5-3.7-10.1-6.6-14.7c-13.3-22-27.8-35.3-50-48.3c-4.8-2.7-10.5-3.9-16.5-5.3
			c-3.2-0.1-6.5-0.4-9.7-0.5c-2.1-0.9-4.1-3.4-5.9-4.5c-7.4-4.6-26.3-14.7-31.8-1.4c-3.5,8.4,5.2,16.7,8.1,20.9c2.2,3,5,6.3,6.6,9.7
			c0.9,2.2,1.2,4.5,2.1,6.8c2.1,5.7,4,12,6.7,17.3c1.4,2.7,3,5.6,4.8,8c1,1.4,2.8,2.1,3.2,4.4c-1.8,2.6-1.9,6.5-3,9.7
			c-4.7,14.6-2.8,32.7,3.7,43.4c2.1,3.2,7,10.3,13.6,7.6c5.8-2.3,4.5-9.7,6.2-16.1c0.4-1.5,0.1-2.6,0.9-3.6v0.3
			c1.8,3.6,3.6,7.1,5.3,10.7c4,6.3,11,12.9,16.8,17.3c3.1,2.3,5.6,6.3,9.4,7.7v-0.4h-0.3c-0.8-1.2-1.9-1.7-3-2.6
			c-2.3-2.3-4.9-5.2-6.7-7.7c-5.4-7.2-10.2-15.2-14.5-23.5c-2.1-4-3.9-8.4-5.6-12.4c-0.8-1.6-0.8-3.9-2.1-4.6
			c-1.9,2.8-4.8,5.3-6.2,8.8c-2.5,5.6-2.7,12.4-3.6,19.5c-0.5,0.1-0.3,0-0.5,0.3c-4.1-1-5.6-5.3-7.1-8.9c-3.9-9.2-4.5-23.9-1.2-34.5
			c0.9-2.7,4.8-11.2,3.2-13.8c-0.8-2.5-3.4-3.9-4.8-5.8c-1.7-2.5-3.5-5.6-4.6-8.3c-3.1-7.2-4.6-15.2-8-22.5
			c-1.6-3.4-4.3-6.8-6.5-9.9c-2.5-3.5-5.2-5.9-7.1-10.1c-0.6-1.4-1.5-3.7-0.5-5.3c0.3-1,0.8-1.4,1.8-1.7c1.7-1.4,6.5,0.4,8.1,1.2
			c4.8,1.9,8.8,3.7,12.8,6.5c1.8,1.3,3.7,3.7,6.1,4.4h2.7c4.1,0.9,8.8,0.3,12.7,1.4c6.8,2.2,13,5.4,18.6,8.9
			c16.9,10.7,30.9,26,40.3,44.2c1.5,3,2.2,5.7,3.6,8.8c2.7,6.3,6.1,12.8,8.8,19c2.7,6.1,5.3,12.3,9.2,17.3c1.9,2.7,9.7,4.1,13.2,5.6
			c2.6,1.2,6.6,2.2,8.9,3.6c4.4,2.7,8.8,5.8,12.9,8.8C488.5,262.3,495,265.5,495.4,268.1L495.4,268.1z"/>
		<path class="st1" d="M363.6,155.9c-2.2,0-3.7,0.3-5.3,0.6v0.3h0.3c1,2.1,2.8,3.5,4.1,5.3c1,2.1,1.9,4.1,3,6.2l0.3-0.3
			c1.8-1.3,2.7-3.4,2.7-6.5c-0.8-0.9-0.9-1.8-1.5-2.7C366.3,157.6,364.7,156.9,363.6,155.9L363.6,155.9z"/>
		<path class="st2" d="M225.7,364.6h48.6c5.7,0,11.1-1.2,15.5-3.2c7.4-3.4,10.8-7.9,10.8-13.8v-12.4c0-4.8-4-9.3-12-12.4
			c-4.1-1.5-9.3-2.5-14.3-2.5h-20.4c-6.8,0-10.1-2.1-11-6.6c-0.1-0.5-0.1-1-0.1-1.5v-7.6c0-0.4,0-0.9,0.1-1.4c0.9-3.5,2.7-4.4,8.7-5
			h49.7v-11.2H254c-6.8,0-10.5,0.4-13.7,1.4c-9.9,3.1-14.3,8-14.3,16.7v9.8c0,7.6,8.5,14.1,23,15.6c1.5,0.1,3.2,0.1,4.9,0.1h17.4
			c0.6,0,1.3,0,1.8,0.1c5.3,0.5,7.6,1.4,9.2,3.4c1,1,1.3,1.9,1.3,3.1v9.8c0,1.2-0.8,2.7-2.3,4c-1.6,1.3-4,2.2-7.2,2.3
			c-0.6,0-1,0.1-1.7,0.1h-46.6V364.6L225.7,364.6z M405.7,345.1c0,11.5,8.7,17.9,26,19.2c1.7,0.1,3.2,0.3,4.9,0.3h43.9v-11.2h-44.3
			c-9.8,0-13.6-2.5-13.6-8.4v-58.1h-16.9L405.7,345.1L405.7,345.1L405.7,345.1z M311.3,345.6v-40c0-10.2,7.2-16.4,21.3-18.3
			c1.5-0.1,3.1-0.3,4.5-0.3h32c1.7,0,3.1,0.1,4.8,0.3c14.1,1.9,21.2,8.1,21.2,18.3v40c0,8.3-3,12.7-9.9,15.6l16.5,15h-19.5
			L368.8,364l-13.6,0.8h-18.1c-3,0-6.3-0.4-9.8-1.3C316.6,360.6,311.3,354.9,311.3,345.6L311.3,345.6z M329.5,344.7
			c0,0.5,0.3,1,0.4,1.7c0.9,4.6,5.3,7.2,12,7.2h15.2l-13.9-12.7h19.5L375,352c2.3-1.3,3.7-3.1,4.3-5.4c0.1-0.5,0.1-1.2,0.1-1.7
			v-38.4c0-0.5,0-1-0.1-1.5c-0.9-4.4-5.3-6.8-11.9-6.8h-25.4c-7.5,0-12.4,3.2-12.4,8.4L329.5,344.7L329.5,344.7z M488.3,364.7h2.5
			v-9.4h3.2v-1.9h-9v1.9h3.4L488.3,364.7L488.3,364.7z M507,364.7h2.3v-11.4h-3.5l-2.8,7.8l-3.1-7.8h-3.4v11.4h2.2V356h0.1l3.2,8.6
			h1.7l3.2-8.6L507,364.7L507,364.7L507,364.7z"/>
	</g>
</g>
</svg>
