<?xml version="1.0" encoding="utf-8"?>
<!-- Generator: Adobe Illustrator 21.0.2, SVG Export Plug-In . SVG Version: 6.00 Build 0)  -->
<svg version="1.1"
	 id="svg46" xmlns:cc="http://creativecommons.org/ns#" xmlns:dc="http://purl.org/dc/elements/1.1/" xmlns:rdf="http://www.w3.org/1999/02/22-rdf-syntax-ns#" xmlns:svg="http://www.w3.org/2000/svg"
	 xmlns="http://www.w3.org/2000/svg" xmlns:xlink="http://www.w3.org/1999/xlink" x="0px" y="0px" viewBox="0 0 224.1 224.1"
	 style="enable-background:new 0 0 224.1 224.1;" xml:space="preserve">
<style type="text/css">
	.st0{fill:#221E1F;}
	.st1{fill:#FDFEFE;}
	.st2{fill:#97D095;}
	.st3{fill:#7DC56F;}
	.st4{fill:#98CD70;}
	.st5{fill:#B0D579;}
	.st6{fill:#8FCA70;}
	.st7{fill:#86C771;}
	.st8{fill:#6BBB61;}
	.st9{fill:#77C36C;}
	.st10{fill:#6EAB61;}
	.st11{fill:#6CA65F;}
	.st12{fill:#72B164;}
	.st13{fill:#6AA45D;}
	.st14{fill:#69A25C;}
	.st15{fill:#D07B84;}
	.st16{fill:#619556;}
	.st17{fill:#DDC277;}
	.st18{fill:#DCC576;}
	.st19{fill:#F5D875;}
	.st20{fill:#FFFFFF;}
	.st21{fill:#5C8B50;}
</style>
<path id="path2" class="st0" d="M77.5,44.4c3.2-2.4,7.5-2.1,11.2-1.2c5,2.1,7.1,7.5,10.8,11.1c5.6-5.2,13.8-7.6,21.2-5.1
	c2.4,0.8,3.6,3.2,4.5,5.4c2.6,6.4,0.2,13.6-3.1,19.4c-1.5,3.1-4.4,5-7.5,6.4c1.1,2.4,3,4.9,2.7,7.7c-5.6,6.9-15.5,9.6-24.2,8.6
	c0.7,1.8,1.4,3.7,2.1,5.5c2.2-0.4,4.5-1.4,6.6-0.3c2.1,0.8,4.1,2.1,6.5,1.8c6.4-0.6,12.8,0.8,19.2,1.5c2.3,0.5,5.1,1,6.6,3
	c-0.2,0.4-0.7,1.1-0.9,1.5c-5.5,1.4-11.3,1.6-16.6,3.7c-2.9,1.2-6.1,0.9-9.2,0.6c-2.5,2.4-5.3,5.2-9,5.3c-3.7,0-5.9-3.5-8.1-6
	c-3.6,0-7.4-0.8-10.6,1.3c-3,2.3-6-1.5-9.3-1.1c-8.6,0.2-17.3-0.3-25.9,0.6c-3.6-0.9-7.2-1.8-11-1.3c-0.2,6.6,3.2,12.3,6.4,17.8
	c2.2,3.9,5.3,8.1,10,8.9c3.7,0.7,9.1,1.3,10.9-2.9c1.7-4.8-1.3-9.6-3.5-13.8c-2.8,0.7-6.1,1.2-7.4,4.1c0.6,0.3,1.9,1,2.5,1.4
	c0.2-0.8,0.5-2.4,0.6-3.1c2.5,0.5,6.2,2.7,4.3,5.7c-2.5,2.3-7.4,3.1-9.6,0c-1.6-2.3-4.3-5.6-1.9-8.2c2.8-2.9,6.2-6.3,10.6-5.5
	c4.3-0.1,7.9,2.8,9.5,6.6c2.7,5.1,4.3,11.8,1.1,17c-6.1,5.8-15.8,6.8-23.4,3.2c-5.5-3.2-8.7-8.9-12-14c-3.2-4.9-4.5-10.7-5.6-16.4
	c-6-0.8-12.2,0.2-18.2-0.8c-1.9-2-1.2-4.9-1.3-7.4c2.9-1,5.7-2.7,8.9-2.3c3.3,0.4,6.6,0,9.7-1.1c-0.4-9.4,2.2-18.7,5.9-27.2
	c3-7.6,8.8-14.7,17-16.9c7.4-3,15.3-0.8,22.5,1.8C71.9,54.4,72.3,47.6,77.5,44.4L77.5,44.4z M83.8,45.7c-5.3,0.5-8.6,5.5-9.5,10.4
	c-1.6,5.5-0.2,11.3,1.7,16.6c2.4,4.4,7.3,7.3,12.3,7.6c3.6,0,6.9-2.6,8.1-5.9c2.3-5.6,2.9-12.1,1.1-18c-1.4-2-3.4-3.4-4.8-5.4
	C90.7,48.1,87.6,45,83.8,45.7L83.8,45.7z M101.5,57.5c-0.5,4.4,0.1,8.9,0,13.4c4.5,1.1,8.7,3.4,11.5,7.2c2.4-2.3,5.4-4.1,7-7.1
	c2.7-4.6,4.3-10.4,2.1-15.5c-1.1-3.1-4.7-4.5-7.8-4.4C109.5,51.6,104.4,53.3,101.5,57.5z M50.2,61.1c-7.7,1.9-13.6,8.6-16.1,15.9
	c-2.1,1.8-2.4,4.9-2.7,7.5l-0.7,0.1c-1,5-4.1,9.7-3.1,15c-0.1,0.5-0.4,1.4-0.5,1.9c1.4-0.3,3.5,0.4,4.2-1.3c2-4.1,4.7-7.8,7.3-11.6
	c1.5-0.1,3.5-2,4.5-0.2c-0.3,2.5-1.9,4.9-1.6,7.5c0.4,2.4,1.5,4.6,2.3,6.9c0.6,0.1,1.7,0.3,2.3,0.4c-1.1-1.7-2.3-3.3-2.9-5.2
	c0-2.8,1-5.6,2.3-8.1c2.4-1.4,2.7,2,3.8,3.4c2.5,1.2,5.3,1.5,8,1.9c3.4,1.7,7.5,1.1,10.9-0.3c-0.1-0.8-0.3-2.3-0.4-3.1
	c1-1.1,2.2-2.1,3.4-3.1c0.4,3.8-0.5,7.9,1.6,11.4c-0.3-3.6-0.3-7.3,0.8-10.9c0.7-0.1,2.1-0.3,2.8-0.4c-0.3,2-0.7,4.1-1,6.1
	c0.5,0.1,1.4,0.1,1.9,0.2c4.3,0.3,8.8-0.4,12.4-2.8c1-0.5,2-0.9,3.1-1.3c1.5,1.1,3.3,2.4,5.2,1.8c5.3-1.2,11.2-2.1,15.4-5.9
	c0.5-1.8-1.1-3.4-1.6-5.1c-2.1-4.4-6.8-6.2-11.2-7.4c-2,2.6-3.6,5.6-6.2,7.7c-4.5,2.6-10,1.4-14.5-0.8c-1.9-1.7-4-3.1-5.6-5.1
	c-1.7-2.5-2.4-5.4-3.2-8.2c-0.5-1.5-0.3-3.7-2-4.5C63.4,60.6,56.5,58.7,50.2,61.1L50.2,61.1z M34.1,102.7c2,0,4.1-0.2,6.1-0.4
	c-0.6-3-1-6.1-1.3-9.2C35.9,95.4,34.5,99,34.1,102.7L34.1,102.7z M46.2,96.2c-0.1,2.3,0.1,4.7,1.2,6.8c2.3-1.1,4.2-2.7,4.1-5.5
	C49.7,97,47.9,96.6,46.2,96.2L46.2,96.2z M88.3,96.2c0.5,2.4,2.3,4.1,4.3,5.3C91.9,99.2,90.7,97.1,88.3,96.2z M75.3,98.6
	c-0.1,1.4-0.1,2.7-0.1,4.1c1.8-0.1,3.5-0.7,5.2-1.3c2.9,2.1,6.4,2.9,9.9,2.9c-2-2-4.1-4-6-6.2C81.3,98.3,78.3,98.5,75.3,98.6
	L75.3,98.6z M53,103.2c0.8,0,2.5,0,3.3,0c0-1.4-0.1-2.8-0.2-4.2C55,100.4,54,101.8,53,103.2z M58.7,99.7c-0.3,1.5-0.6,3-0.8,4.5
	c4.8,0.1,9.6,0.1,14.4-0.1c-1-1.6-1.5-3.7-3.2-4.7C65.7,99.2,62.2,99.6,58.7,99.7z M75.5,104.5c-0.1,1.6-0.1,3.2-0.1,4.8
	c1.6-2.5,3.7-4.7,5.5-7C79,103,77.2,103.7,75.5,104.5L75.5,104.5z M97.8,102.3c0.2,1.4,0.8,1.6,2,0.8
	C99.7,101.7,99,101.4,97.8,102.3z M93.6,103.4C93.6,106.7,96.6,101.9,93.6,103.4z M8.2,111.6c2.5,0.2,5,0.3,7.5,0.2
	c-0.8-2.7-1-5.5-0.3-8.3C11.6,103.7,6.5,107.3,8.2,111.6z M17.9,110.7c0.4-2.3,0.9-4.5,1.2-6.8C16.6,105.4,15.9,108.5,17.9,110.7z
	 M39.4,106.4c-0.3,2.2,2.2,3,3.5,4.3c-0.6-2.2-1.3-4.4-2-6.5C40.3,104.9,39.8,105.6,39.4,106.4z M24.3,107.8c4,0,8,0.2,12,0.2
	c0-0.6-0.1-1.9-0.1-2.5c-3.2-0.2-6.5-0.6-9.7,0C25.3,105.6,24.3,106.5,24.3,107.8z M43.3,105.2c0.1,0.7,0.5,2,0.6,2.7
	c4.4,0.6,8.9-0.4,13.2,0.5c5.2,0.8,10.5,0.3,15.8,0.4c0-0.6,0.1-1.7,0.1-2.3c-5.5-0.6-11.2-0.9-16.7,0.1
	C51.9,107.6,47.8,104.6,43.3,105.2z M94.8,106.3c-0.1,0.4-0.4,1.2-0.5,1.5c5.6-0.3,11.5,1.9,16.7-0.5c-1.3-1.1-2.8-2.2-4.7-2
	C102.5,105.4,98.6,105.6,94.8,106.3L94.8,106.3z M114.9,105.2c-0.8,2.3-1.7,4.5-2.4,6.9c3.7-0.1,7.2-1.2,10.6-2.5
	c-0.2-0.8-0.5-2.4-0.6-3.2C120,106,117.4,105.5,114.9,105.2z M22.2,111.5c-0.1-1.9-0.4-3.9-0.6-5.8
	C20.8,107.7,20.1,110.1,22.2,111.5z M79.5,107.3c3.3,0.3,8.6,2.4,10.5-1.2C86.5,105.9,82.5,105.1,79.5,107.3z M25.2,109.4
	c0.1,0.4,0.4,1.2,0.6,1.6c4.3,0.5,8.6,0.4,12.9-0.2C34.4,109.2,29.7,109.4,25.2,109.4L25.2,109.4z M79.7,109.5
	c-0.1,0.4-0.5,1.3-0.6,1.7c9.9,0.3,19.9-1.1,29.6,0.6c-0.1-0.6-0.4-1.7-0.5-2.3c-4.6-0.1-9.3,0.3-13.9,0.4
	C89.5,110.1,84.6,108.7,79.7,109.5z M46.1,110.3c2.9,2.9,7.6,1.3,11.3,1.8c5.4-0.5,11.2,1.2,16.2-1.2
	C64.5,110.2,55.3,109.7,46.1,110.3L46.1,110.3z M76.5,110.5C74.9,113.5,79.8,110.7,76.5,110.5z M29.3,112.8
	c-0.3,7.7,3.9,14.5,7.9,20.7c3.6,4.9,8.6,10,15.2,9.6c-3.2-0.6-6.3-1.8-8.8-4c-4.1-2.9-5.9-7.6-8.3-11.8c-1.7-3-2.6-6.3-3.4-9.6
	C31.3,115.9,31.1,113.8,29.3,112.8L29.3,112.8z M95,114.5c2.4,3.1,6.2,1.1,8.5-1C100.8,114.6,97.9,115.1,95,114.5z M52.1,120.8
	c2.8,0.2,6.7-0.6,8.2,2.5c2.1,3.9,4,8.4,3.2,13c-0.4,2.9-3.2,4.3-5.1,6.2c3.9-1.3,7.5-4.7,7.1-9.1c-0.6-4.3-2.1-8.8-5.1-12
	C58.2,118.9,54.7,119.7,52.1,120.8L52.1,120.8z M113.6,63.3c1.3-2.1,3-3.9,5.6-4c0.6,2.2,0.7,4.6-0.1,6.8
	C116.8,66.3,115,65.1,113.6,63.3L113.6,63.3z M79.3,63.2c1.8-1.7,4.5-0.7,6.6-0.3c0.3,2.2,0.3,5-1.9,6.3
	C80.8,71.3,76.8,65.9,79.3,63.2z M78.9,122.9c3-0.5,6.4-0.9,9.1,0.8c1.7,0.9,1.3,3,1.5,4.5c-0.1,17.1,0,34.2-0.1,51.3
	c-1.2-0.1-2.5-0.1-3.7-0.2c0-17.7,0.2-35.5-0.1-53.2c-1.9-0.8-4-0.8-5.8,0.1c-0.1,19.1,0.1,38.1-0.1,57.1c-0.9,0-2.7,0-3.6,0
	c-0.3-18.4,0-36.8-0.1-55.2C75.7,126.1,76.4,123.4,78.9,122.9z M110.8,122.5c1.4,0,2.8,0,4.1,0c0,6.5-0.2,13.1,0.1,19.7
	c1.8,0,3.6,0.1,5.4,0.1c0,0.7,0,2.1,0,2.8c-1.8,0.1-3.6,0.1-5.4,0.2c-0.2,12.7-0.1,25.3,0,38c-1.4,0-2.8,0-4.2,0
	c0.1-11.7,0.1-23.4,0-35.1c0.4-2-2-3-2.1-4.8c0.8-1.3,2.3-2.5,2.1-4.2C111,133.7,110.8,128.1,110.8,122.5L110.8,122.5z M188.5,122.4
	c1.2,0,2.4,0.1,3.6,0.1c0,17.6,0.1,35.1,0,52.7c0.3,2.6-2.4,4.1-4.7,4.2c-2.9,0.2-7,0.5-8.6-2.6c-0.4-8.8-0.1-17.7-0.2-26.6
	c0.1-4.9,6.4-4,9.7-4.2C188.5,138.2,188.2,130.3,188.5,122.4L188.5,122.4z M182.7,149.5c-0.6,6.2-0.1,12.5-0.3,18.8
	c0.1,2.5-0.3,5.2,0.5,7.6c1.8,1,5.6,1.1,5.4-1.7c0.3-6,0-12,0.1-17.9c-0.1-2.1,0.3-4.4-0.6-6.4C186.3,148.7,184.3,149.6,182.7,149.5
	L182.7,149.5z M93.7,146.7c3-0.8,6.6-1,9.3,0.9c1.7,1,1.2,3.1,1.3,4.7c-0.1,7.7,0.1,15.4-0.1,23.1c0.2,3.6-4.1,4.5-6.9,4.3
	c-2.7,0-6.7-0.8-6.4-4.3c-0.2-7.7,0-15.4-0.1-23.1C90.8,150,91.1,147.1,93.7,146.7L93.7,146.7z M94.9,149.7
	c-0.4,8.7-0.3,17.5-0.1,26.3c1.8,0.5,3.7,0.5,5.5,0.2c0.7-8.3,0.4-16.6,0.3-24.8C100.4,148.4,96.8,149.4,94.9,149.7L94.9,149.7z
	 M121.7,150.3c-0.2-3,3.3-4.1,5.7-4.2c2.6-0.1,6.1,0,7.5,2.5c0.9,3.5,0.4,7.1,0.5,10.6c-0.2,2.3,0.4,4.9-1.1,6.9
	c-2.5,1.9-5.9,1.4-8.9,1.5c0,2.7-0.5,5.6,0.5,8.2c1.5,1.2,3.4,0.5,5.1,0.4c0.2-1.7,0.4-3.4,0.5-5.1c1.3,0,2.6,0,3.9,0
	c-0.1,2.9,0.5,7.3-3.3,8.1c-3.4,0.6-9.4,1.3-10.4-3C121.5,167.5,121.6,158.9,121.7,150.3z M125.7,150.6c-0.5,4.1-0.5,8.3-0.1,12.5
	c0.8,2.4,3.7,1.4,5.5,1.2c0.3-4.9,0.5-9.9,0-14.8C129.4,149.6,126.4,148.3,125.7,150.6L125.7,150.6z M142.3,147.2
	c3.1-1.5,7.1-1.5,10.1,0.1c2.5,1.5,1.5,4.7,1.7,7c-0.3,7.5,0.4,15.1-0.3,22.6c-1.7,3.4-6.3,2.4-9.4,2.7c0,5,0,10,0,15
	c-1.3,0-2.6,0-3.9,0c-0.1-13.8,0-27.5-0.1-41.3C140.5,151.2,140.1,148.3,142.3,147.2L142.3,147.2z M144.7,149.5
	c-0.6,6.2-0.1,12.5-0.3,18.8c0.1,2.5-0.3,5.2,0.5,7.6c1.7,1.1,5.6,1.1,5.4-1.7c0.1-7.6,0.2-15.2,0-22.8
	C150.2,148.4,146.6,149.4,144.7,149.5L144.7,149.5z M161.3,147.1c3.3-1.5,7.7-1.5,10.8,0.6c1.3,2.7,0.6,5.7,0.8,8.6
	c-0.2,6.9,0.4,13.9-0.3,20.8c-1.8,2.6-5.4,2.5-8.2,2.4c-2.3-0.1-5.2-1.5-4.9-4.2c0-4.9-0.4-9.8,0.3-14.6c1.7-3.4,6.3-2.3,9.5-2.7
	c-0.1-2.7,0.3-5.5-0.5-8.1c-1.5-0.9-3.4-0.5-5-0.4c-0.3,1.8-0.6,3.6-0.9,5.4c-1.1,0-2.2,0-3.3,0.1
	C159.5,152.3,158.5,148.7,161.3,147.1z M163.5,161.4c-0.7,4.9-0.6,9.9,0,14.9c1.8,0.3,3.6,0.2,5.4-0.3c0.3-4.8,0.3-9.6,0-14.4
	C167.2,161.1,165.4,161.1,163.5,161.4z M197.5,146c1.2,0.1,2.4,0.1,3.7,0.2c0,2.3-0.1,4.6,0.1,6.8c0.7,1.4,2.6,1,3.9,1.6
	c0,0.5,0,1.7,0.1,2.2c-1.3,0.1-2.6,0.3-4,0.4c-0.1,2.6-0.1,5.2-0.2,7.8c-1.2,0-2.3,0-3.5,0.1c-0.1-2.6-0.2-5.3-0.2-7.9
	c-1.3-0.1-2.6-0.2-3.8-0.3c0-0.7-0.1-2-0.1-2.7c1.3-0.1,2.6-0.2,3.9-0.3C197.4,151.3,197.4,148.6,197.5,146L197.5,146z M210.5,146.1
	c1.3,0,2.6,0,3.9,0c0,2.6,0.1,5.2,0.2,7.8c1.2,0.2,2.4,0.4,3.7,0.6c0,0.6,0,1.8,0,2.3c-1.2,0.1-2.5,0.3-3.7,0.4
	c-0.1,2.6-0.1,5.2-0.2,7.8c-1.2,0-2.5,0-3.7,0c-0.1-2.6-0.2-5.2-0.2-7.8c-1.2-0.1-2.5-0.3-3.7-0.4c0-0.6,0-1.8,0-2.3
	c1.2-0.2,2.4-0.4,3.7-0.6C210.3,151.3,210.4,148.7,210.5,146.1L210.5,146.1z"/>
<path id="path4" class="st1" d="M83.8,45.7c3.8-0.7,6.9,2.4,8.9,5.2c1.3,2,3.4,3.5,4.8,5.4c1.8,5.9,1.2,12.3-1.1,18
	c-1.2,3.3-4.5,5.9-8.1,5.9c-5-0.3-9.9-3.2-12.3-7.6c-1.9-5.3-3.3-11-1.7-16.6C75.2,51.2,78.5,46.2,83.8,45.7L83.8,45.7z M79.3,63.2
	c-2.5,2.7,1.5,8.1,4.7,6c2.2-1.4,2.3-4.1,1.9-6.3C83.8,62.6,81.1,61.5,79.3,63.2z M101.5,57.5c2.9-4.2,8.1-5.9,12.9-6.5
	c3.1-0.1,6.7,1.3,7.8,4.4c2.2,5.1,0.6,10.9-2.1,15.5c-1.6,3-4.7,4.8-7,7.1c-2.8-3.8-7-6-11.5-7.2C101.5,66.4,101,61.9,101.5,57.5z
	 M113.6,63.3c1.3,1.8,3.2,3,5.5,2.8c0.8-2.2,0.8-4.6,0.1-6.8C116.7,59.4,114.9,61.2,113.6,63.3L113.6,63.3z M17.9,110.7
	c-2-2.2-1.3-5.3,1.2-6.8C18.7,106.2,18.3,108.4,17.9,110.7z M22.2,111.5c-2.1-1.4-1.5-3.8-0.6-5.8C21.9,107.6,22.1,109.6,22.2,111.5
	z"/>
<path id="path6" class="st2" d="M50.2,61.1c6.3-2.4,13.2-0.6,18.9,2.4c1.7,0.8,1.5,3,2,4.5c-0.6,0.2-1.8,0.5-2.4,0.7
	c0-1.2,0.1-2.4,0.1-3.6c-4.6-0.5-9.2-1.8-13.7-2.8c-3.3-0.8-6.6,0.8-9.2,2.6c-2.1,1.2-2.2,3.9-2.8,6c-0.8-0.9-1.6-1.7-2.4-2.6
	c-1.8,3.2-3.2,7-6.6,8.8C36.6,69.7,42.5,63.1,50.2,61.1L50.2,61.1z"/>
<path id="path8" class="st3" d="M46,64.8c2.7-1.8,6-3.4,9.2-2.6c4.5,1,9.1,2.3,13.7,2.8c0,1.2-0.1,2.4-0.1,3.6
	c-2.3,0.8-4.8,1.1-7.2,0.6c-3.6-0.9-7,0.9-10.3,2.2c-3.5,1.5-7.3,2.6-10.6,4.6c-2.8,1.8-4,4.9-5,7.9c-1.4,0.2-2.9,0.5-4.3,0.7
	c0.3-2.6,0.6-5.7,2.7-7.5c3.4-1.9,4.8-5.6,6.6-8.8c0.8,0.8,1.6,1.7,2.4,2.6C43.8,68.7,43.9,66.1,46,64.8L46,64.8z"/>
<path id="path10" class="st4" d="M51.4,71.4c3.3-1.3,6.7-3,10.3-2.2c2.4,0.6,4.9,0.3,7.2-0.6c0.6-0.2,1.8-0.5,2.4-0.7
	c0.8,2.8,1.5,5.8,3.2,8.2c1.6,2,3.7,3.4,5.6,5.1c-0.3,0.8-0.8,2.2-1.1,3c-5.6-1.4-9.3-6.5-15-7.7C56.3,74,48.4,77.9,40.8,76
	C44.1,74,47.8,72.9,51.4,71.4L51.4,71.4z"/>
<path id="path12" class="st5" d="M100.6,74.5c4.4,1.2,9.1,3,11.2,7.4c-0.9,1.4-1.8,2.9-2.6,4.3c-5.9-0.7-10.8,3.6-16.3,4.9
	c-1,0.4-2.1,0.9-3.1,1.3c-2.8-1.3-6.3-3-8.8-0.3c-1-0.5-2-1-3-1.5c-0.2,1.5-0.4,3.1-0.6,4.6c-0.5,0-1.4-0.1-1.9-0.2
	c0.3-2,0.7-4.1,1-6.1c-0.7,0.1-2.1,0.3-2.8,0.4c-1,3.5-1,7.2-0.8,10.9c-2-3.5-1.2-7.6-1.6-11.4c-1.2,0.9-2.4,1.9-3.4,3.1
	c-5.8,0-11.6-0.4-17.4-0.7c2.3,1.4,4.6,2.7,6.9,4.1c-2.7-0.4-5.5-0.7-8-1.9c-1.1-1.4-1.3-4.9-3.8-3.4c-1.3,2.5-2.4,5.2-2.3,8.1
	c0.6,1.9,1.9,3.5,2.9,5.2c-0.6-0.1-1.7-0.3-2.3-0.4c-0.8-2.3-1.9-4.5-2.3-6.9c-0.4-2.6,1.2-5,1.6-7.5c-1.1-1.9-3,0-4.5,0.2
	c-1.5,0.4-3.5-0.2-4.5,1.3c-2.4,3.1-4.5,6.4-6.5,9.7c-1-5.3,2.1-10,3.1-15l0.7-0.1c1.4-0.2,2.9-0.5,4.3-0.7c1-3,2.2-6.1,5-7.9
	c7.6,1.9,15.5-2,23.1,0.7c5.7,1.2,9.4,6.3,15,7.7c0.3-0.8,0.8-2.2,1.1-3c4.4,2.2,9.9,3.5,14.5,0.8C97,80.1,98.5,77.1,100.6,74.5
	L100.6,74.5z"/>
<path id="path14" class="st6" d="M111.8,81.9c0.6,1.6,2.1,3.3,1.6,5.1c-4.2,3.8-10,4.8-15.4,5.9c-2,0.6-3.7-0.7-5.2-1.8
	c5.5-1.3,10.5-5.6,16.3-4.9C110,84.8,110.9,83.4,111.8,81.9L111.8,81.9z"/>
<path id="path16" class="st7" d="M34.2,90c1-1.5,3-0.9,4.5-1.3c-2.6,3.8-5.3,7.4-7.3,11.6c-0.7,1.7-2.8,1-4.2,1.3
	c0.1-0.5,0.4-1.4,0.5-1.9C29.7,96.4,31.7,93,34.2,90L34.2,90z"/>
<path id="path18" class="st8" d="M77.9,90.7c1,0.5,2,1,3,1.5c2.5-2.8,6-1,8.8,0.3c-3.7,2.5-8.1,3.1-12.4,2.8
	C77.5,93.8,77.7,92.2,77.9,90.7z"/>
<path id="path20" class="st9" d="M50.4,91.3C56.2,91.6,62,92,67.8,92c0.1,0.8,0.3,2.3,0.4,3.1c-3.4,1.4-7.5,2-10.9,0.3
	C55,94.1,52.7,92.7,50.4,91.3z M29.3,112.8c1.8,1.1,2,3.2,2.5,4.9c0.8,3.3,1.7,6.6,3.4,9.6c2.4,4.2,4.2,9,8.3,11.8
	c2.5,2.2,5.5,3.4,8.8,4c-6.6,0.3-11.6-4.7-15.2-9.6C33.3,127.2,29,120.5,29.3,112.8L29.3,112.8z M95,114.5c2.9,0.6,5.8,0.1,8.5-1
	C101.2,115.6,97.5,117.5,95,114.5z M52.1,120.8c2.6-1.1,6.1-1.9,8.3,0.5c3.1,3.2,4.5,7.7,5.1,12c0.4,4.4-3.2,7.8-7.1,9.1
	c1.8-1.9,4.7-3.3,5.1-6.2c0.8-4.5-1.1-9.1-3.2-13C58.8,120.1,54.9,121,52.1,120.8L52.1,120.8z"/>
<path id="path22" class="st10" d="M88.3,96.2c2.4,0.9,3.7,3,4.3,5.3C90.5,100.4,88.8,98.7,88.3,96.2z"/>
<path id="path24" class="st11" d="M53,103.2c1-1.5,2-2.9,3.2-4.2c0.1,1.4,0.1,2.8,0.2,4.2C55.5,103.2,53.8,103.2,53,103.2z"/>
<path id="path26" class="st12" d="M75.5,104.5c1.8-0.8,3.6-1.6,5.4-2.2c-1.8,2.3-3.9,4.5-5.5,7C75.4,107.7,75.4,106.1,75.5,104.5
	L75.5,104.5z"/>
<path id="path28" class="st13" d="M97.8,102.3c1.2-0.9,1.8-0.6,2,0.8C98.7,104,98,103.7,97.8,102.3z"/>
<path id="path30" class="st14" d="M93.6,103.4C96.6,101.9,93.6,106.7,93.6,103.4z"/>
<path id="path32" class="st15" d="M8.2,111.6c-1.6-4.3,3.4-8,7.2-8.1c-0.8,2.8-0.5,5.6,0.3,8.3C13.2,111.9,10.7,111.8,8.2,111.6z"/>
<path id="path34" class="st16" d="M39.4,106.4c0.5-0.8,1-1.5,1.5-2.3c0.7,2.2,1.4,4.4,2,6.5C41.6,109.4,39,108.6,39.4,106.4z"/>
<path id="path36" class="st17" d="M24.3,107.8c0-1.3,1-2.2,2.2-2.3c3.2-0.5,6.5-0.2,9.7,0c0,0.6,0.1,1.9,0.1,2.5
	C32.3,108,28.3,107.8,24.3,107.8z M25.2,109.4c4.5,0,9.2-0.2,13.5,1.4c-4.3,0.6-8.7,0.7-12.9,0.2C25.6,110.6,25.3,109.8,25.2,109.4
	L25.2,109.4z M46.1,110.3c9.1-0.6,18.4-0.1,27.5,0.6c-5,2.4-10.9,0.7-16.2,1.2C53.7,111.6,49,113.2,46.1,110.3z"/>
<path id="path38" class="st18" d="M43.3,105.2c4.5-0.6,8.6,2.4,13.1,1.4c5.5-1,11.2-0.6,16.7-0.1c0,0.6-0.1,1.7-0.1,2.3
	c-5.3-0.1-10.6,0.4-15.8-0.4c-4.4-0.9-8.8,0.1-13.2-0.5C43.8,107.2,43.5,105.9,43.3,105.2z"/>
<path id="path40" class="st19" d="M94.8,106.3c3.8-0.8,7.7-0.9,11.6-1c1.8-0.2,3.3,1,4.7,2c-5.3,2.4-11.2,0.2-16.7,0.5
	C94.5,107.5,94.7,106.7,94.8,106.3L94.8,106.3z M79.5,107.3c3-2.3,7-1.4,10.5-1.2C88.1,109.7,82.8,107.6,79.5,107.3z M79.7,109.5
	c4.9-0.8,9.8,0.5,14.6,0.4c4.6-0.1,9.3-0.5,13.9-0.4c0.1,0.6,0.4,1.7,0.5,2.3c-9.8-1.7-19.8-0.3-29.6-0.6
	C79.3,110.8,79.6,110,79.7,109.5z"/>
<path id="path42" class="st20" d="M114.9,105.2c2.5,0.3,5.1,0.8,7.6,1.1c0.2,0.8,0.5,2.4,0.6,3.2c-3.4,1.3-7,2.4-10.6,2.5
	C113.2,109.8,114.2,107.5,114.9,105.2z"/>
<path id="path44" class="st21" d="M76.5,110.5C79.8,110.7,74.9,113.5,76.5,110.5z"/>
</svg>
