<?xml version="1.0" encoding="utf-8"?>
<!-- Generator: Adobe Illustrator 21.0.2, SVG Export Plug-In . SVG Version: 6.00 Build 0)  -->
<svg version="1.1" id="Layer_1" xmlns="http://www.w3.org/2000/svg" xmlns:xlink="http://www.w3.org/1999/xlink" x="0px" y="0px"
	 viewBox="0 0 64 55.4" style="enable-background:new 0 0 64 55.4;" xml:space="preserve">
<style type="text/css">
	.st0{fill:#0B8874;}
	.st1{fill:#FFFFFF;}
	.st2{fill:#FF0016;}
</style>
<g>
	<path class="st0" d="M23.3,50.6c4.2-0.2,8.4-1.7,12-4.5c8-6,10.9-17,6.9-26.1C36.8,7.2,21.3,2.7,10,10.1c-8.8,5.7-12.4,17.3-8.3,27
		c0.7,1.6,1.5,3.1,2.5,4.5c2.2,3,3.7,6.3,4.3,10L9,54.8c0.1,0.5,0.6,0.7,1,0.5l3.6-2C16.6,51.7,19.9,50.8,23.3,50.6z"/>
	<path class="st1" d="M61.1,37.5c2.3-4.3,3.3-9.4,2.7-14.8c-1.3-11.5-10.5-21-22.1-22.5C25.6-1.9,12,10.9,12.6,26.8
		c0.5,12.3,10,22.7,22.1,24.4c2,0.3,4.1,0.3,6,0.1c4.3-0.4,8.6,0,12.6,1.6l3.6,1.4c0.5,0.2,1.1-0.2,1.1-0.7l0.1-4.8
		C58.2,44.9,59.3,41.1,61.1,37.5z"/>
	<g>
		<g>
			<g id="logo_18_" transform="translate(0 0)">
				<g>
					<path id="Path_241_18_" class="st2" d="M54.5,23.8c0.5-3-1.5-5.7-4.5-6.2c-1.6-0.3-3.2,0.2-4.4,1.3c-1.5-2.6-4.9-3.4-7.5-1.9
						c-1.4,0.8-2.3,2.2-2.6,3.8c-0.7,4.6,5.8,10.6,7.4,12c0.2,0.2,0.5,0.2,0.8,0.1C45.7,32,53.8,28.4,54.5,23.8z"/>
				</g>
			</g>
			<g id="logo_17_" transform="translate(0 0)">
				<g>
					<path id="Path_241_17_" class="st2" d="M35,30.1c-0.3-2-2.2-3.5-4.2-3.2c-1.1,0.2-2.1,0.8-2.6,1.7c-1.5-1.4-3.9-1.3-5.3,0.3
						c-0.7,0.8-1.1,1.9-0.9,3c0.5,3.2,6,5.8,7.3,6.3c0.2,0.1,0.4,0,0.5-0.1C30.9,37.3,35.5,33.3,35,30.1z"/>
				</g>
			</g>
		</g>
	</g>
</g>
</svg>
