<?xml version="1.0" encoding="utf-8"?>
<!-- Generator: Adobe Illustrator 19.2.0, SVG Export Plug-In . SVG Version: 6.00 Build 0)  -->
<svg version="1.1" id="Layer_1" xmlns="http://www.w3.org/2000/svg" xmlns:xlink="http://www.w3.org/1999/xlink" x="0px" y="0px"
	 viewBox="0 0 190.6 35.1" style="enable-background:new 0 0 190.6 35.1;" xml:space="preserve">
<style type="text/css">
	.st0{fill:#FFFFFF;}
</style>
<g>
	<path class="st0" d="M27.5,1.8c0.8,1.6,0.5,2.4-0.4,2.4c-0.9-0.1-1.5-1.4-3.9-1c-8.1,1.6-15.1,8.1-18.1,16
		c-1.1,2.7-0.4,6.7,1.7,7.6c2.3,1,6.3,0,8-1.2c3-2.3-0.4,3.5-4.2,5.1c-2.2,1-5.5,0.9-7.1-0.4c-1.4-1.1-5-3.5-2.8-11
		C3.2,10.4,12.5,3,22.5,0.1C23.9-0.3,26.7,0.2,27.5,1.8z"/>
	<path class="st0" d="M22,23.3c0.4,0,6.3-2.8,6.6-2.7c0.6,0.4,0.8,1.2,0.4,1.8c-0.6,0.7-1.6,1.9-0.5,1.2c0.9-0.6,8-3.2,9.5-3.7
		c1.5-0.5,0.2,1.4-1.8,2.6s-7.6,4.1-8.7,4.6s-3.5-0.1-2.8-2.2c-1.4,0.8-3,1.3-3.9,1.6c-0.9,0.3-3.6-0.6-3.2-3.2
		c0.4-2.6,4.9-5.3,6.1-5.6c1.3-0.3,3.4-0.4,4.4,0.8c0.3,0.3-0.1,0.9-0.6,0.7C27,19.3,22,22.1,22,23.3z"/>
	<path class="st0" d="M45.8,23.9c-0.7,0-2.5-0.6-2.3-1.6c0.1-1.1-0.6-1.3-1.4-0.9c-0.3,0.2-1,0.5-1.7,0.8c-0.8,1.4-1.3,2.4-1.6,3.5
		c-0.9,2.1,0.1,3.2-2.6,4.6c-1.1,0.6-2,0.7-2.4-0.4c-1-2.5,3.3-8.8,3.8-10.1c0.5-1.3,0.3-1.9,1.1-2.5c1.2-0.9,1.8-1.3,2.3-0.4
		c0.5,0.8,2.2,0,0.9,2.5c1.6-1.1,3.2-2.2,3.9-2.2c1.3,0,0.4,2.2,0.6,4C46.6,23,46.6,23.9,45.8,23.9z"/>
	<path class="st0" d="M60.4,23.3c-1.3,1.1-8.3,6.4-9.8,6.8c-1.5,0.4-3-0.9-2.8-3.2c0.2-2.1,1.9-6.2,3-7.5c1.1-1.3,1.3-1.3,1.6-1.3
		c0.7,0,2.3,1.7,2.1,2.3c0,0.6-0.3,0.7-1.1,1.1c-0.7,0.5-3.2,5.4-2.1,5.1s7.2-3.7,8.5-4.5C61.3,21.3,61.7,22.1,60.4,23.3z
		 M52.8,15.9c-0.5-0.9-0.9-2.5-0.3-2.7c0.7-0.2,2.1-0.6,2.3-0.6c0.7-0.1,1.2,1.2,1.7,1.8c0.5,0.6-0.2,0.8-0.9,1.3
		C55,16.2,53.2,16.8,52.8,15.9z"/>
	<path class="st0" d="M65.7,17c-0.2,0.3-1.7,2.1-3.6,7.5c3.2-2.3,7.4-7.4,9-7.3c1.7,0.1,2.4,1.3,1.5,3.3c-0.9,2.1-1.4,5.6-0.4,5.3
		c1-0.3,3.7-1.9,5-2.7c1.2-0.7,0.7,1.2-1.5,3.1c-2.2,2-3.7,3.5-5.7,3.2s-2.1-6.1-0.8-8.2c-0.5-0.3-3.8,4-6.1,6.5
		c-2.4,2.5-3.2,2.8-4.3,2.7c-1-0.1-1.8-3-1.2-4c0.6-1.1,1.1-1.3,2.3-4.4c1.1-2.9,2.2-5.7,2.4-6.3c0.3-0.6,1.3-0.9,2.7-0.2
		C65.5,15.8,66,16.6,65.7,17z"/>
	<path class="st0" d="M90.3,24.8c-1.2,0.7-8,4.3-10.7,4.9c-2.8,0.6-3.9-1.6-3.6-3.1c0.3-1.6,1.9-4.8,4-6.8c2-1.9,3.6-2.1,4.4-2
		c1.1,0.1,2.6,1.9,2.8,3.5c0.1,1.6-2.3,2.9-3.8,3.6c-1.5,0.7-2.8,1.7-3.9,0c-0.3,0.4-1,1.8,1.1,1.6c2-0.1,6.6-1.7,9.3-3.3
		C92.6,21.8,91.4,24.1,90.3,24.8z M81.3,23c0.7-0.2,2.3-0.9,2.5-1.9C82.5,21.6,82,22,81.3,23z"/>
	<path class="st0" d="M128.7,8.1c-0.7,2.1-2.3,5.7-4.2,9.6c2.6,0,2.8,1.1,1.4,1.9c-0.4,0.2-1.3,0.4-2.6,0.7
		c-2.1,4.4-4.1,8.4-4.7,9.9c-1.3,3-1.2,3.4-1,4.1c0.1,0.7-1.1,1.4-2.3,0.2s-1.4-3.2,0.7-7.2c0.7-1.4,1.8-3.6,3.1-6.3
		c-3,0.4-6,0.8-7.3,0.8c-0.9,0-1.7,0-2.4-0.2c-3.1,4.6-4.3,7.4-4.8,8.3c-0.5,1.2-0.2,2.7-1.2,2.5c-1.4-0.3-3.1-1.7-2.5-2.8
		c4.8-8.7,11.7-18.1,19.3-24.5c2.7-2.3,4.2-2.8,5.6-2.8C127.5,2.3,130.4,3.2,128.7,8.1z M125.5,5c-2.1,0-7.6,4.7-13.3,12.5l-1.3,1.8
		c2.2-0.2,6.2-0.7,9.5-1.2C122.3,13.6,124.4,8.4,125.5,5z"/>
	<path class="st0" d="M150.8,25.1c-1.5,1.3-6,4.5-6.9,4.9c-0.9,0.4-2.7,0.4-2.7-1.1c-0.4-0.5-0.5-1.2-0.3-1.9c0.2-0.7,0.6-1.9,1-3.1
		l0.7-2.1c-1.2,1.4-4.8,3.9-5.9,5.1c-1.1,1.1-1.1,1.6-2.2,1.6c-1.1,0-2.1-0.8-2.1-2c0-0.6,0.5-1.7,1-2.7c0.3-0.6,0.6-1.2,0.9-1.8
		c-1.6,1.6-5,4.9-5.9,5.8c-0.9,0.9-1,1.2-2,0.6c-1.1-0.6-0.9-2.2-1.2-2.5c-0.3-0.3,0.4-1.7,1.1-2.6c0.7-0.9,4.4-5.2,4.7-5.9
		c0.4-0.7,0.8-1.6,1.3-1.4c0.6,0.2,1,0.2,1.3,0.5c0.4,0.3,0.7,0.5,0.2,1.4c-0.3,0.4-0.9,1.5-1.6,2.6l-1.2,2c1.1-1.1,5-4.2,5.3-4.4
		c0.4-0.3,0.9-0.5,2.1,0.2c1.2,0.7,1.2,1.1,1,1.6l-0.9,1.6l-0.7,1.2c2.7-1.9,4.8-3.3,5.4-3.6c0.6-0.2,2.9,0.7,2.8,1.9
		c0,1.1-1.3,4.1-2,5.8c0,0.3,0.2,0.4,0.3,0.2c0.8-0.7,6.4-3.6,7.6-4.2C153.2,22.1,152.3,23.8,150.8,25.1z"/>
	<path class="st0" d="M164.1,23.3c-1.3,1.1-8.3,6.4-9.8,6.8c-1.5,0.4-3-0.9-2.8-3.2c0.2-2.1,2-6.2,3-7.5c1.1-1.3,1.3-1.3,1.6-1.3
		c0.7,0,2.3,1.7,2.1,2.3c0,0.6-0.3,0.7-1.1,1.1c-0.7,0.5-3.2,5.4-2.1,5.1c1.1-0.3,7.2-3.7,8.5-4.5C165,21.3,165.4,22.1,164.1,23.3z
		 M156.5,15.9c-0.5-0.9-0.9-2.5-0.3-2.7c0.7-0.2,2.1-0.6,2.3-0.6c0.7-0.1,1.2,1.2,1.7,1.8c0.5,0.6-0.2,0.8-0.9,1.3
		C158.7,16.2,156.9,16.8,156.5,15.9z"/>
	<path class="st0" d="M172.5,17.3c0.6,1.2,0.4,1.9-0.3,1.8c-0.6,0-0.5-1.4-2.2-0.3c-1.7,1-5,4.8-5.7,6.5c-0.6,1.7-0.1,3,2.8,2
		c3-0.9,8.9-4,12.6-6.6c0.7-0.5,1,0.1-0.2,1.6c-1.1,1.5-12.3,8-14.7,8.3c-1.8,0.3-3.4-1-4-2.4c-0.6-1.4-0.9-2.7,0-4.4
		c0.8-1.8,5.8-7.4,7.8-7.8C169.7,15.8,171.9,16.1,172.5,17.3z"/>
	<path class="st0" d="M189.8,23.3c-1.3,1.1-8.3,6.4-9.8,6.8c-1.5,0.4-3-0.9-2.8-3.2c0.2-2.1,1.9-6.2,3-7.5c1.1-1.3,1.3-1.3,1.6-1.3
		c0.7,0,2.3,1.7,2.1,2.3c0,0.6-0.3,0.7-1.1,1.1c-0.7,0.5-3.2,5.4-2.1,5.1s7.2-3.7,8.5-4.5C190.7,21.3,191.1,22.1,189.8,23.3z
		 M182.2,15.9c-0.5-0.9-0.9-2.5-0.3-2.7c0.7-0.2,2.1-0.6,2.3-0.6c0.7-0.1,1.2,1.2,1.7,1.8c0.5,0.6-0.2,0.8-0.9,1.3
		C184.4,16.2,182.6,16.8,182.2,15.9z"/>
</g>
</svg>
