<?xml version="1.0" encoding="utf-8"?>
<!-- Generator: Adobe Illustrator 19.2.0, SVG Export Plug-In . SVG Version: 6.00 Build 0)  -->
<svg version="1.1" id="Слой_1" xmlns="http://www.w3.org/2000/svg" xmlns:xlink="http://www.w3.org/1999/xlink" x="0px" y="0px"
	 viewBox="0 0 339 106.5" style="enable-background:new 0 0 339 106.5;" xml:space="preserve">
<style type="text/css">
	.st0{fill:#0069B3;}
</style>
<g>
	<path class="st0" d="M86.7,33.5h24.1l0.8,23.2h0.3l10-23.2h24l-8.6,42.4h-14.5l6.8-33.3h-0.4L114,75.9h-13.5l-1.3-33.3h-0.4
		L92,75.9H78.1L86.7,33.5z"/>
	<path class="st0" d="M160.4,76.7l1.3-6.8h-2.9c-11.2,0-15.2-6.3-15.2-12.6c0-9.3,7.5-20.2,22.3-20.2h2.5l1.3-6.4h16.2l-1.3,6.4h2.5
		c5.9,0,15.5,1.4,15.5,12.7c0,9.9-7.1,20.2-21.6,20.2h-3.2l-1.3,6.8H160.4z M167.2,46.7h-0.9c-4.3,0-7.2,4.5-7.2,8.5
		c0,2.5,1.5,4.9,4.4,4.9h1L167.2,46.7z M179.2,60.2h1c4.5,0,7.1-5,7.1-8.7c0-2.7-1.6-4.8-4.4-4.8h-0.9L179.2,60.2z"/>
	<path class="st0" d="M251.1,33.5L248.6,46h-14.3l-6.1,29.9H212L218,46h-14.3l2.5-12.5H251.1z"/>
	<path class="st0" d="M271,33.5l-4.9,24.2h0.2L282,33.5h19l-8.6,42.4h-16.2l4.8-23.8h-0.2l-15.6,23.8h-19l8.6-42.4H271z"/>
</g>
<polygon class="st0" points="313.5,91.9 315.8,79.9 338.6,86.7 "/>
<path class="st0" d="M308.1,82.6H73.3c-4.3,0-6.2,4.8-8,9.5c-0.6,1.6-1.6,4.2-2.4,5.2c-1.4-1.4-2.4-8-2.8-10.6l-0.2-1.4
	c-1.4-8.9-2.7-18.4-3.9-27.5C50.7,17.9,48.2,4,40.8,3.8C31.5,3.7,28.2,20.1,18.4,69l-1.3,6.4c-1.5,7.3-4.8,7.3-6.2,7.3H6.5l-1.1,6.3
	h5.5c3.7,0,10.2-1.6,12.3-12.3l1.3-6.4c6-30.1,11.8-58.5,15.8-60c3.5,3.7,6.9,29.4,9.5,48.4c1.2,9.2,2.5,18.6,3.9,27.6l0.2,1.4
	c1.1,7.2,2.5,16.2,9.2,16.2c4.3,0,6.2-4.8,8-9.5c0.7-1.8,1.8-4.7,2.6-5.5H307L308.1,82.6z"/>
</svg>
