<?xml version="1.0" encoding="utf-8"?>
<!-- Generator: Adobe Illustrator 19.2.0, SVG Export Plug-In . SVG Version: 6.00 Build 0)  -->
<svg version="1.1" id="Layer_1" xmlns="http://www.w3.org/2000/svg" xmlns:xlink="http://www.w3.org/1999/xlink" x="0px" y="0px"
	 viewBox="0 0 258.7 102" style="enable-background:new 0 0 258.7 102;" xml:space="preserve">
<style type="text/css">
	.st0{fill:#FF0000;}
</style>
<g>
	<path class="st0" d="M44.7,0.8H31.3c-13.2,0-24.3,10-24.3,29.5C6.9,42,12.4,50.6,22,54.8L4,87.4c-0.6,1.1,0,1.9,0.9,1.9h8.4
		c0.7,0,1.2-0.2,1.4-0.8l16.3-32h5.9v32c0,0.4,0.4,0.8,0.8,0.8h7.3c0.7,0,0.9-0.4,0.9-0.9V2C46,1.1,45.5,0.8,44.7,0.8z M36.9,48.9
		H32c-7.8,0-15.3-5.7-15.3-19.8c0-14.7,7.1-20.8,14.2-20.8h6V48.9z"/>
	<path d="M88.9,30.1h-7.3c-0.6,0-0.9,0.5-0.9,0.8v22.5H67.1V30.9c0-0.6-0.2-0.8-0.8-0.8H59c-0.6,0-0.9,0.4-0.9,0.8v57.3
		c0,0.6,0.2,0.9,0.8,0.9h7.4c0.5,0,0.8-0.4,0.8-0.9V60.9h13.5v27.4c0,0.6,0.4,0.9,0.9,0.9h7.3c0.6,0,0.8-0.5,0.8-0.9V30.9
		C89.7,30.5,89.4,30.1,88.9,30.1z"/>
	<path d="M255.4,85.5l-0.9-4c-0.1-0.4-0.2-0.5-0.6-0.5c-0.6,0-3.8,1.3-8.4,1.3c-8.9,0-13.3-8.6-13.3-22.3c0-12,3.6-24,9.8-24
		c1.6,0,3.6,0.5,6.8,3.4c0.4,0.4,0.6,0.5,0.9,0.5c0.4,0,0.7-0.2,1.1-0.8l3.2-5.2c0.2-0.4,0.4-0.7,0.4-1.1c0-0.5-0.5-0.8-1.2-1.2
		c-4.8-2.5-8.1-2.9-10.9-2.9c-11.1,0-19.6,13.2-19.6,33.9c0,17.8,8.2,28.1,20,28.1c4.9,0,10.2-2.4,12.4-3.9
		C255.4,86.4,255.5,85.9,255.4,85.5z"/>
	<path d="M204.3,56.8l14.1-25.8c0.2-0.4,0.1-0.8-0.4-0.8h-6.9c-2,0-2.7,0.7-3.4,2.2l-10.6,22.1c-0.6,1.3-1.2,2.1-1.8,2.5v-26
		c0-0.5-0.2-0.8-0.7-0.8H187c-0.4,0-0.7,0.4-0.7,0.8v57.5c0,0.4,0.2,0.8,0.7,0.8h7.6c0.5,0,0.7-0.4,0.7-0.8V58.8
		c0.4,0.2,0.6,0.6,0.8,1.1l13.4,27.6c0.7,1.4,1.8,1.8,3.3,1.8h7.5c0.5,0,0.6-0.5,0.4-0.8L204.3,56.8z"/>
	<path d="M136.9,81.8h-1.4c-1.8,0-2.2-0.7-2.2-2.1V30.9c0-0.6-0.2-0.8-0.7-0.8H109c-0.6,0-0.9,0.4-0.9,0.8v4.2
		c0,14.3-0.8,32.7-8.4,46.6h-2.6c-0.7,0-0.9,0.4-0.9,0.9c0,0,0,14.2,0,17.2c0,0.6,0.5,0.8,0.8,0.8h5.6c1.3,0,1.8-0.9,1.8-1.8v-9.8
		h25.2V100c0,0.5,0.3,0.8,0.8,0.8h6c0.7,0,1.4-0.6,1.4-1.8V82.7C137.8,82.2,137.5,81.8,136.9,81.8z M124.2,81.8h-17.1
		c6-10.3,8.4-21.8,9.2-36c0.2-3.1,0.4-6.3,0.4-8.3h7.5V81.8z"/>
	<path d="M160.9,28.7c-12.7,0-18.3,16-18.3,33.5c0,17.8,8,28.4,19.8,28.4c5.8,0,10.8-2.2,13.4-3.9c0.5-0.2,0.6-0.6,0.5-1.1l-0.9-4
		c-0.1-0.5-0.4-0.7-0.9-0.7c-0.5,0-3.9,1.3-8.7,1.3c-9.1,0-13.3-7.9-13.3-18.3c0-1.4,0-2.8,0-2.8s4.6,0.6,7.3,0.6h17.2v-5
		C176.8,38.5,170.3,28.7,160.9,28.7z M159.6,54.3c-2.7,0-6.9,0.5-6.9,0.5s0-1.8,0.2-3.7c1.1-10,3.5-15.1,7.6-15.1
		c3.8,0,6.1,5.2,6.7,14.3c0.1,1.9,0.1,4,0.1,4H159.6z"/>
</g>
</svg>
