<?xml version="1.0" standalone="no"?>
<!DOCTYPE svg PUBLIC "-//W3C//DTD SVG 1.1//EN" "http://www.w3.org/Graphics/SVG/1.1/DTD/svg11.dtd" >
<svg xmlns="http://www.w3.org/2000/svg" xmlns:xlink="http://www.w3.org/1999/xlink" version="1.1">
<metadata>
Created by FontForge 20161003 at Sun Mar  3 14:26:24 2019
 By www-data
Copyright \(c\) 2018 by Nasir Udin. All rights reserved.
</metadata>
<defs>
<font id="Arkipelago" horiz-adv-x="406" >
  <font-face 
    font-family="Arkipelago"
    font-weight="400"
    font-stretch="normal"
    units-per-em="1000"
    panose-1="0 0 0 0 0 0 0 0 0 0"
    ascent="750"
    descent="-250"
    x-height="286"
    cap-height="752"
    bbox="-381.215 -593.538 1361.67 989.25"
    underline-thickness="50"
    underline-position="-100"
    unicode-range="U+000D-FB00"
  />
<missing-glyph horiz-adv-x="696" 
d="M663 439c13 -73 4 -153 -23 -225c-23 -53 -51 -92 -86 -123c7 -15 9 -27 6 -34c-8 -25 -61 -50 -77 -21l-2 3c-13 -8 -26 -15 -39 -22c-43 -16 -125 -30 -190 -19c-114 16 -231 88 -244 248c-8 98 49 220 157 294c-1 0 -1 1 -2 1c-9 7 -14 20 -2 31c8 7 21 7 44 -8
c34 18 72 31 114 39c243 45 328 -81 344 -164zM343 508c-21 -6 -42 -13 -61 -21c23 -29 51 -67 80 -107c35 39 64 68 79 83c13 12 26 27 41 40c-40 13 -88 17 -139 5zM289 366l-61 90c-67 -47 -109 -117 -106 -206c1 -40 14 -75 37 -106c4 7 8 12 13 19
c21 31 81 101 142 165zM362 75c35 7 62 16 85 27c-24 44 -59 105 -95 165c-12 -11 -23 -23 -34 -34c-63 -64 -99 -102 -120 -126c41 -29 96 -43 164 -32zM588 357c3 11 1 27 -2 42c-1 20 -11 39 -26 56c-39 -32 -95 -83 -154 -136c39 -55 70 -101 83 -121
c9 -15 18 -29 29 -44c66 74 68 184 70 203z" />
    <glyph glyph-name="l_l" unicode="ll" horiz-adv-x="400" 
d="M359 718c18 5 71 -31 57 -61c-13 -30 -170 -285 -270 -488c-99 -206 -105 -267 -108 -283c-1 -15 -6 -33 -27 -30c-22 3 -59 40 -30 135c28 95 216 454 255 529c40 77 89 187 123 198zM657 705c3 -12 -10 -11 -18 -22c-32 -42 -117 -141 -256 -416
c-141 -274 -150 -343 -161 -376s-36 -51 -57 -23c-21 29 -13 87 18 155c32 67 164 405 248 541c84 137 126 195 150 191c24 -5 76 -38 76 -50z" />
    <glyph glyph-name="t_t" unicode="tt" horiz-adv-x="430" 
d="M622 641c1 -12 -11 -11 -18 -22c-24 -34 -84 -101 -175 -264c29 3 55 4 74 7c65 8 77 4 74 -4c-2 -7 -36 -57 -104 -68l-88 -15c-12 -23 -25 -45 -38 -72c-139 -275 -163 -381 -174 -414s-36 -51 -57 -23c-21 29 -13 87 18 155c16 39 85 208 141 337
c-21 -3 -37 -5 -48 -5c-15 -1 -23 11 -30 27l-27 -5c-12 -23 -25 -45 -38 -72c-138 -274 -135 -307 -146 -340s-36 -51 -57 -23c-21 29 -13 87 18 155c17 39 56 134 113 263c-21 -3 -37 -5 -48 -5c-34 -3 -48 75 -22 85c25 11 21 5 55 8c8 0 29 1 56 2c28 60 56 113 79 152
c84 138 112 180 136 177c25 -6 74 -38 77 -50c1 -12 -11 -11 -18 -22c-24 -35 -70 -88 -161 -250c29 3 55 4 74 7c15 3 27 3 36 4c27 53 50 99 71 134c84 137 126 195 150 191c25 -6 74 -38 77 -50z" />
    <glyph glyph-name="b_b" unicode="bb" horiz-adv-x="942" 
d="M367 320c61 0 90 -47 79 -110c-11 -61 -67 -193 -206 -214c-89 -16 -138 9 -140 23c-40 -56 -69 -111 -90 -108c-30 3 -50 84 -34 113c16 28 195 403 239 483c45 79 82 163 87 178c7 15 20 26 57 5c15 -8 28 -31 21 -42c-4 -12 -187 -348 -239 -501
c67 86 168 173 226 173zM126 30c99 -12 228 158 200 178c-15 10 -106 -49 -172 -120c-17 -19 -32 -39 -47 -59c4 1 11 2 19 1zM838 320c61 0 90 -47 79 -110c-11 -61 -67 -193 -206 -214c-88 -13 -134 5 -139 21c-53 -77 -101 -171 -123 -168c-30 3 -50 84 -34 113
c16 28 246 498 290 578c45 79 91 181 96 196c7 15 20 26 57 5c15 -8 28 -31 21 -42c-6 -10 -215 -400 -267 -552c67 86 168 173 226 173zM597 30c99 -12 228 158 200 178c-15 10 -106 -49 -172 -120c-14 -15 -29 -35 -45 -59c4 1 10 2 17 1z" />
    <glyph glyph-name="o_o" unicode="oo" horiz-adv-x="518" 
d="M415 304c16 -13 100 -53 79 -144s-122 -168 -187 -152c-70 11 -65 119 -39 160c27 43 85 98 121 106l11 4c-2 4 -2 40 15 26zM156 286c16 -13 101 -72 79 -153s-122 -140 -187 -126c-65 13 -66 95 -39 133s85 112 121 120l11 3c-3 6 -3 35 15 23zM341 91
c8 -14 62 14 78 66c3 12 11 20 -5 52c-30 -30 -102 -84 -73 -118zM91 104c-2 -12 38 5 57 32c7 9 11 28 11 48c-29 -26 -65 -70 -68 -80z" />
    <glyph glyph-name="e_e" unicode="ee" horiz-adv-x="710" 
d="M704 153c69 40 39 -19 10 -38c-30 -18 -204 -131 -274 -146c-72 -16 -101 60 -93 100c2 13 8 29 17 49c-3 -1 -4 -2 -5 -3c-30 -19 -204 -110 -274 -126c-72 -16 -101 40 -93 80s48 123 102 174c51 48 93 55 114 52c28 -3 67 -49 72 -90c3 -41 -58 -74 -98 -93
c-39 -18 -73 -43 -99 -1c-8 -11 -25 -45 27 -42c51 3 169 43 239 84l50 29c15 23 31 44 50 61c51 48 93 55 114 52c28 -3 67 -49 72 -90c3 -41 -58 -74 -98 -93c-39 -18 -73 -43 -99 -1c-8 -11 -25 -65 27 -62c51 3 169 64 239 104zM546 211c-31 -12 -43 -24 -63 -48
c18 5 58 23 63 48zM191 211c-31 -12 -43 -24 -63 -48c18 5 58 23 63 48z" />
    <glyph glyph-name="p_p" unicode="pp" horiz-adv-x="1005" 
d="M1032 160c26 -16 -43 -28 -78 -42c-25 -11 -77 -26 -117 -39c-24 -24 -52 -46 -83 -63c-88 -51 -129 -80 -161 -27c-32 54 69 131 195 161c28 20 35 57 18 73c-6 6 -70 -3 -209 -156l-14 -15c-40 -99 -166 -355 -178 -391c-15 -43 -18 -65 -41 -58c-25 6 -59 43 -17 114
c32 53 143 326 187 435l-12 -4c-24 -11 -115 -45 -161 -69c-24 -24 -52 -46 -83 -63c-88 -51 -129 -80 -161 -27c-32 54 69 131 195 161c28 20 35 57 18 73c-6 6 -70 -3 -209 -156l-14 -15c-40 -100 -182 -395 -194 -431c-15 -43 -18 -65 -41 -58c-24 5 -40 70 -17 114
c33 67 217 512 233 544c13 32 35 57 47 60c32 5 52 -24 64 -36c2 -2 1 -8 -3 -18c41 32 63 62 125 70c84 11 116 -23 113 -88c0 -12 -4 -27 -13 -46c23 5 84 20 129 28c1 3 1 4 2 5c13 32 35 57 47 60c32 5 52 -24 64 -36c2 -2 1 -8 -3 -18c40 32 83 79 137 95
c81 24 116 -23 113 -88c0 -12 -4 -27 -13 -46c34 8 112 10 135 -3z" />
    <glyph glyph-name="f_f" unicode="ff" horiz-adv-x="634" 
d="M581 449c30 7 114 -30 98 -82c-5 -16 -50 -19 -82 -54c-40 -48 -101 -131 -139 -195c41 3 81 6 108 10c64 9 76 3 73 -5c-2 -6 -34 -56 -103 -67c-32 -7 -78 -16 -123 -23c-75 -146 -134 -303 -171 -391c-34 -82 -6 -109 -43 -120c-41 -14 -63 35 -58 88
c8 64 92 263 162 407c-5 0 -10 -1 -13 -1c-13 0 -22 10 -29 23c-7 -3 -14 -4 -22 -5c-32 -7 -78 -14 -123 -21c-75 -146 -134 -303 -171 -391c-34 -82 22 -96 -13 -120c-35 -23 -96 3 -88 88c5 64 93 263 162 407c-5 0 -10 -1 -13 -1c-35 0 -48 75 -23 86c26 10 21 7 56 7
c4 0 13 1 25 1l8 16c61 128 149 280 204 296c30 7 114 -30 98 -82c-5 -16 -50 -19 -82 -54c-41 -47 -81 -105 -118 -170c41 3 81 7 108 10c14 3 67 6 79 6l8 16c61 128 170 305 225 321z" />
    <glyph glyph-name="m_m" unicode="mm" horiz-adv-x="1326" 
d="M1347 159c31 15 9 -28 -30 -62s-153 -115 -177 -125c-22 -11 -69 -9 -69 28c-10 13 -13 30 -8 49c5 17 15 50 26 79l18 53c-32 -35 -122 -101 -151 -130s-29 -42 -56 -42c-28 1 -54 21 -53 52c0 15 20 55 40 90c12 21 25 43 40 66c-44 -40 -204 -211 -230 -232
c-24 -24 -25 -32 -52 -16c-29 16 -24 57 -32 65s9 43 29 66l3 4c-70 -54 -147 -114 -163 -122c-22 -11 -69 -9 -69 28c-10 13 -13 30 -8 49c5 17 15 50 26 79l18 53c-32 -35 -122 -101 -151 -130s-29 -42 -56 -42c-28 1 -54 21 -53 52c0 15 13 44 25 69c7 15 15 30 24 46
c-42 -40 -127 -126 -151 -148c-24 -24 -25 -32 -52 -16c-29 16 -24 57 -32 65s9 43 29 66c19 24 112 133 120 152c9 19 20 41 33 36c15 -4 26 -6 33 -13c11 -7 17 -14 6 -35c-7 -11 -23 -39 -40 -66l-32 -51c27 27 127 107 136 112c11 7 22 14 54 -5s32 -29 25 -41l-23 -40
l-17 -30c69 49 124 85 139 92c15 5 74 -17 71 -48c0 -28 -33 -104 -52 -149c1 -8 4 -10 8 -6c16 16 184 125 251 165c9 12 15 21 18 26c9 19 20 41 33 36c15 -4 26 -6 33 -13c11 -7 17 -14 6 -35c-7 -11 -23 -39 -40 -66l-32 -51c28 28 198 177 208 184c11 7 22 14 54 -5
s32 -29 25 -41l-35 -54c-9 -13 -18 -28 -29 -45c69 49 124 85 139 92c15 5 74 -17 71 -48c0 -28 -33 -104 -52 -149c1 -8 4 -10 8 -6c21 17 165 92 196 108z" />
    <glyph glyph-name="n_n" unicode="nn" horiz-adv-x="992" 
d="M995 162c31 18 18 -30 -38 -80c-56 -51 -96 -90 -146 -82s-53 156 -21 209c-16 8 -117 -140 -179 -206c-61 -64 -83 -71 -110 -68c-25 3 -47 77 -31 102c11 22 22 31 43 76c-56 -51 -138 -121 -188 -113s-53 156 -21 209c-14 8 -98 -102 -157 -167
c-61 -64 -83 -71 -110 -68c-25 3 -47 77 -31 102c16 27 28 34 58 113l62 161c7 15 34 24 69 5c15 -8 26 -28 19 -39c-6 -8 -44 -53 -92 -192c81 59 189 190 231 187c43 -3 61 -33 38 -84c-24 -53 -35 -143 -9 -135c25 8 120 69 160 95l48 124c7 15 34 24 69 5
c15 -8 26 -28 19 -39c-6 -8 -44 -53 -92 -192c79 60 211 230 253 226c43 -3 61 -33 38 -84c-24 -53 -35 -143 -9 -135s96 49 127 70z" />
    <glyph glyph-name="s_s" unicode="ss" horiz-adv-x="522" 
d="M481 251c74 37 135 33 108 19c-39 -18 -123 -75 -181 -120c1 -9 1 -17 4 -26c12 -63 -1 -129 -38 -160c-35 -29 -81 -26 -106 -1c-11 9 -19 25 -27 32c-8 8 -1 56 15 86c15 27 43 53 82 82l-11 35c-8 27 -8 52 -3 73c-58 -42 -136 -103 -176 -130c1 -8 1 -16 4 -24
c12 -57 1 -112 -36 -140c-35 -27 -81 -24 -106 -1c-11 8 -19 23 -27 30c-8 8 -4 43 13 71c15 24 43 49 82 76l-11 32c-19 57 8 105 33 130c38 38 103 36 120 28c16 -8 17 -31 10 -35c-5 -5 -8 -5 -17 -5c-25 0 -45 -18 -60 -53c-7 -15 -10 -35 -10 -58c27 16 67 43 104 63
c29 16 60 29 85 40c8 18 17 32 28 43c38 41 103 39 120 31c16 -8 9 -41 -7 -44c-27 -4 -49 -12 -64 -49c-7 -17 -6 -46 -6 -71c27 17 55 34 78 46zM91 37c5 16 0 36 -3 63l-5 -4c-50 -39 -49 -69 -49 -80c1 -5 4 -10 9 -14c16 0 40 10 48 35zM349 29c5 17 2 48 -1 77l-5 -5
c-49 -41 -51 -83 -51 -95c1 -6 4 -11 9 -15c16 0 40 11 48 38z" />
    <glyph glyph-name="r_r" unicode="rr" horiz-adv-x="685" 
d="M659 182c5 -47 4 -70 -15 -70s-65 4 -62 40c0 26 2 71 -36 52l-55 -39c-21 -36 -37 -90 -45 -117c-21 -53 -21 -81 -64 -100c-29 -13 -50 -17 -61 11c-19 46 44 162 81 233c-35 -40 -83 -91 -115 -99c-44 -13 -46 58 -46 79c0 3 -1 6 0 9c3 27 -16 34 -37 23
c-7 -4 -25 -12 -44 -21c-20 -36 -33 -62 -41 -89c-22 -54 2 -82 -67 -119c-28 -15 -50 -17 -61 11c-25 63 84 226 97 258c14 33 7 48 29 65c32 23 45 33 60 10c13 -21 57 -1 23 -64c40 28 81 56 100 56c33 0 10 -57 15 -102c1 -11 2 -19 2 -27c1 -11 2 -20 6 -23
c24 11 87 66 108 87c11 32 7 47 28 63c32 23 45 33 60 10c13 -20 47 -18 12 -82c40 28 76 50 95 50c33 0 28 -60 33 -105z" />
    <glyph glyph-name="d_d" unicode="dd" horiz-adv-x="820" 
d="M938 613c-5 -10 -147 -230 -199 -382c-11 -29 -23 -63 -38 -95c40 16 98 39 122 53c35 19 -19 -58 -62 -96c-44 -39 -92 -71 -121 -67c-28 4 -48 22 -52 38c-3 8 -5 21 -6 32l-2 20c-17 -17 -75 -61 -118 -56c-40 5 -45 39 -50 46c-3 4 -3 16 1 32
c-16 -16 -168 -150 -196 -146s-48 22 -52 38c-3 8 1 35 6 59l10 47c-17 -17 -77 -64 -119 -59c-41 7 -53 14 -60 29c-6 9 -2 53 39 97c42 44 129 99 183 113c21 5 37 -1 48 -12l76 138c45 80 82 164 87 179c7 15 20 25 57 4c15 -8 28 -31 21 -42c-5 -11 -130 -199 -184 -352
l-51 -129c33 14 134 86 180 108c43 43 125 95 176 106c21 5 37 -1 48 -12l91 168c45 80 82 164 87 179c7 15 20 25 57 4c15 -8 28 -31 21 -42zM628 202l22 41l-22 -6c-29 -10 -104 -82 -109 -85c20 7 63 16 99 43zM224 212l16 31l-22 -6c-29 -10 -104 -82 -109 -85
c11 3 38 17 65 32c15 8 32 17 50 28z" />
    <glyph glyph-name=".notdef" horiz-adv-x="696" 
d="M663 439c13 -73 4 -153 -23 -225c-23 -53 -51 -92 -86 -123c7 -15 9 -27 6 -34c-8 -25 -61 -50 -77 -21l-2 3c-13 -8 -26 -15 -39 -22c-43 -16 -125 -30 -190 -19c-114 16 -231 88 -244 248c-8 98 49 220 157 294c-1 0 -1 1 -2 1c-9 7 -14 20 -2 31c8 7 21 7 44 -8
c34 18 72 31 114 39c243 45 328 -81 344 -164zM343 508c-21 -6 -42 -13 -61 -21c23 -29 51 -67 80 -107c35 39 64 68 79 83c13 12 26 27 41 40c-40 13 -88 17 -139 5zM289 366l-61 90c-67 -47 -109 -117 -106 -206c1 -40 14 -75 37 -106c4 7 8 12 13 19
c21 31 81 101 142 165zM362 75c35 7 62 16 85 27c-24 44 -59 105 -95 165c-12 -11 -23 -23 -34 -34c-63 -64 -99 -102 -120 -126c41 -29 96 -43 164 -32zM588 357c3 11 1 27 -2 42c-1 20 -11 39 -26 56c-39 -32 -95 -83 -154 -136c39 -55 70 -101 83 -121
c9 -15 18 -29 29 -44c66 74 68 184 70 203z" />
    <glyph glyph-name="NULL" horiz-adv-x="0" 
 />
    <glyph glyph-name="NULL" horiz-adv-x="0" 
 />
    <glyph glyph-name="CR" unicode="&#xd;" horiz-adv-x="331" 
 />
    <glyph glyph-name="space" unicode=" " horiz-adv-x="331" 
 />
    <glyph glyph-name="e" unicode="e" horiz-adv-x="355" 
d="M349 153c69 40 39 -19 10 -38c-30 -19 -204 -110 -274 -126c-72 -16 -101 40 -93 80s48 123 102 174c51 48 93 55 114 52c28 -3 67 -49 72 -90c3 -41 -58 -74 -98 -93c-39 -18 -73 -43 -99 -1c-8 -11 -25 -45 27 -42c51 3 169 43 239 84zM191 211
c-31 -12 -43 -24 -63 -48c18 5 58 23 63 48z" />
    <glyph glyph-name="f" unicode="f" horiz-adv-x="316" 
d="M269 106c64 9 76 3 73 -5c-2 -6 -34 -56 -103 -67c-32 -7 -78 -14 -123 -21c-75 -146 -134 -303 -171 -391c-34 -82 22 -96 -13 -120c-35 -23 -96 3 -88 88c5 64 93 263 162 407c-5 0 -10 -1 -13 -1c-35 0 -48 75 -23 86c26 10 21 7 56 7c4 0 13 1 25 1l8 16
c61 128 149 280 204 296c30 7 114 -30 98 -82c-5 -16 -50 -19 -82 -54c-41 -47 -81 -105 -118 -170c41 3 81 6 108 10z" />
    <glyph glyph-name="g" unicode="g" horiz-adv-x="438" 
d="M346 122l41 9c35 4 22 -20 -38 -41c-5 -1 -11 -3 -16 -6c-23 -64 -48 -132 -75 -177c-96 -164 -260 -212 -335 -228c-55 -13 -112 55 -81 146c26 78 178 203 422 275c19 53 28 96 33 116c1 4 2 7 2 11c-71 -49 -137 -85 -173 -104c-42 -22 -87 26 -82 53
c5 29 92 92 132 116c36 22 76 9 93 6c25 -5 8 -24 -2 -27c-32 -13 -120 -83 -75 -67c40 16 94 63 116 82c3 15 7 20 11 17c17 -8 65 -19 62 -55c-3 -16 -16 -66 -35 -126zM186 -73c24 40 44 82 60 122c-65 -28 -143 -66 -215 -113c-118 -78 -164 -188 -124 -185
s208 60 279 176z" />
    <glyph glyph-name="h" unicode="h" horiz-adv-x="499" 
d="M308 652c15 -8 28 -31 21 -42c-7 -10 -204 -354 -257 -507c72 85 223 180 271 177c47 -3 67 -36 42 -93c-27 -57 -36 -84 -5 -75c29 8 106 54 140 77c34 21 19 -33 -42 -89c-62 -56 -106 -98 -161 -90s-63 99 -28 158c-15 10 -102 -40 -168 -111
c-67 -72 -110 -119 -138 -116c-30 3 -51 84 -35 113s172 335 216 415c45 80 82 164 87 179c7 15 20 25 57 4z" />
    <glyph glyph-name="i" unicode="i" horiz-adv-x="253" 
d="M320 185c35 21 45 0 12 -30c-33 -29 -214 -165 -252 -174c-38 -11 -77 24 -72 81c5 54 50 160 77 192c27 33 34 33 42 33c19 0 58 -43 55 -59c-1 -16 -8 -17 -27 -28c-17 -13 -83 -139 -54 -131s185 95 219 116zM208 350c-16 -13 -61 -30 -72 -6c-13 23 -23 64 -8 69
c17 6 54 16 59 16c17 3 30 -30 43 -45c12 -15 -6 -21 -22 -34z" />
    <glyph glyph-name="j" unicode="j" horiz-adv-x="237" 
d="M148 347c17 0 94 -8 81 -51c-8 -24 -59 -138 -110 -251c-7 -22 -51 -94 -62 -110c-103 -177 -192 -235 -287 -256c-72 -16 -186 77 -141 189c73 190 362 258 225 153c-138 -103 -176 -257 -122 -257c86 0 173 65 296 319c43 97 63 164 76 193c13 26 27 71 44 71zM275 523
c24 -27 29 -70 10 -89s-49 -26 -70 -17c-21 11 -21 31 -28 47c-5 16 -28 52 -11 59c31 11 75 24 99 0z" />
    <glyph glyph-name="k" unicode="k" horiz-adv-x="342" 
d="M368 342c47 -3 -32 -91 -51 -88c-17 0 -90 -35 -154 -77c7 -24 12 -54 24 -87s41 -58 80 -47c25 7 60 28 87 45c27 16 16 -31 -32 -73c-46 -43 -67 -49 -97 -49c-59 0 -124 107 -124 160c-9 -9 -17 -19 -29 -26c-37 -88 -61 -144 -84 -141c-28 3 -40 74 -24 103
c16 28 151 313 219 445c41 81 54 145 61 160s31 24 70 3c15 -8 28 -31 21 -42c-7 -7 -154 -258 -218 -417c89 65 205 134 251 131z" />
    <glyph glyph-name="l" unicode="l" horiz-adv-x="218" 
d="M457 683c-32 -42 -117 -141 -256 -416c-141 -274 -150 -343 -161 -376s-36 -51 -57 -22c-21 28 -13 86 18 154c28 68 165 406 248 541c84 137 126 195 150 191c24 -5 76 -38 76 -50c3 -12 -10 -11 -18 -22z" />
    <glyph glyph-name="m" unicode="m" horiz-adv-x="668" 
d="M689 169c31 15 9 -28 -30 -62s-153 -115 -177 -125c-22 -11 -69 -9 -69 28c-10 13 -13 30 -8 49c5 17 15 50 26 79l18 53c-32 -35 -122 -101 -151 -130s-29 -42 -56 -42c-28 1 -54 21 -53 52c0 15 13 44 25 69c7 15 15 30 24 46c-42 -40 -127 -126 -151 -148
c-24 -24 -25 -32 -52 -16c-29 16 -24 57 -32 65s9 43 29 66c19 24 112 133 120 152c9 19 20 41 33 36c15 -4 26 -6 33 -13c11 -7 17 -14 6 -35c-7 -11 -23 -39 -40 -66l-32 -51c27 27 127 107 136 112c11 7 22 14 54 -5s32 -29 25 -41l-23 -40l-17 -30c69 49 124 85 139 92
c15 5 74 -17 71 -48c0 -28 -33 -104 -52 -149c1 -8 4 -10 8 -6c21 17 165 92 196 108z" />
    <glyph glyph-name="n" unicode="n" horiz-adv-x="506" 
d="M195 355c15 -8 26 -28 19 -39c-6 -8 -44 -53 -92 -192c81 59 189 190 231 187c43 -3 61 -33 38 -84c-24 -53 -35 -143 -9 -135s96 49 127 70c31 18 18 -30 -38 -80c-56 -51 -96 -90 -146 -82s-53 156 -21 209c-14 8 -98 -102 -157 -167c-61 -64 -83 -71 -110 -68
c-25 3 -47 77 -31 102c16 27 28 34 58 113c29 74 56 147 62 161c7 15 34 24 69 5z" />
    <glyph glyph-name="o" unicode="o" horiz-adv-x="244" 
d="M156 286c16 -13 101 -72 79 -153s-122 -140 -187 -126c-65 13 -66 95 -39 133s85 112 121 120l11 3c-3 5 -6 9 -11 12c-32 26 10 22 26 11zM91 104c-2 -12 38 5 57 32c7 9 11 28 11 48c-29 -26 -65 -70 -68 -80z" />
    <glyph glyph-name="p" unicode="p" horiz-adv-x="529" 
d="M556 160c26 -16 -43 -28 -78 -42c-25 -11 -77 -26 -117 -39c-24 -24 -52 -46 -83 -63c-88 -51 -129 -80 -161 -27c-32 54 69 131 195 161c28 20 35 57 18 73c-6 6 -70 -3 -209 -156c-5 -7 -10 -11 -14 -15c-40 -100 -182 -395 -194 -431c-15 -43 -18 -65 -41 -58
c-24 5 -40 70 -17 114c33 67 217 512 233 544c13 32 35 57 47 60c32 5 52 -24 64 -36c2 -2 1 -8 -3 -18c41 32 63 62 125 70c84 11 116 -23 113 -88c0 -12 -4 -27 -13 -46c34 8 112 10 135 -3z" />
    <glyph glyph-name="q" unicode="q" horiz-adv-x="375" 
d="M368 276c10 -10 -41 -88 -70 -178c-28 -91 -139 -367 -147 -400c-11 -39 -13 -59 -34 -55c-21 3 -40 60 -22 102c20 45 103 287 147 419c-76 -52 -147 -91 -187 -110c-45 -24 -100 27 -92 60s101 104 149 131c41 24 86 9 106 7c27 -5 7 -27 -3 -30
c-37 -16 -134 -97 -85 -77c49 18 124 84 139 99c0 1 1 2 1 3c11 31 28 54 39 57c26 8 50 -19 59 -28z" />
    <glyph glyph-name="r" unicode="r" horiz-adv-x="342" 
d="M315 209c5 -47 4 -70 -15 -70c-18 0 -64 15 -59 42c3 27 -16 34 -37 23c-7 -4 -25 -12 -44 -21c-20 -36 -33 -62 -41 -89c-22 -54 2 -82 -67 -119c-28 -15 -50 -17 -61 11c-25 63 84 226 97 258c14 33 7 48 29 65c32 23 45 33 60 10c13 -21 57 -1 23 -64
c40 28 81 56 100 56c33 0 10 -57 15 -102z" />
    <glyph glyph-name="s" unicode="s" horiz-adv-x="261" 
d="M221 234c74 35 135 29 108 18c-39 -18 -123 -69 -181 -111c1 -8 1 -16 4 -24c12 -57 1 -112 -36 -140c-35 -27 -81 -24 -106 -1c-11 8 -19 23 -27 30c-8 8 -4 43 13 71c15 24 43 49 82 76c-3 11 -8 21 -11 32c-19 57 8 105 33 130c38 38 103 36 120 28
c16 -8 17 -31 10 -35c-5 -5 -8 -5 -17 -5c-25 0 -45 -18 -60 -53c-7 -15 -10 -35 -10 -58c27 16 55 31 78 42zM91 37c5 16 0 36 -3 63l-5 -4c-50 -39 -49 -69 -49 -80c1 -5 4 -10 9 -14c16 0 40 10 48 35z" />
    <glyph glyph-name="t" unicode="t" horiz-adv-x="215" 
d="M407 641c1 -12 -11 -11 -18 -22c-24 -34 -84 -101 -175 -264c29 3 55 4 74 7c65 8 77 4 74 -4c-2 -7 -36 -57 -104 -68c-23 -4 -55 -8 -88 -15c-12 -23 -25 -45 -38 -72c-139 -275 -149 -343 -160 -376s-36 -51 -57 -23c-21 29 -13 87 18 155c16 39 71 170 127 299
c-21 -3 -37 -5 -48 -5c-34 -3 -48 75 -22 85c25 11 21 5 55 8c8 0 29 1 56 2c28 60 56 113 79 152c84 137 126 195 150 191c25 -6 74 -38 77 -50z" />
    <glyph glyph-name="u" unicode="u" horiz-adv-x="376" 
d="M176 294c9 -5 21 -18 -6 -54c-26 -37 -90 -159 -65 -140s142 116 172 176c12 25 17 24 34 21c18 -3 77 -29 61 -53c-16 -23 -84 -141 -95 -175c-14 -36 -2 -60 -19 -71c-16 -11 -30 -5 -51 18c-22 22 -12 72 -4 105c-55 -42 -85 -87 -139 -100c-55 -13 -68 58 -71 77
c-3 18 67 144 82 172c15 29 19 33 43 34c23 1 43 -3 58 -10z" />
    <glyph glyph-name="v" unicode="v" horiz-adv-x="322" 
d="M56 349c28 25 40 36 63 12c22 -25 58 1 34 -80c-23 -80 -47 -150 -47 -194c59 19 168 179 193 220c7 12 23 9 23 -24c0 -23 -21 -88 -52 -133c-49 -72 -117 -131 -182 -174c-27 -17 -50 -19 -71 13c-47 68 21 253 26 288s-7 54 13 72z" />
    <glyph glyph-name="w" unicode="w" horiz-adv-x="503" 
d="M56 349c28 25 40 36 63 12c22 -25 58 1 34 -80c-23 -80 -41 -151 -41 -195c59 51 140 192 165 175c19 -12 40 -35 31 -80c-3 -16 -11 -44 -12 -83c16 0 60 30 84 59c67 77 97 180 116 156c18 -23 -4 -129 -47 -196c-45 -68 -145 -154 -195 -154c-39 0 -61 83 -53 122
c-67 -48 -139 -165 -184 -96c-47 68 21 253 26 288s-7 54 13 72z" />
    <glyph glyph-name="x" unicode="x" horiz-adv-x="356" 
d="M353 93c35 22 8 -33 -25 -63c-31 -28 -64 -59 -103 -56c-27 0 -70 16 -110 88l-51 -43c-40 -34 -44 -35 -63 -27c-21 10 5 27 40 84c11 15 26 31 46 50c-18 55 -34 127 -29 153c4 23 16 30 23 33c25 8 70 -1 78 -17c8 -17 -5 -47 -5 -63c-1 -15 1 -31 4 -50
c43 31 89 59 124 75c73 35 97 21 36 -30l-142 -116c3 -7 4 -14 7 -19c8 -16 31 -47 41 -49c54 -16 95 29 129 50z" />
    <glyph glyph-name="y" unicode="y" horiz-adv-x="400" 
d="M322 79l56 12c35 4 22 -20 -38 -41l-32 -10c-19 -51 -39 -98 -59 -133c-96 -164 -260 -212 -335 -228c-55 -13 -112 55 -81 146c26 76 171 169 407 233c23 57 35 108 43 139c-64 -49 -108 -90 -152 -102c-44 -13 -109 32 -96 81c9 29 61 91 102 116c35 21 45 20 61 17
c25 -6 12 -20 0 -37c-16 -20 -109 -132 -21 -96c40 16 99 81 122 107c2 17 6 23 11 20c17 -8 65 -19 62 -55c-3 -21 -23 -92 -50 -169zM177 -73c17 28 32 56 44 85c-65 -21 -141 -52 -209 -96c-118 -78 -155 -168 -114 -165c40 3 208 60 279 176z" />
    <glyph glyph-name="z" unicode="z" horiz-adv-x="386" 
d="M102 317c110 16 193 33 233 9c39 -24 42 -62 -7 -101c-49 -37 -231 -137 -199 -141c30 -8 120 -4 159 1c40 3 2 -39 -79 -58c-80 -20 -139 -18 -184 17c-45 33 151 174 209 209c-8 16 -58 4 -150 -28s3 92 18 92z" />
    <glyph glyph-name="d" unicode="d" horiz-adv-x="410" 
d="M528 613c-5 -10 -147 -230 -199 -382c-11 -29 -23 -63 -38 -95c41 16 141 68 170 68c46 -3 -67 -73 -110 -111c-44 -39 -92 -71 -121 -67c-28 4 -48 22 -52 38c-3 8 -5 21 -6 32l-2 20c-17 -17 -75 -61 -118 -56c-40 5 -45 39 -50 46c-6 9 -2 53 39 97
c42 44 129 99 183 113c21 5 37 -1 48 -12l91 168c45 80 82 164 87 179c7 15 20 25 57 4c15 -8 28 -31 21 -42zM109 152c20 7 63 16 99 43l10 7l22 41l-22 -6c-29 -10 -104 -82 -109 -85z" />
    <glyph glyph-name="A" unicode="A" horiz-adv-x="567" 
d="M582 694c47 0 119 -24 76 -150c-19 -53 -60 -147 -107 -247c67 0 73 -29 35 -48c-11 -5 -34 -10 -66 -17c-53 -112 -104 -216 -120 -254c-34 -76 -31 -87 -26 -104c3 -18 -27 -37 -60 -4s-36 82 18 184c19 35 47 93 79 161c-77 -11 -154 -20 -187 -20c-23 -1 -43 1 -62 4
c-79 -117 -111 -189 -122 -213c-14 -30 -4 -70 -32 -64c-35 8 -79 44 -64 72c123 222 299 463 494 628c69 59 107 72 144 72zM444 287c51 117 105 249 132 337c-53 0 -194 -120 -341 -320l-34 -47c56 5 160 19 243 30z" />
    <glyph glyph-name="B" unicode="B" horiz-adv-x="608" 
d="M486 317c133 -19 120 -108 70 -184c-30 -43 -200 -183 -420 -202c-49 -5 -86 -4 -111 0c-8 -19 -17 -35 -25 -50c-17 -24 -32 -40 -43 -39c-27 2 -47 63 -34 133c4 31 245 502 289 582c45 79 82 163 87 178c7 15 18 26 57 5c15 -9 28 -31 21 -42c-3 -3 -18 -33 -41 -78
c165 141 299 98 326 5c24 -81 -64 -215 -287 -326c56 13 96 21 111 18zM272 498c-44 -88 -93 -187 -126 -266l1 3c113 65 450 246 402 358c-43 93 -231 -53 -277 -95zM35 -43c285 0 473 254 428 295c-29 26 -199 -4 -336 -66v-1c-19 -29 -71 -172 -92 -228z" />
    <glyph glyph-name="C" unicode="C" horiz-adv-x="475" 
d="M565 748c35 11 106 -2 127 -42s14 -62 -9 -61c-22 3 -38 37 -101 26c-207 -40 -386 -207 -463 -410c-27 -70 -11 -172 44 -195c60 -25 162 1 205 31c78 58 -11 -89 -108 -131c-57 -25 -141 -23 -182 10c-35 27 -129 90 -73 281c64 228 302 419 560 491z" />
    <glyph glyph-name="D" unicode="D" horiz-adv-x="670" 
d="M543 750c126 16 234 -205 159 -399c-75 -196 -300 -342 -500 -350c-111 -5 -125 21 -120 39c5 19 77 8 107 14c228 42 330 178 391 313c69 152 35 271 -64 271c-80 0 -158 -47 -227 -111c-56 -112 -126 -249 -158 -337c-20 -33 -58 -129 -68 -160c-8 -21 -19 -42 -28 -58
c-17 -24 -31 -40 -43 -39c-30 3 -49 84 -34 112c16 29 214 436 258 516c45 80 82 164 87 179c7 15 18 25 57 4c15 -8 28 -31 21 -42c-3 -3 -19 -35 -46 -86c56 56 112 123 208 134z" />
    <glyph glyph-name="E" unicode="E" 
d="M739 719c37 -10 22 -57 -21 -76c-38 -16 -61 -1 -127 -1c-54 -3 -103 1 -156 -28c-64 -37 -125 -94 -178 -161c75 3 150 15 268 39c36 25 76 -68 -23 -95c-114 -32 -220 -20 -301 -23c-30 -46 -54 -93 -73 -142c-27 -70 -11 -172 44 -195c60 -25 165 1 205 31
c81 57 -11 -91 -108 -131c-55 -25 -140 -23 -181 10c-35 27 -130 90 -74 281c13 47 34 92 61 137c-24 -3 -40 -3 -52 -6c-19 -3 -37 16 -25 43c19 38 42 46 135 49c47 60 102 114 163 161h-1c-35 -24 -87 56 13 82c40 11 190 20 227 23c12 0 24 1 39 2c40 3 132 8 165 0z
" />
    <glyph glyph-name="F" unicode="F" horiz-adv-x="427" 
d="M648 809c7 -7 30 -86 -68 -78c-51 3 -105 -43 -127 -86l-101 -193c56 9 109 21 184 40c35 24 67 -92 -36 -113c-73 -15 -138 -16 -195 -16c-23 -43 -42 -81 -59 -116c-109 -228 -125 -298 -184 -394c-5 -7 -10 -13 -17 -18l-15 -30c-19 -24 -32 -40 -43 -39
c-30 3 -31 84 -15 113c11 19 72 183 141 324c8 19 15 34 23 47c1 3 2 4 2 4c21 43 40 80 55 108c-4 0 -8 -1 -12 -1c-85 -7 -124 -9 -147 -14c-19 -3 -37 16 -25 43c19 41 49 49 163 49c20 0 39 0 56 1c33 84 58 159 61 202c3 60 61 161 123 193c152 78 211 -1 236 -26z" />
    <glyph glyph-name="G" unicode="G" horiz-adv-x="702" 
d="M575 688c-208 -40 -384 -205 -464 -409c-27 -71 -11 -176 45 -195c173 -56 339 194 418 324c4 31 10 51 21 44c19 -11 94 -21 89 -65c-5 -32 -33 -230 -92 -396c25 0 51 -1 76 -3c38 -5 31 -37 -42 -32c-13 1 -27 2 -46 2c-15 -39 -31 -72 -50 -103
c-117 -192 -315 -250 -404 -269c-68 -16 -143 70 -96 172c58 124 239 211 459 230c43 114 66 244 74 317c-9 -16 -21 -34 -35 -53c-61 -86 -220 -285 -365 -285c-36 0 -71 9 -92 26c-34 29 -130 89 -74 282c67 227 301 419 560 491c34 11 107 -4 128 -43
c20 -40 14 -61 -9 -60c-22 0 -37 38 -101 25zM435 -122c15 23 27 46 39 73c-72 -11 -154 -34 -227 -83c-137 -92 -189 -202 -141 -197c47 3 244 72 329 207z" />
    <glyph glyph-name="H" unicode="H" horiz-adv-x="591" 
d="M866 719c3 -12 -10 -12 -18 -23c-32 -42 -118 -141 -256 -415c-141 -274 -150 -345 -161 -377c-11 -33 -36 -51 -57 -22c-21 28 -13 86 18 154c13 29 41 109 76 202c-115 -32 -222 -20 -304 -23c-7 -11 -10 -22 -17 -33c-99 -206 -105 -267 -108 -283
c-1 -15 -6 -33 -27 -30c-22 3 -59 40 -30 135c12 39 45 117 84 204c-37 -3 -59 -5 -74 -8c-19 -3 -38 16 -25 43c19 38 42 46 137 49c48 104 94 204 113 241c40 77 89 187 123 198c18 5 91 -30 77 -61c-11 -25 -120 -202 -213 -377c82 3 159 13 290 40c3 3 8 4 13 4
c37 95 77 186 113 245c84 136 126 195 150 190c23 -5 96 -41 96 -53z" />
    <glyph glyph-name="I" unicode="I" horiz-adv-x="250" 
d="M465 715c27 3 48 -17 47 -33c0 -17 -22 -31 -83 -34h-7c-51 -88 -166 -282 -246 -445c-55 -112 -81 -181 -94 -224c11 1 24 1 37 4c51 11 81 -46 -34 -70l-19 -3c-3 -12 -9 -23 -25 -20c-8 1 -15 6 -22 13c-21 -2 -39 -3 -53 -3c-48 0 -49 33 -32 58c13 20 34 22 67 21
c1 13 5 29 10 46c28 95 196 454 235 529c13 27 27 56 42 85c-15 -3 -28 -2 -35 -5c-23 -9 -58 21 -43 49c13 23 24 32 51 39c13 4 38 3 75 0c13 17 24 27 33 30c13 3 53 -13 71 -36c8 0 16 0 25 -1z" />
    <glyph glyph-name="J" unicode="J" horiz-adv-x="379" 
d="M593 692c22 3 39 -51 23 -77c-19 -27 -34 -30 -87 -30c-19 -35 -50 -100 -97 -196c-8 -16 -14 -31 -22 -43l-1 -4c-27 -51 -159 -483 -289 -536c-85 -35 -180 4 -204 28c-40 42 -48 133 -15 150c11 6 56 -82 97 -85c74 -8 134 40 155 80c51 97 105 255 155 369
c59 129 75 177 104 236c-31 3 -72 9 -168 -4c-52 -13 -87 49 36 73c53 11 112 22 160 25c3 1 7 1 12 1v1l15 28c16 21 33 10 44 7c11 -1 20 -13 27 -29c27 3 40 3 55 6z" />
    <glyph glyph-name="K" unicode="K" horiz-adv-x="514" 
d="M597 559c72 -4 -50 -149 -78 -145c-27 -3 -154 -58 -261 -133c1 -31 0 -64 1 -95c0 -73 63 -127 97 -117c36 11 121 62 162 89c40 27 22 -40 -49 -103c-72 -64 -121 -116 -186 -105c-66 11 -144 131 -136 213c0 9 1 19 2 28h-1c-14 -15 -23 -23 -28 -26
c-77 -164 -84 -222 -84 -235c-3 -16 -5 -34 -28 -31c-21 3 -60 40 -31 139c31 98 202 464 242 544c40 78 90 192 126 203c20 6 92 -31 79 -63c-10 -23 -110 -185 -201 -354c135 94 309 194 374 191z" />
    <glyph glyph-name="L" unicode="L" horiz-adv-x="454" 
d="M251 586c23 45 35 89 50 97c31 18 47 20 110 -6c55 -24 -32 -82 -56 -119c-59 -94 -190 -345 -210 -380c-18 -37 -77 -186 -45 -218c23 -21 125 11 215 24c42 5 115 28 143 20c37 -11 4 -92 -83 -95c-126 -3 -232 -61 -309 -45c-35 8 -89 6 -89 57c3 84 56 204 80 259
c51 128 136 289 194 406z" />
    <glyph glyph-name="M" unicode="M" horiz-adv-x="860" 
d="M774 -119c-25 -11 -59 9 -61 26c-29 31 -44 104 -44 156c0 46 21 166 42 276c12 64 26 133 42 208c-56 -92 -247 -353 -299 -428c-50 -76 -40 -109 -107 -112c-21 -1 -46 14 -51 75c-5 40 11 154 27 254c9 59 20 123 33 192c-76 -104 -241 -415 -282 -476
c-40 -61 -34 -147 -114 -102c-32 19 -32 50 19 125c19 31 124 217 167 288c43 74 210 285 232 300c21 17 36 10 57 -1c70 -35 48 -77 40 -109c-5 -15 -20 -110 -36 -198c-9 -52 -18 -110 -28 -174c132 132 293 416 327 431c33 16 99 -6 115 -87c12 -72 -59 -340 -75 -460
c-3 -56 11 -86 31 -113c11 -5 -3 -58 -35 -71z" />
    <glyph glyph-name="N" unicode="N" horiz-adv-x="535" 
d="M718 598c1 -15 -9 -34 -13 -41c-49 -85 -211 -353 -254 -428c-42 -76 -27 -109 -95 -112c-20 -1 -47 14 -59 75c-8 41 -5 153 0 254c3 59 7 123 13 192c-65 -105 -189 -405 -225 -466c-35 -62 -25 -158 -109 -112c-35 19 -38 50 5 125c17 29 102 218 137 288
c35 75 180 274 200 290c20 17 34 10 57 -1c74 -34 69 -67 61 -99c-3 -17 -12 -110 -23 -201l-19 -177c101 109 220 346 267 413c11 13 12 23 17 26c19 8 37 -7 40 -26z" />
    <glyph glyph-name="O" unicode="O" horiz-adv-x="665" 
d="M679 652c46 -83 61 -208 19 -325c-66 -181 -249 -324 -429 -359c-44 -20 -118 -24 -160 -3c-19 4 -26 11 -30 19c-38 31 -118 97 -65 275c51 178 210 337 400 430c35 29 74 50 125 57c8 1 15 1 23 1l12 3c35 11 118 -90 105 -98zM576 344c69 160 35 285 -64 285
c-31 0 -63 -8 -94 -23c-131 -76 -234 -199 -290 -343c-27 -70 -11 -172 44 -195c60 -25 162 1 205 31c17 13 26 17 29 12c84 64 133 148 170 233z" />
    <glyph glyph-name="P" unicode="P" horiz-adv-x="451" 
d="M408 657c176 115 350 33 331 -80c-19 -112 -190 -304 -543 -352c-7 -15 -12 -29 -17 -42c-21 -34 -57 -129 -68 -159c-9 -23 -19 -42 -28 -59c-17 -24 -32 -40 -43 -39c-30 3 -50 84 -34 113c16 28 214 436 258 516c45 79 82 163 87 178c7 15 18 26 57 5
c15 -8 28 -31 21 -42c-1 -3 -9 -16 -21 -39zM610 554c24 134 -144 50 -261 -10c-41 -80 -89 -176 -128 -260c161 48 367 154 389 270z" />
    <glyph glyph-name="Q" unicode="Q" horiz-adv-x="653" 
d="M698 326c-54 -145 -181 -264 -324 -326c20 -24 41 -40 64 -51c85 -40 214 29 232 37c19 8 12 -30 -14 -56s-127 -81 -218 -68c-72 11 -127 54 -168 106c-1 0 -1 0 -2 -1c-47 -20 -115 -22 -160 -2c-16 4 -26 10 -29 19c-39 31 -119 96 -66 275c27 92 82 178 155 254
c2 9 5 17 8 24c48 117 153 250 309 237c81 -7 118 -27 133 -43c35 -27 67 -74 60 -79c46 -84 63 -208 20 -326zM466 701c-17 -4 -36 -10 -53 -19c19 5 42 8 67 9c47 3 85 -3 97 -12c0 1 0 1 -1 1l-2 2c-20 22 -76 24 -108 19zM172 68c12 -5 25 -8 40 -9c-9 19 -16 37 -23 53
c-17 47 -30 129 -34 213c-11 -20 -20 -41 -28 -62c-27 -70 -11 -171 45 -195zM406 111c83 64 133 148 169 233c25 52 51 250 6 329c-1 -12 -37 -36 -90 -45c-7 0 -11 -2 -16 -3c-21 -4 -40 -10 -57 -19c-49 -28 -95 -64 -136 -104l-7 -30c-16 -80 -4 -229 26 -321
c9 -29 19 -52 28 -75c21 7 36 15 47 23c17 12 27 16 30 12z" />
    <glyph glyph-name="R" unicode="R" horiz-adv-x="584" 
d="M685 -197c34 10 15 -76 -66 -60c-72 16 -182 164 -257 319c-51 103 -73 190 -74 221c-25 -8 -51 -17 -79 -25c-7 -13 -12 -26 -19 -38c-112 -229 -121 -304 -121 -319c-3 -17 -7 -38 -31 -34c-24 3 -67 45 -33 152c32 108 221 509 264 595c44 87 100 209 138 223
c19 5 103 -35 87 -69c-5 -11 -26 -47 -57 -100c179 171 294 124 324 22c26 -92 -93 -253 -384 -373c11 -63 18 -128 119 -304c90 -157 184 -212 189 -210zM363 542c-44 -77 -93 -165 -136 -250c128 72 463 253 416 364c-44 96 -226 -64 -280 -114z" />
    <glyph glyph-name="S" unicode="S" horiz-adv-x="444" 
d="M488 669c-22 0 -40 -5 -103 -60c-65 -57 -253 -193 -286 -296c-19 -61 25 -73 85 -89c60 -17 120 -33 159 -68c31 -28 50 -69 41 -110c-19 -93 -164 -244 -288 -249c-125 -5 -82 129 -52 170c29 40 141 138 159 146c20 9 14 -7 -25 -58c-38 -49 -139 -195 -104 -195
c45 -3 162 64 215 191c15 31 17 57 4 68c-20 16 -54 29 -78 36c-43 11 -180 40 -206 116c-34 95 40 194 107 263c65 69 233 223 254 236c23 11 71 20 108 5c56 -24 43 -106 10 -106z" />
    <glyph glyph-name="T" unicode="T" horiz-adv-x="313" 
d="M667 782c14 11 44 -7 33 -50c-13 -44 -47 -56 -162 -59c-19 0 -39 -1 -62 -2c-53 -90 -165 -279 -242 -438c-99 -206 -93 -257 -96 -273c0 -15 -7 -43 -39 -40c-22 0 -59 40 -30 135c32 95 215 453 255 529c13 24 26 50 39 77c-101 -11 -215 -27 -315 -50
c-16 -40 -111 71 21 95c82 16 224 27 339 35c15 23 28 37 39 41c13 4 42 -13 54 -34c27 2 47 4 62 6c84 8 91 15 104 28z" />
    <glyph glyph-name="U" unicode="U" horiz-adv-x="639" 
d="M844 824c16 5 71 -31 57 -61c-16 -28 -170 -285 -270 -488c-98 -205 -96 -258 -96 -273c-2 -15 -6 -43 -39 -40c-22 0 -59 40 -30 135c7 23 22 57 42 101c-66 -87 -136 -165 -188 -190c-118 -54 -209 -40 -252 6c-64 72 -102 193 -22 332c80 138 157 304 176 336
c17 31 59 77 86 90c44 20 78 1 74 -38c-6 -39 -34 -59 -58 -94c-23 -35 -162 -245 -194 -326c-32 -79 4 -225 84 -228c79 -5 229 106 402 335c46 91 89 173 105 205c40 77 87 187 123 198z" />
    <glyph glyph-name="V" unicode="V" horiz-adv-x="336" 
d="M610 722c1 -15 -9 -34 -13 -41c-49 -84 -330 -553 -373 -628c-42 -76 -29 -109 -95 -112c-20 -1 -47 14 -59 75c-8 40 -20 183 -31 314l-18 252c-39 16 -14 109 8 125c20 17 34 10 57 -1c74 -35 66 -67 61 -99c-3 -16 3 -141 8 -261c3 -71 7 -150 12 -237
c99 111 338 545 386 613c9 13 12 23 17 26c19 8 37 -6 40 -26z" />
    <glyph glyph-name="W" unicode="W" horiz-adv-x="691" 
d="M846 692c34 -16 35 -49 -10 -126c-16 -32 -109 -227 -145 -299c-40 -79 -190 -298 -209 -317c-21 -19 -34 -11 -57 -3c-72 27 -56 74 -48 106c3 17 13 110 21 200c5 53 10 111 15 176c-121 -141 -262 -438 -294 -454c-3 -2 -8 -4 -15 -5c-5 -16 -16 -25 -39 -24
c-21 0 -45 19 -53 80l-2 30c-1 6 -1 11 0 15c-3 71 -1 203 2 314c1 66 3 134 6 205c-39 18 -4 108 17 124c23 15 35 6 58 -6c71 -40 61 -71 53 -103c-5 -16 -13 -139 -18 -259c-3 -71 -7 -149 -12 -235c-4 -17 -5 -34 -6 -51c60 112 213 353 256 427c46 81 31 112 98 120
c21 3 46 -11 57 -71c8 -42 0 -155 -8 -256c-5 -60 -12 -125 -19 -194c68 111 210 431 246 496c37 64 23 150 106 110z" />
    <glyph glyph-name="X" unicode="X" horiz-adv-x="571" 
d="M741 690c27 -16 14 -48 -61 -126c-26 -30 -179 -203 -252 -284l31 -116l13 -48c75 110 96 19 69 -56c-26 -76 -5 -109 -71 -112c-20 -1 -50 14 -75 75c-11 27 -31 90 -54 167c-99 -96 -242 -228 -264 -242c-28 -19 -39 -11 -58 -3c-62 27 -27 74 -5 106
c11 16 41 24 72 28c17 3 37 4 58 5c43 41 105 111 173 187c-23 76 -45 156 -62 216l-29 102c-45 16 -36 108 -19 125c16 17 33 10 57 -1c82 -34 82 -67 82 -99c0 -16 29 -127 59 -243c83 93 156 180 185 209c64 64 85 150 151 110z" />
    <glyph glyph-name="Y" unicode="Y" horiz-adv-x="438" 
d="M598 786c23 -36 6 -104 -37 -181c-44 -77 -180 -438 -235 -517c-111 -156 -169 -218 -197 -210c-27 7 -91 52 -86 66c8 26 62 29 181 180c68 89 153 277 217 426c-58 -88 -127 -189 -153 -226c-42 -58 -64 -69 -94 -66c-23 0 -60 6 -78 60c-14 38 -34 126 -53 207
c-11 47 -23 97 -34 150c-49 22 -23 95 -2 108c21 11 38 2 65 -11c88 -40 83 -70 78 -96c-3 -13 9 -86 22 -156c7 -41 16 -87 26 -137c33 -73 231 259 278 310l6 7c15 35 23 58 26 65c16 39 47 57 70 21z" />
    <glyph glyph-name="Z" unicode="Z" horiz-adv-x="631" 
d="M690 705c8 -29 14 -89 -40 -148c-37 -40 -223 -211 -364 -355h1l-86 -87c-35 -35 -62 -65 -83 -90c127 0 335 8 386 16c65 10 71 20 81 35c11 16 37 -8 26 -62c-11 -53 -35 -69 -126 -72c-86 -3 -321 -2 -455 -37c-7 -12 -17 -25 -33 -18c-20 -5 -61 91 11 123l9 13
c27 35 72 89 123 149c74 84 502 461 424 471l-148 -15c-77 -8 -154 -17 -169 -23c-26 -13 -57 -25 -115 51c-19 23 -32 38 -24 63s80 73 113 29l164 10c87 5 185 11 227 8c60 -3 73 -38 78 -61z" />
    <glyph glyph-name="a" unicode="a" horiz-adv-x="428" 
d="M256 257c-12 0 -139 -72 -139 -103c10 0 161 73 169 69c15 -11 21 -32 9 -45c-16 -19 -40 -48 -14 -32c24 16 206 82 243 94c38 13 6 -35 -45 -67s-194 -106 -224 -117s-91 3 -72 57c-36 -21 -77 -33 -100 -42c-23 -8 -92 15 -81 82c10 66 125 135 157 143
c33 8 86 10 113 -20c7 -7 -3 -22 -16 -19z" />
    <glyph glyph-name="b" unicode="b" horiz-adv-x="471" 
d="M378 723c15 -8 28 -31 21 -42s-206 -381 -258 -534c67 86 168 173 226 173c61 0 90 -47 79 -110c-11 -61 -67 -193 -206 -214c-137 -22 -170 39 -114 34c99 -12 228 158 200 178c-15 10 -106 -49 -172 -120c-67 -72 -115 -180 -144 -177c-30 3 -50 84 -34 113
c16 28 214 436 258 516c45 79 82 163 87 178c7 15 20 26 57 5z" />
    <glyph glyph-name="c" unicode="c" 
d="M195 341c28 6 83 -1 99 -33c16 -31 10 -48 -7 -47c-15 0 -14 35 -57 8c-44 -26 -129 -124 -145 -167s-2 -76 71 -52c76 24 228 102 324 169c19 12 25 -3 -4 -42c-27 -38 -315 -205 -377 -213c-47 -7 -88 25 -103 62s-23 70 0 114c21 45 148 189 199 201z" />
    <glyph glyph-name="one" unicode="1" horiz-adv-x="271" 
d="M296 658c17 6 85 -29 74 -55c-13 -26 -123 -186 -211 -368c-88 -181 -93 -226 -93 -239c-3 -13 -10 -30 -29 -27c-20 3 -54 35 -27 121s141 324 176 391l24 48c-13 1 -24 8 -31 25c-16 40 -24 53 5 53c27 0 88 51 112 51z" />
    <glyph glyph-name="two" unicode="2" horiz-adv-x="472" 
d="M473 387c-98 -133 -230 -243 -318 -318c65 0 107 -10 163 -5c77 8 81 14 95 25c13 10 41 -15 25 -55c-16 -39 -46 -49 -150 -52c-103 -4 -93 30 -244 -6c-8 -16 -28 -5 -36 14c-7 7 -12 15 -5 27c16 34 127 138 206 201c89 73 205 205 208 267c1 67 -38 80 -110 53
s-90 -85 -149 -40c-39 28 -26 64 -18 64c27 3 64 80 221 85c154 5 174 -179 112 -260z" />
    <glyph glyph-name="three" unicode="3" horiz-adv-x="500" 
d="M470 334c21 -55 4 -207 -108 -290c-63 -48 -181 -80 -245 -56c-89 32 -149 93 -97 140c24 24 52 -27 101 -53c51 -27 150 -13 205 47c27 30 60 121 46 168c-16 50 -63 33 -129 14c-9 -3 -15 -3 -18 -2c-38 -16 -53 27 -8 51c66 36 179 81 189 141c11 65 -25 79 -101 52
c-75 -27 -99 -82 -152 -40c-34 29 -17 63 -8 63c27 3 75 79 229 84c154 4 150 -180 74 -256c-8 -8 -17 -15 -27 -21c25 -7 41 -21 49 -42z" />
    <glyph glyph-name="four" unicode="4" horiz-adv-x="427" 
d="M494 649c17 6 84 -29 73 -55c-13 -26 -119 -183 -207 -361c29 -15 31 -34 27 -45c-5 -15 -18 -12 -29 -8l-21 6c-69 -149 -75 -186 -75 -199c-1 -13 -9 -30 -28 -27c-20 3 -54 35 -27 121c9 27 25 66 45 113c-26 1 -60 1 -102 0c-39 -1 -75 -4 -106 -7
c-7 -8 -16 -14 -28 -6c-15 10 -36 45 26 112c61 66 203 172 264 220c45 35 110 83 154 102c12 19 23 31 34 34zM102 256c57 0 125 0 176 -4l99 207c-43 -25 -90 -57 -143 -96c-64 -48 -105 -83 -132 -107z" />
    <glyph glyph-name="five" unicode="5" horiz-adv-x="528" 
d="M446 534c-57 -9 -114 -5 -167 -2c-15 -35 -37 -81 -57 -120c99 56 162 39 206 26c99 -32 56 -179 46 -215c-32 -129 -183 -265 -335 -260s-165 120 -106 149c88 43 68 -14 123 -40c56 -27 110 2 170 53c64 53 110 225 12 257c-41 14 -129 -46 -169 -59
c-29 -9 -61 6 -54 29c8 29 50 126 79 192c-8 17 -7 57 6 67c9 8 19 10 32 10c15 5 37 0 53 -11c19 -4 36 -9 55 -9c136 -3 144 0 156 5c11 4 25 8 30 -8s0 -51 -80 -64z" />
    <glyph glyph-name="six" unicode="6" horiz-adv-x="428" 
d="M297 582c31 15 64 25 85 22c19 -1 26 -12 33 -23c24 -35 -9 -69 -25 -64c-25 7 -81 -17 -108 -41c-36 -31 -99 -84 -149 -203c-51 -115 -34 -181 17 -206c50 -24 153 36 153 109c0 100 -118 78 -142 70c-23 -8 -58 17 27 59c106 56 194 6 210 -72
c24 -118 -116 -240 -166 -261c-51 -21 -110 -13 -163 22c-53 34 -90 180 -55 258c59 131 166 271 283 330z" />
    <glyph glyph-name="seven" unicode="7" horiz-adv-x="346" 
d="M382 649c16 5 77 -28 64 -55c-16 -26 -139 -186 -243 -368c-104 -181 -112 -226 -115 -239s-7 -30 -26 -27c-20 3 -51 36 -16 121c33 86 170 324 210 391c12 19 24 39 36 62c-92 -8 -278 -13 -278 23c0 43 -3 58 25 50c18 -7 234 21 324 29c7 7 13 11 19 13z" />
    <glyph glyph-name="eight" unicode="8" horiz-adv-x="432" 
d="M406 653c88 -19 92 -132 53 -184c-36 -52 -117 -156 -167 -166c32 -39 61 -90 45 -153c-29 -112 -171 -193 -259 -174c-89 19 -91 132 -54 185c38 51 116 154 167 165c-32 39 -61 90 -45 153c29 112 170 192 260 174zM251 146c24 29 18 73 1 114l-2 -2
c-42 -21 -134 -84 -145 -149c-8 -54 53 -77 146 37zM383 510c19 45 -45 87 -136 -28c-23 -28 -23 -69 -11 -108c62 24 126 91 147 136z" />
    <glyph glyph-name="nine" unicode="9" horiz-adv-x="422" 
d="M435 626c31 -3 53 -30 33 -98s-77 -327 -178 -436c-102 -111 -143 -126 -220 -112c-76 13 -76 60 -65 84c10 23 39 1 55 -18c15 -17 94 -13 179 144c29 54 59 127 75 168c-16 -23 -37 -47 -66 -71c-43 -35 -110 -45 -140 -15c-25 22 -58 141 27 252c78 100 209 98 250 87
c12 11 29 16 50 15zM203 344c29 -11 103 66 138 111c3 13 4 22 5 29s2 15 5 24l-8 4c-31 19 -103 -8 -143 -54c-32 -38 -33 -99 3 -114z" />
    <glyph glyph-name="zero" unicode="0" horiz-adv-x="502" 
d="M509 571c26 -68 26 -174 -14 -270c-64 -149 -167 -268 -301 -298c-36 -17 -69 -18 -99 -2c-38 11 -96 95 -43 244c51 147 100 277 246 354c35 23 62 36 99 40c30 3 104 -44 112 -68zM407 315c64 133 42 236 -30 236c-23 0 -48 -7 -73 -38c-47 -39 -99 -147 -149 -265
c-27 -56 -40 -121 -2 -140c43 -22 53 -21 88 4c12 11 19 14 22 10c65 53 109 122 144 193z" />
    <glyph glyph-name="percent" unicode="%" horiz-adv-x="697" 
d="M534 216c13 -13 87 -72 47 -153c-38 -81 -152 -139 -214 -126s-44 96 -10 133c35 38 109 112 147 120l11 3c-2 5 -5 9 -8 12c-26 26 14 22 27 11zM495 66c9 11 16 28 21 49c-37 -26 -80 -70 -85 -81c-5 -13 41 6 64 32zM635 768c20 6 83 -31 64 -61
c-21 -29 -233 -283 -374 -488s-165 -267 -168 -283c-5 -15 -13 -33 -34 -30s-51 40 -1 135c51 95 292 453 348 529c24 35 51 74 78 109c-56 0 -196 1 -205 4c-8 3 20 -63 20 -88c-1 -1 -1 -1 -1 -2c0 -15 -3 -30 -11 -47c-38 -81 -153 -139 -214 -126s-46 96 -11 133
c35 38 110 112 147 120l12 3c-3 4 -3 6 -6 9l-3 3c-1 3 -2 5 -1 6c-3 11 -7 12 17 19c28 8 273 28 308 32h3c13 13 24 21 32 23zM265 549c9 9 16 28 21 49c-37 -26 -80 -70 -85 -81c-5 -12 39 5 64 32z" />
    <glyph glyph-name="question" unicode="?" horiz-adv-x="485" 
d="M395 727c56 -32 94 -84 70 -191s-42 -103 -82 -145c-37 -43 -163 -106 -174 -144c-19 -54 -70 -94 -81 -61c-11 32 22 103 48 145s140 93 167 168c45 128 -12 160 -42 163c-83 5 -130 -99 -205 -112c-76 -14 -82 69 -41 107c56 49 115 73 156 84c49 14 132 17 184 -14z
M100 81c25 8 72 -4 90 -25c19 -20 10 -31 -5 -46s-40 -21 -57 -14c-16 8 -16 25 -20 38c-5 12 -23 42 -8 47z" />
    <glyph glyph-name="exclam" unicode="!" horiz-adv-x="405" 
d="M323 749c20 6 92 -31 79 -63s-64 -69 -168 -272c-93 -179 -101 -208 -104 -225c-1 -15 -16 -34 -37 -30c-21 3 -43 10 -11 108c31 100 75 199 115 279c40 78 90 192 126 203zM15 68c24 8 70 -4 89 -25c19 -20 10 -31 -5 -46s-40 -21 -56 -14c-17 8 -17 25 -21 38
c-5 12 -22 42 -7 47z" />
    <glyph glyph-name="period" unicode="." horiz-adv-x="199" 
d="M45 68c24 8 70 -4 89 -25c19 -20 10 -31 -5 -46s-40 -21 -56 -14c-17 8 -17 25 -21 38c-5 12 -22 42 -7 47z" />
    <glyph glyph-name="comma" unicode="," horiz-adv-x="144" 
d="M128 46c7 -9 11 -16 10 -23c1 -11 -3 -28 -11 -52c-16 -54 -86 -97 -102 -100c-29 -5 -51 26 -26 46c7 4 19 -7 40 22c15 20 12 51 8 76l-2 9c-4 13 -11 28 1 39c24 21 64 4 82 -17z" />
    <glyph glyph-name="semicolon" unicode=";" horiz-adv-x="234" 
d="M124 296c24 8 70 -4 89 -25c19 -20 10 -31 -5 -46s-40 -21 -56 -14c-17 8 -17 25 -21 38c-5 12 -22 42 -7 47zM157 46c7 -9 11 -16 10 -23c1 -11 -3 -28 -11 -52c-16 -54 -86 -97 -102 -100c-29 -5 -51 26 -26 46c7 4 19 -7 40 22c15 20 12 51 8 76l-2 9
c-4 13 -11 28 1 39c24 21 64 4 82 -17z" />
    <glyph glyph-name="colon" unicode=":" horiz-adv-x="240" 
d="M104 298c24 8 70 -4 89 -25c19 -20 10 -31 -5 -46s-40 -21 -56 -14c-17 8 -17 25 -21 38c-5 12 -22 42 -7 47zM45 68c24 8 70 -4 89 -25c19 -20 10 -31 -5 -46s-40 -21 -56 -14c-17 8 -17 25 -21 38c-5 12 -22 42 -7 47z" />
    <glyph glyph-name="plus" unicode="+" horiz-adv-x="500" 
d="M442 270c8 -18 40 -39 -54 -57c-45 -11 -82 -10 -118 -11c-23 -64 -35 -113 -35 -124c1 -15 -10 -31 -31 -28c-20 3 -40 9 -24 101l9 47c-60 -3 -99 -6 -120 13c-13 13 -12 79 19 82s73 -12 122 -12l10 29c25 75 35 123 67 134c17 6 79 -25 70 -54s-36 -59 -55 -102
l-2 -6c57 0 91 1 100 5c13 7 35 2 42 -17z" />
    <glyph glyph-name="hyphen" unicode="-" horiz-adv-x="472" 
d="M57 211c-13 13 -12 79 19 82s73 -12 122 -12c113 0 177 1 190 6c13 7 35 2 42 -17c8 -18 40 -39 -54 -57c-63 -13 -108 -11 -159 -12c-83 -4 -135 -14 -160 10z" />
    <glyph glyph-name="numbersign" unicode="#" horiz-adv-x="500" 
d="M406 309c-13 -3 -27 -5 -42 -6c-11 -24 -19 -50 -30 -77c27 1 42 3 46 5c13 5 35 2 42 -18c8 -18 40 -39 -54 -57c-19 -4 -39 -5 -62 -8c-19 -51 -30 -90 -30 -97c1 -15 -11 -31 -31 -28c-21 3 -41 9 -25 101c3 7 2 13 5 21l-58 -2c-15 0 -30 -1 -43 -2
c-17 -47 -28 -83 -28 -90c1 -15 -11 -31 -31 -28c-21 3 -40 9 -24 101c0 5 1 10 3 15c-15 2 -27 7 -36 15c-14 11 -13 78 18 81c13 1 28 0 44 -3l21 60c-21 1 -36 6 -45 15c-14 11 -13 78 18 81c17 1 35 -2 58 -5c19 56 29 91 56 100c17 6 78 -27 70 -55
c-5 -16 -16 -32 -28 -51h80c21 64 41 122 68 131c17 6 78 -27 70 -55c-5 -17 -21 -44 -37 -72c11 1 16 2 17 3c13 5 35 2 42 -18c8 -18 40 -39 -54 -57zM154 224h94c8 27 17 51 25 74c-25 0 -49 -1 -68 -2c-8 0 -16 -1 -24 -1z" />
    <glyph glyph-name="quotedbl" unicode="&#x22;" horiz-adv-x="492" 
d="M240 611c1 -12 -3 -29 -10 -52c-16 -54 -88 -98 -102 -100c-29 -5 -51 26 -26 46c6 3 19 -7 40 22c13 20 11 51 7 76l-2 9c-4 13 -11 28 2 39c23 21 63 4 81 -17c7 -9 11 -16 10 -23zM380 634c7 -9 11 -16 10 -23c1 -12 -3 -29 -10 -52c-16 -54 -88 -98 -102 -100
c-29 -5 -51 26 -26 46c6 3 19 -7 40 22c13 20 11 51 7 76l-2 9c-4 13 -11 28 2 39c23 21 63 4 81 -17z" />
    <glyph glyph-name="dollar" unicode="$" horiz-adv-x="525" 
d="M460 582c48 -34 56 -95 28 -109c-10 -5 -24 -4 -41 2l-38 19c-27 -47 -59 -100 -90 -157l40 -23c74 -47 110 -239 -55 -287c-55 -16 -99 -23 -134 -20c-5 -17 -6 -27 -7 -31c0 -13 -3 -28 -22 -25c-13 3 -37 22 -32 72c-33 17 -52 46 -65 85c-27 89 41 160 41 115
c0 -30 7 -90 47 -119c20 49 53 121 84 192c-61 48 -104 106 -83 174c29 96 130 148 237 140c15 23 27 40 39 44c14 3 73 -25 62 -50c-1 -4 -5 -11 -11 -22zM283 249l-8 5l-24 -48c-24 -50 -42 -91 -54 -123c9 0 18 1 28 3c101 16 146 104 58 163zM308 492l17 32
c-39 7 -76 2 -105 -29c-43 -45 -14 -86 34 -118c23 52 45 96 54 115z" />
    <glyph glyph-name="slash" unicode="/" horiz-adv-x="448" 
d="M414 798c19 6 87 -31 71 -61c-15 -31 -201 -284 -321 -488c-120 -206 -135 -267 -138 -283c-4 -15 -10 -33 -30 -30c-22 3 -56 40 -16 135s243 454 290 529c48 77 108 188 144 198z" />
    <glyph glyph-name="equal" unicode="=" horiz-adv-x="472" 
d="M57 142c-13 13 -12 79 19 82s73 -12 122 -12c113 0 177 1 190 6c13 7 35 2 42 -17c8 -18 40 -39 -54 -57c-63 -13 -108 -11 -159 -12c-83 -4 -135 -14 -160 10zM95 316c-13 13 -12 79 19 82s73 -12 122 -12c113 0 177 1 190 6c13 7 35 2 42 -17c8 -18 40 -39 -54 -57
c-63 -13 -108 -11 -159 -12c-83 -4 -135 -14 -160 10z" />
    <glyph glyph-name="quotesingle" unicode="'" horiz-adv-x="332" 
d="M311 601c1 -12 -3 -29 -10 -52c-16 -54 -88 -98 -102 -100c-29 -5 -51 26 -26 46c6 3 19 -7 40 22c13 20 11 51 7 76l-2 9c-4 13 -11 28 2 39c23 21 63 4 81 -17c7 -9 11 -16 10 -23z" />
    <glyph glyph-name="at" unicode="@" horiz-adv-x="777" 
d="M511 153c-29 -11 -93 3 -71 57c-36 -21 -78 -33 -101 -42c-21 -8 -92 15 -81 82c10 65 127 135 158 143c32 8 84 10 112 -20c7 -7 -3 -22 -15 -19c-13 0 -139 -72 -139 -103c10 0 160 73 169 69c15 -11 20 -32 9 -45c15 0 -10 -23 -18 -34c1 0 2 1 3 2c5 3 8 2 10 -2
c42 19 129 82 124 165c-5 85 -121 158 -264 124c-148 -37 -259 -143 -254 -296c3 -124 111 -229 276 -200c115 19 169 82 180 86c12 3 -2 -62 -48 -100s-124 -72 -236 -56c-117 19 -241 91 -254 260c-13 142 109 332 324 372c252 48 331 -85 344 -172
c16 -109 -119 -258 -228 -271z" />
    <glyph glyph-name="bar" unicode="|" horiz-adv-x="412" 
d="M238 801c33 16 106 -9 95 -52c-8 -31 -85 -292 -121 -501c-37 -208 -45 -274 -42 -288c3 -15 -6 -34 -27 -33c-23 1 -42 35 -41 132c0 97 57 459 73 538s31 191 63 204z" />
    <glyph glyph-name="fraction" unicode="&#x2044;" horiz-adv-x="331" 
d="M414 798c18 5 58 -31 41 -61c-15 -31 -191 -284 -311 -488c-120 -206 -125 -267 -128 -283c-4 -15 -10 -33 -30 -30c-22 3 -46 40 -6 135s243 454 290 529c48 77 108 188 144 198z" />
    <glyph glyph-name="backslash" unicode="\" horiz-adv-x="523" 
d="M-39 754c3 19 69 61 87 32c16 -29 152 -314 271 -517c119 -204 169 -251 181 -258c11 -11 24 -25 12 -41c-13 -16 -62 -31 -126 52c-65 81 -279 432 -322 510c-45 79 -111 185 -103 222z" />
    <glyph glyph-name="underscore" unicode="_" horiz-adv-x="540" 
d="M51 -27c23 26 76 19 158 22c52 3 168 13 232 5c95 -13 64 -34 58 -53c-7 -20 -26 -25 -41 -20c-14 3 -148 -5 -262 -13c-48 -3 -89 -21 -121 -20c-31 0 -35 66 -24 79z" />
    <glyph glyph-name="ampersand" unicode="&#x26;" horiz-adv-x="526" 
d="M500 573c8 -44 -3 -67 -73 -54c-51 8 -36 74 -98 63c-63 -13 -95 -80 -84 -105c17 -39 43 -65 83 -72c39 -7 59 -23 55 -39c-6 -25 -58 -63 -98 -36c-43 27 -95 21 -120 -18c-24 -40 -37 -107 41 -126s90 4 133 12s58 15 77 -30c16 -42 -107 -119 -206 -103
c-15 -56 -15 -79 -15 -87c0 -13 -3 -30 -22 -29c-19 0 -57 31 -38 119c1 7 2 14 5 22c-65 39 -96 100 -89 159c13 112 102 153 140 150c-31 34 -39 117 -19 150c33 60 96 88 163 104c19 49 40 93 59 100c16 8 83 -21 75 -48c-3 -8 -14 -32 -30 -67c33 -16 58 -42 61 -65z
" />
    <glyph glyph-name="parenleft" unicode="(" horiz-adv-x="287" 
d="M428 916c17 -6 56 -73 31 -93c-11 -13 -98 -62 -178 -169c-83 -105 -160 -259 -179 -404c-21 -141 -8 -243 5 -306c15 -64 28 -89 33 -100c8 -22 20 -43 0 -52c-9 -3 -19 2 -43 27c-23 25 -40 69 -55 144c-8 36 -26 100 -23 173c1 75 11 155 30 234c19 77 36 149 64 206
s56 98 69 118c29 43 88 105 139 150c51 47 90 75 107 72z" />
    <glyph glyph-name="parenright" unicode=")" horiz-adv-x="357" 
d="M222 877c18 -21 44 -119 52 -207c10 -87 6 -182 -2 -240c-6 -59 -30 -218 -102 -350c-70 -134 -165 -215 -208 -245c-92 -60 -132 -43 -135 -24c-7 20 10 28 25 33c7 3 25 9 64 37c38 30 97 79 163 190c33 56 63 126 83 205c21 80 31 163 32 243c0 80 -9 154 -21 213
c-11 57 -25 96 -26 107c-11 47 57 59 75 38z" />
    <glyph glyph-name="asterisk" unicode="*" horiz-adv-x="340" 
d="M313 685c12 -9 28 -66 4 -74c-19 -5 -32 0 -104 -13c27 -29 55 -57 64 -60c11 -5 20 -19 13 -34c-8 -13 -17 -27 -78 18c-15 11 -25 19 -36 26c-8 -29 -14 -54 -13 -62c1 -11 -7 -26 -23 -27c-15 0 -31 0 -23 76c1 19 2 32 5 44c-32 -8 -59 -16 -66 -21
c-9 -7 -26 -7 -35 6c-8 14 -14 28 54 59l14 6c-39 37 -50 44 -50 68c0 15 44 55 62 40c13 -11 16 -23 43 -58c0 2 0 4 1 5c16 62 14 75 37 88c12 9 71 -9 66 -33c-5 -16 -13 -25 -29 -66c62 16 70 25 94 12z" />
    <glyph glyph-name="bracketleft" unicode="[" horiz-adv-x="224" 
d="M556 824c3 -21 -4 -60 -104 -63c-27 -1 -52 3 -95 8c-56 -99 -218 -360 -302 -531c-63 -129 -96 -222 -115 -278c63 -9 113 -14 124 -11c15 3 28 -4 32 -25c3 -21 -9 -59 -73 -56c-30 0 -52 5 -103 13c-4 -8 -12 -12 -23 -11c-9 1 -17 7 -24 16h-3c-5 1 -9 2 -12 2
c-31 4 -33 24 -33 39s14 17 15 28c1 7 8 12 19 16l8 34c28 96 218 509 258 584c24 48 74 142 116 208c-4 7 -4 14 -4 21c0 15 14 18 15 29c1 9 9 14 24 16l13 -3c5 5 9 7 12 8c8 3 29 -5 48 -17c72 -8 159 -14 170 -11c15 3 33 5 37 -16z" />
    <glyph glyph-name="bracketright" unicode="]" horiz-adv-x="586" 
d="M498 860c18 5 91 -32 77 -62s-223 -363 -322 -568c-68 -137 -102 -235 -119 -291c9 -3 14 -11 16 -23c3 -21 -11 -59 -73 -56c-40 3 -63 10 -154 18c-4 1 -7 2 -11 2c-31 4 -33 24 -33 39s14 17 15 28c1 9 9 14 24 17c48 -9 98 -16 137 -20c1 17 5 34 10 53
c28 96 218 509 258 584c19 41 58 113 95 173c-31 3 -70 9 -134 16l-11 2c-31 3 -33 23 -33 38s14 18 15 29c1 9 9 14 24 16c45 -11 134 -19 191 -22c12 16 21 25 28 27z" />
    <glyph glyph-name="braceleft" unicode="{" horiz-adv-x="321" 
d="M524 897c39 -8 56 -74 32 -93c-10 -13 -70 29 -169 -121c-29 -45 -70 -130 -103 -192c-37 -96 -112 -116 -141 -145c28 -19 51 -69 47 -121l3 -27c-15 -125 -2 -214 10 -273c15 -64 28 -89 33 -100c11 -20 20 -45 1 -52c-11 -3 -30 2 -54 27c-23 25 -49 69 -64 144
c-8 36 -25 100 -24 173c1 25 2 50 5 77c0 1 -1 2 -1 3c-3 50 -46 72 -75 101c-28 28 -36 58 -7 106c27 46 118 39 155 92c9 23 18 42 27 61c28 57 56 108 69 128c30 43 77 129 127 174s112 41 129 38z" />
    <glyph glyph-name="quotedblbase" unicode="&#x201e;" horiz-adv-x="492" 
d="M240 50c1 -12 -3 -29 -10 -52c-16 -54 -88 -98 -102 -100c-29 -5 -51 26 -26 46c6 3 19 -7 40 22c13 20 11 51 7 76l-2 9c-4 13 -11 28 2 39c23 21 63 4 81 -17c7 -9 11 -16 10 -23zM380 73c7 -9 11 -16 10 -23c1 -12 -3 -29 -10 -52c-16 -54 -88 -98 -102 -100
c-29 -5 -51 26 -26 46c6 3 19 -7 40 22c13 20 11 51 7 76l-2 9c-4 13 -11 28 2 39c23 21 63 4 81 -17z" />
    <glyph glyph-name="ellipsis" unicode="&#x2026;" horiz-adv-x="597" 
d="M45 68c24 8 70 -4 89 -25c19 -20 10 -31 -5 -46s-40 -21 -56 -14c-17 8 -17 25 -21 38c-5 12 -22 42 -7 47zM244 68c24 8 70 -4 89 -25c19 -20 10 -31 -5 -46s-40 -21 -56 -14c-17 8 -17 25 -21 38c-5 12 -22 42 -7 47zM443 68c24 8 70 -4 89 -25c19 -20 10 -31 -5 -46
s-40 -21 -56 -14c-17 8 -17 25 -21 38c-5 12 -22 42 -7 47z" />
    <glyph glyph-name="quotesinglbase" unicode="&#x201a;" horiz-adv-x="492" 
d="M311 40c1 -12 -3 -29 -10 -52c-16 -54 -88 -98 -102 -100c-29 -5 -51 26 -26 46c6 3 19 -7 40 22c13 20 11 51 7 76l-2 9c-4 13 -11 28 2 39c23 21 63 4 81 -17c7 -9 11 -16 10 -23z" />
    <glyph glyph-name="quoteleft" unicode="&#x2018;" horiz-adv-x="241" 
d="M71 498c-1 12 3 29 10 52c16 54 88 98 102 100c28 3 53 -25 26 -46c-4 -4 -21 8 -40 -22c-13 -20 -11 -51 -7 -76l2 -9c4 -13 11 -28 -2 -39c-23 -21 -63 -4 -81 17c-7 9 -11 16 -10 23z" />
    <glyph glyph-name="quoteright" unicode="&#x2019;" horiz-adv-x="241" 
d="M220 601c1 -12 -3 -29 -10 -52c-16 -54 -88 -98 -102 -100c-29 -5 -51 26 -26 46c6 3 19 -7 40 22c13 20 11 51 7 76l-2 9c-4 13 -11 28 2 39c23 21 63 4 81 -17c7 -9 11 -16 10 -23z" />
    <glyph glyph-name="quotedblleft" unicode="&#x201c;" horiz-adv-x="391" 
d="M71 498c-1 12 3 29 10 52c16 54 88 98 102 100c28 3 53 -25 26 -46c-4 -4 -21 8 -40 -22c-13 -20 -11 -51 -7 -76l2 -9c4 -13 11 -28 -2 -39c-23 -21 -63 -4 -81 17c-7 9 -11 16 -10 23zM221 498c-1 12 3 29 10 52c16 54 88 98 102 100c28 3 53 -25 26 -46
c-4 -4 -21 8 -40 -22c-13 -20 -11 -51 -7 -76l2 -9c4 -13 11 -28 -2 -39c-23 -21 -63 -4 -81 17c-7 9 -11 16 -10 23z" />
    <glyph glyph-name="quotedblright" unicode="&#x201d;" horiz-adv-x="391" 
d="M220 591c1 -12 -3 -29 -10 -52c-16 -54 -88 -98 -102 -100c-29 -5 -51 26 -26 46c6 3 19 -7 40 22c13 20 11 51 7 76l-2 9c-4 13 -11 28 2 39c23 21 63 4 81 -17c7 -9 11 -16 10 -23zM360 614c7 -9 11 -16 10 -23c1 -12 -3 -29 -10 -52c-16 -54 -88 -98 -102 -100
c-29 -5 -51 26 -26 46c6 3 19 -7 40 22c13 20 11 51 7 76l-2 9c-4 13 -11 28 2 39c23 21 63 4 81 -17z" />
    <glyph glyph-name="endash" unicode="&#x2013;" horiz-adv-x="489" 
d="M57 211c-13 13 -12 79 19 82s73 -12 122 -12c113 0 177 1 190 6c13 7 35 2 42 -17c8 -18 40 -39 -54 -57c-63 -13 -108 -11 -159 -12c-83 -4 -135 -14 -160 10z" />
    <glyph glyph-name="emdash" unicode="&#x2014;" horiz-adv-x="616" 
d="M57 211c-13 13 -12 79 19 82s133 -12 182 -12c112 0 238 1 250 6c13 7 35 2 42 -17c8 -18 40 -39 -54 -57c-64 -13 -167 -9 -219 -12c-82 -5 -196 -14 -220 10z" />
    <glyph glyph-name="braceright" unicode="}" horiz-adv-x="833" 
d="M398 405c8 -48 -13 -78 -54 -106c-41 -30 -92 -51 -119 -100c-16 -45 -36 -93 -60 -137c-70 -134 -185 -235 -229 -265c-93 -61 -130 -23 -135 -4c-5 20 10 28 25 33c8 3 26 9 65 37c37 29 96 79 162 190c21 35 41 76 57 121l1 1c30 81 90 159 135 172
c-15 28 -84 50 -76 148c0 7 1 11 2 18c-3 59 -9 131 -17 171c-32 150 -109 109 -114 121c-17 19 1 85 43 93c31 8 71 8 108 -32c45 -51 66 -136 74 -179c4 -21 8 -72 11 -129l4 -48l2 -1c0 -67 107 -57 115 -104z" />
    <glyph glyph-name="less" unicode="&#x3c;" horiz-adv-x="514" 
d="M421 497c15 -8 33 -72 4 -83c-31 -11 -74 -8 -121 -21c-65 -19 -112 -30 -143 -41c44 -15 76 -32 115 -48c76 -32 127 -46 139 -78c5 -16 -22 -78 -51 -65c-31 11 -62 42 -106 62c-103 49 -159 76 -174 77c-15 0 -34 13 -31 33c1 12 -5 27 6 34c0 11 12 22 55 45
c57 28 102 37 150 53c77 27 128 48 157 32z" />
    <glyph glyph-name="greater" unicode="&#x3e;" horiz-adv-x="535" 
d="M424 364c15 -3 31 -15 28 -35c-2 -15 9 -39 -24 -36c-3 -6 -7 -10 -11 -11c-29 -13 -74 -13 -119 -30c-108 -39 -166 -58 -177 -69s-33 -14 -46 2c-13 15 -51 24 32 72c55 33 99 45 146 64c16 7 30 12 43 19c-23 11 -41 23 -64 34c-73 37 -122 55 -133 88
c-6 17 28 74 56 61c29 -13 58 -46 101 -70c99 -56 153 -86 168 -89z" />
    <glyph glyph-name="asciicircum" unicode="^" horiz-adv-x="493" 
d="M406 448c11 -11 17 -31 2 -46c-13 -16 -17 -52 -75 24c-37 51 -37 55 -61 100l-23 41c-9 -15 -17 -26 -33 -51c-44 -69 -68 -118 -101 -123c-18 -3 -70 34 -55 62c16 27 52 53 80 92c43 60 60 88 71 104c-1 9 -1 17 2 23c5 16 65 46 81 19c15 -28 21 -72 42 -116
c48 -102 60 -121 70 -129z" />
    <glyph glyph-name="OE" unicode="&#x152;" horiz-adv-x="889" 
d="M1222 719c37 -10 22 -57 -21 -76c-38 -16 -61 -1 -127 -1c-54 -3 -103 1 -156 -28c-64 -37 -125 -94 -178 -161c75 3 150 15 268 39c36 25 76 -68 -23 -95c-114 -32 -220 -20 -301 -23c-30 -46 -54 -93 -73 -142c-27 -70 -11 -172 44 -195c60 -25 165 1 205 31
c81 57 -11 -91 -108 -131c-55 -25 -140 -23 -181 10c-20 15 -63 46 -81 105c-72 -51 -151 -88 -231 -104c-44 -20 -118 -24 -160 -3c-19 4 -26 11 -30 19c-38 31 -118 97 -65 275c51 178 210 337 400 430c35 29 74 50 125 57c8 1 15 1 23 1l12 3c35 11 118 -90 105 -98
c14 -26 25 -55 33 -87c24 23 50 46 77 67h-1c-35 -24 -87 56 13 82c40 11 190 20 227 23c12 0 24 1 39 2c40 3 132 8 165 0zM396 91c35 27 66 58 91 93l10 44c13 47 34 92 61 137c-24 -3 -40 -3 -52 -6c-19 -3 -37 16 -25 43c16 35 41 46 120 49c9 95 -27 158 -99 158
c-31 0 -63 -8 -94 -23c-131 -76 -234 -199 -290 -343c-27 -70 -11 -172 44 -195c60 -25 162 1 205 31c17 13 26 17 29 12z" />
    <glyph glyph-name="oe" unicode="&#x153;" horiz-adv-x="488" 
d="M482 153c69 40 39 -19 10 -38c-30 -19 -204 -110 -274 -126c-44 -9 -72 8 -85 32c-31 -15 -60 -19 -85 -14c-65 13 -66 95 -39 133s85 112 121 120l11 3c-3 5 -6 9 -11 12c-32 26 10 22 26 11c9 -7 37 -26 58 -57c4 5 8 10 13 14c51 48 93 55 114 52c28 -3 67 -49 72 -90
c3 -41 -58 -74 -98 -93c-39 -18 -73 -43 -99 -1c-8 -11 -25 -45 27 -42c51 3 169 43 239 84zM324 211c-31 -12 -43 -24 -63 -48c18 5 58 23 63 48zM91 104c-2 -12 38 5 57 32c7 9 11 28 11 48c-29 -26 -65 -70 -68 -80z" />
    <glyph glyph-name="exclamdown" unicode="&#xa1;" horiz-adv-x="405" 
d="M90 -241c-20 -6 -92 31 -79 63s64 69 168 272c93 179 101 208 104 225c1 15 16 34 37 30c21 -3 43 -10 11 -108c-31 -100 -75 -199 -115 -279c-40 -78 -90 -192 -126 -203zM398 440c-25 -8 -71 4 -89 25c-19 20 -10 31 5 46s40 21 56 14c17 -8 17 -25 21 -38
c2 -12 23 -42 7 -47z" />
    <glyph glyph-name="questiondown" unicode="&#xbf;" horiz-adv-x="485" 
d="M107 -220c-56 32 -94 84 -70 191s42 103 82 145c38 44 160 106 174 144c19 54 70 94 81 61c11 -32 -22 -103 -48 -145s-140 -93 -167 -168c-45 -128 12 -160 42 -163c83 -5 130 99 205 112c74 13 82 -69 41 -107c-56 -49 -115 -73 -156 -84c-48 -13 -134 -18 -184 14z
M402 426c-25 -8 -72 4 -90 25c-19 20 -10 31 5 46s40 21 57 14c16 -8 16 -25 20 -38c3 -13 25 -41 8 -47z" />
    <glyph glyph-name="bullet" unicode="&#x2022;" horiz-adv-x="300" 
d="M165 260l7 2c-3 3 71 -30 58 -81c-13 -50 -77 -86 -116 -78c-41 8 -39 59 -24 82c17 25 53 70 75 75z" />
    <glyph glyph-name="breve" unicode="&#x2d8;" horiz-adv-x="414" 
d="M111 738c31 13 45 -6 50 -29c7 -23 28 -39 60 -36c37 3 49 20 62 45c18 34 61 27 53 -5c-8 -30 -31 -105 -134 -108c-77 -3 -102 63 -115 83c-14 19 10 44 24 50z" />
    <glyph glyph-name="dotaccent" unicode="&#x2d9;" horiz-adv-x="256" 
d="M186 725c0 -26 -29 -66 -56 -74c-25 -11 -32 2 -41 21c-8 20 -5 45 8 57c13 13 28 7 43 6c12 0 46 5 46 -10z" />
    <glyph glyph-name="ring" unicode="&#x2da;" horiz-adv-x="297" 
d="M192 748c14 -3 53 -36 29 -86c-23 -49 -93 -86 -132 -78c-37 8 -29 60 -7 82c21 24 68 70 91 75l7 2c-1 3 7 6 12 5zM175 664c8 9 14 24 18 43c-31 -24 -72 -61 -74 -71c-5 -11 36 5 56 28z" />
    <glyph glyph-name="hungarumlaut" unicode="&#x2dd;" horiz-adv-x="411" 
d="M110 654c12 11 33 35 44 74c0 1 1 2 1 3c3 10 38 1 46 -29c5 -19 2 -29 -18 -52c-19 -19 -42 -39 -65 -44c-24 -5 -44 -10 -45 5c0 11 16 24 37 43zM233 653c12 11 41 35 58 80c1 1 1 2 1 3c5 9 38 2 46 -30c7 -17 1 -29 -22 -54c-35 -36 -56 -45 -79 -50
c-21 -4 -39 -7 -40 8c-1 11 16 24 36 43z" />
    <glyph glyph-name="caron" unicode="&#x2c7;" horiz-adv-x="382" 
d="M293 726c8 -3 15 -11 12 -27c-8 -16 -18 -39 -27 -51c-37 -48 -61 -70 -85 -83c-13 -7 -28 -13 -47 -10c-22 3 -61 39 -69 86c-3 23 1 46 10 62c16 29 59 31 62 20v-2c-13 -72 11 -98 20 -109c18 8 64 36 90 91c15 23 23 26 34 23z" />
    <glyph glyph-name="circumflex" unicode="&#x2c6;" horiz-adv-x="329" 
d="M54 557c-7 3 -12 12 -8 28c9 16 22 39 33 51c43 48 69 70 94 82c15 7 31 14 48 11c22 -3 56 -39 59 -87c1 -23 -6 -45 -17 -62c-18 -29 -64 -30 -64 -20v3c21 72 4 92 -5 104c-19 -9 -64 -40 -104 -87c-19 -23 -25 -26 -36 -23z" />
    <glyph glyph-name="grave" unicode="`" horiz-adv-x="362" 
d="M224 633c19 -19 36 -32 33 -43c-3 -15 -26 -20 -50 -13c-21 5 -49 25 -77 64c-19 27 -30 45 -23 64c10 31 43 38 48 29c0 -1 1 -2 1 -3c13 -45 55 -88 68 -98z" />
    <glyph glyph-name="acute" unicode="&#xb4;" horiz-adv-x="300" 
d="M114 633c12 12 56 52 75 98c0 1 0 2 1 3c3 10 36 1 46 -29c5 -19 -4 -40 -28 -64c-35 -36 -60 -53 -83 -58c-23 -7 -47 -8 -48 7c0 11 16 24 37 43z" />
    <glyph glyph-name="dieresis" unicode="&#xa8;" horiz-adv-x="371" 
d="M127 723c13 0 47 5 47 -10c0 -25 -31 -67 -56 -74c-25 -11 -32 2 -41 21c-8 20 -5 45 7 57c15 13 30 7 43 6zM263 723c13 0 47 5 47 -10c0 -25 -31 -67 -56 -74c-25 -11 -32 2 -41 21c-8 20 -5 45 7 57c15 13 30 7 43 6z" />
    <glyph glyph-name="Agrave" unicode="&#xc0;" horiz-adv-x="573" 
d="M582 694c47 0 119 -24 76 -150c-19 -53 -60 -147 -107 -247c67 0 73 -29 35 -48c-11 -5 -34 -10 -66 -17c-53 -112 -104 -216 -120 -254c-34 -76 -31 -87 -26 -104c3 -18 -27 -37 -60 -4s-36 82 18 184c19 35 47 93 79 161c-77 -11 -154 -20 -187 -20c-23 -1 -43 1 -62 4
c-79 -117 -111 -189 -122 -213c-14 -30 -4 -70 -32 -64c-35 8 -79 44 -64 72c123 222 299 463 494 628c69 59 107 72 144 72zM444 287c51 117 105 249 132 337c-53 0 -194 -120 -341 -320l-34 -47c56 5 160 19 243 30zM655 833c19 -19 36 -32 33 -43c-3 -15 -26 -20 -50 -13
c-21 5 -49 25 -77 64c-19 27 -30 45 -23 64c10 31 43 38 48 29c0 -1 1 -2 1 -3c13 -45 55 -88 68 -98z" />
    <glyph glyph-name="Aacute" unicode="&#xc1;" horiz-adv-x="573" 
d="M582 694c47 0 119 -24 76 -150c-19 -53 -60 -147 -107 -247c67 0 73 -29 35 -48c-11 -5 -34 -10 -66 -17c-53 -112 -104 -216 -120 -254c-34 -76 -31 -87 -26 -104c3 -18 -27 -37 -60 -4s-36 82 18 184c19 35 47 93 79 161c-77 -11 -154 -20 -187 -20c-23 -1 -43 1 -62 4
c-79 -117 -111 -189 -122 -213c-14 -30 -4 -70 -32 -64c-35 8 -79 44 -64 72c123 222 299 463 494 628c69 59 107 72 144 72zM444 287c51 117 105 249 132 337c-53 0 -194 -120 -341 -320l-34 -47c56 5 160 19 243 30zM612 833c12 12 56 52 75 98c0 1 0 2 1 3
c3 10 36 1 46 -29c5 -19 -4 -40 -28 -64c-35 -36 -60 -53 -83 -58c-23 -7 -47 -8 -48 7c0 11 16 24 37 43z" />
    <glyph glyph-name="Acircumflex" unicode="&#xc2;" horiz-adv-x="573" 
d="M582 694c47 0 119 -24 76 -150c-19 -53 -60 -147 -107 -247c67 0 73 -29 35 -48c-11 -5 -34 -10 -66 -17c-53 -112 -104 -216 -120 -254c-34 -76 -31 -87 -26 -104c3 -18 -27 -37 -60 -4s-36 82 18 184c19 35 47 93 79 161c-77 -11 -154 -20 -187 -20c-23 -1 -43 1 -62 4
c-79 -117 -111 -189 -122 -213c-14 -30 -4 -70 -32 -64c-35 8 -79 44 -64 72c123 222 299 463 494 628c69 59 107 72 144 72zM444 287c51 117 105 249 132 337c-53 0 -194 -120 -341 -320l-34 -47c56 5 160 19 243 30zM516 757c-7 3 -12 12 -8 28c9 16 22 39 33 51
c43 48 69 70 94 82c15 7 31 14 48 11c22 -3 56 -39 59 -87c1 -23 -6 -45 -17 -62c-18 -29 -64 -30 -64 -20v3c21 72 4 92 -5 104c-19 -9 -64 -40 -104 -87c-19 -23 -25 -26 -36 -23z" />
    <glyph glyph-name="tilde" unicode="&#x2dc;" horiz-adv-x="291" 
d="M55 656c11 21 38 40 59 40s34 -12 49 -32s38 -13 43 -6c11 15 19 31 30 24s5 -29 0 -42c-8 -24 -45 -43 -78 -29c-34 14 -27 33 -50 30c-20 -3 -36 -28 -47 -23c-15 7 -17 17 -6 38z" />
    <glyph glyph-name="Atilde" unicode="&#xc3;" horiz-adv-x="573" 
d="M582 694c47 0 119 -24 76 -150c-19 -53 -60 -147 -107 -247c67 0 73 -29 35 -48c-11 -5 -34 -10 -66 -17c-53 -112 -104 -216 -120 -254c-34 -76 -31 -87 -26 -104c3 -18 -27 -37 -60 -4s-36 82 18 184c19 35 47 93 79 161c-77 -11 -154 -20 -187 -20c-23 -1 -43 1 -62 4
c-79 -117 -111 -189 -122 -213c-14 -30 -4 -70 -32 -64c-35 8 -79 44 -64 72c123 222 299 463 494 628c69 59 107 72 144 72zM444 287c51 117 105 249 132 337c-53 0 -194 -120 -341 -320l-34 -47c56 5 160 19 243 30zM540 809c11 21 38 40 59 40s34 -12 49 -32
s38 -13 43 -6c11 15 19 31 30 24s5 -29 0 -42c-8 -24 -45 -43 -78 -29c-34 14 -27 33 -50 30c-20 -3 -36 -28 -47 -23c-15 7 -17 17 -6 38z" />
    <glyph glyph-name="Adieresis" unicode="&#xc4;" horiz-adv-x="573" 
d="M582 694c47 0 119 -24 76 -150c-19 -53 -60 -147 -107 -247c67 0 73 -29 35 -48c-11 -5 -34 -10 -66 -17c-53 -112 -104 -216 -120 -254c-34 -76 -31 -87 -26 -104c3 -18 -27 -37 -60 -4s-36 82 18 184c19 35 47 93 79 161c-77 -11 -154 -20 -187 -20c-23 -1 -43 1 -62 4
c-79 -117 -111 -189 -122 -213c-14 -30 -4 -70 -32 -64c-35 8 -79 44 -64 72c123 222 299 463 494 628c69 59 107 72 144 72zM444 287c51 117 105 249 132 337c-53 0 -194 -120 -341 -320l-34 -47c56 5 160 19 243 30zM570 847c13 0 47 5 47 -10c0 -25 -31 -67 -56 -74
c-25 -11 -32 2 -41 21c-8 20 -5 45 7 57c15 13 30 7 43 6zM706 847c13 0 47 5 47 -10c0 -25 -31 -67 -56 -74c-25 -11 -32 2 -41 21c-8 20 -5 45 7 57c15 13 30 7 43 6z" />
    <glyph glyph-name="Aring" unicode="&#xc5;" horiz-adv-x="573" 
d="M582 694c47 0 119 -24 76 -150c-19 -53 -60 -147 -107 -247c67 0 73 -29 35 -48c-11 -5 -34 -10 -66 -17c-53 -112 -104 -216 -120 -254c-34 -76 -31 -87 -26 -104c3 -18 -27 -37 -60 -4s-36 82 18 184c19 35 47 93 79 161c-77 -11 -154 -20 -187 -20c-23 -1 -43 1 -62 4
c-79 -117 -111 -189 -122 -213c-14 -30 -4 -70 -32 -64c-35 8 -79 44 -64 72c123 222 299 463 494 628c69 59 107 72 144 72zM444 287c51 117 105 249 132 337c-53 0 -194 -120 -341 -320l-34 -47c56 5 160 19 243 30zM690 923c14 -3 53 -36 29 -86
c-23 -49 -93 -86 -132 -78c-37 8 -29 60 -7 82c21 24 68 70 91 75l7 2c-1 3 7 6 12 5zM673 839c8 9 14 24 18 43c-31 -24 -72 -61 -74 -71c-5 -11 36 5 56 28z" />
    <glyph glyph-name="Egrave" unicode="&#xc8;" 
d="M739 719c37 -10 22 -57 -21 -76c-38 -16 -61 -1 -127 -1c-54 -3 -103 1 -156 -28c-64 -37 -125 -94 -178 -161c75 3 150 15 268 39c36 25 76 -68 -23 -95c-114 -32 -220 -20 -301 -23c-30 -46 -54 -93 -73 -142c-27 -70 -11 -172 44 -195c60 -25 165 1 205 31
c81 57 -11 -91 -108 -131c-55 -25 -140 -23 -181 10c-35 27 -130 90 -74 281c13 47 34 92 61 137c-24 -3 -40 -3 -52 -6c-19 -3 -37 16 -25 43c19 38 42 46 135 49c47 60 102 114 163 161h-1c-35 -24 -87 56 13 82c40 11 190 20 227 23c12 0 24 1 39 2c40 3 132 8 165 0z
M555 812c19 -19 36 -32 33 -43c-3 -15 -26 -20 -50 -13c-21 5 -49 25 -77 64c-19 27 -30 45 -23 64c10 31 43 38 48 29c0 -1 1 -2 1 -3c13 -45 55 -88 68 -98z" />
    <glyph glyph-name="Eacute" unicode="&#xc9;" 
d="M739 719c37 -10 22 -57 -21 -76c-38 -16 -61 -1 -127 -1c-54 -3 -103 1 -156 -28c-64 -37 -125 -94 -178 -161c75 3 150 15 268 39c36 25 76 -68 -23 -95c-114 -32 -220 -20 -301 -23c-30 -46 -54 -93 -73 -142c-27 -70 -11 -172 44 -195c60 -25 165 1 205 31
c81 57 -11 -91 -108 -131c-55 -25 -140 -23 -181 10c-35 27 -130 90 -74 281c13 47 34 92 61 137c-24 -3 -40 -3 -52 -6c-19 -3 -37 16 -25 43c19 38 42 46 135 49c47 60 102 114 163 161h-1c-35 -24 -87 56 13 82c40 11 190 20 227 23c12 0 24 1 39 2c40 3 132 8 165 0z
M515 809c12 12 56 52 75 98c0 1 0 2 1 3c3 10 36 1 46 -29c5 -19 -4 -40 -28 -64c-35 -36 -60 -53 -83 -58c-23 -7 -47 -8 -48 7c0 11 16 24 37 43z" />
    <glyph glyph-name="Ecircumflex" unicode="&#xca;" 
d="M739 719c37 -10 22 -57 -21 -76c-38 -16 -61 -1 -127 -1c-54 -3 -103 1 -156 -28c-64 -37 -125 -94 -178 -161c75 3 150 15 268 39c36 25 76 -68 -23 -95c-114 -32 -220 -20 -301 -23c-30 -46 -54 -93 -73 -142c-27 -70 -11 -172 44 -195c60 -25 165 1 205 31
c81 57 -11 -91 -108 -131c-55 -25 -140 -23 -181 10c-35 27 -130 90 -74 281c13 47 34 92 61 137c-24 -3 -40 -3 -52 -6c-19 -3 -37 16 -25 43c19 38 42 46 135 49c47 60 102 114 163 161h-1c-35 -24 -87 56 13 82c40 11 190 20 227 23c12 0 24 1 39 2c40 3 132 8 165 0z
M457 757c-7 3 -12 12 -8 28c9 16 22 39 33 51c43 48 69 70 94 82c15 7 31 14 48 11c22 -3 56 -39 59 -87c1 -23 -6 -45 -17 -62c-18 -29 -64 -30 -64 -20v3c21 72 4 92 -5 104c-19 -9 -64 -40 -104 -87c-19 -23 -25 -26 -36 -23z" />
    <glyph glyph-name="Edieresis" unicode="&#xcb;" 
d="M739 719c37 -10 22 -57 -21 -76c-38 -16 -61 -1 -127 -1c-54 -3 -103 1 -156 -28c-64 -37 -125 -94 -178 -161c75 3 150 15 268 39c36 25 76 -68 -23 -95c-114 -32 -220 -20 -301 -23c-30 -46 -54 -93 -73 -142c-27 -70 -11 -172 44 -195c60 -25 165 1 205 31
c81 57 -11 -91 -108 -131c-55 -25 -140 -23 -181 10c-35 27 -130 90 -74 281c13 47 34 92 61 137c-24 -3 -40 -3 -52 -6c-19 -3 -37 16 -25 43c19 38 42 46 135 49c47 60 102 114 163 161h-1c-35 -24 -87 56 13 82c40 11 190 20 227 23c12 0 24 1 39 2c40 3 132 8 165 0z
M500 857c13 0 47 5 47 -10c0 -25 -31 -67 -56 -74c-25 -11 -32 2 -41 21c-8 20 -5 45 7 57c15 13 30 7 43 6zM636 857c13 0 47 5 47 -10c0 -25 -31 -67 -56 -74c-25 -11 -32 2 -41 21c-8 20 -5 45 7 57c15 13 30 7 43 6z" />
    <glyph glyph-name="Igrave" unicode="&#xcc;" horiz-adv-x="222" 
d="M465 715c27 3 48 -17 47 -33c0 -17 -22 -31 -83 -34h-7c-51 -88 -166 -282 -246 -445c-55 -112 -81 -181 -94 -224c11 1 24 1 37 4c51 11 81 -46 -34 -70l-19 -3c-3 -12 -9 -23 -25 -20c-8 1 -15 6 -22 13c-21 -2 -39 -3 -53 -3c-48 0 -49 33 -32 58c13 20 34 22 67 21
c1 13 5 29 10 46c28 95 196 454 235 529c13 27 27 56 42 85c-15 -3 -28 -2 -35 -5c-23 -9 -58 21 -43 49c13 23 24 32 51 39c13 4 38 3 75 0c13 17 24 27 33 30c13 3 53 -13 71 -36c8 0 16 0 25 -1zM441 833c19 -19 36 -32 33 -43c-3 -15 -26 -20 -50 -13
c-21 5 -49 25 -77 64c-19 27 -30 45 -23 64c10 31 43 38 48 29c0 -1 1 -2 1 -3c13 -45 55 -88 68 -98z" />
    <glyph glyph-name="Iacute" unicode="&#xcd;" horiz-adv-x="222" 
d="M465 715c27 3 48 -17 47 -33c0 -17 -22 -31 -83 -34h-7c-51 -88 -166 -282 -246 -445c-55 -112 -81 -181 -94 -224c11 1 24 1 37 4c51 11 81 -46 -34 -70l-19 -3c-3 -12 -9 -23 -25 -20c-8 1 -15 6 -22 13c-21 -2 -39 -3 -53 -3c-48 0 -49 33 -32 58c13 20 34 22 67 21
c1 13 5 29 10 46c28 95 196 454 235 529c13 27 27 56 42 85c-15 -3 -28 -2 -35 -5c-23 -9 -58 21 -43 49c13 23 24 32 51 39c13 4 38 3 75 0c13 17 24 27 33 30c13 3 53 -13 71 -36c8 0 16 0 25 -1zM442 833c12 12 56 52 75 98c0 1 0 2 1 3c3 10 36 1 46 -29
c5 -19 -4 -40 -28 -64c-35 -36 -60 -53 -83 -58c-23 -7 -47 -8 -48 7c0 11 16 24 37 43z" />
    <glyph glyph-name="Icircumflex" unicode="&#xce;" horiz-adv-x="222" 
d="M465 715c27 3 48 -17 47 -33c0 -17 -22 -31 -83 -34h-7c-51 -88 -166 -282 -246 -445c-55 -112 -81 -181 -94 -224c11 1 24 1 37 4c51 11 81 -46 -34 -70l-19 -3c-3 -12 -9 -23 -25 -20c-8 1 -15 6 -22 13c-21 -2 -39 -3 -53 -3c-48 0 -49 33 -32 58c13 20 34 22 67 21
c1 13 5 29 10 46c28 95 196 454 235 529c13 27 27 56 42 85c-15 -3 -28 -2 -35 -5c-23 -9 -58 21 -43 49c13 23 24 32 51 39c13 4 38 3 75 0c13 17 24 27 33 30c13 3 53 -13 71 -36c8 0 16 0 25 -1zM330 777c-7 3 -12 12 -8 28c9 16 22 39 33 51c43 48 69 70 94 82
c15 7 31 14 48 11c22 -3 56 -39 59 -87c1 -23 -6 -45 -17 -62c-18 -29 -64 -30 -64 -20v3c21 72 4 92 -5 104c-19 -9 -64 -40 -104 -87c-19 -23 -25 -26 -36 -23z" />
    <glyph glyph-name="Idieresis" unicode="&#xcf;" horiz-adv-x="222" 
d="M465 715c27 3 48 -17 47 -33c0 -17 -22 -31 -83 -34h-7c-51 -88 -166 -282 -246 -445c-55 -112 -81 -181 -94 -224c11 1 24 1 37 4c51 11 81 -46 -34 -70l-19 -3c-3 -12 -9 -23 -25 -20c-8 1 -15 6 -22 13c-21 -2 -39 -3 -53 -3c-48 0 -49 33 -32 58c13 20 34 22 67 21
c1 13 5 29 10 46c28 95 196 454 235 529c13 27 27 56 42 85c-15 -3 -28 -2 -35 -5c-23 -9 -58 21 -43 49c13 23 24 32 51 39c13 4 38 3 75 0c13 17 24 27 33 30c13 3 53 -13 71 -36c8 0 16 0 25 -1zM374 893c13 0 47 5 47 -10c0 -25 -31 -67 -56 -74c-25 -11 -32 2 -41 21
c-8 20 -5 45 7 57c15 13 30 7 43 6zM510 893c13 0 47 5 47 -10c0 -25 -31 -67 -56 -74c-25 -11 -32 2 -41 21c-8 20 -5 45 7 57c15 13 30 7 43 6z" />
    <glyph glyph-name="Ntilde" unicode="&#xd1;" horiz-adv-x="535" 
d="M718 598c1 -15 -9 -34 -13 -41c-49 -85 -211 -353 -254 -428c-42 -76 -27 -109 -95 -112c-20 -1 -47 14 -59 75c-8 41 -5 153 0 254c3 59 7 123 13 192c-65 -105 -189 -405 -225 -466c-35 -62 -25 -158 -109 -112c-35 19 -38 50 5 125c17 29 102 218 137 288
c35 75 180 274 200 290c20 17 34 10 57 -1c74 -34 69 -67 61 -99c-3 -17 -12 -110 -23 -201l-19 -177c101 109 220 346 267 413c11 13 12 23 17 26c19 8 37 -7 40 -26zM485 809c11 21 38 40 59 40s34 -12 49 -32s38 -13 43 -6c11 15 19 31 30 24s5 -29 0 -42
c-8 -24 -45 -43 -78 -29c-34 14 -27 33 -50 30c-20 -3 -36 -28 -47 -23c-15 7 -17 17 -6 38z" />
    <glyph glyph-name="Ograve" unicode="&#xd2;" horiz-adv-x="665" 
d="M679 652c46 -83 61 -208 19 -325c-66 -181 -249 -324 -429 -359c-44 -20 -118 -24 -160 -3c-19 4 -26 11 -30 19c-38 31 -118 97 -65 275c51 178 210 337 400 430c35 29 74 50 125 57c8 1 15 1 23 1l12 3c35 11 118 -90 105 -98zM576 344c69 160 35 285 -64 285
c-31 0 -63 -8 -94 -23c-131 -76 -234 -199 -290 -343c-27 -70 -11 -172 44 -195c60 -25 162 1 205 31c17 13 26 17 29 12c84 64 133 148 170 233zM614 833c19 -19 36 -32 33 -43c-3 -15 -26 -20 -50 -13c-21 5 -49 25 -77 64c-19 27 -30 45 -23 64c10 31 43 38 48 29
c0 -1 1 -2 1 -3c13 -45 55 -88 68 -98z" />
    <glyph glyph-name="Oacute" unicode="&#xd3;" horiz-adv-x="665" 
d="M679 652c46 -83 61 -208 19 -325c-66 -181 -249 -324 -429 -359c-44 -20 -118 -24 -160 -3c-19 4 -26 11 -30 19c-38 31 -118 97 -65 275c51 178 210 337 400 430c35 29 74 50 125 57c8 1 15 1 23 1l12 3c35 11 118 -90 105 -98zM576 344c69 160 35 285 -64 285
c-31 0 -63 -8 -94 -23c-131 -76 -234 -199 -290 -343c-27 -70 -11 -172 44 -195c60 -25 162 1 205 31c17 13 26 17 29 12c84 64 133 148 170 233zM597 833c12 12 56 52 75 98c0 1 0 2 1 3c3 10 36 1 46 -29c5 -19 -4 -40 -28 -64c-35 -36 -60 -53 -83 -58
c-23 -7 -47 -8 -48 7c0 11 16 24 37 43z" />
    <glyph glyph-name="Ocircumflex" unicode="&#xd4;" horiz-adv-x="665" 
d="M679 652c46 -83 61 -208 19 -325c-66 -181 -249 -324 -429 -359c-44 -20 -118 -24 -160 -3c-19 4 -26 11 -30 19c-38 31 -118 97 -65 275c51 178 210 337 400 430c35 29 74 50 125 57c8 1 15 1 23 1l12 3c35 11 118 -90 105 -98zM576 344c69 160 35 285 -64 285
c-31 0 -63 -8 -94 -23c-131 -76 -234 -199 -290 -343c-27 -70 -11 -172 44 -195c60 -25 162 1 205 31c17 13 26 17 29 12c84 64 133 148 170 233zM498 767c-7 3 -12 12 -8 28c9 16 22 39 33 51c43 48 69 70 94 82c15 7 31 14 48 11c22 -3 56 -39 59 -87
c1 -23 -6 -45 -17 -62c-18 -29 -64 -30 -64 -20v3c21 72 4 92 -5 104c-19 -9 -64 -40 -104 -87c-19 -23 -25 -26 -36 -23z" />
    <glyph glyph-name="Otilde" unicode="&#xd5;" horiz-adv-x="665" 
d="M679 652c46 -83 61 -208 19 -325c-66 -181 -249 -324 -429 -359c-44 -20 -118 -24 -160 -3c-19 4 -26 11 -30 19c-38 31 -118 97 -65 275c51 178 210 337 400 430c35 29 74 50 125 57c8 1 15 1 23 1l12 3c35 11 118 -90 105 -98zM576 344c69 160 35 285 -64 285
c-31 0 -63 -8 -94 -23c-131 -76 -234 -199 -290 -343c-27 -70 -11 -172 44 -195c60 -25 162 1 205 31c17 13 26 17 29 12c84 64 133 148 170 233zM521 856c11 21 38 40 59 40s34 -12 49 -32s38 -13 43 -6c11 15 19 31 30 24s5 -29 0 -42c-8 -24 -45 -43 -78 -29
c-34 14 -27 33 -50 30c-20 -3 -36 -28 -47 -23c-15 7 -17 17 -6 38z" />
    <glyph glyph-name="Odieresis" unicode="&#xd6;" horiz-adv-x="665" 
d="M679 652c46 -83 61 -208 19 -325c-66 -181 -249 -324 -429 -359c-44 -20 -118 -24 -160 -3c-19 4 -26 11 -30 19c-38 31 -118 97 -65 275c51 178 210 337 400 430c35 29 74 50 125 57c8 1 15 1 23 1l12 3c35 11 118 -90 105 -98zM576 344c69 160 35 285 -64 285
c-31 0 -63 -8 -94 -23c-131 -76 -234 -199 -290 -343c-27 -70 -11 -172 44 -195c60 -25 162 1 205 31c17 13 26 17 29 12c84 64 133 148 170 233zM557 877c13 0 47 5 47 -10c0 -25 -31 -67 -56 -74c-25 -11 -32 2 -41 21c-8 20 -5 45 7 57c15 13 30 7 43 6zM693 877
c13 0 47 5 47 -10c0 -25 -31 -67 -56 -74c-25 -11 -32 2 -41 21c-8 20 -5 45 7 57c15 13 30 7 43 6z" />
    <glyph glyph-name="Ugrave" unicode="&#xd9;" horiz-adv-x="639" 
d="M844 824c16 5 71 -31 57 -61c-16 -28 -170 -285 -270 -488c-98 -205 -96 -258 -96 -273c-2 -15 -6 -43 -39 -40c-22 0 -59 40 -30 135c7 23 22 57 42 101c-66 -87 -136 -165 -188 -190c-118 -54 -209 -40 -252 6c-64 72 -102 193 -22 332c80 138 157 304 176 336
c17 31 59 77 86 90c44 20 78 1 74 -38c-6 -39 -34 -59 -58 -94c-23 -35 -162 -245 -194 -326c-32 -79 4 -225 84 -228c79 -5 229 106 402 335c46 91 89 173 105 205c40 77 87 187 123 198zM596 833c19 -19 36 -32 33 -43c-3 -15 -26 -20 -50 -13c-21 5 -49 25 -77 64
c-19 27 -30 45 -23 64c10 31 43 38 48 29c0 -1 1 -2 1 -3c13 -45 55 -88 68 -98z" />
    <glyph glyph-name="Uacute" unicode="&#xda;" horiz-adv-x="639" 
d="M844 824c16 5 71 -31 57 -61c-16 -28 -170 -285 -270 -488c-98 -205 -96 -258 -96 -273c-2 -15 -6 -43 -39 -40c-22 0 -59 40 -30 135c7 23 22 57 42 101c-66 -87 -136 -165 -188 -190c-118 -54 -209 -40 -252 6c-64 72 -102 193 -22 332c80 138 157 304 176 336
c17 31 59 77 86 90c44 20 78 1 74 -38c-6 -39 -34 -59 -58 -94c-23 -35 -162 -245 -194 -326c-32 -79 4 -225 84 -228c79 -5 229 106 402 335c46 91 89 173 105 205c40 77 87 187 123 198zM586 833c12 12 56 52 75 98c0 1 0 2 1 3c3 10 36 1 46 -29c5 -19 -4 -40 -28 -64
c-35 -36 -60 -53 -83 -58c-23 -7 -47 -8 -48 7c0 11 16 24 37 43z" />
    <glyph glyph-name="Ucircumflex" unicode="&#xdb;" horiz-adv-x="639" 
d="M844 824c16 5 71 -31 57 -61c-16 -28 -170 -285 -270 -488c-98 -205 -96 -258 -96 -273c-2 -15 -6 -43 -39 -40c-22 0 -59 40 -30 135c7 23 22 57 42 101c-66 -87 -136 -165 -188 -190c-118 -54 -209 -40 -252 6c-64 72 -102 193 -22 332c80 138 157 304 176 336
c17 31 59 77 86 90c44 20 78 1 74 -38c-6 -39 -34 -59 -58 -94c-23 -35 -162 -245 -194 -326c-32 -79 4 -225 84 -228c79 -5 229 106 402 335c46 91 89 173 105 205c40 77 87 187 123 198zM498 777c-7 3 -12 12 -8 28c9 16 22 39 33 51c43 48 69 70 94 82c15 7 31 14 48 11
c22 -3 56 -39 59 -87c1 -23 -6 -45 -17 -62c-18 -29 -64 -30 -64 -20v3c21 72 4 92 -5 104c-19 -9 -64 -40 -104 -87c-19 -23 -25 -26 -36 -23z" />
    <glyph glyph-name="Udieresis" unicode="&#xdc;" horiz-adv-x="639" 
d="M844 824c16 5 71 -31 57 -61c-16 -28 -170 -285 -270 -488c-98 -205 -96 -258 -96 -273c-2 -15 -6 -43 -39 -40c-22 0 -59 40 -30 135c7 23 22 57 42 101c-66 -87 -136 -165 -188 -190c-118 -54 -209 -40 -252 6c-64 72 -102 193 -22 332c80 138 157 304 176 336
c17 31 59 77 86 90c44 20 78 1 74 -38c-6 -39 -34 -59 -58 -94c-23 -35 -162 -245 -194 -326c-32 -79 4 -225 84 -228c79 -5 229 106 402 335c46 91 89 173 105 205c40 77 87 187 123 198zM555 913c13 0 47 5 47 -10c0 -25 -31 -67 -56 -74c-25 -11 -32 2 -41 21
c-8 20 -5 45 7 57c15 13 30 7 43 6zM691 913c13 0 47 5 47 -10c0 -25 -31 -67 -56 -74c-25 -11 -32 2 -41 21c-8 20 -5 45 7 57c15 13 30 7 43 6z" />
    <glyph glyph-name="Yacute" unicode="&#xdd;" horiz-adv-x="438" 
d="M598 786c23 -36 6 -104 -37 -181c-44 -77 -180 -438 -235 -517c-111 -156 -169 -218 -197 -210c-27 7 -91 52 -86 66c8 26 62 29 181 180c68 89 153 277 217 426c-58 -88 -127 -189 -153 -226c-42 -58 -64 -69 -94 -66c-23 0 -60 6 -78 60c-14 38 -34 126 -53 207
c-11 47 -23 97 -34 150c-49 22 -23 95 -2 108c21 11 38 2 65 -11c88 -40 83 -70 78 -96c-3 -13 9 -86 22 -156c7 -41 16 -87 26 -137c33 -73 231 259 278 310l6 7c15 35 23 58 26 65c16 39 47 57 70 21zM309 833c12 12 56 52 75 98c0 1 0 2 1 3c3 10 36 1 46 -29
c5 -19 -4 -40 -28 -64c-35 -36 -60 -53 -83 -58c-23 -7 -47 -8 -48 7c0 11 16 24 37 43z" />
    <glyph glyph-name="agrave" unicode="&#xe0;" horiz-adv-x="428" 
d="M256 257c-12 0 -139 -72 -139 -103c10 0 161 73 169 69c15 -11 21 -32 9 -45c-16 -19 -40 -48 -14 -32c24 16 206 82 243 94c38 13 6 -35 -45 -67s-194 -106 -224 -117s-91 3 -72 57c-36 -21 -77 -33 -100 -42c-23 -8 -92 15 -81 82c10 66 125 135 157 143
c33 8 86 10 113 -20c7 -7 -3 -22 -16 -19zM258 389c19 -19 36 -32 33 -43c-3 -15 -26 -20 -50 -13c-21 5 -49 25 -77 64c-19 27 -30 45 -23 64c10 31 43 38 48 29c0 -1 1 -2 1 -3c13 -45 55 -88 68 -98z" />
    <glyph glyph-name="aacute" unicode="&#xe1;" horiz-adv-x="428" 
d="M256 257c-12 0 -139 -72 -139 -103c10 0 161 73 169 69c15 -11 21 -32 9 -45c-16 -19 -40 -48 -14 -32c24 16 206 82 243 94c38 13 6 -35 -45 -67s-194 -106 -224 -117s-91 3 -72 57c-36 -21 -77 -33 -100 -42c-23 -8 -92 15 -81 82c10 66 125 135 157 143
c33 8 86 10 113 -20c7 -7 -3 -22 -16 -19zM209 387c12 12 56 52 75 98c0 1 0 2 1 3c3 10 36 1 46 -29c5 -19 -4 -40 -28 -64c-35 -36 -60 -53 -83 -58c-23 -7 -47 -8 -48 7c0 11 16 24 37 43z" />
    <glyph glyph-name="acircumflex" unicode="&#xe2;" horiz-adv-x="428" 
d="M256 257c-12 0 -139 -72 -139 -103c10 0 161 73 169 69c15 -11 21 -32 9 -45c-16 -19 -40 -48 -14 -32c24 16 206 82 243 94c38 13 6 -35 -45 -67s-194 -106 -224 -117s-91 3 -72 57c-36 -21 -77 -33 -100 -42c-23 -8 -92 15 -81 82c10 66 125 135 157 143
c33 8 86 10 113 -20c7 -7 -3 -22 -16 -19zM116 355c-7 3 -12 12 -8 28c9 16 22 39 33 51c43 48 69 70 94 82c15 7 31 14 48 11c22 -3 56 -39 59 -87c1 -23 -6 -45 -17 -62c-18 -29 -64 -30 -64 -20v3c21 72 4 92 -5 104c-19 -9 -64 -40 -104 -87c-19 -23 -25 -26 -36 -23z
" />
    <glyph glyph-name="atilde" unicode="&#xe3;" horiz-adv-x="428" 
d="M256 257c-12 0 -139 -72 -139 -103c10 0 161 73 169 69c15 -11 21 -32 9 -45c-16 -19 -40 -48 -14 -32c24 16 206 82 243 94c38 13 6 -35 -45 -67s-194 -106 -224 -117s-91 3 -72 57c-36 -21 -77 -33 -100 -42c-23 -8 -92 15 -81 82c10 66 125 135 157 143
c33 8 86 10 113 -20c7 -7 -3 -22 -16 -19zM133 401c11 21 38 40 59 40s34 -12 49 -32s38 -13 43 -6c11 15 19 31 30 24s5 -29 0 -42c-8 -24 -45 -43 -78 -29c-34 14 -27 33 -50 30c-20 -3 -36 -28 -47 -23c-15 7 -17 17 -6 38z" />
    <glyph glyph-name="adieresis" unicode="&#xe4;" horiz-adv-x="428" 
d="M256 257c-12 0 -139 -72 -139 -103c10 0 161 73 169 69c15 -11 21 -32 9 -45c-16 -19 -40 -48 -14 -32c24 16 206 82 243 94c38 13 6 -35 -45 -67s-194 -106 -224 -117s-91 3 -72 57c-36 -21 -77 -33 -100 -42c-23 -8 -92 15 -81 82c10 66 125 135 157 143
c33 8 86 10 113 -20c7 -7 -3 -22 -16 -19zM159 451c13 0 47 5 47 -10c0 -25 -31 -67 -56 -74c-25 -11 -32 2 -41 21c-8 20 -5 45 7 57c15 13 30 7 43 6zM295 451c13 0 47 5 47 -10c0 -25 -31 -67 -56 -74c-25 -11 -32 2 -41 21c-8 20 -5 45 7 57c15 13 30 7 43 6z" />
    <glyph glyph-name="aring" unicode="&#xe5;" horiz-adv-x="428" 
d="M256 257c-12 0 -139 -72 -139 -103c10 0 161 73 169 69c15 -11 21 -32 9 -45c-16 -19 -40 -48 -14 -32c24 16 206 82 243 94c38 13 6 -35 -45 -67s-194 -106 -224 -117s-91 3 -72 57c-36 -21 -77 -33 -100 -42c-23 -8 -92 15 -81 82c10 66 125 135 157 143
c33 8 86 10 113 -20c7 -7 -3 -22 -16 -19zM278 500c14 -3 53 -36 29 -86c-23 -49 -93 -86 -132 -78c-37 8 -29 60 -7 82c21 24 68 70 91 75l7 2c-1 3 7 6 12 5zM261 416c8 9 14 24 18 43c-31 -24 -72 -61 -74 -71c-5 -11 36 5 56 28z" />
    <glyph glyph-name="egrave" unicode="&#xe8;" horiz-adv-x="355" 
d="M349 153c69 40 39 -19 10 -38c-30 -19 -204 -110 -274 -126c-72 -16 -101 40 -93 80s48 123 102 174c51 48 93 55 114 52c28 -3 67 -49 72 -90c3 -41 -58 -74 -98 -93c-39 -18 -73 -43 -99 -1c-8 -11 -25 -45 27 -42c51 3 169 43 239 84zM191 211
c-31 -12 -43 -24 -63 -48c18 5 58 23 63 48zM228 394c19 -19 36 -32 33 -43c-3 -15 -26 -20 -50 -13c-21 5 -49 25 -77 64c-19 27 -30 45 -23 64c10 31 43 38 48 29c0 -1 1 -2 1 -3c13 -45 55 -88 68 -98z" />
    <glyph glyph-name="eacute" unicode="&#xe9;" horiz-adv-x="355" 
d="M349 153c69 40 39 -19 10 -38c-30 -19 -204 -110 -274 -126c-72 -16 -101 40 -93 80s48 123 102 174c51 48 93 55 114 52c28 -3 67 -49 72 -90c3 -41 -58 -74 -98 -93c-39 -18 -73 -43 -99 -1c-8 -11 -25 -45 27 -42c51 3 169 43 239 84zM191 211
c-31 -12 -43 -24 -63 -48c18 5 58 23 63 48zM202 389c12 12 56 52 75 98c0 1 0 2 1 3c3 10 36 1 46 -29c5 -19 -4 -40 -28 -64c-35 -36 -60 -53 -83 -58c-23 -7 -47 -8 -48 7c0 11 16 24 37 43z" />
    <glyph glyph-name="ecircumflex" unicode="&#xea;" horiz-adv-x="355" 
d="M349 153c69 40 39 -19 10 -38c-30 -19 -204 -110 -274 -126c-72 -16 -101 40 -93 80s48 123 102 174c51 48 93 55 114 52c28 -3 67 -49 72 -90c3 -41 -58 -74 -98 -93c-39 -18 -73 -43 -99 -1c-8 -11 -25 -45 27 -42c51 3 169 43 239 84zM191 211
c-31 -12 -43 -24 -63 -48c18 5 58 23 63 48zM115 326c-7 3 -12 12 -8 28c9 16 22 39 33 51c43 48 69 70 94 82c15 7 31 14 48 11c22 -3 56 -39 59 -87c1 -23 -6 -45 -17 -62c-18 -29 -64 -30 -64 -20v3c21 72 4 92 -5 104c-19 -9 -64 -40 -104 -87c-19 -23 -25 -26 -36 -23z
" />
    <glyph glyph-name="edieresis" unicode="&#xeb;" horiz-adv-x="355" 
d="M349 153c69 40 39 -19 10 -38c-30 -19 -204 -110 -274 -126c-72 -16 -101 40 -93 80s48 123 102 174c51 48 93 55 114 52c28 -3 67 -49 72 -90c3 -41 -58 -74 -98 -93c-39 -18 -73 -43 -99 -1c-8 -11 -25 -45 27 -42c51 3 169 43 239 84zM191 211
c-31 -12 -43 -24 -63 -48c18 5 58 23 63 48zM161 428c13 0 47 5 47 -10c0 -25 -31 -67 -56 -74c-25 -11 -32 2 -41 21c-8 20 -5 45 7 57c15 13 30 7 43 6zM297 428c13 0 47 5 47 -10c0 -25 -31 -67 -56 -74c-25 -11 -32 2 -41 21c-8 20 -5 45 7 57c15 13 30 7 43 6z" />
    <glyph glyph-name="dotlessi" unicode="&#x131;" horiz-adv-x="253" 
d="M320 185c35 21 45 0 12 -30c-33 -29 -214 -165 -252 -174c-38 -11 -77 24 -72 81c5 54 50 160 77 192c27 33 34 33 42 33c19 0 58 -43 55 -59c-1 -16 -8 -17 -27 -28c-17 -13 -83 -139 -54 -131s185 95 219 116z" />
    <glyph glyph-name="igrave" unicode="&#xec;" horiz-adv-x="253" 
d="M320 185c35 21 45 0 12 -30c-33 -29 -214 -165 -252 -174c-38 -11 -77 24 -72 81c5 54 50 160 77 192c27 33 34 33 42 33c19 0 58 -43 55 -59c-1 -16 -8 -17 -27 -28c-17 -13 -83 -139 -54 -131s185 95 219 116zM181 420c19 -19 36 -32 33 -43c-3 -15 -26 -20 -50 -13
c-21 5 -49 25 -77 64c-19 27 -30 45 -23 64c10 31 43 38 48 29c0 -1 1 -2 1 -3c13 -45 55 -88 68 -98z" />
    <glyph glyph-name="iacute" unicode="&#xed;" horiz-adv-x="253" 
d="M320 185c35 21 45 0 12 -30c-33 -29 -214 -165 -252 -174c-38 -11 -77 24 -72 81c5 54 50 160 77 192c27 33 34 33 42 33c19 0 58 -43 55 -59c-1 -16 -8 -17 -27 -28c-17 -13 -83 -139 -54 -131s185 95 219 116zM182 426c12 12 56 52 75 98c0 1 0 2 1 3c3 10 36 1 46 -29
c5 -19 -4 -40 -28 -64c-35 -36 -60 -53 -83 -58c-23 -7 -47 -8 -48 7c0 11 16 24 37 43z" />
    <glyph glyph-name="icircumflex" unicode="&#xee;" horiz-adv-x="253" 
d="M320 185c35 21 45 0 12 -30c-33 -29 -214 -165 -252 -174c-38 -11 -77 24 -72 81c5 54 50 160 77 192c27 33 34 33 42 33c19 0 58 -43 55 -59c-1 -16 -8 -17 -27 -28c-17 -13 -83 -139 -54 -131s185 95 219 116zM71 361c-7 3 -12 12 -8 28c9 16 22 39 33 51
c43 48 69 70 94 82c15 7 31 14 48 11c22 -3 56 -39 59 -87c1 -23 -6 -45 -17 -62c-18 -29 -64 -30 -64 -20v3c21 72 4 92 -5 104c-19 -9 -64 -40 -104 -87c-19 -23 -25 -26 -36 -23z" />
    <glyph glyph-name="idieresis" unicode="&#xef;" horiz-adv-x="253" 
d="M320 185c35 21 45 0 12 -30c-33 -29 -214 -165 -252 -174c-38 -11 -77 24 -72 81c5 54 50 160 77 192c27 33 34 33 42 33c19 0 58 -43 55 -59c-1 -16 -8 -17 -27 -28c-17 -13 -83 -139 -54 -131s185 95 219 116zM106 454c13 0 47 5 47 -10c0 -25 -31 -67 -56 -74
c-25 -11 -32 2 -41 21c-8 20 -5 45 7 57c15 13 30 7 43 6zM242 454c13 0 47 5 47 -10c0 -25 -31 -67 -56 -74c-25 -11 -32 2 -41 21c-8 20 -5 45 7 57c15 13 30 7 43 6z" />
    <glyph glyph-name="ntilde" unicode="&#xf1;" horiz-adv-x="506" 
d="M195 355c15 -8 26 -28 19 -39c-6 -8 -44 -53 -92 -192c81 59 189 190 231 187c43 -3 61 -33 38 -84c-24 -53 -35 -143 -9 -135s96 49 127 70c31 18 18 -30 -38 -80c-56 -51 -96 -90 -146 -82s-53 156 -21 209c-14 8 -98 -102 -157 -167c-61 -64 -83 -71 -110 -68
c-25 3 -47 77 -31 102c16 27 28 34 58 113c29 74 56 147 62 161c7 15 34 24 69 5zM218 458c11 21 38 40 59 40s34 -12 49 -32s38 -13 43 -6c11 15 19 31 30 24s5 -29 0 -42c-8 -24 -45 -43 -78 -29c-34 14 -27 33 -50 30c-20 -3 -36 -28 -47 -23c-15 7 -17 17 -6 38z" />
    <glyph glyph-name="ograve" unicode="&#xf2;" horiz-adv-x="244" 
d="M156 286c16 -13 101 -72 79 -153s-122 -140 -187 -126c-65 13 -66 95 -39 133s85 112 121 120l11 3c-3 5 -6 9 -11 12c-32 26 10 22 26 11zM91 104c-2 -12 38 5 57 32c7 9 11 28 11 48c-29 -26 -65 -70 -68 -80zM186 390c19 -19 36 -32 33 -43c-3 -15 -26 -20 -50 -13
c-21 5 -49 25 -77 64c-19 27 -30 45 -23 64c10 31 43 38 48 29c0 -1 1 -2 1 -3c13 -45 55 -88 68 -98z" />
    <glyph glyph-name="oacute" unicode="&#xf3;" horiz-adv-x="244" 
d="M156 286c16 -13 101 -72 79 -153s-122 -140 -187 -126c-65 13 -66 95 -39 133s85 112 121 120l11 3c-3 5 -6 9 -11 12c-32 26 10 22 26 11zM91 104c-2 -12 38 5 57 32c7 9 11 28 11 48c-29 -26 -65 -70 -68 -80zM187 388c12 12 56 52 75 98c0 1 0 2 1 3c3 10 36 1 46 -29
c5 -19 -4 -40 -28 -64c-35 -36 -60 -53 -83 -58c-23 -7 -47 -8 -48 7c0 11 16 24 37 43z" />
    <glyph glyph-name="ocircumflex" unicode="&#xf4;" horiz-adv-x="244" 
d="M156 286c16 -13 101 -72 79 -153s-122 -140 -187 -126c-65 13 -66 95 -39 133s85 112 121 120l11 3c-3 5 -6 9 -11 12c-32 26 10 22 26 11zM91 104c-2 -12 38 5 57 32c7 9 11 28 11 48c-29 -26 -65 -70 -68 -80zM79 326c-7 3 -12 12 -8 28c9 16 22 39 33 51
c43 48 69 70 94 82c15 7 31 14 48 11c22 -3 56 -39 59 -87c1 -23 -6 -45 -17 -62c-18 -29 -64 -30 -64 -20v3c21 72 4 92 -5 104c-19 -9 -64 -40 -104 -87c-19 -23 -25 -26 -36 -23z" />
    <glyph glyph-name="otilde" unicode="&#xf5;" horiz-adv-x="244" 
d="M156 286c16 -13 101 -72 79 -153s-122 -140 -187 -126c-65 13 -66 95 -39 133s85 112 121 120l11 3c-3 5 -6 9 -11 12c-32 26 10 22 26 11zM91 104c-2 -12 38 5 57 32c7 9 11 28 11 48c-29 -26 -65 -70 -68 -80zM99 409c11 21 38 40 59 40s34 -12 49 -32s38 -13 43 -6
c11 15 19 31 30 24s5 -29 0 -42c-8 -24 -45 -43 -78 -29c-34 14 -27 33 -50 30c-20 -3 -36 -28 -47 -23c-15 7 -17 17 -6 38z" />
    <glyph glyph-name="odieresis" unicode="&#xf6;" horiz-adv-x="244" 
d="M156 286c16 -13 101 -72 79 -153s-122 -140 -187 -126c-65 13 -66 95 -39 133s85 112 121 120l11 3c-3 5 -6 9 -11 12c-32 26 10 22 26 11zM91 104c-2 -12 38 5 57 32c7 9 11 28 11 48c-29 -26 -65 -70 -68 -80zM128 451c13 0 47 5 47 -10c0 -25 -31 -67 -56 -74
c-25 -11 -32 2 -41 21c-8 20 -5 45 7 57c15 13 30 7 43 6zM264 451c13 0 47 5 47 -10c0 -25 -31 -67 -56 -74c-25 -11 -32 2 -41 21c-8 20 -5 45 7 57c15 13 30 7 43 6z" />
    <glyph glyph-name="ugrave" unicode="&#xf9;" horiz-adv-x="376" 
d="M176 294c9 -5 21 -18 -6 -54c-26 -37 -90 -159 -65 -140s142 116 172 176c12 25 17 24 34 21c18 -3 77 -29 61 -53c-16 -23 -84 -141 -95 -175c-14 -36 -2 -60 -19 -71c-16 -11 -30 -5 -51 18c-22 22 -12 72 -4 105c-55 -42 -85 -87 -139 -100c-55 -13 -68 58 -71 77
c-3 18 67 144 82 172c15 29 19 33 43 34c23 1 43 -3 58 -10zM258 418c19 -19 36 -32 33 -43c-3 -15 -26 -20 -50 -13c-21 5 -49 25 -77 64c-19 27 -30 45 -23 64c10 31 43 38 48 29c0 -1 1 -2 1 -3c13 -45 55 -88 68 -98z" />
    <glyph glyph-name="uacute" unicode="&#xfa;" horiz-adv-x="376" 
d="M176 294c9 -5 21 -18 -6 -54c-26 -37 -90 -159 -65 -140s142 116 172 176c12 25 17 24 34 21c18 -3 77 -29 61 -53c-16 -23 -84 -141 -95 -175c-14 -36 -2 -60 -19 -71c-16 -11 -30 -5 -51 18c-22 22 -12 72 -4 105c-55 -42 -85 -87 -139 -100c-55 -13 -68 58 -71 77
c-3 18 67 144 82 172c15 29 19 33 43 34c23 1 43 -3 58 -10zM258 415c12 12 56 52 75 98c0 1 0 2 1 3c3 10 36 1 46 -29c5 -19 -4 -40 -28 -64c-35 -36 -60 -53 -83 -58c-23 -7 -47 -8 -48 7c0 11 16 24 37 43z" />
    <glyph glyph-name="ucircumflex" unicode="&#xfb;" horiz-adv-x="376" 
d="M176 294c9 -5 21 -18 -6 -54c-26 -37 -90 -159 -65 -140s142 116 172 176c12 25 17 24 34 21c18 -3 77 -29 61 -53c-16 -23 -84 -141 -95 -175c-14 -36 -2 -60 -19 -71c-16 -11 -30 -5 -51 18c-22 22 -12 72 -4 105c-55 -42 -85 -87 -139 -100c-55 -13 -68 58 -71 77
c-3 18 67 144 82 172c15 29 19 33 43 34c23 1 43 -3 58 -10zM155 358c-7 3 -12 12 -8 28c9 16 22 39 33 51c43 48 69 70 94 82c15 7 31 14 48 11c22 -3 56 -39 59 -87c1 -23 -6 -45 -17 -62c-18 -29 -64 -30 -64 -20v3c21 72 4 92 -5 104c-19 -9 -64 -40 -104 -87
c-19 -23 -25 -26 -36 -23z" />
    <glyph glyph-name="udieresis" unicode="&#xfc;" horiz-adv-x="376" 
d="M176 294c9 -5 21 -18 -6 -54c-26 -37 -90 -159 -65 -140s142 116 172 176c12 25 17 24 34 21c18 -3 77 -29 61 -53c-16 -23 -84 -141 -95 -175c-14 -36 -2 -60 -19 -71c-16 -11 -30 -5 -51 18c-22 22 -12 72 -4 105c-55 -42 -85 -87 -139 -100c-55 -13 -68 58 -71 77
c-3 18 67 144 82 172c15 29 19 33 43 34c23 1 43 -3 58 -10zM217 461c13 0 47 5 47 -10c0 -25 -31 -67 -56 -74c-25 -11 -32 2 -41 21c-8 20 -5 45 7 57c15 13 30 7 43 6zM353 461c13 0 47 5 47 -10c0 -25 -31 -67 -56 -74c-25 -11 -32 2 -41 21c-8 20 -5 45 7 57
c15 13 30 7 43 6z" />
    <glyph glyph-name="yacute" unicode="&#xfd;" horiz-adv-x="400" 
d="M322 79l56 12c35 4 22 -20 -38 -41l-32 -10c-19 -51 -39 -98 -59 -133c-96 -164 -260 -212 -335 -228c-55 -13 -112 55 -81 146c26 76 171 169 407 233c23 57 35 108 43 139c-64 -49 -108 -90 -152 -102c-44 -13 -109 32 -96 81c9 29 61 91 102 116c35 21 45 20 61 17
c25 -6 12 -20 0 -37c-16 -20 -109 -132 -21 -96c40 16 99 81 122 107c2 17 6 23 11 20c17 -8 65 -19 62 -55c-3 -21 -23 -92 -50 -169zM177 -73c17 28 32 56 44 85c-65 -21 -141 -52 -209 -96c-118 -78 -155 -168 -114 -165c40 3 208 60 279 176zM286 418c12 12 56 52 75 98
c0 1 0 2 1 3c3 10 36 1 46 -29c5 -19 -4 -40 -28 -64c-35 -36 -60 -53 -83 -58c-23 -7 -47 -8 -48 7c0 11 16 24 37 43z" />
    <glyph glyph-name="ydieresis" unicode="&#xff;" horiz-adv-x="400" 
d="M322 79l56 12c35 4 22 -20 -38 -41l-32 -10c-19 -51 -39 -98 -59 -133c-96 -164 -260 -212 -335 -228c-55 -13 -112 55 -81 146c26 76 171 169 407 233c23 57 35 108 43 139c-64 -49 -108 -90 -152 -102c-44 -13 -109 32 -96 81c9 29 61 91 102 116c35 21 45 20 61 17
c25 -6 12 -20 0 -37c-16 -20 -109 -132 -21 -96c40 16 99 81 122 107c2 17 6 23 11 20c17 -8 65 -19 62 -55c-3 -21 -23 -92 -50 -169zM177 -73c17 28 32 56 44 85c-65 -21 -141 -52 -209 -96c-118 -78 -155 -168 -114 -165c40 3 208 60 279 176zM213 478c13 0 47 5 47 -10
c0 -25 -31 -67 -56 -74c-25 -11 -32 2 -41 21c-8 20 -5 45 7 57c15 13 30 7 43 6zM349 478c13 0 47 5 47 -10c0 -25 -31 -67 -56 -74c-25 -11 -32 2 -41 21c-8 20 -5 45 7 57c15 13 30 7 43 6z" />
    <glyph glyph-name="scaron" unicode="&#x161;" horiz-adv-x="261" 
d="M221 234c74 35 135 29 108 18c-39 -18 -123 -69 -181 -111c1 -8 1 -16 4 -24c12 -57 1 -112 -36 -140c-35 -27 -81 -24 -106 -1c-11 8 -19 23 -27 30c-8 8 -4 43 13 71c15 24 43 49 82 76c-3 11 -8 21 -11 32c-19 57 8 105 33 130c38 38 103 36 120 28
c16 -8 17 -31 10 -35c-5 -5 -8 -5 -17 -5c-25 0 -45 -18 -60 -53c-7 -15 -10 -35 -10 -58c27 16 55 31 78 42zM91 37c5 16 0 36 -3 63l-5 -4c-50 -39 -49 -69 -49 -80c1 -5 4 -10 9 -14c16 0 40 10 48 35zM310 555c8 -3 15 -11 12 -27c-8 -16 -18 -39 -27 -51
c-37 -48 -61 -70 -85 -83c-13 -7 -28 -13 -47 -10c-22 3 -61 39 -69 86c-3 23 1 46 10 62c16 29 59 31 62 20v-2c-13 -72 11 -98 20 -109c18 8 64 36 90 91c15 23 23 26 34 23z" />
    <glyph glyph-name="Ydieresis" unicode="&#x178;" horiz-adv-x="438" 
d="M598 786c23 -36 6 -104 -37 -181c-44 -77 -180 -438 -235 -517c-111 -156 -169 -218 -197 -210c-27 7 -91 52 -86 66c8 26 62 29 181 180c68 89 153 277 217 426c-58 -88 -127 -189 -153 -226c-42 -58 -64 -69 -94 -66c-23 0 -60 6 -78 60c-14 38 -34 126 -53 207
c-11 47 -23 97 -34 150c-49 22 -23 95 -2 108c21 11 38 2 65 -11c88 -40 83 -70 78 -96c-3 -13 9 -86 22 -156c7 -41 16 -87 26 -137c33 -73 231 259 278 310l6 7c15 35 23 58 26 65c16 39 47 57 70 21zM293 923c13 0 47 5 47 -10c0 -25 -31 -67 -56 -74
c-25 -11 -32 2 -41 21c-8 20 -5 45 7 57c15 13 30 7 43 6zM429 923c13 0 47 5 47 -10c0 -25 -31 -67 -56 -74c-25 -11 -32 2 -41 21c-8 20 -5 45 7 57c15 13 30 7 43 6z" />
    <glyph glyph-name="Scaron" unicode="&#x160;" horiz-adv-x="444" 
d="M488 669c-22 0 -40 -5 -103 -60c-65 -57 -253 -193 -286 -296c-19 -61 25 -73 85 -89c60 -17 120 -33 159 -68c31 -28 50 -69 41 -110c-19 -93 -164 -244 -288 -249c-125 -5 -82 129 -52 170c29 40 141 138 159 146c20 9 14 -7 -25 -58c-38 -49 -139 -195 -104 -195
c45 -3 162 64 215 191c15 31 17 57 4 68c-20 16 -54 29 -78 36c-43 11 -180 40 -206 116c-34 95 40 194 107 263c65 69 233 223 254 236c23 11 71 20 108 5c56 -24 43 -106 10 -106zM586 983c8 -3 15 -11 12 -27c-8 -16 -18 -39 -27 -51c-37 -48 -61 -70 -85 -83
c-13 -7 -28 -13 -47 -10c-22 3 -61 39 -69 86c-3 23 1 46 10 62c16 29 59 31 62 20v-2c-13 -72 11 -98 20 -109c18 8 64 36 90 91c15 23 23 26 34 23z" />
    <glyph glyph-name="perthousand" unicode="&#x2030;" horiz-adv-x="918" 
d="M534 216c13 -13 87 -72 47 -153c-38 -81 -152 -139 -214 -126s-44 96 -10 133c35 38 109 112 147 120l11 3c-2 5 -5 9 -8 12c-26 26 14 22 27 11zM495 66c9 11 16 28 21 49c-37 -26 -80 -70 -85 -81c-5 -13 41 6 64 32zM635 768c20 6 83 -31 64 -61
c-21 -29 -233 -283 -374 -488s-165 -267 -168 -283c-5 -15 -13 -33 -34 -30s-51 40 -1 135c51 95 292 453 348 529c24 35 51 74 78 109c-56 0 -196 1 -205 4c-8 3 20 -63 20 -88c-1 -1 -1 -1 -1 -2c0 -15 -3 -30 -11 -47c-38 -81 -153 -139 -214 -126s-46 96 -11 133
c35 38 110 112 147 120l12 3c-3 4 -3 6 -6 9l-3 3c-1 3 -2 5 -1 6c-3 11 -7 12 17 19c28 8 273 28 308 32h3c13 13 24 21 32 23zM265 549c9 9 16 28 21 49c-37 -26 -80 -70 -85 -81c-5 -12 39 5 64 32zM814 216c13 -13 87 -72 47 -153c-38 -81 -152 -139 -214 -126
s-44 96 -10 133c35 38 109 112 147 120l11 3c-2 5 -5 9 -8 12c-26 26 14 22 27 11zM775 66c9 11 16 28 21 49c-37 -26 -80 -70 -85 -81c-5 -13 41 6 64 32z" />
    <glyph glyph-name="Zcaron" unicode="&#x17d;" horiz-adv-x="631" 
d="M690 705c8 -29 14 -89 -40 -148c-37 -40 -223 -211 -364 -355h1l-86 -87c-35 -35 -62 -65 -83 -90c127 0 335 8 386 16c65 10 71 20 81 35c11 16 37 -8 26 -62c-11 -53 -35 -69 -126 -72c-86 -3 -321 -2 -455 -37c-7 -12 -17 -25 -33 -18c-20 -5 -61 91 11 123l9 13
c27 35 72 89 123 149c74 84 502 461 424 471l-148 -15c-77 -8 -154 -17 -169 -23c-26 -13 -57 -25 -115 51c-19 23 -32 38 -24 63s80 73 113 29l164 10c87 5 185 11 227 8c60 -3 73 -38 78 -61zM550 958c8 -3 15 -11 12 -27c-8 -16 -18 -39 -27 -51c-37 -48 -61 -70 -85 -83
c-13 -7 -28 -13 -47 -10c-22 3 -61 39 -69 86c-3 23 1 46 10 62c16 29 59 31 62 20v-2c-13 -72 11 -98 20 -109c18 8 64 36 90 91c15 23 23 26 34 23z" />
    <glyph glyph-name="zcaron" unicode="&#x17e;" horiz-adv-x="386" 
d="M102 317c110 16 193 33 233 9c39 -24 42 -62 -7 -101c-49 -37 -231 -137 -199 -141c30 -8 120 -4 159 1c40 3 2 -39 -79 -58c-80 -20 -139 -18 -184 17c-45 33 151 174 209 209c-8 16 -58 4 -150 -28s3 92 18 92zM364 558c8 -3 15 -11 12 -27c-8 -16 -18 -39 -27 -51
c-37 -48 -61 -70 -85 -83c-13 -7 -28 -13 -47 -10c-22 3 -61 39 -69 86c-3 23 1 46 10 62c16 29 59 31 62 20v-2c-13 -72 11 -98 20 -109c18 8 64 36 90 91c15 23 23 26 34 23z" />
    <glyph glyph-name="Lslash" unicode="&#x141;" horiz-adv-x="454" 
d="M458 4c37 -11 4 -92 -83 -95c-126 -3 -232 -61 -309 -45c-35 8 -89 6 -89 57c3 78 48 187 75 246c-21 -5 -37 -5 -48 0c-15 7 -39 71 -9 84c27 11 63 12 103 23c48 107 108 224 153 312c23 45 35 89 50 97c31 18 47 20 110 -6c55 -24 -32 -82 -56 -119
c-32 -53 -90 -156 -136 -242c43 16 66 26 73 31c11 11 32 14 45 -2c14 -17 51 -21 -32 -72c-55 -32 -96 -43 -143 -62c-8 -15 -14 -26 -17 -33c-18 -37 -77 -186 -45 -218c23 -21 125 11 215 24c42 5 115 28 143 20z" />
    <glyph glyph-name="lslash" unicode="&#x142;" horiz-adv-x="218" 
d="M475 705c3 -12 -10 -11 -18 -22c-29 -42 -112 -135 -243 -391c53 15 83 24 89 28c12 9 34 11 45 -6c12 -17 49 -27 -38 -69c-56 -27 -97 -34 -144 -47c-107 -217 -115 -278 -126 -307c-11 -33 -36 -51 -57 -22c-21 28 -13 86 18 154c11 23 32 75 60 142
c-27 -7 -45 -7 -60 1c-16 11 -32 73 -2 84c27 9 63 7 104 15c48 110 103 230 146 299c84 137 126 195 150 191c24 -5 76 -38 76 -50z" />
    <glyph glyph-name="AE" unicode="&#xc6;" horiz-adv-x="705" 
d="M1038 719c37 -10 22 -57 -21 -76c-38 -16 -61 -1 -127 -1c-54 -3 -160 2 -214 -28c-5 -7 -11 -19 -18 -34c-3 -12 -8 -24 -12 -39l-31 -89c76 5 192 15 309 40c36 25 76 -68 -23 -95c-114 -32 -233 -18 -314 -21c-3 -3 -2 -5 -5 -8c-11 -23 -20 -47 -31 -71l-9 -24
l-15 -41c-26 -68 -18 -176 35 -205c69 -40 173 11 214 41c81 57 -11 -91 -108 -131c-55 -25 -140 -23 -181 10c-35 27 -99 104 -59 268c-74 -11 -173 -20 -204 -20c-23 -1 -43 1 -62 4c-79 -117 -111 -189 -122 -213c-14 -30 -4 -70 -32 -64c-35 8 -79 44 -64 72
c123 222 299 463 494 628c69 59 107 72 144 72c13 0 28 -1 43 -8c46 21 174 28 209 31c12 0 24 1 39 2c40 3 132 8 165 0zM235 304l-34 -47c56 5 160 19 243 30l21 49c4 11 6 20 9 29c-24 -3 -48 12 -36 39c15 31 46 43 75 46c27 64 48 125 63 174
c-53 0 -194 -120 -341 -320z" />
    <glyph glyph-name="ae" unicode="&#xe6;" horiz-adv-x="597" 
d="M601 153c69 40 39 -19 10 -38c-30 -19 -204 -110 -274 -126c-72 -16 -101 40 -93 80c0 1 0 3 1 4c-23 -8 -45 -15 -62 -20c-36 -21 -77 -33 -100 -42c-23 -8 -92 15 -81 82c10 66 125 135 157 143c33 8 86 10 113 -20c7 -7 -3 -22 -16 -19c-12 0 -139 -72 -139 -103
c4 0 106 42 164 63c17 31 40 62 65 86c51 48 93 55 114 52c28 -3 67 -49 72 -90c3 -41 -58 -74 -98 -93c-39 -18 -73 -43 -99 -1c-8 -11 -25 -45 27 -42c51 3 169 43 239 84zM443 211c-31 -12 -43 -24 -63 -48c18 5 58 23 63 48z" />
    <glyph glyph-name="cedilla" unicode="&#xb8;" horiz-adv-x="228" 
d="M153 -32c17 -12 32 -24 29 -47c-3 -19 -9 -42 -24 -53s-40 -19 -56 -20c-33 -3 -52 7 -55 10c-13 12 -19 28 -14 39c11 16 28 15 41 8c3 -1 13 -8 16 -9c5 -1 9 -8 24 3c9 7 14 13 14 25c1 12 -13 33 -57 32c-11 0 -15 9 -15 16c-2 7 6 30 11 40c5 16 43 -3 34 -15
c-1 -2 -1 -4 -2 -5s-1 -2 -1 -3v-2c5 0 8 0 11 -1c19 -4 34 -10 44 -18z" />
    <glyph glyph-name="asciitilde" unicode="~" horiz-adv-x="419" 
d="M86 274c16 24 56 47 88 47c31 0 51 -14 74 -38c21 -24 59 -15 64 -7c15 17 30 36 45 29c15 -8 8 -35 0 -50c-13 -29 -67 -51 -117 -34c-51 16 -39 38 -76 35c-31 -3 -51 -32 -70 -27c-23 8 -24 20 -8 45z" />
    <glyph glyph-name="Euro" unicode="&#x20ac;" horiz-adv-x="483" 
d="M456 580c7 -15 -2 -15 -21 -34c-15 -16 -40 -15 -60 -10c-12 10 -26 15 -42 15c-23 0 -46 -7 -69 -38c-47 -31 -66 -65 -79 -106l45 6c68 11 110 22 133 5c11 -8 18 -58 -7 -64c-27 -5 -63 3 -103 -1l-85 -10l-10 -43l41 6c68 11 110 22 133 5c10 -8 18 -61 -7 -64
c-27 -5 -63 2 -103 -2l-83 -9c-16 -54 -20 -110 17 -128c44 -22 55 -20 87 4c8 7 14 11 19 11c0 0 1 0 2 -1c59 -32 -32 -105 -51 -116l-4 -3h-1c-35 -17 -68 -18 -99 -2c-37 10 -101 87 -74 220c-1 0 -2 -1 -3 -1h-1c-11 -7 -29 -5 -37 10c-8 14 -37 25 40 49l16 4
c3 15 7 29 11 44c-11 -5 -28 -5 -36 10c-8 14 -37 25 39 49l18 5c31 85 76 157 167 208c32 23 58 36 95 40c26 3 90 -34 112 -59z" />
    <glyph glyph-name="cent" unicode="&#xa2;" 
d="M350 426c16 -31 10 -48 -7 -47c-17 0 -13 29 -48 13c-20 -57 -44 -125 -61 -188c-3 -11 -5 -22 -8 -31c20 7 44 17 71 30c77 35 56 -31 -52 -85l-39 -18c-12 -47 -15 -64 -14 -71c1 -9 -6 -22 -19 -19s-22 21 -19 72c-45 -7 -87 25 -102 62s-23 70 0 114
c21 43 133 174 190 198c11 41 25 83 41 88c19 8 65 -11 55 -37l-21 -55c16 -5 27 -14 33 -26zM141 220c-13 -32 -9 -57 26 -60c9 44 22 99 35 148c-28 -33 -53 -67 -61 -88z" />
    <glyph glyph-name="sterling" unicode="&#xa3;" horiz-adv-x="523" 
d="M486 580c7 -15 -3 -15 -22 -34c-15 -16 -30 -15 -50 -10c-12 10 -26 15 -42 15c-77 3 -112 -135 -143 -248l18 3c68 11 110 22 133 5c10 -8 18 -61 -7 -64c-27 -5 -63 2 -103 -2c-21 -3 -41 -3 -61 -6c-11 -40 -19 -117 -30 -173c44 -3 90 -7 121 -4c40 3 77 16 98 23
c25 8 45 5 57 -6c7 -5 14 -22 11 -42c-2 -21 -11 -34 -26 -41c-27 -11 -72 -23 -119 -16c-56 8 -108 16 -149 17c-41 3 -69 -3 -76 -7c-13 -11 -34 1 -41 16c-4 11 -15 7 -12 18c3 8 14 24 46 35c-7 41 0 99 15 167c-13 -3 -22 -3 -25 -6c-11 -7 -29 -5 -37 10
c-8 14 -37 25 40 49l37 9c29 131 44 252 169 321c32 23 58 26 95 30c28 3 79 -35 103 -59z" />
    <glyph glyph-name="yen" unicode="&#xa5;" horiz-adv-x="493" 
d="M470 657c17 -27 4 -78 -27 -137c-21 -34 -66 -151 -109 -249c43 7 71 10 86 -5c11 -8 12 -61 -11 -64s-54 7 -90 4c-5 0 -10 -1 -14 -1c-3 -7 -6 -12 -9 -17c51 7 83 12 99 -4c10 -8 13 -61 -10 -64s-55 7 -91 4l-35 -2c-79 -112 -122 -157 -142 -150
c-21 5 -68 39 -65 50c5 16 36 20 100 92c-15 -3 -25 -2 -28 -5c-11 -5 -25 -3 -32 12c-5 13 -31 28 38 47c23 7 49 9 74 12c4 7 9 12 13 19c-37 -3 -63 -5 -68 -8c-11 -5 -25 -3 -32 12c-5 13 -31 28 38 47c29 8 65 11 98 14c35 67 70 146 99 215
c-45 -66 -95 -143 -115 -171c-32 -44 -48 -51 -71 -50c-18 0 -46 4 -59 46c-11 28 -28 94 -41 155l-25 114c-36 16 -18 73 -1 81c16 9 29 3 49 -8c65 -32 62 -51 59 -72c-3 -11 9 -64 17 -118c5 -31 12 -66 19 -103c24 -55 175 195 210 234c1 1 3 2 4 5l20 49
c12 28 36 43 52 16z" />
    <glyph glyph-name="copyright" unicode="&#xa9;" horiz-adv-x="663" 
d="M595 415c11 -60 4 -125 -19 -185c-37 -90 -102 -131 -163 -163c-36 -14 -103 -24 -157 -16c-93 13 -190 73 -201 205c-11 113 85 263 256 295c201 37 271 -68 284 -136zM533 348c3 9 0 23 -1 34c-5 62 -97 114 -201 90c-106 -26 -185 -102 -182 -213
c3 -87 78 -165 198 -144c51 8 84 28 105 43c78 62 78 171 81 190zM371 428c22 5 61 -1 74 -24c12 -24 8 -36 -5 -36c-14 0 -9 26 -43 6c-33 -19 -95 -93 -109 -125c-13 -32 30 -43 91 2c33 25 14 -20 -9 -51c-11 -13 -60 -37 -71 -40c-35 -8 -66 4 -77 32s-17 53 0 86
c16 33 110 142 149 150z" />
    <glyph glyph-name="registered" unicode="&#xae;" horiz-adv-x="663" 
d="M595 415c11 -60 4 -125 -19 -185c-37 -90 -102 -131 -163 -163c-36 -14 -103 -24 -157 -16c-93 13 -190 73 -201 205c-11 113 85 263 256 295c201 37 271 -68 284 -136zM533 348c3 9 0 23 -1 34c-5 62 -97 114 -201 90c-106 -26 -185 -102 -182 -213
c3 -87 78 -165 198 -144c51 8 84 28 105 43c78 62 78 171 81 190zM347 374c55 49 92 39 100 6c8 -28 -9 -66 -99 -103c3 -11 9 -34 18 -51c12 -21 33 -45 45 -45c22 0 -12 -27 -32 -24s-48 31 -63 54c-7 12 -15 30 -18 45c-8 -3 -13 -3 -21 -6l-14 -30
c-7 -16 -14 -32 -14 -35c-1 -5 -2 -11 -10 -10c-7 0 -25 21 -15 52c11 32 41 102 52 131c12 31 29 66 41 71c24 11 51 -14 48 -26c-3 -3 -9 -14 -18 -29zM287 269c39 21 109 58 96 92c-6 17 -44 -11 -59 -26c-13 -23 -24 -39 -37 -66z" />
    <glyph glyph-name="florin" unicode="&#x192;" horiz-adv-x="317" 
d="M269 106c64 9 76 3 73 -5c-2 -6 -34 -56 -103 -67c-32 -7 -78 -14 -123 -21c-75 -146 -134 -303 -171 -391c-34 -82 -142 -142 -193 -120c-50 21 -33 59 -12 56c55 -8 108 45 129 93c27 59 67 201 137 346c-5 0 -10 -1 -13 -1c-35 0 -48 75 -23 86c26 10 21 7 56 7
c4 0 13 1 25 1l8 16c62 129 152 272 204 296c60 27 91 3 99 -32c4 -16 3 -46 -13 -50c-17 -6 -15 22 -55 -21c-45 -45 -95 -138 -133 -203c41 3 81 6 108 10z" />
    <glyph glyph-name="trademark" unicode="&#x2122;" horiz-adv-x="624" 
d="M601 313c3 -1 -1 -21 -13 -26c-9 -3 -36 -4 -51 3c-15 11 -26 14 -23 41c1 17 6 51 13 82l11 57c-21 -35 -49 -67 -68 -95s-34 -50 -59 -51c-8 -1 -16 5 -19 28c-3 15 3 46 7 74l9 52c-29 -36 -57 -109 -73 -130c-16 -24 -13 -54 -42 -38c-12 7 -18 21 1 49
c8 10 46 80 62 106c16 27 77 105 85 111c8 7 14 4 22 0c25 -13 27 -34 23 -46c-3 -7 -6 -31 -10 -56c-3 -15 -5 -31 -7 -48c48 48 92 126 105 131c13 7 36 -1 43 -32c5 -27 -23 -124 -28 -170c0 -20 4 -31 12 -42zM324 564c-7 0 -14 0 -23 -1c-19 -33 -53 -86 -81 -146
c-37 -74 -35 -96 -35 -101c-1 -5 -3 -15 -15 -14c-9 0 -54 12 -44 48c12 35 95 197 100 207c-36 -3 -48 -8 -83 -16c-5 -15 -32 43 16 51c31 5 49 8 92 11c6 9 11 14 14 15c19 5 49 -3 54 -10c9 0 16 1 23 2c31 3 33 6 38 10c5 5 17 -2 12 -18c-5 -17 -25 -37 -68 -38z" />
    <glyph glyph-name="periodcentered" unicode="&#xb7;" horiz-adv-x="199" 
d="M45 296c24 8 70 -4 89 -25c19 -20 10 -31 -5 -46s-40 -21 -56 -14c-17 8 -17 25 -21 38c-5 12 -22 42 -7 47z" />
    <glyph glyph-name="Ccedilla" unicode="&#xc7;" horiz-adv-x="475" 
d="M692 706c21 -40 14 -62 -9 -61c-22 3 -38 37 -101 26c-207 -40 -386 -207 -463 -410c-27 -70 -11 -172 44 -195c60 -25 162 1 205 31c78 58 -11 -89 -108 -131c-25 -11 -56 -17 -87 -17l-2 -6c5 0 8 0 11 -1c19 -4 34 -10 44 -18c17 -12 32 -24 29 -47
c-3 -19 -9 -42 -24 -53s-40 -19 -56 -20c-33 -3 -52 7 -55 10c-13 12 -19 28 -14 39c11 16 28 15 41 8c3 -1 13 -8 16 -9c5 -1 9 -8 24 3c9 7 14 13 14 25c1 12 -13 33 -57 32c-11 0 -15 9 -15 16c-1 5 0 13 5 24c-23 5 -41 12 -56 24c-35 27 -129 90 -73 281
c64 228 302 419 560 491c35 11 106 -2 127 -42z" />
    <glyph glyph-name="ccedilla" unicode="&#xe7;" 
d="M480 219c19 12 25 -3 -4 -42c-29 -37 -308 -201 -375 -213c-1 -3 -2 -5 -2 -7c5 0 8 0 11 -1c19 -4 34 -10 44 -18c17 -12 32 -24 29 -47c-3 -19 -9 -42 -24 -53s-40 -19 -56 -20c-33 -3 -52 7 -55 10c-13 12 -19 28 -14 39c11 16 28 15 41 8c3 -1 13 -8 16 -9
c5 -1 9 -8 24 3c9 7 14 13 14 25c1 12 -13 33 -57 32c-11 0 -15 9 -15 16c-1 5 0 13 5 24c-31 9 -55 33 -66 60c-15 37 -23 70 0 114c21 45 148 189 199 201c28 6 83 -1 99 -33c16 -31 10 -48 -7 -47c-15 0 -14 35 -57 8c-44 -26 -129 -124 -145 -167s-2 -76 71 -52
c76 24 228 102 324 169z" />
    <glyph glyph-name="Eth" unicode="&#xd0;" horiz-adv-x="670" 
d="M543 750c126 16 234 -205 159 -399c-75 -196 -300 -342 -500 -350c-111 -5 -125 21 -120 39c5 19 77 8 107 14c228 42 330 178 391 313c69 152 35 271 -64 271c-80 0 -158 -47 -227 -111c-21 -40 -41 -84 -64 -127c80 8 133 19 158 -4c10 -12 18 -79 -16 -82
c-31 -4 -73 10 -122 7l-59 -3c-23 -48 -40 -92 -55 -128c-20 -33 -58 -129 -68 -160c-8 -21 -19 -42 -28 -58c-17 -24 -31 -40 -43 -39c-30 3 -49 84 -34 112l132 267c-17 -1 -29 -2 -35 -5c-12 -7 -35 -4 -42 15c-8 20 -42 35 51 59c24 6 46 10 66 12c37 76 71 141 86 168
c45 80 82 164 87 179c7 15 18 25 57 4c15 -8 28 -31 21 -42c-3 -3 -19 -35 -46 -86c56 56 112 123 208 134z" />
    <glyph glyph-name="eth" unicode="&#xf0;" horiz-adv-x="504" 
d="M555 525c14 -11 30 -73 3 -84c-28 -9 -69 -4 -113 -15c-1 -1 -2 -1 -3 -1c9 -55 9 -114 0 -173c-13 -77 -78 -212 -191 -263c-72 -35 -161 -38 -197 -17c-37 21 -105 143 -8 261c63 79 181 127 254 72c58 -42 9 -67 -9 -59c-19 8 -125 30 -184 -70
c-46 -73 21 -133 87 -109c67 27 122 90 141 206c9 55 8 94 3 125c-35 -9 -55 -15 -62 -20c-11 -9 -31 -10 -42 7s-43 28 35 67c14 7 28 14 43 19c-1 3 -2 2 -3 5c-13 23 -54 49 -83 41c-18 -5 -32 29 14 64c13 11 27 22 46 23c23 3 51 -7 72 -22c26 -18 47 -45 62 -80
c67 21 108 40 135 23z" />
    <glyph glyph-name="Oslash" unicode="&#xd8;" horiz-adv-x="665" 
d="M679 652c46 -83 61 -208 19 -325c-66 -181 -249 -324 -429 -359c-31 -15 -70 -19 -106 -16c-15 -27 -21 -42 -22 -46c-4 -15 -11 -33 -31 -29c-18 3 -46 31 -25 99c-3 2 -5 5 -6 8c-38 31 -118 97 -65 275c51 178 210 337 400 430c35 29 74 50 125 57c7 1 14 1 21 1
c32 47 62 83 81 88c21 6 84 -36 69 -64c-5 -8 -26 -36 -55 -75c19 -21 29 -41 24 -44zM128 263c-21 -55 -17 -131 15 -171c92 159 288 462 329 524c3 4 5 7 6 10c-19 -4 -39 -11 -60 -20c-131 -76 -234 -199 -290 -343zM576 344c48 112 46 207 6 254
c-72 -101 -163 -224 -230 -329c-51 -80 -95 -151 -130 -211c57 0 123 17 155 41c17 13 26 17 29 12c84 64 133 148 170 233z" />
    <glyph glyph-name="oslash" unicode="&#xf8;" horiz-adv-x="244" 
d="M287 448c16 5 80 -27 63 -55c-13 -20 -57 -63 -129 -175c15 -24 22 -53 14 -85c-16 -61 -79 -112 -138 -125c-48 -94 -56 -127 -59 -138c-3 -15 -8 -30 -27 -27c-18 3 -51 36 -14 121l24 54c-38 27 -36 91 -12 122c27 38 85 112 121 120l11 3c-3 5 -6 9 -11 12
c-32 26 10 22 26 11c3 -1 4 -3 8 -6c43 69 91 160 123 168z" />
    <glyph glyph-name="Thorn" unicode="&#xde;" horiz-adv-x="588" 
d="M341 677l-89 -171c185 136 373 54 353 -64c-19 -113 -190 -308 -548 -353c-15 -35 -26 -68 -33 -84c-9 -23 -18 -43 -29 -59c-17 -24 -31 -40 -42 -39c-30 3 -51 84 -35 113s214 436 258 516c45 79 82 163 87 178c7 15 20 26 57 5c15 -9 28 -31 21 -42zM477 419
c24 141 -161 42 -279 -19c-43 -87 -83 -173 -107 -236c-3 -5 -6 -10 -9 -17c161 46 374 155 395 272z" />
    <glyph glyph-name="thorn" unicode="&#xfe;" horiz-adv-x="412" 
d="M204 326c155 91 266 12 247 -96c-19 -114 -122 -252 -423 -276c0 -1 0 -2 -1 -2c-20 -33 -56 -129 -67 -159c-9 -23 -18 -43 -29 -59c-17 -24 -31 -40 -42 -39c-30 3 -51 84 -35 113s214 436 258 516c45 79 126 237 131 253c7 15 20 26 57 5c15 -9 28 -31 21 -42
c-2 -4 -77 -136 -117 -214zM323 207c19 114 -82 81 -169 21c-37 -76 -76 -155 -105 -222c139 27 253 78 274 201z" />
    <glyph glyph-name="degree" unicode="&#xb0;" horiz-adv-x="331" 
d="M219 683c32 11 119 -28 92 -132c-22 -81 -122 -140 -187 -126c-65 13 -66 95 -39 133s85 112 121 120c4 1 9 4 13 5zM139 501c0 -28 68 10 87 37c9 9 32 60 14 78c-59 -24 -101 -96 -101 -115z" />
    <glyph glyph-name="germandbls" unicode="&#xdf;" horiz-adv-x="833" 
d="M649 692c88 0 167 -56 103 -160c-48 -81 -189 -139 -267 -150c-142 -21 -138 -96 -50 -144c79 -42 59 -166 -62 -233c-76 -43 -242 -45 -234 42c3 31 75 116 70 63c-3 -39 33 -54 73 -43c43 11 94 59 73 94c-16 24 -58 26 -82 42c-73 48 -29 150 74 203
c92 43 222 11 294 121c59 94 -119 93 -177 68c-85 -35 -181 -150 -229 -223c-67 -102 -167 -261 -186 -375c-6 -39 8 -96 -46 -88c-44 5 -86 84 -65 124c51 83 69 161 125 252c90 146 148 219 276 302c101 69 207 105 310 105z" />
    <glyph glyph-name="plusminus" unicode="&#xb1;" horiz-adv-x="535" 
d="M379 108c11 -11 10 -64 -15 -67c-27 -3 -60 10 -100 10c-92 0 -144 -1 -155 -5c-11 -5 -27 -2 -34 14c-5 16 -34 30 44 46c52 11 87 7 130 10c68 3 110 11 130 -8zM491 397c8 -18 40 -39 -54 -57c-45 -11 -82 -10 -118 -11c-23 -64 -35 -113 -35 -124
c1 -15 -10 -31 -31 -28c-20 3 -40 9 -24 101l9 47c-60 -3 -99 -6 -120 13c-13 13 -12 79 19 82s73 -12 122 -12l10 29c25 75 35 123 67 134c17 6 79 -25 70 -54s-36 -59 -55 -102l-2 -6c57 0 91 1 100 5c13 7 35 2 42 -17z" />
    <glyph glyph-name="currency" unicode="&#xa4;" horiz-adv-x="557" 
d="M459 516c23 -3 54 -41 33 -59l-40 -37c21 -24 29 -50 29 -73c1 -43 -11 -86 -34 -123c0 -1 -1 -2 -2 -3c27 -25 50 -48 47 -63c-3 -21 -41 -53 -59 -33c-4 5 -18 19 -38 42c-25 -17 -51 -27 -76 -35c-25 -7 -73 -6 -108 6c-9 2 -18 5 -25 9c-27 -32 -37 -46 -40 -51
c-3 -9 -14 -16 -25 -8s-10 32 22 83c1 1 2 2 2 3c-31 27 -52 68 -48 125c3 36 22 76 54 108c-52 47 -72 61 -79 64c-8 3 -15 14 -8 25c8 11 32 10 83 -22c11 -7 26 -18 47 -35c31 19 68 31 109 31c35 1 62 -3 85 -10c27 30 56 59 71 56zM352 216c51 27 63 92 65 102
c3 5 2 13 2 20c3 35 -46 75 -107 70c-64 -7 -116 -42 -125 -106c-8 -51 30 -101 101 -101c31 0 51 8 64 15z" />
    <glyph glyph-name="ogonek" unicode="&#x2db;" horiz-adv-x="175" 
d="M4 -65c-3 23 12 35 29 47c10 8 25 14 44 18c3 1 6 1 11 1c37 1 45 -8 42 -15c0 -7 -4 -16 -15 -16c-44 1 -58 -20 -57 -32c0 -12 5 -18 14 -25c15 -11 19 -4 24 -3c3 1 13 8 16 9c13 7 30 8 41 -8c5 -11 -1 -27 -14 -39c-3 -3 -22 -13 -55 -10c-16 1 -41 9 -56 20
s-21 34 -24 53z" />
    <glyph glyph-name="Aogonek" unicode="&#x104;" horiz-adv-x="573" 
d="M582 694c47 0 119 -24 76 -150c-19 -53 -60 -147 -107 -247c67 0 73 -29 35 -48c-11 -5 -34 -10 -66 -17c-53 -112 -104 -216 -120 -254c-34 -76 -31 -87 -26 -104c2 -9 -2 -16 -12 -19c-3 -1 -4 -2 -5 -2c-4 -1 -8 -1 -13 0c-36 -3 -47 -21 -47 -32c0 -12 5 -18 14 -25
c15 -11 19 -4 24 -3c3 1 13 8 16 9c13 7 30 8 41 -8c5 -11 -1 -27 -14 -39c-3 -3 -22 -13 -55 -10c-16 1 -41 9 -56 20s-21 34 -24 53c-3 23 12 35 29 47c8 6 19 11 33 15c-23 32 -22 82 27 174c19 35 47 93 79 161c-77 -11 -154 -20 -187 -20c-23 -1 -43 1 -62 4
c-79 -117 -111 -189 -122 -213c-14 -30 -4 -70 -32 -64c-35 8 -79 44 -64 72c123 222 299 463 494 628c69 59 107 72 144 72zM444 287c51 117 105 249 132 337c-53 0 -194 -120 -341 -320l-34 -47c56 5 160 19 243 30z" />
    <glyph glyph-name="Lcaron" unicode="&#x13d;" horiz-adv-x="620" 
d="M251 586c23 45 35 89 50 97c31 18 47 20 110 -6c55 -24 -32 -82 -56 -119c-59 -94 -190 -345 -210 -380c-18 -37 -77 -186 -45 -218c23 -21 125 11 215 24c42 5 115 28 143 20c37 -11 4 -92 -83 -95c-126 -3 -232 -61 -309 -45c-35 8 -89 6 -89 57c3 84 56 204 80 259
c51 128 136 289 194 406zM684 551c1 -12 -3 -29 -10 -52c-16 -54 -88 -98 -102 -100c-29 -5 -51 26 -26 46c6 3 19 -7 40 22c13 20 11 51 7 76l-2 9c-4 13 -11 28 2 39c23 21 63 4 81 -17c7 -9 11 -16 10 -23z" />
    <glyph glyph-name="Sacute" unicode="&#x15a;" horiz-adv-x="444" 
d="M488 669c-22 0 -40 -5 -103 -60c-65 -57 -253 -193 -286 -296c-19 -61 25 -73 85 -89c60 -17 120 -33 159 -68c31 -28 50 -69 41 -110c-19 -93 -164 -244 -288 -249c-125 -5 -82 129 -52 170c29 40 141 138 159 146c20 9 14 -7 -25 -58c-38 -49 -139 -195 -104 -195
c45 -3 162 64 215 191c15 31 17 57 4 68c-20 16 -54 29 -78 36c-43 11 -180 40 -206 116c-34 95 40 194 107 263c65 69 233 223 254 236c23 11 71 20 108 5c56 -24 43 -106 10 -106zM490 852c12 12 56 52 75 98c0 1 0 2 1 3c3 10 36 1 46 -29c5 -19 -4 -40 -28 -64
c-35 -36 -60 -53 -83 -58c-23 -7 -47 -8 -48 7c0 11 16 24 37 43z" />
    <glyph glyph-name="Scedilla" unicode="&#x15e;" horiz-adv-x="444" 
d="M478 775c56 -24 43 -106 10 -106c-22 0 -40 -5 -103 -60c-65 -57 -253 -193 -286 -296c-19 -61 25 -73 85 -89c60 -17 120 -33 159 -68c31 -28 50 -69 41 -110c-19 -93 -164 -244 -288 -249h-5v-2c5 0 8 0 11 -1c19 -4 34 -10 44 -18c17 -12 32 -24 29 -47
c-3 -19 -9 -42 -24 -53s-40 -19 -56 -20c-33 -3 -52 7 -55 10c-13 12 -19 28 -14 39c11 16 28 15 41 8c3 -1 13 -8 16 -9c5 -1 9 -8 24 3c9 7 14 13 14 25c1 12 -13 33 -57 32c-11 0 -15 9 -15 16c-1 4 1 11 4 22c-72 24 -33 130 -9 165c29 40 141 138 159 146
c20 9 14 -7 -25 -58c-40 -48 -138 -195 -104 -195c45 -3 162 64 215 191c15 31 17 57 4 68c-20 16 -54 29 -78 36c-43 11 -180 40 -206 116c-34 95 40 194 107 263c65 69 232 225 254 236c23 11 71 20 108 5z" />
    <glyph glyph-name="Tcaron" unicode="&#x164;" horiz-adv-x="325" 
d="M667 782c14 11 44 -7 33 -50c-13 -44 -47 -56 -162 -59c-19 0 -39 -1 -62 -2c-53 -90 -165 -279 -242 -438c-99 -206 -93 -257 -96 -273c0 -15 -7 -43 -39 -40c-22 0 -59 40 -30 135c32 95 215 453 255 529c13 24 26 50 39 77c-101 -11 -215 -27 -315 -50
c-16 -40 -111 71 21 95c82 16 224 27 339 35c15 23 28 37 39 41c13 4 42 -13 54 -34c27 2 47 4 62 6c84 8 91 15 104 28zM620 969c8 -3 15 -11 12 -27c-8 -16 -18 -39 -27 -51c-37 -48 -61 -70 -85 -83c-13 -7 -28 -13 -47 -10c-22 3 -61 39 -69 86c-3 23 1 46 10 62
c16 29 59 31 62 20v-2c-13 -72 11 -98 20 -109c18 8 64 36 90 91c15 23 23 26 34 23z" />
    <glyph glyph-name="Zacute" unicode="&#x179;" horiz-adv-x="631" 
d="M690 705c8 -29 14 -89 -40 -148c-37 -40 -223 -211 -364 -355h1l-86 -87c-35 -35 -62 -65 -83 -90c127 0 335 8 386 16c65 10 71 20 81 35c11 16 37 -8 26 -62c-11 -53 -35 -69 -126 -72c-86 -3 -321 -2 -455 -37c-7 -12 -17 -25 -33 -18c-20 -5 -61 91 11 123l9 13
c27 35 72 89 123 149c74 84 502 461 424 471l-148 -15c-77 -8 -154 -17 -169 -23c-26 -13 -57 -25 -115 51c-19 23 -32 38 -24 63s80 73 113 29l164 10c87 5 185 11 227 8c60 -3 73 -38 78 -61zM434 846c12 12 56 52 75 98c0 1 0 2 1 3c3 10 36 1 46 -29
c5 -19 -4 -40 -28 -64c-35 -36 -60 -53 -83 -58c-23 -7 -47 -8 -48 7c0 11 16 24 37 43z" />
    <glyph glyph-name="Zdotaccent" unicode="&#x17b;" horiz-adv-x="631" 
d="M690 705c8 -29 14 -89 -40 -148c-37 -40 -223 -211 -364 -355h1l-86 -87c-35 -35 -62 -65 -83 -90c127 0 335 8 386 16c65 10 71 20 81 35c11 16 37 -8 26 -62c-11 -53 -35 -69 -126 -72c-86 -3 -321 -2 -455 -37c-7 -12 -17 -25 -33 -18c-20 -5 -61 91 11 123l9 13
c27 35 72 89 123 149c74 84 502 461 424 471l-148 -15c-77 -8 -154 -17 -169 -23c-26 -13 -57 -25 -115 51c-19 23 -32 38 -24 63s80 73 113 29l164 10c87 5 185 11 227 8c60 -3 73 -38 78 -61zM484 890c0 -26 -29 -66 -56 -74c-25 -11 -32 2 -41 21c-8 20 -5 45 8 57
c13 13 28 7 43 6c12 0 46 5 46 -10z" />
    <glyph glyph-name="aogonek" unicode="&#x105;" horiz-adv-x="428" 
d="M524 240c38 13 6 -35 -45 -67s-194 -106 -224 -117c-9 -4 -22 -4 -34 -3c-24 -5 -32 -19 -32 -30c0 -12 5 -18 14 -25c15 -11 19 -4 24 -3c3 1 13 8 16 9c13 7 30 8 41 -8c5 -11 -1 -27 -14 -39c-3 -3 -22 -13 -55 -10c-16 1 -41 9 -56 20s-21 34 -24 53
c-3 23 12 35 29 47c5 4 12 8 19 11c-5 10 -5 22 0 35c-36 -21 -77 -33 -100 -42c-23 -8 -92 15 -81 82c10 66 125 135 157 143c33 8 86 10 113 -20c7 -7 -3 -22 -16 -19c-12 0 -139 -72 -139 -103c10 0 161 73 169 69c15 -11 21 -32 9 -45c-16 -19 -40 -48 -14 -32
c24 16 206 83 243 94z" />
    <glyph glyph-name="lcaron" unicode="&#x13e;" horiz-adv-x="544" 
d="M457 683c-32 -42 -117 -141 -256 -416c-141 -274 -150 -343 -161 -376s-36 -51 -57 -22c-21 28 -13 86 18 154c28 68 165 406 248 541c84 137 126 195 150 191c24 -5 76 -38 76 -50c3 -12 -10 -11 -18 -22zM705 601c1 -12 -3 -29 -10 -52c-16 -54 -88 -98 -102 -100
c-29 -5 -51 26 -26 46c6 3 19 -7 40 22c13 20 11 51 7 76l-2 9c-4 13 -11 28 2 39c23 21 63 4 81 -17c7 -9 11 -16 10 -23z" />
    <glyph glyph-name="sacute" unicode="&#x15b;" horiz-adv-x="261" 
d="M221 234c74 35 135 29 108 18c-39 -18 -123 -69 -181 -111c1 -8 1 -16 4 -24c12 -57 1 -112 -36 -140c-35 -27 -81 -24 -106 -1c-11 8 -19 23 -27 30c-8 8 -4 43 13 71c15 24 43 49 82 76c-3 11 -8 21 -11 32c-19 57 8 105 33 130c38 38 103 36 120 28
c16 -8 17 -31 10 -35c-5 -5 -8 -5 -17 -5c-25 0 -45 -18 -60 -53c-7 -15 -10 -35 -10 -58c27 16 55 31 78 42zM91 37c5 16 0 36 -3 63l-5 -4c-50 -39 -49 -69 -49 -80c1 -5 4 -10 9 -14c16 0 40 10 48 35zM183 420c12 12 56 52 75 98c0 1 0 2 1 3c3 10 36 1 46 -29
c5 -19 -4 -40 -28 -64c-35 -36 -60 -53 -83 -58c-23 -7 -47 -8 -48 7c0 11 16 24 37 43z" />
    <glyph glyph-name="scedilla" unicode="&#x15f;" horiz-adv-x="261" 
d="M221 234c74 35 135 29 108 18c-39 -18 -123 -69 -181 -111c1 -8 1 -16 4 -24c12 -57 1 -112 -36 -140c-20 -15 -41 -21 -64 -19l-1 -1c5 0 8 0 11 -1c19 -4 34 -10 44 -18c17 -12 32 -24 29 -47c-3 -19 -9 -42 -24 -53s-40 -19 -56 -20c-33 -3 -52 7 -55 10
c-13 12 -19 28 -14 39c11 16 28 15 41 8c3 -1 13 -8 16 -9c5 -1 9 -8 24 3c9 7 14 13 14 25c1 12 -13 33 -57 32c-11 0 -15 9 -15 16c-1 5 3 18 7 29l-6 5c-11 8 -19 23 -27 30c-8 8 -4 43 13 71c15 24 48 51 87 78l-9 31c-19 57 1 104 28 128c26 23 101 38 118 29
c16 -8 17 -31 10 -35c-5 -5 -8 -5 -17 -5c-25 0 -45 -18 -60 -53c-7 -15 -10 -35 -10 -58c27 16 55 31 78 42zM91 37c5 16 5 38 2 65l-5 -4c-49 -39 -55 -71 -54 -82c1 -5 4 -10 9 -14c16 0 40 10 48 35z" />
    <glyph glyph-name="tcaron" unicode="&#x165;" horiz-adv-x="560" 
d="M407 641c1 -12 -11 -11 -18 -22c-24 -34 -84 -101 -175 -264c29 3 55 4 74 7c65 8 77 4 74 -4c-2 -7 -36 -57 -104 -68c-23 -4 -55 -8 -88 -15c-12 -23 -25 -45 -38 -72c-139 -275 -149 -343 -160 -376s-36 -51 -57 -23c-21 29 -13 87 18 155c16 39 71 170 127 299
c-21 -3 -37 -5 -48 -5c-34 -3 -48 75 -22 85c25 11 21 5 55 8c8 0 29 1 56 2c28 60 56 113 79 152c84 137 126 195 150 191c25 -6 74 -38 77 -50zM664 601c1 -12 -3 -29 -10 -52c-16 -54 -88 -98 -102 -100c-29 -5 -51 26 -26 46c6 3 19 -7 40 22c13 20 11 51 7 76l-2 9
c-4 13 -11 28 2 39c23 21 63 4 81 -17c7 -9 11 -16 10 -23z" />
    <glyph glyph-name="zacute" unicode="&#x17a;" horiz-adv-x="386" 
d="M102 317c110 16 193 33 233 9c39 -24 42 -62 -7 -101c-49 -37 -231 -137 -199 -141c30 -8 120 -4 159 1c40 3 2 -39 -79 -58c-80 -20 -139 -18 -184 17c-45 33 151 174 209 209c-8 16 -58 4 -150 -28s3 92 18 92zM229 416c12 12 56 52 75 98c0 1 0 2 1 3
c3 10 36 1 46 -29c5 -19 -4 -40 -28 -64c-35 -36 -60 -53 -83 -58c-23 -7 -47 -8 -48 7c0 11 16 24 37 43z" />
    <glyph glyph-name="zdotaccent" unicode="&#x17c;" horiz-adv-x="386" 
d="M102 317c110 16 193 33 233 9c39 -24 42 -62 -7 -101c-49 -37 -231 -137 -199 -141c30 -8 120 -4 159 1c40 3 2 -39 -79 -58c-80 -20 -139 -18 -184 17c-45 33 151 174 209 209c-8 16 -58 4 -150 -28s3 92 18 92zM293 449c0 -26 -29 -66 -56 -74c-25 -11 -32 2 -41 21
c-8 20 -5 45 8 57c13 13 28 7 43 6c12 0 46 5 46 -10z" />
    <glyph glyph-name="Racute" unicode="&#x154;" horiz-adv-x="637" 
d="M685 -197c34 10 15 -76 -66 -60c-72 16 -182 164 -257 319c-51 103 -73 190 -74 221c-25 -8 -51 -17 -79 -25c-7 -13 -12 -26 -19 -38c-112 -229 -121 -304 -121 -319c-3 -17 -7 -38 -31 -34c-24 3 -67 45 -33 152c32 108 221 509 264 595c44 87 100 209 138 223
c19 5 103 -35 87 -69c-5 -11 -26 -47 -57 -100c179 171 294 124 324 22c26 -92 -93 -253 -384 -373c11 -63 18 -128 119 -304c90 -157 184 -212 189 -210zM363 542c-44 -77 -93 -165 -136 -250c128 72 463 253 416 364c-44 96 -226 -64 -280 -114zM577 865
c12 12 56 52 75 98c0 1 0 2 1 3c3 10 36 1 46 -29c5 -19 -4 -40 -28 -64c-35 -36 -60 -53 -83 -58c-23 -7 -47 -8 -48 7c0 11 16 24 37 43z" />
    <glyph glyph-name="Abreve" unicode="&#x102;" horiz-adv-x="573" 
d="M582 694c47 0 119 -24 76 -150c-19 -53 -60 -147 -107 -247c67 0 73 -29 35 -48c-11 -5 -34 -10 -66 -17c-53 -112 -104 -216 -120 -254c-34 -76 -31 -87 -26 -104c3 -18 -27 -37 -60 -4s-36 82 18 184c19 35 47 93 79 161c-77 -11 -154 -20 -187 -20c-23 -1 -43 1 -62 4
c-79 -117 -111 -189 -122 -213c-14 -30 -4 -70 -32 -64c-35 8 -79 44 -64 72c123 222 299 463 494 628c69 59 107 72 144 72zM444 287c51 117 105 249 132 337c-53 0 -194 -120 -341 -320l-34 -47c56 5 160 19 243 30zM538 882c31 13 45 -6 50 -29c7 -23 28 -39 60 -36
c37 3 49 20 62 45c18 34 61 27 53 -5c-8 -30 -31 -105 -134 -108c-77 -3 -102 63 -115 83c-14 19 10 44 24 50z" />
    <glyph glyph-name="Lacute" unicode="&#x139;" horiz-adv-x="454" 
d="M251 586c23 45 35 89 50 97c31 18 47 20 110 -6c55 -24 -32 -82 -56 -119c-59 -94 -190 -345 -210 -380c-18 -37 -77 -186 -45 -218c23 -21 125 11 215 24c42 5 115 28 143 20c37 -11 4 -92 -83 -95c-126 -3 -232 -61 -309 -45c-35 8 -89 6 -89 57c3 84 56 204 80 259
c51 128 136 289 194 406zM402 800c12 12 56 52 75 98c0 1 0 2 1 3c3 10 36 1 46 -29c5 -19 -4 -40 -28 -64c-35 -36 -60 -53 -83 -58c-23 -7 -47 -8 -48 7c0 11 16 24 37 43z" />
    <glyph glyph-name="Cacute" unicode="&#x106;" horiz-adv-x="475" 
d="M565 748c35 11 106 -2 127 -42s14 -62 -9 -61c-22 3 -38 37 -101 26c-207 -40 -386 -207 -463 -410c-27 -70 -11 -172 44 -195c60 -25 162 1 205 31c78 58 -11 -89 -108 -131c-57 -25 -141 -23 -182 10c-35 27 -129 90 -73 281c64 228 302 419 560 491zM640 833
c12 12 56 52 75 98c0 1 0 2 1 3c3 10 36 1 46 -29c5 -19 -4 -40 -28 -64c-35 -36 -60 -53 -83 -58c-23 -7 -47 -8 -48 7c0 11 16 24 37 43z" />
    <glyph glyph-name="Ccaron" unicode="&#x10c;" horiz-adv-x="475" 
d="M565 748c35 11 106 -2 127 -42s14 -62 -9 -61c-22 3 -38 37 -101 26c-207 -40 -386 -207 -463 -410c-27 -70 -11 -172 44 -195c60 -25 162 1 205 31c78 58 -11 -89 -108 -131c-57 -25 -141 -23 -182 10c-35 27 -129 90 -73 281c64 228 302 419 560 491zM711 946
c8 -3 15 -11 12 -27c-8 -16 -18 -39 -27 -51c-37 -48 -61 -70 -85 -83c-13 -7 -28 -13 -47 -10c-22 3 -61 39 -69 86c-3 23 1 46 10 62c16 29 59 31 62 20v-2c-13 -72 11 -98 20 -109c18 8 64 36 90 91c15 23 23 26 34 23z" />
    <glyph glyph-name="Eogonek" unicode="&#x118;" 
d="M739 719c37 -10 22 -57 -21 -76c-38 -16 -61 -1 -127 -1c-54 -3 -103 1 -156 -28c-64 -37 -125 -94 -178 -161c75 3 150 15 268 39c36 25 76 -68 -23 -95c-114 -32 -220 -20 -301 -23c-30 -46 -54 -93 -73 -142c-27 -70 -11 -172 44 -195c60 -25 165 1 205 31
c51 37 32 -11 -15 -61c0 -1 -1 -2 -3 -3c-19 -19 -40 -38 -63 -53c-3 -5 -4 -9 -3 -12c0 -12 5 -18 14 -25c15 -11 19 -4 24 -3c3 1 13 8 16 9c13 7 30 8 41 -8c5 -11 -1 -27 -14 -39c-3 -3 -22 -13 -55 -10c-16 1 -41 9 -56 20c-13 9 -20 27 -23 44
c-53 -15 -119 -8 -152 20c-35 27 -130 90 -74 281c13 47 34 92 61 137c-24 -3 -40 -3 -52 -6c-19 -3 -37 16 -25 43c19 38 42 46 135 49c47 60 102 114 163 161h-1c-35 -24 -87 56 13 82c40 11 190 20 227 23c12 0 24 1 39 2c40 3 132 8 165 0z" />
    <glyph glyph-name="Ecaron" unicode="&#x11a;" 
d="M739 719c37 -10 22 -57 -21 -76c-38 -16 -61 -1 -127 -1c-54 -3 -103 1 -156 -28c-64 -37 -125 -94 -178 -161c75 3 150 15 268 39c36 25 76 -68 -23 -95c-114 -32 -220 -20 -301 -23c-30 -46 -54 -93 -73 -142c-27 -70 -11 -172 44 -195c60 -25 165 1 205 31
c81 57 -11 -91 -108 -131c-55 -25 -140 -23 -181 10c-35 27 -130 90 -74 281c13 47 34 92 61 137c-24 -3 -40 -3 -52 -6c-19 -3 -37 16 -25 43c19 38 42 46 135 49c47 60 102 114 163 161h-1c-35 -24 -87 56 13 82c40 11 190 20 227 23c12 0 24 1 39 2c40 3 132 8 165 0z
M694 926c8 -3 15 -11 12 -27c-8 -16 -18 -39 -27 -51c-37 -48 -61 -70 -85 -83c-13 -7 -28 -13 -47 -10c-22 3 -61 39 -69 86c-3 23 1 46 10 62c16 29 59 31 62 20v-2c-13 -72 11 -98 20 -109c18 8 64 36 90 91c15 23 23 26 34 23z" />
    <glyph glyph-name="Dcaron" unicode="&#x10e;" horiz-adv-x="670" 
d="M543 750c126 16 234 -205 159 -399c-75 -196 -300 -342 -500 -350c-111 -5 -125 21 -120 39c5 19 77 8 107 14c228 42 330 178 391 313c69 152 35 271 -64 271c-80 0 -158 -47 -227 -111c-56 -112 -126 -249 -158 -337c-20 -33 -58 -129 -68 -160c-8 -21 -19 -42 -28 -58
c-17 -24 -31 -40 -43 -39c-30 3 -49 84 -34 112c16 29 214 436 258 516c45 80 82 164 87 179c7 15 18 25 57 4c15 -8 28 -31 21 -42c-3 -3 -19 -35 -46 -86c56 56 112 123 208 134zM664 945c8 -3 15 -11 12 -27c-8 -16 -18 -39 -27 -51c-37 -48 -61 -70 -85 -83
c-13 -7 -28 -13 -47 -10c-22 3 -61 39 -69 86c-3 23 1 46 10 62c16 29 59 31 62 20v-2c-13 -72 11 -98 20 -109c18 8 64 36 90 91c15 23 23 26 34 23z" />
    <glyph glyph-name="Dcroat" unicode="&#x110;" horiz-adv-x="670" 
d="M543 750c126 16 234 -205 159 -399c-75 -196 -300 -342 -500 -350c-111 -5 -125 21 -120 39c5 19 77 8 107 14c228 42 330 178 391 313c69 152 35 271 -64 271c-80 0 -158 -47 -227 -111c-21 -40 -41 -84 -64 -127c80 8 133 19 158 -4c10 -12 18 -79 -16 -82
c-31 -4 -73 10 -122 7l-59 -3c-23 -48 -40 -92 -55 -128c-20 -33 -58 -129 -68 -160c-8 -21 -19 -42 -28 -58c-17 -24 -31 -40 -43 -39c-30 3 -49 84 -34 112l132 267c-17 -1 -29 -2 -35 -5c-12 -7 -35 -4 -42 15c-8 20 -42 35 51 59c24 6 46 10 66 12c37 76 71 141 86 168
c45 80 82 164 87 179c7 15 18 25 57 4c15 -8 28 -31 21 -42c-3 -3 -19 -35 -46 -86c56 56 112 123 208 134z" />
    <glyph glyph-name="Nacute" unicode="&#x143;" horiz-adv-x="535" 
d="M718 598c1 -15 -9 -34 -13 -41c-49 -85 -211 -353 -254 -428c-42 -76 -27 -109 -95 -112c-20 -1 -47 14 -59 75c-8 41 -5 153 0 254c3 59 7 123 13 192c-65 -105 -189 -405 -225 -466c-35 -62 -25 -158 -109 -112c-35 19 -38 50 5 125c17 29 102 218 137 288
c35 75 180 274 200 290c20 17 34 10 57 -1c74 -34 69 -67 61 -99c-3 -17 -12 -110 -23 -201l-19 -177c101 109 220 346 267 413c11 13 12 23 17 26c19 8 37 -7 40 -26zM571 764c12 12 56 52 75 98c0 1 0 2 1 3c3 10 36 1 46 -29c5 -19 -4 -40 -28 -64
c-35 -36 -60 -53 -83 -58c-23 -7 -47 -8 -48 7c0 11 16 24 37 43z" />
    <glyph glyph-name="Ncaron" unicode="&#x147;" horiz-adv-x="535" 
d="M718 598c1 -15 -9 -34 -13 -41c-49 -85 -211 -353 -254 -428c-42 -76 -27 -109 -95 -112c-20 -1 -47 14 -59 75c-8 41 -5 153 0 254c3 59 7 123 13 192c-65 -105 -189 -405 -225 -466c-35 -62 -25 -158 -109 -112c-35 19 -38 50 5 125c17 29 102 218 137 288
c35 75 180 274 200 290c20 17 34 10 57 -1c74 -34 69 -67 61 -99c-3 -17 -12 -110 -23 -201l-19 -177c101 109 220 346 267 413c11 13 12 23 17 26c19 8 37 -7 40 -26zM702 877c8 -3 15 -11 12 -27c-8 -16 -18 -39 -27 -51c-37 -48 -61 -70 -85 -83c-13 -7 -28 -13 -47 -10
c-22 3 -61 39 -69 86c-3 23 1 46 10 62c16 29 59 31 62 20v-2c-13 -72 11 -98 20 -109c18 8 64 36 90 91c15 23 23 26 34 23z" />
    <glyph glyph-name="Ohungarumlaut" unicode="&#x150;" horiz-adv-x="665" 
d="M679 652c46 -83 61 -208 19 -325c-66 -181 -249 -324 -429 -359c-44 -20 -118 -24 -160 -3c-19 4 -26 11 -30 19c-38 31 -118 97 -65 275c51 178 210 337 400 430c35 29 74 50 125 57c8 1 15 1 23 1l12 3c35 11 118 -90 105 -98zM576 344c69 160 35 285 -64 285
c-31 0 -63 -8 -94 -23c-131 -76 -234 -199 -290 -343c-27 -70 -11 -172 44 -195c60 -25 162 1 205 31c17 13 26 17 29 12c84 64 133 148 170 233zM560 854c12 11 33 35 44 74c0 1 1 2 1 3c3 10 38 1 46 -29c5 -19 2 -29 -18 -52c-19 -19 -42 -39 -65 -44
c-24 -5 -44 -10 -45 5c0 11 16 24 37 43zM683 853c12 11 41 35 58 80c1 1 1 2 1 3c5 9 38 2 46 -30c7 -17 1 -29 -22 -54c-35 -36 -56 -45 -79 -50c-21 -4 -39 -7 -40 8c-1 11 16 24 36 43z" />
    <glyph glyph-name="Rcaron" unicode="&#x158;" horiz-adv-x="637" 
d="M685 -197c34 10 15 -76 -66 -60c-72 16 -182 164 -257 319c-51 103 -73 190 -74 221c-25 -8 -51 -17 -79 -25c-7 -13 -12 -26 -19 -38c-112 -229 -121 -304 -121 -319c-3 -17 -7 -38 -31 -34c-24 3 -67 45 -33 152c32 108 221 509 264 595c44 87 100 209 138 223
c19 5 103 -35 87 -69c-5 -11 -26 -47 -57 -100c179 171 294 124 324 22c26 -92 -93 -253 -384 -373c11 -63 18 -128 119 -304c90 -157 184 -212 189 -210zM363 542c-44 -77 -93 -165 -136 -250c128 72 463 253 416 364c-44 96 -226 -64 -280 -114zM738 973
c8 -3 15 -11 12 -27c-8 -16 -18 -39 -27 -51c-37 -48 -61 -70 -85 -83c-13 -7 -28 -13 -47 -10c-22 3 -61 39 -69 86c-3 23 1 46 10 62c16 29 59 31 62 20v-2c-13 -72 11 -98 20 -109c18 8 64 36 90 91c15 23 23 26 34 23z" />
    <glyph glyph-name="Uring" unicode="&#x16e;" horiz-adv-x="639" 
d="M844 824c16 5 71 -31 57 -61c-16 -28 -170 -285 -270 -488c-98 -205 -96 -258 -96 -273c-2 -15 -6 -43 -39 -40c-22 0 -59 40 -30 135c7 23 22 57 42 101c-66 -87 -136 -165 -188 -190c-118 -54 -209 -40 -252 6c-64 72 -102 193 -22 332c80 138 157 304 176 336
c17 31 59 77 86 90c44 20 78 1 74 -38c-6 -39 -34 -59 -58 -94c-23 -35 -162 -245 -194 -326c-32 -79 4 -225 84 -228c79 -5 229 106 402 335c46 91 89 173 105 205c40 77 87 187 123 198zM672 948c14 -3 53 -36 29 -86c-23 -49 -93 -86 -132 -78c-37 8 -29 60 -7 82
c21 24 68 70 91 75l7 2c-1 3 7 6 12 5zM655 864c8 9 14 24 18 43c-31 -24 -72 -61 -74 -71c-5 -11 36 5 56 28z" />
    <glyph glyph-name="Uhungarumlaut" unicode="&#x170;" horiz-adv-x="639" 
d="M844 824c16 5 71 -31 57 -61c-16 -28 -170 -285 -270 -488c-98 -205 -96 -258 -96 -273c-2 -15 -6 -43 -39 -40c-22 0 -59 40 -30 135c7 23 22 57 42 101c-66 -87 -136 -165 -188 -190c-118 -54 -209 -40 -252 6c-64 72 -102 193 -22 332c80 138 157 304 176 336
c17 31 59 77 86 90c44 20 78 1 74 -38c-6 -39 -34 -59 -58 -94c-23 -35 -162 -245 -194 -326c-32 -79 4 -225 84 -228c79 -5 229 106 402 335c46 91 89 173 105 205c40 77 87 187 123 198zM520 854c12 11 33 35 44 74c0 1 1 2 1 3c3 10 38 1 46 -29c5 -19 2 -29 -18 -52
c-19 -19 -42 -39 -65 -44c-24 -5 -44 -10 -45 5c0 11 16 24 37 43zM643 853c12 11 41 35 58 80c1 1 1 2 1 3c5 9 38 2 46 -30c7 -17 1 -29 -22 -54c-35 -36 -56 -45 -79 -50c-21 -4 -39 -7 -40 8c-1 11 16 24 36 43z" />
    <glyph glyph-name="uni0162" unicode="&#x162;" horiz-adv-x="325" 
d="M667 782c14 11 44 -7 33 -50c-13 -44 -47 -56 -162 -59c-19 0 -39 -1 -62 -2c-53 -90 -165 -279 -242 -438c-99 -206 -93 -257 -96 -273c0 -15 -7 -43 -39 -40c-22 0 -59 40 -30 135c32 95 215 453 255 529c13 24 26 50 39 77c-101 -11 -215 -27 -315 -50
c-16 -40 -111 71 21 95c82 16 224 27 339 35c15 23 28 37 39 41c13 4 42 -13 54 -34c27 2 47 4 62 6c84 8 91 15 104 28zM134 -98c7 -9 11 -16 10 -23c1 -11 -3 -28 -11 -52c-16 -54 -86 -97 -102 -100c-29 -5 -51 26 -26 46c7 4 19 -7 40 22c15 20 12 51 8 76l-2 9
c-4 13 -11 28 1 39c24 21 64 4 82 -17z" />
    <glyph glyph-name="racute" unicode="&#x155;" horiz-adv-x="342" 
d="M315 209c5 -47 4 -70 -15 -70c-18 0 -64 15 -59 42c3 27 -16 34 -37 23c-7 -4 -25 -12 -44 -21c-20 -36 -33 -62 -41 -89c-22 -54 2 -82 -67 -119c-28 -15 -50 -17 -61 11c-25 63 84 226 97 258c14 33 7 48 29 65c32 23 45 33 60 10c13 -21 57 -1 23 -64
c40 28 81 56 100 56c33 0 10 -57 15 -102zM242 393c12 12 56 52 75 98c0 1 0 2 1 3c3 10 36 1 46 -29c5 -19 -4 -40 -28 -64c-35 -36 -60 -53 -83 -58c-23 -7 -47 -8 -48 7c0 11 16 24 37 43z" />
    <glyph glyph-name="abreve" unicode="&#x103;" horiz-adv-x="428" 
d="M256 257c-12 0 -139 -72 -139 -103c10 0 161 73 169 69c15 -11 21 -32 9 -45c-16 -19 -40 -48 -14 -32c24 16 206 82 243 94c38 13 6 -35 -45 -67s-194 -106 -224 -117s-91 3 -72 57c-36 -21 -77 -33 -100 -42c-23 -8 -92 15 -81 82c10 66 125 135 157 143
c33 8 86 10 113 -20c7 -7 -3 -22 -16 -19zM153 480c31 13 45 -6 50 -29c7 -23 28 -39 60 -36c37 3 49 20 62 45c18 34 61 27 53 -5c-8 -30 -31 -105 -134 -108c-77 -3 -102 63 -115 83c-14 19 10 44 24 50z" />
    <glyph glyph-name="lacute" unicode="&#x13a;" horiz-adv-x="218" 
d="M457 683c-32 -42 -117 -141 -256 -416c-141 -274 -150 -343 -161 -376s-36 -51 -57 -22c-21 28 -13 86 18 154c28 68 165 406 248 541c84 137 126 195 150 191c24 -5 76 -38 76 -50c3 -12 -10 -11 -18 -22zM493 834c12 12 56 52 75 98c0 1 0 2 1 3c3 10 36 1 46 -29
c5 -19 -4 -40 -28 -64c-35 -36 -60 -53 -83 -58c-23 -7 -47 -8 -48 7c0 11 16 24 37 43z" />
    <glyph glyph-name="cacute" unicode="&#x107;" 
d="M195 341c28 6 83 -1 99 -33c16 -31 10 -48 -7 -47c-15 0 -14 35 -57 8c-44 -26 -129 -124 -145 -167s-2 -76 71 -52c76 24 228 102 324 169c19 12 25 -3 -4 -42c-27 -38 -315 -205 -377 -213c-47 -7 -88 25 -103 62s-23 70 0 114c21 45 148 189 199 201zM280 424
c12 12 56 52 75 98c0 1 0 2 1 3c3 10 36 1 46 -29c5 -19 -4 -40 -28 -64c-35 -36 -60 -53 -83 -58c-23 -7 -47 -8 -48 7c0 11 16 24 37 43z" />
    <glyph glyph-name="ccaron" unicode="&#x10d;" 
d="M195 341c28 6 83 -1 99 -33c16 -31 10 -48 -7 -47c-15 0 -14 35 -57 8c-44 -26 -129 -124 -145 -167s-2 -76 71 -52c76 24 228 102 324 169c19 12 25 -3 -4 -42c-27 -38 -315 -205 -377 -213c-47 -7 -88 25 -103 62s-23 70 0 114c21 45 148 189 199 201zM396 536
c8 -3 15 -11 12 -27c-8 -16 -18 -39 -27 -51c-37 -48 -61 -70 -85 -83c-13 -7 -28 -13 -47 -10c-22 3 -61 39 -69 86c-3 23 1 46 10 62c16 29 59 31 62 20v-2c-13 -72 11 -98 20 -109c18 8 64 36 90 91c15 23 23 26 34 23z" />
    <glyph glyph-name="eogonek" unicode="&#x119;" horiz-adv-x="355" 
d="M349 153c69 40 39 -19 10 -38c-16 -11 -72 -40 -132 -69c-1 -1 -4 -3 -8 -4c-12 -7 -25 -11 -38 -18c-12 -8 -21 -17 -20 -24c0 -12 5 -18 14 -25c15 -11 19 -4 24 -3c3 1 13 8 16 9c13 7 30 8 41 -8c5 -11 -1 -27 -14 -39c-3 -3 -22 -13 -55 -10c-16 1 -41 9 -56 20
s-21 32 -24 51c-8 -3 -15 -5 -22 -6c-72 -16 -101 40 -93 80s48 123 102 174c51 48 93 55 114 52c28 -3 67 -49 72 -90c3 -41 -58 -74 -98 -93c-39 -18 -73 -43 -99 -1c-8 -11 -25 -45 27 -42c51 3 169 43 239 84zM191 211c-31 -12 -43 -24 -63 -48c18 5 58 23 63 48z" />
    <glyph glyph-name="ecaron" unicode="&#x11b;" horiz-adv-x="355" 
d="M349 153c69 40 39 -19 10 -38c-30 -19 -204 -110 -274 -126c-72 -16 -101 40 -93 80s48 123 102 174c51 48 93 55 114 52c28 -3 67 -49 72 -90c3 -41 -58 -74 -98 -93c-39 -18 -73 -43 -99 -1c-8 -11 -25 -45 27 -42c51 3 169 43 239 84zM191 211
c-31 -12 -43 -24 -63 -48c18 5 58 23 63 48zM364 495c8 -3 15 -11 12 -27c-8 -16 -18 -39 -27 -51c-37 -48 -61 -70 -85 -83c-13 -7 -28 -13 -47 -10c-22 3 -61 39 -69 86c-3 23 1 46 10 62c16 29 59 31 62 20v-2c-13 -72 11 -98 20 -109c18 8 64 36 90 91
c15 23 23 26 34 23z" />
    <glyph glyph-name="dcaron" unicode="&#x10f;" horiz-adv-x="691" 
d="M528 613c-5 -10 -147 -230 -199 -382c-11 -29 -23 -63 -38 -95c41 16 141 68 170 68c46 -3 -67 -73 -110 -111c-44 -39 -92 -71 -121 -67c-28 4 -48 22 -52 38c-3 8 -5 21 -6 32l-2 20c-17 -17 -75 -61 -118 -56c-40 5 -45 39 -50 46c-6 9 -2 53 39 97
c42 44 129 99 183 113c21 5 37 -1 48 -12l91 168c45 80 82 164 87 179c7 15 20 25 57 4c15 -8 28 -31 21 -42zM109 152c20 7 63 16 99 43l10 7l22 41l-22 -6c-29 -10 -104 -82 -109 -85zM721 601c1 -12 -3 -29 -10 -52c-16 -54 -88 -98 -102 -100c-29 -5 -51 26 -26 46
c6 3 19 -7 40 22c13 20 11 51 7 76l-2 9c-4 13 -11 28 2 39c23 21 63 4 81 -17c7 -9 11 -16 10 -23z" />
    <glyph glyph-name="dcroat" unicode="&#x111;" horiz-adv-x="410" 
d="M536 517c9 -9 8 -58 -15 -61c-21 -3 -49 7 -81 8c-41 -73 -86 -160 -111 -233c-11 -29 -23 -63 -38 -95c40 16 98 39 122 53c35 19 -19 -58 -62 -96c-44 -39 -92 -71 -121 -67c-28 4 -48 22 -52 38c-3 8 -5 21 -6 32l-2 20c-17 -17 -75 -61 -118 -56c-40 5 -45 39 -50 46
c-6 9 -2 53 39 97c42 44 129 99 183 113c21 5 37 -1 48 -12l87 160c-43 0 -67 -1 -73 -4c-11 -4 -27 -2 -32 13c-5 13 -31 30 41 43c37 8 67 8 96 8c31 61 54 115 59 127c7 15 20 25 57 4c15 -8 28 -31 21 -42l-51 -84c27 1 47 0 59 -12zM218 202l22 41l-22 -6
c-29 -10 -104 -82 -109 -85c20 7 63 16 99 43z" />
    <glyph glyph-name="nacute" unicode="&#x144;" horiz-adv-x="506" 
d="M195 355c15 -8 26 -28 19 -39c-6 -8 -44 -53 -92 -192c81 59 189 190 231 187c43 -3 61 -33 38 -84c-24 -53 -35 -143 -9 -135s96 49 127 70c31 18 18 -30 -38 -80c-56 -51 -96 -90 -146 -82s-53 156 -21 209c-14 8 -98 -102 -157 -167c-61 -64 -83 -71 -110 -68
c-25 3 -47 77 -31 102c16 27 28 34 58 113c29 74 56 147 62 161c7 15 34 24 69 5zM292 409c12 12 56 52 75 98c0 1 0 2 1 3c3 10 36 1 46 -29c5 -19 -4 -40 -28 -64c-35 -36 -60 -53 -83 -58c-23 -7 -47 -8 -48 7c0 11 16 24 37 43z" />
    <glyph glyph-name="ncaron" unicode="&#x148;" horiz-adv-x="506" 
d="M195 355c15 -8 26 -28 19 -39c-6 -8 -44 -53 -92 -192c81 59 189 190 231 187c43 -3 61 -33 38 -84c-24 -53 -35 -143 -9 -135s96 49 127 70c31 18 18 -30 -38 -80c-56 -51 -96 -90 -146 -82s-53 156 -21 209c-14 8 -98 -102 -157 -167c-61 -64 -83 -71 -110 -68
c-25 3 -47 77 -31 102c16 27 28 34 58 113c29 74 56 147 62 161c7 15 34 24 69 5zM430 549c8 -3 15 -11 12 -27c-8 -16 -18 -39 -27 -51c-37 -48 -61 -70 -85 -83c-13 -7 -28 -13 -47 -10c-22 3 -61 39 -69 86c-3 23 1 46 10 62c16 29 59 31 62 20v-2
c-13 -72 11 -98 20 -109c18 8 64 36 90 91c15 23 23 26 34 23z" />
    <glyph glyph-name="ohungarumlaut" unicode="&#x151;" horiz-adv-x="244" 
d="M156 286c16 -13 101 -72 79 -153s-122 -140 -187 -126c-65 13 -66 95 -39 133s85 112 121 120l11 3c-3 5 -6 9 -11 12c-32 26 10 22 26 11zM91 104c-2 -12 38 5 57 32c7 9 11 28 11 48c-29 -26 -65 -70 -68 -80zM95 379c12 11 33 35 44 74c0 1 1 2 1 3c3 10 38 1 46 -29
c5 -19 2 -29 -18 -52c-19 -19 -42 -39 -65 -44c-24 -5 -44 -10 -45 5c0 11 16 24 37 43zM218 378c12 11 41 35 58 80c1 1 1 2 1 3c5 9 38 2 46 -30c7 -17 1 -29 -22 -54c-35 -36 -56 -45 -79 -50c-21 -4 -39 -7 -40 8c-1 11 16 24 36 43z" />
    <glyph glyph-name="rcaron" unicode="&#x159;" horiz-adv-x="342" 
d="M315 209c5 -47 4 -70 -15 -70c-18 0 -64 15 -59 42c3 27 -16 34 -37 23c-7 -4 -25 -12 -44 -21c-20 -36 -33 -62 -41 -89c-22 -54 2 -82 -67 -119c-28 -15 -50 -17 -61 11c-25 63 84 226 97 258c14 33 7 48 29 65c32 23 45 33 60 10c13 -21 57 -1 23 -64
c40 28 81 56 100 56c33 0 10 -57 15 -102zM380 527c8 -3 15 -11 12 -27c-8 -16 -18 -39 -27 -51c-37 -48 -61 -70 -85 -83c-13 -7 -28 -13 -47 -10c-22 3 -61 39 -69 86c-3 23 1 46 10 62c16 29 59 31 62 20v-2c-13 -72 11 -98 20 -109c18 8 64 36 90 91c15 23 23 26 34 23z
" />
    <glyph glyph-name="uring" unicode="&#x16f;" horiz-adv-x="376" 
d="M176 294c9 -5 21 -18 -6 -54c-26 -37 -90 -159 -65 -140s142 116 172 176c12 25 17 24 34 21c18 -3 77 -29 61 -53c-16 -23 -84 -141 -95 -175c-14 -36 -2 -60 -19 -71c-16 -11 -30 -5 -51 18c-22 22 -12 72 -4 105c-55 -42 -85 -87 -139 -100c-55 -13 -68 58 -71 77
c-3 18 67 144 82 172c15 29 19 33 43 34c23 1 43 -3 58 -10zM324 488c14 -3 53 -36 29 -86c-23 -49 -93 -86 -132 -78c-37 8 -29 60 -7 82c21 24 68 70 91 75l7 2c-1 3 7 6 12 5zM307 404c8 9 14 24 18 43c-31 -24 -72 -61 -74 -71c-5 -11 36 5 56 28z" />
    <glyph glyph-name="uhungarumlaut" unicode="&#x171;" horiz-adv-x="376" 
d="M176 294c9 -5 21 -18 -6 -54c-26 -37 -90 -159 -65 -140s142 116 172 176c12 25 17 24 34 21c18 -3 77 -29 61 -53c-16 -23 -84 -141 -95 -175c-14 -36 -2 -60 -19 -71c-16 -11 -30 -5 -51 18c-22 22 -12 72 -4 105c-55 -42 -85 -87 -139 -100c-55 -13 -68 58 -71 77
c-3 18 67 144 82 172c15 29 19 33 43 34c23 1 43 -3 58 -10zM196 388c12 11 33 35 44 74c0 1 1 2 1 3c3 10 38 1 46 -29c5 -19 2 -29 -18 -52c-19 -19 -42 -39 -65 -44c-24 -5 -44 -10 -45 5c0 11 16 24 37 43zM319 387c12 11 41 35 58 80c1 1 1 2 1 3c5 9 38 2 46 -30
c7 -17 1 -29 -22 -54c-35 -36 -56 -45 -79 -50c-21 -4 -39 -7 -40 8c-1 11 16 24 36 43z" />
    <glyph glyph-name="uni0163" unicode="&#x163;" horiz-adv-x="215" 
d="M407 641c1 -12 -11 -11 -18 -22c-24 -34 -84 -101 -175 -264c29 3 55 4 74 7c65 8 77 4 74 -4c-2 -7 -36 -57 -104 -68c-23 -4 -55 -8 -88 -15c-12 -23 -25 -45 -38 -72c-139 -275 -149 -343 -160 -376s-36 -51 -57 -23c-21 29 -13 87 18 155c16 39 71 170 127 299
c-21 -3 -37 -5 -48 -5c-34 -3 -48 75 -22 85c25 11 21 5 55 8c8 0 29 1 56 2c28 60 56 113 79 152c84 137 126 195 150 191c25 -6 74 -38 77 -50zM-28 -236c7 -9 11 -16 10 -23c1 -11 -3 -28 -11 -52c-16 -54 -86 -97 -102 -100c-29 -5 -51 26 -26 46c7 4 19 -7 40 22
c15 20 12 51 8 76l-2 9c-4 13 -11 28 1 39c24 21 64 4 82 -17z" />
    <glyph glyph-name="Hbar" unicode="&#x126;" horiz-adv-x="591" 
d="M866 719c3 -12 -10 -12 -18 -23c-12 -17 -32 -42 -63 -85c7 -2 12 -5 15 -8c19 -21 20 -87 -18 -87c-7 -1 -29 -1 -61 -2c-36 -60 -78 -133 -129 -233c-141 -274 -150 -345 -161 -377c-11 -33 -36 -51 -57 -22c-21 28 -13 86 18 154c13 29 41 109 76 202
c-115 -32 -222 -20 -304 -23l-17 -33c-99 -206 -105 -267 -108 -283c-1 -15 -6 -33 -27 -30c-22 3 -59 40 -30 135c12 39 45 117 84 204c-37 -3 -59 -5 -74 -8c-19 -3 -38 16 -25 43c19 38 42 46 137 49c29 65 59 129 82 176c-41 -7 -57 -10 -64 -13c-11 -7 -28 -3 -32 13
c-5 19 17 41 94 64c9 3 22 6 37 10c41 77 85 178 119 189c18 5 91 -30 77 -61c-5 -11 -28 -48 -59 -104c108 16 228 33 267 38c4 0 7 0 9 1c75 120 113 172 136 167s96 -41 96 -53zM507 337c24 61 49 121 74 172c-72 -4 -150 -10 -222 -18c-17 -3 -33 -3 -48 -6
c-35 -59 -72 -124 -107 -192c82 3 159 13 290 40c3 3 8 4 13 4z" />
    <glyph glyph-name="Hcircumflex" unicode="&#x124;" horiz-adv-x="591" 
d="M866 719c3 -12 -10 -12 -18 -23c-32 -42 -118 -141 -256 -415c-141 -274 -150 -345 -161 -377c-11 -33 -36 -51 -57 -22c-21 28 -13 86 18 154c13 29 41 109 76 202c-115 -32 -222 -20 -304 -23c-7 -11 -10 -22 -17 -33c-99 -206 -105 -267 -108 -283
c-1 -15 -6 -33 -27 -30c-22 3 -59 40 -30 135c12 39 45 117 84 204c-37 -3 -59 -5 -74 -8c-19 -3 -38 16 -25 43c19 38 42 46 137 49c48 104 94 204 113 241c40 77 89 187 123 198c18 5 91 -30 77 -61c-11 -25 -120 -202 -213 -377c82 3 159 13 290 40c3 3 8 4 13 4
c37 95 77 186 113 245c84 136 126 195 150 190c23 -5 96 -41 96 -53zM473 757c-7 3 -12 12 -8 28c9 16 22 39 33 51c43 48 69 70 94 82c15 7 31 14 48 11c22 -3 56 -39 59 -87c1 -23 -6 -45 -17 -62c-18 -29 -64 -30 -64 -20v3c21 72 4 92 -5 104c-19 -9 -64 -40 -104 -87
c-19 -23 -25 -26 -36 -23z" />
    <glyph glyph-name="Idotaccent" unicode="&#x130;" horiz-adv-x="222" 
d="M465 715c27 3 48 -17 47 -33c0 -17 -22 -31 -83 -34h-7c-51 -88 -166 -282 -246 -445c-55 -112 -81 -181 -94 -224c11 1 24 1 37 4c51 11 81 -46 -34 -70l-19 -3c-3 -12 -9 -23 -25 -20c-8 1 -15 6 -22 13c-21 -2 -39 -3 -53 -3c-48 0 -49 33 -32 58c13 20 34 22 67 21
c1 13 5 29 10 46c28 95 196 454 235 529c13 27 27 56 42 85c-15 -3 -28 -2 -35 -5c-23 -9 -58 21 -43 49c13 23 24 32 51 39c13 4 38 3 75 0c13 17 24 27 33 30c13 3 53 -13 71 -36c8 0 16 0 25 -1zM501 859c0 -26 -29 -66 -56 -74c-25 -11 -32 2 -41 21c-8 20 -5 45 8 57
c13 13 28 7 43 6c12 0 46 5 46 -10z" />
    <glyph glyph-name="Gbreve" unicode="&#x11e;" horiz-adv-x="702" 
d="M575 688c-208 -40 -384 -205 -464 -409c-27 -71 -11 -176 45 -195c173 -56 339 194 418 324c4 31 10 51 21 44c19 -11 94 -21 89 -65c-5 -32 -33 -230 -92 -396c25 0 51 -1 76 -3c38 -5 31 -37 -42 -32c-13 1 -27 2 -46 2c-15 -39 -31 -72 -50 -103
c-117 -192 -315 -250 -404 -269c-68 -16 -143 70 -96 172c58 124 239 211 459 230c43 114 66 244 74 317c-9 -16 -21 -34 -35 -53c-61 -86 -220 -285 -365 -285c-36 0 -71 9 -92 26c-34 29 -130 89 -74 282c67 227 301 419 560 491c34 11 107 -4 128 -43
c20 -40 14 -61 -9 -60c-22 0 -37 38 -101 25zM435 -122c15 23 27 46 39 73c-72 -11 -154 -34 -227 -83c-137 -92 -189 -202 -141 -197c47 3 244 72 329 207zM421 938c31 13 45 -6 50 -29c7 -23 28 -39 60 -36c37 3 49 20 62 45c18 34 61 27 53 -5c-8 -30 -31 -105 -134 -108
c-77 -3 -102 63 -115 83c-14 19 10 44 24 50z" />
    <glyph glyph-name="Jcircumflex" unicode="&#x134;" horiz-adv-x="443" 
d="M593 692c22 3 39 -51 23 -77c-19 -27 -34 -30 -87 -30c-19 -35 -50 -100 -97 -196c-8 -16 -14 -31 -22 -43l-1 -4c-27 -51 -159 -483 -289 -536c-85 -35 -180 4 -204 28c-40 42 -48 133 -15 150c11 6 56 -82 97 -85c74 -8 134 40 155 80c51 97 105 255 155 369
c59 129 75 177 104 236c-31 3 -72 9 -168 -4c-52 -13 -87 49 36 73c53 11 112 22 160 25c3 1 7 1 12 1v1l15 28c16 21 33 10 44 7c11 -1 20 -13 27 -29c27 3 40 3 55 6zM444 807c-7 3 -12 12 -8 28c9 16 22 39 33 51c43 48 69 70 94 82c15 7 31 14 48 11
c22 -3 56 -39 59 -87c1 -23 -6 -45 -17 -62c-18 -29 -64 -30 -64 -20v3c21 72 4 92 -5 104c-19 -9 -64 -40 -104 -87c-19 -23 -25 -26 -36 -23z" />
    <glyph glyph-name="hbar" unicode="&#x127;" horiz-adv-x="499" 
d="M520 189c34 21 19 -33 -42 -89c-62 -56 -106 -98 -161 -90s-63 99 -28 158c-15 10 -102 -40 -168 -111c-67 -72 -110 -119 -138 -116c-30 3 -51 84 -35 113c16 28 165 322 213 410c-25 -1 -39 -3 -43 -4c-11 -4 -27 -2 -32 13c-5 13 -31 30 41 43c25 5 46 7 66 8
c31 60 53 112 58 124c7 15 20 25 57 4c15 -8 28 -31 21 -42c-3 -3 -20 -35 -47 -83c43 3 71 5 86 -10c9 -9 8 -58 -15 -61s-55 9 -92 9h-14c-64 -117 -143 -271 -175 -362c72 85 223 180 271 177c47 -3 67 -36 42 -93c-27 -57 -36 -84 -5 -75c29 8 106 54 140 77z" />
    <glyph glyph-name="hcircumflex" unicode="&#x125;" horiz-adv-x="499" 
d="M308 652c15 -8 28 -31 21 -42c-7 -10 -204 -354 -257 -507c72 85 223 180 271 177c47 -3 67 -36 42 -93c-27 -57 -36 -84 -5 -75c29 8 106 54 140 77c34 21 19 -33 -42 -89c-62 -56 -106 -98 -161 -90s-63 99 -28 158c-15 10 -102 -40 -168 -111
c-67 -72 -110 -119 -138 -116c-30 3 -51 84 -35 113s172 335 216 415c45 80 82 164 87 179c7 15 20 25 57 4zM380 669c-7 3 -12 12 -8 28c9 16 22 39 33 51c43 48 69 70 94 82c15 7 31 14 48 11c22 -3 56 -39 59 -87c1 -23 -6 -45 -17 -62c-18 -29 -64 -30 -64 -20v3
c21 72 4 92 -5 104c-19 -9 -64 -40 -104 -87c-19 -23 -25 -26 -36 -23z" />
    <glyph glyph-name="gbreve" unicode="&#x11f;" horiz-adv-x="438" 
d="M346 122l41 9c35 4 22 -20 -38 -41c-5 -1 -11 -3 -16 -6c-23 -64 -48 -132 -75 -177c-96 -164 -260 -212 -335 -228c-55 -13 -112 55 -81 146c26 78 178 203 422 275c19 53 28 96 33 116c1 4 2 7 2 11c-71 -49 -137 -85 -173 -104c-42 -22 -87 26 -82 53
c5 29 92 92 132 116c36 22 76 9 93 6c25 -5 8 -24 -2 -27c-32 -13 -120 -83 -75 -67c40 16 94 63 116 82c3 15 7 20 11 17c17 -8 65 -19 62 -55c-3 -16 -16 -66 -35 -126zM186 -73c24 40 44 82 60 122c-65 -28 -143 -66 -215 -113c-118 -78 -164 -188 -124 -185
s208 60 279 176zM192 484c31 13 45 -6 50 -29c7 -23 28 -39 60 -36c37 3 49 20 62 45c18 34 61 27 53 -5c-8 -30 -31 -105 -134 -108c-77 -3 -102 63 -115 83c-14 19 10 44 24 50z" />
    <glyph glyph-name="jcircumflex" unicode="&#x135;" horiz-adv-x="241" 
d="M148 347c17 0 94 -8 81 -51c-8 -24 -59 -138 -110 -251c-7 -22 -51 -94 -62 -110c-103 -177 -192 -235 -287 -256c-72 -16 -186 77 -141 189c73 190 362 258 225 153c-138 -103 -176 -257 -122 -257c86 0 173 65 296 319c43 97 63 164 76 193c13 26 27 71 44 71zM127 417
c-7 3 -12 12 -8 28c9 16 22 39 33 51c43 48 69 70 94 82c15 7 31 14 48 11c22 -3 56 -39 59 -87c1 -23 -6 -45 -17 -62c-18 -29 -64 -30 -64 -20v3c21 72 4 92 -5 104c-19 -9 -64 -40 -104 -87c-19 -23 -25 -26 -36 -23z" />
    <glyph glyph-name="Cdotaccent" unicode="&#x10a;" horiz-adv-x="475" 
d="M565 748c35 11 106 -2 127 -42s14 -62 -9 -61c-22 3 -38 37 -101 26c-207 -40 -386 -207 -463 -410c-27 -70 -11 -172 44 -195c60 -25 162 1 205 31c78 58 -11 -89 -108 -131c-57 -25 -141 -23 -182 10c-35 27 -129 90 -73 281c64 228 302 419 560 491zM643 865
c0 -26 -29 -66 -56 -74c-25 -11 -32 2 -41 21c-8 20 -5 45 8 57c13 13 28 7 43 6c12 0 46 5 46 -10z" />
    <glyph glyph-name="Ccircumflex" unicode="&#x108;" horiz-adv-x="475" 
d="M565 748c35 11 106 -2 127 -42s14 -62 -9 -61c-22 3 -38 37 -101 26c-207 -40 -386 -207 -463 -410c-27 -70 -11 -172 44 -195c60 -25 162 1 205 31c78 58 -11 -89 -108 -131c-57 -25 -141 -23 -182 10c-35 27 -129 90 -73 281c64 228 302 419 560 491zM498 784
c-7 3 -12 12 -8 28c9 16 22 39 33 51c43 48 69 70 94 82c15 7 31 14 48 11c22 -3 56 -39 59 -87c1 -23 -6 -45 -17 -62c-18 -29 -64 -30 -64 -20v3c21 72 4 92 -5 104c-19 -9 -64 -40 -104 -87c-19 -23 -25 -26 -36 -23z" />
    <glyph glyph-name="Gdotaccent" unicode="&#x120;" horiz-adv-x="702" 
d="M575 688c-208 -40 -384 -205 -464 -409c-27 -71 -11 -176 45 -195c173 -56 339 194 418 324c4 31 10 51 21 44c19 -11 94 -21 89 -65c-5 -32 -33 -230 -92 -396c25 0 51 -1 76 -3c38 -5 31 -37 -42 -32c-13 1 -27 2 -46 2c-15 -39 -31 -72 -50 -103
c-117 -192 -315 -250 -404 -269c-68 -16 -143 70 -96 172c58 124 239 211 459 230c43 114 66 244 74 317c-9 -16 -21 -34 -35 -53c-61 -86 -220 -285 -365 -285c-36 0 -71 9 -92 26c-34 29 -130 89 -74 282c67 227 301 419 560 491c34 11 107 -4 128 -43
c20 -40 14 -61 -9 -60c-22 0 -37 38 -101 25zM435 -122c15 23 27 46 39 73c-72 -11 -154 -34 -227 -83c-137 -92 -189 -202 -141 -197c47 3 244 72 329 207zM643 882c0 -26 -29 -66 -56 -74c-25 -11 -32 2 -41 21c-8 20 -5 45 8 57c13 13 28 7 43 6c12 0 46 5 46 -10z" />
    <glyph glyph-name="Gcircumflex" unicode="&#x11c;" horiz-adv-x="702" 
d="M575 688c-208 -40 -384 -205 -464 -409c-27 -71 -11 -176 45 -195c173 -56 339 194 418 324c4 31 10 51 21 44c19 -11 94 -21 89 -65c-5 -32 -33 -230 -92 -396c25 0 51 -1 76 -3c38 -5 31 -37 -42 -32c-13 1 -27 2 -46 2c-15 -39 -31 -72 -50 -103
c-117 -192 -315 -250 -404 -269c-68 -16 -143 70 -96 172c58 124 239 211 459 230c43 114 66 244 74 317c-9 -16 -21 -34 -35 -53c-61 -86 -220 -285 -365 -285c-36 0 -71 9 -92 26c-34 29 -130 89 -74 282c67 227 301 419 560 491c34 11 107 -4 128 -43
c20 -40 14 -61 -9 -60c-22 0 -37 38 -101 25zM435 -122c15 23 27 46 39 73c-72 -11 -154 -34 -227 -83c-137 -92 -189 -202 -141 -197c47 3 244 72 329 207zM476 797c-7 3 -12 12 -8 28c9 16 22 39 33 51c43 48 69 70 94 82c15 7 31 14 48 11c22 -3 56 -39 59 -87
c1 -23 -6 -45 -17 -62c-18 -29 -64 -30 -64 -20v3c21 72 4 92 -5 104c-19 -9 -64 -40 -104 -87c-19 -23 -25 -26 -36 -23z" />
    <glyph glyph-name="Ubreve" unicode="&#x16c;" horiz-adv-x="639" 
d="M844 824c16 5 71 -31 57 -61c-16 -28 -170 -285 -270 -488c-98 -205 -96 -258 -96 -273c-2 -15 -6 -43 -39 -40c-22 0 -59 40 -30 135c7 23 22 57 42 101c-66 -87 -136 -165 -188 -190c-118 -54 -209 -40 -252 6c-64 72 -102 193 -22 332c80 138 157 304 176 336
c17 31 59 77 86 90c44 20 78 1 74 -38c-6 -39 -34 -59 -58 -94c-23 -35 -162 -245 -194 -326c-32 -79 4 -225 84 -228c79 -5 229 106 402 335c46 91 89 173 105 205c40 77 87 187 123 198zM523 938c31 13 45 -6 50 -29c7 -23 28 -39 60 -36c37 3 49 20 62 45
c18 34 61 27 53 -5c-8 -30 -31 -105 -134 -108c-77 -3 -102 63 -115 83c-14 19 10 44 24 50z" />
    <glyph glyph-name="Scircumflex" unicode="&#x15c;" horiz-adv-x="444" 
d="M488 669c-22 0 -40 -5 -103 -60c-65 -57 -253 -193 -286 -296c-19 -61 25 -73 85 -89c60 -17 120 -33 159 -68c31 -28 50 -69 41 -110c-19 -93 -164 -244 -288 -249c-125 -5 -82 129 -52 170c29 40 141 138 159 146c20 9 14 -7 -25 -58c-38 -49 -139 -195 -104 -195
c45 -3 162 64 215 191c15 31 17 57 4 68c-20 16 -54 29 -78 36c-43 11 -180 40 -206 116c-34 95 40 194 107 263c65 69 233 223 254 236c23 11 71 20 108 5c56 -24 43 -106 10 -106zM319 806c-7 3 -12 12 -8 28c9 16 22 39 33 51c43 48 69 70 94 82c15 7 31 14 48 11
c22 -3 56 -39 59 -87c1 -23 -6 -45 -17 -62c-18 -29 -64 -30 -64 -20v3c21 72 4 92 -5 104c-19 -9 -64 -40 -104 -87c-19 -23 -25 -26 -36 -23z" />
    <glyph glyph-name="cdotaccent" unicode="&#x10b;" 
d="M195 341c28 6 83 -1 99 -33c16 -31 10 -48 -7 -47c-15 0 -14 35 -57 8c-44 -26 -129 -124 -145 -167s-2 -76 71 -52c76 24 228 102 324 169c19 12 25 -3 -4 -42c-27 -38 -315 -205 -377 -213c-47 -7 -88 25 -103 62s-23 70 0 114c21 45 148 189 199 201zM255 459
c0 -26 -29 -66 -56 -74c-25 -11 -32 2 -41 21c-8 20 -5 45 8 57c13 13 28 7 43 6c12 0 46 5 46 -10z" />
    <glyph glyph-name="ccircumflex" unicode="&#x109;" 
d="M195 341c28 6 83 -1 99 -33c16 -31 10 -48 -7 -47c-15 0 -14 35 -57 8c-44 -26 -129 -124 -145 -167s-2 -76 71 -52c76 24 228 102 324 169c19 12 25 -3 -4 -42c-27 -38 -315 -205 -377 -213c-47 -7 -88 25 -103 62s-23 70 0 114c21 45 148 189 199 201zM143 372
c-7 3 -12 12 -8 28c9 16 22 39 33 51c43 48 69 70 94 82c15 7 31 14 48 11c22 -3 56 -39 59 -87c1 -23 -6 -45 -17 -62c-18 -29 -64 -30 -64 -20v3c21 72 4 92 -5 104c-19 -9 -64 -40 -104 -87c-19 -23 -25 -26 -36 -23z" />
    <glyph glyph-name="gdotaccent" unicode="&#x121;" horiz-adv-x="438" 
d="M346 122l41 9c35 4 22 -20 -38 -41c-5 -1 -11 -3 -16 -6c-23 -64 -48 -132 -75 -177c-96 -164 -260 -212 -335 -228c-55 -13 -112 55 -81 146c26 78 178 203 422 275c19 53 28 96 33 116c1 4 2 7 2 11c-71 -49 -137 -85 -173 -104c-42 -22 -87 26 -82 53
c5 29 92 92 132 116c36 22 76 9 93 6c25 -5 8 -24 -2 -27c-32 -13 -120 -83 -75 -67c40 16 94 63 116 82c3 15 7 20 11 17c17 -8 65 -19 62 -55c-3 -16 -16 -66 -35 -126zM186 -73c24 40 44 82 60 122c-65 -28 -143 -66 -215 -113c-118 -78 -164 -188 -124 -185
s208 60 279 176zM324 422c0 -26 -29 -66 -56 -74c-25 -11 -32 2 -41 21c-8 20 -5 45 8 57c13 13 28 7 43 6c12 0 46 5 46 -10z" />
    <glyph glyph-name="gcircumflex" unicode="&#x11d;" horiz-adv-x="438" 
d="M346 122l41 9c35 4 22 -20 -38 -41c-5 -1 -11 -3 -16 -6c-23 -64 -48 -132 -75 -177c-96 -164 -260 -212 -335 -228c-55 -13 -112 55 -81 146c26 78 178 203 422 275c19 53 28 96 33 116c1 4 2 7 2 11c-71 -49 -137 -85 -173 -104c-42 -22 -87 26 -82 53
c5 29 92 92 132 116c36 22 76 9 93 6c25 -5 8 -24 -2 -27c-32 -13 -120 -83 -75 -67c40 16 94 63 116 82c3 15 7 20 11 17c17 -8 65 -19 62 -55c-3 -16 -16 -66 -35 -126zM186 -73c24 40 44 82 60 122c-65 -28 -143 -66 -215 -113c-118 -78 -164 -188 -124 -185
s208 60 279 176zM182 348c-7 3 -12 12 -8 28c9 16 22 39 33 51c43 48 69 70 94 82c15 7 31 14 48 11c22 -3 56 -39 59 -87c1 -23 -6 -45 -17 -62c-18 -29 -64 -30 -64 -20v3c21 72 4 92 -5 104c-19 -9 -64 -40 -104 -87c-19 -23 -25 -26 -36 -23z" />
    <glyph glyph-name="ubreve" unicode="&#x16d;" horiz-adv-x="376" 
d="M176 294c9 -5 21 -18 -6 -54c-26 -37 -90 -159 -65 -140s142 116 172 176c12 25 17 24 34 21c18 -3 77 -29 61 -53c-16 -23 -84 -141 -95 -175c-14 -36 -2 -60 -19 -71c-16 -11 -30 -5 -51 18c-22 22 -12 72 -4 105c-55 -42 -85 -87 -139 -100c-55 -13 -68 58 -71 77
c-3 18 67 144 82 172c15 29 19 33 43 34c23 1 43 -3 58 -10zM160 458c31 13 45 -6 50 -29c7 -23 28 -39 60 -36c37 3 49 20 62 45c18 34 61 27 53 -5c-8 -30 -31 -105 -134 -108c-77 -3 -102 63 -115 83c-14 19 10 44 24 50z" />
    <glyph glyph-name="scircumflex" unicode="&#x15d;" horiz-adv-x="261" 
d="M221 234c74 35 135 29 108 18c-39 -18 -123 -69 -181 -111c1 -8 1 -16 4 -24c12 -57 1 -112 -36 -140c-35 -27 -81 -24 -106 -1c-11 8 -19 23 -27 30c-8 8 -4 43 13 71c15 24 43 49 82 76c-3 11 -8 21 -11 32c-19 57 8 105 33 130c38 38 103 36 120 28
c16 -8 17 -31 10 -35c-5 -5 -8 -5 -17 -5c-25 0 -45 -18 -60 -53c-7 -15 -10 -35 -10 -58c27 16 55 31 78 42zM91 37c5 16 0 36 -3 63l-5 -4c-50 -39 -49 -69 -49 -80c1 -5 4 -10 9 -14c16 0 40 10 48 35zM99 366c-7 3 -12 12 -8 28c9 16 22 39 33 51c43 48 69 70 94 82
c15 7 31 14 48 11c22 -3 56 -39 59 -87c1 -23 -6 -45 -17 -62c-18 -29 -64 -30 -64 -20v3c21 72 4 92 -5 104c-19 -9 -64 -40 -104 -87c-19 -23 -25 -26 -36 -23z" />
    <glyph glyph-name="kgreenlandic" unicode="&#x138;" horiz-adv-x="326" 
d="M368 342c47 -3 -32 -91 -51 -88c-17 0 -90 -35 -154 -77c7 -24 12 -54 24 -87s41 -58 80 -47c25 7 60 28 87 45c27 16 16 -31 -32 -73c-46 -43 -67 -49 -97 -49c-59 0 -124 107 -124 160c-9 -9 -17 -19 -29 -26c-37 -88 -61 -144 -84 -141c-28 3 -40 74 -24 103
c16 28 151 313 219 445c41 81 54 145 61 160s31 24 70 3c15 -8 28 -31 21 -42c-7 -7 -154 -258 -218 -417c89 65 205 134 251 131z" />
    <glyph glyph-name="uni0156" unicode="&#x156;" horiz-adv-x="637" 
d="M685 -197c34 10 15 -76 -66 -60c-72 16 -182 164 -257 319c-51 103 -73 190 -74 221c-25 -8 -51 -17 -79 -25c-7 -13 -12 -26 -19 -38c-112 -229 -121 -304 -121 -319c-3 -17 -7 -38 -31 -34c-24 3 -67 45 -33 152c32 108 221 509 264 595c44 87 100 209 138 223
c19 5 103 -35 87 -69c-5 -11 -26 -47 -57 -100c179 171 294 124 324 22c26 -92 -93 -253 -384 -373c11 -63 18 -128 119 -304c90 -157 184 -212 189 -210zM363 542c-44 -77 -93 -165 -136 -250c128 72 463 253 416 364c-44 96 -226 -64 -280 -114zM251 -91
c7 -9 11 -16 10 -23c1 -11 -3 -28 -11 -52c-16 -54 -86 -97 -102 -100c-29 -5 -51 26 -26 46c7 4 19 -7 40 22c15 20 12 51 8 76l-2 9c-4 13 -11 28 1 39c24 21 64 4 82 -17z" />
    <glyph glyph-name="Itilde" unicode="&#x128;" horiz-adv-x="222" 
d="M465 715c27 3 48 -17 47 -33c0 -17 -22 -31 -83 -34h-7c-51 -88 -166 -282 -246 -445c-55 -112 -81 -181 -94 -224c11 1 24 1 37 4c51 11 81 -46 -34 -70l-19 -3c-3 -12 -9 -23 -25 -20c-8 1 -15 6 -22 13c-21 -2 -39 -3 -53 -3c-48 0 -49 33 -32 58c13 20 34 22 67 21
c1 13 5 29 10 46c28 95 196 454 235 529c13 27 27 56 42 85c-15 -3 -28 -2 -35 -5c-23 -9 -58 21 -43 49c13 23 24 32 51 39c13 4 38 3 75 0c13 17 24 27 33 30c13 3 53 -13 71 -36c8 0 16 0 25 -1zM342 856c11 21 38 40 59 40s34 -12 49 -32s38 -13 43 -6
c11 15 19 31 30 24s5 -29 0 -42c-8 -24 -45 -43 -78 -29c-34 14 -27 33 -50 30c-20 -3 -36 -28 -47 -23c-15 7 -17 17 -6 38z" />
    <glyph glyph-name="uni013B" unicode="&#x13b;" horiz-adv-x="454" 
d="M251 586c23 45 35 89 50 97c31 18 47 20 110 -6c55 -24 -32 -82 -56 -119c-59 -94 -190 -345 -210 -380c-18 -37 -77 -186 -45 -218c23 -21 125 11 215 24c42 5 115 28 143 20c37 -11 4 -92 -83 -95c-126 -3 -232 -61 -309 -45c-35 8 -89 6 -89 57c3 84 56 204 80 259
c51 128 136 289 194 406zM260 -158c7 -9 11 -16 10 -23c1 -11 -3 -28 -11 -52c-16 -54 -86 -97 -102 -100c-29 -5 -51 26 -26 46c7 4 19 -7 40 22c15 20 12 51 8 76l-2 9c-4 13 -11 28 1 39c24 21 64 4 82 -17z" />
    <glyph glyph-name="macron" unicode="&#xaf;" horiz-adv-x="340" 
d="M314 771c9 -9 8 -58 -15 -61s-55 9 -92 9c-85 0 -132 -1 -143 -5s-25 -2 -32 13c-5 13 -31 30 41 43c48 11 81 6 120 9c63 3 102 11 121 -8z" />
    <glyph glyph-name="Emacron" unicode="&#x112;" 
d="M739 719c37 -10 22 -57 -21 -76c-38 -16 -61 -1 -127 -1c-54 -3 -103 1 -156 -28c-64 -37 -125 -94 -178 -161c75 3 150 15 268 39c36 25 76 -68 -23 -95c-114 -32 -220 -20 -301 -23c-30 -46 -54 -93 -73 -142c-27 -70 -11 -172 44 -195c60 -25 165 1 205 31
c81 57 -11 -91 -108 -131c-55 -25 -140 -23 -181 10c-35 27 -130 90 -74 281c13 47 34 92 61 137c-24 -3 -40 -3 -52 -6c-19 -3 -37 16 -25 43c19 38 42 46 135 49c47 60 102 114 163 161h-1c-35 -24 -87 56 13 82c40 11 190 20 227 23c12 0 24 1 39 2c40 3 132 8 165 0z
M707 834c9 -9 8 -58 -15 -61s-55 9 -92 9c-85 0 -132 -1 -143 -5s-25 -2 -32 13c-5 13 -31 30 41 43c48 11 81 6 120 9c63 3 102 11 121 -8z" />
    <glyph glyph-name="uni0122" unicode="&#x122;" horiz-adv-x="702" 
d="M575 688c-208 -40 -384 -205 -464 -409c-27 -71 -11 -176 45 -195c173 -56 339 194 418 324c4 31 10 51 21 44c19 -11 94 -21 89 -65c-5 -32 -33 -230 -92 -396c25 0 51 -1 76 -3c38 -5 31 -37 -42 -32c-13 1 -27 2 -46 2c-15 -39 -31 -72 -50 -103
c-117 -192 -315 -250 -404 -269c-68 -16 -143 70 -96 172c58 124 239 211 459 230c43 114 66 244 74 317c-9 -16 -21 -34 -35 -53c-61 -86 -220 -285 -365 -285c-36 0 -71 9 -92 26c-34 29 -130 89 -74 282c67 227 301 419 560 491c34 11 107 -4 128 -43
c20 -40 14 -61 -9 -60c-22 0 -37 38 -101 25zM435 -122c15 23 27 46 39 73c-72 -11 -154 -34 -227 -83c-137 -92 -189 -202 -141 -197c47 3 244 72 329 207zM305 -418c7 -9 11 -16 10 -23c1 -11 -3 -28 -11 -52c-16 -54 -86 -97 -102 -100c-29 -5 -51 26 -26 46
c7 4 19 -7 40 22c15 20 12 51 8 76l-2 9c-4 13 -11 28 1 39c24 21 64 4 82 -17z" />
    <glyph glyph-name="Tbar" unicode="&#x166;" horiz-adv-x="325" 
d="M667 782c14 11 44 -7 33 -50c-13 -44 -47 -56 -162 -59c-19 0 -39 -1 -62 -2c-25 -43 -63 -107 -104 -180c47 3 90 -2 105 -14c9 -9 12 -59 -12 -62c-23 -3 -91 13 -128 13c-36 -64 -72 -131 -103 -195c-99 -206 -93 -257 -96 -273c0 -15 -7 -43 -39 -40
c-22 0 -59 40 -30 135c19 62 104 235 173 369c-29 -2 -47 -4 -53 -6c-9 -5 -25 -4 -32 11c-5 13 -33 29 39 45c29 7 54 10 77 11c23 45 40 80 51 99c13 24 26 50 39 77c-101 -11 -215 -27 -315 -50c-16 -40 -111 71 21 95c82 16 224 27 339 35c15 23 28 37 39 41
c13 4 42 -13 54 -34c27 2 47 4 62 6c84 8 91 15 104 28z" />
    <glyph glyph-name="uni0157" unicode="&#x157;" horiz-adv-x="342" 
d="M315 209c5 -47 4 -70 -15 -70c-18 0 -64 15 -59 42c3 27 -16 34 -37 23c-7 -4 -25 -12 -44 -21c-20 -36 -33 -62 -41 -89c-22 -54 2 -82 -67 -119c-28 -15 -50 -17 -61 11c-25 63 84 226 97 258c14 33 7 48 29 65c32 23 45 33 60 10c13 -21 57 -1 23 -64
c40 28 81 56 100 56c33 0 10 -57 15 -102zM64 -67c7 -9 11 -16 10 -23c1 -11 -3 -28 -11 -52c-16 -54 -86 -97 -102 -100c-29 -5 -51 26 -26 46c7 4 19 -7 40 22c15 20 12 51 8 76l-2 9c-4 13 -11 28 1 39c24 21 64 4 82 -17z" />
    <glyph glyph-name="itilde" unicode="&#x129;" horiz-adv-x="253" 
d="M320 185c35 21 45 0 12 -30c-33 -29 -214 -165 -252 -174c-38 -11 -77 24 -72 81c5 54 50 160 77 192c27 33 34 33 42 33c19 0 58 -43 55 -59c-1 -16 -8 -17 -27 -28c-17 -13 -83 -139 -54 -131s185 95 219 116zM72 404c11 21 38 40 59 40s34 -12 49 -32s38 -13 43 -6
c11 15 19 31 30 24s5 -29 0 -42c-8 -24 -45 -43 -78 -29c-34 14 -27 33 -50 30c-20 -3 -36 -28 -47 -23c-15 7 -17 17 -6 38z" />
    <glyph glyph-name="uni013C" unicode="&#x13c;" horiz-adv-x="218" 
d="M457 683c-32 -42 -117 -141 -256 -416c-141 -274 -150 -343 -161 -376s-36 -51 -57 -22c-21 28 -13 86 18 154c28 68 165 406 248 541c84 137 126 195 150 191c24 -5 76 -38 76 -50c3 -12 -10 -11 -18 -22zM28 -173c7 -9 11 -16 10 -23c1 -11 -3 -28 -11 -52
c-16 -54 -86 -97 -102 -100c-29 -5 -51 26 -26 46c7 4 19 -7 40 22c15 20 12 51 8 76l-2 9c-4 13 -11 28 1 39c24 21 64 4 82 -17z" />
    <glyph glyph-name="emacron" unicode="&#x113;" horiz-adv-x="355" 
d="M349 153c69 40 39 -19 10 -38c-30 -19 -204 -110 -274 -126c-72 -16 -101 40 -93 80s48 123 102 174c51 48 93 55 114 52c28 -3 67 -49 72 -90c3 -41 -58 -74 -98 -93c-39 -18 -73 -43 -99 -1c-8 -11 -25 -45 27 -42c51 3 169 43 239 84zM191 211
c-31 -12 -43 -24 -63 -48c18 5 58 23 63 48zM349 379c9 -9 8 -58 -15 -61s-55 9 -92 9c-85 0 -132 -1 -143 -5s-25 -2 -32 13c-5 13 -31 30 41 43c48 11 81 6 120 9c63 3 102 11 121 -8z" />
    <glyph glyph-name="uni0123" unicode="&#x123;" horiz-adv-x="438" 
d="M346 122l41 9c35 4 22 -20 -38 -41c-5 -1 -11 -3 -16 -6c-23 -64 -48 -132 -75 -177c-96 -164 -260 -212 -335 -228c-55 -13 -112 55 -81 146c26 78 178 203 422 275c19 53 28 96 33 116c1 4 2 7 2 11c-71 -49 -137 -85 -173 -104c-42 -22 -87 26 -82 53
c5 29 92 92 132 116c36 22 76 9 93 6c25 -5 8 -24 -2 -27c-32 -13 -120 -83 -75 -67c40 16 94 63 116 82c3 15 7 20 11 17c17 -8 65 -19 62 -55c-3 -16 -16 -66 -35 -126zM186 -73c24 40 44 82 60 122c-65 -28 -143 -66 -215 -113c-118 -78 -164 -188 -124 -185
s208 60 279 176zM202 288c-1 12 3 29 10 52c16 54 88 98 102 100c28 3 53 -25 26 -46c-4 -4 -21 8 -40 -22c-13 -20 -11 -51 -7 -76l2 -9c4 -13 11 -28 -2 -39c-23 -21 -63 -4 -81 17c-7 9 -11 16 -10 23z" />
    <glyph glyph-name="tbar" unicode="&#x167;" horiz-adv-x="215" 
d="M407 641c1 -12 -11 -11 -18 -22c-24 -34 -84 -101 -175 -264c29 3 55 4 74 7c65 8 77 4 74 -4c-2 -7 -36 -57 -104 -68l-88 -15c-12 -23 -25 -45 -38 -72l-11 -21c45 3 75 5 91 -10c9 -9 8 -58 -15 -61s-55 9 -92 9h-15c-99 -206 -110 -264 -118 -293
c-11 -33 -36 -51 -57 -23c-21 29 -13 87 18 155l67 160c-22 -1 -35 -3 -38 -4c-11 -4 -27 -2 -32 13c-5 13 -31 30 41 43c20 4 38 6 54 7c11 27 23 53 35 80c-21 -3 -37 -5 -48 -5c-34 -3 -48 75 -22 85c25 11 21 5 55 8c8 0 29 1 56 2c28 60 56 113 79 152
c84 137 126 195 150 191c25 -6 74 -38 77 -50z" />
    <glyph glyph-name="Amacron" unicode="&#x100;" horiz-adv-x="573" 
d="M582 694c47 0 119 -24 76 -150c-19 -53 -60 -147 -107 -247c67 0 73 -29 35 -48c-11 -5 -34 -10 -66 -17c-53 -112 -104 -216 -120 -254c-34 -76 -31 -87 -26 -104c3 -18 -27 -37 -60 -4s-36 82 18 184c19 35 47 93 79 161c-77 -11 -154 -20 -187 -20c-23 -1 -43 1 -62 4
c-79 -117 -111 -189 -122 -213c-14 -30 -4 -70 -32 -64c-35 8 -79 44 -64 72c123 222 299 463 494 628c69 59 107 72 144 72zM444 287c51 117 105 249 132 337c-53 0 -194 -120 -341 -320l-34 -47c56 5 160 19 243 30zM755 790c9 -9 8 -58 -15 -61s-55 9 -92 9
c-85 0 -132 -1 -143 -5s-25 -2 -32 13c-5 13 -31 30 41 43c48 11 81 6 120 9c63 3 102 11 121 -8z" />
    <glyph glyph-name="Iogonek" unicode="&#x12e;" horiz-adv-x="222" 
d="M369 752c17 5 91 -31 77 -61c-15 -30 -170 -284 -270 -488c-99 -205 -108 -267 -108 -283c-3 -15 -6 -33 -27 -30h-1c-39 0 -52 -21 -51 -32c0 -12 5 -18 14 -25c15 -11 19 -4 24 -3c3 1 13 8 16 9c13 7 30 8 41 -8c5 -11 -1 -27 -14 -39c-3 -3 -22 -13 -55 -10
c-16 1 -41 9 -56 20s-21 34 -24 53c-3 23 12 35 29 47c10 8 25 14 44 18c-11 21 -13 54 3 105c28 95 196 454 235 529c40 77 87 187 123 198z" />
    <glyph glyph-name="Edotaccent" unicode="&#x116;" 
d="M739 719c37 -10 22 -57 -21 -76c-38 -16 -61 -1 -127 -1c-54 -3 -103 1 -156 -28c-64 -37 -125 -94 -178 -161c75 3 150 15 268 39c36 25 76 -68 -23 -95c-114 -32 -220 -20 -301 -23c-30 -46 -54 -93 -73 -142c-27 -70 -11 -172 44 -195c60 -25 165 1 205 31
c81 57 -11 -91 -108 -131c-55 -25 -140 -23 -181 10c-35 27 -130 90 -74 281c13 47 34 92 61 137c-24 -3 -40 -3 -52 -6c-19 -3 -37 16 -25 43c19 38 42 46 135 49c47 60 102 114 163 161h-1c-35 -24 -87 56 13 82c40 11 190 20 227 23c12 0 24 1 39 2c40 3 132 8 165 0z
M587 843c0 -26 -29 -66 -56 -74c-25 -11 -32 2 -41 21c-8 20 -5 45 8 57c13 13 28 7 43 6c12 0 46 5 46 -10z" />
    <glyph glyph-name="Imacron" unicode="&#x12a;" horiz-adv-x="222" 
d="M465 715c27 3 48 -17 47 -33c0 -17 -22 -31 -83 -34h-7c-51 -88 -166 -282 -246 -445c-55 -112 -81 -181 -94 -224c11 1 24 1 37 4c51 11 81 -46 -34 -70l-19 -3c-3 -12 -9 -23 -25 -20c-8 1 -15 6 -22 13c-21 -2 -39 -3 -53 -3c-48 0 -49 33 -32 58c13 20 34 22 67 21
c1 13 5 29 10 46c28 95 196 454 235 529c13 27 27 56 42 85c-15 -3 -28 -2 -35 -5c-23 -9 -58 21 -43 49c13 23 24 32 51 39c13 4 38 3 75 0c13 17 24 27 33 30c13 3 53 -13 71 -36c8 0 16 0 25 -1zM567 847c9 -9 8 -58 -15 -61s-55 9 -92 9c-85 0 -132 -1 -143 -5
s-25 -2 -32 13c-5 13 -31 30 41 43c48 11 81 6 120 9c63 3 102 11 121 -8z" />
    <glyph glyph-name="uni0145" unicode="&#x145;" horiz-adv-x="535" 
d="M718 598c1 -15 -9 -34 -13 -41c-49 -85 -211 -353 -254 -428c-42 -76 -27 -109 -95 -112c-20 -1 -47 14 -59 75c-8 41 -5 153 0 254c3 59 7 123 13 192c-65 -105 -189 -405 -225 -466c-35 -62 -25 -158 -109 -112c-35 19 -38 50 5 125c17 29 102 218 137 288
c35 75 180 274 200 290c20 17 34 10 57 -1c74 -34 69 -67 61 -99c-3 -17 -12 -110 -23 -201l-19 -177c101 109 220 346 267 413c11 13 12 23 17 26c19 8 37 -7 40 -26zM230 -22c7 -9 11 -16 10 -23c1 -11 -3 -28 -11 -52c-16 -54 -86 -97 -102 -100c-29 -5 -51 26 -26 46
c7 4 19 -7 40 22c15 20 12 51 8 76l-2 9c-4 13 -11 28 1 39c24 21 64 4 82 -17z" />
    <glyph glyph-name="Omacron" unicode="&#x14c;" horiz-adv-x="665" 
d="M679 652c46 -83 61 -208 19 -325c-66 -181 -249 -324 -429 -359c-44 -20 -118 -24 -160 -3c-19 4 -26 11 -30 19c-38 31 -118 97 -65 275c51 178 210 337 400 430c35 29 74 50 125 57c8 1 15 1 23 1l12 3c35 11 118 -90 105 -98zM576 344c69 160 35 285 -64 285
c-31 0 -63 -8 -94 -23c-131 -76 -234 -199 -290 -343c-27 -70 -11 -172 44 -195c60 -25 162 1 205 31c17 13 26 17 29 12c84 64 133 148 170 233zM736 863c9 -9 8 -58 -15 -61s-55 9 -92 9c-85 0 -132 -1 -143 -5s-25 -2 -32 13c-5 13 -31 30 41 43c48 11 81 6 120 9
c63 3 102 11 121 -8z" />
    <glyph glyph-name="uni0136" unicode="&#x136;" horiz-adv-x="514" 
d="M597 559c72 -4 -50 -149 -78 -145c-27 -3 -154 -58 -261 -133c1 -31 0 -64 1 -95c0 -73 63 -127 97 -117c36 11 121 62 162 89c40 27 22 -40 -49 -103c-72 -64 -121 -116 -186 -105c-66 11 -144 131 -136 213c0 9 1 19 2 28h-1c-14 -15 -23 -23 -28 -26
c-77 -164 -84 -222 -84 -235c-3 -16 -5 -34 -28 -31c-21 3 -60 40 -31 139c31 98 202 464 242 544c40 78 90 192 126 203c20 6 92 -31 79 -63c-10 -23 -110 -185 -201 -354c135 94 309 194 374 191zM169 -77c7 -9 11 -16 10 -23c1 -11 -3 -28 -11 -52
c-16 -54 -86 -97 -102 -100c-29 -5 -51 26 -26 46c7 4 19 -7 40 22c15 20 12 51 8 76l-2 9c-4 13 -11 28 1 39c24 21 64 4 82 -17z" />
    <glyph glyph-name="Uogonek" unicode="&#x172;" horiz-adv-x="639" 
d="M844 824c16 5 71 -31 57 -61c-16 -28 -170 -285 -270 -488c-98 -205 -96 -258 -96 -273c-1 -7 -2 -14 -5 -21v-3c0 -7 -4 -16 -15 -16h-10h-4c-33 -3 -44 -21 -43 -32c0 -12 5 -18 14 -25c15 -11 19 -4 24 -3c3 1 13 8 16 9c13 7 30 8 41 -8c5 -11 -1 -27 -14 -39
c-3 -3 -22 -13 -55 -10c-16 1 -41 9 -56 20s-21 34 -24 53c-3 23 12 35 29 47c7 6 17 11 31 15c-11 21 -14 56 2 108c7 23 22 57 42 101c-66 -87 -136 -165 -188 -190c-118 -54 -209 -40 -252 6c-64 72 -102 193 -22 332c80 138 157 304 176 336c17 31 59 77 86 90
c44 20 78 1 74 -38c-6 -39 -34 -59 -58 -94c-23 -35 -162 -245 -194 -326c-32 -79 4 -225 84 -228c79 -5 229 106 402 335c46 91 89 173 105 205c40 77 87 187 123 198z" />
    <glyph glyph-name="Utilde" unicode="&#x168;" horiz-adv-x="639" 
d="M844 824c16 5 71 -31 57 -61c-16 -28 -170 -285 -270 -488c-98 -205 -96 -258 -96 -273c-2 -15 -6 -43 -39 -40c-22 0 -59 40 -30 135c7 23 22 57 42 101c-66 -87 -136 -165 -188 -190c-118 -54 -209 -40 -252 6c-64 72 -102 193 -22 332c80 138 157 304 176 336
c17 31 59 77 86 90c44 20 78 1 74 -38c-6 -39 -34 -59 -58 -94c-23 -35 -162 -245 -194 -326c-32 -79 4 -225 84 -228c79 -5 229 106 402 335c46 91 89 173 105 205c40 77 87 187 123 198zM527 856c11 21 38 40 59 40s34 -12 49 -32s38 -13 43 -6c11 15 19 31 30 24
s5 -29 0 -42c-8 -24 -45 -43 -78 -29c-34 14 -27 33 -50 30c-20 -3 -36 -28 -47 -23c-15 7 -17 17 -6 38z" />
    <glyph glyph-name="Umacron" unicode="&#x16a;" horiz-adv-x="639" 
d="M844 824c16 5 71 -31 57 -61c-16 -28 -170 -285 -270 -488c-98 -205 -96 -258 -96 -273c-2 -15 -6 -43 -39 -40c-22 0 -59 40 -30 135c7 23 22 57 42 101c-66 -87 -136 -165 -188 -190c-118 -54 -209 -40 -252 6c-64 72 -102 193 -22 332c80 138 157 304 176 336
c17 31 59 77 86 90c44 20 78 1 74 -38c-6 -39 -34 -59 -58 -94c-23 -35 -162 -245 -194 -326c-32 -79 4 -225 84 -228c79 -5 229 106 402 335c46 91 89 173 105 205c40 77 87 187 123 198zM765 901c9 -9 8 -58 -15 -61s-55 9 -92 9c-85 0 -132 -1 -143 -5s-25 -2 -32 13
c-5 13 -31 30 41 43c48 11 81 6 120 9c63 3 102 11 121 -8z" />
    <glyph glyph-name="amacron" unicode="&#x101;" horiz-adv-x="428" 
d="M256 257c-12 0 -139 -72 -139 -103c10 0 161 73 169 69c15 -11 21 -32 9 -45c-16 -19 -40 -48 -14 -32c24 16 206 82 243 94c38 13 6 -35 -45 -67s-194 -106 -224 -117s-91 3 -72 57c-36 -21 -77 -33 -100 -42c-23 -8 -92 15 -81 82c10 66 125 135 157 143
c33 8 86 10 113 -20c7 -7 -3 -22 -16 -19zM368 408c9 -9 8 -58 -15 -61s-55 9 -92 9c-85 0 -132 -1 -143 -5s-25 -2 -32 13c-5 13 -31 30 41 43c48 11 81 6 120 9c63 3 102 11 121 -8z" />
    <glyph glyph-name="iogonek" unicode="&#x12f;" horiz-adv-x="253" 
d="M208 350c-16 -13 -61 -30 -72 -6c-13 23 -23 64 -8 69c17 6 54 16 59 16c17 3 30 -30 43 -45c12 -15 -6 -21 -22 -34zM320 185c35 21 45 0 12 -30c-25 -22 -125 -100 -195 -143c-9 -8 -13 -16 -12 -23c0 -12 5 -18 14 -25c15 -11 19 -4 24 -3c3 1 13 8 16 9
c13 7 30 8 41 -8c5 -11 -1 -27 -14 -39c-3 -3 -22 -13 -55 -10c-16 1 -41 9 -56 20c-15 9 -21 29 -24 46c-35 -3 -68 31 -63 83c5 54 50 160 77 192c27 33 34 33 42 33c19 0 58 -43 55 -59c-1 -16 -8 -17 -27 -28c-17 -13 -83 -139 -54 -131s185 95 219 116z" />
    <glyph glyph-name="edotaccent" unicode="&#x117;" horiz-adv-x="355" 
d="M349 153c69 40 39 -19 10 -38c-30 -19 -204 -110 -274 -126c-72 -16 -101 40 -93 80s48 123 102 174c51 48 93 55 114 52c28 -3 67 -49 72 -90c3 -41 -58 -74 -98 -93c-39 -18 -73 -43 -99 -1c-8 -11 -25 -45 27 -42c51 3 169 43 239 84zM191 211
c-31 -12 -43 -24 -63 -48c18 5 58 23 63 48zM260 415c0 -26 -29 -66 -56 -74c-25 -11 -32 2 -41 21c-8 20 -5 45 8 57c13 13 28 7 43 6c12 0 46 5 46 -10z" />
    <glyph glyph-name="imacron" unicode="&#x12b;" horiz-adv-x="253" 
d="M320 185c35 21 45 0 12 -30c-33 -29 -214 -165 -252 -174c-38 -11 -77 24 -72 81c5 54 50 160 77 192c27 33 34 33 42 33c19 0 58 -43 55 -59c-1 -16 -8 -17 -27 -28c-17 -13 -83 -139 -54 -131s185 95 219 116zM307 431c9 -9 8 -58 -15 -61s-55 9 -92 9
c-85 0 -132 -1 -143 -5s-25 -2 -32 13c-5 13 -31 30 41 43c48 11 81 6 120 9c63 3 102 11 121 -8z" />
    <glyph glyph-name="uni0146" unicode="&#x146;" horiz-adv-x="506" 
d="M195 355c15 -8 26 -28 19 -39c-6 -8 -44 -53 -92 -192c81 59 189 190 231 187c43 -3 61 -33 38 -84c-24 -53 -35 -143 -9 -135s96 49 127 70c31 18 18 -30 -38 -80c-56 -51 -96 -90 -146 -82s-53 156 -21 209c-14 8 -98 -102 -157 -167c-61 -64 -83 -71 -110 -68
c-25 3 -47 77 -31 102c16 27 28 34 58 113c29 74 56 147 62 161c7 15 34 24 69 5zM256 -20c7 -9 11 -16 10 -23c1 -11 -3 -28 -11 -52c-16 -54 -86 -97 -102 -100c-29 -5 -51 26 -26 46c7 4 19 -7 40 22c15 20 12 51 8 76l-2 9c-4 13 -11 28 1 39c24 21 64 4 82 -17z" />
    <glyph glyph-name="omacron" unicode="&#x14d;" horiz-adv-x="244" 
d="M156 286c16 -13 101 -72 79 -153s-122 -140 -187 -126c-65 13 -66 95 -39 133s85 112 121 120l11 3c-3 5 -6 9 -11 12c-32 26 10 22 26 11zM91 104c-2 -12 38 5 57 32c7 9 11 28 11 48c-29 -26 -65 -70 -68 -80zM330 388c9 -9 8 -58 -15 -61s-55 9 -92 9
c-85 0 -132 -1 -143 -5s-25 -2 -32 13c-5 13 -31 30 41 43c48 11 81 6 120 9c63 3 102 11 121 -8z" />
    <glyph glyph-name="uni0137" unicode="&#x137;" horiz-adv-x="326" 
d="M368 342c47 -3 -32 -91 -51 -88c-17 0 -90 -35 -154 -77c7 -24 12 -54 24 -87s41 -58 80 -47c25 7 60 28 87 45c27 16 16 -31 -32 -73c-46 -43 -67 -49 -97 -49c-59 0 -124 107 -124 160c-9 -9 -17 -19 -29 -26c-37 -88 -61 -144 -84 -141c-28 3 -40 74 -24 103
c16 28 151 313 219 445c41 81 54 145 61 160s31 24 70 3c15 -8 28 -31 21 -42c-7 -7 -154 -258 -218 -417c89 65 205 134 251 131zM118 -63c7 -9 11 -16 10 -23c1 -11 -3 -28 -11 -52c-16 -54 -86 -97 -102 -100c-29 -5 -51 26 -26 46c7 4 19 -7 40 22c15 20 12 51 8 76
l-2 9c-4 13 -11 28 1 39c24 21 64 4 82 -17z" />
    <glyph glyph-name="uogonek" unicode="&#x173;" horiz-adv-x="376" 
d="M243 -9c-44 1 -58 -20 -57 -32c0 -12 5 -18 14 -25c15 -11 19 -4 24 -3c3 1 13 8 16 9c13 7 30 8 41 -8c5 -11 -1 -27 -14 -39c-3 -3 -22 -13 -55 -10c-16 1 -41 9 -56 20s-21 34 -24 53c-3 23 12 35 29 47c10 8 24 14 42 18c-16 24 -8 70 0 100
c-55 -42 -85 -87 -139 -100c-55 -13 -68 58 -71 77c-3 18 67 144 82 172c15 29 19 33 43 34c23 1 43 -3 58 -10c9 -5 21 -18 -6 -54c-26 -37 -90 -159 -65 -140s142 116 172 176c12 25 17 24 34 21c18 -3 77 -29 61 -53c-16 -23 -84 -141 -95 -175c-14 -36 -2 -60 -19 -71
c-1 -1 -3 -2 -4 -2c-2 -3 -6 -5 -11 -5z" />
    <glyph glyph-name="utilde" unicode="&#x169;" horiz-adv-x="376" 
d="M176 294c9 -5 21 -18 -6 -54c-26 -37 -90 -159 -65 -140s142 116 172 176c12 25 17 24 34 21c18 -3 77 -29 61 -53c-16 -23 -84 -141 -95 -175c-14 -36 -2 -60 -19 -71c-16 -11 -30 -5 -51 18c-22 22 -12 72 -4 105c-55 -42 -85 -87 -139 -100c-55 -13 -68 58 -71 77
c-3 18 67 144 82 172c15 29 19 33 43 34c23 1 43 -3 58 -10zM168 383c11 21 38 40 59 40s34 -12 49 -32s38 -13 43 -6c11 15 19 31 30 24s5 -29 0 -42c-8 -24 -45 -43 -78 -29c-34 14 -27 33 -50 30c-20 -3 -36 -28 -47 -23c-15 7 -17 17 -6 38z" />
    <glyph glyph-name="umacron" unicode="&#x16b;" horiz-adv-x="376" 
d="M176 294c9 -5 21 -18 -6 -54c-26 -37 -90 -159 -65 -140s142 116 172 176c12 25 17 24 34 21c18 -3 77 -29 61 -53c-16 -23 -84 -141 -95 -175c-14 -36 -2 -60 -19 -71c-16 -11 -30 -5 -51 18c-22 22 -12 72 -4 105c-55 -42 -85 -87 -139 -100c-55 -13 -68 58 -71 77
c-3 18 67 144 82 172c15 29 19 33 43 34c23 1 43 -3 58 -10zM412 411c9 -9 8 -58 -15 -61s-55 9 -92 9c-85 0 -132 -1 -143 -5s-25 -2 -32 13c-5 13 -31 30 41 43c48 11 81 6 120 9c63 3 102 11 121 -8z" />
    <glyph glyph-name="uni1E02" unicode="&#x1e02;" horiz-adv-x="586" 
d="M486 317c133 -19 120 -108 70 -184c-30 -43 -200 -183 -420 -202c-49 -5 -86 -4 -111 0c-8 -19 -17 -35 -25 -50c-17 -24 -32 -40 -43 -39c-27 2 -47 63 -34 133c4 31 245 502 289 582c45 79 82 163 87 178c7 15 18 26 57 5c15 -9 28 -31 21 -42c-3 -3 -18 -33 -41 -78
c165 141 299 98 326 5c24 -81 -64 -215 -287 -326c56 13 96 21 111 18zM272 498c-44 -88 -93 -187 -126 -266l1 3c113 65 450 246 402 358c-43 93 -231 -53 -277 -95zM35 -43c285 0 473 254 428 295c-29 26 -199 -4 -336 -66v-1c-19 -29 -71 -172 -92 -228zM532 838
c0 -26 -29 -66 -56 -74c-25 -11 -32 2 -41 21c-8 20 -5 45 8 57c13 13 28 7 43 6c12 0 46 5 46 -10z" />
    <glyph glyph-name="uni1E03" unicode="&#x1e03;" horiz-adv-x="471" 
d="M378 723c15 -8 28 -31 21 -42s-206 -381 -258 -534c67 86 168 173 226 173c61 0 90 -47 79 -110c-11 -61 -67 -193 -206 -214c-137 -22 -170 39 -114 34c99 -12 228 158 200 178c-15 10 -106 -49 -172 -120c-67 -72 -115 -180 -144 -177c-30 3 -50 84 -34 113
c16 28 214 436 258 516c45 79 82 163 87 178c7 15 20 26 57 5zM498 585c0 -26 -29 -66 -56 -74c-25 -11 -32 2 -41 21c-8 20 -5 45 8 57c13 13 28 7 43 6c12 0 46 5 46 -10z" />
    <glyph glyph-name="uni1E0A" unicode="&#x1e0a;" horiz-adv-x="670" 
d="M543 750c126 16 234 -205 159 -399c-75 -196 -300 -342 -500 -350c-111 -5 -125 21 -120 39c5 19 77 8 107 14c228 42 330 178 391 313c69 152 35 271 -64 271c-80 0 -158 -47 -227 -111c-56 -112 -126 -249 -158 -337c-20 -33 -58 -129 -68 -160c-8 -21 -19 -42 -28 -58
c-17 -24 -31 -40 -43 -39c-30 3 -49 84 -34 112c16 29 214 436 258 516c45 80 82 164 87 179c7 15 18 25 57 4c15 -8 28 -31 21 -42c-3 -3 -19 -35 -46 -86c56 56 112 123 208 134zM591 864c0 -26 -29 -66 -56 -74c-25 -11 -32 2 -41 21c-8 20 -5 45 8 57c13 13 28 7 43 6
c12 0 46 5 46 -10z" />
    <glyph glyph-name="Wgrave" unicode="&#x1e80;" horiz-adv-x="691" 
d="M846 692c34 -16 35 -49 -10 -126c-16 -32 -109 -227 -145 -299c-40 -79 -190 -298 -209 -317c-21 -19 -34 -11 -57 -3c-72 27 -56 74 -48 106c3 17 13 110 21 200c5 53 10 111 15 176c-121 -141 -262 -438 -294 -454c-3 -2 -8 -4 -15 -5c-5 -16 -16 -25 -39 -24
c-21 0 -45 19 -53 80l-2 30c-1 6 -1 11 0 15c-3 71 -1 203 2 314c1 66 3 134 6 205c-39 18 -4 108 17 124c23 15 35 6 58 -6c71 -40 61 -71 53 -103c-5 -16 -13 -139 -18 -259c-3 -71 -7 -149 -12 -235c-4 -17 -5 -34 -6 -51c60 112 213 353 256 427c46 81 31 112 98 120
c21 3 46 -11 57 -71c8 -42 0 -155 -8 -256c-5 -60 -12 -125 -19 -194c68 111 210 431 246 496c37 64 23 150 106 110zM518 783c19 -19 36 -32 33 -43c-3 -15 -26 -20 -50 -13c-21 5 -49 25 -77 64c-19 27 -30 45 -23 64c10 31 43 38 48 29c0 -1 1 -2 1 -3
c13 -45 55 -88 68 -98z" />
    <glyph glyph-name="Wacute" unicode="&#x1e82;" horiz-adv-x="691" 
d="M846 692c34 -16 35 -49 -10 -126c-16 -32 -109 -227 -145 -299c-40 -79 -190 -298 -209 -317c-21 -19 -34 -11 -57 -3c-72 27 -56 74 -48 106c3 17 13 110 21 200c5 53 10 111 15 176c-121 -141 -262 -438 -294 -454c-3 -2 -8 -4 -15 -5c-5 -16 -16 -25 -39 -24
c-21 0 -45 19 -53 80l-2 30c-1 6 -1 11 0 15c-3 71 -1 203 2 314c1 66 3 134 6 205c-39 18 -4 108 17 124c23 15 35 6 58 -6c71 -40 61 -71 53 -103c-5 -16 -13 -139 -18 -259c-3 -71 -7 -149 -12 -235c-4 -17 -5 -34 -6 -51c60 112 213 353 256 427c46 81 31 112 98 120
c21 3 46 -11 57 -71c8 -42 0 -155 -8 -256c-5 -60 -12 -125 -19 -194c68 111 210 431 246 496c37 64 23 150 106 110zM494 761c12 12 56 52 75 98c0 1 0 2 1 3c3 10 36 1 46 -29c5 -19 -4 -40 -28 -64c-35 -36 -60 -53 -83 -58c-23 -7 -47 -8 -48 7c0 11 16 24 37 43z" />
    <glyph glyph-name="uni1E0B" unicode="&#x1e0b;" horiz-adv-x="410" 
d="M528 613c-5 -10 -147 -230 -199 -382c-11 -29 -23 -63 -38 -95c41 16 141 68 170 68c46 -3 -67 -73 -110 -111c-44 -39 -92 -71 -121 -67c-28 4 -48 22 -52 38c-3 8 -5 21 -6 32l-2 20c-17 -17 -75 -61 -118 -56c-40 5 -45 39 -50 46c-6 9 -2 53 39 97
c42 44 129 99 183 113c21 5 37 -1 48 -12l91 168c45 80 82 164 87 179c7 15 20 25 57 4c15 -8 28 -31 21 -42zM109 152c20 7 63 16 99 43l10 7l22 41l-22 -6c-29 -10 -104 -82 -109 -85zM334 610c0 -26 -29 -66 -56 -74c-25 -11 -32 2 -41 21c-8 20 -5 45 8 57
c13 13 28 7 43 6c12 0 46 5 46 -10z" />
    <glyph glyph-name="Ygrave" unicode="&#x1ef2;" horiz-adv-x="438" 
d="M598 786c23 -36 6 -104 -37 -181c-44 -77 -180 -438 -235 -517c-111 -156 -169 -218 -197 -210c-27 7 -91 52 -86 66c8 26 62 29 181 180c68 89 153 277 217 426c-58 -88 -127 -189 -153 -226c-42 -58 -64 -69 -94 -66c-23 0 -60 6 -78 60c-14 38 -34 126 -53 207
c-11 47 -23 97 -34 150c-49 22 -23 95 -2 108c21 11 38 2 65 -11c88 -40 83 -70 78 -96c-3 -13 9 -86 22 -156c7 -41 16 -87 26 -137c33 -73 231 259 278 310l6 7c15 35 23 58 26 65c16 39 47 57 70 21zM367 833c19 -19 36 -32 33 -43c-3 -15 -26 -20 -50 -13
c-21 5 -49 25 -77 64c-19 27 -30 45 -23 64c10 31 43 38 48 29c0 -1 1 -2 1 -3c13 -45 55 -88 68 -98z" />
    <glyph glyph-name="uni1E1E" unicode="&#x1e1e;" horiz-adv-x="427" 
d="M648 809c7 -7 30 -86 -68 -78c-51 3 -105 -43 -127 -86l-101 -193c56 9 109 21 184 40c35 24 67 -92 -36 -113c-73 -15 -138 -16 -195 -16c-23 -43 -42 -81 -59 -116c-109 -228 -125 -298 -184 -394c-5 -7 -10 -13 -17 -18l-15 -30c-19 -24 -32 -40 -43 -39
c-30 3 -31 84 -15 113c11 19 72 183 141 324c8 19 15 34 23 47c1 3 2 4 2 4c21 43 40 80 55 108c-4 0 -8 -1 -12 -1c-85 -7 -124 -9 -147 -14c-19 -3 -37 16 -25 43c19 41 49 49 163 49c20 0 39 0 56 1c33 84 58 159 61 202c3 60 61 161 123 193c152 78 211 -1 236 -26z
M598 977c0 -26 -29 -66 -56 -74c-25 -11 -32 2 -41 21c-8 20 -5 45 8 57c13 13 28 7 43 6c12 0 46 5 46 -10z" />
    <glyph glyph-name="uni1E1F" unicode="&#x1e1f;" horiz-adv-x="317" 
d="M269 106c64 9 76 3 73 -5c-2 -6 -34 -56 -103 -67c-32 -7 -78 -14 -123 -21c-75 -146 -134 -303 -171 -391c-34 -82 22 -96 -13 -120c-35 -23 -96 3 -88 88c5 64 93 263 162 407c-5 0 -10 -1 -13 -1c-35 0 -48 75 -23 86c26 10 21 7 56 7c4 0 13 1 25 1l8 16
c61 128 149 280 204 296c30 7 114 -30 98 -82c-5 -16 -50 -19 -82 -54c-41 -47 -81 -105 -118 -170c41 3 81 6 108 10zM394 523c0 -26 -29 -66 -56 -74c-25 -11 -32 2 -41 21c-8 20 -5 45 8 57c13 13 28 7 43 6c12 0 46 5 46 -10z" />
    <glyph glyph-name="uni1E40" unicode="&#x1e40;" horiz-adv-x="860" 
d="M774 -119c-25 -11 -59 9 -61 26c-29 31 -44 104 -44 156c0 46 21 166 42 276c12 64 26 133 42 208c-56 -92 -247 -353 -299 -428c-50 -76 -40 -109 -107 -112c-21 -1 -46 14 -51 75c-5 40 11 154 27 254c9 59 20 123 33 192c-76 -104 -241 -415 -282 -476
c-40 -61 -34 -147 -114 -102c-32 19 -32 50 19 125c19 31 124 217 167 288c43 74 210 285 232 300c21 17 36 10 57 -1c70 -35 48 -77 40 -109c-5 -15 -20 -110 -36 -198c-9 -52 -18 -110 -28 -174c132 132 293 416 327 431c33 16 99 -6 115 -87c12 -72 -59 -340 -75 -460
c-3 -56 11 -86 31 -113c11 -5 -3 -58 -35 -71zM678 775c0 -26 -29 -66 -56 -74c-25 -11 -32 2 -41 21c-8 20 -5 45 8 57c13 13 28 7 43 6c12 0 46 5 46 -10z" />
    <glyph glyph-name="uni1E41" unicode="&#x1e41;" horiz-adv-x="668" 
d="M689 169c31 15 9 -28 -30 -62s-153 -115 -177 -125c-22 -11 -69 -9 -69 28c-10 13 -13 30 -8 49c5 17 15 50 26 79l18 53c-32 -35 -122 -101 -151 -130s-29 -42 -56 -42c-28 1 -54 21 -53 52c0 15 13 44 25 69c7 15 15 30 24 46c-42 -40 -127 -126 -151 -148
c-24 -24 -25 -32 -52 -16c-29 16 -24 57 -32 65s9 43 29 66c19 24 112 133 120 152c9 19 20 41 33 36c15 -4 26 -6 33 -13c11 -7 17 -14 6 -35c-7 -11 -23 -39 -40 -66l-32 -51c27 27 127 107 136 112c11 7 22 14 54 -5s32 -29 25 -41l-23 -40l-17 -30c69 49 124 85 139 92
c15 5 74 -17 71 -48c0 -28 -33 -104 -52 -149c1 -8 4 -10 8 -6c21 17 165 92 196 108zM478 404c0 -26 -29 -66 -56 -74c-25 -11 -32 2 -41 21c-8 20 -5 45 8 57c13 13 28 7 43 6c12 0 46 5 46 -10z" />
    <glyph glyph-name="uni1E56" unicode="&#x1e56;" horiz-adv-x="451" 
d="M408 657c176 115 350 33 331 -80c-19 -112 -190 -304 -543 -352c-7 -15 -12 -29 -17 -42c-21 -34 -57 -129 -68 -159c-9 -23 -19 -42 -28 -59c-17 -24 -32 -40 -43 -39c-30 3 -50 84 -34 113c16 28 214 436 258 516c45 79 82 163 87 178c7 15 18 26 57 5
c15 -8 28 -31 21 -42c-1 -3 -9 -16 -21 -39zM610 554c24 134 -144 50 -261 -10c-41 -80 -89 -176 -128 -260c161 48 367 154 389 270zM648 823c0 -26 -29 -66 -56 -74c-25 -11 -32 2 -41 21c-8 20 -5 45 8 57c13 13 28 7 43 6c12 0 46 5 46 -10z" />
    <glyph glyph-name="wgrave" unicode="&#x1e81;" horiz-adv-x="503" 
d="M56 349c28 25 40 36 63 12c22 -25 58 1 34 -80c-23 -80 -41 -151 -41 -195c59 51 140 192 165 175c19 -12 40 -35 31 -80c-3 -16 -11 -44 -12 -83c16 0 60 30 84 59c67 77 97 180 116 156c18 -23 -4 -129 -47 -196c-45 -68 -145 -154 -195 -154c-39 0 -61 83 -53 122
c-67 -48 -139 -165 -184 -96c-47 68 21 253 26 288s-7 54 13 72zM352 422c19 -19 36 -32 33 -43c-3 -15 -26 -20 -50 -13c-21 5 -49 25 -77 64c-19 27 -30 45 -23 64c10 31 43 38 48 29c0 -1 1 -2 1 -3c13 -45 55 -88 68 -98z" />
    <glyph glyph-name="uni1E57" unicode="&#x1e57;" horiz-adv-x="529" 
d="M556 160c26 -16 -43 -28 -78 -42c-25 -11 -77 -26 -117 -39c-24 -24 -52 -46 -83 -63c-88 -51 -129 -80 -161 -27c-32 54 69 131 195 161c28 20 35 57 18 73c-6 6 -70 -3 -209 -156c-5 -7 -10 -11 -14 -15c-40 -100 -182 -395 -194 -431c-15 -43 -18 -65 -41 -58
c-24 5 -40 70 -17 114c33 67 217 512 233 544c13 32 35 57 47 60c32 5 52 -24 64 -36c2 -2 1 -8 -3 -18c41 32 63 62 125 70c84 11 116 -23 113 -88c0 -12 -4 -27 -13 -46c34 8 112 10 135 -3zM384 410c0 -26 -29 -66 -56 -74c-25 -11 -32 2 -41 21c-8 20 -5 45 8 57
c13 13 28 7 43 6c12 0 46 5 46 -10z" />
    <glyph glyph-name="wacute" unicode="&#x1e83;" horiz-adv-x="503" 
d="M56 349c28 25 40 36 63 12c22 -25 58 1 34 -80c-23 -80 -41 -151 -41 -195c59 51 140 192 165 175c19 -12 40 -35 31 -80c-3 -16 -11 -44 -12 -83c16 0 60 30 84 59c67 77 97 180 116 156c18 -23 -4 -129 -47 -196c-45 -68 -145 -154 -195 -154c-39 0 -61 83 -53 122
c-67 -48 -139 -165 -184 -96c-47 68 21 253 26 288s-7 54 13 72zM325 405c12 12 56 52 75 98c0 1 0 2 1 3c3 10 36 1 46 -29c5 -19 -4 -40 -28 -64c-35 -36 -60 -53 -83 -58c-23 -7 -47 -8 -48 7c0 11 16 24 37 43z" />
    <glyph glyph-name="uni1E60" unicode="&#x1e60;" horiz-adv-x="444" 
d="M488 669c-22 0 -40 -5 -103 -60c-65 -57 -253 -193 -286 -296c-19 -61 25 -73 85 -89c60 -17 120 -33 159 -68c31 -28 50 -69 41 -110c-19 -93 -164 -244 -288 -249c-125 -5 -82 129 -52 170c29 40 141 138 159 146c20 9 14 -7 -25 -58c-38 -49 -139 -195 -104 -195
c45 -3 162 64 215 191c15 31 17 57 4 68c-20 16 -54 29 -78 36c-43 11 -180 40 -206 116c-34 95 40 194 107 263c65 69 233 223 254 236c23 11 71 20 108 5c56 -24 43 -106 10 -106zM502 909c0 -26 -29 -66 -56 -74c-25 -11 -32 2 -41 21c-8 20 -5 45 8 57c13 13 28 7 43 6
c12 0 46 5 46 -10z" />
    <glyph glyph-name="ygrave" unicode="&#x1ef3;" horiz-adv-x="400" 
d="M322 79l56 12c35 4 22 -20 -38 -41l-32 -10c-19 -51 -39 -98 -59 -133c-96 -164 -260 -212 -335 -228c-55 -13 -112 55 -81 146c26 76 171 169 407 233c23 57 35 108 43 139c-64 -49 -108 -90 -152 -102c-44 -13 -109 32 -96 81c9 29 61 91 102 116c35 21 45 20 61 17
c25 -6 12 -20 0 -37c-16 -20 -109 -132 -21 -96c40 16 99 81 122 107c2 17 6 23 11 20c17 -8 65 -19 62 -55c-3 -21 -23 -92 -50 -169zM177 -73c17 28 32 56 44 85c-65 -21 -141 -52 -209 -96c-118 -78 -155 -168 -114 -165c40 3 208 60 279 176zM308 418
c19 -19 36 -32 33 -43c-3 -15 -26 -20 -50 -13c-21 5 -49 25 -77 64c-19 27 -30 45 -23 64c10 31 43 38 48 29c0 -1 1 -2 1 -3c13 -45 55 -88 68 -98z" />
    <glyph glyph-name="Wdieresis" unicode="&#x1e84;" horiz-adv-x="691" 
d="M846 692c34 -16 35 -49 -10 -126c-16 -32 -109 -227 -145 -299c-40 -79 -190 -298 -209 -317c-21 -19 -34 -11 -57 -3c-72 27 -56 74 -48 106c3 17 13 110 21 200c5 53 10 111 15 176c-121 -141 -262 -438 -294 -454c-3 -2 -8 -4 -15 -5c-5 -16 -16 -25 -39 -24
c-21 0 -45 19 -53 80l-2 30c-1 6 -1 11 0 15c-3 71 -1 203 2 314c1 66 3 134 6 205c-39 18 -4 108 17 124c23 15 35 6 58 -6c71 -40 61 -71 53 -103c-5 -16 -13 -139 -18 -259c-3 -71 -7 -149 -12 -235c-4 -17 -5 -34 -6 -51c60 112 213 353 256 427c46 81 31 112 98 120
c21 3 46 -11 57 -71c8 -42 0 -155 -8 -256c-5 -60 -12 -125 -19 -194c68 111 210 431 246 496c37 64 23 150 106 110zM460 835c13 0 47 5 47 -10c0 -25 -31 -67 -56 -74c-25 -11 -32 2 -41 21c-8 20 -5 45 7 57c15 13 30 7 43 6zM596 835c13 0 47 5 47 -10
c0 -25 -31 -67 -56 -74c-25 -11 -32 2 -41 21c-8 20 -5 45 7 57c15 13 30 7 43 6z" />
    <glyph glyph-name="wdieresis" unicode="&#x1e85;" horiz-adv-x="503" 
d="M56 349c28 25 40 36 63 12c22 -25 58 1 34 -80c-23 -80 -41 -151 -41 -195c59 51 140 192 165 175c19 -12 40 -35 31 -80c-3 -16 -11 -44 -12 -83c16 0 60 30 84 59c67 77 97 180 116 156c18 -23 -4 -129 -47 -196c-45 -68 -145 -154 -195 -154c-39 0 -61 83 -53 122
c-67 -48 -139 -165 -184 -96c-47 68 21 253 26 288s-7 54 13 72zM291 504c13 0 47 5 47 -10c0 -25 -31 -67 -56 -74c-25 -11 -32 2 -41 21c-8 20 -5 45 7 57c15 13 30 7 43 6zM427 504c13 0 47 5 47 -10c0 -25 -31 -67 -56 -74c-25 -11 -32 2 -41 21c-8 20 -5 45 7 57
c15 13 30 7 43 6z" />
    <glyph glyph-name="uni1E61" unicode="&#x1e61;" horiz-adv-x="261" 
d="M221 234c74 35 135 29 108 18c-39 -18 -123 -69 -181 -111c1 -8 1 -16 4 -24c12 -57 1 -112 -36 -140c-35 -27 -81 -24 -106 -1c-11 8 -19 23 -27 30c-8 8 -4 43 13 71c15 24 43 49 82 76c-3 11 -8 21 -11 32c-19 57 8 105 33 130c38 38 103 36 120 28
c16 -8 17 -31 10 -35c-5 -5 -8 -5 -17 -5c-25 0 -45 -18 -60 -53c-7 -15 -10 -35 -10 -58c27 16 55 31 78 42zM91 37c5 16 0 36 -3 63l-5 -4c-50 -39 -49 -69 -49 -80c1 -5 4 -10 9 -14c16 0 40 10 48 35zM252 454c0 -26 -29 -66 -56 -74c-25 -11 -32 2 -41 21
c-8 20 -5 45 8 57c13 13 28 7 43 6c12 0 46 5 46 -10z" />
    <glyph glyph-name="Wcircumflex" unicode="&#x174;" horiz-adv-x="691" 
d="M846 692c34 -16 35 -49 -10 -126c-16 -32 -109 -227 -145 -299c-40 -79 -190 -298 -209 -317c-21 -19 -34 -11 -57 -3c-72 27 -56 74 -48 106c3 17 13 110 21 200c5 53 10 111 15 176c-121 -141 -262 -438 -294 -454c-3 -2 -8 -4 -15 -5c-5 -16 -16 -25 -39 -24
c-21 0 -45 19 -53 80l-2 30c-1 6 -1 11 0 15c-3 71 -1 203 2 314c1 66 3 134 6 205c-39 18 -4 108 17 124c23 15 35 6 58 -6c71 -40 61 -71 53 -103c-5 -16 -13 -139 -18 -259c-3 -71 -7 -149 -12 -235c-4 -17 -5 -34 -6 -51c60 112 213 353 256 427c46 81 31 112 98 120
c21 3 46 -11 57 -71c8 -42 0 -155 -8 -256c-5 -60 -12 -125 -19 -194c68 111 210 431 246 496c37 64 23 150 106 110zM417 757c-7 3 -12 12 -8 28c9 16 22 39 33 51c43 48 69 70 94 82c15 7 31 14 48 11c22 -3 56 -39 59 -87c1 -23 -6 -45 -17 -62c-18 -29 -64 -30 -64 -20
v3c21 72 4 92 -5 104c-19 -9 -64 -40 -104 -87c-19 -23 -25 -26 -36 -23z" />
    <glyph glyph-name="uni1E6A" unicode="&#x1e6a;" horiz-adv-x="325" 
d="M667 782c14 11 44 -7 33 -50c-13 -44 -47 -56 -162 -59c-19 0 -39 -1 -62 -2c-53 -90 -165 -279 -242 -438c-99 -206 -93 -257 -96 -273c0 -15 -7 -43 -39 -40c-22 0 -59 40 -30 135c32 95 215 453 255 529c13 24 26 50 39 77c-101 -11 -215 -27 -315 -50
c-16 -40 -111 71 21 95c82 16 224 27 339 35c15 23 28 37 39 41c13 4 42 -13 54 -34c27 2 47 4 62 6c84 8 91 15 104 28zM544 904c0 -26 -29 -66 -56 -74c-25 -11 -32 2 -41 21c-8 20 -5 45 8 57c13 13 28 7 43 6c12 0 46 5 46 -10z" />
    <glyph glyph-name="Ycircumflex" unicode="&#x176;" horiz-adv-x="438" 
d="M598 786c23 -36 6 -104 -37 -181c-44 -77 -180 -438 -235 -517c-111 -156 -169 -218 -197 -210c-27 7 -91 52 -86 66c8 26 62 29 181 180c68 89 153 277 217 426c-58 -88 -127 -189 -153 -226c-42 -58 -64 -69 -94 -66c-23 0 -60 6 -78 60c-14 38 -34 126 -53 207
c-11 47 -23 97 -34 150c-49 22 -23 95 -2 108c21 11 38 2 65 -11c88 -40 83 -70 78 -96c-3 -13 9 -86 22 -156c7 -41 16 -87 26 -137c33 -73 231 259 278 310l6 7c15 35 23 58 26 65c16 39 47 57 70 21zM242 806c-7 3 -12 12 -8 28c9 16 22 39 33 51c43 48 69 70 94 82
c15 7 31 14 48 11c22 -3 56 -39 59 -87c1 -23 -6 -45 -17 -62c-18 -29 -64 -30 -64 -20v3c21 72 4 92 -5 104c-19 -9 -64 -40 -104 -87c-19 -23 -25 -26 -36 -23z" />
    <glyph glyph-name="wcircumflex" unicode="&#x175;" horiz-adv-x="503" 
d="M56 349c28 25 40 36 63 12c22 -25 58 1 34 -80c-23 -80 -41 -151 -41 -195c59 51 140 192 165 175c19 -12 40 -35 31 -80c-3 -16 -11 -44 -12 -83c16 0 60 30 84 59c67 77 97 180 116 156c18 -23 -4 -129 -47 -196c-45 -68 -145 -154 -195 -154c-39 0 -61 83 -53 122
c-67 -48 -139 -165 -184 -96c-47 68 21 253 26 288s-7 54 13 72zM244 405c-7 3 -12 12 -8 28c9 16 22 39 33 51c43 48 69 70 94 82c15 7 31 14 48 11c22 -3 56 -39 59 -87c1 -23 -6 -45 -17 -62c-18 -29 -64 -30 -64 -20v3c21 72 4 92 -5 104c-19 -9 -64 -40 -104 -87
c-19 -23 -25 -26 -36 -23z" />
    <glyph glyph-name="uni1E6B" unicode="&#x1e6b;" horiz-adv-x="215" 
d="M407 641c1 -12 -11 -11 -18 -22c-24 -34 -84 -101 -175 -264c29 3 55 4 74 7c65 8 77 4 74 -4c-2 -7 -36 -57 -104 -68c-23 -4 -55 -8 -88 -15c-12 -23 -25 -45 -38 -72c-139 -275 -149 -343 -160 -376s-36 -51 -57 -23c-21 29 -13 87 18 155c16 39 71 170 127 299
c-21 -3 -37 -5 -48 -5c-34 -3 -48 75 -22 85c25 11 21 5 55 8c8 0 29 1 56 2c28 60 56 113 79 152c84 137 126 195 150 191c25 -6 74 -38 77 -50zM483 829c0 -26 -29 -66 -56 -74c-25 -11 -32 2 -41 21c-8 20 -5 45 8 57c13 13 28 7 43 6c12 0 46 5 46 -10z" />
    <glyph glyph-name="ycircumflex" unicode="&#x177;" horiz-adv-x="400" 
d="M322 79l56 12c35 4 22 -20 -38 -41l-32 -10c-19 -51 -39 -98 -59 -133c-96 -164 -260 -212 -335 -228c-55 -13 -112 55 -81 146c26 76 171 169 407 233c23 57 35 108 43 139c-64 -49 -108 -90 -152 -102c-44 -13 -109 32 -96 81c9 29 61 91 102 116c35 21 45 20 61 17
c25 -6 12 -20 0 -37c-16 -20 -109 -132 -21 -96c40 16 99 81 122 107c2 17 6 23 11 20c17 -8 65 -19 62 -55c-3 -21 -23 -92 -50 -169zM177 -73c17 28 32 56 44 85c-65 -21 -141 -52 -209 -96c-118 -78 -155 -168 -114 -165c40 3 208 60 279 176zM186 365c-7 3 -12 12 -8 28
c9 16 22 39 33 51c43 48 69 70 94 82c15 7 31 14 48 11c22 -3 56 -39 59 -87c1 -23 -6 -45 -17 -62c-18 -29 -64 -30 -64 -20v3c21 72 4 92 -5 104c-19 -9 -64 -40 -104 -87c-19 -23 -25 -26 -36 -23z" />
    <glyph glyph-name="uni0218" unicode="&#x218;" horiz-adv-x="444" 
d="M488 669c-22 0 -40 -5 -103 -60c-65 -57 -253 -193 -286 -296c-19 -61 25 -73 85 -89c60 -17 120 -33 159 -68c31 -28 50 -69 41 -110c-19 -93 -164 -244 -288 -249c-125 -5 -82 129 -52 170c29 40 141 138 159 146c20 9 14 -7 -25 -58c-38 -49 -139 -195 -104 -195
c45 -3 162 64 215 191c15 31 17 57 4 68c-20 16 -54 29 -78 36c-43 11 -180 40 -206 116c-34 95 40 194 107 263c65 69 233 223 254 236c23 11 71 20 108 5c56 -24 43 -106 10 -106zM149 -234c7 -9 11 -16 10 -23c1 -11 -3 -28 -11 -52c-16 -54 -86 -97 -102 -100
c-29 -5 -51 26 -26 46c7 4 19 -7 40 22c15 20 12 51 8 76l-2 9c-4 13 -11 28 1 39c24 21 64 4 82 -17z" />
    <glyph glyph-name="uni0219" unicode="&#x219;" horiz-adv-x="261" 
d="M221 234c74 35 135 29 108 18c-39 -18 -123 -69 -181 -111c1 -8 1 -16 4 -24c12 -57 1 -112 -36 -140c-35 -27 -81 -24 -106 -1c-11 8 -19 23 -27 30c-8 8 -4 43 13 71c15 24 43 49 82 76c-3 11 -8 21 -11 32c-19 57 8 105 33 130c38 38 103 36 120 28
c16 -8 17 -31 10 -35c-5 -5 -8 -5 -17 -5c-25 0 -45 -18 -60 -53c-7 -15 -10 -35 -10 -58c27 16 55 31 78 42zM91 37c5 16 0 36 -3 63l-5 -4c-50 -39 -49 -69 -49 -80c1 -5 4 -10 9 -14c16 0 40 10 48 35zM88 -70c7 -9 11 -16 10 -23c1 -11 -3 -28 -11 -52
c-16 -54 -86 -97 -102 -100c-29 -5 -51 26 -26 46c7 4 19 -7 40 22c15 20 12 51 8 76l-2 9c-4 13 -11 28 1 39c24 21 64 4 82 -17z" />
    <glyph glyph-name="uni021A" unicode="&#x21a;" horiz-adv-x="325" 
d="M667 782c14 11 44 -7 33 -50c-13 -44 -47 -56 -162 -59c-19 0 -39 -1 -62 -2c-53 -90 -165 -279 -242 -438c-99 -206 -93 -257 -96 -273c0 -15 -7 -43 -39 -40c-22 0 -59 40 -30 135c32 95 215 453 255 529c13 24 26 50 39 77c-101 -11 -215 -27 -315 -50
c-16 -40 -111 71 21 95c82 16 224 27 339 35c15 23 28 37 39 41c13 4 42 -13 54 -34c27 2 47 4 62 6c84 8 91 15 104 28zM132 -99c7 -9 11 -16 10 -23c1 -11 -3 -28 -11 -52c-16 -54 -86 -97 -102 -100c-29 -5 -51 26 -26 46c7 4 19 -7 40 22c15 20 12 51 8 76l-2 9
c-4 13 -11 28 1 39c24 21 64 4 82 -17z" />
    <glyph glyph-name="uni021B" unicode="&#x21b;" horiz-adv-x="215" 
d="M407 641c1 -12 -11 -11 -18 -22c-24 -34 -84 -101 -175 -264c29 3 55 4 74 7c65 8 77 4 74 -4c-2 -7 -36 -57 -104 -68c-23 -4 -55 -8 -88 -15c-12 -23 -25 -45 -38 -72c-139 -275 -149 -343 -160 -376s-36 -51 -57 -23c-21 29 -13 87 18 155c16 39 71 170 127 299
c-21 -3 -37 -5 -48 -5c-34 -3 -48 75 -22 85c25 11 21 5 55 8c8 0 29 1 56 2c28 60 56 113 79 152c84 137 126 195 150 191c25 -6 74 -38 77 -50zM-44 -228c7 -9 11 -16 10 -23c1 -11 -3 -28 -11 -52c-16 -54 -86 -97 -102 -100c-29 -5 -51 26 -26 46c7 4 19 -7 40 22
c15 20 12 51 8 76l-2 9c-4 13 -11 28 1 39c24 21 64 4 82 -17z" />
    <glyph glyph-name="Eng" unicode="&#x14a;" horiz-adv-x="535" 
d="M718 598c1 -15 -9 -34 -13 -41c-49 -85 -211 -353 -254 -428c-24 -43 -29 -72 -42 -91c-27 -60 -61 -114 -108 -133c-67 -27 -143 4 -161 22c-32 34 -37 105 -12 119c8 5 45 -64 77 -67c52 -5 99 23 118 53c-12 11 -21 31 -26 60c-8 41 -5 153 0 254c3 59 7 123 13 192
c-65 -105 -189 -405 -225 -466c-35 -62 -25 -158 -109 -112c-35 19 -38 50 5 125c17 29 102 218 137 288c35 75 180 274 200 290c20 17 34 10 57 -1c74 -34 69 -67 61 -99c-3 -17 -12 -110 -23 -201l-19 -177c101 109 220 346 267 413c11 13 12 23 17 26c19 8 37 -7 40 -26z
" />
    <glyph glyph-name="eng" unicode="&#x14b;" horiz-adv-x="443" 
d="M382 92c17 5 10 -41 -15 -71c-20 -43 -45 -79 -80 -94c-53 -21 -96 3 -110 17c-26 26 -31 85 -10 95c8 3 35 -51 61 -54c39 -3 60 15 72 35c-25 44 -20 147 4 189c-14 8 -98 -102 -157 -167c-61 -64 -83 -71 -110 -68c-25 3 -47 77 -31 102c16 27 28 34 58 113l62 161
c7 15 34 24 69 5c15 -8 26 -28 19 -39c-6 -8 -44 -53 -92 -192c81 59 189 190 231 187c43 -3 61 -33 38 -84c-24 -53 -35 -143 -9 -135z" />
    <glyph glyph-name="divide" unicode="&#xf7;" horiz-adv-x="376" 
d="M325 168c9 -12 10 -59 -14 -62c-23 -3 -55 9 -92 9c-85 0 -134 -1 -143 -5c-11 -4 -27 -2 -32 13s-31 30 41 43c47 11 81 8 120 9c61 3 101 12 120 -7zM105 68c24 8 70 -4 89 -25c19 -20 10 -31 -5 -46s-40 -21 -56 -14c-17 8 -17 25 -21 38c-5 12 -22 42 -7 47zM192 213
c-17 8 -17 25 -21 38c-5 12 -22 42 -7 47c24 8 70 -4 89 -25c19 -20 10 -31 -5 -46s-40 -21 -56 -14z" />
    <glyph glyph-name="A.alt" unicode="&#xe010;" horiz-adv-x="660" 
d="M809 550c3 -33 -15 -69 -35 -66c-44 4 -39 92 -168 76c-112 -16 -307 -91 -414 -255c-69 -103 -89 -229 -27 -256c27 -14 117 14 199 70c29 21 70 58 111 97c0 1 1 1 1 2c37 69 133 219 141 260c3 19 21 28 62 5c16 -9 28 -34 23 -45c-8 -13 -73 -121 -151 -266
c-16 -30 -44 -94 -60 -129c47 0 183 90 209 106c37 19 26 -37 -121 -128c-53 -32 -99 -77 -131 -72c-32 4 -53 24 -58 41c-3 9 2 25 7 40c3 8 6 17 10 26c0 4 1 9 3 14c-70 -56 -141 -108 -198 -124c-104 -29 -198 2 -209 111c-5 67 28 185 84 273c149 232 430 316 577 321
c100 3 142 -74 145 -101z" />
    <glyph glyph-name="G.alt" unicode="&#xe011;" horiz-adv-x="640" 
d="M686 410c22 3 39 -31 23 -57c-17 -25 -33 -30 -83 -30c0 -1 -1 -1 -1 -2c-7 -23 -27 -87 -87 -204c-16 -29 -36 -88 -30 -99c8 -13 -24 -30 -45 -25c-51 12 -51 50 -26 101l22 45c-74 -84 -180 -173 -275 -173c-37 0 -72 8 -93 27c-35 27 -129 89 -73 282
c64 227 302 418 560 490c35 11 106 -2 127 -42s14 -62 -9 -61c-22 3 -38 37 -101 26c-207 -40 -386 -207 -463 -410c-29 -69 -11 -177 44 -195c131 -40 254 86 343 210c3 7 4 12 5 16c1 5 3 9 4 12h-4c-36 0 -71 -7 -187 -23c-54 -13 -87 49 35 73c55 11 113 22 160 25
c104 8 125 11 154 14z" />
    <glyph glyph-name="J.alt" unicode="&#xe013;" horiz-adv-x="379" 
d="M153 -21c51 97 105 255 155 369c75 163 106 239 159 329c6 8 6 40 11 45l15 28c16 21 33 10 44 7c27 -3 48 -77 32 -104c-10 -15 -73 -134 -137 -264c-8 -16 -14 -31 -22 -43l-1 -4c-27 -51 -159 -483 -289 -536c-85 -35 -180 4 -204 28c-40 42 -48 133 -15 150
c11 6 56 -82 97 -85c74 -8 134 40 155 80z" />
    <glyph glyph-name="Q.alt" unicode="&#xe014;" horiz-adv-x="653" 
d="M698 327c-61 -168 -219 -299 -384 -348l58 -43c52 -43 88 -82 165 -50c76 34 96 138 96 77c0 -34 -9 -89 -87 -135c-72 -40 -157 -29 -201 4c-86 64 -126 109 -158 85c-31 -23 -20 -42 -50 -44c-16 -3 -32 6 -47 15c-8 5 -16 12 -23 19c-22 14 10 50 18 64c0 1 1 2 2 3
c-4 3 -5 7 -8 10c-38 31 -118 97 -65 275c51 178 209 337 400 430c35 29 74 50 125 57c8 1 15 1 23 1l12 3c35 11 118 -90 105 -98c46 -83 61 -208 19 -325zM406 111c84 64 133 148 170 233c69 160 35 285 -64 285c-31 0 -63 -8 -94 -23c-131 -76 -234 -199 -290 -343
c-27 -70 -11 -172 44 -195c60 -25 162 1 205 31c17 13 26 17 29 12z" />
    <glyph glyph-name="R.alt" unicode="&#xe015;" horiz-adv-x="626" 
d="M760 690c26 -92 -93 -253 -384 -373c5 -36 -9 -101 2 -163c11 -73 60 -134 97 -137c71 -3 122 29 162 56s25 -25 -50 -84c-62 -46 -108 -49 -173 -38s-123 97 -128 181c-3 44 -6 112 2 152c-25 -9 -51 -17 -79 -25c-7 -13 -12 -26 -19 -39c-112 -230 -119 -302 -122 -319
c-1 -17 -6 -37 -30 -34c-25 3 -66 44 -34 152s222 510 265 596c44 87 99 210 138 223c19 6 102 -37 87 -70c-5 -11 -26 -47 -57 -99c179 171 294 124 323 21zM226 292c131 72 464 254 416 365c-41 99 -226 -66 -279 -115c-44 -77 -93 -165 -137 -250z" />
    <glyph glyph-name="S.alt" unicode="&#xe016;" horiz-adv-x="444" 
d="M507 757c14 -25 14 -91 6 -129c-12 -51 -25 -80 -34 -103c-11 -21 -19 -40 -20 -56c-3 -28 -81 -15 -92 11c-9 19 -9 32 2 57c8 23 37 52 54 103c-11 -8 -23 -18 -38 -31c-65 -57 -253 -193 -286 -296c-19 -61 25 -73 85 -89c60 -17 120 -33 159 -68
c31 -28 50 -69 41 -110c-19 -93 -164 -244 -288 -249c-125 -5 -82 129 -52 170c29 40 141 138 159 146c20 9 14 -7 -25 -58c-40 -48 -138 -195 -104 -195c45 -3 162 64 215 191c15 31 17 57 4 68c-20 16 -54 29 -78 36c-43 11 -180 40 -206 116c-34 95 40 194 107 263
c65 69 232 225 254 236c15 8 44 14 72 13v1c0 16 51 -10 65 -27z" />
    <glyph glyph-name="b.alt" unicode="&#xe017;" horiz-adv-x="540" 
d="M594 175c27 -16 -43 -29 -78 -42c-25 -11 -77 -26 -118 -39c-23 -25 -51 -46 -82 -64c-88 -51 -129 -79 -161 -26c-29 48 49 115 156 150c19 27 26 47 15 54c-15 10 -106 -49 -172 -120c-17 -19 -32 -39 -47 -59h1l-8 -10c-40 -56 -69 -111 -90 -108
c-30 3 -50 84 -34 113c16 28 214 436 258 516c45 79 82 163 87 178c7 15 20 26 57 5c15 -8 28 -31 21 -42c-4 -12 -206 -381 -258 -534c67 86 168 173 226 173c61 0 90 -47 79 -110c-3 -11 -4 -21 -8 -34c34 8 131 13 156 -1z" />
    <glyph glyph-name="g.alt" unicode="&#xe018;" horiz-adv-x="412" 
d="M320 303c16 -8 66 -21 61 -56c-5 -36 -70 -240 -137 -340c-107 -158 -245 -212 -320 -228c-58 -14 -128 57 -81 141c80 144 306 191 189 115c-118 -78 -165 -187 -125 -184c42 3 185 66 265 175c84 116 114 249 125 290c1 4 2 7 2 10c-71 -48 -137 -85 -173 -104
c-42 -22 -87 27 -82 54c6 29 92 92 132 116c36 20 75 8 93 5c25 -6 7 -23 -2 -26c-32 -13 -119 -84 -75 -68c40 16 95 63 116 82c3 15 7 21 12 18z" />
    <glyph glyph-name="j.alt" unicode="&#xe019;" horiz-adv-x="243" 
d="M290 523c23 -27 25 -70 6 -89s-49 -26 -70 -17c-21 11 -21 31 -26 47s-27 51 -9 59c31 11 75 24 99 0zM156 347c17 0 93 -8 80 -51c-14 -43 -169 -351 -228 -469c-61 -116 -117 -220 -149 -231s-56 25 -40 52c16 25 165 336 208 434c47 97 68 165 83 194
c13 26 30 71 46 71z" />
    <glyph glyph-name="l.alt" unicode="&#xe01a;" horiz-adv-x="296" 
d="M381 690c120 19 132 -92 16 -219c-83 -88 -188 -181 -292 -312c-11 -47 -14 -92 -10 -127c15 -4 199 107 215 95c14 -12 -31 -44 -87 -84c-31 -24 -114 -109 -156 -80c-41 28 -71 68 -58 131c38 180 92 276 163 392c62 102 127 191 209 204zM400 624
c-13 3 -34 -20 -47 -35c-93 -96 -225 -297 -241 -365c63 77 213 266 267 333c39 47 38 64 21 67z" />
    <glyph glyph-name="r.alt" unicode="&#xe01b;" horiz-adv-x="342" 
d="M369 128c35 19 -19 -58 -62 -96c-44 -39 -92 -71 -121 -67c-28 4 -38 22 -42 38c-6 22 24 113 54 183c-51 -15 -82 -24 -122 -43c-44 -21 -83 25 -70 53c11 30 27 71 71 95c41 19 74 3 91 0c24 -5 1 -21 -7 -26c-21 -13 -49 -49 -1 -41c24 4 44 9 59 13c8 3 16 5 23 8
c8 11 15 9 22 2c14 -3 21 -29 19 -34c-5 -51 -43 -128 -51 -163c40 16 113 65 137 78z" />
    <glyph glyph-name="t.alt" unicode="&#xe01c;" horiz-adv-x="281" 
d="M440 645c1 -11 -10 -10 -17 -21c-21 -32 -76 -94 -162 -244c27 1 50 3 69 6c60 8 71 3 68 -4c-2 -7 -32 -52 -96 -63l-82 -14c-11 -20 -23 -42 -35 -66c-77 -152 -113 -238 -129 -286c34 13 150 94 196 116c37 16 -8 -40 -45 -72c-16 -16 -168 -150 -196 -146
s-48 22 -52 38c-5 15 58 184 98 258c19 44 40 92 61 143c-19 -3 -35 -5 -44 -5c-32 -3 -44 71 -20 79c24 10 19 4 51 7c7 0 26 1 51 2c27 56 51 106 74 141c77 127 116 181 139 177c22 -6 68 -35 71 -46z" />
    <glyph glyph-name="y.alt" unicode="&#xe01d;" horiz-adv-x="400" 
d="M310 303c16 -8 66 -21 61 -56c-5 -36 -70 -240 -137 -340c-107 -158 -245 -212 -320 -228c-58 -14 -128 57 -81 141c80 144 306 191 189 115c-118 -78 -165 -187 -125 -184c42 3 185 66 265 175c72 102 107 215 120 271c-64 -49 -107 -90 -151 -102
c-44 -13 -109 32 -96 81c9 29 61 91 102 116c35 21 45 20 61 17c25 -6 12 -20 0 -37c-16 -20 -109 -132 -21 -96c40 16 97 80 121 106c3 17 7 24 12 21z" />
    <glyph glyph-name="I.alt" unicode="&#xe012;" horiz-adv-x="222" 
d="M369 752c17 5 91 -31 77 -61c-15 -30 -170 -284 -270 -488c-99 -205 -108 -267 -108 -283c-3 -15 -6 -33 -27 -30c-22 3 -59 40 -30 135c28 95 196 454 235 529c40 77 87 187 123 198z" />
    </font>
</defs>
</svg>
