<?xml version="1.0" encoding="utf-8"?>
<!-- Generator: Adobe Illustrator 19.2.0, SVG Export Plug-In . SVG Version: 6.00 Build 0)  -->
<svg version="1.1" id="Layer_1" xmlns="http://www.w3.org/2000/svg" xmlns:xlink="http://www.w3.org/1999/xlink" x="0px" y="0px"
	 viewBox="0 0 458.3 64" enable-background="new 0 0 458.3 64" xml:space="preserve">
<g enable-background="new    ">
	<path fill="#FFFFFF" d="M3.2,48C1.5,48,0,46.5,0,44.8V6.4c0-1.8,1.5-3.3,3.2-3.3h9.3c3.4,0,6.6,0.7,9.6,2c2.9,1.3,5.4,3.1,7.5,5.5
		c2,2.3,3.6,5,4.5,8c1,3.1,1.3,6.3,0.9,9.6c-0.6,5.4-3.3,10.4-7.4,14.1c-4.1,3.6-9.5,5.7-15,5.7H3.2z M12.7,41.6
		c8.1,0,15-6.1,15.9-14.1c0.6-4.8-0.8-9.3-3.8-12.7c-3.1-3.4-7.5-5.3-12.3-5.3H6.4v32.1H12.7z"/>
	<path fill="#FFFFFF" d="M71.7,32.2v12.5c0,1.9-1.3,3.2-3.2,3.2c-1.3,0-3.1-1.3-3.1-3.2c-2.7,2.3-5.8,3.2-9.5,3.2
		c-9,0-16.2-6.7-16.2-15.7S47,16,56,16C65,16,71.7,23.1,71.7,32.2z M65.5,32.2c0-5.4-4.1-9.9-9.5-9.9c-5.4,0-9.9,4.5-9.9,9.9
		c0,5.4,4.5,9.5,9.9,9.5C61.4,41.6,65.5,37.5,65.5,32.2z"/>
	<path fill="#FFFFFF" d="M121.7,29c0.1,0.1,0.1,0.2,0.1,0.3v15.5c0,1.8-1.5,3.2-3.2,3.2c-1.7,0-3.1-1.4-3.1-3.2V29.3
		c0-0.1,0-0.2,0-0.3c0-0.1,0-0.1,0-0.3c0-3.6-2.9-6.5-6.5-6.5c-3.6,0-6.5,2.9-6.5,6.5v16.1c0,1.8-1.4,3.2-3.1,3.2S96,46.7,96,44.9
		V28.8c0-3.6-2.9-6.5-6.5-6.5S83,25.2,83,28.8v16.1c0,1.8-1.4,3.2-3.1,3.2c-1.8,0-3.2-1.4-3.2-3.2V28.8c0-7,5.8-12.8,12.9-12.8
		c3.8,0,7.3,1.7,9.7,4.4c2.4-2.7,5.8-4.4,9.7-4.4c7.1,0,12.9,5.8,12.9,12.8C121.7,28.9,121.7,29,121.7,29z"/>
	<path fill="#FFFFFF" d="M158.9,31.9c0,1.7-1.4,3.1-3.2,3.1h-22.1c1.3,3.8,4.9,6.6,9.2,6.6c1.5,0,4.1-0.1,7.2-2.1
		c1.5-1,3.5-0.1,4.2,1.5c0.8,1.6-0.1,3.3-1.5,4.2c-4.2,2.8-7.5,2.7-9.8,2.7c-8.9,0-16-7.2-16-16c0-8.9,7.2-16,16-16
		C150.5,15.9,158.9,21.5,158.9,31.9z M133.6,28.7h18.5c-1.3-4.5-5.4-6.5-9.3-6.5C138.5,22.2,134.9,24.9,133.6,28.7z"/>
	<path fill="#FFFFFF" d="M182.7,38.4c0,5.3-4.3,9.7-9.6,9.7c-4.5,0-8.2-3.3-9.4-7c-0.6-1.7,0.8-3.4,2.4-3.8c1.7-0.3,2.9,0.9,3.8,2.5
		c0.9,1.7,1.7,1.9,3.2,1.9c1.8,0,3.3-1.5,3.3-3.3c0-1.8-1.5-3.3-3.3-3.3c-2.6,0-5-1-6.8-2.8c-1.9-1.8-2.8-4.2-2.8-6.8
		c0-5.3,4.3-9.6,9.6-9.6c4.5,0,8.6,3.1,9.2,6.6c0.3,1.7-0.7,3.5-2.4,3.8c-1.7,0.4-3.2-0.8-3.8-2.4c-0.4-1-1.5-1.7-3-1.7
		c-1.8,0-3.3,1.5-3.3,3.3c0,1.8,1.5,3.3,3.3,3.3c2.6,0,5,1,6.8,2.8C181.7,33.4,182.7,35.8,182.7,38.4z"/>
	<path fill="#FFFFFF" d="M237.4,44.7c0,1.8-1.5,3.2-3.2,3.2h-22.1c-0.1,0-0.1,0-0.1,0s-0.1,0-0.1,0c-1.8,0-3.2-1.4-3.2-3.2V6.5
		c0-1.8,1.4-3.2,3.2-3.2c0.1,0,0.1,0,0.1,0s0.1,0,0.1,0h22.1c1.7,0,3.2,1.4,3.2,3.2c0,1.8-1.5,3.2-3.2,3.2H215v12.9h14.6
		c1.7,0,3.2,1.4,3.2,3.2c0,1.8-1.5,3.2-3.2,3.2H215v12.6h19.1C235.9,41.5,237.4,42.9,237.4,44.7z"/>
	<path fill="#FFFFFF" d="M261.6,19.1c0,1.7-1.4,3.2-3.2,3.2c-5.4,0-9.7,4.3-9.7,9.7v12.9c0,1.7-1.4,3.2-3.1,3.2
		c-1.8,0-3.2-1.5-3.2-3.2V32c0-8.9,7.2-16,16-16C260.2,15.9,261.6,17.3,261.6,19.1z"/>
	<path fill="#FFFFFF" d="M262.7,31.9c0-8.9,7.2-16,16-16c8.9,0,16,7.2,16,16c0,8.8-7.2,16-16,16C270,48,262.7,40.7,262.7,31.9z
		 M269.1,31.9c0,5.3,4.3,9.7,9.7,9.7c5.4,0,9.7-4.4,9.7-9.7c0-5.4-4.3-9.7-9.7-9.7C273.4,22.2,269.1,26.5,269.1,31.9z"/>
	<path fill="#FFFFFF" d="M317.8,19.1c0,1.7-1.4,3.2-3.2,3.2H310v22.6c0,1.7-1.4,3.2-3.2,3.2c-1.7,0-3.1-1.5-3.1-3.2V22.2h-4.6
		c-1.7,0-3.1-1.5-3.1-3.2c0-1.7,1.4-3.1,3.1-3.1h4.6V3.1c0-1.7,1.4-3.1,3.1-3.1c1.8,0,3.2,1.4,3.2,3.1v12.8h4.5
		C316.4,15.9,317.8,17.3,317.8,19.1z"/>
	<path fill="#FFFFFF" d="M323.9,8.6c-0.6-0.6-1-1.4-1-2.2c0-0.8,0.4-1.7,1-2.2c0.6-0.6,1.4-1,2.2-1s1.7,0.4,2.2,1
		c0.6,0.6,0.9,1.4,0.9,2.2c0,0.8-0.3,1.7-0.9,2.2c-0.6,0.6-1.4,0.9-2.2,0.9S324.5,9.2,323.9,8.6z M322.9,44.8V19.1
		c0-1.7,1.4-3.1,3.2-3.1c1.7,0,3.1,1.4,3.1,3.1v25.8c0,1.8-1.4,3.2-3.1,3.2C324.4,48,322.9,46.6,322.9,44.8z"/>
	<path fill="#FFFFFF" d="M334.5,32.2c0-8.8,7.2-16,16-16c8.8,0,16,7.2,16,16v0.1v28.6c0,1.7-1.4,3.1-3.2,3.1c-1.7,0-3.1-1.4-3.1-3.1
		V44.9c-2.7,2-6.1,3.3-9.7,3.3C341.6,48.2,334.5,41,334.5,32.2z M340.8,32.2c0,5.4,4.3,9.7,9.7,9.7c5.4,0,9.7-4.3,9.7-9.7v-0.1
		c0-5.4-4.3-9.7-9.7-9.7C345.1,22.4,340.8,26.9,340.8,32.2z"/>
	<path fill="#FFFFFF" d="M397.3,19.1v16v0.1c-0.1,7.1-5.8,12.9-13,12.9c-7.1,0-12.9-5.8-12.9-12.9v-0.1v-16c0-1.7,1.4-3.1,3.1-3.1
		c1.8,0,3.2,1.4,3.2,3.1v16c0,3.6,2.9,6.6,6.6,6.6c3.7,0,6.6-3,6.6-6.6v-16c0-1.7,1.4-3.1,3.2-3.1C395.9,15.9,397.3,17.3,397.3,19.1
		z"/>
	<path fill="#FFFFFF" d="M434.5,31.9c0,1.7-1.4,3.1-3.2,3.1h-22.1c1.3,3.8,4.9,6.6,9.2,6.6c1.5,0,4.1-0.1,7.2-2.1
		c1.5-1,3.5-0.1,4.2,1.5c0.8,1.6-0.1,3.3-1.5,4.2c-4.2,2.8-7.5,2.7-9.8,2.7c-8.9,0-16-7.2-16-16c0-8.9,7.2-16,16-16
		C426.2,15.9,434.5,21.5,434.5,31.9z M409.2,28.7h18.5c-1.3-4.5-5.4-6.5-9.3-6.5C414.2,22.2,410.6,24.9,409.2,28.7z"/>
	<path fill="#FFFFFF" d="M458.3,38.4c0,5.3-4.3,9.7-9.6,9.7c-4.5,0-8.2-3.3-9.4-7c-0.6-1.7,0.8-3.4,2.4-3.8c1.7-0.3,2.9,0.9,3.8,2.5
		c0.9,1.7,1.7,1.9,3.2,1.9c1.8,0,3.3-1.5,3.3-3.3c0-1.8-1.5-3.3-3.3-3.3c-2.6,0-5-1-6.8-2.8c-1.9-1.8-2.8-4.2-2.8-6.8
		c0-5.3,4.3-9.6,9.6-9.6c4.5,0,8.6,3.1,9.2,6.6c0.3,1.7-0.7,3.5-2.4,3.8c-1.7,0.4-3.2-0.8-3.8-2.4c-0.4-1-1.5-1.7-3-1.7
		c-1.8,0-3.3,1.5-3.3,3.3c0,1.8,1.5,3.3,3.3,3.3c2.6,0,5,1,6.8,2.8C457.4,33.4,458.3,35.8,458.3,38.4z"/>
</g>
</svg>
