<?xml version="1.0" encoding="utf-8"?>
<!-- Generator: Adobe Illustrator 17.1.0, SVG Export Plug-In . SVG Version: 6.00 Build 0)  -->
<!DOCTYPE svg PUBLIC "-//W3C//DTD SVG 1.1//EN" "http://www.w3.org/Graphics/SVG/1.1/DTD/svg11.dtd">
<svg version="1.1" id="Layer_1" xmlns="http://www.w3.org/2000/svg" xmlns:xlink="http://www.w3.org/1999/xlink" x="0px" y="0px"
	 viewBox="0 0 256.6 121" enable-background="new 0 0 256.6 121" xml:space="preserve">
<g>
	<path fill="#08304C" d="M27.9,75.3c-1.5,1.4-3,2.3-4.7,2.7L13.1,67l0-0.2c0.5-1.5,1.3-2.8,2.6-4c1.8-1.8,4.3-3.1,7.3-3.9l-2.5-2.5
		c-3,1.2-5.4,2.6-7.1,4.3c-2.5,2.5-3.8,5.4-3.9,8.7c-0.1,3.3,1,6.2,3.4,8.6c1.5,1.5,3.2,2.6,5.3,3.1c2,0.6,4.1,0.6,6.1,0.1
		c2-0.5,3.9-1.7,5.8-3.5c2.3-2.2,3.8-4.7,4.6-7.3L32,67.6C31.3,70.8,29.9,73.3,27.9,75.3z"/>
	<path fill="#08304C" d="M32.2,45.2L37.4,70l2.8-1.9l-1.5-7.3l8.1-5.6l6.5,3.9l2.8-1.9L34.2,43.8L32.2,45.2z M44,53.5L38,57.6
		l-1.9-8.9L44,53.5z"/>
	<path fill="#08304C" d="M70,45.4c-2.1-1.3-3.6-2.2-4.6-2.7c-1-0.5-1.9-0.7-2.8-0.9c0.9-1,1.5-2.1,1.7-3.2c0.2-1.2,0-2.4-0.6-3.6
		c-0.8-1.8-2.1-2.9-3.9-3.4c-1.7-0.5-3.7-0.2-5.8,0.8l-5.3,2.5l9.9,21l3-1.4l-4.3-9.1l0.8-0.4c1-0.5,1.7-0.7,2.3-0.7
		c0.5,0,1.2,0.2,1.9,0.4C63.1,45,64,45.4,65,46l1.8,1.2l1.7,1.1l1,0.5c0.1,0.1,0.2,0.1,0.3,0.2l1.6,0.9l3.6-1.7l-1.8-1
		C72.3,46.8,71.3,46.2,70,45.4z M61,38.4c-0.1,0.7-0.3,1.3-0.8,1.8c-0.4,0.5-1.4,1.2-2.9,1.9l-1.1,0.5L53,36l0.9-0.4
		c1.5-0.7,2.6-1.1,3.3-1.2c0.7-0.1,1.4,0.1,2,0.4c0.6,0.4,1.1,0.9,1.4,1.5C60.9,37.1,61,37.7,61,38.4z"/>
	<polygon fill="#08304C" points="80.4,43.5 78.4,36.6 87.5,33.9 86.6,31 77.5,33.7 75.5,27 84.9,24.2 84.1,21.3 71.5,25.1 
		78.1,47.3 91,43.4 90.1,40.6 	"/>
	<polygon fill="#08304C" points="99.2,39 98.3,31.9 107.7,30.6 107.3,27.7 97.9,28.9 96.9,21.9 106.6,20.6 106.2,17.7 93.2,19.5 
		96.4,42.4 109.7,40.6 109.3,37.7 	"/>
	<path fill="#08304C" d="M130,36.1c-1.2-2.1-2.2-3.6-2.9-4.5c-0.7-0.9-1.4-1.5-2.1-2.1c1.3-0.4,2.3-1.2,3-2.1c0.7-1,1.1-2.1,1.1-3.5
		c0.1-2-0.6-3.6-1.9-4.8c-1.3-1.2-3.2-1.8-5.5-1.9l-5.8-0.2l-0.7,23.2l3.3,0.1l0.3-10.1l0.9,0c1.1,0,1.9,0.2,2.3,0.4
		c0.5,0.3,1,0.7,1.5,1.3c0.6,0.6,1.2,1.4,1.8,2.3l1.1,1.8l1,1.7l0.6,0.9c0.1,0.1,0.2,0.2,0.2,0.3l1,1.6l3.9,0.1l-1.2-1.7
		C131.4,38.5,130.8,37.5,130,36.1z M123.6,27.1c-0.6,0.3-1.8,0.4-3.5,0.3l-1.3,0l0.2-7.3l1,0c1.6,0,2.8,0.2,3.5,0.5
		c0.7,0.3,1.2,0.7,1.6,1.3c0.4,0.6,0.5,1.3,0.5,2c0,0.7-0.2,1.4-0.6,2C124.7,26.4,124.2,26.8,123.6,27.1z"/>
	<polygon fill="#08304C" points="178.7,29.9 175.6,28.5 166,49.5 178.5,55.3 179.7,52.5 170.2,48.2 	"/>
	
		<rect x="176.8" y="46.2" transform="matrix(0.5043 -0.8635 0.8635 0.5043 52.0801 186.433)" fill="#08304C" width="23.2" height="3.3"/>
	<polygon fill="#08304C" points="204.2,47.7 211.5,53 213.2,50.7 203.2,43.4 189.6,62.1 192.3,64.1 198.6,55.3 205.9,60.7 
		207.7,58.3 200.4,53 	"/>
	<polygon fill="#08304C" points="218.4,54.7 216.3,56.8 222,62.4 207.9,76.9 210.3,79.3 224.4,64.7 230.2,70.3 232.3,68.2 	"/>
</g>
<g>
	<path fill="#F04F50" d="M109.5,88.4c-1.7-2-1-4.6,0-6.5c1.2-2.3,4-4,8.2-4.9c7.6-1.6,14.3-7.6,17.8-15.9c0.8-2,1.6-3.9,2.3-5.8
		c2.6-6.9,4.7-12.4,10-13.3l5.1-0.8l-0.3-2.3l-8.8-1.1c0,0-7-0.5-6.6-1.6c0.4-1.1,5.3-1.6,9.4-3.3c5.7-2.3,17-9.1,19.7-12.4
		c0.7-0.8,0.3,10.4-15,15.4c-1.8,0.6,3.2,1.3,3.2,1.3l0.7,5.7l-6.9,1.2c-4.2,0.7-6,5.5-8.4,12.1c-0.7,1.9-1.4,3.8-2.3,5.8
		c-3.8,8.9-10.9,15.3-19.2,17.1c-3.6,0.8-7.4,4.5-5,7.9c3.2,4.6,8.2-1.1,9.4,0C123.7,87.8,114.4,94.2,109.5,88.4z"/>
</g>
<path fill="#08304C" d="M141.1,24.2"/>
<circle fill="#F04F50" cx="116.2" cy="84.2" r="2"/>
<path fill="#08304C" d="M133.3,49.7c0.2-0.3,0.4-0.6,0.6-0.9c-3.2-0.3-6.4-0.5-9.6-0.5c-31.5,0-59.6,14.7-77.7,37.7h1.3
	c18-22.3,45.6-36.7,76.5-36.7C127.3,49.3,130.3,49.5,133.3,49.7z"/>
<path fill="#08304C" d="M155,53.3c-0.2,0.3-0.4,0.6-0.6,0.8c18.4,6,34.4,17.1,46.3,31.9h1.3C190,70.9,173.7,59.4,155,53.3z"/>
<path fill="#08304C" d="M9,54.5C37.1,22.9,78.1,3,123.6,3c45.5,0,86.5,19.9,114.6,51.5h1.3C211.2,22.3,169.7,2,123.6,2
	C77.4,2,36,22.3,7.6,54.5H9z"/>
<g>
	<path fill="#08304C" d="M7.1,101.9H1.6v9.8H0v-11.2h8.7v11.2H7.1V101.9z"/>
	<path fill="#08304C" d="M12.1,103.3h1l0.3,1.1h0.1c0.3-0.4,0.7-0.7,1.1-1c0.5-0.2,1-0.3,1.6-0.3c1.2,0,2.1,0.3,2.7,1
		c0.6,0.7,0.9,1.8,0.9,3.2c0,0.7-0.1,1.3-0.3,1.9c-0.2,0.6-0.5,1.1-0.8,1.5c-0.4,0.4-0.8,0.7-1.3,0.9c-0.5,0.2-1.1,0.3-1.8,0.3
		c-0.2,0-0.4,0-0.6,0c-0.2,0-0.3,0-0.5-0.1c-0.1,0-0.3-0.1-0.4-0.1c-0.1,0-0.3-0.1-0.5-0.2v3.4h-1.5V103.3z M15.8,104.3
		c-0.6,0-1.1,0.2-1.5,0.5c-0.4,0.3-0.6,0.8-0.8,1.5v3.9c0.2,0.2,0.5,0.3,0.8,0.4c0.3,0.1,0.7,0.1,1.1,0.1c0.9,0,1.5-0.3,2-0.8
		c0.5-0.6,0.7-1.4,0.7-2.5c0-0.9-0.2-1.6-0.5-2.2C17.3,104.6,16.7,104.3,15.8,104.3z"/>
	<path fill="#08304C" d="M22.3,107.5c0-0.7,0.1-1.3,0.3-1.9c0.2-0.5,0.4-1,0.8-1.4c0.4-0.4,0.8-0.7,1.3-0.9c0.5-0.2,1.1-0.3,1.7-0.3
		c0.7,0,1.3,0.1,1.8,0.3c0.5,0.2,0.9,0.5,1.3,0.9c0.3,0.4,0.6,0.9,0.8,1.4c0.2,0.5,0.2,1.1,0.2,1.8c0,0.7-0.1,1.3-0.3,1.8
		c-0.2,0.5-0.5,1-0.8,1.4c-0.3,0.4-0.8,0.7-1.3,0.9c-0.5,0.2-1.1,0.3-1.7,0.3c-0.7,0-1.3-0.1-1.8-0.3c-0.5-0.2-0.9-0.5-1.3-0.9
		c-0.3-0.4-0.6-0.9-0.8-1.4C22.4,108.7,22.3,108.1,22.3,107.5z M23.9,107.5c0,0.4,0,0.8,0.1,1.2c0.1,0.4,0.2,0.7,0.4,1
		c0.2,0.3,0.5,0.5,0.8,0.7c0.3,0.2,0.7,0.3,1.2,0.3c1.6,0,2.5-1.1,2.5-3.2c0-0.4,0-0.8-0.1-1.2c-0.1-0.4-0.2-0.7-0.4-1
		c-0.2-0.3-0.5-0.5-0.8-0.7c-0.3-0.2-0.7-0.3-1.1-0.3c-0.8,0-1.4,0.3-1.9,0.8C24.1,105.6,23.9,106.4,23.9,107.5z"/>
	<path fill="#08304C" d="M38.9,104.5h-3.9v7.2h-1.5v-8.4h5.4V104.5z"/>
	<path fill="#08304C" d="M41.2,103.3h1l0.3,1.1h0.1c0.3-0.4,0.7-0.7,1.1-1c0.5-0.2,1-0.3,1.6-0.3c1.2,0,2.1,0.3,2.7,1
		c0.6,0.7,0.9,1.8,0.9,3.2c0,0.7-0.1,1.3-0.3,1.9c-0.2,0.6-0.5,1.1-0.8,1.5c-0.4,0.4-0.8,0.7-1.3,0.9c-0.5,0.2-1.1,0.3-1.8,0.3
		c-0.2,0-0.4,0-0.6,0c-0.2,0-0.3,0-0.5-0.1c-0.1,0-0.3-0.1-0.4-0.1c-0.1,0-0.3-0.1-0.5-0.2v3.4h-1.5V103.3z M44.9,104.3
		c-0.6,0-1.1,0.2-1.5,0.5c-0.4,0.3-0.6,0.8-0.8,1.5v3.9c0.2,0.2,0.5,0.3,0.8,0.4c0.3,0.1,0.7,0.1,1.1,0.1c0.9,0,1.5-0.3,2-0.8
		c0.5-0.6,0.7-1.4,0.7-2.5c0-0.9-0.2-1.6-0.5-2.2C46.4,104.6,45.8,104.3,44.9,104.3z"/>
	<path fill="#08304C" d="M51.8,103.8c1-0.5,2.1-0.7,3.6-0.7c0.6,0,1.2,0.1,1.5,0.2c0.4,0.2,0.7,0.4,0.9,0.6c0.2,0.3,0.4,0.5,0.4,0.9
		c0.1,0.3,0.1,0.6,0.1,0.9c0,0.6,0,1.2-0.1,1.8c0,0.6-0.1,1.2-0.1,1.9c0,0.4,0,0.8,0.1,1.2c0,0.4,0.1,0.7,0.2,1h-1.1l-0.4-1.3h-0.2
		c-0.1,0.2-0.3,0.3-0.4,0.5c-0.2,0.2-0.4,0.3-0.6,0.4c-0.2,0.1-0.5,0.2-0.8,0.3c-0.3,0.1-0.7,0.1-1,0.1c-0.4,0-0.8-0.1-1.1-0.2
		c-0.3-0.1-0.6-0.3-0.9-0.5c-0.2-0.2-0.4-0.5-0.6-0.7c-0.1-0.3-0.2-0.6-0.2-1c0-0.5,0.1-0.9,0.3-1.2c0.2-0.4,0.5-0.6,0.8-0.9
		c0.3-0.2,0.7-0.4,1.1-0.5c0.4-0.1,0.8-0.2,1.3-0.2c0.3,0,0.6,0,0.8,0c0.2,0,0.4,0,0.6,0c0.2,0,0.3,0,0.4,0c0.1,0,0.2,0,0.3,0
		c0-0.2,0-0.3,0-0.4c0-0.1,0-0.3,0-0.4c0-0.3,0-0.5-0.1-0.8c-0.1-0.2-0.2-0.4-0.3-0.5c-0.1-0.1-0.3-0.2-0.6-0.3
		c-0.2-0.1-0.5-0.1-0.9-0.1c-0.2,0-0.4,0-0.7,0c-0.2,0-0.5,0.1-0.7,0.1c-0.2,0.1-0.5,0.1-0.7,0.2c-0.2,0.1-0.5,0.2-0.6,0.3
		L51.8,103.8z M56.9,107.9c-0.1,0-0.2,0-0.3,0c-0.1,0-0.2,0-0.4,0c-0.1,0-0.3,0-0.5,0c-0.2,0-0.4,0-0.7,0c-0.7,0-1.2,0.1-1.6,0.4
		c-0.4,0.2-0.6,0.6-0.6,1.2c0,0.4,0.2,0.7,0.5,1c0.3,0.2,0.7,0.3,1.2,0.3c0.3,0,0.7,0,0.9-0.1c0.3-0.1,0.5-0.2,0.7-0.3
		c0.2-0.1,0.4-0.3,0.5-0.4c0.1-0.2,0.2-0.3,0.3-0.5V107.9z"/>
	<path fill="#08304C" d="M69.5,106.9l0.1-1.7h-0.2l-0.7,1.3l-2.1,3.2h-0.5l-2.3-3.2l-0.6-1.3H63l0.1,1.7v4.8h-1.4v-8.4h1.5l2.5,3.7
		l0.6,1.2l0.7-1.2l2.3-3.7H71v8.4h-1.5V106.9z"/>
	<path fill="#08304C" d="M82.1,106.9l0.1-1.7H82l-0.7,1.3l-2.1,3.2h-0.5l-2.3-3.2l-0.6-1.3h-0.2l0.1,1.7v4.8h-1.4v-8.4h1.5l2.5,3.7
		l0.6,1.2l0.7-1.2l2.3-3.7h1.6v8.4h-1.5V106.9z"/>
	<path fill="#08304C" d="M87,103.8c1-0.5,2.1-0.7,3.6-0.7c0.6,0,1.2,0.1,1.5,0.2c0.4,0.2,0.7,0.4,0.9,0.6c0.2,0.3,0.4,0.5,0.4,0.9
		c0.1,0.3,0.1,0.6,0.1,0.9c0,0.6,0,1.2-0.1,1.8c0,0.6-0.1,1.2-0.1,1.9c0,0.4,0,0.8,0.1,1.2c0,0.4,0.1,0.7,0.2,1h-1.1l-0.4-1.3H92
		c-0.1,0.2-0.3,0.3-0.4,0.5c-0.2,0.2-0.4,0.3-0.6,0.4c-0.2,0.1-0.5,0.2-0.8,0.3c-0.3,0.1-0.7,0.1-1,0.1c-0.4,0-0.8-0.1-1.1-0.2
		c-0.3-0.1-0.6-0.3-0.9-0.5c-0.2-0.2-0.4-0.5-0.6-0.7c-0.1-0.3-0.2-0.6-0.2-1c0-0.5,0.1-0.9,0.3-1.2c0.2-0.4,0.5-0.6,0.8-0.9
		c0.3-0.2,0.7-0.4,1.1-0.5c0.4-0.1,0.8-0.2,1.3-0.2c0.3,0,0.6,0,0.8,0c0.2,0,0.4,0,0.6,0c0.2,0,0.3,0,0.4,0c0.1,0,0.2,0,0.3,0
		c0-0.2,0-0.3,0-0.4c0-0.1,0-0.3,0-0.4c0-0.3,0-0.5-0.1-0.8c-0.1-0.2-0.2-0.4-0.3-0.5c-0.1-0.1-0.3-0.2-0.6-0.3
		c-0.2-0.1-0.5-0.1-0.9-0.1c-0.2,0-0.4,0-0.7,0c-0.2,0-0.5,0.1-0.7,0.1c-0.2,0.1-0.5,0.1-0.7,0.2c-0.2,0.1-0.5,0.2-0.6,0.3L87,103.8
		z M92,107.9c-0.1,0-0.2,0-0.3,0c-0.1,0-0.2,0-0.4,0c-0.1,0-0.3,0-0.5,0c-0.2,0-0.4,0-0.7,0c-0.7,0-1.2,0.1-1.6,0.4
		c-0.4,0.2-0.6,0.6-0.6,1.2c0,0.4,0.2,0.7,0.5,1c0.3,0.2,0.7,0.3,1.2,0.3c0.3,0,0.7,0,0.9-0.1c0.3-0.1,0.5-0.2,0.7-0.3
		c0.2-0.1,0.4-0.3,0.5-0.4c0.1-0.2,0.2-0.3,0.3-0.5V107.9z"/>
	<path fill="#08304C" d="M102.4,103.3h1l0.3,1.1h0.1c0.3-0.4,0.7-0.7,1.1-1c0.5-0.2,1-0.3,1.6-0.3c1.2,0,2.1,0.3,2.7,1
		c0.6,0.7,0.9,1.8,0.9,3.2c0,0.7-0.1,1.3-0.3,1.9c-0.2,0.6-0.5,1.1-0.8,1.5c-0.4,0.4-0.8,0.7-1.3,0.9c-0.5,0.2-1.1,0.3-1.8,0.3
		c-0.2,0-0.4,0-0.6,0c-0.2,0-0.3,0-0.5-0.1c-0.1,0-0.3-0.1-0.4-0.1c-0.1,0-0.3-0.1-0.5-0.2v3.4h-1.5V103.3z M106.1,104.3
		c-0.6,0-1.1,0.2-1.5,0.5c-0.4,0.3-0.6,0.8-0.8,1.5v3.9c0.2,0.2,0.5,0.3,0.8,0.4c0.3,0.1,0.7,0.1,1.1,0.1c0.9,0,1.5-0.3,2-0.8
		c0.5-0.6,0.7-1.4,0.7-2.5c0-0.9-0.2-1.6-0.5-2.2C107.6,104.6,107,104.3,106.1,104.3z"/>
	<path fill="#08304C" d="M113,103.8c1-0.5,2.1-0.7,3.6-0.7c0.6,0,1.2,0.1,1.5,0.2c0.4,0.2,0.7,0.4,0.9,0.6c0.2,0.3,0.4,0.5,0.4,0.9
		c0.1,0.3,0.1,0.6,0.1,0.9c0,0.6,0,1.2-0.1,1.8c0,0.6-0.1,1.2-0.1,1.9c0,0.4,0,0.8,0.1,1.2c0,0.4,0.1,0.7,0.2,1h-1.1l-0.4-1.3h-0.2
		c-0.1,0.2-0.3,0.3-0.4,0.5c-0.2,0.2-0.4,0.3-0.6,0.4c-0.2,0.1-0.5,0.2-0.8,0.3c-0.3,0.1-0.7,0.1-1,0.1c-0.4,0-0.8-0.1-1.1-0.2
		c-0.3-0.1-0.6-0.3-0.9-0.5c-0.2-0.2-0.4-0.5-0.6-0.7c-0.1-0.3-0.2-0.6-0.2-1c0-0.5,0.1-0.9,0.3-1.2c0.2-0.4,0.5-0.6,0.8-0.9
		c0.3-0.2,0.7-0.4,1.1-0.5c0.4-0.1,0.8-0.2,1.3-0.2c0.3,0,0.6,0,0.8,0c0.2,0,0.4,0,0.6,0c0.2,0,0.3,0,0.4,0c0.1,0,0.2,0,0.3,0
		c0-0.2,0-0.3,0-0.4c0-0.1,0-0.3,0-0.4c0-0.3,0-0.5-0.1-0.8c-0.1-0.2-0.2-0.4-0.3-0.5c-0.1-0.1-0.3-0.2-0.6-0.3
		c-0.2-0.1-0.5-0.1-0.9-0.1c-0.2,0-0.4,0-0.7,0c-0.2,0-0.5,0.1-0.7,0.1c-0.2,0.1-0.5,0.1-0.7,0.2c-0.2,0.1-0.5,0.2-0.6,0.3
		L113,103.8z M118.1,107.9c-0.1,0-0.2,0-0.3,0c-0.1,0-0.2,0-0.4,0c-0.1,0-0.3,0-0.5,0c-0.2,0-0.4,0-0.7,0c-0.7,0-1.2,0.1-1.6,0.4
		c-0.4,0.2-0.6,0.6-0.6,1.2c0,0.4,0.2,0.7,0.5,1c0.3,0.2,0.7,0.3,1.2,0.3c0.3,0,0.7,0,0.9-0.1c0.3-0.1,0.5-0.2,0.7-0.3
		c0.2-0.1,0.4-0.3,0.5-0.4c0.1-0.2,0.2-0.3,0.3-0.5V107.9z"/>
	<path fill="#08304C" d="M124,108v-1.1h1.2c0.2,0,0.5,0,0.7-0.1c0.2-0.1,0.4-0.2,0.6-0.3c0.2-0.1,0.3-0.2,0.4-0.4
		c0.1-0.2,0.2-0.3,0.2-0.5c0-0.4-0.2-0.8-0.5-0.9c-0.3-0.2-0.8-0.3-1.5-0.3c-0.5,0-0.9,0.1-1.3,0.2c-0.4,0.1-0.7,0.2-1,0.3l-0.4-1.1
		c0.7-0.4,1.7-0.6,3.1-0.6c1,0,1.8,0.2,2.3,0.5c0.5,0.4,0.8,0.9,0.8,1.5c0,0.2,0,0.4-0.1,0.6c-0.1,0.2-0.2,0.4-0.3,0.6
		c-0.1,0.2-0.3,0.3-0.5,0.5c-0.2,0.1-0.4,0.3-0.7,0.3v0.2c0.7,0.1,1.2,0.4,1.5,0.7c0.3,0.3,0.4,0.8,0.4,1.4c0,0.4-0.1,0.7-0.2,1
		c-0.2,0.3-0.4,0.6-0.7,0.8c-0.3,0.2-0.7,0.4-1.2,0.5c-0.5,0.1-1,0.2-1.7,0.2c-0.6,0-1.1,0-1.6-0.1c-0.4-0.1-0.8-0.2-1.1-0.4
		l0.4-1.2c0.3,0.1,0.6,0.3,1,0.3c0.4,0.1,0.8,0.1,1.3,0.1c1.5,0,2.2-0.5,2.2-1.4c0-0.4-0.2-0.7-0.5-0.9c-0.3-0.2-1-0.3-1.8-0.3H124z
		"/>
	<path fill="#08304C" d="M131.8,103.3l0.6,0c0.3,0,0.7,0,1.1-0.1c0.4,0,0.9,0,1.4,0c1.2,0,2.1,0.2,2.7,0.5c0.5,0.3,0.8,0.9,0.8,1.5
		c0,0.4-0.1,0.8-0.4,1.1c-0.3,0.4-0.7,0.7-1.2,0.8v0.2c0.7,0.1,1.2,0.4,1.5,0.7c0.3,0.3,0.5,0.8,0.5,1.3c0,0.8-0.3,1.5-1,1.9
		c-0.7,0.4-1.7,0.6-3.1,0.6c-0.5,0-0.9,0-1.3,0c-0.4,0-0.8-0.1-1.2-0.1c0,0-0.1,0-0.1,0c0,0-0.1,0-0.1,0V103.3z M135.1,106.8
		c0.2,0,0.5,0,0.7-0.1c0.2-0.1,0.4-0.2,0.6-0.3c0.2-0.1,0.3-0.3,0.4-0.4c0.1-0.2,0.2-0.3,0.2-0.5c0-0.4-0.2-0.8-0.5-0.9
		c-0.3-0.2-0.8-0.3-1.6-0.3c-0.2,0-0.5,0-0.7,0c-0.3,0-0.5,0-0.9,0v2.4H135.1z M133.3,110.5c0.2,0,0.5,0.1,0.7,0.1
		c0.2,0,0.5,0,0.8,0c0.8,0,1.4-0.1,1.8-0.3c0.4-0.2,0.6-0.6,0.6-1.1c0-0.2,0-0.4-0.1-0.6c-0.1-0.2-0.2-0.3-0.4-0.4
		c-0.2-0.1-0.4-0.2-0.7-0.3c-0.3-0.1-0.6-0.1-1.1-0.1h-1.6V110.5z"/>
	<path fill="#08304C" d="M147.5,106.9l0.2-1.7h-0.2l-0.8,1.6l-3.9,4.9h-1.1v-8.4h1.5v5l-0.1,1.5h0.2l0.7-1.4l3.9-5h1.2v8.4h-1.5
		V106.9z"/>
	<path fill="#08304C" d="M158.6,104.5h-2.9v7.2h-1.5v-7.2h-2.9v-1.2h7.3V104.5z"/>
	<path fill="#08304C" d="M166.7,106.9l0.2-1.7h-0.2l-0.8,1.6l-3.9,4.9h-1.1v-8.4h1.5v5l-0.1,1.5h0.2l0.7-1.4l3.9-5h1.2v8.4h-1.5
		V106.9z"/>
	<path fill="#08304C" d="M176.5,108.4l-1.5,0.2l-2.4,3.1h-1.8l2.1-2.8v0l0.9-0.6c-0.7-0.1-1.3-0.3-1.8-0.8c-0.4-0.4-0.6-1-0.6-1.6
		c0-0.5,0.1-0.9,0.3-1.3c0.2-0.4,0.5-0.7,0.8-0.9c0.4-0.2,0.8-0.4,1.3-0.5c0.5-0.1,1.1-0.2,1.7-0.2c0.4,0,0.8,0,1.3,0.1
		c0.4,0.1,0.9,0.1,1.2,0.2v8.3h-1.5V108.4z M176.5,107.5v-3c-0.2-0.1-0.4-0.1-0.6-0.1c-0.2,0-0.4,0-0.6,0c-0.8,0-1.4,0.1-1.8,0.4
		c-0.4,0.3-0.6,0.7-0.6,1.2c0,0.5,0.2,0.9,0.7,1.2c0.5,0.3,1.1,0.4,1.8,0.4L176.5,107.5z"/>
	<path fill="#08304C" d="M189.3,107.9h-0.9v3.8h-1.5v-8.4h1.5v3.8l0.9-0.3l2.9-3.5h1.6l-2.7,3.3h0l-0.9,0.6l1,0.7l3,3.8h-1.9
		L189.3,107.9z"/>
	<path fill="#08304C" d="M196.3,103.8c1-0.5,2.1-0.7,3.6-0.7c0.6,0,1.2,0.1,1.5,0.2c0.4,0.2,0.7,0.4,0.9,0.6
		c0.2,0.3,0.4,0.5,0.4,0.9c0.1,0.3,0.1,0.6,0.1,0.9c0,0.6,0,1.2-0.1,1.8c0,0.6-0.1,1.2-0.1,1.9c0,0.4,0,0.8,0.1,1.2
		c0,0.4,0.1,0.7,0.2,1h-1.1l-0.4-1.3h-0.2c-0.1,0.2-0.3,0.3-0.4,0.5c-0.2,0.2-0.4,0.3-0.6,0.4c-0.2,0.1-0.5,0.2-0.8,0.3
		c-0.3,0.1-0.7,0.1-1,0.1s-0.8-0.1-1.1-0.2c-0.3-0.1-0.6-0.3-0.9-0.5c-0.2-0.2-0.4-0.5-0.6-0.7c-0.1-0.3-0.2-0.6-0.2-1
		c0-0.5,0.1-0.9,0.3-1.2c0.2-0.4,0.5-0.6,0.8-0.9c0.3-0.2,0.7-0.4,1.1-0.5c0.4-0.1,0.8-0.2,1.3-0.2c0.3,0,0.6,0,0.8,0
		c0.2,0,0.4,0,0.6,0c0.2,0,0.3,0,0.4,0c0.1,0,0.2,0,0.3,0c0-0.2,0-0.3,0-0.4c0-0.1,0-0.3,0-0.4c0-0.3,0-0.5-0.1-0.8
		c-0.1-0.2-0.2-0.4-0.3-0.5c-0.1-0.1-0.3-0.2-0.6-0.3c-0.2-0.1-0.5-0.1-0.9-0.1c-0.2,0-0.4,0-0.7,0c-0.2,0-0.5,0.1-0.7,0.1
		c-0.2,0.1-0.5,0.1-0.7,0.2c-0.2,0.1-0.5,0.2-0.6,0.3L196.3,103.8z M201.3,107.9c-0.1,0-0.2,0-0.3,0c-0.1,0-0.2,0-0.4,0
		c-0.1,0-0.3,0-0.5,0c-0.2,0-0.4,0-0.7,0c-0.7,0-1.2,0.1-1.6,0.4c-0.4,0.2-0.6,0.6-0.6,1.2c0,0.4,0.2,0.7,0.5,1
		c0.3,0.2,0.7,0.3,1.2,0.3c0.3,0,0.7,0,0.9-0.1c0.3-0.1,0.5-0.2,0.7-0.3c0.2-0.1,0.4-0.3,0.5-0.4c0.1-0.2,0.2-0.3,0.3-0.5V107.9z"/>
	<path fill="#08304C" d="M206.2,103.3h1l0.3,1.1h0.1c0.3-0.4,0.7-0.7,1.1-1c0.5-0.2,1-0.3,1.6-0.3c1.2,0,2.1,0.3,2.7,1
		c0.6,0.7,0.9,1.8,0.9,3.2c0,0.7-0.1,1.3-0.3,1.9c-0.2,0.6-0.5,1.1-0.8,1.5c-0.4,0.4-0.8,0.7-1.3,0.9c-0.5,0.2-1.1,0.3-1.8,0.3
		c-0.2,0-0.4,0-0.6,0c-0.2,0-0.3,0-0.5-0.1c-0.1,0-0.3-0.1-0.4-0.1c-0.1,0-0.3-0.1-0.5-0.2v3.4h-1.5V103.3z M209.9,104.3
		c-0.6,0-1.1,0.2-1.5,0.5c-0.4,0.3-0.6,0.8-0.8,1.5v3.9c0.2,0.2,0.5,0.3,0.8,0.4c0.3,0.1,0.7,0.1,1.1,0.1c0.9,0,1.5-0.3,2-0.8
		c0.5-0.6,0.7-1.4,0.7-2.5c0-0.9-0.2-1.6-0.5-2.2C211.4,104.6,210.8,104.3,209.9,104.3z"/>
	<path fill="#08304C" d="M218.3,106.5c0.3-0.1,0.7-0.1,0.9-0.1c0.3,0,0.5,0,0.8,0c0.6,0,1.2,0.1,1.6,0.2c0.4,0.1,0.8,0.3,1.1,0.5
		c0.3,0.2,0.5,0.5,0.6,0.8c0.1,0.3,0.2,0.6,0.2,1c0,1-0.3,1.8-1,2.2c-0.7,0.5-1.7,0.7-3.2,0.7c-0.4,0-0.9,0-1.3,0
		c-0.4,0-0.8,0-1.2-0.1v-8.4h1.5V106.5z M218.3,110.4c0.4,0.1,0.9,0.1,1.3,0.1c0.8,0,1.3-0.1,1.7-0.4c0.4-0.3,0.5-0.6,0.5-1.1
		c0-0.4-0.2-0.8-0.5-1.1c-0.4-0.3-0.9-0.4-1.7-0.4c-0.2,0-0.4,0-0.7,0c-0.2,0-0.5,0.1-0.7,0.1V110.4z"/>
	<path fill="#08304C" d="M233.1,111c-0.4,0.3-0.8,0.5-1.4,0.7c-0.6,0.2-1.2,0.2-1.8,0.2c-0.7,0-1.3-0.1-1.8-0.3s-0.9-0.5-1.3-0.9
		c-0.3-0.4-0.6-0.8-0.7-1.4c-0.2-0.5-0.2-1.2-0.2-1.8c0-1.4,0.4-2.5,1.1-3.3c0.7-0.8,1.7-1.1,3-1.1c0.4,0,0.8,0,1.2,0.1
		s0.8,0.3,1.1,0.5c0.3,0.3,0.6,0.6,0.8,1c0.2,0.4,0.3,1,0.3,1.7c0,0.2,0,0.4,0,0.6c0,0.2,0,0.4-0.1,0.7h-6c0,1,0.3,1.7,0.7,2.2
		c0.4,0.5,1.2,0.8,2.3,0.8c0.4,0,0.9-0.1,1.3-0.2c0.4-0.2,0.7-0.3,0.9-0.6L233.1,111z M232,106.6c0-0.9-0.2-1.5-0.5-1.8
		c-0.4-0.4-0.9-0.5-1.5-0.5c-0.7,0-1.3,0.2-1.8,0.5c-0.4,0.4-0.7,1-0.8,1.8H232z"/>
	<path fill="#08304C" d="M236.4,103.3h1l0.3,1.1h0.1c0.3-0.4,0.7-0.7,1.1-1c0.5-0.2,1-0.3,1.6-0.3c1.2,0,2.1,0.3,2.7,1
		c0.6,0.7,0.9,1.8,0.9,3.2c0,0.7-0.1,1.3-0.3,1.9c-0.2,0.6-0.5,1.1-0.8,1.5c-0.4,0.4-0.8,0.7-1.3,0.9c-0.5,0.2-1.1,0.3-1.8,0.3
		c-0.2,0-0.4,0-0.6,0c-0.2,0-0.3,0-0.5-0.1c-0.1,0-0.3-0.1-0.4-0.1c-0.1,0-0.3-0.1-0.5-0.2v3.4h-1.5V103.3z M240.2,104.3
		c-0.6,0-1.1,0.2-1.5,0.5c-0.4,0.3-0.6,0.8-0.8,1.5v3.9c0.2,0.2,0.5,0.3,0.8,0.4c0.3,0.1,0.7,0.1,1.1,0.1c0.9,0,1.5-0.3,2-0.8
		c0.5-0.6,0.7-1.4,0.7-2.5c0-0.9-0.2-1.6-0.5-2.2C241.6,104.6,241,104.3,240.2,104.3z"/>
	<path fill="#08304C" d="M248.6,106.5c0.3-0.1,0.7-0.1,1-0.1c0.3,0,0.6,0,0.8,0c0.6,0,1.1,0.1,1.6,0.2c0.4,0.1,0.8,0.3,1,0.5
		c0.3,0.2,0.4,0.5,0.5,0.8c0.1,0.3,0.2,0.6,0.2,1c0,1-0.3,1.8-0.9,2.2c-0.6,0.5-1.6,0.7-3,0.7c-0.4,0-0.9,0-1.3,0
		c-0.4,0-0.8,0-1.2-0.1v-8.4h1.5V106.5z M248.6,110.4c0.4,0.1,0.9,0.1,1.4,0.1c0.8,0,1.3-0.1,1.6-0.4c0.3-0.3,0.5-0.6,0.5-1.1
		c0-0.4-0.2-0.8-0.5-1.1c-0.3-0.3-0.8-0.4-1.6-0.4c-0.2,0-0.4,0-0.7,0c-0.2,0-0.5,0.1-0.7,0.1V110.4z M255.2,103.3h1.5v8.4h-1.5
		V103.3z"/>
</g>
</svg>
