<?xml version="1.0" encoding="utf-8"?>
<!-- Generator: Adobe Illustrator 17.1.0, SVG Export Plug-In . SVG Version: 6.00 Build 0)  -->
<!DOCTYPE svg PUBLIC "-//W3C//DTD SVG 1.1//EN" "http://www.w3.org/Graphics/SVG/1.1/DTD/svg11.dtd">
<svg version="1.1" id="Layer_1" xmlns="http://www.w3.org/2000/svg" xmlns:xlink="http://www.w3.org/1999/xlink" x="0px" y="0px"
	 viewBox="0 0 231.9 88.8" enable-background="new 0 0 231.9 88.8" xml:space="preserve">
<g>
	<path fill="#FFFFFF" d="M20.3,73.3c-1.5,1.4-3,2.3-4.7,2.7L5.4,65l0-0.2c0.5-1.5,1.3-2.8,2.6-4c1.8-1.8,4.3-3.1,7.3-3.9l-2.5-2.5
		c-3,1.2-5.4,2.6-7.1,4.3c-2.5,2.5-3.8,5.4-3.9,8.7c-0.1,3.3,1,6.2,3.4,8.6c1.5,1.5,3.2,2.6,5.3,3.1c2,0.6,4.1,0.6,6.1,0.1
		c2-0.5,3.9-1.7,5.8-3.5c2.3-2.2,3.8-4.7,4.6-7.3l-2.6-2.6C23.6,68.8,22.3,71.3,20.3,73.3z"/>
	<path fill="#FFFFFF" d="M24.6,43.2L29.7,68l2.8-1.9L31,58.8l8.1-5.6l6.5,3.9l2.8-1.9L26.5,41.9L24.6,43.2z M36.3,51.5l-5.9,4.1
		l-1.9-8.9L36.3,51.5z"/>
	<path fill="#FFFFFF" d="M62.4,43.4c-2.1-1.3-3.6-2.2-4.6-2.7c-1-0.5-1.9-0.7-2.8-0.9c0.9-1,1.5-2.1,1.7-3.2c0.2-1.2,0-2.4-0.6-3.6
		c-0.8-1.8-2.1-2.9-3.9-3.4c-1.7-0.5-3.7-0.2-5.8,0.8l-5.3,2.5l9.9,21l3-1.4l-4.3-9.1l0.8-0.4c1-0.5,1.7-0.7,2.3-0.7
		c0.5,0,1.2,0.2,1.9,0.4c0.8,0.3,1.6,0.7,2.7,1.2l1.8,1.2l1.7,1.1l1,0.5c0.1,0.1,0.2,0.1,0.3,0.2l1.6,0.9l3.6-1.7l-1.8-1
		C64.7,44.8,63.7,44.2,62.4,43.4z M53.3,36.4c-0.1,0.7-0.3,1.3-0.8,1.8c-0.4,0.5-1.4,1.2-2.9,1.9l-1.1,0.5L45.3,34l0.9-0.4
		c1.5-0.7,2.6-1.1,3.3-1.2c0.7-0.1,1.4,0.1,2,0.4c0.6,0.4,1.1,0.9,1.4,1.5C53.3,35.1,53.4,35.8,53.3,36.4z"/>
	<polygon fill="#FFFFFF" points="72.8,41.5 70.7,34.6 79.8,31.9 79,29 69.9,31.8 67.9,25 77.3,22.2 76.5,19.3 63.9,23.1 70.4,45.3 
		83.3,41.5 82.5,38.6 	"/>
	<polygon fill="#FFFFFF" points="91.6,37 90.6,29.9 100,28.6 99.6,25.7 90.2,27 89.3,19.9 99,18.6 98.6,15.7 85.6,17.5 88.7,40.4 
		102.1,38.6 101.7,35.7 	"/>
	<path fill="#FFFFFF" d="M122.4,34.1c-1.2-2.1-2.2-3.6-2.9-4.5c-0.7-0.9-1.4-1.5-2.1-2.1c1.3-0.4,2.3-1.2,3-2.1
		c0.7-1,1.1-2.1,1.1-3.5c0.1-2-0.6-3.6-1.9-4.8c-1.3-1.2-3.2-1.8-5.5-1.9l-5.8-0.2l-0.7,23.2l3.3,0.1l0.3-10.1l0.9,0
		c1.1,0,1.9,0.2,2.3,0.4c0.5,0.3,1,0.7,1.5,1.3c0.6,0.6,1.2,1.4,1.8,2.3l1.1,1.8l1,1.7l0.6,0.9c0.1,0.1,0.2,0.2,0.2,0.3l1,1.6
		l3.9,0.1l-1.2-1.7C123.7,36.5,123.1,35.5,122.4,34.1z M116,25.1c-0.6,0.3-1.8,0.4-3.5,0.3l-1.3,0l0.2-7.3l1,0
		c1.6,0,2.8,0.2,3.5,0.5c0.7,0.3,1.2,0.7,1.6,1.3c0.4,0.6,0.5,1.3,0.5,2c0,0.7-0.2,1.4-0.6,2C117.1,24.4,116.6,24.8,116,25.1z"/>
	<polygon fill="#FFFFFF" points="171,27.9 168,26.5 158.3,47.6 170.8,53.3 172.1,50.6 162.6,46.2 	"/>
	
		<rect x="169.2" y="44.2" transform="matrix(0.5042 -0.8636 0.8636 0.5042 50.0162 178.8519)" fill="#FFFFFF" width="23.2" height="3.3"/>
	<polygon fill="#FFFFFF" points="196.5,45.7 203.9,51.1 205.6,48.7 195.6,41.4 181.9,60.1 184.6,62.1 191,53.4 198.3,58.7 200,56.3 
		192.7,51 	"/>
	<polygon fill="#FFFFFF" points="210.7,52.7 208.7,54.8 214.4,60.4 200.3,74.9 202.7,77.3 216.8,62.7 222.6,68.3 224.7,66.2 	"/>
</g>
<g>
	<path fill="#FFFFFF" d="M101.8,86.4c-1.7-2-1-4.6,0-6.5c1.2-2.3,4-4,8.2-4.9c7.6-1.6,14.3-7.6,17.8-15.9c0.8-2,1.6-3.9,2.3-5.8
		c2.6-6.9,4.7-12.4,10-13.3l5.1-0.8l-0.3-2.3l-8.8-1.1c0,0-7-0.5-6.6-1.6c0.4-1.1,5.3-1.6,9.4-3.3c5.7-2.3,17-9.1,19.7-12.4
		c0.7-0.8,0.3,10.4-15,15.4c-1.8,0.6,3.2,1.3,3.2,1.3l0.7,5.7l-6.9,1.2c-4.2,0.7-6,5.5-8.4,12.1c-0.7,1.9-1.4,3.8-2.3,5.8
		c-3.8,8.9-10.9,15.3-19.2,17.1c-3.6,0.8-7.4,4.5-5,7.9c3.2,4.6,8.2-1.1,9.4,0C116.1,85.8,106.8,92.3,101.8,86.4z"/>
</g>
<circle fill="#FFFFFF" cx="109.8" cy="82.5" r="2"/>
<path fill="#FFFFFF" d="M125.7,47.8c0.2-0.3,0.4-0.6,0.6-0.9c-3.2-0.3-6.4-0.5-9.6-0.5C85.1,46.3,57,61.1,38.9,84h1.3
	c18-22.3,45.6-36.7,76.5-36.7C119.7,47.3,122.7,47.5,125.7,47.8z"/>
<path fill="#FFFFFF" d="M147.4,51.3c-0.2,0.3-0.4,0.6-0.6,0.8c18.4,6,34.4,17.1,46.3,31.9h1.3C182.4,68.9,166.1,57.4,147.4,51.3z"/>
<path fill="#FFFFFF" d="M1.3,52.5C29.5,20.9,70.4,1,115.9,1c45.5,0,86.5,19.9,114.6,51.5h1.3C203.5,20.3,162.1,0,115.9,0
	C69.8,0,28.3,20.3,0,52.5H1.3z"/>
</svg>
