<?xml version="1.0" standalone="no"?>
<!DOCTYPE svg PUBLIC "-//W3C//DTD SVG 20010904//EN"
 "http://www.w3.org/TR/2001/REC-SVG-20010904/DTD/svg10.dtd">
<svg version="1.0" xmlns="http://www.w3.org/2000/svg"
 width="700.000000pt" height="700.000000pt" viewBox="0 0 700.000000 700.000000"
 preserveAspectRatio="xMidYMid meet">
<metadata>
Created by potrace 1.11, written by Peter Selinger 2001-2013
</metadata>
<g transform="translate(0.000000,700.000000) scale(0.100000,-0.100000)"
fill="#000000" stroke="none">
<path d="M1858 6585 c-2 -1 -44 -5 -93 -9 -152 -11 -309 -42 -455 -93 -416
-142 -767 -417 -1012 -793 -142 -217 -243 -499 -283 -790 -11 -82 -12 -346 -1
-415 1 -11 6 -45 10 -75 21 -168 34 -176 198 -119 282 97 654 325 1037 636 18
16 41 32 50 37 9 5 18 12 21 15 3 4 59 51 125 106 197 163 434 372 584 515 14
14 80 74 146 135 66 60 125 114 131 120 6 5 69 64 139 130 71 66 145 136 165
155 20 19 69 65 108 102 39 37 73 76 76 86 9 28 -16 45 -149 100 -251 105
-419 141 -737 156 -32 2 -59 2 -60 1z"/>
<path d="M5058 6585 c-2 -2 -39 -5 -83 -8 -331 -21 -675 -139 -940 -321 -92
-64 -165 -123 -365 -301 -69 -61 -140 -125 -159 -141 -18 -16 -46 -40 -61 -54
-15 -14 -58 -52 -96 -85 -37 -33 -86 -76 -109 -96 -22 -20 -65 -58 -95 -84
-30 -26 -71 -61 -91 -79 -19 -17 -59 -51 -89 -76 -29 -25 -58 -50 -64 -55 -24
-23 -369 -318 -491 -419 -71 -60 -152 -127 -179 -150 -264 -222 -579 -463
-806 -618 -113 -77 -343 -223 -380 -241 -8 -4 -46 -25 -85 -47 -93 -53 -363
-188 -448 -224 -83 -36 -102 -58 -82 -95 13 -25 180 -198 241 -251 274 -235
554 -370 907 -436 97 -19 428 -27 532 -13 39 5 88 11 110 14 22 2 65 9 95 15
30 6 66 14 80 16 217 42 488 184 715 375 89 74 102 86 294 267 74 70 139 132
146 137 6 6 42 39 81 75 88 82 154 142 279 255 55 49 102 92 105 95 3 3 73 64
155 135 83 70 152 131 155 134 22 26 506 422 630 516 58 44 107 82 110 85 36
40 684 490 705 490 3 0 18 8 33 19 43 29 82 52 84 49 2 -2 17 7 33 18 53 37
354 195 430 226 64 25 188 86 208 101 25 20 21 61 -10 99 -58 69 -202 203
-302 278 -296 224 -658 356 -1056 386 -49 3 -99 7 -112 9 -12 1 -24 1 -25 0z"/>
<path d="M6783 4980 c-270 -112 -606 -309 -963 -563 -126 -90 -311 -227 -320
-237 -3 -3 -44 -36 -92 -73 -47 -37 -92 -73 -100 -79 -7 -7 -60 -51 -118 -97
-58 -47 -107 -88 -110 -91 -3 -3 -32 -28 -65 -55 -59 -50 -108 -91 -129 -110
-6 -5 -43 -37 -81 -70 -38 -33 -77 -67 -85 -75 -9 -8 -50 -44 -90 -80 -68 -60
-116 -103 -190 -170 -15 -14 -62 -56 -105 -95 -43 -38 -85 -77 -94 -85 -9 -9
-63 -58 -121 -110 -57 -52 -114 -104 -125 -115 -12 -11 -66 -60 -120 -110 -54
-49 -108 -99 -119 -110 -74 -70 -202 -179 -266 -227 -286 -212 -754 -405
-1100 -454 -30 -4 -57 -8 -60 -9 -33 -7 -153 -21 -270 -30 -47 -4 -87 -9 -90
-12 -2 -2 18 -23 45 -46 70 -60 153 -143 207 -207 122 -146 1205 -1229 1246
-1247 29 -12 37 -12 55 0 12 8 400 394 862 858 462 463 1108 1111 1435 1438
328 328 614 616 636 641 211 236 364 500 444 765 15 52 29 103 31 120 0 2 7
31 14 62 24 102 30 183 30 388 -1 258 -17 326 -79 324 -12 0 -62 -18 -113 -39z"/>
</g>
</svg>
