<?xml version="1.0" encoding="utf-8"?>
<!-- Generator: Adobe Illustrator 19.2.0, SVG Export Plug-In . SVG Version: 6.00 Build 0)  -->
<svg version="1.1" id="Layer_1" xmlns="http://www.w3.org/2000/svg" xmlns:xlink="http://www.w3.org/1999/xlink" x="0px" y="0px"
	 viewBox="0 0 64 64" enable-background="new 0 0 64 64" xml:space="preserve">
<g>
	<g>
		<g>
			<g id="logo_18_" transform="translate(0 0)">
				<g>
					<path id="Path_241_18_" fill="#FF0016" d="M63.9,25.2c0.9-5.8-3-11.3-8.8-12.2c-3.1-0.5-6.3,0.4-8.7,2.5
						c-3-5.1-9.6-6.7-14.6-3.7c-2.7,1.6-4.6,4.4-5.1,7.5C25.2,28.4,38.1,40,41.2,42.7c0.4,0.4,1,0.4,1.5,0.2
						C46.5,41.4,62.4,34.3,63.9,25.2z"/>
				</g>
			</g>
			<g id="logo_17_" transform="translate(0 0)">
				<g>
					<path id="Path_241_17_" fill="#FF0016" d="M25.6,37.6c-0.6-4-4.3-6.8-8.3-6.2c-2.1,0.3-4,1.5-5.2,3.4c-3-2.7-7.6-2.5-10.3,0.5
						c-1.4,1.6-2.1,3.8-1.8,5.9C1,47.5,11.8,52.5,14.4,53.6c0.3,0.1,0.7,0.1,1-0.1C17.5,51.7,26.5,43.8,25.6,37.6z"/>
				</g>
			</g>
		</g>
	</g>
</g>
</svg>
