<?xml version="1.0" standalone="no"?>
<!DOCTYPE svg PUBLIC "-//W3C//DTD SVG 20010904//EN"
 "http://www.w3.org/TR/2001/REC-SVG-20010904/DTD/svg10.dtd">
<svg version="1.0" xmlns="http://www.w3.org/2000/svg"
 width="700.000000pt" height="700.000000pt" viewBox="0 0 700.000000 700.000000"
 preserveAspectRatio="xMidYMid meet">
<metadata>
Created by potrace 1.11, written by Peter Selinger 2001-2013
</metadata>
<g transform="translate(0.000000,700.000000) scale(0.100000,-0.100000)"
fill="#000000" stroke="none">
<path d="M3928 5863 c-243 -30 -487 -148 -660 -318 -176 -173 -284 -368 -338
-612 -16 -71 -19 -116 -16 -233 5 -163 6 -172 34 -287 61 -248 217 -563 427
-862 123 -176 301 -395 470 -580 152 -168 569 -569 672 -648 48 -37 107 -34
218 12 220 91 581 266 785 382 51 29 142 82 164 96 383 238 597 400 817 617
145 144 208 219 292 345 153 233 211 424 206 680 -4 178 -37 320 -114 480
-161 337 -482 579 -850 641 -106 18 -347 12 -440 -10 -178 -43 -342 -121 -473
-224 -42 -33 -62 -40 -62 -20 0 18 -105 153 -168 215 -82 81 -196 163 -293
211 -83 40 -205 85 -264 96 -163 31 -267 36 -407 19z"/>
<path d="M1900 3564 c-105 -16 -155 -31 -235 -69 -119 -56 -219 -138 -297
-242 -22 -29 -42 -53 -45 -53 -2 0 -27 17 -56 39 -210 156 -447 196 -727 123
-87 -22 -233 -112 -311 -191 -90 -90 -172 -232 -205 -351 -33 -124 -31 -333 4
-440 26 -80 107 -223 175 -310 62 -78 197 -216 287 -291 36 -29 67 -56 70 -59
28 -31 374 -260 455 -302 17 -8 59 -32 95 -52 68 -38 322 -164 424 -210 102
-45 115 -41 266 95 575 518 934 1027 996 1413 48 296 -96 614 -353 778 -171
110 -357 151 -543 122z"/>
</g>
</svg>
