<?xml version="1.0" encoding="utf-8"?>
<!-- Generator: Adobe Illustrator 21.0.2, SVG Export Plug-In . SVG Version: 6.00 Build 0)  -->
<svg version="1.1" id="Layer_1" xmlns="http://www.w3.org/2000/svg" xmlns:xlink="http://www.w3.org/1999/xlink" x="0px" y="0px"
	 viewBox="0 0 320 185" style="enable-background:new 0 0 320 185;" xml:space="preserve">
<style type="text/css">
	.st0{fill:#313639;}
	.st1{opacity:0.38;fill:#FF707D;enable-background:new    ;}
	.st2{fill:#FF707D;}
	.st3{fill:#FFFFFF;}
</style>
<g>
	<path class="st0" d="M320,0v15.2c-33.4,67.5-127,128.5-153.1,144.6c-4.2,2.6-9.5,2.6-13.7,0C127,143.7,33.4,82.9,0,15.3V0H320z"/>
	<circle class="st1" cx="74.2" cy="67.7" r="4.8"/>
	<circle class="st1" cx="196.6" cy="115.9" r="2.6"/>
	<circle class="st1" cx="133.9" cy="19.4" r="2.6"/>
	<circle class="st1" cx="251.8" cy="37.4" r="5"/>
	<path class="st2" d="M160.4,185L160.4,185c-18.4,0-33.3-14.9-33.3-33.3l0,0c0-18.4,14.9-33.3,33.3-33.3l0,0
		c18.4,0,33.3,14.9,33.3,33.3l0,0C193.7,170.1,178.8,185,160.4,185z"/>
	<path class="st3" d="M179,148.9c0-5.8-4.7-10.5-10.5-10.5c-3.2,0-6.1,1.5-8.1,3.8c-1.9-2.3-4.8-3.8-8.1-3.8
		c-5.8,0-10.5,4.7-10.5,10.5c0,9.1,14.4,18.5,17.9,20.6c0.5,0.3,1,0.3,1.5,0C164.6,167.4,179,158,179,148.9z"/>
	<path class="st0" d="M162.6,151.4c0-1.2-1-2.2-2.2-2.2s-2.2,1-2.2,2.2c0,0.8,0.4,1.5,1.1,1.9l-1.8,5h5.8l-1.8-5
		C162.1,153,162.6,152.3,162.6,151.4z"/>
</g>
</svg>
