<?xml version="1.0" encoding="utf-8"?>
<!-- Generator: Adobe Illustrator 19.2.0, SVG Export Plug-In . SVG Version: 6.00 Build 0)  -->
<svg version="1.1" id="Layer_1" xmlns="http://www.w3.org/2000/svg" xmlns:xlink="http://www.w3.org/1999/xlink" x="0px" y="0px"
	 viewBox="0 0 414 240" style="enable-background:new 0 0 414 240;" xml:space="preserve">
<style type="text/css">
	.st0{fill:#313639;}
	.st1{opacity:0.38;fill:#FF707D;enable-background:new    ;}
	.st2{fill:#FF707D;}
	.st3{fill:#FFFFFF;}
</style>
<g>
	<path class="st0" d="M414,0v20.3c-43.2,87.3-164.3,166.2-198.1,187.1c-5.4,3.4-12.3,3.4-17.7,0C164.3,186.6,43.2,107.9,0,20.5V0
		H414z"/>
	<circle class="st1" cx="96" cy="88.2" r="6.2"/>
	<circle class="st1" cx="254.4" cy="150.6" r="3.4"/>
	<circle class="st1" cx="173.2" cy="25.8" r="3.4"/>
	<circle class="st1" cx="325.8" cy="49" r="6.5"/>
	<path class="st2" d="M207.5,240L207.5,240c-23.8,0-43.1-19.3-43.1-43.1l0,0c0-23.8,19.3-43.1,43.1-43.1l0,0
		c23.8,0,43.1,19.3,43.1,43.1l0,0C250.6,220.7,231.3,240,207.5,240z"/>
	<path class="st3" d="M231.6,193.3c0-7.5-6.1-13.6-13.6-13.6c-4.1,0-7.9,1.9-10.5,4.9c-2.5-3-6.2-4.9-10.5-4.9
		c-7.5,0-13.6,6.1-13.6,13.6c0,11.8,18.6,23.9,23.2,26.7c0.6,0.4,1.3,0.4,1.9,0C213,217.2,231.6,205.1,231.6,193.3z"/>
	<path class="st0" d="M210.4,196.5c0-1.6-1.3-2.8-2.8-2.8c-1.6,0-2.8,1.3-2.8,2.8c0,1,0.5,1.9,1.4,2.5l-2.3,6.5h7.5l-2.3-6.5
		C209.7,198.6,210.4,197.7,210.4,196.5z"/>
</g>
</svg>
