<?xml version="1.0" encoding="utf-8"?>
<!-- Generator: Adobe Illustrator 19.2.0, SVG Export Plug-In . SVG Version: 6.00 Build 0)  -->
<svg version="1.1" id="Layer_1" xmlns="http://www.w3.org/2000/svg" xmlns:xlink="http://www.w3.org/1999/xlink" x="0px" y="0px"
	 viewBox="0 0 375 216" style="enable-background:new 0 0 375 216;" xml:space="preserve">
<style type="text/css">
	.st0{fill:#313639;}
	.st1{opacity:0.38;fill:#FF707D;enable-background:new    ;}
	.st2{fill:#FF707D;}
	.st3{fill:#FFFFFF;}
</style>
<g>
	<path class="st0" d="M375,0v16.9C335.9,96,226.2,167.5,195.6,186.4c-4.9,3-11.1,3-16.1,0C148.8,167.5,39.1,96.2,0,17V0H375z"/>
	<circle class="st1" cx="87" cy="78.5" r="5.6"/>
	<circle class="st1" cx="230.4" cy="135" r="3"/>
	<circle class="st1" cx="156.9" cy="21.9" r="3"/>
	<circle class="st1" cx="295.1" cy="43" r="5.9"/>
	<path class="st2" d="M188,216L188,216c-21.6,0-39-17.5-39-39l0,0c0-21.6,17.5-39,39-39l0,0c21.6,0,39,17.5,39,39l0,0
		C227,198.5,209.5,216,188,216z"/>
	<path class="st3" d="M209.8,173.7c0-6.8-5.5-12.3-12.3-12.3c-3.8,0-7.1,1.8-9.5,4.5c-2.2-2.7-5.6-4.5-9.5-4.5
		c-6.8,0-12.3,5.5-12.3,12.3c0,10.7,16.9,21.7,21,24.1c0.6,0.4,1.2,0.4,1.8,0C192.9,195.4,209.8,184.4,209.8,173.7z"/>
	<path class="st0" d="M190.5,176.6c0-1.4-1.2-2.6-2.6-2.6c-1.4,0-2.6,1.2-2.6,2.6c0,0.9,0.5,1.8,1.3,2.2l-2.1,5.9h6.8l-2.1-5.9
		C190,178.5,190.5,177.7,190.5,176.6z"/>
</g>
</svg>
