<?xml version="1.0" encoding="utf-8"?>
<!-- Generator: Adobe Illustrator 19.2.0, SVG Export Plug-In . SVG Version: 6.00 Build 0)  -->
<svg version="1.1" id="Layer_1" xmlns="http://www.w3.org/2000/svg" xmlns:xlink="http://www.w3.org/1999/xlink" x="0px" y="0px"
	 viewBox="0 0 360 208" style="enable-background:new 0 0 360 208;" xml:space="preserve">
<style type="text/css">
	.st0{fill:#313639;}
	.st1{opacity:0.38;fill:#FF707D;enable-background:new    ;}
	.st2{fill:#FF707D;}
	.st3{fill:#FFFFFF;}
</style>
<g>
	<path class="st0" d="M360,0v17.1C322.4,93,217.1,161.7,187.8,179.8c-4.7,2.9-10.7,2.9-15.4,0C142.9,161.7,37.6,93.3,0,17.2V0H360z"
		/>
	<circle class="st1" cx="83.5" cy="76.2" r="5.4"/>
	<circle class="st1" cx="221.2" cy="130.4" r="2.9"/>
	<circle class="st1" cx="150.6" cy="21.8" r="2.9"/>
	<circle class="st1" cx="283.3" cy="42.1" r="5.6"/>
	<path class="st2" d="M180.4,208L180.4,208c-20.7,0-37.5-16.8-37.5-37.5l0,0c0-20.7,16.8-37.5,37.5-37.5l0,0
		c20.7,0,37.5,16.8,37.5,37.5l0,0C217.9,191.2,201.2,208,180.4,208z"/>
	<path class="st3" d="M201.4,167.5c0-6.5-5.3-11.8-11.8-11.8c-3.6,0-6.9,1.7-9.1,4.3c-2.1-2.6-5.4-4.3-9.1-4.3
		c-6.5,0-11.8,5.3-11.8,11.8c0,10.2,16.2,20.8,20.1,23.2c0.6,0.3,1.1,0.3,1.7,0C185.2,188.3,201.4,177.8,201.4,167.5z"/>
	<path class="st0" d="M182.9,170.3c0-1.4-1.1-2.5-2.5-2.5c-1.4,0-2.5,1.1-2.5,2.5c0,0.9,0.4,1.7,1.2,2.1l-2,5.6h6.5l-2-5.6
		C182.4,172.1,182.9,171.3,182.9,170.3z"/>
</g>
</svg>
