<?xml version="1.0" encoding="utf-8"?>
<!-- Generator: Adobe Illustrator 19.2.0, SVG Export Plug-In . SVG Version: 6.00 Build 0)  -->
<svg version="1.1" id="Layer_1" xmlns="http://www.w3.org/2000/svg" xmlns:xlink="http://www.w3.org/1999/xlink" x="0px" y="0px"
	 viewBox="0 0 411 237" style="enable-background:new 0 0 411 237;" xml:space="preserve">
<style type="text/css">
	.st0{fill:#313639;}
	.st1{opacity:0.38;fill:#FF707D;enable-background:new    ;}
	.st2{fill:#FF707D;}
	.st3{fill:#FFFFFF;}
</style>
<g>
	<path class="st0" d="M411,0v18.9c-42.9,86.7-163.1,165-196.6,185.7c-5.4,3.3-12.2,3.3-17.6,0C163.1,184,42.9,105.9,0,19V0H411z"/>
	<circle class="st1" cx="95.3" cy="86.3" r="6.2"/>
	<circle class="st1" cx="252.5" cy="148.2" r="3.3"/>
	<circle class="st1" cx="172" cy="24.3" r="3.3"/>
	<circle class="st1" cx="323.4" cy="47.4" r="6.4"/>
	<path class="st2" d="M206,237L206,237c-23.6,0-42.8-19.1-42.8-42.8l0,0c0-23.6,19.1-42.8,42.8-42.8l0,0c23.6,0,42.8,19.1,42.8,42.8
		l0,0C248.8,217.9,229.6,237,206,237z"/>
	<path class="st3" d="M229.9,190.6c0-7.4-6-13.5-13.5-13.5c-4.1,0-7.8,1.9-10.4,4.9c-2.4-3-6.2-4.9-10.4-4.9
		c-7.4,0-13.5,6-13.5,13.5c0,11.7,18.5,23.8,23,26.5c0.6,0.4,1.3,0.4,1.9,0C211.4,214.4,229.9,202.3,229.9,190.6z"/>
	<path class="st0" d="M208.8,193.8c0-1.5-1.3-2.8-2.8-2.8s-2.8,1.3-2.8,2.8c0,1,0.5,1.9,1.4,2.4l-2.3,6.4h7.4l-2.3-6.4
		C208.2,195.9,208.8,195,208.8,193.8z"/>
</g>
</svg>
