<?xml version="1.0" standalone="no"?>
<!DOCTYPE svg PUBLIC "-//W3C//DTD SVG 20010904//EN"
 "http://www.w3.org/TR/2001/REC-SVG-20010904/DTD/svg10.dtd">
<svg version="1.0" xmlns="http://www.w3.org/2000/svg"
 width="700.000000pt" height="700.000000pt" viewBox="0 0 700.000000 700.000000"
 preserveAspectRatio="xMidYMid meet">
<metadata>
Created by potrace 1.11, written by Peter Selinger 2001-2013
</metadata>
<g transform="translate(0.000000,700.000000) scale(0.100000,-0.100000)"
fill="#000000" stroke="none">
<path d="M2177 6664 c-1 -1 -25 -6 -52 -10 -163 -21 -346 -93 -500 -196 -94
-62 -231 -194 -303 -291 -304 -409 -316 -983 -29 -1419 69 -106 36 -72 1331
-1374 l875 -879 1043 1042 c726 725 1057 1048 1088 1064 37 19 61 24 130 24
74 0 92 -4 139 -28 65 -33 95 -65 126 -132 42 -88 34 -197 -20 -280 -34 -52
-2486 -2500 -2505 -2500 -9 0 -2126 2110 -2458 2451 -150 153 -203 218 -280
340 -143 229 -236 497 -258 742 -3 37 -7 81 -9 97 -2 17 -4 33 -4 37 -1 5
-168 -162 -206 -206 -28 -32 -75 -96 -100 -136 -37 -58 -115 -216 -115 -233 0
-6 -6 -24 -14 -38 -7 -14 -17 -43 -21 -65 -5 -21 -9 -43 -11 -49 -2 -5 -6 -21
-10 -35 -13 -46 -16 -385 -5 -459 26 -170 118 -382 228 -531 34 -45 441 -458
1029 -1045 536 -533 1257 -1253 1604 -1599 l629 -630 1599 1600 c879 879 1619
1626 1644 1659 124 164 204 352 243 570 14 76 13 292 -2 386 -27 171 -97 347
-199 500 -66 101 -240 272 -344 341 -83 54 -209 118 -234 118 -6 0 -16 4 -21
9 -12 10 -116 37 -210 55 -74 13 -315 14 -400 2 -223 -33 -473 -153 -639 -305
-47 -44 -533 -525 -1049 -1038 l-387 -385 -373 370 c-204 204 -524 522 -710
706 -380 377 -381 379 -382 506 0 181 125 304 300 295 115 -6 119 -9 665 -555
l500 -500 525 524 c527 526 623 613 795 718 221 135 521 235 765 255 118 10
118 7 9 113 -115 113 -106 105 -174 157 -118 89 -271 162 -423 202 -279 74
-602 43 -855 -82 -155 -77 -237 -141 -450 -351 -101 -100 -187 -181 -192 -181
-4 0 -95 86 -202 190 -300 296 -472 395 -783 450 -60 11 -329 18 -338 9z"/>
</g>
</svg>
