<?xml version="1.0" encoding="utf-8"?>
<!-- Generator: Adobe Illustrator 17.1.0, SVG Export Plug-In . SVG Version: 6.00 Build 0)  -->
<!DOCTYPE svg PUBLIC "-//W3C//DTD SVG 1.1//EN" "http://www.w3.org/Graphics/SVG/1.1/DTD/svg11.dtd">
<svg version="1.1" id="Слой_1" xmlns="http://www.w3.org/2000/svg" xmlns:xlink="http://www.w3.org/1999/xlink" x="0px" y="0px"
	 viewBox="0 0 738.6 198.8" enable-background="new 0 0 738.6 198.8" xml:space="preserve">
<path fill-rule="evenodd" clip-rule="evenodd" fill="#433F40" d="M241.1,120.6L728.9,0l1,4L314.8,121.6L241.1,120.6L241.1,120.6z
	 M30,172.7l62.8-9.9l105.3-3.7L39.9,198.3C23,202.4,14.7,177.1,30,172.7L30,172.7z"/>
<path fill="#EF3F46" d="M551.9,106.5V33.6c0-11.2,3.9-16.8,11.8-16.8c7.9,0,11.8,5.6,11.8,16.8v22.6l30.2-31c5.4-5.6,9.7-8.4,13-8.4
	c3,0,5.7,1.1,8.1,3.3c2.4,2.2,3.6,4.8,3.6,7.8c0,2.2-1.1,4.6-3.4,7.3c-0.1,0.1-2.1,2.1-6,6l-23.8,23.7l31.7,35.8c4,4.5,6,8.4,6,11.7
	c0,2.8-1.1,5.4-3.3,7.6c-2.2,2.2-4.8,3.3-7.6,3.3c-3.8,0-8.1-2.8-12.8-8.3l-31.3-36.4l-4.1,3.4v24.5c0,11.2-3.9,16.8-11.8,16.8
	C555.8,123.3,551.9,117.7,551.9,106.5L551.9,106.5z"/>
<g>
	<path fill="#FFFFFF" d="M600.9,30.2l-3.8,4c7.7,2.4,15.2,5.2,22.7,8.2l1.2-1.2c0.8-0.8,1.5-1.5,2.1-2.1
		C615.8,35.8,608.4,32.8,600.9,30.2z"/>
	<path fill="#FFFFFF" d="M551.9,80.9v6.7c7.5-1.4,15.4-2,23.6-1.6V82l1.4-1.1C568.4,80,560,80,551.9,80.9z"/>
	<path fill="#FFFFFF" d="M575.1,27.9c-0.4-2.6-1.2-4.7-2.2-6.4c-4.8-1.2-9.7-2.4-14.7-3.4c-2,1.1-3.6,2.8-4.6,5.2
		C560.8,24.7,568,26.2,575.1,27.9z"/>
	<path fill="#FFFFFF" d="M575.5,106.5v-2.3c-7.9,0.3-15.8,0.9-23.6,1.8v0.5c0,1.4,0.1,2.8,0.2,4c7.7-1.1,15.5-1.9,23.4-2.4
		C575.5,107.6,575.5,107.1,575.5,106.5z"/>
	<path fill="#FFFFFF" d="M551.9,37.4v5.9c8,1.3,15.8,2.8,23.6,4.6v-5.4C567.8,40.5,559.9,38.8,551.9,37.4z"/>
	<path fill="#FFFFFF" d="M551.9,54.9V61c13.8,2.2,36.1,8.9,56.7,16.9l-6.9-7.8C584.4,63.4,566.5,58,551.9,54.9z"/>
	<path fill="#FFFFFF" d="M586.1,45.4l-4,4.1c7.9,2,15.7,4.4,23.4,7l3.4-3.4C601.4,50.2,593.8,47.7,586.1,45.4z"/>
	<path fill="#FFFFFF" d="M582.1,81.5l4.6,5.3c12.5,1.5,25.3,4.8,38.1,9.4l-2.4-2.7C609.1,87.5,595.5,83.4,582.1,81.5z"/>
	<path fill="#FFFFFF" d="M604.8,107.9c9.8,0.4,19.8,1.4,29.8,3c-0.1-0.8-0.4-1.6-0.7-2.5c-10.7-1.9-21.4-3.1-31.9-3.8L604.8,107.9z"
		/>
</g>
<path fill="none" d="M551.9,106.5V33.6c0-11.2,3.9-16.8,11.8-16.8c7.9,0,11.8,5.6,11.8,16.8v22.6l30.2-31c5.4-5.6,9.7-8.4,13-8.4
	c3,0,5.7,1.1,8.1,3.3c2.4,2.2,3.6,4.8,3.6,7.8c0,2.2-1.1,4.6-3.4,7.3c-0.1,0.1-2.1,2.1-6,6l-23.8,23.7l31.7,35.8c4,4.5,6,8.4,6,11.7
	c0,2.8-1.1,5.4-3.3,7.6c-2.2,2.2-4.8,3.3-7.6,3.3c-3.8,0-8.1-2.8-12.8-8.3l-31.3-36.4l-4.1,3.4v24.5c0,11.2-3.9,16.8-11.8,16.8
	C555.8,123.3,551.9,117.7,551.9,106.5L551.9,106.5z"/>
<path fill-rule="evenodd" clip-rule="evenodd" fill="#433F40" d="M9.6,127.8l725.1-2.3l0.1,4.2L13,154.9
	C-2.6,155.1-4.7,128.5,9.6,127.8L9.6,127.8z"/>
<circle fill-rule="evenodd" clip-rule="evenodd" fill="#FFFFFF" cx="684.3" cy="73.8" r="49.7"/>
<path fill-rule="evenodd" clip-rule="evenodd" fill="#433F40" d="M685.1,18.9c-29.5,0-53.4,23.9-53.4,53.4
	c0,29.5,23.9,53.4,53.4,53.4c29.5,0,53.4-23.9,53.4-53.4C738.6,42.9,714.6,18.9,685.1,18.9z M685.1,118.8
	c-25.6,0-46.4-20.8-46.4-46.4c0-25.6,20.8-46.4,46.4-46.4c25.6,0,46.4,20.8,46.4,46.4C731.6,98,710.8,118.8,685.1,118.8z"/>
<path fill-rule="evenodd" clip-rule="evenodd" fill="#EF3F46" d="M685.1,99.7c-15.1,0-27.4-12.3-27.4-27.4
	c0-15.1,12.3-27.4,27.4-27.4c15.1,0,27.4,12.3,27.4,27.4C712.5,87.5,700.3,99.7,685.1,99.7L685.1,99.7z"/>
<path fill="#433F40" d="M519.6,115.7c-3.5,3.2-8,4.8-13.5,4.8c-3.9,0-7.2-1.2-10-3.6c-2.8-2.5-4.3-5.7-4.3-9.6
	c0-5.6,3.3-9.9,9.8-13.1c-2.7-2.9-4.1-5.8-4.1-8.7c0-3.2,1.3-5.7,3.9-7.5c2.3-1.7,5.1-2.5,8.5-2.5c3.3,0,6.2,0.9,8.5,2.6
	c2.5,1.9,3.8,4.5,3.8,7.8c0,4.4-2.4,8-7.2,10.9l5.7,6.9c1.6-1.9,2.9-3.3,3.9-4.3c1-1,2.1-1.5,3.1-1.5c1,0,1.9,0.4,2.6,1.2
	c0.7,0.8,1,1.7,1,2.8c0,1.8-1.8,4.4-5.4,7.8c1.3,1.5,2.1,2.5,2.4,2.9c0.9,1.3,1.3,2.4,1.3,3.4c0,1.1-0.4,2.1-1.2,2.9
	c-0.8,0.8-1.7,1.2-2.9,1.2C524.2,120.1,522.2,118.6,519.6,115.7L519.6,115.7z M514.6,109.5l-7.8-9c-3.5,1.6-5.2,3.8-5.2,6.6
	c0,1.7,0.5,3,1.6,4c1.1,1,2.4,1.5,4.1,1.5C509.7,112.7,512.2,111.6,514.6,109.5L514.6,109.5z M509.9,91c3.1-1.3,4.7-3,4.7-5.1
	c0-1-0.4-1.9-1.3-2.6c-0.9-0.7-1.8-1.1-2.9-1.1c-1,0-1.9,0.3-2.7,1c-0.8,0.7-1.2,1.5-1.2,2.5C506.5,87.2,507.6,89,509.9,91L509.9,91
	z"/>
<path fill="#433F40" d="M239.2,175.9c0.6-0.8,1.1-1.6,1.5-2.4c0.4-0.8,0.6-1.7,0.8-2.8c0.2-1.1,0.3-2.5,0.3-4.2v-8.1h16.6v17.5h2.7
	v9.5h-4.7v-5.8h-14.8v5.8h-4.7v-9.5H239.2L239.2,175.9z M253.2,175.9v-13.7h-6.7v4.6c0,4.1-0.8,7.2-2.3,9.1H253.2L253.2,175.9z
	 M280.3,169c0-2.8,0.3-5,0.9-6.5c0.6-1.6,1.6-2.7,3-3.3c1.4-0.7,3.5-1,6.1-1c2.6,0,4.6,0.3,6.1,1c1.5,0.7,2.5,1.8,3.1,3.4
	c0.6,1.6,0.9,3.7,0.9,6.5c0,2.1-0.2,3.8-0.5,5.2c-0.3,1.4-0.9,2.5-1.6,3.4c-0.8,0.8-1.8,1.5-3.1,1.9c-1.3,0.4-2.9,0.6-4.9,0.6
	c-1.9,0-3.5-0.2-4.8-0.6c-1.3-0.4-2.3-1-3.1-1.9c-0.8-0.9-1.3-2-1.6-3.3C280.4,172.8,280.3,171.1,280.3,169L280.3,169z M285.5,169
	c0,2,0.1,3.5,0.4,4.5c0.3,1,0.8,1.7,1.5,2.1c0.7,0.4,1.6,0.6,2.9,0.6c1.3,0,2.3-0.2,3-0.5c0.7-0.4,1.2-1.1,1.5-2.1
	c0.3-1,0.5-2.5,0.5-4.5c0-1.5-0.1-2.7-0.3-3.6c-0.2-0.9-0.4-1.6-0.8-2.1c-0.4-0.5-0.9-0.8-1.5-1c-0.6-0.2-1.4-0.3-2.4-0.3
	c-1.3,0-2.2,0.2-2.9,0.5c-0.7,0.4-1.2,1-1.5,2C285.6,165.6,285.5,167,285.5,169L285.5,169z M335,171.6h5c0,1.5-0.2,2.8-0.5,3.9
	c-0.3,1.1-0.9,1.9-1.6,2.6c-0.7,0.7-1.7,1.1-2.9,1.5c-1.2,0.3-2.7,0.5-4.5,0.5c-2.5,0-4.4-0.3-5.8-1c-1.4-0.7-2.4-1.8-3-3.4
	c-0.6-1.6-0.9-3.8-0.9-6.5c0-2.8,0.3-5,0.9-6.6c0.6-1.6,1.6-2.7,3-3.4c1.4-0.7,3.3-1,5.8-1c1.8,0,3.5,0.2,4.8,0.6
	c1.4,0.4,2.5,1.1,3.3,2.1c0.8,1,1.2,2.5,1.2,4.3v0.8h-4.9v-0.3c0-1-0.1-1.8-0.4-2.3c-0.3-0.5-0.7-0.9-1.3-1
	c-0.6-0.2-1.5-0.3-2.7-0.3c-1.2,0-2.1,0.2-2.8,0.6c-0.7,0.4-1.1,1.1-1.4,2.1c-0.3,1-0.4,2.4-0.4,4.3c0,1.8,0.1,3.2,0.4,4.2
	c0.3,1,0.7,1.7,1.4,2.1c0.7,0.4,1.6,0.6,2.8,0.6c1.3,0,2.3-0.1,3-0.4c0.6-0.3,1.1-0.7,1.3-1.3C334.9,173.7,335,172.8,335,171.6
	L335,171.6z M366.1,179.6h5.1v-17.3h6.8v-3.9h-18.7v3.9h6.8V179.6L366.1,179.6z M412,179.6l0.4-2.9h-0.1c-0.4,1-1,1.7-1.6,2.1
	c-0.6,0.5-1.4,0.8-2.2,0.9c-0.8,0.1-1.9,0.2-3.2,0.2c-1.8,0-3.3-0.2-4.4-0.6c-1.1-0.4-2-1.1-2.5-2.1c-0.5-1-0.8-2.3-0.8-3.9
	c0-1.3,0.2-2.5,0.4-3.3c0.3-0.9,0.8-1.6,1.4-2.1c0.6-0.5,1.5-0.9,2.5-1.1c1-0.2,2.3-0.3,3.9-0.3c1.9,0,3.2,0.2,4,0.6
	c0.8,0.4,1.5,1.1,1.9,2.1h0.2v-3.6c0-1.2-0.1-2-0.4-2.7c-0.3-0.6-0.7-1-1.4-1.3c-0.7-0.2-1.6-0.3-2.8-0.3c-1.5,0-2.6,0.2-3.2,0.7
	c-0.6,0.4-0.9,1.3-0.9,2.5h-5.1c0-1.3,0.3-2.4,0.7-3.2c0.4-0.9,1.1-1.5,1.9-2c0.8-0.5,1.7-0.8,2.7-1c1-0.2,2.2-0.3,3.6-0.3
	c2.2,0,4,0.2,5.4,0.5c1.4,0.3,2.5,1.1,3.3,2.2c0.8,1.1,1.2,2.7,1.2,4.9v14H412L412,179.6z M412,173.3c0-1.2-0.4-2.1-1-2.5
	c-0.7-0.5-2-0.7-3.9-0.7c-1.1,0-2,0.1-2.6,0.3c-0.6,0.2-1.1,0.5-1.3,1c-0.3,0.5-0.4,1.1-0.4,1.9c0,1.2,0.3,2,1,2.5
	c0.6,0.5,1.7,0.7,3.3,0.7c1.8,0,3.1-0.2,3.9-0.7C411.6,175.4,412,174.5,412,173.3L412,173.3z M444.1,162.1v5h4.8
	c1.3,0,2.2-0.2,2.7-0.6c0.5-0.4,0.8-1,0.8-1.9c0-0.9-0.2-1.6-0.7-2c-0.5-0.4-1.2-0.6-2.4-0.6H444.1L444.1,162.1z M444.1,170.5v5.4
	h5.6c1.2,0,2-0.2,2.5-0.7c0.5-0.4,0.8-1.1,0.8-2.1c0-1.8-1-2.7-3-2.7H444.1L444.1,170.5z M439.1,179.6v-21.2h11.7
	c2.4,0,4.1,0.5,5.1,1.4c1,0.9,1.5,2.4,1.5,4.4c0,1.1-0.3,2-1,2.8c-0.7,0.8-1.6,1.3-2.8,1.6v0.1c1.3,0.3,2.4,0.8,3.2,1.7
	c0.8,0.8,1.2,2,1.2,3.4c0,1.4-0.2,2.5-0.6,3.3c-0.4,0.8-1.1,1.5-2,1.9c-1,0.4-2.3,0.6-3.9,0.6H439.1L439.1,179.6z M484,158.4v8.2
	h1.2l6-8.2h5.8l-7.6,10l9,11.3h-6.1l-7.1-9.5H484v9.5H479v-21.2H484L484,158.4z M532.1,179.6l0.4-2.9h-0.1c-0.4,1-1,1.7-1.6,2.1
	c-0.6,0.5-1.4,0.8-2.2,0.9c-0.8,0.1-1.9,0.2-3.2,0.2c-1.8,0-3.3-0.2-4.4-0.6c-1.1-0.4-2-1.1-2.5-2.1c-0.5-1-0.8-2.3-0.8-3.9
	c0-1.3,0.1-2.5,0.4-3.3c0.3-0.9,0.8-1.6,1.4-2.1c0.6-0.5,1.5-0.9,2.5-1.1c1-0.2,2.3-0.3,3.9-0.3c1.9,0,3.2,0.2,4,0.6
	c0.8,0.4,1.5,1.1,1.9,2.1h0.2v-3.6c0-1.2-0.1-2-0.4-2.7c-0.3-0.6-0.8-1-1.4-1.3c-0.7-0.2-1.6-0.3-2.8-0.3c-1.5,0-2.6,0.2-3.2,0.7
	c-0.6,0.4-0.9,1.3-0.9,2.5h-5.1c0-1.3,0.3-2.4,0.7-3.2c0.4-0.9,1.1-1.5,1.8-2c0.8-0.5,1.7-0.8,2.7-1c1-0.2,2.2-0.3,3.6-0.3
	c2.2,0,4,0.2,5.4,0.5c1.4,0.3,2.5,1.1,3.3,2.2c0.8,1.1,1.2,2.7,1.2,4.9v14H532.1L532.1,179.6z M532.1,173.3c0-1.2-0.3-2.1-1-2.5
	c-0.7-0.5-2-0.7-3.9-0.7c-1.1,0-2,0.1-2.6,0.3c-0.6,0.2-1.1,0.5-1.3,1c-0.3,0.5-0.4,1.1-0.4,1.9c0,1.2,0.3,2,1,2.5
	c0.6,0.5,1.7,0.7,3.3,0.7c1.8,0,3.1-0.2,3.9-0.7C531.7,175.4,532.1,174.5,532.1,173.3L532.1,173.3z M594.3,171.6h5
	c0,1.5-0.2,2.8-0.5,3.9c-0.3,1.1-0.9,1.9-1.6,2.6c-0.7,0.7-1.7,1.1-2.9,1.5c-1.2,0.3-2.7,0.5-4.5,0.5c-2.5,0-4.4-0.3-5.8-1
	c-1.4-0.7-2.4-1.8-3-3.4c-0.6-1.6-0.9-3.8-0.9-6.5c0-2.8,0.3-5,0.9-6.6c0.6-1.6,1.6-2.7,3-3.4c1.4-0.7,3.3-1,5.8-1
	c1.8,0,3.5,0.2,4.8,0.6c1.4,0.4,2.5,1.1,3.3,2.1c0.8,1,1.2,2.5,1.2,4.3v0.8h-4.9v-0.3c0-1-0.1-1.8-0.4-2.3c-0.3-0.5-0.7-0.9-1.3-1
	c-0.6-0.2-1.5-0.3-2.7-0.3c-1.2,0-2.1,0.2-2.8,0.6c-0.7,0.4-1.1,1.1-1.4,2.1c-0.3,1-0.4,2.4-0.4,4.3c0,1.8,0.1,3.2,0.4,4.2
	c0.3,1,0.7,1.7,1.4,2.1c0.7,0.4,1.6,0.6,2.8,0.6c1.3,0,2.3-0.1,3-0.4c0.6-0.3,1.1-0.7,1.3-1.3C594.2,173.7,594.3,172.8,594.3,171.6
	L594.3,171.6z M638.3,158.4l-5.7,22.5c-0.3,1.3-0.7,2.5-1,3.4c-0.4,1-0.8,1.8-1.4,2.5c-0.6,0.7-1.3,1.3-2.3,1.7
	c-0.9,0.4-2.1,0.6-3.4,0.6c-0.9,0-1.6-0.1-2.1-0.2v-3.7c0.4,0.1,0.8,0.1,1.2,0.1c1.3,0,2.2-0.5,2.7-1.4c0.6-0.9,1.1-2.4,1.5-4.4
	h-2.7l-7-21.2h5.4l5.3,18l4.1-18H638.3L638.3,158.4z M663.2,158.4v17.3h7.5v-17.3h5.1v17.3h7.5v-17.3h5.1v21.2h-30.3v-21.2H663.2
	L663.2,158.4z M710.4,158.4v21.2h6.2l6.9-13.2c0.3-0.6,1.1-2.2,2.3-4.8c-0.2,0.6-0.4,1.5-0.7,2.9c-0.2,1.4-0.3,2.5-0.3,3.3v11.7h4.8
	v-21.2h-6.2l-6.9,13.3c-0.5,0.8-1.2,2.4-2.3,4.8c0.2-0.6,0.4-1.5,0.7-2.6c0.2-1.2,0.3-2.2,0.3-3.1v-12.4H710.4L710.4,158.4z"/>
<path fill="#EF3F46" d="M104.6,126.3c-15.7,0-28.3-5.2-37.6-15.7c-9-10-13.4-23-13.4-38.9c0-15.5,4.6-28.5,13.9-38.9
	c9.5-10.8,22-16.2,37.5-16.2c5.5,0,10.8,0.8,15.7,2.3c6.2,1.9,10.6,4.6,13.3,8.2c1.5,2,2.3,4.1,2.3,6.2c0,2.8-1,5.2-3,7.4
	c-2,2.1-4.4,3.2-7.2,3.2c-2.6,0-5.7-0.7-9.3-2.1c-3.6-1.4-7.5-2.1-11.7-2.1c-8.6,0-15.2,3.4-19.7,10.3c-4,5.9-6,13.4-6,22.5
	c0,8.9,2.1,16.1,6.4,21.7c4.7,6.3,11.3,9.4,20,9.4c3.8,0,8.1-0.9,12.7-2.6c4.7-1.7,7.8-2.6,9.4-2.6c2.7,0,4.9,1.1,6.8,3.2
	c1.9,2.1,2.8,4.6,2.8,7.2c0,2.3-0.8,4.5-2.3,6.6C129.9,122.6,119.7,126.3,104.6,126.3L104.6,126.3z"/>
<path fill="#EF3F46" d="M174.3,144.3c-7.1,0-10.6-3.8-10.6-11.3c0-2.5,0.4-4.8,1.3-6.8l6.7-16.8l-29.5-72.9
	c-0.9-2.1-1.3-4.3-1.3-6.7c0-3.5,1-6.4,3-8.6c2-2.2,4.8-3.3,8.3-3.3c4.5,0,8.1,3.4,10.9,10.3l20.5,50.6l0.5,0l18.8-49.8
	c1.4-3.7,2.8-6.3,4-7.7c1.9-2.3,4.5-3.4,7.7-3.4c7.3,0,11,3.7,11,11c0,2.8-0.5,5.5-1.6,8.2l-38,97.5c-1.3,3.3-2.7,5.7-4.1,7.2
	C180.1,143.5,177.5,144.3,174.3,144.3L174.3,144.3z"/>
<g>
	<path fill="#FFFFFF" d="M225.6,29.7c0-0.3,0-0.5,0-0.8c0-2.2-0.4-4-1-5.6c-7.1,1.5-14.2,3-21.2,4.5c-0.2,0.4-0.3,0.8-0.5,1.2
		l-2.1,5.7C209,33.1,217.2,31.4,225.6,29.7z"/>
	<path fill="#FFFFFF" d="M164.2,137.4c0.4,1.5,1,2.7,1.8,3.7c6.4-1.9,13-3.8,19.5-5.6c0.1-0.3,0.3-0.6,0.4-0.9l1.6-4.1
		C179.7,132.8,171.9,135.1,164.2,137.4z"/>
	<path fill="#FFFFFF" d="M170.5,112.4l-2.2,5.5c8.9-2.5,17.9-5,27.1-7.3l2.2-5.7C188.5,107.3,179.4,109.8,170.5,112.4z"/>
	<path fill="#FFFFFF" d="M219.9,47.8l3.1-8c-8.8,1.9-17.6,4-26.5,6.1l-2.9,7.6C202.4,51.5,211.2,49.6,219.9,47.8z"/>
	<path fill="#FFFFFF" d="M175.1,57.8l-2.4-6c-7.3,1.9-14.6,3.8-21.9,5.8l2.3,5.6C160.3,61.4,167.7,59.6,175.1,57.8z"/>
	<path fill="#FFFFFF" d="M178.3,65.7c-7.3,2-14.5,4.1-21.7,6.2l2.4,6c7.3-1.8,14.7-3.5,22.1-5.3L178.3,65.7z"/>
	<path fill="#FFFFFF" d="M204.2,88l1.4-3.7c-13.7,2.7-27.3,5.5-40.7,8.2l1.2,3C178.6,93.1,191.3,90.6,204.2,88z"/>
	<path fill="#FFFFFF" d="M168.5,41.6l-2.2-5.4c-7.4,1.7-14.8,3.5-22.1,5.3l2.1,5.1C153.7,44.9,161.1,43.2,168.5,41.6z"/>
	<path fill="#FFFFFF" d="M212.9,65.6l3.8-9.8c-8.9,2.1-17.7,4.4-26.5,6.7l-3.4,8.9C195.5,69.4,204.2,67.5,212.9,65.6z"/>
</g>
<path fill="#EF3F46" d="M334.1,103.9V34.9c0-11.3,4-16.9,11.9-16.9c7.9,0,11.9,5.6,11.9,16.9v71.9c0,11.3-5.4,16.9-16.3,16.9h-91.5
	c-10.9,0-16.3-5.6-16.3-16.9V34.9c0-11.3,4-16.9,11.9-16.9c7.9,0,11.9,5.6,11.9,16.9v68.9h27.7V34.9c0-5.1,0.5-8.9,1.6-11.3
	c1.6-3.7,4.6-5.6,9-5.6s7.4,1.9,9,5.6c1,2.4,1.6,6.2,1.6,11.3v68.9H334.1L334.1,103.9z"/>
<g>
	<path fill="#FFFFFF" d="M305.6,26.6c-0.2-1.1-0.5-2.2-0.9-3c-6.2,1.1-12.6,2.2-19,3.4c-0.3,1.7-0.5,3.8-0.6,6.2L305.6,26.6z"/>
	<path fill="#FFFFFF" d="M306.3,86.2v-6c-7.1,1.4-14.2,2.8-21.2,4.2v5.9C292.1,88.9,299.2,87.5,306.3,86.2z"/>
	<path fill="#FFFFFF" d="M334.1,43.5c8-1.2,15.9-2.2,23.7-3.3v-5.4c0-1.7-0.1-3.3-0.3-4.8c-7.8,1-15.6,2-23.3,3.1
		c0,0.6-0.1,1.1-0.1,1.7V43.5z"/>
	<path fill="#FFFFFF" d="M306.3,103.9v-1.6c-24,4.7-47.3,9.9-70,15.4c1.1,1.6,2.4,2.9,4.1,3.9c28-6.5,57.1-12.4,87.1-17.7H306.3z"/>
	<path fill="#FFFFFF" d="M285.1,69.1v3.7c7.1-1.3,14.1-2.5,21.2-3.8v-3.8C299.3,66.5,292.2,67.8,285.1,69.1z"/>
	<path fill="#FFFFFF" d="M306.8,123.7h28.4c5.9-1.2,11.8-2.3,17.6-3.5c2-1.7,3.4-4,4.2-6.9C340.3,116.6,323.5,120.1,306.8,123.7z"/>
	<path fill="#FFFFFF" d="M306.3,47.8V37.5c-7.1,1.2-14.1,2.4-21.2,3.7v10.2C292.2,50.2,299.3,49,306.3,47.8z"/>
	<path fill="#FFFFFF" d="M357.8,56.3c-7.9,1.3-15.8,2.6-23.7,4v3.9c8-1.3,15.9-2.7,23.7-3.9V56.3z"/>
	<path fill="#FFFFFF" d="M257.4,96v-5.7c-8,1.8-15.9,3.6-23.7,5.5v5.5C241.5,99.5,249.4,97.7,257.4,96z"/>
	<path fill="#FFFFFF" d="M257.4,40.1v-5.2c0-0.8-0.1-1.6-0.1-2.3c-7.8,1.6-15.7,3.2-23.6,4.9v7.4C241.7,43.2,249.6,41.7,257.4,40.1z
		"/>
	<path fill="#FFFFFF" d="M334.1,75v6.2c7.9-1.4,15.8-2.7,23.7-4v-6.3C349.8,72.2,341.9,73.6,334.1,75z"/>
	<path fill="#FFFFFF" d="M334.1,97v5.7c7.9-1.4,15.8-2.7,23.7-4v-5.8C349.8,94.2,341.9,95.6,334.1,97z"/>
	<path fill="#FFFFFF" d="M257.4,46.6c-7.9,1.6-15.8,3.4-23.7,5.2v9.4c7.9-1.6,15.8-3.2,23.7-4.7V46.6z"/>
	<path fill="#FFFFFF" d="M257.4,77.9v-3.6c-7.9,1.5-15.9,3-23.7,4.6v3.5C241.5,80.8,249.5,79.4,257.4,77.9z"/>
</g>
<path fill="#EF3F46" d="M443.9,60.1L400.8,117c-4,5.3-8.6,8-13.7,8c-7.1,0-10.7-4.7-10.7-14.2V34.9c0-11.3,4-16.9,11.9-16.9
	c7.9,0,11.9,5.6,11.9,16.9v48.9l43.9-58c3.9-5.1,8.1-7.7,12.6-7.7c7.3,0,11,5.3,11,16v74.1c0,11.3-4,16.9-11.9,16.9
	c-7.9,0-11.9-5.6-11.9-16.9V60.1L443.9,60.1z"/>
<g>
	<path fill="#FFFFFF" d="M400.1,34.9c0-3.7-0.5-6.7-1.3-9.1c-7.2,0.6-14.5,1.3-21.8,2.1c-0.4,2-0.7,4.4-0.7,7V38
		c8-0.9,15.9-1.7,23.7-2.5V34.9z"/>
	<path fill="#FFFFFF" d="M467.6,45v-4.8c-12.6,1.5-25.4,3.2-38.4,5.1l-3.7,4.9C440,48.3,454,46.5,467.6,45z"/>
	<path fill="#FFFFFF" d="M411,103.6c-11.2,1.9-22.8,3.9-34.6,6.1v1.2c0,1.8,0.2,3.4,0.4,4.9c10-1.8,19.7-3.5,28.7-5L411,103.6z"/>
	<path fill="#FFFFFF" d="M467.5,31.7c-0.2-4.2-1.1-7.4-2.7-9.7c-6,0.2-12,0.4-18.1,0.7c-0.9,0.9-1.8,1.9-2.7,3.1l-5.2,6.9
		C448.7,32.1,458.3,31.8,467.5,31.7z"/>
	<path fill="#FFFFFF" d="M400.1,53.8v-4.2c-7.9,1.2-15.8,2.4-23.7,3.7v4C384.4,56.1,392.3,54.9,400.1,53.8z"/>
	<path fill="#FFFFFF" d="M416.8,61.8l-5.7,7.5c9.5-1.3,19.1-2.6,28.7-3.8l4-5.3v4.8c7.9-1,15.8-2,23.7-2.9v-7
		C450.5,57.1,433.5,59.4,416.8,61.8z"/>
	<path fill="#FFFFFF" d="M443.9,79.9v6.4c7.9-1,15.8-2,23.7-2.9v-6.5C459.7,77.9,451.8,78.9,443.9,79.9z"/>
	<path fill="#FFFFFF" d="M400.1,70.8v-6.6c-8,1.2-15.9,2.4-23.7,3.7v6.5C384.2,73.1,392.2,72,400.1,70.8z"/>
	<path fill="#FFFFFF" d="M467.6,99.6v-4.3c-7.4,0.9-15.4,2-23.7,3.2v6.7c2.1-0.3,4.2-0.5,6.2-0.7L467.6,99.6z"/>
	<path fill="#FFFFFF" d="M421.9,89.2l5.3-7c-17.2,2.4-34.1,4.9-50.8,7.6v6C391.4,93.5,406.5,91.3,421.9,89.2z"/>
</g>
<g>
	<defs>
		<path id="SVGID_1_" d="M104.6,126.3c-15.7,0-28.3-5.2-37.6-15.7c-9-10-13.4-23-13.4-38.9c0-15.5,4.6-28.5,13.9-38.9
			c9.5-10.8,22-16.2,37.5-16.2c5.5,0,10.8,0.8,15.7,2.3c6.2,1.9,10.6,4.6,13.3,8.2c1.5,2,2.3,4.1,2.3,6.2c0,2.8-1,5.2-3,7.4
			c-2,2.1-4.4,3.2-7.2,3.2c-2.6,0-5.7-0.7-9.3-2.1c-3.6-1.4-7.5-2.1-11.7-2.1c-8.6,0-15.2,3.4-19.7,10.3c-4,5.9-6,13.4-6,22.5
			c0,8.9,2.1,16.1,6.4,21.7c4.7,6.3,11.3,9.4,20,9.4c3.8,0,8.1-0.9,12.7-2.6c4.7-1.7,7.8-2.6,9.4-2.6c2.7,0,4.9,1.1,6.8,3.2
			c1.9,2.1,2.8,4.6,2.8,7.2c0,2.3-0.8,4.5-2.3,6.6C129.9,122.6,119.7,126.3,104.6,126.3L104.6,126.3z M174.3,144.3
			c-7.1,0-10.6-3.8-10.6-11.3c0-2.5,0.4-4.8,1.3-6.8l6.7-16.8l-29.5-72.9c-0.9-2.1-1.3-4.3-1.3-6.7c0-3.5,1-6.4,3-8.6
			c2-2.2,4.8-3.3,8.3-3.3c4.5,0,8.1,3.4,10.9,10.3l20.5,50.6l0.5,0l18.8-49.8c1.4-3.7,2.8-6.3,4-7.7c1.9-2.3,4.5-3.4,7.7-3.4
			c7.3,0,11,3.7,11,11c0,2.8-0.5,5.5-1.6,8.2l-38,97.5c-1.3,3.3-2.7,5.7-4.1,7.2C180.1,143.5,177.5,144.3,174.3,144.3L174.3,144.3z
			 M334.1,103.9V34.9c0-11.3,4-16.9,11.9-16.9c7.9,0,11.9,5.6,11.9,16.9v71.9c0,11.3-5.4,16.9-16.3,16.9h-91.5
			c-10.9,0-16.3-5.6-16.3-16.9V34.9c0-11.3,4-16.9,11.9-16.9c7.9,0,11.9,5.6,11.9,16.9v68.9h27.7V34.9c0-5.1,0.5-8.9,1.6-11.3
			c1.6-3.7,4.6-5.6,9-5.6s7.4,1.9,9,5.6c1,2.4,1.6,6.2,1.6,11.3v68.9H334.1L334.1,103.9z M443.9,60.1L400.8,117c-4,5.3-8.6,8-13.7,8
			c-7.1,0-10.7-4.7-10.7-14.2V34.9c0-11.3,4-16.9,11.9-16.9c7.9,0,11.9,5.6,11.9,16.9v48.9l43.9-58c3.9-5.1,8.1-7.7,12.6-7.7
			c7.3,0,11,5.3,11,16v74.1c0,11.3-4,16.9-11.9,16.9c-7.9,0-11.9-5.6-11.9-16.9V60.1L443.9,60.1z"/>
	</defs>
	<clipPath id="SVGID_2_">
		<use xlink:href="#SVGID_1_"  overflow="visible"/>
	</clipPath>
</g>
<g>
	<path fill="#FFFFFF" d="M80.1,63.2c0.3-1.8,0.7-3.5,1.3-5.1c-9.3,2.7-18.5,5.4-27.6,8.2c-0.1,1.5-0.2,3-0.2,4.5
		C62.4,68.1,71.2,65.6,80.1,63.2z"/>
	<path fill="#FFFFFF" d="M80.9,84.1c-0.4-1.4-0.7-2.9-1-4.5c-8.4,3-16.5,6-24.3,9.2c0.4,1.4,0.8,2.8,1.2,4.2
		C64.3,90,72.3,87,80.9,84.1z"/>
	<path fill="#FFFFFF" d="M62.9,38.7c-1.3,2-2.6,4.1-3.6,6.2c23-7.4,46.7-14.5,71-21.4c-1.9-1.4-4.1-2.6-6.7-3.6
		C102.9,26,82.6,32.3,62.9,38.7z"/>
	<path fill="#FFFFFF" d="M88,96.6c-0.7-0.7-1.3-1.4-1.9-2.2l-9.4,3.1l-15.1,5.6c0.2,0.4,0.5,0.7,0.7,1C70.6,101.6,79.2,99.1,88,96.6
		z"/>
	<path fill="#FFFFFF" d="M71.5,115c20.1-4.2,41.4-8.6,63.5-13.1c-0.1-0.1-0.2-0.3-0.3-0.4c-0.8-0.9-1.7-1.6-2.6-2.1
		c-21.7,4.6-42.7,9.1-62.9,13.5C70,113.6,70.8,114.3,71.5,115z"/>
</g>
</svg>
