<?xml version="1.0" encoding="utf-8"?>
<!-- Generator: Adobe Illustrator 19.2.0, SVG Export Plug-In . SVG Version: 6.00 Build 0)  -->
<svg version="1.1" id="Layer_1" xmlns="http://www.w3.org/2000/svg" xmlns:xlink="http://www.w3.org/1999/xlink" x="0px" y="0px"
	 viewBox="0 0 2001.7 379.2" style="enable-background:new 0 0 2001.7 379.2;" xml:space="preserve">
<style type="text/css">
	.st0{fill:#FFFFFF;}
	.st1{fill:url(#SVGID_1_);}
	.st2{fill:#E0C5DF;}
	.st3{fill:#6ACBDF;}
</style>
<g>
	<g>
		<path class="st0" d="M375.9,146.3C356.3,62.5,281.1,0,191.2,0C86.5,0,1.7,84.9,1.7,189.6c0,85.4,56.5,157.6,134.1,181.3
			c17.5,5.4,36.2,8.3,55.5,8.3h189.6V189.6C380.8,174.7,379.1,160.2,375.9,146.3z M42.8,203l0.1-23.1l0-0.3l-0.1-2.6
			c0-1.8,0-3.7,0.1-5.5v-0.1c0-0.1,0-0.1,0-0.1v-0.4h0c3.4-74.8,69.2-134.7,149.6-134.7c33.8,0,66.9,10.9,93.3,30.7
			c22.5,16.9,39.5,39.7,48.6,65.2h-34.7c-18.7-38.4-60-63.7-107.2-63.7c-62.7,0-114,45.5-117.5,102.6h249.8
			c9.6,0,17.4,7.8,17.4,17.4v154.6H192.6c-14.8,0-29.5-2-43.5-6c-44.4-12.7-80.6-44.6-96.8-85.5h35.4c14.3,26,39.8,46,70.2,54.6
			c11.2,3.2,22.9,4.8,34.8,4.8h117.7V203H42.8z"/>
		<linearGradient id="SVGID_1_" gradientUnits="userSpaceOnUse" x1="191.2351" y1="-95.1936" x2="191.2351" y2="480.9705">
			<stop  offset="0" style="stop-color:#FFFFFF"/>
			<stop  offset="0.5" style="stop-color:#6ACBDF"/>
			<stop  offset="1" style="stop-color:#6ACBDF"/>
		</linearGradient>
		<path class="st1" d="M375,146.5C355.5,63.1,280.6,0.9,191.2,0.9C87,0.9,2.6,85.4,2.6,189.6c0,85,56.2,156.9,133.4,180.5
			c17.5,5.3,36,8.2,55.2,8.2h188.7V189.6C379.9,174.8,378.2,160.4,375,146.5z M342.3,342.9H192.6c-14.8,0-29.5-2-43.5-6
			c-44.4-12.7-80.6-44.6-96.8-85.5h35.4c14.3,26,39.8,46,70.2,54.6c11.2,3.2,22.9,4.8,34.8,4.8h117.7V203H42.8l0.1-23.1l0-0.3
			l-0.1-2.6c0-1.8,0-3.7,0.1-5.5v-0.1c0-0.1,0-0.1,0-0.1v-0.4h0c3.4-74.8,69.2-134.7,149.6-134.7c33.8,0,66.9,10.9,93.3,30.7
			c22.5,16.9,39.5,39.7,48.6,65.2h-34.7c-18.7-38.4-60-63.7-107.2-63.7c-62.7,0-114,45.5-117.5,102.6h249.8
			c9.6,0,17.4,7.8,17.4,17.4V342.9z"/>
	</g>
	<g>
		<g>
			<path class="st2" d="M546.5,286c-29.3,0-62.3-16.7-65.6-47.8l-0.8-5.4l11.5-1.4l0.8,5.4c2.6,24.5,29.9,37.9,54.3,37.9
				c19.4,0,37.6-7.7,47.6-20c7.4-9.1,9.8-19.9,7.3-32.2c-4.9-22.7-28.7-25.1-53.9-27.7c-27.9-2.8-62.6-6.3-65.3-45.4
				c-1.2-12.1,2.1-23.4,9.3-32.9c11.6-15,32.3-23.9,55.4-23.9c26.6,0,55.8,13.1,61.4,42.5l0.8,5.9l-11.2,2.2l-0.8-6.3l-0.1-0.2
				c-1.4-6.5-4.4-12.3-8.9-17.3c-9.1-9.7-24.6-15.4-41.5-15.4l-1.2,0c-14.7,0.2-34.1,5.4-44.7,19.3c-5.7,7-8.1,15.3-7.3,25.3
				c2.2,29.6,26.9,32,55.6,34.9c28,2.8,57.1,5.6,63.7,36.7c3.3,15.4,0.1,29.6-9.3,41.2C591.5,276.5,569.6,286,546.5,286z"/>
		</g>
		<g>
			<path class="st2" d="M727.7,286.7c-25.7,0-50.5-10.5-68.2-28.7c-18.3-18.6-28.4-42.9-28.4-68.6c0-25.7,10.1-50.1,28.4-68.7
				c17.7-18.2,42.5-28.7,68.2-28.7c25.9,0,50.2,10.2,68.4,28.7c18.3,18.6,28.4,43,28.4,68.7c0,25.7-10.1,50.1-28.4,68.7
				C778,276.6,753.6,286.7,727.7,286.7z M727.7,103.7c-22.6,0-43.9,9-60,25.4c-16.1,16.3-24.9,37.8-24.9,60.3
				c0,22.5,8.9,44,24.9,60.3c16.1,16.4,37.4,25.4,60,25.4c22.7,0,44.2-9,60.3-25.4c15.9-16.2,24.7-37.6,24.7-60.3
				c0-22.7-8.8-44.2-24.7-60.3C771.9,112.7,750.5,103.7,727.7,103.7z"/>
		</g>
		<g>
			<path class="st2" d="M935.1,286.5c-25.4,0-49.2-10.1-67.1-28.5c-17.8-18.4-27.7-42.7-27.7-68.3c0-25.4,9.8-49.6,27.7-68
				c17.8-18.4,41.6-28.5,67.1-28.5c25.4,0,49.2,10.1,67,28.5c8.5,8.8,15.4,19.2,19.9,30.2l2.2,5.2h-12.7l-1-2.3
				c-3.9-9-9.5-17.4-16.8-24.9c-15.5-16.1-36.4-24.9-58.7-24.9c-22.3,0-43.2,8.8-58.7,24.9c-15.8,16.3-24.5,37.5-24.5,59.8
				c0,22.5,8.7,43.8,24.4,59.8c15.7,16.2,36.6,25.2,58.7,25.2c22.1,0,43-8.9,58.7-25.2c7.4-7.6,13-15.9,16.8-24.7l1-2.3h12.7
				l-2.2,5.2c-4.5,11-11.4,21.4-19.9,30.2C984.3,276.4,960.5,286.5,935.1,286.5z"/>
		</g>
	</g>
	<g>
		<path class="st3" d="M1143.9,229.5h-68.4c-7.4,17.4-16.9,40.3-22.9,56.1h-29.7l76.6-193.2h20.2l76.6,193.2h-29.4L1143.9,229.5z
			 M1085.9,203.6h47.4l-23.4-67.3L1085.9,203.6z"/>
		<path class="st3" d="M1285.6,95.1c62.4,0,93.7,47.7,93.7,95.4c0,47.7-31.3,95.1-93.7,95.1h-68.4V95.1H1285.6z M1285.6,258.1
			c44.1,0,66.5-33.8,66.5-67.6c0-33.8-22.3-67.8-66.5-67.8h-40.9v135.4H1285.6z"/>
		<path class="st3" d="M1525.9,95.1h29.4l-76.6,191h-20.2l-76.6-191h30l56.7,142.5L1525.9,95.1z"/>
		<path class="st3" d="M1600.3,258.1h88.6v27.5h-116.4V95.1h116.1v27.5h-88.3v53.7h86.4v27.8h-86.4V258.1z"/>
		<path class="st3" d="M1750.7,188.9h32.2c23.2,0,34.6-16.6,34.6-33.2c0-16.4-11.4-33-34.6-33h-42.2v162.9h-27.2V94.9h69.5
			c41.4,0,62.1,30.5,62.1,60.8c0,27-16.6,52.6-49.3,58.3l60.2,71.7h-35.7l-69.5-83.7V188.9z"/>
		<path class="st3" d="M1916.6,286.4V122.7h-57.8V94.9h142.8v27.8h-57.5v163.8H1916.6z"/>
	</g>
</g>
</svg>
