<?xml version="1.0" encoding="utf-8"?>
<!-- Generator: Adobe Illustrator 17.1.0, SVG Export Plug-In . SVG Version: 6.00 Build 0)  -->
<!DOCTYPE svg PUBLIC "-//W3C//DTD SVG 1.1//EN" "http://www.w3.org/Graphics/SVG/1.1/DTD/svg11.dtd">
<svg version="1.1" id="Layer_12" xmlns="http://www.w3.org/2000/svg" xmlns:xlink="http://www.w3.org/1999/xlink" x="0px" y="0px"
	 viewBox="0 0 64 7.5" enable-background="new 0 0 64 7.5" xml:space="preserve">
<path fill-rule="evenodd" clip-rule="evenodd" fill="#296BB2" d="M19.4,5.9C19.4,5.9,19.4,5.9,19.4,5.9c0,0-0.1,0.1-0.2,0.1
	c-0.1,0-0.3,0-0.4,0h-2.6V4.5h2.2c0.2,0,0.4,0,0.6,0.1c0.1,0,0.2,0.1,0.3,0.1c0.1,0.1,0.1,0.2,0.2,0.3c0,0.1,0.1,0.2,0.1,0.4
	C19.6,5.7,19.5,5.8,19.4,5.9L19.4,5.9z M18.9,0H16c-0.1,0-0.2,0-0.3,0c-0.1,0-0.3,0-0.5,0.2c-0.1,0.1-0.3,0.2-0.3,0.4
	c-0.1,0.2-0.1,0.4-0.1,0.5c0,0.1,0,0.3,0,0.4V6c0,0.2,0,0.3,0,0.5c0,0.1,0,0.3,0.2,0.5c0.1,0.1,0.2,0.3,0.4,0.3
	c0.2,0.1,0.4,0.1,0.5,0.1c0.1,0,0.3,0,0.4,0h2.6c0.3,0,0.6,0,1-0.1c0.2-0.1,0.4-0.1,0.5-0.3c0.2-0.1,0.3-0.3,0.5-0.5
	C20.9,6.3,21,5.9,21,5.4c0-0.4-0.1-0.7-0.2-1c-0.1-0.2-0.2-0.4-0.4-0.6c0.1-0.2,0.3-0.3,0.4-0.6C21,2.9,21,2.6,21,2.2
	c0-0.5-0.1-0.9-0.3-1.3c-0.1-0.2-0.3-0.4-0.5-0.5c-0.3-0.2-0.5-0.3-0.8-0.3C19.3,0.1,19.1,0,18.9,0L18.9,0z M18.8,1.5
	c0.2,0,0.4,0,0.5,0.1c0.1,0,0.1,0,0.1,0c0,0,0,0,0,0c0,0.1,0.1,0.2,0.1,0.5c0,0.2,0,0.3-0.1,0.4c0,0.1-0.1,0.2-0.2,0.3
	C19.2,2.9,19.1,2.9,19,3C18.8,3,18.7,3,18.4,3h-2.2V1.5H18.8z"/>
<path fill-rule="evenodd" clip-rule="evenodd" fill="#296BB2" d="M11.9,5.9c0,0,0,0.1-0.1,0.1C11.7,6,11.6,6,11.5,6H9.3
	C9.2,6,9.1,6,9,5.9c-0.1,0-0.1-0.1-0.1-0.1c-0.1-0.3-0.3-1-0.3-2.1c0-1.1,0.2-1.7,0.3-2.1c0,0,0-0.1,0.1-0.1c0.1,0,0.2-0.1,0.3-0.1
	h2.1c0.1,0,0.3,0,0.3,0.1c0.1,0,0.1,0.1,0.1,0.1c0.1,0.3,0.3,1,0.3,2.1C12.2,4.9,12.1,5.5,11.9,5.9L11.9,5.9z M11.6,0H9.3
	C9,0.1,8.6,0.1,8.3,0.3C8,0.4,7.7,0.7,7.5,1.1C7.3,1.7,7.1,2.5,7.1,3.8c0,1.2,0.2,2.1,0.4,2.6C7.7,6.8,8,7.1,8.3,7.3
	c0.3,0.2,0.7,0.2,1,0.2h2.1c0.3,0,0.7-0.1,1-0.2c0.3-0.2,0.6-0.5,0.8-0.9c0.2-0.6,0.4-1.4,0.4-2.6c0-1.2-0.2-2.1-0.4-2.6
	c-0.2-0.4-0.5-0.7-0.8-0.9C12.2,0.1,11.9,0.1,11.6,0z"/>
<path fill-rule="evenodd" clip-rule="evenodd" fill="#296BB2" d="M26.8,5.8c0,0,0,0.1-0.1,0.1C26.6,6,26.5,6,26.3,6h-2.1
	c-0.1,0-0.3,0-0.3-0.1c-0.1,0-0.1-0.1-0.1-0.1c-0.1-0.3-0.3-1-0.3-2.1c0-1.1,0.2-1.7,0.3-2.1c0,0,0-0.1,0.1-0.1
	c0.1,0,0.2-0.1,0.3-0.1h2.1c0.1,0,0.3,0,0.3,0.1c0.1,0,0.1,0.1,0.1,0.1c0.1,0.3,0.3,1,0.3,2.1C27.1,4.8,26.9,5.5,26.8,5.8L26.8,5.8z
	 M26.4,0h-2.3c-0.3,0-0.6,0.1-0.9,0.2c-0.3,0.2-0.6,0.5-0.8,0.9c-0.2,0.6-0.4,1.4-0.4,2.6c0,1.2,0.2,2.1,0.4,2.6
	c0.2,0.4,0.5,0.7,0.8,0.9c0.3,0.2,0.7,0.2,1,0.2h2.1c0.3,0,0.7-0.1,1-0.2c0.3-0.2,0.6-0.5,0.8-0.9c0.2-0.6,0.4-1.4,0.4-2.6
	c0-1.2-0.2-2.1-0.4-2.6c-0.2-0.4-0.5-0.7-0.8-0.9C27,0.1,26.7,0,26.4,0z"/>
<path fill-rule="evenodd" clip-rule="evenodd" fill="#296BB2" d="M1.5,1.5h2.7c0.2,0,0.3,0,0.4,0.1c0.1,0,0.1,0.1,0.1,0.1
	c0.1,0.2,0.2,0.5,0.2,1c0,0.4-0.1,0.6-0.2,0.8C4.6,3.6,4.5,3.8,4.2,3.9C4,4,3.7,4,3.6,4c0,0,0,0-0.1,0c0,0,0,0,0,0c0,0,0,0,0,0v0
	l0,0h-2V1.5L1.5,1.5z M4.3,0h-3C1.2,0,1.1,0,1,0.1c-0.1,0-0.3,0-0.5,0.2C0.4,0.3,0.2,0.4,0.1,0.6C0,0.8,0,1,0,1.1c0,0.1,0,0.3,0,0.4
	v0v6h1.5V5.5h1.9c0,0,0.1,0,0.1,0c0,0,0,0,0,0l1.1,2.1h1.7L5.1,5.1c0,0,0.1,0,0.1,0c0.3-0.2,0.7-0.5,0.9-0.9
	c0.2-0.4,0.4-0.9,0.4-1.5C6.4,2,6.3,1.4,6.1,1C5.9,0.6,5.5,0.4,5.2,0.2C4.9,0.1,4.6,0.1,4.3,0z"/>
<path fill-rule="evenodd" clip-rule="evenodd" fill="#E30021" d="M62.5,4.1H59V3.9c0-1.2,0.3-1.8,0.6-2.2c0-0.1,0.1-0.1,0.2-0.1
	c0.1,0,0.3-0.1,0.4-0.1h1.2c0.2,0,0.3,0,0.4,0.1c0.1,0,0.2,0.1,0.2,0.1c0.2,0.4,0.6,1,0.6,2.2V4.1L62.5,4.1z M64,6.9V3.6
	c-0.1-1.2-0.4-2.1-0.8-2.7c-0.2-0.3-0.6-0.6-0.9-0.7c-0.3-0.1-0.6-0.2-0.8-0.2c0,0,0,0,0,0H60c0,0,0,0,0,0c-0.3,0-0.5,0.1-0.8,0.2
	c-0.3,0.1-0.7,0.3-0.9,0.7c-0.4,0.6-0.8,1.6-0.8,3v2.9c0,0.4,0.3,0.7,0.7,0.7h0.1c0.4,0,0.7-0.3,0.7-0.7c0-0.3,0-0.7,0-1.2h3.6v1.2
	c0,0.4,0.3,0.7,0.7,0.7h0.1C63.7,7.5,64,7.2,64,6.9L64,6.9z M40.5,0.1L40.5,0.1L40.5,0.1l-1.5,0c0,0,0,0,0,0c-0.3,0-0.5,0.1-0.8,0.2
	c-0.3,0.1-0.7,0.4-0.9,0.7c-0.4,0.6-0.8,1.6-0.8,3v2.9c0,0.4,0.3,0.7,0.7,0.7h0.1c0.4,0,0.7-0.3,0.7-0.7V5.6h3.6v1.2
	c0,0.4,0.3,0.7,0.7,0.7h0.1c0.4,0,0.7-0.3,0.7-0.7V3.9c0-1.4-0.4-2.4-0.8-3c-0.2-0.3-0.6-0.6-0.9-0.7C41.1,0.1,40.8,0.1,40.5,0.1
	L40.5,0.1L40.5,0.1L40.5,0.1z M41.6,4.1H38V3.9c0-1.2,0.3-1.8,0.6-2.2c0-0.1,0.1-0.1,0.2-0.1c0.1,0,0.3-0.1,0.4-0.1h1.2
	c0.2,0,0.3,0,0.4,0.1c0.1,0,0.2,0.1,0.2,0.1c0.2,0.4,0.6,1,0.6,2.2V4.1L41.6,4.1z M55.3,3.1C55.1,3,54.9,3,54.7,3h-2
	c-0.2,0-0.4,0-0.5-0.1c-0.1,0-0.1-0.1-0.1-0.1C52,2.8,52,2.6,52,2.3C52,2,52,1.8,52.1,1.7c0,0,0,0,0.1-0.1c0.1,0,0.3-0.1,0.5-0.1
	h2.9c0.4,0,0.7-0.3,0.7-0.7V0.1c-0.8,0-2.6,0-3.6,0c-0.1,0-0.3,0-0.4,0c-0.4,0-0.8,0.2-1.1,0.4c-0.4,0.3-0.6,0.7-0.7,1.1
	c0,0,0,0,0,0c-0.1,0.4-0.1,0.9,0,1.3c0,0,0,0.1,0,0.1c0.1,0.4,0.3,0.7,0.6,1c0.3,0.3,0.8,0.4,1.2,0.5c0.1,0,0.2,0,0.3,0h1.8
	c0.2,0,0.5,0.1,0.6,0.4c0.1,0.3,0.1,0.5,0,0.8C55,5.7,55,5.8,55,5.9C54.9,5.9,54.8,6,54.7,6h-3.3c-0.4,0-0.7,0.3-0.7,0.7v0.1
	c0,0.4,0.3,0.7,0.7,0.7h3.3c0.2,0,0.4,0,0.6-0.1c0.2-0.1,0.4-0.2,0.6-0.4c0.3-0.3,0.7-0.9,0.7-1.8c0-0.8-0.3-1.5-0.7-1.8
	C55.7,3.3,55.5,3.2,55.3,3.1L55.3,3.1z M48.6,3.1C48.4,3,48.2,3,48,3h-2c-0.2,0-0.4,0-0.5-0.1c-0.1,0-0.1-0.1-0.1-0.1
	c-0.1-0.1-0.1-0.3-0.1-0.6c0-0.3,0.1-0.5,0.1-0.6c0,0,0,0,0.1-0.1c0.1,0,0.3-0.1,0.5-0.1h2.9c0.4,0,0.7-0.3,0.7-0.7V0.1H46
	c-0.1,0-0.3,0-0.4,0c-0.4,0-0.8,0.2-1.1,0.4c-0.4,0.3-0.6,0.7-0.7,1.1c0,0,0,0,0,0c-0.1,0.4-0.1,0.9,0,1.3c0,0,0,0.1,0,0.1
	c0.1,0.4,0.3,0.7,0.6,1c0.3,0.3,0.8,0.4,1.2,0.5c0.1,0,0.2,0,0.3,0h1.8c0.2,0,0.5,0.1,0.6,0.4c0.1,0.3,0.1,0.5,0,0.8
	c0,0.1-0.1,0.2-0.1,0.2C48.2,5.9,48.1,6,48,6h-3.3c-0.4,0-0.7,0.3-0.7,0.7v0.1c0,0.4,0.3,0.7,0.7,0.7H48c0.2,0,0.4,0,0.6-0.1
	C48.8,7.4,49,7.2,49.2,7c0.3-0.3,0.7-0.9,0.7-1.8c0-0.8-0.3-1.5-0.7-1.8C49,3.3,48.8,3.2,48.6,3.1L48.6,3.1z M35.1,5.2
	c-0.4-0.6-0.9-1.1-1.4-1.4c0,0,0,0,0,0c0.2-0.2,0.5-0.4,0.8-0.7c0.3-0.3,0.5-0.6,0.7-0.9c0.2-0.3,0.4-0.7,0.4-1.2V0.7
	c0-0.4-0.3-0.7-0.7-0.7h-0.4c-0.2,0-0.4,0.2-0.4,0.4c0,0.3,0,0.6-0.2,0.9c0,0,0,0.1-0.1,0.1c-0.3,0.4-0.7,0.8-1.1,1.2
	c-0.2,0.2-0.4,0.3-0.5,0.4c0,0,0,0,0,0c-0.1,0-0.2,0-0.3,0c-0.2,0-0.5,0-0.8,0V0.7c0-0.4-0.3-0.7-0.7-0.7h-0.1
	c-0.4,0-0.7,0.3-0.7,0.7v6.1c0,0.4,0.3,0.7,0.7,0.7h0.1c0.4,0,0.7-0.3,0.7-0.7V4.5c0.3,0,0.6,0,0.8,0c0.1,0,0.2,0,0.3,0
	c0.2,0.2,0.6,0.5,1,0.8c0.3,0.2,0.5,0.5,0.7,0.8c0.2,0.2,0.2,0.4,0.2,0.5v0.2c0,0.4,0.3,0.7,0.7,0.7h0.1c0.4,0,0.7-0.3,0.7-0.7
	l0-0.2C35.6,6,35.4,5.6,35.1,5.2z"/>
</svg>
