<?xml version="1.0" encoding="utf-8"?>
<!-- Generator: Adobe Illustrator 19.2.0, SVG Export Plug-In . SVG Version: 6.00 Build 0)  -->
<svg version="1.1" id="Layer_1" xmlns="http://www.w3.org/2000/svg" xmlns:xlink="http://www.w3.org/1999/xlink" x="0px" y="0px"
	 viewBox="0 0 64 64" enable-background="new 0 0 64 64" xml:space="preserve">
<g>
	<path fill="#9C81D2" d="M46.5,3.8c5.3,0.2,9.7,2.1,13.2,5.9c0.7,0.7,0.7,1.1-0.3,1.5c-5.5,2.3-10.3,5.7-15,9.4
		c-5,4-9.8,8.3-14.4,12.7c-2.5,2.4-5.2,4.3-8.7,4.9c-6.8,1.3-12.5-0.6-17.1-5.8c-0.4-0.4-0.5-0.7,0.1-1c7.2-3,13.1-7.9,19-12.9
		c4-3.4,8-6.9,11.9-10.4C38.5,5.2,42.4,3.9,46.5,3.8z"/>
	<path fill="#9C81D2" d="M17.9,46.4c3-0.2,5.7-0.6,8.3-1.6c2.7-1,5.3-2.4,7.4-4.4c5.9-5.4,11.7-10.9,18.1-15.7
		c3.4-2.5,6.8-4.8,10.7-6.4c0.9-0.4,1.2-0.2,1.3,0.8c0.6,5.4-1,10.1-4.6,14.1c-2.2,2.4-4.7,4.7-7,7c-1.9,1.9-3.8,3.8-5.6,5.7
		c-3.8,3.9-7.7,7.7-11.6,11.6c-0.8,0.8-1.6,1.6-2.4,2.4c-0.4,0.5-0.7,0.4-1.2,0c-3.6-3.6-7.2-7.2-10.8-10.9
		C19.9,48.1,19,47.3,17.9,46.4z"/>
	<path fill="#9C81D2" d="M0,20.9C0.4,8.2,13.6,0.1,24.9,5.5c0.4,0.2,1.3,0.3,0.4,1.1C19.6,11.9,14,17.5,7.4,22c-1.9,1.3-3.8,2.3-6,3
		c-0.7,0.2-1,0.1-1.1-0.7C0.1,23.1,0,21.9,0,20.9z"/>
</g>
</svg>
