<?xml version="1.0" encoding="utf-8"?>
<!-- Generator: Adobe Illustrator 19.2.0, SVG Export Plug-In . SVG Version: 6.00 Build 0)  -->
<svg version="1.1" id="Layer_1" xmlns="http://www.w3.org/2000/svg" xmlns:xlink="http://www.w3.org/1999/xlink" x="0px" y="0px"
	 viewBox="0 0 207.1 24.5" enable-background="new 0 0 207.1 24.5" xml:space="preserve">
<g>
	<path fill="#FFFFFF" d="M0,18.5L2.8,1h4.3l5.2,8.4c0-1,0.1-2,0.3-2.9L13.4,1h5.8l-2.8,17.5h-4.3l-5.1-8.4c0,1-0.1,2-0.3,2.8
		l-0.9,5.5H0z"/>
	<path fill="#FFFFFF" d="M25.1,18.9c-3.7,0-6.8-2.3-6-6.8c0.6-4.1,3.8-6,7.6-6c3.6,0,6.8,2.3,6.1,6.8C32.1,17.1,28.8,18.9,25.1,18.9
		z M25.5,14.5c1.2,0,2-0.8,2.1-2.1c0.1-1-0.3-1.9-1.4-1.9c-1.2,0-2,0.8-2.1,2.1C24,13.7,24.3,14.5,25.5,14.5z"/>
	<path fill="#FFFFFF" d="M39.9,18.9c-3.7,0-6.8-2.3-6-6.8c0.6-4.1,3.8-6,7.6-6c3.6,0,6.8,2.3,6.1,6.8C46.9,17.1,43.6,18.9,39.9,18.9
		z M40.4,14.5c1.2,0,2-0.8,2.1-2.1c0.1-1-0.3-1.9-1.4-1.9c-1.2,0-2,0.8-2.1,2.1C38.8,13.7,39.2,14.5,40.4,14.5z"/>
	<path fill="#FFFFFF" d="M59.3,6.3l-0.8,4.8c-1.5-0.5-3.2-0.1-4,0.8l-1,6.5h-5.3l1.9-12h4.6l-0.2,1.3C55.5,6.7,57.1,6,59.3,6.3z"/>
	<path fill="#FFFFFF" d="M75.1,1l-2.8,17.5h-4.6l0.2-1.4c-0.8,1-2.1,1.8-3.9,1.8c-3.6,0-5.2-3.3-4.7-6.7c0.5-3.1,2.6-6,6.2-6
		c1.5,0,2.6,0.6,3.3,1.4l1-6.5H75.1z M66.9,10.3c-1.3,0-2.1,1-2.3,2.3c-0.1,1.1,0.3,2.1,1.4,2.1c0.8,0,1.4-0.4,1.8-0.9l0.4-2.6
		C68,10.7,67.5,10.3,66.9,10.3z"/>
	<path fill="#FFFFFF" d="M86.8,6.5l-0.5,3.1l-4.8,4.7h4.4l-0.7,4.2H74l0.5-3.1l4.8-4.7h-3.6l0.7-4.2H86.8z"/>
	<path fill="#FFFFFF" d="M94.4,6.1c5.3,0,6.4,4.2,5.1,7.6H92c0.3,1.1,1.6,1.5,3.1,1.5c1.4,0,2.7-0.2,3.7-0.6l-0.6,3.7
		c-1.2,0.4-2.5,0.6-4.3,0.6c-3.6,0-7.4-2-6.7-6.8C87.9,7.7,91.6,6.1,94.4,6.1z M94.3,9.6c-1.2,0-1.9,0.9-2,1.7h3.3
		C95.8,10.5,95.5,9.6,94.3,9.6z"/>
	<path fill="#FFFFFF" d="M108,6.1c5.3,0,6.4,4.2,5.1,7.6h-7.4c0.3,1.1,1.6,1.5,3.1,1.5c1.4,0,2.7-0.2,3.7-0.6l-0.6,3.7
		c-1.2,0.4-2.5,0.6-4.3,0.6c-3.6,0-7.4-2-6.7-6.8C101.6,7.7,105.3,6.1,108,6.1z M108,9.6c-1.2,0-1.9,0.9-2,1.7h3.3
		C109.5,10.5,109.1,9.6,108,9.6z"/>
	<path fill="#FFFFFF" d="M141.8,1L139,18.5h-5.6l1.3-8.1l-3.4,4.4H128l-2.1-4.4l-1.3,8.1H119L121.7,1h4.9l3.6,7.8l5.9-7.8H141.8z"/>
	<path fill="#FFFFFF" d="M148.7,6.1c5.3,0,6.4,4.2,5.1,7.6h-7.4c0.3,1.1,1.6,1.5,3.1,1.5c1.4,0,2.7-0.2,3.7-0.6l-0.6,3.7
		c-1.2,0.4-2.5,0.6-4.3,0.6c-3.6,0-7.4-2-6.7-6.8C142.3,7.7,146,6.1,148.7,6.1z M148.7,9.6c-1.2,0-1.9,0.9-2,1.7h3.3
		C150.1,10.5,149.8,9.6,148.7,9.6z"/>
	<path fill="#FFFFFF" d="M154.8,18.5l1.9-12h5.3l-1.9,12H154.8z M159.7,5.3c-1.5,0-2.8-1-2.5-3c0.3-1.6,1.5-2.3,2.9-2.3
		c1.5,0,2.8,1,2.5,3C162.4,4.6,161.1,5.3,159.7,5.3z"/>
	<path fill="#FFFFFF" d="M169,6.1c1.9,0,3.5,0.4,4.7,1l-0.6,3.8c-0.9-0.7-2.3-1.2-3.6-1.2c-0.5,0-1,0.1-1.1,0.5
		c-0.1,1.3,5.7,0.8,5,5.1c-0.5,3-3.4,3.6-6.4,3.6c-1.9,0-3.6-0.4-4.9-1.1l0.6-4.1c1.1,0.9,2.8,1.3,3.9,1.4c1,0.1,1.4-0.1,1.4-0.4
		c0.1-1.2-5.5-0.9-5-5.1C163.5,6.8,166.3,6.1,169,6.1z"/>
	<path fill="#FFFFFF" d="M174.1,24.4c-1.2,0-2.2-0.2-2.9-0.5l0.7-4.1c0.2,0.1,0.6,0.1,1,0.1c1,0,1.4-0.4,1.6-1.4l1.9-11.9h5.2
		l-2.1,13.6C178.9,23.3,176.6,24.4,174.1,24.4z M179.4,5.3c-1.5,0-2.8-1-2.5-3c0.3-1.6,1.5-2.3,2.9-2.3c1.5,0,2.8,1,2.5,3
		C182,4.6,180.8,5.3,179.4,5.3z"/>
	<path fill="#FFFFFF" d="M189.4,6.1c5.3,0,6.4,4.2,5.1,7.6H187c0.3,1.1,1.6,1.5,3.1,1.5c1.4,0,2.7-0.2,3.7-0.6l-0.6,3.7
		c-1.2,0.4-2.5,0.6-4.3,0.6c-3.6,0-7.4-2-6.7-6.8C182.9,7.7,186.6,6.1,189.4,6.1z M189.3,9.6c-1.2,0-1.9,0.9-2,1.7h3.3
		C190.8,10.5,190.4,9.6,189.3,9.6z"/>
	<path fill="#FFFFFF" d="M202.3,6.1c1.9,0,3.5,0.4,4.7,1l-0.6,3.8c-1-0.7-2.3-1.2-3.6-1.2c-0.5,0-1,0.1-1.1,0.5
		c-0.1,1.3,5.7,0.8,5,5.1c-0.5,3-3.4,3.6-6.4,3.6c-1.9,0-3.6-0.4-4.9-1.1l0.6-4.1c1.1,0.9,2.8,1.3,3.9,1.4c1,0.1,1.4-0.1,1.4-0.4
		c0.1-1.2-5.5-0.9-5-5.1C196.8,6.8,199.7,6.1,202.3,6.1z"/>
</g>
</svg>
