<?xml version="1.0" encoding="utf-8"?>
<!-- Generator: Adobe Illustrator 18.0.0, SVG Export Plug-In . SVG Version: 6.00 Build 0)  -->
<!DOCTYPE svg PUBLIC "-//W3C//DTD SVG 1.1//EN" "http://www.w3.org/Graphics/SVG/1.1/DTD/svg11.dtd">
<svg version="1.1" id="Capa_1" xmlns:sketch="http://www.bohemiancoding.com/sketch/ns"
	 xmlns="http://www.w3.org/2000/svg" xmlns:xlink="http://www.w3.org/1999/xlink" x="0px" y="0px" viewBox="0 0 32 32"
	 enable-background="new 0 0 32 32" xml:space="preserve">
<title>icon 19 one finger swipe right</title>
<desc>Created with Sketch.</desc>
<path d="M25.6,14c-0.6,0-1.1,0.2-1.5,0.5v0c0-1.4-1.1-2.5-2.5-2.5c-0.6,0-1.2,0.2-1.7,0.6c-0.4-1-1.3-1.6-2.3-1.6
	c-0.6,0-1.1,0.2-1.5,0.5V7h7l-3.2,3.2l0.8,0.8l4.5-4.5L20.7,2l-0.8,0.8L23.2,6h-7.1c-0.2-1.1-1.2-2-2.4-2c-1.4,0-2.5,1.1-2.5,2.5
	v8.9c-2-1.8-4.2-3.2-5.6-1.8c-2,2,2.2,5.9,5.4,11.8c2.3,4.1,5.5,5.6,8.7,5.6c4.7,0,8.5-3.8,8.5-8.5v-6C28.1,15.1,27,14,25.6,14z
	 M27.1,18.7v3.8c0,3.9-3.4,7.5-7.5,7.5c-3.8,0-6-2.1-7.8-5C8,18.4,5.2,15.4,6.2,14.3c1.1-1.1,3.8,1.3,5.9,3.5V6.5
	c0-0.8,0.7-1.5,1.5-1.5c0.8,0,1.5,0.7,1.5,1.5V17h1v-3.5c0-0.8,0.7-1.5,1.5-1.5c0.8,0,1.5,0.7,1.5,1.5V16h1v-1.5
	c0-0.8,0.7-1.5,1.5-1.5c0.8,0,1.5,0.7,1.5,1.5V17h1v-0.5c0-0.8,0.7-1.5,1.5-1.5c0.8,0,1.5,0.7,1.5,1.5V18.7z"/>
</svg>
