<?xml version="1.0" encoding="utf-8"?>
<!-- Generator: Adobe Illustrator 19.2.0, SVG Export Plug-In . SVG Version: 6.00 Build 0)  -->
<svg version="1.1" id="Layer_1" xmlns="http://www.w3.org/2000/svg" xmlns:xlink="http://www.w3.org/1999/xlink" x="0px" y="0px"
	 viewBox="0 0 64 64" enable-background="new 0 0 64 64" xml:space="preserve">
<g>
	<path fill="#4C4646" d="M14.3,14.8c0,0.1,0,0.2,0,0.2c-0.2,0.4-0.4,0.8-0.8,0.9c-0.7,0.3-0.2,0.8-0.4,1.5c-0.2,0.8,0.1,3.5,0.2,4.4
		c0.2,0.9,0.4,2.2,0.6,3.2c0.4,1.9,0.6,4,1.9,4.3c0.1,0,0.3,0.1,0.4,0.2c0.2,0.1,0.1,0.6-0.1,0.7c-0.4,0.3-0.9,0.3-1.4,0.1
		c-1.1-0.4-1.8-1.2-2.2-2.3c-0.5-1.3-0.8-2.7-1.1-4.1c-0.2-1.3-0.3-2.6-0.5-3.8c0-0.1-0.2-2.6-0.2-2.7c-0.1,0-0.4,0.2-0.5,0.2
		c-0.8,0.4-1.5,0.8-2.2,1.2c-0.2,0.1-0.3,0.2-0.3,0.4c-0.1,1-0.3,2-0.4,3c-0.1,0.8-0.1,1.6-0.1,2.4c0,0.6,0,1.3-0.1,1.9
		c0,0.3-0.1,0.6-0.2,0.9c-0.1,0.5-0.1,1-0.2,1.5c-0.1,0.3-0.2,0.6-0.3,0.9c-0.1,0.4-0.2,0.8-0.3,1.1c-0.1,0.2-0.1,0.4-0.3,0.4
		c-0.1,0-0.1,0.2-0.2,0.3c-0.3,0.6-0.8,1.1-1.3,1.5c-0.4,0.3-0.9,0.4-1.3,0c-0.1,0-0.1-0.1-0.2-0.1c-0.6-0.1-1-0.4-1.4-0.7
		c-0.2-0.1-0.3-0.3-0.3-0.5c0,0,0-0.1,0-0.1c-0.5-0.8-0.2-1.8-0.5-2.6c-0.1-0.3,0-0.8,0.1-1.2c0-0.3,0.1-0.6,0.1-0.9
		c0-0.3,0.1-0.5,0.1-0.8c0.1-0.5,0.3-1,0.5-1.5c0-0.1,0.1-0.2,0.1-0.3c0.5-1,1.1-2.1,1.7-3c0.5-0.8,1.2-1.4,1.9-1.9
		c0.2-0.1,0.3-0.3,0.4-0.6C5.8,17.5,6,16,6.3,14.6C6.6,13.3,7,12,7.8,10.9c0.5-0.7,1.1-1.2,1.9-1.6c0.5-0.2,1.1,0,1.3,0.5
		c0.1,0.2,0.2,0.4,0.4,0.5c0.8,0.7,1.1,1.5,1.3,2.5c0,0.2,0.1,0.3,0.1,0.4C13.6,13.6,14.1,14.1,14.3,14.8z M5.1,20.8
		c-0.3,0.3-0.6,0.7-0.9,1c-0.7,0.8-1.1,1.8-1.7,2.7c-0.1,0.2-0.1,0.4-0.2,0.5c-0.2,0.4-0.3,0.8-0.4,1.2c-0.1,0.3-0.2,0.6-0.2,0.9
		c-0.1,0.2-0.1,0.5-0.1,0.7c-0.2,0.8-0.4,1.6-0.2,2.5c0,0.1,0,0.3,0,0.4c0,0.9,0.5,1.4,1.2,1.7c0.3,0.2,0.7,0.1,1-0.2
		C3.7,32.2,3.8,32,4,31.8c0.4-0.6,0.6-1.2,0.8-1.9c0.3-1.4,0.3-2.9,0.4-4.4c0.1-1.4,0.1-2.9,0.2-4.3c0-0.2,0-0.3,0-0.6
		C5.2,20.7,5.1,20.7,5.1,20.8z M4,32.7L4,32.7c-0.1,0-0.1,0-0.2,0.1c0,0,0,0.1,0.1,0.2C4,32.8,4,32.8,4,32.7z M8.3,17.5
		c0.9-0.5,1.8-1,2.7-1.5c0.1-0.1,0.2-0.2,0.2-0.3c0.4-1.3,0.5-2.7,0-4c-0.1-0.2-0.1-0.3-0.2-0.5c-0.3,0.2-0.6,0.5-0.9,0.7
		c0,0-0.1,0.1-0.1,0.1c-0.5,0.5-0.7,1.1-0.9,1.8c-0.2,0.8-0.5,1.7-0.7,2.6c-0.1,0.4-0.2,0.8-0.3,1.2C8.2,17.6,8.2,17.6,8.3,17.5z"/>
	<path fill="#4C4646" d="M17.8,18c0.3,0.3,0.5,0.7,0.5,1.2c0,1-0.1,2-0.4,3c-0.2,0.6-0.4,1.1-0.6,1.6c-0.3,0.6-0.6,1.1-0.8,1.7
		c0,0,0,0.1,0,0.2c0.4-0.2,0.7-0.4,1-0.6c0.5-0.5,0.9-1.1,1.2-1.7c0.3-0.7,0.6-1.3,0.9-2c0.3-0.8,0.6-1.6,1-2.3
		c0.3-0.8,0.8-1.4,1.6-1.6c0.2,0.1,0.4,0.1,0.6,0.2c0.7,0.3,1,0.8,1.1,1.6c0.1,1.1-0.2,2.1-0.6,3.1c-0.2,0.6-0.3,1.2-0.5,1.8
		c0.2-0.2,0.4-0.4,0.5-0.7c0.5-0.9,1-1.8,1.5-2.7c0.3-0.5,0.6-1.1,0.9-1.6c0.1-0.2,0.2-0.4,0.3-0.6c0.5-0.7,1-1.4,1.5-2.1
		c0.2-0.2,0.3-0.4,0.5-0.6c0.4-0.4,0.6-0.4,1.1-0.1c0.5,0.2,0.7,0.5,0.9,1c0.2,0.6,0.2,1.2,0,1.8c-0.2,0.9-0.5,1.7-0.8,2.5
		c-0.4,1-0.7,2-1.1,2.9c-0.2,0.6-0.5,1.3-0.7,1.9c-0.2,0.7-0.6,1.4-0.7,2.1c-0.1,0.4-0.1,0.9,0.1,1.3c0.1,0.2,0.3,0.4,0.5,0.5
		c0.1,0,0.2,0.1,0.3,0.2c0.1,0.1,0.1,0.2,0.2,0.3c0,0-0.1,0.1-0.2,0.2c-0.2,0.1-0.4,0.1-0.6,0c-0.2-0.1-0.3-0.2-0.5-0.3
		c-0.1,0-0.1-0.1-0.2-0.1c-0.6-0.1-0.9-0.5-1.1-1c-0.4-0.6-0.5-1.3-0.4-2.1c0.1-0.8,0.3-1.5,0.6-2.3c0.3-0.8,0.7-1.7,1-2.5
		c0.6-1.6,1.3-3.1,1.9-4.7c0-0.1,0.1-0.2,0-0.3c-0.2,0.2-0.5,0.5-0.7,0.7c-0.5,0.6-1,1.3-1.3,2c-0.5,1-1,1.9-1.6,2.9
		c-0.2,0.4-0.4,0.8-0.6,1.1c-0.3,0.5-0.6,0.9-0.9,1.4c-0.3,0.5-1.2,0.7-1.7,0.6c-0.8-0.3-1.2-0.8-1.1-1.6c0-0.3,0.1-0.7,0.2-1
		c0.2-0.9,0.5-1.8,0.9-2.7c0.2-0.6,0.4-1.1,0.6-1.8c-0.3,0.2-0.4,0.4-0.6,0.7c-0.2,0.5-0.4,0.9-0.6,1.4c-0.5,1.4-1.1,2.8-2,4.1
		c-0.3,0.4-0.6,0.8-1.1,1c-0.3,0.1-0.6,0.3-0.8,0.5c-0.4,0.3-0.7,0.4-1.2,0.3c-0.3-0.1-0.7-0.2-0.8-0.6c-0.1-0.2-0.3-0.4-0.4-0.7
		c-0.1-0.4-0.1-0.7,0.1-1.1c0.2-0.7,0.5-1.4,0.8-2.1c0.6-1.3,0.9-2.7,1.2-4.1c0-0.2,0-0.3,0-0.5C17.1,17.6,17.5,17.7,17.8,18z"/>
	<path fill="#4C4646" d="M42.3,17.7c-0.1,0.4-0.4,0.6-0.6,0.9c-0.3,0.3-0.4,0.6-0.6,0.9c-0.1,0.1-0.2,0.3-0.3,0.4
		c-0.4,0.5-0.7,0.9-1.1,1.4c-0.3,0.4-0.7,0.7-1,1.1c-0.1,0.1-0.2,0.2-0.3,0.3c-0.5,0.6-1.1,1.3-1.6,1.9c-0.3,0.4-0.6,0.7-0.9,1.1
		c-0.6,0.9-1.5,1.2-2.6,1c-0.3-0.1-0.7-0.1-1-0.2c-0.9-0.3-1.7-0.9-2.1-1.9c-0.4-1-0.5-2-0.3-3.1c0.2-0.7,0.4-1.4,0.6-2.1
		c0.2-0.4,0.3-0.9,0.7-1.2c0.1-0.1,0.1-0.1,0.2-0.2c0.5-0.8,1.1-1.4,1.9-1.8c0.3-0.2,0.6-0.3,0.9-0.5c0.4-0.2,0.8-0.1,1.2,0.1
		c0.2,0.1,0.5,0.2,0.7,0.3c0.3,0.1,0.5,0.2,0.8,0.3c0.2,0.1,0.5,0.2,0.7,0.3c0.4,0.1,0.6,0.3,0.7,0.6c0.1,0.2,0.1,0.4-0.1,0.5
		c-0.2,0.1-0.4,0.3-0.5,0.5c-0.6,0.9-1.2,1.7-1.9,2.5c0,0,0,0-0.1,0.1c-0.3,0.5-0.7,0.9-1.2,1.3c-0.5,0.4-1,0.9-1.6,1.1
		c-0.3,0.1-0.5,0.3-0.7,0.4c-0.1,0.1-0.2,0.1-0.2,0.3c0,0.7,0.1,1.3,0.5,1.8c0.2,0.3,0.5,0.4,0.8,0.3c0.3-0.1,0.5-0.3,0.7-0.5
		c0.8-0.8,1.6-1.7,2.4-2.5c0.3-0.4,0.6-0.8,0.9-1.1c0.6-0.8,1.4-1.5,2.2-2.2c0.6-0.6,1.2-1.2,1.8-1.7c0.2-0.2,0.3-0.3,0.5-0.5
		C42.4,17.4,42.4,17.5,42.3,17.7z M32.9,21.9c0.4-0.4,0.8-0.7,1.2-1.1c0.7-0.7,1.5-1.5,2.2-2.2c0.3-0.3,0.6-0.7,0.9-1
		c0.1-0.1,0.1-0.2,0.1-0.3c-0.1,0-0.1,0-0.2,0c-0.6,0-1.2,0.2-1.7,0.6c-0.1,0.1-0.3,0.2-0.4,0.3c-0.4,0.3-0.8,0.6-1.1,0.9
		c-0.5,0.6-1,1.3-1.3,2.1c-0.1,0.3-0.3,0.6-0.3,1C32.6,22,32.8,22,32.9,21.9z"/>
	<path fill="#4C4646" d="M41.3,14.2c0.3-1.4,0.8-2.8,1.3-4.2c0.5-1.3,1.1-2.4,1.8-3.6c0.1-0.2,0.2-0.3,0.4-0.5
		c0.6-0.7,1.2-1.3,2-1.8c0.7-0.5,1.4-0.9,2.3-1c0.2,0,0.5,0,0.7,0c0.9,0.2,1.7,0.6,2.2,1.4c0.2,0.3,0.2,0.7,0.3,1.1
		c0.1,0.8-0.3,1.5-0.7,2.2c-0.2,0.3-0.4,0.6-0.6,0.9c-0.3,0.5-0.5,1-0.8,1.5c-0.1,0.1-0.1,0.2-0.2,0.3c-0.8,0.7-1.5,1.5-2.2,2.2
		c-0.8,0.7-1.7,1.2-2.6,1.7c-0.6,0.3-1.2,0.5-1.8,0.7c-0.2,0.1-0.3,0.1-0.3,0.3c-0.3,1.3-1.6,4.9-1.8,6.2c-0.1,0.6-0.2,1.2-0.3,1.8
		c-0.1,1.1-0.7,3.8-0.4,4.8c0.1,0.4,0.3,0.9,0.5,1.2c0.2,0.3,0.3,0.3,0.6,0.1c0.9-0.6,1.6-1,2.1-1.9c0.2-0.3,0.6-1.3,0.9-2.1
		c0.2-0.2,0.6-1.1,0.7-1.3c0.2-0.3,0.3-0.7,0.4-1c0.2-0.4,0.2-0.4,0.6-0.1c0.1,0.4,0.1,0.8-0.1,1.2c-0.5,1.1-1.4,3.2-1.9,4.3
		c-0.2,0.5-0.5,1-0.9,1.4C42.8,31,41.9,31,41,30.8c-0.1,0-0.2-0.1-0.3-0.1c-1.1-0.8-1.8-1.9-2-3.2c-0.3-1.3,0.3-4.3,0.5-5.6
		c0.2-1.4,1.5-5,1.8-6.4c0-0.2,0-0.4,0-0.6C41.1,14.7,41.2,14.5,41.3,14.2z M44.7,13c1.6-1.1,2.9-2.4,4-4c0.5-0.9,1-1.8,1.5-2.7
		c0.2-0.4,0.4-0.9,0.4-1.4c0-0.4,0-0.5-0.4-0.5c-0.3,0-0.6,0-0.9,0.1c-0.7,0.3-1.4,0.6-1.9,1.1c-0.2,0.2-0.5,0.4-0.6,0.7
		c-0.1,0.3-0.3,0.6-0.5,0.8c-0.1,0.2-0.3,0.3-0.3,0.5c-0.5,0.8-1,1.6-1.3,2.5c-0.1,0.2-0.2,0.5-0.3,0.7c-0.4,0.8-0.7,1.7-0.8,2.7
		C44,13.4,44.4,13.2,44.7,13z"/>
	<path fill="#4C4646" d="M54.3,19.3c-0.3,0-0.5,0-0.6,0.3c-0.1,0.1-0.2,0.2-0.2,0.3c-0.3,0.7-0.7,1.4-1,2.2
		c-0.3,0.6-0.4,1.3-0.7,1.9c-0.3,0.7-0.6,1.4-1.2,2c-0.3,0.2-0.5,0.4-0.8,0.5c-0.8,0.3-1.5,0.1-2.1-0.5c-0.6-0.6-0.9-1.2-0.8-2
		c0.1-0.8,0.2-1.5,0.4-2.3c0.3-1.1,0.7-2.2,1.1-3.3c0.3-0.8,0.5-1.6,0.8-2.4c0-0.1,0.1-0.1,0.1-0.2c0.4,0,0.8,0.1,1.2,0.3
		c0.4,0.3,0.5,0.7,0.4,1.2c-0.1,0.5-0.2,1-0.3,1.5c-0.1,0.4-0.2,0.7-0.3,1.1c-0.2,0.7-0.5,1.4-0.7,2.1c-0.2,0.5-0.3,1-0.5,1.6
		c-0.1,0.6-0.2,1.2-0.4,1.9c0,0.1,0,0.2,0,0.3c0.5,0,0.9-0.3,1.1-0.7c0.7-1.1,1.3-2.1,1.8-3.3c0.4-0.8,0.8-1.6,1.2-2.4
		c0.3-0.5,0.7-0.8,1.3-0.7c0.3,0.1,0.5,0.2,0.7,0.4C54.6,19.3,54.6,19.4,54.3,19.3z M51.7,11c0.1,0.2,0.1,0.4,0,0.6
		c-0.1,0.4-0.2,0.8-0.3,1.2c-0.1,0.3-0.2,0.5-0.4,0.8c-0.2,0.2-0.8,0.3-1,0.1C50,13.6,50,13.4,50,13.3c0-0.5,0-1,0.1-1.5
		c0.1-0.5,0.2-0.9,0.3-1.4C50.9,10.4,51.5,10.6,51.7,11z"/>
	<path fill="#4C4646" d="M59.7,16.5c0.2,0.2,0.3,0.3,0.1,0.5c-0.3,0.3-0.6,0.6-1,1c0,0,0.1,0.1,0.2,0.2c0.3,0.2,0.4,0.5,0.5,0.8
		c0.2,1.4,0.2,2.8,0.2,4.2c0,0.7-0.1,1.5-0.1,2.2c0,1.1-0.1,2.2-0.1,3.3c0,0.2,0,0.4,0,0.6c0,0,0.1,0,0.1,0c0.1-0.1,0.2-0.2,0.3-0.3
		c0.2-0.4,0.4-0.7,0.5-1.1c0.5-1.4,0.9-2.9,1.4-4.3c0.1-0.2,0.1-0.5,0.2-0.7c0.1-0.3,0.3-0.6,0.4-1c0.1-0.3,0.2-0.6,0.3-0.9
		c0,0,0-0.1,0-0.1c0.2-0.7,0.5-1.4,0.7-2.2c0-0.1,0.1-0.2,0.2-0.2c0.2-0.1,0.3,0.1,0.3,0.3c0,0.1,0,0.2-0.1,0.3
		c-0.2,0.5-0.4,1-0.5,1.6c-0.2,0.7-0.4,1.4-0.6,2.1c-0.1,0.2-0.1,0.4-0.2,0.5c-0.3,0.8-0.5,1.5-0.8,2.3c-0.2,0.7-0.4,1.3-0.7,2
		c0,0.1-0.1,0.2-0.1,0.3c-0.2,0.3-0.4,0.6-0.4,1c0,0.2-0.2,0.4-0.3,0.6c-0.1,0.2-0.2,0.3-0.2,0.5c-0.1,0.2-0.2,0.3-0.4,0.3
		C59,30.4,58.3,30,58,29.4c-0.4-0.6-0.5-1.3-0.6-1.9c-0.1-1-0.1-2.1,0-3.1c0-0.1,0-0.3,0-0.4c-0.2,0.3-0.4,0.6-0.6,1
		c-0.3,0.7-0.8,1.1-1.3,1.5c0,0-0.1,0.1-0.1,0.1c-0.2,0.3-0.5,0.3-0.8,0.3c-0.3,0-0.6-0.1-0.8-0.3c-0.6-0.6-0.9-1.3-0.9-2.1
		c-0.1-0.7,0.1-1.4,0.3-2.1c0.5-1.7,1.3-3.2,2.4-4.5c0.4-0.5,0.8-1,1.3-1.4c0.3-0.3,0.6-0.6,1-0.8c0.2-0.2,0.5-0.2,0.8-0.3
		c0.1,0,0.3,0,0.3,0.1c0.2,0.2,0.4,0.4,0.6,0.6c0.1,0.1,0.1,0.2,0.1,0.4C59.6,16.5,59.7,16.5,59.7,16.5z M55.1,25.5
		c0.8-0.9,1.5-2,2-3.1c0.2-0.4,0.4-0.9,0.6-1.3c0.3-0.7,0.3-1.5,0.4-2.4c-0.6,0.3-0.8,0.9-1.1,1.4c-0.4,0.7-0.8,1.4-1.1,2.1
		c0,0,0,0.1,0,0.1c-0.3,0.9-0.7,1.8-1,2.6c-0.1,0.3-0.2,0.5-0.1,0.9C54.8,25.7,55,25.6,55.1,25.5z"/>
	<path fill="#4C4646" d="M4.7,49.1c-0.2,0.5-0.3,1-0.4,1.5c-0.1,0.2-0.1,0.4-0.1,0.6c-0.1,1.4,0.1,2.8,0.7,4.2
		C5,55.7,5.2,56,5.4,56.2c0.2,0.2,0.5,0.1,0.7-0.1c0.2-0.2,0.4-0.4,0.6-0.7c0.8-1.1,1.5-2.3,2.1-3.5c0.2-0.3,0.3-0.6,0.5-0.8
		c0.9-1.7,1.4-3.6,1.7-5.5c0.1-0.8,0.1-1.7,0.2-2.5c0-1.1-0.1-2.2-0.7-3.2c-0.1-0.3-0.3-0.5-0.5-0.7c-0.1-0.1-0.2-0.1-0.3-0.1
		c-0.2,0-0.4,0-0.5,0.1C8.6,39.6,8,40,7.5,40.4c-0.7,0.5-1.3,1.2-1.7,1.9c-0.3,0.6-1.5,2.3-1.9,2.8c0,0.1-0.1,0.1-0.1,0.2
		c-0.4,0.2-0.4,0.6-0.5,0.9c0,1.4-0.1,2.1-0.2,3.6c0,0.3-0.1,0.5-0.1,0.8c0,0.3-0.1,0.6-0.1,0.9c0,1.1-0.2,1.9-0.6,2.8
		C2.1,54.7,1.3,55,1,54.9c-0.2-0.1-0.4-0.3-0.6-0.4c-0.2-0.1-0.2-0.3,0-0.4c0.4-0.3,0.3-0.3,0.3-0.7c0.1-1.1,0.2-2.1,0.2-3.1
		c0.1-1.9-0.2-2.5-0.1-4.1c0-1.3-0.6-4.2-0.7-5.4C0.1,40.4,0,40,0,39.7c0-0.2,0.1-0.3,0.4-0.3c0.2,0.1,0.4,0.1,0.5,0.1
		c0.5,0.1,0.8,0.3,1.2,0.5c0.1,0.1,0.2,0.3,0.2,0.4c0.1,0.4,0.1,3.2,0.2,3.6c0,0.2,0.1,0.3,0.1,0.5c0.2,0,0.7-1,0.8-1.1
		c0.4-0.8,2.1-3,2.8-3.7c0.5-0.5,1.1-1,1.7-1.3c0.9-0.6,1.9-0.6,2.8,0c0.6,0.4,1,0.9,1.4,1.5c0.7,1.1,1,2.3,1.1,3.5
		c0.1,1.2,0,2.4-0.3,3.6c-0.1,0.3-0.1,0.6-0.2,0.9c-0.2,0.8-0.5,1.6-0.8,2.4c-0.1,0.3-0.2,0.6-0.4,0.9c-0.5,0.8-1,1.6-1.5,2.4
		c-0.4,0.6-0.9,1.2-1.3,1.8c-0.2,0.3-0.5,0.6-0.8,0.8c-0.4,0.3-0.7,0.6-1.1,0.9c-0.3,0.2-0.7,0.2-1,0.1c-0.9-0.2-1.5-0.8-1.9-1.6
		c-0.1-0.2-0.3-0.4-0.4-0.6c-0.3-0.6-0.4-1.2-0.5-1.8c0-0.1,0-0.1,0-0.2c0-0.8,0-1.5,0-2.3c0-0.2,0-0.3,0.1-0.4
		c0.3-0.5,0.4-1,0.4-1.5c0-0.2,0.1-0.3,0.1-0.5c0.1-0.2,0.2-0.4,0.5-0.4C4.8,48.4,4.9,48.5,4.7,49.1z"/>
	<path fill="#4C4646" d="M23.5,46c-0.1,0.3-0.2,0.7-0.4,1.1c-0.2,0.3-0.2,0.7-0.3,1c0,0.2-0.1,0.4-0.1,0.5c-0.2,0.6-0.4,1.1-0.6,1.7
		c0,0.1-0.1,0.2-0.1,0.3c-0.7,1.3-1.4,2.6-2.2,3.8c-0.4,0.6-0.9,1.1-1.4,1.7c-0.2,0.2-0.4,0.3-0.5,0.4c-0.2,0.2-0.5,0.4-0.7,0.5
		c-0.4,0.3-1.2,0.3-1.6,0c-0.5-0.3-0.8-0.7-0.9-1.3c-0.2-0.8-0.1-1.6,0.2-2.3c0.5-1.4,1.3-2.5,2.3-3.6c0.4-0.4,0.7-0.9,1.1-1.3
		c0.2-0.3,0.3-0.5,0.3-0.8c-0.5-0.2-1.1-0.5-1.7-0.7c-0.3,0.2-0.4,0.6-0.6,0.9c-0.3,0.6-0.6,1.2-0.9,1.8c-0.1,0.2-0.2,0.4-0.3,0.6
		c-0.2,0.3-0.3,0.7-0.5,1c0,0,0,0-0.1,0c-0.1-0.1,0-0.4,0.1-0.7c0-0.1,0.2-0.2,0.2-0.4c0.1-0.3-0.1-0.7,0.1-1
		c0.3-0.4,0.4-0.9,0.5-1.3c0-0.1,0-0.2,0.1-0.4c0.2-0.4,0.4-0.8,0.7-1.2c-0.1-0.1-0.3-0.3-0.4-0.5c-0.9-1.1-1.3-2.4-1.2-3.8
		c0.1-1.2,0.5-2.4,1.2-3.5c0.3-0.4,0.7-0.8,1.2-0.9c0.6-0.1,1.1,0,1.6,0.4c0.6,0.5,0.8,1.2,0.8,2c0,0.6-0.2,1.1-0.4,1.7
		c-0.6,1.5-1.3,2.7-1.8,4.2c-0.1,0.2,0,0.3,0.2,0.4c0.4,0.2,0.8,0.4,1.2,0.5c0.3,0.1,0.6,0.2,0.8,0.4c0.5,0.4,0.6,0.9,0.6,1.4
		c0.1,0.9-0.3,1.6-0.8,2.2c-0.5,0.6-1,1.2-1.5,1.8c-0.5,0.7-1,1.3-1.2,2.1c-0.1,0.2-0.1,0.4-0.1,0.6c-0.1,0.4-0.1,0.7-0.2,1.1
		c0.1,0,0.3,0,0.4,0c0.4-0.2,0.8-0.5,1.1-0.8c1.4-1.6,2.5-3.4,3.5-5.3c0.5-0.8,1-1.7,1.3-2.6c0.2-0.6,0.5-1.1,0.8-1.7
		c0-0.1,0.1-0.1,0.1-0.1C23.5,45.8,23.5,45.9,23.5,46z M16.9,44.3c0.5-0.9,0.8-1.8,1.1-2.7c0.2-0.6,0.3-1.3,0.3-1.9
		c0-0.4-0.1-0.7-0.3-1.1c-0.2,0.2-0.3,0.3-0.4,0.4c-0.3,0.5-0.5,1.1-0.8,1.7c-0.1,0.1-0.1,0.3-0.1,0.5c-0.1,0.8-0.2,1.6-0.3,2.4
		c-0.1,0.4-0.1,0.8,0.1,1.3c0.1,0,0.1,0,0.1-0.1C16.8,44.5,16.8,44.4,16.9,44.3z"/>
	<path fill="#4C4646" d="M33.1,46.1c-0.1,0.4-0.4,0.6-0.6,0.9c-0.3,0.3-0.4,0.6-0.6,0.9c-0.1,0.1-0.2,0.3-0.3,0.4
		c-0.4,0.5-0.7,0.9-1.1,1.4c-0.3,0.4-0.7,0.7-1,1.1c-0.1,0.1-0.2,0.2-0.3,0.3c-0.5,0.6-1.1,1.3-1.6,1.9c-0.3,0.4-0.6,0.7-0.9,1.1
		c-0.6,0.9-1.5,1.2-2.6,1c-0.3-0.1-0.7-0.1-1-0.2c-0.9-0.3-1.7-0.9-2.1-1.9c-0.4-1-0.5-2-0.3-3.1c0.2-0.7,0.4-1.4,0.6-2.1
		c0.2-0.4,0.3-0.9,0.7-1.2c0.1-0.1,0.1-0.1,0.2-0.2c0.5-0.8,1.1-1.4,1.9-1.8c0.3-0.2,0.6-0.3,0.9-0.5c0.4-0.2,0.8-0.1,1.2,0.1
		c0.2,0.1,0.5,0.2,0.7,0.3c0.3,0.1,0.5,0.2,0.8,0.3c0.2,0.1,0.5,0.2,0.7,0.3c0.4,0.1,0.6,0.3,0.7,0.6c0.1,0.2,0.1,0.4-0.1,0.5
		c-0.2,0.1-0.4,0.3-0.5,0.5c-0.6,0.9-1.2,1.7-1.9,2.5c0,0,0,0-0.1,0.1c-0.3,0.5-0.7,0.9-1.2,1.3c-0.5,0.4-1,0.9-1.6,1.1
		c-0.3,0.1-0.5,0.3-0.7,0.4C23.1,51.8,23,51.8,23,52c0,0.7,0.1,1.3,0.5,1.8c0.2,0.3,0.5,0.4,0.8,0.3c0.3-0.1,0.5-0.3,0.7-0.5
		c0.8-0.8,1.6-1.7,2.4-2.5c0.3-0.4,0.6-0.8,0.9-1.1c0.6-0.8,1.4-1.5,2.2-2.2c0.6-0.6,1.2-1.2,1.8-1.7c0.2-0.2,0.3-0.3,0.5-0.5
		C33.1,45.8,33.1,45.9,33.1,46.1z M23.6,50.3c0.4-0.4,0.8-0.7,1.2-1.1c0.7-0.7,1.5-1.5,2.2-2.2c0.3-0.3,0.6-0.7,0.9-1
		c0.1-0.1,0.1-0.2,0.1-0.3c-0.1,0-0.1,0-0.2,0c-0.6,0-1.2,0.2-1.7,0.6c-0.1,0.1-0.3,0.2-0.4,0.3c-0.4,0.3-0.8,0.6-1.1,0.9
		c-0.5,0.6-1,1.3-1.3,2.1c-0.1,0.3-0.3,0.6-0.3,1C23.4,50.4,23.5,50.4,23.6,50.3z"/>
	<path fill="#4C4646" d="M36.6,44.9c0.2,0.2,0.3,0.3,0.1,0.5c-0.3,0.3-0.6,0.6-1,1c0,0,0.1,0.1,0.2,0.2c0.3,0.2,0.4,0.5,0.5,0.8
		c0.2,1.4,0.2,2.8,0.2,4.2c0,0.7-0.1,1.5-0.1,2.2c0,1.1-0.1,2.2-0.1,3.3c0,0.2,0,0.4,0,0.6c0,0,0.1,0,0.1,0c0.1-0.1,0.2-0.2,0.3-0.3
		c0.2-0.4,0.4-0.7,0.5-1.1c0.5-1.4,0.9-2.9,1.4-4.3c0.1-0.2,0.1-0.5,0.2-0.7c0.1-0.3,0.3-0.6,0.4-1c0.1-0.3,0.2-0.6,0.3-0.9
		c0,0,0-0.1,0-0.1c0.2-0.7,0.5-1.4,0.7-2.2c0-0.1,0.1-0.2,0.2-0.2c0.2-0.1,0.3,0.1,0.3,0.3c0,0.1,0,0.2-0.1,0.3
		c-0.2,0.5-0.4,1-0.5,1.6c-0.2,0.7-0.4,1.4-0.6,2.1c-0.1,0.2-0.1,0.4-0.2,0.5c-0.3,0.8-0.5,1.5-0.8,2.3c-0.2,0.7-0.4,1.3-0.7,2
		c0,0.1-0.1,0.2-0.1,0.3c-0.2,0.3-0.4,0.6-0.4,1c0,0.2-0.2,0.4-0.3,0.6c-0.1,0.2-0.2,0.3-0.2,0.5c-0.1,0.2-0.2,0.3-0.4,0.3
		c-0.6,0.1-1.3-0.2-1.6-0.8c-0.4-0.6-0.5-1.3-0.6-1.9c-0.1-1-0.1-2.1,0-3.1c0-0.1,0-0.3,0-0.4c-0.2,0.3-0.4,0.6-0.6,1
		c-0.3,0.7-0.8,1.1-1.3,1.5c0,0-0.1,0.1-0.1,0.1c-0.2,0.3-0.5,0.3-0.8,0.3c-0.3,0-0.6-0.1-0.8-0.3c-0.6-0.6-0.9-1.3-0.9-2.1
		c-0.1-0.7,0.1-1.4,0.3-2.1c0.5-1.7,1.3-3.2,2.4-4.5c0.4-0.5,0.8-1,1.3-1.4c0.3-0.3,0.6-0.6,1-0.8c0.2-0.2,0.5-0.2,0.8-0.3
		c0.1,0,0.3,0,0.3,0.1c0.2,0.2,0.4,0.4,0.6,0.6c0.1,0.1,0.1,0.2,0.1,0.4C36.5,44.9,36.6,44.9,36.6,44.9z M32,53.9
		c0.8-0.9,1.5-2,2-3.1c0.2-0.4,0.4-0.9,0.6-1.3c0.3-0.7,0.3-1.5,0.4-2.4c-0.6,0.3-0.8,0.9-1.1,1.4c-0.4,0.7-0.8,1.4-1.1,2.1
		c0,0,0,0.1,0,0.1c-0.3,0.9-0.7,1.8-1,2.6c-0.1,0.3-0.2,0.5-0.1,0.9C31.7,54.1,31.9,54,32,53.9z"/>
	<path fill="#4C4646" d="M41,46.4c0.3,0.3,0.5,0.7,0.5,1.2c0,1-0.1,2-0.4,3c-0.2,0.6-0.4,1.1-0.6,1.6c-0.3,0.6-0.6,1.1-0.8,1.7
		c0,0,0,0.1,0,0.2c0.4-0.2,0.7-0.4,1-0.6c0.5-0.5,0.9-1.1,1.2-1.7c0.3-0.7,0.6-1.3,0.9-2c0.3-0.8,0.6-1.6,1-2.3
		c0.3-0.8,0.8-1.4,1.6-1.6c0.2,0.1,0.4,0.1,0.6,0.2c0.7,0.3,1,0.8,1.1,1.6c0.1,1.1-0.2,2.1-0.6,3.1c-0.2,0.6-0.3,1.2-0.5,1.8
		c0.2-0.2,0.4-0.4,0.5-0.7c0.5-0.9,1-1.8,1.5-2.7c0.3-0.5,0.6-1.1,0.9-1.6c0.1-0.2,0.2-0.4,0.3-0.6c0.5-0.7,1-1.4,1.5-2.1
		c0.2-0.2,0.3-0.4,0.5-0.6c0.4-0.4,0.6-0.4,1.1-0.1c0.5,0.2,0.7,0.5,0.9,1c0.2,0.6,0.2,1.2,0,1.8c-0.2,0.9-0.5,1.7-0.8,2.5
		c-0.4,1-0.7,2-1.1,2.9c-0.2,0.6-0.5,1.3-0.7,1.9c-0.2,0.7-0.6,1.4-0.7,2.1c-0.1,0.4-0.1,0.9,0.1,1.3c0.1,0.2,0.3,0.4,0.5,0.5
		c0.1,0,0.2,0.1,0.3,0.2c0.1,0.1,0.1,0.2,0.2,0.3c0,0-0.1,0.1-0.2,0.2c-0.2,0.1-0.4,0.1-0.6,0c-0.2-0.1-0.3-0.2-0.5-0.3
		c-0.1,0-0.1-0.1-0.2-0.1c-0.6-0.1-0.9-0.5-1.1-1c-0.4-0.6-0.5-1.3-0.4-2.1c0.1-0.8,0.3-1.5,0.6-2.3c0.3-0.8,0.7-1.7,1-2.5
		c0.6-1.6,1.3-3.1,1.9-4.7c0-0.1,0.1-0.2,0-0.3c-0.2,0.2-0.5,0.5-0.7,0.7c-0.5,0.6-1,1.3-1.3,2c-0.5,1-1,1.9-1.6,2.9
		c-0.2,0.4-0.4,0.8-0.6,1.1c-0.3,0.5-0.6,0.9-0.9,1.4c-0.3,0.5-1.2,0.7-1.7,0.6c-0.8-0.3-1.2-0.8-1.1-1.6c0-0.3,0.1-0.7,0.2-1
		c0.2-0.9,0.5-1.8,0.9-2.7c0.2-0.6,0.4-1.1,0.6-1.8c-0.3,0.2-0.4,0.4-0.6,0.7c-0.2,0.5-0.4,0.9-0.6,1.4c-0.5,1.4-1.1,2.8-2,4.1
		c-0.3,0.4-0.6,0.8-1.1,1c-0.3,0.1-0.6,0.3-0.8,0.5C39.9,55,39.5,55.1,39,55c-0.3-0.1-0.7-0.2-0.8-0.6c-0.1-0.2-0.3-0.4-0.4-0.7
		c-0.1-0.4-0.1-0.7,0.1-1.1c0.2-0.7,0.5-1.4,0.8-2.1c0.6-1.3,0.9-2.7,1.2-4.1c0-0.2,0-0.3,0-0.5C40.4,46,40.8,46.1,41,46.4z"/>
	<path fill="#4C4646" d="M51.9,59.7c-0.5-0.7-0.6-1.5-0.4-2.3c0.2-0.6,0.5-1.1,1-1.5c0.5-0.4,1-0.9,1.5-1.3c0.3-0.2,0.6-0.5,0.9-0.7
		c0.1-0.1,0.3-0.2,0.5-0.4c-0.2-0.7-0.4-1.4-0.6-2c-0.3-1-0.6-2-0.7-3c-0.1-0.3,0-0.6,0-1c0.1-0.4,0.2-0.9,0.3-1.3
		c0.1-0.2,0.2-0.5,0.3-0.6c0.3-0.3,0.6-0.6,0.9-0.9c0.1-0.1,0.3-0.2,0.4-0.2c0.6-0.2,1.2-0.2,1.8-0.2c0.5,0,0.9,0.2,1.3,0.5
		c0.4,0.2,0.6,0.6,0.7,1.1c0.1,0.2,0.1,0.4,0.1,0.6s0,0.4-0.1,0.6c-0.1,0.3-0.3,0.5-0.5,0.7c-0.3,0.4-0.6,0.5-1,0
		c0.1-0.1,0.1-0.2,0.2-0.3c0.3-0.4,0.3-0.8,0.2-1.3c0-0.1,0-0.3-0.1-0.4c0-0.3-0.2-0.5-0.5-0.5c-0.4,0-0.7,0.1-0.9,0.3
		c-0.3,0.2-0.5,0.4-0.7,0.6c-0.2,0.3-0.3,0.6-0.3,1c0,0.3,0,0.7-0.1,1c0,0.4,0,0.9,0.1,1.3c0.2,0.8,0.4,1.6,0.6,2.4
		c0,0.1,0.1,0.3,0.1,0.4c0.2-0.1,0.3-0.2,0.4-0.2c1.8-1.3,3.6-2.4,5.5-3.4c0.5-0.3,1.1,0,1.2,0.6c-0.8,0.5-1.7,0.9-2.5,1.4
		c-1.2,0.8-2.5,1.5-3.7,2.3c0,0-0.1,0-0.1,0.1c-0.5,0.4-0.5,0.3-0.3,0.9c0.2,0.7,0.3,1.3,0.5,2c0.1,0.4,0.1,0.8,0.2,1.1
		c0,0.4,0,0.8-0.2,1.2c-0.3,0.6-0.7,1.2-1.2,1.6c-0.4,0.3-0.7,0.5-1.1,0.8c-0.2,0.2-0.5,0.3-0.8,0.2c-0.4,0-0.8,0-1.1-0.1
		c-0.4-0.1-0.8-0.1-1.1-0.4c-0.1-0.1-0.3-0.1-0.3-0.2C52.1,60,52,59.8,51.9,59.7z M54.8,55.1c-0.3,0.2-0.6,0.5-1,0.7
		c-0.5,0.2-0.8,0.5-1.1,0.9c-0.3,0.5-0.5,1-0.6,1.6c0,0.4,0.1,0.8,0.3,1.1c0.2,0.3,0.5,0.5,0.9,0.6c0.6,0,1.2,0,1.6-0.5
		c0.3-0.3,0.5-0.7,0.7-1.1c0.3-0.7,0.5-1.4,0.4-2.1c-0.1-0.6-0.2-1.1-0.4-1.7C55.4,54.7,55.1,54.9,54.8,55.1z"/>
</g>
</svg>
