<?xml version="1.0" encoding="utf-8"?>
<!-- Generator: Adobe Illustrator 19.2.0, SVG Export Plug-In . SVG Version: 6.00 Build 0)  -->
<svg version="1.1" id="Layer_1" xmlns="http://www.w3.org/2000/svg" xmlns:xlink="http://www.w3.org/1999/xlink" x="0px" y="0px"
	 viewBox="0 0 154 27" enable-background="new 0 0 154 27" xml:space="preserve">
<g>
	<g id="logo_5_">
		<path fill="#545454" d="M13.1,27L13.1,27C5.9,27,0,21.1,0,13.9v0C0,6.7,5.9,0.9,13.1,0.9h0c7.2,0,13.1,5.9,13.1,13.1v0
			C26.1,21.1,20.3,27,13.1,27z"/>
		<path fill="#313639" d="M20.4,12.8c0-2.3-1.9-4.1-4.1-4.1c-1.3,0-2.4,0.6-3.2,1.5c-0.8-0.9-1.9-1.5-3.2-1.5
			c-2.3,0-4.1,1.9-4.1,4.1c0,3.6,5.7,7.3,7,8.1c0.2,0.1,0.4,0.1,0.6,0C14.7,20.1,20.4,16.4,20.4,12.8z"/>
		<path fill="#545454" d="M13.9,13.8c0-0.5-0.4-0.9-0.9-0.9c-0.5,0-0.9,0.4-0.9,0.9c0,0.3,0.2,0.6,0.4,0.7l-0.7,2h2.3l-0.7-2
			C13.8,14.4,13.9,14.1,13.9,13.8z"/>
	</g>
	<g>
		<path fill="#545454" d="M49.1,9.9c0,0.1,0,0.1,0,0.2c-0.1,0.3-0.3,0.6-0.6,0.8c-0.6,0.3-0.2,0.7-0.3,1.3c-0.2,0.7,0.1,3,0.2,3.7
			c0.1,0.8,0.3,1.9,0.5,2.7c0.4,1.6,0.5,3.4,1.6,3.7c0.1,0,0.3,0.1,0.4,0.2c0.1,0.1,0.1,0.5-0.1,0.6c-0.4,0.3-0.8,0.3-1.2,0.1
			c-0.9-0.4-1.5-1-1.8-2c-0.4-1.1-0.7-2.3-0.9-3.5c-0.2-1.1-0.3-2.2-0.4-3.3c0-0.1-0.2-2.2-0.1-2.3c-0.1,0-0.4,0.1-0.4,0.2
			c-0.6,0.3-1.3,0.7-1.9,1c-0.2,0.1-0.2,0.2-0.3,0.3c-0.1,0.8-0.3,1.7-0.4,2.5c-0.1,0.7-0.1,1.3-0.1,2c0,0.5,0,1.1-0.1,1.6
			c0,0.3-0.1,0.5-0.2,0.8c-0.1,0.4-0.1,0.9-0.2,1.3c-0.1,0.3-0.2,0.5-0.2,0.8c-0.1,0.3-0.2,0.6-0.2,1c-0.1,0.2-0.1,0.3-0.3,0.4
			c-0.1,0-0.1,0.1-0.2,0.2c-0.2,0.5-0.7,0.9-1.1,1.2c-0.3,0.2-0.7,0.3-1.1,0c-0.1,0-0.1-0.1-0.2-0.1c-0.5-0.1-0.9-0.3-1.2-0.6
			c-0.2-0.1-0.3-0.3-0.3-0.5c0,0,0-0.1,0-0.1c-0.4-0.7-0.2-1.5-0.4-2.2c-0.1-0.3,0-0.7,0.1-1c0-0.3,0.1-0.5,0.1-0.8
			c0-0.2,0.1-0.5,0.1-0.7c0.1-0.4,0.3-0.9,0.4-1.3c0-0.1,0.1-0.2,0.1-0.3c0.5-0.9,0.9-1.8,1.5-2.6c0.5-0.6,1-1.2,1.7-1.6
			c0.2-0.1,0.3-0.3,0.3-0.5c0.2-1.2,0.4-2.5,0.6-3.7c0.3-1.1,0.6-2.2,1.3-3.1c0.4-0.6,1-1.1,1.6-1.3c0.4-0.2,0.9,0,1.1,0.4
			c0.1,0.2,0.2,0.3,0.3,0.4c0.6,0.6,0.9,1.3,1.1,2.1c0,0.1,0.1,0.3,0.1,0.4C48.5,8.9,48.9,9.3,49.1,9.9z M41.2,15
			c-0.2,0.3-0.5,0.6-0.7,0.9c-0.6,0.7-1,1.5-1.4,2.3c-0.1,0.1-0.1,0.3-0.2,0.5c-0.1,0.4-0.3,0.7-0.4,1.1c-0.1,0.3-0.1,0.5-0.2,0.8
			c-0.1,0.2-0.1,0.4-0.1,0.6c-0.2,0.7-0.3,1.4-0.2,2.1c0,0.1,0,0.2,0,0.3c0,0.8,0.4,1.2,1,1.5c0.3,0.1,0.6,0.1,0.8-0.1
			c0.1-0.1,0.3-0.3,0.4-0.5c0.3-0.5,0.5-1.1,0.6-1.6c0.3-1.2,0.3-2.5,0.3-3.8c0.1-1.2,0.1-2.5,0.2-3.7c0-0.1,0-0.3,0-0.5
			C41.3,14.9,41.2,15,41.2,15z M40.3,25.3L40.3,25.3c-0.1,0-0.1,0-0.1,0.1c0,0,0,0.1,0.1,0.2C40.2,25.3,40.3,25.3,40.3,25.3z
			 M43.9,12.3c0.8-0.4,1.6-0.8,2.3-1.3c0.1-0.1,0.2-0.2,0.2-0.3c0.3-1.1,0.4-2.3,0-3.4c-0.1-0.2-0.1-0.3-0.2-0.4
			c-0.3,0.2-0.5,0.4-0.8,0.6c0,0-0.1,0.1-0.1,0.1c-0.4,0.4-0.6,1-0.8,1.5c-0.2,0.7-0.4,1.5-0.6,2.2c-0.1,0.3-0.2,0.6-0.2,1
			C43.8,12.3,43.9,12.3,43.9,12.3z"/>
		<path fill="#545454" d="M52,12.7c0.3,0.3,0.4,0.6,0.4,1c0,0.9-0.1,1.7-0.3,2.5c-0.1,0.5-0.3,0.9-0.5,1.4c-0.2,0.5-0.5,1-0.7,1.5
			c0,0,0,0.1,0,0.1c0.3-0.1,0.6-0.3,0.9-0.5c0.5-0.4,0.8-0.9,1-1.5c0.3-0.6,0.5-1.1,0.8-1.7c0.3-0.6,0.5-1.3,0.8-2
			c0.3-0.6,0.6-1.2,1.3-1.4c0.2,0.1,0.3,0.1,0.5,0.2c0.6,0.2,0.9,0.7,0.9,1.3c0.1,0.9-0.2,1.8-0.5,2.6c-0.2,0.5-0.3,1-0.4,1.5
			c0.2-0.1,0.3-0.4,0.5-0.6c0.4-0.8,0.9-1.5,1.3-2.3c0.3-0.5,0.5-0.9,0.8-1.4c0.1-0.2,0.2-0.3,0.3-0.5c0.4-0.6,0.9-1.2,1.3-1.8
			c0.1-0.2,0.3-0.3,0.5-0.5c0.3-0.3,0.5-0.3,0.9-0.1c0.4,0.2,0.6,0.5,0.7,0.9c0.2,0.5,0.2,1,0,1.6c-0.2,0.7-0.4,1.4-0.7,2.2
			c-0.3,0.8-0.6,1.7-1,2.5c-0.2,0.5-0.4,1.1-0.6,1.6c-0.2,0.6-0.5,1.2-0.6,1.8c-0.1,0.4-0.1,0.7,0.1,1.1c0.1,0.2,0.2,0.4,0.4,0.4
			c0.1,0,0.2,0.1,0.3,0.2c0.1,0.1,0.1,0.1,0.1,0.2c0,0-0.1,0.1-0.2,0.1c-0.2,0.1-0.3,0.1-0.5,0c-0.1-0.1-0.3-0.2-0.4-0.2
			c-0.1,0-0.1-0.1-0.2-0.1c-0.5-0.1-0.7-0.5-1-0.8c-0.3-0.5-0.4-1.1-0.3-1.8c0.1-0.7,0.3-1.3,0.5-1.9c0.3-0.7,0.6-1.4,0.9-2.2
			c0.5-1.3,1.1-2.7,1.6-4c0-0.1,0.1-0.2,0-0.3c-0.2,0.2-0.4,0.4-0.6,0.6c-0.4,0.5-0.8,1.1-1.1,1.7c-0.4,0.8-0.9,1.7-1.3,2.5
			c-0.2,0.3-0.4,0.6-0.5,1c-0.2,0.4-0.5,0.8-0.7,1.2c-0.3,0.4-1,0.6-1.5,0.5c-0.6-0.2-1-0.7-0.9-1.4c0-0.3,0.1-0.6,0.1-0.8
			c0.2-0.8,0.4-1.5,0.7-2.3c0.2-0.5,0.4-1,0.5-1.5c-0.3,0.2-0.4,0.4-0.5,0.6c-0.2,0.4-0.3,0.8-0.5,1.2c-0.5,1.2-1,2.4-1.7,3.5
			c-0.2,0.4-0.5,0.7-1,0.9c-0.3,0.1-0.5,0.3-0.7,0.5c-0.3,0.2-0.6,0.4-1,0.3c-0.3-0.1-0.6-0.2-0.7-0.5c-0.1-0.2-0.3-0.4-0.3-0.6
			c-0.1-0.3-0.1-0.6,0.1-0.9c0.2-0.6,0.4-1.2,0.7-1.8c0.5-1.1,0.8-2.3,1-3.5c0-0.1,0-0.3,0-0.4C51.5,12.3,51.8,12.4,52,12.7z"/>
		<path fill="#545454" d="M73,12.4c-0.1,0.3-0.3,0.5-0.5,0.8c-0.2,0.2-0.4,0.5-0.5,0.7c-0.1,0.1-0.1,0.2-0.2,0.3
			c-0.3,0.4-0.6,0.8-1,1.2c-0.3,0.3-0.6,0.6-0.8,0.9c-0.1,0.1-0.2,0.2-0.3,0.3c-0.5,0.5-0.9,1.1-1.4,1.6c-0.3,0.3-0.5,0.6-0.8,1
			c-0.5,0.8-1.3,1-2.2,0.9c-0.3-0.1-0.6-0.1-0.8-0.2c-0.8-0.3-1.5-0.8-1.8-1.6c-0.3-0.9-0.4-1.7-0.2-2.6c0.2-0.6,0.3-1.2,0.5-1.8
			c0.1-0.4,0.3-0.8,0.6-1.1c0.1-0.1,0.1-0.1,0.1-0.2c0.4-0.7,0.9-1.2,1.6-1.5c0.3-0.2,0.5-0.3,0.8-0.4c0.4-0.2,0.7-0.1,1,0.1
			c0.2,0.1,0.4,0.2,0.6,0.2c0.2,0.1,0.5,0.1,0.7,0.2c0.2,0.1,0.4,0.2,0.6,0.2c0.3,0.1,0.5,0.2,0.6,0.5c0.1,0.2,0.1,0.3-0.1,0.4
			c-0.2,0.1-0.3,0.2-0.4,0.4c-0.5,0.8-1,1.5-1.6,2.1c0,0,0,0-0.1,0.1c-0.2,0.5-0.6,0.8-1,1.1c-0.4,0.3-0.8,0.8-1.4,0.9
			c-0.2,0.1-0.4,0.2-0.6,0.3c-0.1,0.1-0.2,0.1-0.2,0.2c0,0.6,0.1,1.1,0.4,1.6c0.2,0.2,0.4,0.3,0.7,0.2c0.2-0.1,0.5-0.2,0.6-0.4
			c0.7-0.7,1.4-1.4,2.1-2.1c0.3-0.3,0.5-0.6,0.8-1c0.5-0.7,1.2-1.3,1.9-1.9c0.5-0.5,1-1,1.5-1.5c0.1-0.1,0.3-0.3,0.4-0.4
			C73.1,12.1,73.1,12.3,73,12.4z M64.9,16c0.4-0.3,0.7-0.6,1-1c0.6-0.6,1.3-1.2,1.9-1.9c0.3-0.3,0.5-0.6,0.8-0.9
			c0.1-0.1,0.1-0.1,0.1-0.2c-0.1,0-0.1,0-0.2,0c-0.5,0-1,0.2-1.4,0.5c-0.1,0.1-0.2,0.2-0.4,0.3c-0.3,0.3-0.7,0.5-0.9,0.8
			c-0.4,0.5-0.9,1.1-1.1,1.8c-0.1,0.3-0.3,0.5-0.3,0.9C64.7,16.1,64.8,16.1,64.9,16z"/>
		<path fill="#545454" d="M72.1,9.5c0.3-1.2,0.7-2.4,1.1-3.6c0.4-1.1,0.9-2.1,1.6-3c0.1-0.1,0.2-0.3,0.3-0.4
			c0.5-0.6,1.1-1.1,1.7-1.5c0.6-0.4,1.2-0.8,2-0.9c0.2,0,0.4,0,0.6,0c0.8,0.2,1.5,0.5,1.9,1.2c0.2,0.3,0.2,0.6,0.3,0.9
			c0.1,0.7-0.3,1.3-0.6,1.9c-0.2,0.3-0.3,0.5-0.5,0.8c-0.2,0.4-0.4,0.9-0.7,1.2c-0.1,0.1-0.1,0.2-0.2,0.2C79,7,78.4,7.6,77.7,8.2
			c-0.7,0.6-1.4,1.1-2.2,1.5c-0.5,0.3-1,0.4-1.6,0.6c-0.2,0.1-0.2,0.1-0.3,0.3c-0.2,1.1-1.3,4.2-1.5,5.3c-0.1,0.5-0.2,1-0.2,1.6
			c-0.1,0.9-0.6,3.2-0.3,4.1c0.1,0.4,0.2,0.7,0.4,1.1c0.1,0.3,0.2,0.3,0.5,0.1c0.7-0.5,1.4-0.9,1.8-1.7c0.1-0.3,0.5-1.1,0.8-1.8
			c0.2-0.2,0.5-0.9,0.6-1.1c0.1-0.3,0.3-0.6,0.4-0.8c0.2-0.3,0.2-0.3,0.5-0.1c0.1,0.4,0.1,0.7-0.1,1C76,19.2,75.2,21,74.8,22
			c-0.2,0.4-0.4,0.9-0.8,1.2c-0.6,0.6-1.3,0.6-2.1,0.5c-0.1,0-0.2-0.1-0.2-0.1c-0.9-0.7-1.5-1.6-1.7-2.8c-0.2-1.1,0.3-3.6,0.4-4.8
			c0.2-1.2,1.3-4.3,1.5-5.5c0-0.2,0-0.4,0-0.5C71.9,9.8,72,9.6,72.1,9.5z M75.1,8.4c1.3-0.9,2.5-2,3.4-3.4c0.4-0.7,0.9-1.5,1.3-2.3
			c0.2-0.4,0.3-0.8,0.4-1.2c0-0.3,0-0.4-0.4-0.4c-0.3,0-0.5,0-0.8,0.1c-0.6,0.3-1.2,0.5-1.6,1c-0.2,0.2-0.4,0.4-0.5,0.6
			c-0.1,0.3-0.2,0.5-0.4,0.7c-0.1,0.1-0.2,0.3-0.3,0.4c-0.4,0.7-0.8,1.4-1.1,2.2c-0.1,0.2-0.2,0.4-0.2,0.6c-0.3,0.7-0.6,1.5-0.7,2.3
			C74.5,8.7,74.8,8.6,75.1,8.4z"/>
		<path fill="#545454" d="M83.2,13.8c-0.2,0-0.4,0-0.5,0.2c-0.1,0.1-0.2,0.2-0.2,0.3c-0.3,0.6-0.6,1.2-0.9,1.8
			c-0.2,0.5-0.4,1.1-0.6,1.6c-0.2,0.6-0.5,1.2-1,1.7c-0.2,0.2-0.4,0.3-0.7,0.4c-0.7,0.3-1.3,0.1-1.8-0.4c-0.5-0.5-0.7-1-0.7-1.7
			c0.1-0.6,0.2-1.3,0.4-1.9c0.3-1,0.6-1.9,0.9-2.8c0.2-0.7,0.4-1.4,0.6-2.1c0-0.1,0.1-0.1,0.1-0.2c0.3,0,0.7,0.1,1,0.3
			c0.3,0.2,0.5,0.6,0.4,1c-0.1,0.4-0.2,0.9-0.3,1.3c-0.1,0.3-0.2,0.6-0.2,0.9c-0.2,0.6-0.4,1.2-0.6,1.8c-0.2,0.4-0.3,0.9-0.4,1.3
			c-0.1,0.5-0.2,1.1-0.3,1.6c0,0.1,0,0.1,0,0.2c0.5,0,0.8-0.3,1-0.6c0.6-0.9,1.1-1.8,1.5-2.8c0.3-0.7,0.7-1.4,1.1-2
			c0.2-0.4,0.6-0.7,1.1-0.6c0.2,0.1,0.4,0.2,0.6,0.3C83.5,13.8,83.5,13.8,83.2,13.8z M81,6.7c0.1,0.2,0.1,0.3,0,0.5
			c-0.1,0.3-0.2,0.7-0.2,1c-0.1,0.2-0.2,0.4-0.3,0.6c-0.2,0.2-0.7,0.2-0.9,0.1c-0.1-0.1-0.1-0.2-0.1-0.3c0-0.4,0-0.8,0.1-1.3
			c0.1-0.4,0.2-0.8,0.2-1.2C80.3,6.1,80.8,6.4,81,6.7z"/>
		<path fill="#545454" d="M87.9,11.4c0.2,0.1,0.2,0.2,0.1,0.4c-0.3,0.3-0.5,0.5-0.8,0.8c0,0,0.1,0.1,0.1,0.1
			c0.2,0.2,0.4,0.4,0.4,0.7c0.2,1.2,0.2,2.4,0.2,3.6c0,0.6-0.1,1.2-0.1,1.9c0,0.9-0.1,1.9-0.1,2.8c0,0.2,0,0.4,0,0.5
			c0,0,0.1,0,0.1,0c0.1-0.1,0.2-0.2,0.2-0.3c0.2-0.3,0.3-0.6,0.4-1c0.4-1.2,0.8-2.5,1.2-3.7c0.1-0.2,0.1-0.4,0.2-0.6
			c0.1-0.3,0.2-0.5,0.3-0.8c0.1-0.3,0.2-0.5,0.3-0.8c0,0,0-0.1,0-0.1c0.2-0.6,0.4-1.2,0.6-1.8c0-0.1,0.1-0.2,0.2-0.2
			c0.2-0.1,0.3,0.1,0.3,0.3c0,0.1,0,0.2-0.1,0.2c-0.2,0.4-0.3,0.9-0.5,1.3c-0.2,0.6-0.3,1.2-0.5,1.8c-0.1,0.2-0.1,0.3-0.1,0.4
			c-0.2,0.6-0.4,1.3-0.7,1.9c-0.2,0.6-0.4,1.1-0.6,1.7c0,0.1-0.1,0.2-0.1,0.3c-0.2,0.3-0.3,0.5-0.3,0.8c0,0.2-0.2,0.4-0.3,0.5
			c-0.1,0.1-0.2,0.3-0.2,0.4c-0.1,0.2-0.2,0.3-0.3,0.3c-0.5,0.1-1.1-0.2-1.4-0.7c-0.3-0.5-0.4-1.1-0.5-1.6c-0.1-0.9-0.1-1.8,0-2.7
			c0-0.1,0-0.2,0-0.4c-0.2,0.3-0.4,0.5-0.5,0.8c-0.2,0.6-0.6,1-1.1,1.3c0,0-0.1,0.1-0.1,0.1c-0.2,0.3-0.4,0.3-0.6,0.3
			c-0.3,0-0.5-0.1-0.7-0.3c-0.5-0.5-0.7-1.1-0.8-1.8c-0.1-0.6,0.1-1.2,0.3-1.8c0.4-1.5,1.1-2.7,2.1-3.9c0.4-0.4,0.7-0.8,1.1-1.2
			c0.3-0.3,0.5-0.5,0.8-0.7c0.2-0.1,0.4-0.2,0.6-0.2c0.1,0,0.2,0,0.3,0.1c0.2,0.2,0.3,0.3,0.5,0.5c0.1,0.1,0.1,0.2,0.1,0.3
			C87.8,11.4,87.8,11.4,87.9,11.4z M83.9,19c0.7-0.8,1.2-1.7,1.7-2.6c0.2-0.4,0.3-0.7,0.5-1.1c0.3-0.6,0.2-1.3,0.4-2
			c-0.5,0.3-0.7,0.7-1,1.2c-0.4,0.6-0.6,1.2-1,1.8c0,0,0,0.1,0,0.1c-0.3,0.8-0.6,1.5-0.8,2.3c-0.1,0.2-0.2,0.5-0.1,0.8
			C83.7,19.2,83.8,19.1,83.9,19z"/>
		<path fill="#545454" d="M103.3,15c-0.1,0.4-0.3,0.8-0.4,1.2c-0.1,0.2-0.1,0.4-0.1,0.5c-0.1,1.2,0.1,2.4,0.6,3.6
			c0.1,0.3,0.3,0.5,0.5,0.7c0.1,0.2,0.4,0.1,0.6-0.1c0.2-0.2,0.4-0.4,0.5-0.6c0.7-0.9,1.3-1.9,1.8-3c0.1-0.2,0.3-0.5,0.4-0.7
			c0.8-1.5,1.2-3.1,1.4-4.7c0.1-0.7,0.1-1.4,0.1-2.2c0-1-0.1-1.9-0.6-2.8c-0.1-0.2-0.3-0.4-0.5-0.6c-0.1-0.1-0.2-0.1-0.3-0.1
			c-0.2,0-0.3,0-0.4,0.1c-0.5,0.3-1,0.6-1.4,1c-0.6,0.4-1.1,1-1.5,1.6c-0.3,0.5-1.3,2-1.6,2.4c0,0.1-0.1,0.1-0.1,0.2
			c-0.3,0.2-0.4,0.5-0.4,0.8c0,1.2-0.1,1.8-0.2,3.1c0,0.2-0.1,0.5-0.1,0.7c0,0.2-0.1,0.5-0.1,0.7c0,0.9-0.1,1.7-0.5,2.4
			c-0.2,0.3-0.8,0.6-1.1,0.4c-0.2-0.1-0.4-0.2-0.5-0.4c-0.2-0.1-0.2-0.3,0-0.4c0.3-0.2,0.2-0.2,0.3-0.6c0.1-0.9,0.1-1.8,0.2-2.7
			c0.1-1.6-0.1-2.1-0.1-3.5c0-1.1-0.5-3.6-0.6-4.6c0-0.3-0.1-0.5-0.1-0.8c0-0.2,0.1-0.3,0.4-0.2c0.2,0.1,0.3,0.1,0.5,0.1
			c0.4,0.1,0.7,0.2,1,0.4c0.1,0.1,0.2,0.2,0.2,0.4c0.1,0.4,0.1,2.8,0.2,3.1c0,0.1,0.1,0.3,0.1,0.4c0.2,0,0.6-0.8,0.7-0.9
			c0.4-0.6,1.8-2.6,2.4-3.1c0.5-0.4,0.9-0.8,1.5-1.1c0.8-0.5,1.6-0.5,2.4,0c0.5,0.3,0.9,0.8,1.2,1.3c0.6,0.9,0.9,1.9,0.9,3
			c0.1,1,0,2-0.2,3c-0.1,0.3-0.1,0.5-0.2,0.8c-0.1,0.7-0.4,1.4-0.7,2.1c-0.1,0.3-0.2,0.5-0.3,0.8c-0.4,0.7-0.8,1.4-1.2,2.1
			c-0.4,0.5-0.7,1-1.1,1.5c-0.2,0.3-0.4,0.5-0.6,0.7c-0.3,0.3-0.6,0.5-1,0.8c-0.3,0.2-0.6,0.2-0.9,0.1c-0.8-0.2-1.3-0.7-1.6-1.3
			c-0.1-0.2-0.2-0.3-0.3-0.5c-0.3-0.5-0.3-1-0.4-1.5c0-0.1,0-0.1,0-0.2c0-0.6,0-1.3,0-2c0-0.1,0-0.3,0.1-0.4
			c0.2-0.4,0.4-0.9,0.4-1.3c0-0.1,0.1-0.3,0.1-0.4c0.1-0.2,0.2-0.3,0.4-0.3C103.5,14.4,103.5,14.5,103.3,15z"/>
		<path fill="#545454" d="M119.4,12.3c-0.1,0.3-0.2,0.6-0.3,0.9c-0.2,0.3-0.2,0.6-0.3,0.9c0,0.2-0.1,0.3-0.1,0.4
			c-0.2,0.5-0.4,1-0.5,1.5c0,0.1-0.1,0.2-0.1,0.3c-0.6,1.1-1.2,2.2-1.9,3.2c-0.4,0.5-0.8,1-1.2,1.5c-0.1,0.1-0.3,0.3-0.5,0.4
			c-0.2,0.2-0.4,0.3-0.6,0.4c-0.3,0.2-1,0.2-1.4,0c-0.4-0.3-0.6-0.6-0.8-1.1c-0.2-0.7-0.1-1.3,0.2-2c0.4-1.2,1.1-2.2,1.9-3.1
			c0.3-0.4,0.6-0.7,0.9-1.1c0.2-0.3,0.2-0.4,0.2-0.7c-0.5-0.2-0.9-0.4-1.4-0.6c-0.2,0.2-0.4,0.5-0.5,0.8c-0.2,0.5-0.5,1.1-0.8,1.5
			c-0.1,0.1-0.2,0.3-0.2,0.5c-0.1,0.3-0.3,0.6-0.4,0.9c0,0,0,0-0.1,0c-0.1-0.1,0-0.4,0.1-0.6c0-0.1,0.2-0.2,0.2-0.3
			c0.1-0.3-0.1-0.6,0.1-0.8c0.2-0.4,0.3-0.7,0.4-1.1c0-0.1,0-0.2,0.1-0.3c0.2-0.3,0.4-0.7,0.6-1c-0.1-0.1-0.2-0.3-0.3-0.4
			c-0.8-1-1.1-2.1-1-3.3c0.1-1.1,0.4-2.1,1.1-3c0.3-0.4,0.6-0.7,1-0.8c0.5-0.1,1,0,1.4,0.3c0.5,0.4,0.7,1,0.7,1.7
			c0,0.5-0.1,1-0.3,1.4c-0.5,1.3-1.1,2.3-1.5,3.6c-0.1,0.2,0,0.2,0.2,0.3c0.3,0.2,0.7,0.3,1,0.4c0.3,0.1,0.5,0.2,0.7,0.3
			c0.4,0.3,0.5,0.7,0.5,1.2c0.1,0.7-0.3,1.3-0.7,1.9c-0.4,0.5-0.9,1-1.2,1.6c-0.4,0.6-0.8,1.1-1,1.8c-0.1,0.2-0.1,0.3-0.1,0.5
			c-0.1,0.3-0.1,0.6-0.1,1c0.1,0,0.2,0,0.3,0c0.4-0.2,0.7-0.4,1-0.7c1.2-1.4,2.1-2.9,3-4.5c0.4-0.7,0.8-1.4,1.1-2.2
			c0.2-0.5,0.5-1,0.7-1.5c0-0.1,0.1-0.1,0.1-0.1C119.4,12.1,119.4,12.2,119.4,12.3z M113.8,10.9c0.4-0.7,0.7-1.5,1-2.3
			c0.2-0.5,0.3-1.1,0.3-1.7c0-0.3-0.1-0.6-0.3-1c-0.1,0.2-0.3,0.3-0.3,0.4c-0.2,0.5-0.4,0.9-0.6,1.4c-0.1,0.1-0.1,0.3-0.1,0.4
			c-0.1,0.7-0.2,1.3-0.3,2c-0.1,0.4-0.1,0.7,0.1,1.1c0.1,0,0.1,0,0.1-0.1C113.6,11.1,113.7,11,113.8,10.9z"/>
		<path fill="#545454" d="M127.6,12.4c-0.1,0.3-0.3,0.5-0.5,0.8c-0.2,0.2-0.4,0.5-0.5,0.7c-0.1,0.1-0.1,0.2-0.2,0.3
			c-0.3,0.4-0.6,0.8-1,1.2c-0.3,0.3-0.6,0.6-0.8,0.9c-0.1,0.1-0.2,0.2-0.3,0.3c-0.5,0.5-0.9,1.1-1.4,1.6c-0.3,0.3-0.5,0.6-0.8,1
			c-0.5,0.8-1.3,1-2.2,0.9c-0.3-0.1-0.6-0.1-0.8-0.2c-0.8-0.3-1.5-0.8-1.8-1.6c-0.3-0.9-0.4-1.7-0.2-2.6c0.2-0.6,0.3-1.2,0.5-1.8
			c0.1-0.4,0.3-0.8,0.6-1.1c0.1-0.1,0.1-0.1,0.1-0.2c0.4-0.7,0.9-1.2,1.6-1.5c0.3-0.2,0.5-0.3,0.8-0.4c0.4-0.2,0.7-0.1,1,0.1
			c0.2,0.1,0.4,0.2,0.6,0.2c0.2,0.1,0.5,0.1,0.7,0.2c0.2,0.1,0.4,0.2,0.6,0.2c0.3,0.1,0.5,0.2,0.6,0.5c0.1,0.2,0.1,0.3-0.1,0.4
			c-0.2,0.1-0.3,0.2-0.4,0.4c-0.5,0.8-1,1.5-1.6,2.1c0,0,0,0-0.1,0.1c-0.2,0.5-0.6,0.8-1,1.1c-0.4,0.3-0.8,0.8-1.4,0.9
			c-0.2,0.1-0.4,0.2-0.6,0.3c-0.1,0.1-0.2,0.1-0.2,0.2c0,0.6,0.1,1.1,0.4,1.6c0.2,0.2,0.4,0.3,0.7,0.2c0.2-0.1,0.5-0.2,0.6-0.4
			c0.7-0.7,1.4-1.4,2.1-2.1c0.3-0.3,0.5-0.6,0.8-1c0.5-0.7,1.2-1.3,1.9-1.9c0.5-0.5,1-1,1.5-1.5c0.1-0.1,0.3-0.3,0.4-0.4
			C127.6,12.1,127.6,12.3,127.6,12.4z M119.5,16c0.4-0.3,0.7-0.6,1-1c0.6-0.6,1.3-1.2,1.9-1.9c0.3-0.3,0.5-0.6,0.8-0.9
			c0.1-0.1,0.1-0.1,0.1-0.2c-0.1,0-0.1,0-0.2,0c-0.5,0-1,0.2-1.4,0.5c-0.1,0.1-0.2,0.2-0.4,0.3c-0.3,0.3-0.7,0.5-0.9,0.8
			c-0.4,0.5-0.9,1.1-1.1,1.8c-0.1,0.3-0.3,0.5-0.3,0.9C119.3,16.1,119.4,16.1,119.5,16z"/>
		<path fill="#545454" d="M130.6,11.4c0.2,0.1,0.2,0.2,0.1,0.4c-0.3,0.3-0.5,0.5-0.8,0.8c0,0,0.1,0.1,0.1,0.1
			c0.2,0.2,0.4,0.4,0.4,0.7c0.2,1.2,0.2,2.4,0.2,3.6c0,0.6-0.1,1.2-0.1,1.9c0,0.9-0.1,1.9-0.1,2.8c0,0.2,0,0.4,0,0.5
			c0,0,0.1,0,0.1,0c0.1-0.1,0.2-0.2,0.2-0.3c0.2-0.3,0.3-0.6,0.4-1c0.4-1.2,0.8-2.5,1.2-3.7c0.1-0.2,0.1-0.4,0.2-0.6
			c0.1-0.3,0.2-0.5,0.3-0.8c0.1-0.3,0.2-0.5,0.3-0.8c0,0,0-0.1,0-0.1c0.2-0.6,0.4-1.2,0.6-1.8c0-0.1,0.1-0.2,0.2-0.2
			c0.2-0.1,0.3,0.1,0.3,0.3c0,0.1,0,0.2-0.1,0.2c-0.2,0.4-0.3,0.9-0.5,1.3c-0.2,0.6-0.3,1.2-0.5,1.8c-0.1,0.2-0.1,0.3-0.1,0.4
			c-0.2,0.6-0.4,1.3-0.7,1.9c-0.2,0.6-0.4,1.1-0.6,1.7c0,0.1-0.1,0.2-0.1,0.3c-0.2,0.3-0.3,0.5-0.3,0.8c0,0.2-0.2,0.4-0.3,0.5
			c-0.1,0.1-0.2,0.3-0.2,0.4c-0.1,0.2-0.2,0.3-0.3,0.3c-0.5,0.1-1.1-0.2-1.4-0.7c-0.3-0.5-0.4-1.1-0.5-1.6c-0.1-0.9-0.1-1.8,0-2.7
			c0-0.1,0-0.2,0-0.4c-0.2,0.3-0.4,0.5-0.5,0.8c-0.2,0.6-0.6,1-1.1,1.3c0,0-0.1,0.1-0.1,0.1c-0.2,0.3-0.4,0.3-0.6,0.3
			c-0.3,0-0.5-0.1-0.7-0.3c-0.5-0.5-0.7-1.1-0.8-1.8c-0.1-0.6,0.1-1.2,0.3-1.8c0.4-1.5,1.1-2.7,2.1-3.9c0.4-0.4,0.7-0.8,1.1-1.2
			c0.3-0.3,0.5-0.5,0.8-0.7c0.2-0.1,0.4-0.2,0.6-0.2c0.1,0,0.2,0,0.3,0.1c0.2,0.2,0.3,0.3,0.5,0.5c0.1,0.1,0.1,0.2,0.1,0.3
			C130.5,11.4,130.6,11.4,130.6,11.4z M126.7,19c0.7-0.8,1.2-1.7,1.7-2.6c0.2-0.4,0.3-0.7,0.5-1.1c0.3-0.6,0.2-1.3,0.4-2
			c-0.5,0.3-0.7,0.7-1,1.2c-0.4,0.6-0.6,1.2-1,1.8c0,0,0,0.1,0,0.1c-0.3,0.8-0.6,1.5-0.8,2.3c-0.1,0.2-0.2,0.5-0.1,0.8
			C126.5,19.2,126.6,19.1,126.7,19z"/>
		<path fill="#545454" d="M134.4,12.7c0.3,0.3,0.4,0.6,0.4,1c0,0.9-0.1,1.7-0.3,2.5c-0.1,0.5-0.3,0.9-0.5,1.4
			c-0.2,0.5-0.5,1-0.7,1.5c0,0,0,0.1,0,0.1c0.3-0.1,0.6-0.3,0.9-0.5c0.5-0.4,0.8-0.9,1-1.5c0.3-0.6,0.5-1.1,0.8-1.7
			c0.3-0.6,0.5-1.3,0.8-2c0.3-0.6,0.6-1.2,1.3-1.4c0.2,0.1,0.3,0.1,0.5,0.2c0.6,0.2,0.9,0.7,0.9,1.3c0.1,0.9-0.2,1.8-0.5,2.6
			c-0.2,0.5-0.3,1-0.4,1.5c0.2-0.1,0.3-0.4,0.5-0.6c0.4-0.8,0.9-1.5,1.3-2.3c0.3-0.5,0.5-0.9,0.8-1.4c0.1-0.2,0.2-0.3,0.3-0.5
			c0.4-0.6,0.9-1.2,1.3-1.8c0.1-0.2,0.3-0.3,0.5-0.5c0.3-0.3,0.5-0.3,0.9-0.1c0.4,0.2,0.6,0.5,0.7,0.9c0.2,0.5,0.2,1,0,1.6
			c-0.2,0.7-0.4,1.4-0.7,2.2c-0.3,0.8-0.6,1.7-1,2.5c-0.2,0.5-0.4,1.1-0.6,1.6c-0.2,0.6-0.5,1.2-0.6,1.8c-0.1,0.4-0.1,0.7,0.1,1.1
			c0.1,0.2,0.2,0.4,0.4,0.4c0.1,0,0.2,0.1,0.3,0.2c0.1,0.1,0.1,0.1,0.1,0.2c0,0-0.1,0.1-0.2,0.1c-0.2,0.1-0.3,0.1-0.5,0
			c-0.1-0.1-0.3-0.2-0.4-0.2c-0.1,0-0.1-0.1-0.2-0.1c-0.5-0.1-0.7-0.5-1-0.8c-0.3-0.5-0.4-1.1-0.3-1.8c0.1-0.7,0.3-1.3,0.5-1.9
			c0.3-0.7,0.6-1.4,0.9-2.2c0.5-1.3,1.1-2.7,1.6-4c0-0.1,0.1-0.2,0-0.3c-0.2,0.2-0.4,0.4-0.6,0.6c-0.4,0.5-0.8,1.1-1.1,1.7
			c-0.4,0.8-0.9,1.7-1.3,2.5c-0.2,0.3-0.4,0.6-0.5,1c-0.2,0.4-0.5,0.8-0.7,1.2c-0.3,0.4-1,0.6-1.5,0.5c-0.6-0.2-1-0.7-0.9-1.4
			c0-0.3,0.1-0.6,0.1-0.8c0.2-0.8,0.4-1.5,0.7-2.3c0.2-0.5,0.4-1,0.5-1.5c-0.3,0.2-0.4,0.4-0.5,0.6c-0.2,0.4-0.3,0.8-0.5,1.2
			c-0.5,1.2-1,2.4-1.7,3.5c-0.2,0.4-0.5,0.7-1,0.9c-0.3,0.1-0.5,0.3-0.7,0.5c-0.3,0.2-0.6,0.4-1,0.3c-0.3-0.1-0.6-0.2-0.7-0.5
			c-0.1-0.2-0.3-0.4-0.3-0.6c-0.1-0.3-0.1-0.6,0.1-0.9c0.2-0.6,0.4-1.2,0.7-1.8c0.5-1.1,0.8-2.3,1-3.5c0-0.1,0-0.3,0-0.4
			C133.8,12.3,134.2,12.4,134.4,12.7z"/>
		<path fill="#545454" d="M143.7,24c-0.4-0.6-0.5-1.2-0.3-1.9c0.2-0.5,0.5-1,0.9-1.3c0.4-0.4,0.9-0.8,1.3-1.1
			c0.2-0.2,0.5-0.4,0.8-0.6c0.1-0.1,0.2-0.2,0.4-0.3c-0.2-0.6-0.4-1.2-0.5-1.7c-0.3-0.9-0.5-1.7-0.6-2.6c-0.1-0.3,0-0.5,0-0.8
			c0.1-0.4,0.1-0.8,0.3-1.1c0.1-0.2,0.2-0.4,0.3-0.5c0.2-0.3,0.5-0.5,0.8-0.8c0.1-0.1,0.2-0.1,0.4-0.2c0.5-0.1,1-0.2,1.5-0.1
			c0.4,0,0.8,0.2,1.1,0.4c0.3,0.2,0.5,0.5,0.6,0.9c0.1,0.2,0.1,0.3,0.1,0.5s0,0.3-0.1,0.5c-0.1,0.2-0.3,0.4-0.4,0.6
			c-0.2,0.4-0.5,0.4-0.9,0c0.1-0.1,0.1-0.2,0.2-0.3c0.2-0.3,0.3-0.7,0.2-1.1c0-0.1,0-0.3-0.1-0.4c0-0.3-0.2-0.4-0.4-0.4
			c-0.3,0-0.6,0.1-0.8,0.3c-0.2,0.2-0.4,0.4-0.6,0.5c-0.2,0.2-0.3,0.5-0.3,0.8c0,0.3,0,0.6-0.1,0.9c0,0.4,0,0.7,0.1,1.1
			c0.2,0.7,0.4,1.4,0.5,2.1c0,0.1,0.1,0.2,0.1,0.4c0.1-0.1,0.3-0.1,0.3-0.2c1.5-1.1,3.1-2,4.7-2.9c0.4-0.3,0.9,0,1,0.5
			c-0.7,0.4-1.4,0.8-2.1,1.2c-1.1,0.6-2.1,1.3-3.2,2c0,0-0.1,0-0.1,0.1c-0.4,0.3-0.4,0.3-0.3,0.8c0.2,0.6,0.3,1.1,0.4,1.7
			c0.1,0.3,0.1,0.6,0.2,1c0,0.4,0,0.7-0.2,1c-0.3,0.5-0.6,1-1,1.4c-0.3,0.2-0.6,0.4-1,0.6c-0.2,0.2-0.4,0.2-0.7,0.2
			c-0.3,0-0.7,0-1-0.1c-0.3-0.1-0.7-0.1-0.9-0.3c-0.1-0.1-0.2-0.1-0.3-0.1C143.8,24.3,143.8,24.1,143.7,24z M146.2,20.1
			c-0.3,0.2-0.5,0.4-0.8,0.6c-0.4,0.2-0.7,0.4-1,0.8c-0.3,0.4-0.4,0.9-0.5,1.4c0,0.4,0.1,0.7,0.3,1c0.2,0.3,0.4,0.5,0.8,0.5
			c0.5,0,1,0,1.4-0.5c0.3-0.3,0.4-0.6,0.6-0.9c0.3-0.6,0.4-1.2,0.4-1.8c-0.1-0.5-0.2-0.9-0.3-1.5C146.6,19.8,146.4,20,146.2,20.1z"
			/>
	</g>
</g>
</svg>
