<?xml version="1.0" encoding="utf-8"?>
<!-- Generator: Adobe Illustrator 19.2.0, SVG Export Plug-In . SVG Version: 6.00 Build 0)  -->
<svg version="1.1" id="Layer_1" xmlns="http://www.w3.org/2000/svg" xmlns:xlink="http://www.w3.org/1999/xlink" x="0px" y="0px"
	 viewBox="0 0 64 64" enable-background="new 0 0 64 64" xml:space="preserve">
<g>
	<path fill="#FF5C70" d="M62.8,33.5c3.1-7.3-0.2-15.7-7.5-18.9c-4.1-1.7-8.5-1.5-12.2,0.4c-1.2-3.9-4-7.3-8.1-9.1
		c-7.3-3.1-15.7,0.2-18.9,7.5c-4.9,11.4,8.1,30.9,11.3,35.5c0.4,0.6,1.1,0.9,1.9,0.8C34.8,48.9,57.9,44.9,62.8,33.5z"/>
	<path fill="#FF97A4" d="M43.9,32.5c-0.7-6.9-6.8-11.9-13.6-11.2c-3.8,0.4-7.1,2.4-9.1,5.4c-2.5-2.5-6.1-3.9-10-3.5
		C4.4,23.8-0.6,29.9,0.1,36.8c1,10.7,19.1,20.2,23.4,22.3c0.6,0.3,1.2,0.2,1.8-0.2C29.1,56,45,43.3,43.9,32.5z"/>
</g>
</svg>
