<?xml version="1.0" encoding="utf-8"?>
<!-- Generator: Adobe Illustrator 19.2.0, SVG Export Plug-In . SVG Version: 6.00 Build 0)  -->
<svg version="1.1" id="Isolation_Mode" xmlns="http://www.w3.org/2000/svg" xmlns:xlink="http://www.w3.org/1999/xlink" x="0px"
	 y="0px" viewBox="0 0 64 64" enable-background="new 0 0 64 64" xml:space="preserve">
<g>
	<g>
		<path fill-rule="evenodd" clip-rule="evenodd" fill="#F4981A" d="M39.7,37.4c-3.7,2.7-9.1,4.2-13.8,4.2c-6.5,0-12.4-2.4-16.8-6.4
			c-0.3-0.3,0-0.7,0.4-0.5c4.8,2.8,10.7,4.5,16.8,4.5c4.1,0,8.7-0.9,12.8-2.6C39.8,36.3,40.3,37,39.7,37.4z"/>
		<path fill-rule="evenodd" clip-rule="evenodd" fill="#F4981A" d="M41.3,35.7c-0.5-0.6-3.1-0.3-4.3-0.1c-0.4,0-0.4-0.3-0.1-0.5
			c2.1-1.5,5.6-1.1,6-0.6c0.4,0.5-0.1,4-2.1,5.7c-0.3,0.3-0.6,0.1-0.5-0.2C40.7,38.8,41.7,36.3,41.3,35.7z"/>
	</g>
	<g>
		<path fill-rule="evenodd" clip-rule="evenodd" fill="#010202" d="M37,24.5V23c0-0.2,0.2-0.4,0.4-0.4l6.5,0c0.2,0,0.4,0.2,0.4,0.4
			v1.2c0,0.2-0.2,0.5-0.5,0.9L40.4,30c1.3,0,2.6,0.2,3.7,0.8c0.3,0.1,0.3,0.4,0.3,0.6v1.6c0,0.2-0.2,0.5-0.5,0.3c-2-1-4.7-1.2-6.9,0
			c-0.2,0.1-0.5-0.1-0.5-0.3v-1.5c0-0.2,0-0.6,0.2-1l3.9-5.6l-3.4,0C37.2,24.8,37,24.7,37,24.5z"/>
		<path fill-rule="evenodd" clip-rule="evenodd" fill="#010202" d="M13.2,33.5h-2c-0.2,0-0.3-0.2-0.4-0.3l0-10.2
			c0-0.2,0.2-0.4,0.4-0.4l1.8,0c0.2,0,0.3,0.2,0.4,0.3v1.3h0c0.5-1.3,1.4-1.9,2.6-1.9c1.2,0,2,0.6,2.6,1.9c0.5-1.3,1.6-1.9,2.7-1.9
			c0.8,0,1.7,0.3,2.3,1.1c0.6,0.9,0.5,2.1,0.5,3.2l0,6.4c0,0.2-0.2,0.4-0.4,0.4h-2c-0.2,0-0.4-0.2-0.4-0.4l0-5.4
			c0-0.4,0-1.5-0.1-1.9c-0.1-0.7-0.6-0.9-1.2-0.9c-0.5,0-1,0.3-1.2,0.8c-0.2,0.5-0.2,1.4-0.2,1.9v5.4c0,0.2-0.2,0.4-0.4,0.4h-2
			c-0.2,0-0.4-0.2-0.4-0.4l0-5.4c0-1.1,0.2-2.8-1.2-2.8c-1.4,0-1.4,1.6-1.4,2.8l0,5.4C13.6,33.4,13.5,33.5,13.2,33.5z"/>
		<path fill-rule="evenodd" clip-rule="evenodd" fill="#010202" d="M49.9,22.5c2.9,0,4.5,2.5,4.5,5.7c0,3.1-1.8,5.6-4.5,5.6
			c-2.9,0-4.5-2.5-4.5-5.7C45.4,24.9,47,22.5,49.9,22.5z M49.9,24.5c-1.5,0-1.6,2-1.6,3.2c0,1.2,0,3.9,1.5,3.9
			c1.5,0,1.6-2.1,1.6-3.4c0-0.9,0-1.9-0.3-2.7C50.9,24.8,50.5,24.5,49.9,24.5z"/>
		<path fill-rule="evenodd" clip-rule="evenodd" fill="#010202" d="M58.2,33.5h-2c-0.2,0-0.4-0.2-0.4-0.4l0-10.2
			c0-0.2,0.2-0.3,0.4-0.3l1.8,0c0.2,0,0.3,0.1,0.4,0.3v1.6h0c0.6-1.4,1.3-2.1,2.7-2.1c0.9,0,1.8,0.3,2.3,1.2
			c0.5,0.8,0.5,2.2,0.5,3.2v6.4c0,0.2-0.2,0.3-0.4,0.3h-2c-0.2,0-0.3-0.1-0.4-0.3v-5.5c0-1.1,0.1-2.7-1.2-2.7
			c-0.5,0-0.9,0.3-1.1,0.8c-0.3,0.6-0.3,1.2-0.3,1.9v5.5C58.6,33.4,58.4,33.5,58.2,33.5z"/>
		<path fill-rule="evenodd" clip-rule="evenodd" fill="#010202" d="M31.8,28.7c0,0.8,0,1.4-0.4,2.1c-0.3,0.6-0.8,0.9-1.4,0.9
			c-0.8,0-1.2-0.6-1.2-1.4c0-1.7,1.5-2,2.9-2V28.7z M33.8,33.5c-0.1,0.1-0.3,0.1-0.5,0c-0.7-0.5-0.8-0.8-1.1-1.3
			c-1.1,1.1-1.9,1.4-3.3,1.4c-1.7,0-3-1-3-3.1c0-1.6,0.9-2.7,2.1-3.2c1.1-0.5,2.6-0.6,3.7-0.7v-0.3c0-0.5,0-1-0.2-1.4
			c-0.2-0.4-0.7-0.5-1.1-0.5c-0.8,0-1.4,0.4-1.6,1.2c0,0.2-0.2,0.4-0.3,0.4l-1.9-0.2c-0.2,0-0.3-0.2-0.3-0.4c0.4-2.3,2.5-3,4.4-3
			c1,0,2.2,0.3,3,1c1,0.9,0.9,2.1,0.9,3.4v3.1c0,0.9,0.4,1.3,0.7,1.8c0.1,0.2,0.2,0.4,0,0.5C34.9,32.5,34.2,33.2,33.8,33.5
			L33.8,33.5z"/>
		<path fill-rule="evenodd" clip-rule="evenodd" fill="#010202" d="M5.8,28.7c0,0.8,0,1.4-0.4,2.1c-0.3,0.6-0.8,0.9-1.4,0.9
			c-0.8,0-1.2-0.6-1.2-1.4c0-1.7,1.5-2,2.9-2V28.7z M7.8,33.5c-0.1,0.1-0.3,0.1-0.5,0c-0.7-0.5-0.8-0.8-1.1-1.3
			c-1.1,1.1-1.9,1.4-3.3,1.4c-1.7,0-3-1-3-3.1c0-1.6,0.9-2.7,2.1-3.2c1.1-0.5,2.6-0.6,3.7-0.7v-0.3c0-0.5,0-1-0.2-1.4
			c-0.2-0.4-0.7-0.5-1.1-0.5c-0.8,0-1.4,0.4-1.6,1.2c0,0.2-0.2,0.4-0.3,0.4l-1.9-0.2c-0.2,0-0.3-0.2-0.3-0.4c0.4-2.3,2.5-3,4.4-3
			c1,0,2.2,0.3,3,1c1,0.9,0.9,2.1,0.9,3.4v3.1c0,0.9,0.4,1.3,0.7,1.8c0.1,0.2,0.2,0.4,0,0.5C9,32.5,8.2,33.2,7.8,33.5L7.8,33.5z"/>
	</g>
</g>
</svg>
