<?xml version="1.0" encoding="utf-8"?>
<!-- Generator: Adobe Illustrator 21.0.2, SVG Export Plug-In . SVG Version: 6.00 Build 0)  -->
<svg version="1.1" id="Isolation_Mode" xmlns="http://www.w3.org/2000/svg" xmlns:xlink="http://www.w3.org/1999/xlink" x="0px"
	 y="0px" viewBox="0 0 64 19" style="enable-background:new 0 0 64 19;" xml:space="preserve">
<style type="text/css">
	.st0{fill:#F4981A;}
	.st1{fill:#010202;}
</style>
<g>
	<g>
		<path class="st0" d="M39.7,14.8C36,17.5,30.6,19,25.9,19c-6.5,0-12.4-2.4-16.8-6.4c-0.3-0.3,0-0.7,0.4-0.5
			c4.8,2.8,10.7,4.5,16.8,4.5c4.1,0,8.7-0.9,12.8-2.6C39.8,13.7,40.3,14.4,39.7,14.8z"/>
		<path class="st0" d="M41.3,13.1c-0.5-0.6-3.1-0.3-4.3-0.1c-0.4,0-0.4-0.3-0.1-0.5c2.1-1.5,5.6-1.1,6-0.6s-0.1,4-2.1,5.7
			c-0.3,0.3-0.6,0.1-0.5-0.2C40.7,16.2,41.7,13.7,41.3,13.1z"/>
	</g>
	<g>
		<path class="st1" d="M37,1.9V0.4C37,0.2,37.2,0,37.4,0h6.5c0.2,0,0.4,0.2,0.4,0.4v1.2c0,0.2-0.2,0.5-0.5,0.9l-3.4,4.9
			c1.3,0,2.6,0.2,3.7,0.8c0.3,0.1,0.3,0.4,0.3,0.6v1.6c0,0.2-0.2,0.5-0.5,0.3c-2-1-4.7-1.2-6.9,0c-0.2,0.1-0.5-0.1-0.5-0.3V8.9
			c0-0.2,0-0.6,0.2-1l3.9-5.6h-3.4C37.2,2.2,37,2.1,37,1.9z"/>
		<path class="st1" d="M13.2,10.9h-2c-0.2,0-0.3-0.2-0.4-0.3V0.4C10.8,0.2,11,0,11.2,0H13c0.2,0,0.3,0.2,0.4,0.3v1.3l0,0
			c0.5-1.3,1.4-1.9,2.6-1.9s2,0.6,2.6,1.9c0.5-1.3,1.6-1.9,2.7-1.9c0.8,0,1.7,0.3,2.3,1.1c0.6,0.9,0.5,2.1,0.5,3.2v6.4
			c0,0.2-0.2,0.4-0.4,0.4h-2c-0.2,0-0.4-0.2-0.4-0.4V5c0-0.4,0-1.5-0.1-1.9c-0.1-0.7-0.6-0.9-1.2-0.9c-0.5,0-1,0.3-1.2,0.8
			s-0.2,1.4-0.2,1.9v5.4c0,0.2-0.2,0.4-0.4,0.4h-2c-0.2,0-0.4-0.2-0.4-0.4V4.9c0-1.1,0.2-2.8-1.2-2.8s-1.4,1.6-1.4,2.8v5.4
			C13.6,10.8,13.5,10.9,13.2,10.9z"/>
		<path class="st1" d="M49.9-0.1c2.9,0,4.5,2.5,4.5,5.7c0,3.1-1.8,5.6-4.5,5.6c-2.9,0-4.5-2.5-4.5-5.7S47-0.1,49.9-0.1z M49.9,1.9
			c-1.5,0-1.6,2-1.6,3.2s0,3.9,1.5,3.9s1.6-2.1,1.6-3.4c0-0.9,0-1.9-0.3-2.7C50.9,2.2,50.5,1.9,49.9,1.9z"/>
		<path class="st1" d="M58.2,10.9h-2c-0.2,0-0.4-0.2-0.4-0.4V0.3C55.8,0.1,56,0,56.2,0H58c0.2,0,0.3,0.1,0.4,0.3v1.6l0,0
			c0.6-1.4,1.3-2.1,2.7-2.1c0.9,0,1.8,0.3,2.3,1.2c0.5,0.8,0.5,2.2,0.5,3.2v6.4c0,0.2-0.2,0.3-0.4,0.3h-2c-0.2,0-0.3-0.1-0.4-0.3
			V5.1c0-1.1,0.1-2.7-1.2-2.7c-0.5,0-0.9,0.3-1.1,0.8c-0.3,0.6-0.3,1.2-0.3,1.9v5.5C58.6,10.8,58.4,10.9,58.2,10.9z"/>
		<path class="st1" d="M31.8,6.1c0,0.8,0,1.4-0.4,2.1c-0.3,0.6-0.8,0.9-1.4,0.9c-0.8,0-1.2-0.6-1.2-1.4c0-1.7,1.5-2,2.9-2v0.4H31.8z
			 M33.8,10.9c-0.1,0.1-0.3,0.1-0.5,0c-0.7-0.5-0.8-0.8-1.1-1.3c-1.1,1.1-1.9,1.4-3.3,1.4c-1.7,0-3-1-3-3.1c0-1.6,0.9-2.7,2.1-3.2
			c1.1-0.5,2.6-0.6,3.7-0.7V3.7c0-0.5,0-1-0.2-1.4s-0.7-0.5-1.1-0.5c-0.8,0-1.4,0.4-1.6,1.2c0,0.2-0.2,0.4-0.3,0.4l-1.9-0.2
			c-0.2,0-0.3-0.2-0.3-0.4c0.4-2.3,2.5-3,4.4-3c1,0,2.2,0.3,3,1c1,0.9,0.9,2.1,0.9,3.4v3.1c0,0.9,0.4,1.3,0.7,1.8
			c0.1,0.2,0.2,0.4,0,0.5C34.9,9.9,34.2,10.6,33.8,10.9L33.8,10.9z"/>
		<path class="st1" d="M5.8,6.1c0,0.8,0,1.4-0.4,2.1C5.1,8.8,4.6,9.1,4,9.1c-0.8,0-1.2-0.6-1.2-1.4c0-1.7,1.5-2,2.9-2v0.4H5.8z
			 M7.8,10.9c-0.1,0.1-0.3,0.1-0.5,0c-0.7-0.5-0.8-0.8-1.1-1.3C5.1,10.7,4.3,11,2.9,11c-1.7,0-3-1-3-3.1c0-1.6,0.9-2.7,2.1-3.2
			C3.1,4.2,4.6,4.1,5.7,4V3.7c0-0.5,0-1-0.2-1.4S4.8,1.8,4.4,1.8C3.6,1.8,3,2.2,2.8,3c0,0.2-0.2,0.4-0.3,0.4L0.6,3.2
			C0.4,3.2,0.3,3,0.3,2.8c0.4-2.3,2.5-3,4.4-3c1,0,2.2,0.3,3,1c1,0.9,0.9,2.1,0.9,3.4v3.1c0,0.9,0.4,1.3,0.7,1.8
			c0.1,0.2,0.2,0.4,0,0.5C9,9.9,8.2,10.6,7.8,10.9L7.8,10.9z"/>
	</g>
</g>
</svg>
