<?xml version="1.0" encoding="utf-8"?>
<!-- Generator: Adobe Illustrator 19.2.0, SVG Export Plug-In . SVG Version: 6.00 Build 0)  -->
<svg version="1.1" id="Isolation_Mode" xmlns="http://www.w3.org/2000/svg" xmlns:xlink="http://www.w3.org/1999/xlink" x="0px"
	 y="0px" viewBox="0 0 64 64" enable-background="new 0 0 64 64" xml:space="preserve">
<g>
	<path fill="#FFD802" d="M0.5,33.7l4.9,7c0.5,0.8,1.4,1.2,2.4,1.2l53.2,0c1.6,0,2.9-1.3,2.9-2.9L64,25c0-1.6-1.3-2.9-2.9-2.9
		l-53.2,0c-1,0-1.8,0.5-2.4,1.2l-4.9,7C-0.2,31.3-0.2,32.7,0.5,33.7z M11.5,32c0,0.8-0.7,1.5-1.5,1.5c-0.8,0-1.5-0.7-1.5-1.5
		c0-0.8,0.7-1.5,1.5-1.5C10.8,30.5,11.5,31.2,11.5,32z"/>
</g>
</svg>
