<?xml version="1.0" encoding="utf-8"?>
<!-- Generator: Adobe Illustrator 19.2.0, SVG Export Plug-In . SVG Version: 6.00 Build 0)  -->
<svg version="1.1" id="Layer_1" xmlns="http://www.w3.org/2000/svg" xmlns:xlink="http://www.w3.org/1999/xlink" x="0px" y="0px"
	 viewBox="0 0 84.9 44.2" enable-background="new 0 0 84.9 44.2" xml:space="preserve">
<g>
	<g>
		<g>
			<g>
				<path fill="#FFE400" d="M78.3,13.6l-4.6-5.6c-0.5-0.6-1.3-1-2.1-0.9L2.3,12.3c-1.4,0.1-2.4,1.3-2.3,2.7l0.9,11.7
					C1,28,2.2,29,3.5,28.9l69.4-5.1c0.8-0.1,1.5-0.5,1.9-1.2l3.7-6.2C79.1,15.6,79,14.4,78.3,13.6z M69.2,15.7
					c-0.1-0.7,0.5-1.3,1.2-1.3c0.7-0.1,1.3,0.5,1.3,1.2c0.1,0.7-0.5,1.3-1.2,1.3C69.9,16.9,69.3,16.4,69.2,15.7z"/>
			</g>
		</g>
		<g>
			<g>
				<path fill="#FFE400" d="M78,16.4c-0.5,0-1-0.1-1.3-0.5l0.7-0.7c0.4,0.4,2.1,0.1,3.7-1.2c1.2-1,4.9-4.5,1.2-10.2
					c-7.6-9.2-32.9,6.8-33.2,7l-0.5-0.8c1.1-0.7,26.3-16.6,34.5-6.7c3.3,5.1,1.4,9.3-1.4,11.6C80.5,15.9,79,16.4,78,16.4z"/>
			</g>
		</g>
	</g>
	<g>
		<path fill="#161616" d="M21.5,15.1l4.1-0.3c0.9-0.1,1.8,0,2.5,0.2c0.7,0.2,1.3,0.6,1.8,1.1c0.5,0.6,0.7,1.3,0.8,2.1l0.1,1.3
			c0.1,1.4-0.3,2.4-1.2,3.1c-0.8,0.6-1.9,1-3.3,1.1L22.1,24c-0.1,0-0.2,0-0.2-0.1c-0.1-0.1-0.1-0.1-0.1-0.2l-0.6-8.2
			c0-0.1,0-0.2,0.1-0.2C21.3,15.1,21.4,15.1,21.5,15.1z M24.6,17.3l0.3,3.9l1.2-0.1c0.4,0,0.7-0.1,0.9-0.4c0.2-0.2,0.3-0.5,0.3-0.8
			l-0.1-1.8c0-0.3-0.2-0.6-0.4-0.8c-0.2-0.2-0.6-0.2-1-0.2L24.6,17.3z"/>
		<path fill="#161616" d="M35.9,20.5l5.1-0.4c0.1,0,0.2,0,0.2,0.1c0.1,0.1,0.1,0.1,0.1,0.2l0.1,1.8c0,0.1,0,0.2-0.1,0.2
			c-0.1,0.1-0.1,0.1-0.2,0.1l-8,0.6c-0.1,0-0.2,0-0.2-0.1c-0.1-0.1-0.1-0.1-0.1-0.2l-0.6-8.2c0-0.1,0-0.2,0.1-0.2
			c0.1-0.1,0.1-0.1,0.2-0.1l7.9-0.6c0.1,0,0.2,0,0.2,0.1c0.1,0.1,0.1,0.1,0.1,0.2l0.1,1.8c0,0.1,0,0.2-0.1,0.2
			c-0.1,0.1-0.1,0.1-0.2,0.1l-4.9,0.4l0.1,0.8l4.2-0.3c0.1,0,0.2,0,0.3,0.1c0.1,0.1,0.1,0.1,0.1,0.2l0.1,1.7c0,0.1,0,0.2-0.1,0.2
			c-0.1,0.1-0.1,0.1-0.2,0.1l-4.2,0.3L35.9,20.5z"/>
		<path fill="#161616" d="M45.4,22.3L43,22.5c-0.1,0-0.1,0-0.2-0.1c-0.1-0.1-0.1-0.1-0.1-0.2c0-0.1,0-0.1,0-0.1l2.2-8.3
			c0.1-0.3,0.2-0.4,0.5-0.5l3.5-0.3c0.3,0,0.5,0.1,0.6,0.4l3.4,7.9c0,0,0,0.1,0,0.1c0,0.1,0,0.1-0.1,0.2c-0.1,0.1-0.1,0.1-0.2,0.1
			l-2.4,0.2c-0.3,0-0.5-0.1-0.6-0.4l-0.4-0.9l-3.1,0.2L46,21.8C45.9,22.1,45.7,22.3,45.4,22.3z M48.5,18.2l-1.1-2.6l-0.7,2.7
			L48.5,18.2z"/>
		<path fill="#161616" d="M58.3,18.7l4.3-0.3c0.1,0,0.2,0,0.2,0.1c0.1,0.1,0.1,0.1,0.1,0.2l0.1,1.9c0,0.1,0,0.2-0.1,0.2
			C63,21,62.9,21,62.8,21l-7.4,0.5c-0.1,0-0.2,0-0.3-0.1C55,21.4,55,21.3,55,21.2L54.4,13c0-0.1,0-0.2,0.1-0.2
			c0.1-0.1,0.1-0.1,0.2-0.1l2.7-0.2c0.1,0,0.2,0,0.2,0.1c0.1,0.1,0.1,0.1,0.1,0.2L58.3,18.7z"/>
	</g>
	<g>
		<path fill="#161616" d="M10,17.7l0.1,1.1c0,0.6-0.1,1-0.5,1.3c-0.4,0.3-0.9,0.5-1.6,0.5c-0.7,0-1.2-0.1-1.7-0.3
			c-0.4-0.3-0.7-0.7-0.7-1.2L5.5,18c0-0.6,0.1-1,0.5-1.3c0.4-0.3,0.9-0.5,1.6-0.5c0.7,0,1.2,0.1,1.6,0.3C9.7,16.7,9.9,17.1,10,17.7z
			 M13.2,15.8l1.1-0.1c0.2,0,0.3,0.1,0.3,0.3c0,0.1,0,0.1,0,0.1L9,24.8C8.9,24.9,8.7,25,8.5,25l-1.1,0.1c-0.2,0-0.3-0.1-0.3-0.3
			c0-0.1,0-0.1,0-0.1l5.6-8.7C12.8,15.9,13,15.8,13.2,15.8z M7.3,17.9L7.4,19c0,0.1,0.1,0.2,0.1,0.3c0.1,0.1,0.2,0.1,0.3,0.1
			c0.1,0,0.2-0.1,0.3-0.1s0.1-0.2,0.1-0.3l-0.1-1.1c0-0.1-0.1-0.2-0.1-0.3c-0.1-0.1-0.2-0.1-0.3-0.1c-0.1,0-0.2,0.1-0.3,0.1
			C7.3,17.7,7.3,17.8,7.3,17.9z M16.1,21.5l0.1,1.2c0,0.6-0.1,1-0.5,1.4c-0.4,0.3-0.9,0.5-1.6,0.6c-0.7,0-1.2-0.1-1.7-0.3
			c-0.4-0.3-0.7-0.7-0.7-1.3l-0.1-1.2c0-0.6,0.1-1,0.5-1.4c0.4-0.3,0.9-0.5,1.6-0.6c0.7,0,1.2,0.1,1.6,0.3
			C15.8,20.6,16.1,21,16.1,21.5z M13.5,21.7l0.1,1.2c0,0.1,0.1,0.2,0.1,0.3c0.1,0.1,0.2,0.1,0.3,0.1c0.1,0,0.2-0.1,0.3-0.1
			c0.1-0.1,0.1-0.2,0.1-0.3l-0.1-1.2c0-0.1-0.1-0.2-0.1-0.3c-0.1-0.1-0.2-0.1-0.3-0.1c-0.1,0-0.2,0.1-0.3,0.1
			C13.5,21.5,13.4,21.6,13.5,21.7z"/>
	</g>
	<g>
		<path fill="#FFFFFF" d="M11.5,34.4h2.9c0.1,0,0.2,0,0.3,0.1c0.1,0.1,0.1,0.2,0.1,0.3v9c0,0.1,0,0.2-0.1,0.3
			c-0.1,0.1-0.2,0.1-0.3,0.1h-2.9c-0.1,0-0.2,0-0.3-0.1c-0.1-0.1-0.1-0.2-0.1-0.3v-3H8.3v3c0,0.1,0,0.2-0.1,0.3
			c-0.1,0.1-0.2,0.1-0.3,0.1H5c-0.1,0-0.2,0-0.3-0.1C4.7,44,4.7,44,4.7,43.8v-9c0-0.1,0-0.2,0.1-0.3c0.1-0.1,0.2-0.1,0.3-0.1h2.9
			c0.1,0,0.2,0,0.3,0.1c0.1,0.1,0.1,0.2,0.1,0.3v2.9h2.8v-2.9c0-0.1,0-0.2,0.1-0.3C11.3,34.5,11.4,34.4,11.5,34.4z"/>
		<path fill="#FFFFFF" d="M25.3,43.2c-0.9,0.7-2.2,1-3.7,1c-1.6,0-2.8-0.3-3.7-1c-0.9-0.7-1.4-1.7-1.4-3.2v-5.3c0-0.1,0-0.2,0.1-0.3
			c0.1-0.1,0.2-0.1,0.3-0.1h2.9c0.1,0,0.2,0,0.3,0.1c0.1,0.1,0.1,0.2,0.1,0.3v5.5c0,0.4,0.1,0.7,0.4,0.9s0.6,0.3,1,0.3
			c0.4,0,0.8-0.1,1-0.3s0.4-0.5,0.4-0.9v-5.5c0-0.1,0-0.2,0.1-0.3c0.1-0.1,0.2-0.1,0.3-0.1h2.9c0.1,0,0.2,0,0.3,0.1
			c0.1,0.1,0.1,0.2,0.1,0.3v5.3C26.7,41.5,26.2,42.6,25.3,43.2z"/>
		<path fill="#FFFFFF" d="M35.3,34.4h2.6c0.1,0,0.2,0,0.3,0.1c0.1,0.1,0.1,0.2,0.1,0.3v9c0,0.1,0,0.2-0.1,0.3
			c-0.1,0.1-0.2,0.1-0.3,0.1h-2.3c-0.2,0-0.4-0.1-0.6-0.3L32,40v3.8c0,0.1,0,0.2-0.1,0.3c-0.1,0.1-0.2,0.1-0.3,0.1H29
			c-0.1,0-0.2,0-0.3-0.1c-0.1-0.1-0.1-0.2-0.1-0.3v-9c0-0.1,0-0.2,0.1-0.3c0.1-0.1,0.2-0.1,0.3-0.1h2.3c0.2,0,0.4,0.1,0.5,0.3
			l3.1,4.2v-4.1c0-0.1,0-0.2,0.1-0.3C35.1,34.5,35.2,34.4,35.3,34.4z"/>
		<path fill="#FFFFFF" d="M40.6,34.4h9.7c0.1,0,0.2,0,0.3,0.1c0.1,0.1,0.1,0.2,0.1,0.3v2.3c0,0.1,0,0.2-0.1,0.3
			c-0.1,0.1-0.2,0.1-0.3,0.1h-3v6.4c0,0.1,0,0.2-0.1,0.3c-0.1,0.1-0.2,0.1-0.3,0.1H44c-0.1,0-0.2,0-0.3-0.1
			c-0.1-0.1-0.1-0.2-0.1-0.3v-6.4h-3c-0.1,0-0.2,0-0.3-0.1c-0.1-0.1-0.1-0.2-0.1-0.3v-2.3c0-0.1,0-0.2,0.1-0.3
			C40.4,34.5,40.5,34.4,40.6,34.4z"/>
		<path fill="#FFFFFF" d="M56.2,41.5h5.6c0.1,0,0.2,0,0.3,0.1c0.1,0.1,0.1,0.2,0.1,0.3v2c0,0.1,0,0.2-0.1,0.3
			c-0.1,0.1-0.2,0.1-0.3,0.1H53c-0.1,0-0.2,0-0.3-0.1c-0.1-0.1-0.1-0.2-0.1-0.3v-9c0-0.1,0-0.2,0.1-0.3c0.1-0.1,0.2-0.1,0.3-0.1h8.7
			c0.1,0,0.2,0,0.3,0.1c0.1,0.1,0.1,0.2,0.1,0.3v2c0,0.1,0,0.2-0.1,0.3c-0.1,0.1-0.2,0.1-0.3,0.1h-5.4V38h4.7c0.1,0,0.2,0,0.3,0.1
			c0.1,0.1,0.1,0.2,0.1,0.3v1.8c0,0.1,0,0.2-0.1,0.3c-0.1,0.1-0.2,0.1-0.3,0.1h-4.7V41.5z"/>
		<path fill="#FFFFFF" d="M74.8,43.8c0,0,0,0.1,0,0.2s0,0.1-0.1,0.2c-0.1,0.1-0.1,0.1-0.2,0.1h-3.2c-0.3,0-0.5-0.1-0.6-0.4l-1.2-2.8
			h-1.2v2.7c0,0.1,0,0.2-0.1,0.3c-0.1,0.1-0.2,0.1-0.3,0.1h-3c-0.1,0-0.2,0-0.3-0.1c-0.1-0.1-0.1-0.2-0.1-0.3v-9
			c0-0.1,0-0.2,0.1-0.3c0.1-0.1,0.2-0.1,0.3-0.1h5.4c1.3,0,2.3,0.3,3,0.9c0.7,0.6,1.1,1.4,1.1,2.5c0,1.3-0.5,2.2-1.5,2.8L74.8,43.8z
			 M68.3,37v1.5H70c0.2,0,0.4-0.1,0.5-0.2c0.1-0.1,0.2-0.3,0.2-0.5c0-0.2-0.1-0.4-0.2-0.5C70.4,37.1,70.3,37,70,37H68.3z"/>
	</g>
</g>
</svg>
