<?xml version="1.0" encoding="utf-8"?>
<!-- Generator: Adobe Illustrator 19.2.0, SVG Export Plug-In . SVG Version: 6.00 Build 0)  -->
<svg version="1.1" id="Layer_1" xmlns="http://www.w3.org/2000/svg" xmlns:xlink="http://www.w3.org/1999/xlink" x="0px" y="0px"
	 viewBox="0 0 64 64" enable-background="new 0 0 64 64" xml:space="preserve">
<path fill="#A2A2A2" d="M60.7,16.3C58.6,14.1,55.8,13,53,13c-3-0.1-6,1-8.3,3.3L32,28.9L19.3,16.3c-1-1-1-2.7,0-3.8
	c0.5-0.5,1.2-0.8,1.9-0.8c0.7,0,1.4,0.3,1.9,0.8l8.9,8.9l8.9-8.9c3-3,7-4.7,11.2-4.9h0l-1.3-1.3c-2.1-2.1-5-3.3-8-3.3
	c-3,0-5.9,1.2-8,3.3L32,9.1l-2.8-2.8c-2.1-2.1-5-3.3-8-3.3c-0.7,0-1.4,0.1-2.1,0.2c-2.2,0.4-4.3,1.5-5.9,3.1c-4.4,4.4-4.4,11.6,0,16
	L32,41.2l18.8-18.8c1-1,2.7-1,3.8,0c1,1,1,2.7,0,3.8L32,48.7L9.4,26.1c-3-2.9-4.8-6.9-4.9-11.1l-1.3,1.3c-2.1,2.1-3.3,5-3.3,8
	c0,3,1.2,5.9,3.3,8L32,61l0,0l0,0l28.7-28.7c2.1-2.1,3.3-5,3.3-8C64,21.2,62.8,18.4,60.7,16.3z"/>
</svg>
