<?xml version="1.0" encoding="utf-8"?>
<!-- Generator: Adobe Illustrator 19.2.0, SVG Export Plug-In . SVG Version: 6.00 Build 0)  -->
<svg version="1.1" id="Слой_1" xmlns="http://www.w3.org/2000/svg" xmlns:xlink="http://www.w3.org/1999/xlink" x="0px" y="0px"
	 viewBox="0 0 194.5 115.8" style="enable-background:new 0 0 194.5 115.8;" xml:space="preserve">
<style type="text/css">
	.st0{fill:#65B601;}
</style>
<g>
	<path class="st0" d="M177.7,24.1c0,0-17.3-4-9.5,12.8c7.7,16.8,2.2,19.5,2.2,19.5s-0.3-0.7-0.8-1.8c-1.2-2.5-3.6-7.1-6.6-9.4
		c-1.3-1.1-3-1.8-4.9-1.8c-4.2,0-7.6,3.4-7.6,7.6s3.4,7.6,7.6,7.6c2.1,0,4-0.8,5.3-2.2l0.3-0.1c0,0-0.4,2.2-2.4,4.3
		c-1.8,1.9-6.6,3.4-11.9,3.5c0.1-0.2,0.1-0.5,0.1-0.7c0-1.7-1.4-3.1-3.1-3.1c-0.3,0-0.6,0.1-0.9,0.1c0-1.1,0-9.5-4.8-13
		c-4.6,1.8-7.5,8.7-7.9,11.6l-0.2-0.1c-0.5-0.4-1.1-0.6-1.8-0.6c-1.6,0-2.9,1.3-3.1,2.8c-1.2-0.2-8.1-1.6-11-7.9
		c1.6,1.1,3.5,1.7,5.6,1.4c4.2-0.6,7-4.5,6.4-8.6c-0.6-4.2-4.5-7-8.6-6.4c-1.8,0.3-3.4,1.2-4.6,2.5c-2.1,2.2-4.1,6.6-5.2,9.7
		c-2.5-4.5-5.3-14.2,6.9-27.1c3.8-4-5.3-13.3-9.1-8.2c0,0,0.7-8.2-10.9-13.3C85.8,8.4,86.5,16.6,86.5,16.6
		c-3.8-5.1-12.8,4.2-9.1,8.2c12.1,12.9,9.4,22.6,6.9,27.1c-1.1-3.1-3.1-7.5-5.2-9.7c-1.1-1.3-2.7-2.2-4.6-2.5
		c-4.2-0.6-8,2.2-8.6,6.4s2.2,8,6.4,8.6c2.1,0.3,4-0.2,5.6-1.4c-2.9,6.3-9.8,7.7-11,7.9c-0.1-1.6-1.4-2.8-3.1-2.8
		c-0.7,0-1.3,0.2-1.8,0.6l-0.2,0.1c-0.4-2.9-3.3-9.8-7.9-11.6c-4.8,3.5-4.8,11.9-4.8,13c-0.3-0.1-0.6-0.1-0.9-0.1
		c-1.7,0-3.1,1.4-3.1,3.1c0,0.3,0,0.5,0.1,0.7c-5.2-0.1-10.1-1.6-11.9-3.5c-2-2.1-2.4-4.3-2.4-4.3l0.3,0.1c1.4,1.3,3.3,2.2,5.3,2.2
		c4.2,0,7.6-3.4,7.6-7.6s-3.4-7.6-7.6-7.6c-1.9,0-3.6,0.7-4.9,1.8c-3,2.3-5.4,6.8-6.6,9.4c-0.5,1.1-0.8,1.8-0.8,1.8
		s-5.5-2.7,2.2-19.5S17,24.1,17,24.1C17.9,13,3.9,13.7,3.9,13.7L23.6,95c34.1-8.4,73.7-8.2,73.7-8.2s39.6-0.2,73.7,8.2l19.7-81.3
		C190.8,13.7,176.8,13,177.7,24.1z"/>
	<path class="st0" d="M25.2,101.2l2.5,10.1c32.4-7.5,69.3-7.4,69.8-7.4c0.4,0,37.1-0.1,69.5,7.3l2.5-10.1c-33.6-7.8-70.4-7.6-72-7.6
		C95.8,93.5,58.8,93.4,25.2,101.2z"/>
</g>
</svg>
