<?xml version="1.0" encoding="utf-8"?>
<!-- Generator: Adobe Illustrator 19.2.0, SVG Export Plug-In . SVG Version: 6.00 Build 0)  -->
<svg version="1.1" id="Слой_1" xmlns="http://www.w3.org/2000/svg" xmlns:xlink="http://www.w3.org/1999/xlink" x="0px" y="0px"
	 viewBox="0 0 229 138" style="enable-background:new 0 0 229 138;" xml:space="preserve">
<style type="text/css">
	.st0{fill:#CD0948;}
</style>
<g>
	<path class="st0" d="M38.9,86.8c-0.2,0.9-0.4,1.8-0.6,2.7C38.5,88.6,38.7,87.7,38.9,86.8z"/>
	<path class="st0" d="M115.3,92c41.6,0,66.2-3.4,76.4-5.2c-16-66.5-27.3-77.2-38.7-82.9c-12.6-6.3-18.9,6.3-37.8,6.3
		S90-2.4,77.4,3.9C66.2,9.6,54.8,20.3,38.9,86.8C49.1,88.6,73.7,92,115.3,92z"/>
	<path class="st0" d="M191.7,86.8c0.2,0.9,0.4,1.8,0.6,2.7C192.1,88.6,191.9,87.7,191.7,86.8z"/>
	<path class="st0" d="M193.6,95L193.6,95L193.6,95z"/>
	<path class="st0" d="M194.2,97.9C194.2,97.8,194.2,97.8,194.2,97.9c0.9,4.1,1.9,8.5,2.9,13c0,0-25.2,6.3-81.8,6.3
		s-81.8-6.3-81.8-6.3c1-4.6,1.9-8.9,2.9-13.1l0,0C27,96.8,2,95.5,2,110.9c0,18.9,62.9,25.2,113.3,25.2c50.3,0,113.3-6.3,113.3-25.2
		C228.6,95.5,203.5,96.8,194.2,97.9z"/>
	<path class="st0" d="M192.9,92.2c0-0.1-0.1-0.2-0.1-0.4C192.9,92,192.9,92.1,192.9,92.2z"/>
	<path class="st0" d="M37.6,92.2L37.6,92.2C37.7,92.1,37.6,92.2,37.6,92.2z"/>
</g>
</svg>
