<?xml version="1.0" encoding="utf-8"?>
<!-- Generator: Adobe Illustrator 19.2.0, SVG Export Plug-In . SVG Version: 6.00 Build 0)  -->
<svg version="1.1" id="Слой_1" xmlns="http://www.w3.org/2000/svg" xmlns:xlink="http://www.w3.org/1999/xlink" x="0px" y="0px"
	 viewBox="0 0 210 80" style="enable-background:new 0 0 210 80;" xml:space="preserve">
<style type="text/css">
	.st0{fill:#0172C0;}
</style>
<g>
	<path class="st0" d="M6,62.2c-1.8,0-3.3,0.6-4.4,1.7C0.5,65.1,0,66.7,0,68.8v4.7c0,2,0.5,3.6,1.6,4.8C2.7,79.4,4.2,80,6,80
		c1.9,0,3.3-0.6,4.4-1.7s1.7-2.7,1.7-4.8v-4.7c0-2-0.6-3.6-1.7-4.8C9.3,62.8,7.8,62.2,6,62.2z M9.7,73.5c0,1.5-0.3,2.7-1,3.5
		c-0.6,0.8-1.6,1.2-2.7,1.2c-1.2,0-2-0.4-2.7-1.2c-0.6-0.8-0.9-1.9-0.9-3.4v-4.8c0-1.5,0.3-2.6,0.9-3.4s1.5-1.2,2.7-1.2
		s2.1,0.4,2.8,1.2c0.6,0.8,1,1.9,1,3.4v4.7H9.7z"/>
	<path class="st0" d="M20.9,62.5h-5.6v17.3h2.4V73h3.2c1.6,0,2.9-0.5,3.8-1.4c0.9-1,1.4-2.2,1.4-3.8c0-1.6-0.5-2.8-1.4-3.8
		S22.5,62.5,20.9,62.5z M23,70.1c-0.5,0.6-1.2,1-2.1,1h-3.2v-6.8h3.2c0.9,0,1.6,0.3,2.1,1c0.5,0.6,0.7,1.5,0.7,2.4
		C23.8,68.7,23.5,69.5,23,70.1z"/>
	<polygon class="st0" points="31.5,71.7 37.3,71.7 37.3,69.9 31.5,69.9 31.5,64.3 38.3,64.3 38.3,62.5 29.1,62.5 29.1,79.8 
		38.4,79.8 38.4,77.9 31.5,77.9 	"/>
	<polygon class="st0" points="50.4,75.2 50.3,75.2 43.6,62.5 41.2,62.5 41.2,79.8 43.6,79.8 43.6,67 43.7,67 50.4,79.8 52.8,79.8 
		52.8,62.5 50.4,62.5 	"/>
	<path class="st0" d="M62,62.5h-5.6v17.3h2.4V73H62c1.6,0,2.9-0.5,3.8-1.4c0.9-1,1.4-2.2,1.4-3.8c0-1.6-0.5-2.8-1.4-3.8
		S63.6,62.5,62,62.5z M64.1,70.1c-0.5,0.6-1.2,1-2.1,1h-3.2v-6.8H62c0.9,0,1.6,0.3,2.1,1c0.5,0.6,0.7,1.5,0.7,2.4
		C64.8,68.7,64.6,69.5,64.1,70.1z"/>
	<path class="st0" d="M80.5,76.9v-1.5c0-1-0.2-1.9-0.6-2.6s-1-1.2-1.9-1.5c0.8-0.4,1.4-0.9,1.8-1.6s0.6-1.5,0.6-2.4
		c0-1.6-0.5-2.8-1.4-3.6c-0.9-0.8-2.2-1.3-3.8-1.3h-5.1v17.2h2.4v-7.4h3c0.8,0,1.4,0.3,1.9,0.8c0.4,0.6,0.7,1.3,0.7,2.3v1.5
		c0,0.6,0,1.1,0.1,1.7c0.1,0.5,0.3,0.9,0.5,1.2h2.5v-0.3c-0.3-0.3-0.4-0.6-0.5-1.1C80.5,78,80.5,77.5,80.5,76.9z M77.3,69.7
		c-0.5,0.5-1.2,0.8-2.2,0.8h-2.6v-6.1h2.7c0.9,0,1.6,0.3,2.1,0.8s0.7,1.3,0.7,2.3C78,68.4,77.8,69.2,77.3,69.7z"/>
	<path class="st0" d="M89.4,62.2c-1.8,0-3.3,0.6-4.4,1.7c-1.1,1.2-1.6,2.7-1.6,4.8v4.7c0,2,0.5,3.6,1.6,4.8c1.1,1.1,2.5,1.7,4.4,1.7
		s3.3-0.6,4.4-1.7s1.7-2.7,1.7-4.8v-4.7c0-2-0.6-3.6-1.7-4.8C92.7,62.8,91.3,62.2,89.4,62.2z M93.1,73.5c0,1.5-0.3,2.7-1,3.5
		c-0.6,0.8-1.6,1.2-2.7,1.2c-1.2,0-2-0.4-2.7-1.2c-0.6-0.8-0.9-1.9-0.9-3.4v-4.8c0-1.5,0.3-2.6,0.9-3.4s1.5-1.2,2.7-1.2
		s2.1,0.4,2.8,1.2c0.6,0.8,1,1.9,1,3.4v4.7H93.1z"/>
	<polygon class="st0" points="98.7,79.8 101.1,79.8 101.1,72.1 107.2,72.1 107.2,70.2 101.1,70.2 101.1,64.3 108.2,64.3 108.2,62.5 
		98.7,62.5 	"/>
	<polygon class="st0" points="113.4,71.7 119.2,71.7 119.2,69.9 113.4,69.9 113.4,64.3 120.2,64.3 120.2,62.5 111,62.5 111,79.8 
		120.3,79.8 120.3,77.9 113.4,77.9 	"/>
	<path class="st0" d="M128.5,70.2c-1.2-0.4-2-0.9-2.5-1.4s-0.7-1.1-0.7-1.9s0.2-1.5,0.7-2s1.1-0.8,2-0.8c0.9,0,1.6,0.3,2.1,0.9
		s0.8,1.4,0.8,2.5h2.3v-0.1c0-1.5-0.4-2.7-1.4-3.7c-1-1-2.2-1.5-3.8-1.5c-1.5,0-2.7,0.4-3.7,1.3c-1,0.9-1.4,2-1.4,3.4
		c0,1.3,0.4,2.4,1.3,3.2c0.9,0.8,2.1,1.5,3.7,2c1.1,0.4,1.9,0.9,2.4,1.4c0.4,0.5,0.7,1.2,0.7,1.9c0,0.8-0.3,1.5-0.8,2
		s-1.2,0.8-2.1,0.8c-0.9,0-1.7-0.3-2.3-0.9c-0.6-0.6-0.9-1.4-0.9-2.6h-2.3v0.1c0,1.7,0.5,3,1.6,3.9s2.4,1.4,4,1.4
		c1.6,0,2.8-0.4,3.8-1.3c1-0.8,1.4-2,1.4-3.4c0-1.3-0.4-2.4-1.2-3.2C131.3,71.3,130.1,70.7,128.5,70.2z"/>
	<path class="st0" d="M142.1,70.2c-1.2-0.4-2-0.9-2.5-1.4s-0.7-1.1-0.7-1.9s0.2-1.5,0.7-2s1.1-0.8,2-0.8s1.6,0.3,2.1,0.9
		s0.8,1.4,0.8,2.5h2.3v-0.1c0-1.5-0.4-2.7-1.4-3.7c-1-1-2.2-1.5-3.8-1.5c-1.5,0-2.7,0.4-3.7,1.3c-1,0.9-1.4,2-1.4,3.4
		c0,1.3,0.4,2.4,1.3,3.2c0.9,0.8,2.1,1.5,3.7,2c1.1,0.4,1.9,0.9,2.4,1.4c0.4,0.5,0.7,1.2,0.7,1.9c0,0.8-0.3,1.5-0.8,2
		s-1.2,0.8-2.1,0.8c-0.9,0-1.7-0.3-2.3-0.9s-0.9-1.4-0.9-2.6h-2.3v0.1c0,1.7,0.5,3,1.6,3.9s2.4,1.4,4,1.4s2.8-0.4,3.8-1.3
		c1-0.8,1.4-2,1.4-3.4c0-1.3-0.4-2.4-1.2-3.2C144.9,71.3,143.7,70.7,142.1,70.2z"/>
	<rect x="150" y="62.5" class="st0" width="2.4" height="17.3"/>
	<path class="st0" d="M161.7,62.2c-1.8,0-3.3,0.6-4.4,1.7c-1.1,1.2-1.6,2.7-1.6,4.8v4.7c0,2,0.5,3.6,1.6,4.8
		c1.1,1.1,2.5,1.7,4.4,1.7s3.3-0.6,4.4-1.7c1.1-1.1,1.7-2.7,1.7-4.8v-4.7c0-2-0.6-3.6-1.7-4.8C165.1,62.8,163.6,62.2,161.7,62.2z
		 M165.5,73.5c0,1.5-0.3,2.7-1,3.5c-0.6,0.8-1.6,1.2-2.7,1.2c-1.2,0-2-0.4-2.7-1.2c-0.6-0.8-0.9-1.9-0.9-3.4v-4.8
		c0-1.5,0.3-2.6,0.9-3.4c0.6-0.8,1.5-1.2,2.7-1.2s2.1,0.4,2.8,1.2c0.6,0.8,1,1.9,1,3.4v4.7H165.5z"/>
	<polygon class="st0" points="180.2,75.2 180.2,75.2 173.5,62.5 171.1,62.5 171.1,79.8 173.5,79.8 173.5,67 173.6,67 180.2,79.8 
		182.6,79.8 182.6,62.5 180.2,62.5 	"/>
	<path class="st0" d="M190.5,62.5l-5.2,17.3h2.5l1.2-4.4h5.1l1.2,4.4h2.5l-5.1-17.3C192.7,62.5,190.5,62.5,190.5,62.5z M189.6,73.5
		l2-7h0.1l2,7H189.6z"/>
	<polygon class="st0" points="203,77.9 203,62.5 200.6,62.5 200.6,79.8 210,79.8 210,77.9 	"/>
	<polygon class="st0" points="140,43.1 140,5.4 140,0 75.4,0 70,0 70,5.4 70,43.1 70,48.5 75.4,48.5 102.3,48.5 102.3,43.1 
		75.4,43.1 75.4,5.4 134.6,5.4 134.6,43.1 118.5,43.1 118.5,48.5 134.6,48.5 140,48.5 	"/>
	<path class="st0" d="M102.3,10.8H80.8v5.4v16.2v5.4h5.4H97h5.4v-5.4V16.2v-5.4H102.3z M96.9,32.4H86.2V16.2H97L96.9,32.4L96.9,32.4
		z"/>
	<path class="st0" d="M113.1,37.7h10.8h5.4v-5.4V16.2v-5.4h-21.5v5.4v16.2v5.4v10.8h5.4V37.7H113.1z M113.1,16.2h10.8v16.2h-10.8
		V16.2z"/>
</g>
</svg>
